<svg width="2016" height="1490" viewBox="0 0 2016 1490" fill="none" xmlns="http://www.w3.org/2000/svg">
<g id="changjo_hall_floor_4">
<g id="void">
<path d="M569 878.5V987.5H629.5V1144H730.5H994.5V1087H1081.5L1210 959.5V878H1261V607H1137.5V496.5H1076.5V342.5H982.5H717V399H632L505 527.5V607.5H454V878.5H569Z" fill="#474747"/>
<path d="M569 987.5H3V1143H16.5V1292H637.5V1326.5H596V1486.5H1211.5V1282.5H906V1174.5H730.5V1144H629.5V987.5H569Z" fill="#999999"/>
<path d="M1137.5 496.5H2013V152H1078.5V115H1114.5V3H654V109.5H604.5V215.5H677.5V268H982.5V342.5H1076.5V496.5H1137.5Z" fill="#999999"/>
<path d="M1134.5 499.5H1073.5V345.5H720V402H633.253L508 528.731V610.5H457V875.5H572V984.5H632.5V1141H991.5V1084H1080.26L1207 958.249V875H1258V610H1134.5V499.5ZM6 1140H19.5V1289H640.5V1329.5H599V1483.5H1208.5V1285.5H903V1177.5H727.5V1147H626.5V990.5H6V1140ZM657 112.5H607.5V212.5H680.5V265H985.5V339.5H1079.5V493.5H2010V155H1075.5V112H1111.5V6H657V112.5ZM1140.5 604H1264V881H1213V960.75L1082.74 1090H997.5V1147H733.5V1171.5H909V1279.5H1214.5V1489.5H593V1323.5H634.5V1295H13.5V1146H0V984.5H566V881.5H451V604.5H502V526.268L630.747 396H714V339.5H979.5V271H674.5V218.5H601.5V106.5H651V0H1117.5V118H1081.5V149H2016V499.5H1140.5V604Z" fill="black"/>
</g>
<g id="void_2">
<path d="M456.5 618.5C456.5 614.082 460.082 610.5 464.5 610.5H677.163C679.298 610.5 681.345 611.354 682.848 612.872L777.185 708.162C778.668 709.66 779.5 711.682 779.5 713.79V772.233C779.5 774.327 778.679 776.338 777.213 777.833L682.852 874.1C681.348 875.635 679.289 876.5 677.139 876.5H464.5C460.082 876.5 456.5 872.918 456.5 868.5V618.5Z" fill="#474747"/>
<path d="M456.5 868.5V618.5C456.5 614.082 460.082 610.5 464.5 610.5H677.163L677.562 610.51C679.552 610.609 681.439 611.449 682.848 612.872L777.185 708.162C778.668 709.66 779.5 711.682 779.5 713.79V772.233L779.49 772.625C779.395 774.577 778.587 776.431 777.213 777.833L682.852 874.1L682.564 874.38C681.189 875.649 679.411 876.396 677.541 876.49L677.139 876.5L677.14 873.5C678.483 873.5 679.77 872.959 680.71 872L775.07 775.733C775.986 774.799 776.5 773.542 776.5 772.233V713.79C776.5 712.473 775.98 711.209 775.054 710.272L680.716 614.982C679.777 614.034 678.498 613.5 677.163 613.5H464.5C461.739 613.5 459.5 615.739 459.5 618.5V868.5C459.5 871.261 461.739 873.5 464.5 873.5L464.5 876.5L464.088 876.489C459.861 876.275 456.5 872.78 456.5 868.5ZM677.14 873.5L677.139 876.5H464.5L464.5 873.5H677.14Z" fill="#2E2F33" fill-opacity="0.88"/>
</g>
<g id="void_3">
<path d="M977.5 345.5C981.918 345.5 985.5 349.082 985.5 353.5V566.163C985.5 568.298 984.646 570.345 983.128 571.848L887.838 666.185C886.34 667.668 884.318 668.5 882.21 668.5H823.767C821.673 668.5 819.662 667.679 818.167 666.213L721.9 571.852C720.365 570.348 719.5 568.289 719.5 566.139V353.5C719.5 349.082 723.082 345.5 727.5 345.5H977.5Z" fill="#474747"/>
<path d="M727.5 345.5H977.5C981.918 345.5 985.5 349.082 985.5 353.5V566.163L985.49 566.562C985.391 568.552 984.551 570.439 983.128 571.848L887.838 666.185C886.34 667.668 884.318 668.5 882.21 668.5H823.767L823.375 668.49C821.423 668.395 819.569 667.587 818.167 666.213L721.9 571.852L721.62 571.564C720.351 570.189 719.604 568.411 719.51 566.541L719.5 566.139L722.5 566.14C722.5 567.483 723.041 568.77 724 569.71L820.267 664.07C821.201 664.986 822.458 665.5 823.767 665.5H882.21C883.527 665.5 884.791 664.98 885.728 664.054L981.018 569.716C981.966 568.777 982.5 567.498 982.5 566.163V353.5C982.5 350.739 980.261 348.5 977.5 348.5H727.5C724.739 348.5 722.5 350.739 722.5 353.5L719.5 353.5L719.511 353.088C719.725 348.861 723.22 345.5 727.5 345.5ZM722.5 566.14L719.5 566.139V353.5L722.5 353.5V566.14Z" fill="#2E2F33" fill-opacity="0.88"/>
</g>
<g id="void_4">
<path d="M1258.5 867.5C1258.5 871.918 1254.92 875.5 1250.5 875.5H1037.84C1035.7 875.5 1033.65 874.646 1032.15 873.128L937.815 777.838C936.332 776.34 935.5 774.318 935.5 772.21V713.767C935.5 711.673 936.321 709.662 937.787 708.167L1032.15 611.9C1033.65 610.365 1035.71 609.5 1037.86 609.5H1250.5C1254.92 609.5 1258.5 613.082 1258.5 617.5V867.5Z" fill="#474747"/>
<path d="M1258.5 617.5V867.5C1258.5 871.918 1254.92 875.5 1250.5 875.5H1037.84L1037.44 875.49C1035.45 875.391 1033.56 874.551 1032.15 873.128L937.815 777.838C936.332 776.34 935.5 774.318 935.5 772.21V713.767L935.51 713.375C935.605 711.423 936.413 709.569 937.787 708.167L1032.15 611.9L1032.44 611.62C1033.81 610.351 1035.59 609.604 1037.46 609.51L1037.86 609.5L1037.86 612.5C1036.52 612.5 1035.23 613.041 1034.29 614L939.93 710.267C939.014 711.201 938.5 712.458 938.5 713.767V772.21C938.5 773.527 939.02 774.791 939.946 775.728L1034.28 871.018C1035.22 871.966 1036.5 872.5 1037.84 872.5H1250.5C1253.26 872.5 1255.5 870.261 1255.5 867.5V617.5C1255.5 614.739 1253.26 612.5 1250.5 612.5V609.5L1250.91 609.511C1255.14 609.725 1258.5 613.22 1258.5 617.5ZM1037.86 612.5L1037.86 609.5H1250.5V612.5H1037.86Z" fill="#2E2F33" fill-opacity="0.88"/>
</g>
<g id="void_5">
<path d="M733.5 1141.5C729.082 1141.5 725.5 1137.92 725.5 1133.5V920.837C725.5 918.702 726.354 916.655 727.872 915.152L823.162 820.815C824.66 819.332 826.682 818.5 828.79 818.5H887.233C889.327 818.5 891.338 819.321 892.833 820.787L989.1 915.148C990.635 916.652 991.5 918.711 991.5 920.861V1133.5C991.5 1137.92 987.918 1141.5 983.5 1141.5H733.5Z" fill="#474747"/>
<path d="M983.5 1141.5H733.5C729.082 1141.5 725.5 1137.92 725.5 1133.5V920.837L725.51 920.438C725.609 918.448 726.449 916.561 727.872 915.152L823.162 820.815C824.66 819.332 826.682 818.5 828.79 818.5H887.233L887.625 818.51C889.577 818.605 891.431 819.413 892.833 820.787L989.1 915.148L989.38 915.436C990.649 916.811 991.396 918.589 991.49 920.459L991.5 920.861L988.5 920.86C988.5 919.517 987.959 918.23 987 917.29L890.733 822.93C889.799 822.014 888.542 821.5 887.233 821.5H828.79C827.473 821.5 826.209 822.02 825.272 822.946L729.982 917.284C729.034 918.223 728.5 919.502 728.5 920.837V1133.5C728.5 1136.26 730.739 1138.5 733.5 1138.5H983.5C986.261 1138.5 988.5 1136.26 988.5 1133.5H991.5L991.489 1133.91C991.275 1138.14 987.78 1141.5 983.5 1141.5ZM988.5 920.86L991.5 920.861V1133.5H988.5V920.86Z" fill="#2E2F33" fill-opacity="0.88"/>
</g>
<g id="changjo_hall_4f_toilet_left_disabled">
<path d="M1032 265C1032 260.582 1035.58 257 1040 257H1109C1113.42 257 1117 260.582 1117 265V296C1117 300.418 1113.42 304 1109 304H1040C1035.58 304 1032 300.418 1032 296V265Z" fill="#FED9C4"/>
<path d="M1109 301V304H1040L1040 301H1109ZM1114 296V265C1114 262.239 1111.76 260 1109 260H1040C1037.24 260 1035 262.239 1035 265V296C1035 298.761 1037.24 301 1040 301L1040 304L1039.59 303.989C1035.36 303.775 1032 300.28 1032 296V265C1032 260.582 1035.58 257 1040 257H1109C1113.42 257 1117 260.582 1117 265V296C1117 300.418 1113.42 304 1109 304V301C1111.76 301 1114 298.761 1114 296Z" fill="#2E2F33" fill-opacity="0.88"/>
<path d="M1083.08 265.325H1066.92C1062.73 265.325 1059.33 268.728 1059.33 272.925V289.075C1059.33 293.272 1062.73 296.675 1066.92 296.675H1083.08C1087.27 296.675 1090.67 293.272 1090.67 289.075V272.925C1090.67 268.728 1087.27 265.325 1083.08 265.325Z" fill="#291F98"/>
<path d="M1079.97 274.967C1081.59 275.274 1082.99 273.879 1082.68 272.257C1082.51 271.357 1081.77 270.62 1080.87 270.449C1079.25 270.142 1077.85 271.537 1078.16 273.158C1078.33 274.058 1079.07 274.796 1079.97 274.966L1079.97 274.967Z" fill="white"/>
<path d="M1082 280.07H1077.06L1079.34 277.788C1079.97 277.163 1079.97 276.15 1079.34 275.526L1078.08 274.261C1078.05 274.232 1078.03 274.197 1078 274.171L1074.53 271.346C1074.31 271.167 1074 271.149 1073.76 271.303L1070.48 273.416C1070.08 273.674 1069.96 274.207 1070.22 274.607C1070.48 275.008 1071.01 275.123 1071.41 274.866L1074.05 273.172L1075.49 274.345L1072.47 277.363C1071.97 277.863 1071.87 278.609 1072.17 279.208C1069.1 279.581 1066.71 282.203 1066.71 285.377C1066.71 288.805 1069.5 291.595 1072.93 291.595C1076.35 291.595 1079.14 288.805 1079.14 285.377C1079.14 284.401 1078.91 283.48 1078.51 282.658H1080.52L1080 286.572C1079.91 287.279 1080.41 287.93 1081.11 288.024C1081.82 288.118 1082.47 287.621 1082.57 286.913L1083.28 281.536C1083.38 280.761 1082.78 280.072 1082 280.072L1082 280.07ZM1077.42 285.375C1077.42 287.853 1075.4 289.869 1072.93 289.869C1070.45 289.869 1068.43 287.853 1068.43 285.375C1068.43 282.896 1070.45 280.881 1072.93 280.881C1073.23 280.881 1073.53 280.914 1073.81 280.971C1074.28 281.064 1074.7 281.245 1075.11 281.469C1075.61 281.751 1076.05 282.123 1076.41 282.569C1076.43 282.599 1076.46 282.626 1076.48 282.656C1077.06 283.413 1077.42 284.349 1077.42 285.375Z" fill="white"/>
</g>
<g id="void_6">
<path d="M895.476 826.597C892.352 823.473 892.352 818.408 895.476 815.283L931.608 779.152C934.732 776.028 939.797 776.028 942.921 779.152L1034.56 870.787C1036.06 872.287 1038.09 873.13 1040.21 873.13H1201C1205.42 873.13 1209 876.711 1209 881.13L1209 957.658C1209 959.796 1208.15 961.846 1206.63 963.349L1083.34 1085.19C1081.84 1086.67 1079.82 1087.5 1077.72 1087.5H997.451C993.033 1087.5 989.451 1083.92 989.451 1079.5L989.454 923.889C989.454 921.767 988.611 919.732 987.111 918.232L895.476 826.597Z" fill="#474747"/>
<path d="M1032.43 872.907L940.8 781.273C938.848 779.32 935.682 779.32 933.729 781.273L897.598 817.404C895.645 819.357 895.645 822.523 897.598 824.475L989.232 916.11C991.295 918.173 992.453 920.971 992.453 923.889L992.451 1079.5C992.451 1082.26 994.69 1084.5 997.451 1084.5L1077.72 1084.5C1079.03 1084.5 1080.3 1083.98 1081.23 1083.06L1204.52 961.214L1206.63 963.349L1083.34 1085.19C1081.94 1086.58 1080.07 1087.39 1078.11 1087.49L1077.72 1087.5H997.451C993.171 1087.5 989.676 1084.14 989.461 1079.91L989.451 1079.5L989.454 923.889C989.454 921.899 988.713 919.986 987.384 918.519L987.111 918.232L895.476 826.597C892.449 823.57 892.355 818.722 895.192 815.582L895.476 815.283L931.608 779.152L931.906 778.868C935.046 776.031 939.895 776.125 942.921 779.152L1034.56 870.787L1034.84 871.06C1036.31 872.389 1038.22 873.13 1040.21 873.13H1201C1205.42 873.13 1209 876.711 1209 881.13L1209 957.658L1208.99 958.058C1208.89 960.05 1208.05 961.939 1206.63 963.349L1204.52 961.214C1205.47 960.275 1206 958.995 1206 957.659V881.13C1206 878.368 1203.77 876.129 1201 876.129L1040.21 876.129C1037.3 876.129 1034.5 874.97 1032.43 872.907Z" fill="#2E2F33" fill-opacity="0.88"/>
</g>
<g id="void_7">
<path d="M773.777 706.221C776.921 709.397 782.059 709.381 785.183 706.184L816.925 673.703C820.006 670.551 819.957 665.501 816.815 662.41L724.786 571.852C723.257 570.348 722.397 568.294 722.397 566.15L722.397 407.43C722.397 403.011 718.815 399.43 714.397 399.43L637.868 399.43C635.73 399.43 633.681 400.286 632.178 401.806L510.336 525.093C508.856 526.59 508.026 528.61 508.026 530.716L508.023 604.001C508.023 608.42 511.605 612.001 516.023 612.001L677.161 612.001C679.297 612.001 681.344 612.855 682.847 614.373L773.777 706.221Z" fill="#474747"/>
<path d="M816.925 673.703C820.006 670.551 819.957 665.501 816.815 662.41L724.786 571.852L724.507 571.564C723.153 570.091 722.397 568.16 722.397 566.15L722.397 407.43C722.397 403.011 718.815 399.43 714.397 399.43L637.868 399.43C635.73 399.43 633.681 400.286 632.178 401.806L634.312 403.916C635.251 402.965 636.532 402.429 637.868 402.429L714.397 402.429C717.158 402.43 719.397 404.668 719.397 407.43L719.397 566.15C719.397 569.098 720.58 571.923 722.681 573.991L814.711 664.548C816.674 666.48 816.705 669.636 814.78 671.606L783.038 704.086C781.085 706.084 777.874 706.095 775.908 704.11L684.978 612.263C682.912 610.176 680.098 609.002 677.161 609.002L516.023 609.001C513.262 609.001 511.023 606.763 511.023 604.001L511.027 530.715C511.027 529.4 511.546 528.137 512.47 527.201L634.312 403.916L632.178 401.806L510.336 525.093C508.949 526.496 508.133 528.36 508.036 530.322L508.026 530.716L508.023 604.001C508.023 608.281 511.385 611.777 515.612 611.991L516.023 612.001L677.161 612.001C679.164 612.001 681.088 612.752 682.559 614.097L682.847 614.373L773.777 706.221C776.921 709.397 782.059 709.381 785.183 706.184L816.925 673.703Z" fill="#2E2F33" fill-opacity="0.88"/>
</g>
<g id="changjo_hall_4f_stairs_right_1">
<path d="M18 1188C18 1183.58 21.5817 1180 26 1180H76C80.4183 1180 84 1183.58 84 1188V1281C84 1285.42 80.4183 1289 76 1289H26C21.5817 1289 18 1285.42 18 1281V1188Z" fill="#D9FFE6"/>
<path d="M76 1286V1289H26V1286H76ZM81 1281V1188C81 1185.24 78.7614 1183 76 1183H26C23.2386 1183 21 1185.24 21 1188V1281C21 1283.76 23.2386 1286 26 1286V1289C21.5817 1289 18 1285.42 18 1281V1188C18 1183.58 21.5817 1180 26 1180H76C80.4183 1180 84 1183.58 84 1188V1281C84 1285.42 80.4183 1289 76 1289V1286C78.7614 1286 81 1283.76 81 1281Z" fill="#2E2F33" fill-opacity="0.88"/>
<path d="M67.758 1216.54C67.024 1216.27 66.2093 1216.65 65.9384 1217.39L63.306 1224.54H48.3971L50.8635 1218.4C51.1554 1217.68 50.8037 1216.85 50.0771 1216.56C49.3505 1216.27 48.5252 1216.62 48.2333 1217.34L34.5024 1251.51C34.2105 1252.23 34.5623 1253.06 35.2889 1253.35C35.4621 1253.42 35.6406 1253.45 35.817 1253.45C36.3787 1253.45 36.9111 1253.12 37.1327 1252.57L39.9529 1245.55C40.0138 1245.56 40.0674 1245.59 40.1304 1245.59H55.5633L53.3699 1251.55C53.1 1252.28 53.4759 1253.1 54.2109 1253.37C54.3726 1253.43 54.5385 1253.45 54.7002 1253.45C55.2767 1253.45 55.8195 1253.1 56.0306 1252.53L68.5991 1218.36C68.8689 1217.63 68.493 1216.81 67.758 1216.54ZM47.5518 1227.37H62.2623L59.9943 1233.54H44.7798L47.2799 1227.32C47.3712 1227.34 47.4552 1227.37 47.5518 1227.37ZM41.0775 1242.75L43.6574 1236.33C43.7246 1236.34 43.7854 1236.37 43.8558 1236.37H58.9527L56.606 1242.75H41.0775Z" fill="#6E4944"/>
</g>
<g id="changjo_hall_4f_stairs_left_1">
<path d="M679 162C679 157.582 682.582 154 687 154H731C735.418 154 739 157.582 739 162V257C739 261.418 735.418 265 731 265H687C682.582 265 679 261.418 679 257V162Z" fill="#D9FFE6"/>
<path d="M731 262V265H687L687 262H731ZM736 257V162C736 159.239 733.761 157 731 157H687C684.239 157 682 159.239 682 162V257C682 259.761 684.239 262 687 262L687 265L686.588 264.989C682.498 264.782 679.218 261.502 679.011 257.412L679 257V162C679 157.582 682.582 154 687 154H731C735.418 154 739 157.582 739 162V257L738.989 257.412C738.782 261.502 735.502 264.782 731.412 264.989L731 265V262C733.761 262 736 259.761 736 257Z" fill="#2E2F33" fill-opacity="0.88"/>
<path d="M725.758 191.544C725.024 191.273 724.209 191.651 723.938 192.385L721.306 199.539H706.397L708.864 193.403C709.155 192.676 708.804 191.85 708.077 191.558C707.35 191.266 706.525 191.62 706.233 192.344L692.502 226.507C692.211 227.234 692.562 228.06 693.289 228.352C693.462 228.421 693.641 228.455 693.817 228.455C694.379 228.455 694.911 228.119 695.133 227.565L697.953 220.549C698.014 220.558 698.067 220.585 698.13 220.585H713.563L711.37 226.548C711.1 227.282 711.476 228.098 712.211 228.367C712.373 228.426 712.539 228.455 712.7 228.455C713.277 228.455 713.82 228.099 714.031 227.526L726.599 193.363C726.869 192.629 726.493 191.813 725.758 191.544ZM705.552 202.373H720.262L717.994 208.537H702.78L705.28 202.318C705.371 202.336 705.455 202.373 705.552 202.373ZM699.078 217.75L701.657 211.332C701.725 211.342 701.785 211.372 701.856 211.372H716.953L714.606 217.75H699.078Z" fill="#6E4944"/>
</g>
<g id="changjo_hall_4f_stairs_left_2">
<path d="M1710 351C1710 346.582 1713.58 343 1718 343H1759C1763.42 343 1767 346.582 1767 351V485C1767 489.418 1763.42 493 1759 493H1718C1713.58 493 1710 489.418 1710 485V351Z" fill="#D9FFE6"/>
<path d="M1759 490V493H1718V490H1759ZM1764 485V351C1764 348.239 1761.76 346 1759 346H1718C1715.24 346 1713 348.239 1713 351V485C1713 487.761 1715.24 490 1718 490V493C1713.58 493 1710 489.418 1710 485V351C1710 346.582 1713.58 343 1718 343H1759C1763.42 343 1767 346.582 1767 351V485C1767 489.418 1763.42 493 1759 493V490C1761.76 490 1764 487.761 1764 485Z" fill="#2E2F33" fill-opacity="0.88"/>
<path d="M1755.76 399.544C1755.02 399.273 1754.21 399.651 1753.94 400.385L1751.31 407.539H1736.4L1738.86 401.403C1739.16 400.676 1738.8 399.85 1738.08 399.558C1737.35 399.266 1736.53 399.62 1736.23 400.344L1722.5 434.507C1722.21 435.234 1722.56 436.06 1723.29 436.352C1723.46 436.421 1723.64 436.455 1723.82 436.455C1724.38 436.455 1724.91 436.119 1725.13 435.565L1727.95 428.549C1728.01 428.558 1728.07 428.585 1728.13 428.585H1743.56L1741.37 434.548C1741.1 435.282 1741.48 436.098 1742.21 436.367C1742.37 436.426 1742.54 436.455 1742.7 436.455C1743.28 436.455 1743.82 436.099 1744.03 435.526L1756.6 401.363C1756.87 400.629 1756.49 399.813 1755.76 399.544ZM1735.55 410.373H1750.26L1747.99 416.537H1732.78L1735.28 410.318C1735.37 410.336 1735.46 410.373 1735.55 410.373ZM1729.08 425.75L1731.66 419.332C1731.72 419.342 1731.79 419.372 1731.86 419.372H1746.95L1744.61 425.75H1729.08Z" fill="#6E4944"/>
</g>
<g id="changjo_hall_4f_stairs_right_2">
<path d="M1093 1292C1093 1287.58 1096.58 1284 1101 1284H1200C1204.42 1284 1208 1287.58 1208 1292V1324C1208 1328.42 1204.42 1332 1200 1332H1101C1096.58 1332 1093 1328.42 1093 1324V1292Z" fill="#D9FFE6"/>
<path d="M1200 1329V1332H1101L1101 1329H1200ZM1205 1324V1292C1205 1289.24 1202.76 1287 1200 1287H1101C1098.24 1287 1096 1289.24 1096 1292V1324C1096 1326.76 1098.24 1329 1101 1329L1101 1332C1096.58 1332 1093 1328.42 1093 1324V1292C1093 1287.72 1096.36 1284.23 1100.59 1284.01L1101 1284H1200C1204.42 1284 1208 1287.58 1208 1292V1324C1208 1328.42 1204.42 1332 1200 1332V1329C1202.76 1329 1205 1326.76 1205 1324Z" fill="#2E2F33" fill-opacity="0.88"/>
<path d="M1167.76 1289.54C1167.02 1289.27 1166.21 1289.65 1165.94 1290.39L1163.31 1297.54H1148.4L1150.86 1291.4C1151.16 1290.68 1150.8 1289.85 1150.08 1289.56C1149.35 1289.27 1148.53 1289.62 1148.23 1290.34L1134.5 1324.51C1134.21 1325.23 1134.56 1326.06 1135.29 1326.35C1135.46 1326.42 1135.64 1326.45 1135.82 1326.45C1136.38 1326.45 1136.91 1326.12 1137.13 1325.57L1139.95 1318.55C1140.01 1318.56 1140.07 1318.59 1140.13 1318.59H1155.56L1153.37 1324.55C1153.1 1325.28 1153.48 1326.1 1154.21 1326.37C1154.37 1326.43 1154.54 1326.45 1154.7 1326.45C1155.28 1326.45 1155.82 1326.1 1156.03 1325.53L1168.6 1291.36C1168.87 1290.63 1168.49 1289.81 1167.76 1289.54ZM1147.55 1300.37H1162.26L1159.99 1306.54H1144.78L1147.28 1300.32C1147.37 1300.34 1147.46 1300.37 1147.55 1300.37ZM1141.08 1315.75L1143.66 1309.33C1143.72 1309.34 1143.79 1309.37 1143.86 1309.37H1158.95L1156.61 1315.75H1141.08Z" fill="#6E4944"/>
</g>
<g id="changjo_hall_461">
<path d="M5 998C5 993.582 8.58172 990 13 990H148C152.418 990 156 993.582 156 998V1134C156 1138.42 152.418 1142 148 1142H13C8.58172 1142 5 1138.42 5 1134V998Z" fill="#F7FBFF"/>
<path d="M148 1139V1142H13L13 1139H148ZM153 1134V998C153 995.239 150.761 993 148 993H13C10.2386 993 8 995.239 8 998V1134C8 1136.76 10.2386 1139 13 1139L13 1142L12.5879 1141.99C8.36114 1141.77 5 1138.28 5 1134V998C5 993.582 8.58172 990 13 990H148C152.418 990 156 993.582 156 998V1134C156 1138.42 152.418 1142 148 1142V1139C150.761 1139 153 1136.76 153 1134Z" fill="#2E2F33" fill-opacity="0.88"/>
<path d="M104.969 1054.38V1077H100.875V1058.34H100.75L95.4688 1061.72V1058L101.062 1054.38H104.969Z" fill="black"/>
<path d="M84 1077.31C79.5938 1077.28 75.1562 1074.66 75.1875 1066.31C75.1875 1058.56 78.7188 1054.06 84.25 1054.06C88.625 1054.06 91.625 1056.81 92.125 1060.47H88.0938C87.6875 1058.75 86.3125 1057.59 84.25 1057.59C80.9688 1057.59 79.125 1060.5 79.125 1065.25H79.3438C80.5 1063.31 82.6875 1062.16 85.1562 1062.16C89.2188 1062.16 92.3438 1065.22 92.3438 1069.5C92.3438 1074 89 1077.34 84 1077.31ZM84 1074.03C86.5312 1074.03 88.4062 1072.06 88.4062 1069.59C88.4062 1067.19 86.5625 1065.25 84.0625 1065.25C81.5312 1065.25 79.5938 1067.25 79.5625 1069.62C79.5938 1072 81.4375 1074.03 84 1074.03Z" fill="black"/>
<path d="M54.4688 1072.78V1069.53L64.25 1054.38H69.3125V1069.44H72.2812V1072.78H69.3125V1077H65.4375V1072.78H54.4688ZM58.625 1069.44H65.5V1059H65.25L58.625 1069.28V1069.44Z" fill="black"/>
</g>
<g id="changjo_hall_459">
<path d="M153 998C153 993.582 156.582 990 161 990H297C301.418 990 305 993.582 305 998V1134C305 1138.42 301.418 1142 297 1142H161C156.582 1142 153 1138.42 153 1134V998Z" fill="#F7FBFF"/>
<path d="M297 1139V1142H161L161 1139H297ZM302 1134V998C302 995.239 299.761 993 297 993H161C158.239 993 156 995.239 156 998V1134C156 1136.76 158.239 1139 161 1139L161 1142L160.588 1141.99C156.361 1141.77 153 1138.28 153 1134V998C153 993.582 156.582 990 161 990H297C301.418 990 305 993.582 305 998V1134C305 1138.42 301.418 1142 297 1142V1139C299.761 1139 302 1136.76 302 1134Z" fill="#2E2F33" fill-opacity="0.88"/>
<path d="M249.312 1054.06C253.75 1054.09 258.125 1056.72 258.156 1065C258.156 1072.81 254.625 1077.31 249.062 1077.31C244.688 1077.31 241.688 1074.59 241.188 1070.84H245.219C245.625 1072.62 247 1073.78 249.062 1073.78C252.344 1073.78 254.188 1070.87 254.219 1066.03H253.969C252.812 1068 250.656 1069.16 248.156 1069.16C244.125 1069.16 241 1066.09 240.969 1061.81C240.969 1057.37 244.281 1054.03 249.312 1054.06ZM249.344 1057.34C246.812 1057.34 244.906 1059.31 244.938 1061.72C244.938 1064.16 246.75 1066.06 249.281 1066.06C251.781 1066.06 253.75 1064.03 253.719 1061.69C253.719 1059.37 251.875 1057.34 249.344 1057.34Z" fill="black"/>
<path d="M229.562 1077.31C225.031 1077.31 221.719 1074.62 221.594 1070.88H225.562C225.688 1072.72 227.406 1074.03 229.562 1074.03C232.094 1074.03 233.906 1072.19 233.906 1069.69C233.906 1067.09 232.031 1065.25 229.438 1065.25C227.688 1065.22 226.406 1065.84 225.688 1067.19H221.906L223.281 1054.38H236.656V1057.78H226.625L225.938 1063.78H226.156C227.031 1062.78 228.688 1062.06 230.531 1062.06C234.75 1062.06 237.844 1065.22 237.844 1069.56C237.844 1074.09 234.438 1077.31 229.562 1077.31Z" fill="black"/>
<path d="M200.469 1072.78V1069.53L210.25 1054.38H215.312V1069.44H218.281V1072.78H215.312V1077H211.438V1072.78H200.469ZM204.625 1069.44H211.5V1059H211.25L204.625 1069.28V1069.44Z" fill="black"/>
</g>
<g id="changjo_hall_456">
<path d="M302 998C302 993.582 305.582 990 310 990H519C523.418 990 527 993.582 527 998V1134C527 1138.42 523.418 1142 519 1142H310C305.582 1142 302 1138.42 302 1134V998Z" fill="#F7FBFF"/>
<path d="M519 1139V1142H310L310 1139H519ZM524 1134V998C524 995.239 521.761 993 519 993H310C307.239 993 305 995.239 305 998V1134C305 1136.76 307.239 1139 310 1139L310 1142L309.588 1141.99C305.361 1141.77 302 1138.28 302 1134V998C302 993.582 305.582 990 310 990H519C523.418 990 527 993.582 527 998V1134C527 1138.42 523.418 1142 519 1142V1139C521.761 1139 524 1136.76 524 1134Z" fill="#2E2F33" fill-opacity="0.88"/>
<path d="M434.75 1077.31C430.344 1077.28 425.906 1074.66 425.938 1066.31C425.938 1058.56 429.469 1054.06 435 1054.06C439.375 1054.06 442.375 1056.81 442.875 1060.47H438.844C438.438 1058.75 437.063 1057.59 435 1057.59C431.719 1057.59 429.875 1060.5 429.875 1065.25H430.094C431.25 1063.31 433.438 1062.16 435.906 1062.16C439.969 1062.16 443.094 1065.22 443.094 1069.5C443.094 1074 439.75 1077.34 434.75 1077.31ZM434.75 1074.03C437.281 1074.03 439.156 1072.06 439.156 1069.59C439.156 1067.19 437.313 1065.25 434.813 1065.25C432.281 1065.25 430.344 1067.25 430.313 1069.62C430.344 1072 432.188 1074.03 434.75 1074.03Z" fill="black"/>
<path d="M414.562 1077.31C410.031 1077.31 406.719 1074.62 406.594 1070.88H410.562C410.688 1072.72 412.406 1074.03 414.562 1074.03C417.094 1074.03 418.906 1072.19 418.906 1069.69C418.906 1067.09 417.031 1065.25 414.438 1065.25C412.688 1065.22 411.406 1065.84 410.688 1067.19H406.906L408.281 1054.38H421.656V1057.78H411.625L410.938 1063.78H411.156C412.031 1062.78 413.688 1062.06 415.531 1062.06C419.75 1062.06 422.844 1065.22 422.844 1069.56C422.844 1074.09 419.438 1077.31 414.562 1077.31Z" fill="black"/>
<path d="M385.469 1072.78V1069.53L395.25 1054.38H400.312V1069.44H403.281V1072.78H400.312V1077H396.438V1072.78H385.469ZM389.625 1069.44H396.5V1059H396.25L389.625 1069.28V1069.44Z" fill="black"/>
</g>
<g id="changjo_hall_463">
<path d="M81 1188C81 1183.58 84.5817 1180 89 1180H223C227.418 1180 231 1183.58 231 1188V1281C231 1285.42 227.418 1289 223 1289H89C84.5817 1289 81 1285.42 81 1281V1188Z" fill="#F7FBFF"/>
<path d="M223 1286V1289H89L89 1286H223ZM228 1281V1188C228 1185.24 225.761 1183 223 1183H89C86.2386 1183 84 1185.24 84 1188V1281C84 1283.76 86.2386 1286 89 1286L89 1289C84.5817 1289 81 1285.42 81 1281V1188C81 1183.58 84.5817 1180 89 1180H223C227.418 1180 231 1183.58 231 1188V1281C231 1285.42 227.418 1289 223 1289V1286C225.761 1286 228 1283.76 228 1281Z" fill="#2E2F33" fill-opacity="0.88"/>
<path d="M176 1246.31C171.156 1246.31 167.719 1243.69 167.625 1239.88H171.719C171.844 1241.69 173.656 1242.88 176 1242.88C178.5 1242.88 180.281 1241.5 180.281 1239.5C180.281 1237.47 178.531 1236 175.594 1236H173.562V1232.88H175.594C178 1232.88 179.688 1231.53 179.656 1229.56C179.688 1227.66 178.25 1226.38 176.031 1226.38C173.906 1226.38 172.062 1227.56 172 1229.47H168.094C168.188 1225.66 171.625 1223.06 176.062 1223.06C180.656 1223.06 183.625 1225.88 183.594 1229.34C183.625 1231.88 181.938 1233.72 179.469 1234.22V1234.41C182.656 1234.84 184.469 1236.88 184.438 1239.72C184.469 1243.53 180.906 1246.31 176 1246.31Z" fill="black"/>
<path d="M156 1246.31C151.594 1246.28 147.156 1243.66 147.188 1235.31C147.188 1227.56 150.719 1223.06 156.25 1223.06C160.625 1223.06 163.625 1225.81 164.125 1229.47H160.094C159.688 1227.75 158.312 1226.59 156.25 1226.59C152.969 1226.59 151.125 1229.5 151.125 1234.25H151.344C152.5 1232.31 154.688 1231.16 157.156 1231.16C161.219 1231.16 164.344 1234.22 164.344 1238.5C164.344 1243 161 1246.34 156 1246.31ZM156 1243.03C158.531 1243.03 160.406 1241.06 160.406 1238.59C160.406 1236.19 158.562 1234.25 156.062 1234.25C153.531 1234.25 151.594 1236.25 151.562 1238.62C151.594 1241 153.438 1243.03 156 1243.03Z" fill="black"/>
<path d="M126.469 1241.78V1238.53L136.25 1223.38H141.312V1238.44H144.281V1241.78H141.312V1246H137.438V1241.78H126.469ZM130.625 1238.44H137.5V1228H137.25L130.625 1238.28V1238.44Z" fill="black"/>
</g>
<g id="changjo_hall_465">
<path d="M228 1188C228 1183.58 231.582 1180 236 1180H445C449.418 1180 453 1183.58 453 1188V1281C453 1285.42 449.418 1289 445 1289H236C231.582 1289 228 1285.42 228 1281V1188Z" fill="#F7FBFF"/>
<path d="M445 1286V1289H236L236 1286H445ZM450 1281V1188C450 1185.24 447.761 1183 445 1183H236C233.239 1183 231 1185.24 231 1188V1281C231 1283.76 233.239 1286 236 1286L236 1289L235.588 1288.99C231.361 1288.77 228 1285.28 228 1281V1188C228 1183.58 231.582 1180 236 1180H445C449.418 1180 453 1183.58 453 1188V1281C453 1285.42 449.418 1289 445 1289V1286C447.761 1286 450 1283.76 450 1281Z" fill="#2E2F33" fill-opacity="0.88"/>
<path d="M360.812 1246.31C356.281 1246.31 352.969 1243.62 352.844 1239.88H356.812C356.938 1241.72 358.656 1243.03 360.812 1243.03C363.344 1243.03 365.156 1241.19 365.156 1238.69C365.156 1236.09 363.281 1234.25 360.688 1234.25C358.938 1234.22 357.656 1234.84 356.938 1236.19H353.156L354.531 1223.38H367.906V1226.78H357.875L357.188 1232.78H357.406C358.281 1231.78 359.938 1231.06 361.781 1231.06C366 1231.06 369.094 1234.22 369.094 1238.56C369.094 1243.09 365.688 1246.31 360.812 1246.31Z" fill="black"/>
<path d="M341 1246.31C336.594 1246.28 332.156 1243.66 332.188 1235.31C332.188 1227.56 335.719 1223.06 341.25 1223.06C345.625 1223.06 348.625 1225.81 349.125 1229.47H345.094C344.688 1227.75 343.313 1226.59 341.25 1226.59C337.969 1226.59 336.125 1229.5 336.125 1234.25H336.344C337.5 1232.31 339.688 1231.16 342.156 1231.16C346.219 1231.16 349.344 1234.22 349.344 1238.5C349.344 1243 346 1246.34 341 1246.31ZM341 1243.03C343.531 1243.03 345.406 1241.06 345.406 1238.59C345.406 1236.19 343.563 1234.25 341.063 1234.25C338.531 1234.25 336.594 1236.25 336.563 1238.62C336.594 1241 338.438 1243.03 341 1243.03Z" fill="black"/>
<path d="M311.469 1241.78V1238.53L321.25 1223.38H326.312V1238.44H329.281V1241.78H326.312V1246H322.438V1241.78H311.469ZM315.625 1238.44H322.5V1228H322.25L315.625 1238.28V1238.44Z" fill="black"/>
</g>
<g id="changjo_hall_468">
<path d="M450 1188C450 1183.58 453.582 1180 458 1180H677C681.418 1180 685 1183.58 685 1188V1281C685 1285.42 681.418 1289 677 1289H458C453.582 1289 450 1285.42 450 1281V1188Z" fill="#F7FBFF"/>
<path d="M677 1286V1289H458L458 1286H677ZM682 1281V1188C682 1185.24 679.761 1183 677 1183H458C455.239 1183 453 1185.24 453 1188V1281C453 1283.76 455.239 1286 458 1286L458 1289L457.588 1288.99C453.361 1288.77 450 1285.28 450 1281V1188C450 1183.72 453.361 1180.23 457.588 1180.01L458 1180H677C681.418 1180 685 1183.58 685 1188V1281C685 1285.42 681.418 1289 677 1289V1286C679.761 1286 682 1283.76 682 1281Z" fill="#2E2F33" fill-opacity="0.88"/>
<path d="M588 1246.31C582.969 1246.31 579.406 1243.62 579.406 1239.94C579.406 1237.06 581.531 1234.72 584.25 1234.28V1234.16C581.875 1233.66 580.25 1231.59 580.25 1229.12C580.25 1225.62 583.531 1223.06 588 1223.06C592.438 1223.06 595.719 1225.62 595.719 1229.12C595.719 1231.59 594.062 1233.66 591.719 1234.16V1234.28C594.438 1234.72 596.594 1237.06 596.594 1239.94C596.594 1243.62 593 1246.31 588 1246.31ZM588 1243.09C590.656 1243.09 592.406 1241.66 592.406 1239.56C592.406 1237.44 590.531 1235.88 588 1235.88C585.438 1235.88 583.562 1237.44 583.594 1239.56C583.562 1241.66 585.312 1243.09 588 1243.09ZM588 1232.84C590.188 1232.84 591.75 1231.47 591.75 1229.5C591.75 1227.59 590.219 1226.25 588 1226.25C585.75 1226.25 584.219 1227.56 584.219 1229.5C584.219 1231.47 585.781 1232.84 588 1232.84Z" fill="black"/>
<path d="M568 1246.31C563.594 1246.28 559.156 1243.66 559.187 1235.31C559.187 1227.56 562.719 1223.06 568.25 1223.06C572.625 1223.06 575.625 1225.81 576.125 1229.47H572.094C571.687 1227.75 570.312 1226.59 568.25 1226.59C564.969 1226.59 563.125 1229.5 563.125 1234.25H563.344C564.5 1232.31 566.687 1231.16 569.156 1231.16C573.219 1231.16 576.344 1234.22 576.344 1238.5C576.344 1243 573 1246.34 568 1246.31ZM568 1243.03C570.531 1243.03 572.406 1241.06 572.406 1238.59C572.406 1236.19 570.562 1234.25 568.062 1234.25C565.531 1234.25 563.594 1236.25 563.562 1238.62C563.594 1241 565.437 1243.03 568 1243.03Z" fill="black"/>
<path d="M538.469 1241.78V1238.53L548.25 1223.38H553.312V1238.44H556.281V1241.78H553.312V1246H549.438V1241.78H538.469ZM542.625 1238.44H549.5V1228H549.25L542.625 1238.28V1238.44Z" fill="black"/>
</g>
<g id="changjo_hall_471">
<path d="M598 1337C598 1332.58 601.582 1329 606 1329H811C815.418 1329 819 1332.58 819 1337V1475C819 1479.42 815.418 1483 811 1483H606C601.582 1483 598 1479.42 598 1475V1337Z" fill="#F7FBFF"/>
<path d="M811 1480V1483H606L606 1480H811ZM816 1475V1337C816 1334.24 813.761 1332 811 1332H606C603.239 1332 601 1334.24 601 1337V1475C601 1477.76 603.239 1480 606 1480L606 1483L605.588 1482.99C601.361 1482.77 598 1479.28 598 1475V1337C598 1332.58 601.582 1329 606 1329H811C815.418 1329 819 1332.58 819 1337V1475C819 1479.42 815.418 1483 811 1483V1480C813.761 1480 816 1477.76 816 1475Z" fill="#2E2F33" fill-opacity="0.88"/>
<path d="M731.875 1394.38V1417H727.781V1398.34H727.656L722.375 1401.72V1398L727.969 1394.38H731.875Z" fill="black"/>
<path d="M705.375 1417L715.188 1397.94V1397.78H703.812V1394.38H719.406V1397.84L709.594 1417H705.375Z" fill="black"/>
<path d="M683.469 1412.78V1409.53L693.25 1394.38H698.312V1409.44H701.281V1412.78H698.312V1417H694.438V1412.78H683.469ZM687.625 1409.44H694.5V1399H694.25L687.625 1409.28V1409.44Z" fill="black"/>
</g>
<g id="changjo_hall_474">
<path d="M816 1337C816 1332.58 819.582 1329 824 1329H953C957.418 1329 961 1332.58 961 1337V1475C961 1479.42 957.418 1483 953 1483H824C819.582 1483 816 1479.42 816 1475V1337Z" fill="#F7FBFF"/>
<path d="M953 1480V1483H824L824 1480H953ZM958 1475V1337C958 1334.24 955.761 1332 953 1332H824C821.239 1332 819 1334.24 819 1337V1475C819 1477.76 821.239 1480 824 1480L824 1483C819.582 1483 816 1479.42 816 1475V1337C816 1332.58 819.582 1329 824 1329H953C957.418 1329 961 1332.58 961 1337V1475C961 1479.42 957.418 1483 953 1483V1480C955.761 1480 958 1477.76 958 1475Z" fill="#2E2F33" fill-opacity="0.88"/>
<path d="M898.469 1412.78V1409.53L908.25 1394.38H913.312V1409.44H916.281V1412.78H913.312V1417H909.438V1412.78H898.469ZM902.625 1409.44H909.5V1399H909.25L902.625 1409.28V1409.44Z" fill="black"/>
<path d="M883.375 1417L893.188 1397.94V1397.78H881.812V1394.38H897.406V1397.84L887.594 1417H883.375Z" fill="black"/>
<path d="M861.469 1412.78V1409.53L871.25 1394.38H876.312V1409.44H879.281V1412.78H876.312V1417H872.438V1412.78H861.469ZM865.625 1409.44H872.5V1399H872.25L865.625 1409.28V1409.44Z" fill="black"/>
</g>
<g id="changjo_hall_476">
<path d="M958 1337C958 1332.58 961.582 1329 966 1329H1130C1134.42 1329 1138 1332.58 1138 1337V1475C1138 1479.42 1134.42 1483 1130 1483H966C961.582 1483 958 1479.42 958 1475V1337Z" fill="#F7FBFF"/>
<path d="M1130 1480V1483H966L966 1480H1130ZM1135 1475V1337C1135 1334.24 1132.76 1332 1130 1332H966C963.239 1332 961 1334.24 961 1337V1475C961 1477.76 963.239 1480 966 1480L966 1483L965.588 1482.99C961.361 1482.77 958 1479.28 958 1475V1337C958 1332.58 961.582 1329 966 1329H1130C1134.42 1329 1138 1332.58 1138 1337V1475C1138 1479.42 1134.42 1483 1130 1483V1480C1132.76 1480 1135 1477.76 1135 1475Z" fill="#2E2F33" fill-opacity="0.88"/>
<path d="M1067.66 1417.31C1063.25 1417.28 1058.81 1414.66 1058.84 1406.31C1058.84 1398.56 1062.38 1394.06 1067.91 1394.06C1072.28 1394.06 1075.28 1396.81 1075.78 1400.47H1071.75C1071.34 1398.75 1069.97 1397.59 1067.91 1397.59C1064.63 1397.59 1062.78 1400.5 1062.78 1405.25H1063C1064.16 1403.31 1066.34 1402.16 1068.81 1402.16C1072.88 1402.16 1076 1405.22 1076 1409.5C1076 1414 1072.66 1417.34 1067.66 1417.31ZM1067.66 1414.03C1070.19 1414.03 1072.06 1412.06 1072.06 1409.59C1072.06 1407.19 1070.22 1405.25 1067.72 1405.25C1065.19 1405.25 1063.25 1407.25 1063.22 1409.62C1063.25 1412 1065.09 1414.03 1067.66 1414.03Z" fill="black"/>
<path d="M1042.38 1417L1052.19 1397.94V1397.78H1040.81V1394.38H1056.41V1397.84L1046.59 1417H1042.38Z" fill="black"/>
<path d="M1020.47 1412.78V1409.53L1030.25 1394.38H1035.31V1409.44H1038.28V1412.78H1035.31V1417H1031.44V1412.78H1020.47ZM1024.62 1409.44H1031.5V1399H1031.25L1024.62 1409.28V1409.44Z" fill="black"/>
</g>
<g id="changjo_hall_478">
<path d="M1135 1337C1135 1332.58 1138.58 1329 1143 1329H1200C1204.42 1329 1208 1332.58 1208 1337V1475C1208 1479.42 1204.42 1483 1200 1483H1143C1138.58 1483 1135 1479.42 1135 1475V1337Z" fill="#F7FBFF"/>
<path d="M1200 1480V1483H1143V1480H1200ZM1205 1475V1337C1205 1334.24 1202.76 1332 1200 1332H1143C1140.24 1332 1138 1334.24 1138 1337V1475C1138 1477.76 1140.24 1480 1143 1480V1483C1138.58 1483 1135 1479.42 1135 1475V1337C1135 1332.58 1138.58 1329 1143 1329H1200C1204.42 1329 1208 1332.58 1208 1337V1475C1208 1479.42 1204.42 1483 1200 1483V1480C1202.76 1480 1205 1477.76 1205 1475Z" fill="#2E2F33" fill-opacity="0.88"/>
<path d="M1190.47 1417.31C1185.44 1417.31 1181.88 1414.62 1181.88 1410.94C1181.88 1408.06 1184 1405.72 1186.72 1405.28V1405.16C1184.34 1404.66 1182.72 1402.59 1182.72 1400.12C1182.72 1396.62 1186 1394.06 1190.47 1394.06C1194.91 1394.06 1198.19 1396.62 1198.19 1400.12C1198.19 1402.59 1196.53 1404.66 1194.19 1405.16V1405.28C1196.91 1405.72 1199.06 1408.06 1199.06 1410.94C1199.06 1414.62 1195.47 1417.31 1190.47 1417.31ZM1190.47 1414.09C1193.12 1414.09 1194.88 1412.66 1194.88 1410.56C1194.88 1408.44 1193 1406.88 1190.47 1406.88C1187.91 1406.88 1186.03 1408.44 1186.06 1410.56C1186.03 1412.66 1187.78 1414.09 1190.47 1414.09ZM1190.47 1403.84C1192.66 1403.84 1194.22 1402.47 1194.22 1400.5C1194.22 1398.59 1192.69 1397.25 1190.47 1397.25C1188.22 1397.25 1186.69 1398.56 1186.69 1400.5C1186.69 1402.47 1188.25 1403.84 1190.47 1403.84Z" fill="black"/>
<path d="M1165.38 1417L1175.19 1397.94V1397.78H1163.81V1394.38H1179.41V1397.84L1169.59 1417H1165.38Z" fill="black"/>
<path d="M1143.47 1412.78V1409.53L1153.25 1394.38H1158.31V1409.44H1161.28V1412.78H1158.31V1417H1154.44V1412.78H1143.47ZM1147.62 1409.44H1154.5V1399H1154.25L1147.62 1409.28V1409.44Z" fill="black"/>
</g>
<g id="changjo_hall_434">
<path d="M1180 351C1180 346.582 1183.58 343 1188 343H1402C1406.42 343 1410 346.582 1410 351V485C1410 489.418 1406.42 493 1402 493H1188C1183.58 493 1180 489.418 1180 485V351Z" fill="#F7FBFF"/>
<path d="M1402 490V493H1188L1188 490H1402ZM1407 485V351C1407 348.239 1404.76 346 1402 346H1188C1185.24 346 1183 348.239 1183 351V485C1183 487.761 1185.24 490 1188 490L1188 493L1187.59 492.989C1183.36 492.775 1180 489.28 1180 485V351C1180 346.72 1183.36 343.225 1187.59 343.011L1188 343H1402C1406.42 343 1410 346.582 1410 351V485C1410 489.418 1406.42 493 1402 493V490C1404.76 490 1407 487.761 1407 485Z" fill="#2E2F33" fill-opacity="0.88"/>
<path d="M1306.34 424.781V421.531L1316.12 406.375H1321.19V421.438H1324.16V424.781H1321.19V429H1317.31V424.781H1306.34ZM1310.5 421.438H1317.38V411H1317.12L1310.5 421.281V421.438Z" fill="black"/>
<path d="M1294.75 429.312C1289.91 429.312 1286.47 426.688 1286.38 422.875H1290.47C1290.59 424.688 1292.41 425.875 1294.75 425.875C1297.25 425.875 1299.03 424.5 1299.03 422.5C1299.03 420.469 1297.28 419 1294.34 419H1292.31V415.875H1294.34C1296.75 415.875 1298.44 414.531 1298.41 412.562C1298.44 410.656 1297 409.375 1294.78 409.375C1292.66 409.375 1290.81 410.562 1290.75 412.469H1286.84C1286.94 408.656 1290.38 406.062 1294.81 406.062C1299.41 406.062 1302.38 408.875 1302.34 412.344C1302.38 414.875 1300.69 416.719 1298.22 417.219V417.406C1301.41 417.844 1303.22 419.875 1303.19 422.719C1303.22 426.531 1299.66 429.312 1294.75 429.312Z" fill="black"/>
<path d="M1265.47 424.781V421.531L1275.25 406.375H1280.31V421.438H1283.28V424.781H1280.31V429H1276.44V424.781H1265.47ZM1269.62 421.438H1276.5V411H1276.25L1269.62 421.281V421.438Z" fill="black"/>
</g>
<g id="changjo_hall_433">
<path d="M1407 351C1407 346.582 1410.58 343 1415 343H1478C1482.42 343 1486 346.582 1486 351V485C1486 489.418 1482.42 493 1478 493H1415C1410.58 493 1407 489.418 1407 485V351Z" fill="#F7FBFF"/>
<path d="M1478 490V493H1415L1415 490H1478ZM1483 485V351C1483 348.239 1480.76 346 1478 346H1415C1412.24 346 1410 348.239 1410 351V485C1410 487.761 1412.24 490 1415 490L1415 493C1410.58 493 1407 489.418 1407 485V351C1407 346.582 1410.58 343 1415 343H1478C1482.42 343 1486 346.582 1486 351V485C1486 489.418 1482.42 493 1478 493V490C1480.76 490 1483 487.761 1483 485Z" fill="#2E2F33" fill-opacity="0.88"/>
<path d="M1466.97 429.312C1462.12 429.312 1458.69 426.688 1458.59 422.875H1462.69C1462.81 424.688 1464.62 425.875 1466.97 425.875C1469.47 425.875 1471.25 424.5 1471.25 422.5C1471.25 420.469 1469.5 419 1466.56 419H1464.53V415.875H1466.56C1468.97 415.875 1470.66 414.531 1470.62 412.562C1470.66 410.656 1469.22 409.375 1467 409.375C1464.88 409.375 1463.03 410.562 1462.97 412.469H1459.06C1459.16 408.656 1462.59 406.062 1467.03 406.062C1471.62 406.062 1474.59 408.875 1474.56 412.344C1474.59 414.875 1472.91 416.719 1470.44 417.219V417.406C1473.62 417.844 1475.44 419.875 1475.41 422.719C1475.44 426.531 1471.88 429.312 1466.97 429.312Z" fill="black"/>
<path d="M1446.75 429.312C1441.91 429.312 1438.47 426.688 1438.38 422.875H1442.47C1442.59 424.688 1444.41 425.875 1446.75 425.875C1449.25 425.875 1451.03 424.5 1451.03 422.5C1451.03 420.469 1449.28 419 1446.34 419H1444.31V415.875H1446.34C1448.75 415.875 1450.44 414.531 1450.41 412.562C1450.44 410.656 1449 409.375 1446.78 409.375C1444.66 409.375 1442.81 410.562 1442.75 412.469H1438.84C1438.94 408.656 1442.38 406.062 1446.81 406.062C1451.41 406.062 1454.38 408.875 1454.34 412.344C1454.38 414.875 1452.69 416.719 1450.22 417.219V417.406C1453.41 417.844 1455.22 419.875 1455.19 422.719C1455.22 426.531 1451.66 429.312 1446.75 429.312Z" fill="black"/>
<path d="M1417.47 424.781V421.531L1427.25 406.375H1432.31V421.438H1435.28V424.781H1432.31V429H1428.44V424.781H1417.47ZM1421.62 421.438H1428.5V411H1428.25L1421.62 421.281V421.438Z" fill="black"/>
</g>
<g id="changjo_hall_430">
<path d="M1483 351C1483 346.582 1486.58 343 1491 343H1705C1709.42 343 1713 346.582 1713 351V485C1713 489.418 1709.42 493 1705 493H1491C1486.58 493 1483 489.418 1483 485V351Z" fill="#F7FBFF"/>
<path d="M1705 490V493H1491L1491 490H1705ZM1710 485V351C1710 348.239 1707.76 346 1705 346H1491C1488.24 346 1486 348.239 1486 351V485C1486 487.761 1488.24 490 1491 490L1491 493L1490.59 492.989C1486.36 492.775 1483 489.28 1483 485V351C1483 346.72 1486.36 343.225 1490.59 343.011L1491 343H1705C1709.42 343 1713 346.582 1713 351V485C1713 489.418 1709.42 493 1705 493V490C1707.76 490 1710 487.761 1710 485Z" fill="#2E2F33" fill-opacity="0.88"/>
<path d="M1618.09 429.312C1612.66 429.312 1609.41 425.094 1609.41 417.688C1609.41 410.312 1612.66 406.062 1618.09 406.062C1623.5 406.062 1626.78 410.312 1626.78 417.688C1626.78 425.094 1623.53 429.312 1618.09 429.312ZM1618.09 425.906C1620.94 425.906 1622.69 423.125 1622.69 417.688C1622.69 412.281 1620.91 409.438 1618.09 409.438C1615.28 409.438 1613.5 412.281 1613.5 417.688C1613.5 423.125 1615.25 425.906 1618.09 425.906Z" fill="black"/>
<path d="M1597.75 429.312C1592.91 429.312 1589.47 426.688 1589.38 422.875H1593.47C1593.59 424.688 1595.41 425.875 1597.75 425.875C1600.25 425.875 1602.03 424.5 1602.03 422.5C1602.03 420.469 1600.28 419 1597.34 419H1595.31V415.875H1597.34C1599.75 415.875 1601.44 414.531 1601.41 412.562C1601.44 410.656 1600 409.375 1597.78 409.375C1595.66 409.375 1593.81 410.562 1593.75 412.469H1589.84C1589.94 408.656 1593.38 406.062 1597.81 406.062C1602.41 406.062 1605.38 408.875 1605.34 412.344C1605.38 414.875 1603.69 416.719 1601.22 417.219V417.406C1604.41 417.844 1606.22 419.875 1606.19 422.719C1606.22 426.531 1602.66 429.312 1597.75 429.312Z" fill="black"/>
<path d="M1568.47 424.781V421.531L1578.25 406.375H1583.31V421.438H1586.28V424.781H1583.31V429H1579.44V424.781H1568.47ZM1572.62 421.438H1579.5V411H1579.25L1572.62 421.281V421.438Z" fill="black"/>
</g>
<g id="changjo_hall_427">
<path d="M1764 351C1764 346.582 1767.58 343 1772 343H2002C2006.42 343 2010 346.582 2010 351V485C2010 489.418 2006.42 493 2002 493H1772C1767.58 493 1764 489.418 1764 485V351Z" fill="#F7FBFF"/>
<path d="M2002 490V493H1772L1772 490H2002ZM2007 485V351C2007 348.239 2004.76 346 2002 346H1772C1769.24 346 1767 348.239 1767 351V485C1767 487.761 1769.24 490 1772 490L1772 493C1767.58 493 1764 489.418 1764 485V351C1764 346.72 1767.36 343.225 1771.59 343.011L1772 343H2002C2006.42 343 2010 346.582 2010 351V485C2010 489.418 2006.42 493 2002 493V490C2004.76 490 2007 487.761 2007 485Z" fill="#2E2F33" fill-opacity="0.88"/>
<path d="M1900.66 429L1910.47 409.938V409.781H1899.09V406.375H1914.69V409.844L1904.88 429H1900.66Z" fill="black"/>
<path d="M1880.53 429V426.062L1888.53 418.344C1890.81 416.062 1892 414.719 1892 412.812C1892 410.719 1890.34 409.375 1888.12 409.375C1885.78 409.375 1884.28 410.844 1884.31 413.125H1880.44C1880.41 408.844 1883.62 406.062 1888.16 406.062C1892.78 406.062 1895.91 408.812 1895.91 412.625C1895.91 415.188 1894.66 417.25 1890.22 421.438L1886.19 425.438V425.594H1896.25V429H1880.53Z" fill="black"/>
<path d="M1859.47 424.781V421.531L1869.25 406.375H1874.31V421.438H1877.28V424.781H1874.31V429H1870.44V424.781H1859.47ZM1863.62 421.438H1870.5V411H1870.25L1863.62 421.281V421.438Z" fill="black"/>
</g>
<g id="changjo_hall_424">
<path d="M1782 162C1782 157.582 1785.58 154 1790 154H2002C2006.42 154 2010 157.582 2010 162V296C2010 300.418 2006.42 304 2002 304H1790C1785.58 304 1782 300.418 1782 296V162Z" fill="#F7FBFF"/>
<path d="M2002 301V304H1790L1790 301H2002ZM2007 296V162C2007 159.239 2004.76 157 2002 157H1790C1787.24 157 1785 159.239 1785 162V296C1785 298.761 1787.24 301 1790 301L1790 304L1789.59 303.989C1785.36 303.775 1782 300.28 1782 296V162C1782 157.582 1785.58 154 1790 154H2002C2006.42 154 2010 157.582 2010 162V296C2010 300.418 2006.42 304 2002 304V301C2004.76 301 2007 298.761 2007 296Z" fill="#2E2F33" fill-opacity="0.88"/>
<path d="M1906.91 235.781V232.531L1916.69 217.375H1921.75V232.438H1924.72V235.781H1921.75V240H1917.88V235.781H1906.91ZM1911.06 232.438H1917.94V222H1917.69L1911.06 232.281V232.438Z" fill="black"/>
<path d="M1888.53 240V237.062L1896.53 229.344C1898.81 227.062 1900 225.719 1900 223.812C1900 221.719 1898.34 220.375 1896.12 220.375C1893.78 220.375 1892.28 221.844 1892.31 224.125H1888.44C1888.41 219.844 1891.62 217.062 1896.16 217.062C1900.78 217.062 1903.91 219.812 1903.91 223.625C1903.91 226.188 1902.66 228.25 1898.22 232.438L1894.19 236.438V236.594H1904.25V240H1888.53Z" fill="black"/>
<path d="M1867.47 235.781V232.531L1877.25 217.375H1882.31V232.438H1885.28V235.781H1882.31V240H1878.44V235.781H1867.47ZM1871.62 232.438H1878.5V222H1878.25L1871.62 232.281V232.438Z" fill="black"/>
</g>
<g id="changjo_hall_420">
<path d="M1491 162C1491 157.582 1494.58 154 1499 154H1777C1781.42 154 1785 157.582 1785 162V296C1785 300.418 1781.42 304 1777 304H1499C1494.58 304 1491 300.418 1491 296V162Z" fill="#F7FBFF"/>
<path d="M1777 301V304H1499L1499 301H1777ZM1782 296V162C1782 159.239 1779.76 157 1777 157H1499C1496.24 157 1494 159.239 1494 162V296C1494 298.761 1496.24 301 1499 301L1499 304C1494.58 304 1491 300.418 1491 296V162C1491 157.582 1494.58 154 1499 154H1777C1781.42 154 1785 157.582 1785 162V296C1785 300.418 1781.42 304 1777 304V301C1779.76 301 1782 298.761 1782 296Z" fill="#2E2F33" fill-opacity="0.88"/>
<path d="M1658.16 240.312C1652.72 240.312 1649.47 236.094 1649.47 228.688C1649.47 221.312 1652.72 217.062 1658.16 217.062C1663.56 217.062 1666.84 221.312 1666.84 228.688C1666.84 236.094 1663.59 240.312 1658.16 240.312ZM1658.16 236.906C1661 236.906 1662.75 234.125 1662.75 228.688C1662.75 223.281 1660.97 220.438 1658.16 220.438C1655.34 220.438 1653.56 223.281 1653.56 228.688C1653.56 234.125 1655.31 236.906 1658.16 236.906Z" fill="black"/>
<path d="M1630.53 240V237.062L1638.53 229.344C1640.81 227.062 1642 225.719 1642 223.812C1642 221.719 1640.34 220.375 1638.12 220.375C1635.78 220.375 1634.28 221.844 1634.31 224.125H1630.44C1630.41 219.844 1633.62 217.062 1638.16 217.062C1642.78 217.062 1645.91 219.812 1645.91 223.625C1645.91 226.188 1644.66 228.25 1640.22 232.438L1636.19 236.438V236.594H1646.25V240H1630.53Z" fill="black"/>
<path d="M1609.47 235.781V232.531L1619.25 217.375H1624.31V232.438H1627.28V235.781H1624.31V240H1620.44V235.781H1609.47ZM1613.62 232.438H1620.5V222H1620.25L1613.62 232.281V232.438Z" fill="black"/>
</g>
<g id="changjo_hall_419">
<path d="M1417 162C1417 157.582 1420.58 154 1425 154H1486C1490.42 154 1494 157.582 1494 162V296C1494 300.418 1490.42 304 1486 304H1425C1420.58 304 1417 300.418 1417 296V162Z" fill="#F7FBFF"/>
<path d="M1486 301V304H1425L1425 301H1486ZM1491 296V162C1491 159.239 1488.76 157 1486 157H1425C1422.24 157 1420 159.239 1420 162V296C1420 298.761 1422.24 301 1425 301L1425 304L1424.59 303.989C1420.36 303.775 1417 300.28 1417 296V162C1417 157.582 1420.58 154 1425 154H1486C1490.42 154 1494 157.582 1494 162V296C1494 300.418 1490.42 304 1486 304V301C1488.76 301 1491 298.761 1491 296Z" fill="#2E2F33" fill-opacity="0.88"/>
<path d="M1472.94 217.063C1477.38 217.094 1481.75 219.719 1481.78 228C1481.78 235.812 1478.25 240.312 1472.69 240.312C1468.31 240.312 1465.31 237.594 1464.81 233.844H1468.84C1469.25 235.625 1470.62 236.781 1472.69 236.781C1475.97 236.781 1477.81 233.875 1477.84 229.031H1477.59C1476.44 231 1474.28 232.156 1471.78 232.156C1467.75 232.156 1464.62 229.094 1464.59 224.812C1464.59 220.375 1467.91 217.031 1472.94 217.063ZM1472.97 220.344C1470.44 220.344 1468.53 222.312 1468.56 224.719C1468.56 227.156 1470.38 229.062 1472.91 229.062C1475.41 229.062 1477.38 227.031 1477.34 224.688C1477.34 222.375 1475.5 220.344 1472.97 220.344Z" fill="black"/>
<path d="M1459.41 217.375V240H1455.31V221.344H1455.19L1449.91 224.719V221L1455.5 217.375H1459.41Z" fill="black"/>
<path d="M1429.47 235.781V232.531L1439.25 217.375H1444.31V232.438H1447.28V235.781H1444.31V240H1440.44V235.781H1429.47ZM1433.62 232.438H1440.5V222H1440.25L1433.62 232.281V232.438Z" fill="black"/>
</g>
<g id="changjo_hall_417">
<path d="M1274 162C1274 157.582 1277.58 154 1282 154H1412C1416.42 154 1420 157.582 1420 162V296C1420 300.418 1416.42 304 1412 304H1282C1277.58 304 1274 300.418 1274 296V162Z" fill="#F7FBFF"/>
<path d="M1412 301V304H1282L1282 301H1412ZM1417 296V162C1417 159.239 1414.76 157 1412 157H1282C1279.24 157 1277 159.239 1277 162V296C1277 298.761 1279.24 301 1282 301L1282 304C1277.58 304 1274 300.418 1274 296V162C1274 157.582 1277.58 154 1282 154H1412C1416.42 154 1420 157.582 1420 162V296C1420 300.418 1416.42 304 1412 304V301C1414.76 301 1417 298.761 1417 296Z" fill="#2E2F33" fill-opacity="0.88"/>
<path d="M1357.75 240L1367.56 220.938V220.781H1356.19V217.375H1371.78V220.844L1361.97 240H1357.75Z" fill="black"/>
<path d="M1351.41 217.375V240H1347.31V221.344H1347.19L1341.91 224.719V221L1347.5 217.375H1351.41Z" fill="black"/>
<path d="M1321.47 235.781V232.531L1331.25 217.375H1336.31V232.438H1339.28V235.781H1336.31V240H1332.44V235.781H1321.47ZM1325.62 232.438H1332.5V222H1332.25L1325.62 232.281V232.438Z" fill="black"/>
</g>
<g id="changjo_hall_415">
<path d="M1114 162C1114 157.582 1117.58 154 1122 154H1269C1273.42 154 1277 157.582 1277 162V296C1277 300.418 1273.42 304 1269 304H1122C1117.58 304 1114 300.418 1114 296V162Z" fill="#F7FBFF"/>
<path d="M1269 301V304H1122L1122 301H1269ZM1274 296V162C1274 159.239 1271.76 157 1269 157H1122C1119.24 157 1117 159.239 1117 162V296C1117 298.761 1119.24 301 1122 301L1122 304C1117.58 304 1114 300.418 1114 296V162C1114 157.582 1117.58 154 1122 154H1269C1273.42 154 1277 157.582 1277 162V296C1277 300.418 1273.42 304 1269 304V301C1271.76 301 1274 298.761 1274 296Z" fill="#2E2F33" fill-opacity="0.88"/>
<path d="M1212.94 240.312C1208.41 240.312 1205.09 237.625 1204.97 233.875H1208.94C1209.06 235.719 1210.78 237.031 1212.94 237.031C1215.47 237.031 1217.28 235.188 1217.28 232.688C1217.28 230.094 1215.41 228.25 1212.81 228.25C1211.06 228.219 1209.78 228.844 1209.06 230.188H1205.28L1206.66 217.375H1220.03V220.781H1210L1209.31 226.781H1209.53C1210.41 225.781 1212.06 225.062 1213.91 225.062C1218.12 225.062 1221.22 228.219 1221.22 232.562C1221.22 237.094 1217.81 240.312 1212.94 240.312Z" fill="black"/>
<path d="M1199.41 217.375V240H1195.31V221.344H1195.19L1189.91 224.719V221L1195.5 217.375H1199.41Z" fill="black"/>
<path d="M1169.47 235.781V232.531L1179.25 217.375H1184.31V232.438H1187.28V235.781H1184.31V240H1180.44V235.781H1169.47ZM1173.62 232.438H1180.5V222H1180.25L1173.62 232.281V232.438Z" fill="black"/>
</g>
<g id="changjo_hall_413">
<path d="M1035 13C1035 8.58172 1038.58 5 1043 5H1103C1107.42 5 1111 8.58172 1111 13V104C1111 108.418 1107.42 112 1103 112H1043C1038.58 112 1035 108.418 1035 104V13Z" fill="#F7FBFF"/>
<path d="M1103 109V112H1043L1043 109H1103ZM1108 104V13C1108 10.2386 1105.76 8 1103 8H1043C1040.24 8 1038 10.2386 1038 13V104C1038 106.761 1040.24 109 1043 109L1043 112C1038.58 112 1035 108.418 1035 104V13C1035 8.58172 1038.58 5 1043 5H1103C1107.42 5 1111 8.58172 1111 13V104C1111 108.418 1107.42 112 1103 112V109C1105.76 109 1108 106.761 1108 104Z" fill="#2E2F33" fill-opacity="0.88"/>
<path d="M1090.12 70.3125C1085.28 70.3125 1081.84 67.6875 1081.75 63.875H1085.84C1085.97 65.6875 1087.78 66.875 1090.12 66.875C1092.62 66.875 1094.41 65.5 1094.41 63.5C1094.41 61.4688 1092.66 60 1089.72 60H1087.69V56.875H1089.72C1092.12 56.875 1093.81 55.5312 1093.78 53.5625C1093.81 51.6562 1092.38 50.375 1090.16 50.375C1088.03 50.375 1086.19 51.5625 1086.12 53.4688H1082.22C1082.31 49.6562 1085.75 47.0625 1090.19 47.0625C1094.78 47.0625 1097.75 49.875 1097.72 53.3438C1097.75 55.875 1096.06 57.7188 1093.59 58.2188V58.4062C1096.78 58.8438 1098.59 60.875 1098.56 63.7188C1098.59 67.5312 1095.03 70.3125 1090.12 70.3125Z" fill="black"/>
<path d="M1076.41 47.375V70H1072.31V51.3438H1072.19L1066.91 54.7188V51L1072.5 47.375H1076.41Z" fill="black"/>
<path d="M1046.47 65.7812V62.5312L1056.25 47.375H1061.31V62.4375H1064.28V65.7812H1061.31V70H1057.44V65.7812H1046.47ZM1050.62 62.4375H1057.5V52H1057.25L1050.62 62.2812V62.4375Z" fill="black"/>
</g>
<g id="changjo_hall_412">
<path d="M959 13C959 8.58172 962.582 5 967 5H1030C1034.42 5 1038 8.58172 1038 13V104C1038 108.418 1034.42 112 1030 112H967C962.582 112 959 108.418 959 104V13Z" fill="#F7FBFF"/>
<path d="M1030 109V112H967L967 109H1030ZM1035 104V13C1035 10.2386 1032.76 8 1030 8H967C964.239 8 962 10.2386 962 13V104C962 106.761 964.239 109 967 109L967 112C962.582 112 959 108.418 959 104V13C959 8.58172 962.582 5 967 5H1030C1034.42 5 1038 8.58172 1038 13V104C1038 108.418 1034.42 112 1030 112V109C1032.76 109 1035 106.761 1035 104Z" fill="#2E2F33" fill-opacity="0.88"/>
<path d="M1007.91 70V67.0625L1015.91 59.3438C1018.19 57.0625 1019.37 55.7188 1019.37 53.8125C1019.37 51.7188 1017.72 50.375 1015.5 50.375C1013.16 50.375 1011.66 51.8438 1011.69 54.125H1007.81C1007.78 49.8438 1011 47.0625 1015.53 47.0625C1020.16 47.0625 1023.28 49.8125 1023.28 53.625C1023.28 56.1875 1022.03 58.25 1017.59 62.4375L1013.56 66.4375V66.5938H1023.62V70H1007.91Z" fill="black"/>
<path d="M1002.41 47.375V70H998.312V51.3438H998.188L992.906 54.7188V51L998.5 47.375H1002.41Z" fill="black"/>
<path d="M972.469 65.7812V62.5312L982.25 47.375H987.312V62.4375H990.281V65.7812H987.312V70H983.438V65.7812H972.469ZM976.625 62.4375H983.5V52H983.25L976.625 62.2812V62.4375Z" fill="black"/>
</g>
<g id="changjo_hall_411">
<path d="M884 14C884 9.58172 887.582 6 892 6H954C958.418 6 962 9.58172 962 14V105C962 109.418 958.418 113 954 113H892C887.582 113 884 109.418 884 105V14Z" fill="#F7FBFF"/>
<path d="M954 110V113H892L892 110H954ZM959 105V14C959 11.2386 956.761 9 954 9H892C889.239 9 887 11.2386 887 14V105C887 107.761 889.239 110 892 110L892 113L891.588 112.989C887.361 112.775 884 109.28 884 105V14C884 9.58172 887.582 6 892 6H954C958.418 6 962 9.58172 962 14V105C962 109.418 958.418 113 954 113V110C956.761 110 959 107.761 959 105Z" fill="#2E2F33" fill-opacity="0.88"/>
<path d="M944.094 48.375V71H940V52.3438H939.875L934.594 55.7188V52L940.188 48.375H944.094Z" fill="black"/>
<path d="M929.406 48.375V71H925.312V52.3438H925.188L919.906 55.7188V52L925.5 48.375H929.406Z" fill="black"/>
<path d="M899.469 66.7812V63.5312L909.25 48.375H914.312V63.4375H917.281V66.7812H914.312V71H910.438V66.7812H899.469ZM903.625 63.4375H910.5V53H910.25L903.625 63.2812V63.4375Z" fill="black"/>
</g>
<g id="changjo_hall_410">
<path d="M809 14C809 9.58172 812.582 6 817 6H879C883.418 6 887 9.58172 887 14V105C887 109.418 883.418 113 879 113H817C812.582 113 809 109.418 809 105V14Z" fill="#F7FBFF"/>
<path d="M879 110V113H817L817 110H879ZM884 105V14C884 11.2386 881.761 9 879 9H817C814.239 9 812 11.2386 812 14V105C812 107.761 814.239 110 817 110L817 113L816.588 112.989C812.361 112.775 809 109.28 809 105V14C809 9.58172 812.582 6 817 6H879C883.418 6 887 9.58172 887 14V105C887 109.418 883.418 113 879 113V110C881.761 110 884 107.761 884 105Z" fill="#2E2F33" fill-opacity="0.88"/>
<path d="M865.25 71.3125C859.812 71.3125 856.562 67.0938 856.562 59.6875C856.562 52.3125 859.812 48.0625 865.25 48.0625C870.656 48.0625 873.938 52.3125 873.938 59.6875C873.938 67.0938 870.688 71.3125 865.25 71.3125ZM865.25 67.9062C868.094 67.9062 869.844 65.125 869.844 59.6875C869.844 54.2812 868.062 51.4375 865.25 51.4375C862.438 51.4375 860.656 54.2812 860.656 59.6875C860.656 65.125 862.406 67.9062 865.25 67.9062Z" fill="black"/>
<path d="M851.406 48.375V71H847.312V52.3438H847.188L841.906 55.7188V52L847.5 48.375H851.406Z" fill="black"/>
<path d="M821.469 66.7812V63.5312L831.25 48.375H836.312V63.4375H839.281V66.7812H836.312V71H832.438V66.7812H821.469ZM825.625 63.4375H832.5V53H832.25L825.625 63.2812V63.4375Z" fill="black"/>
</g>
<g id="changjo_hall_409">
<path d="M734 14C734 9.58172 737.582 6 742 6H804C808.418 6 812 9.58172 812 14V105C812 109.418 808.418 113 804 113H742C737.582 113 734 109.418 734 105V14Z" fill="#F7FBFF"/>
<path d="M804 110V113H742L742 110H804ZM809 105V14C809 11.2386 806.761 9 804 9H742C739.239 9 737 11.2386 737 14V105C737 107.761 739.239 110 742 110L742 113L741.588 112.989C737.361 112.775 734 109.28 734 105V14C734 9.58172 737.582 6 742 6H804C808.418 6 812 9.58172 812 14V105C812 109.418 808.418 113 804 113V110C806.761 110 809 107.761 809 105Z" fill="#2E2F33" fill-opacity="0.88"/>
<path d="M793 48.0625C797.438 48.0938 801.812 50.7188 801.844 59C801.844 66.8125 798.312 71.3125 792.75 71.3125C788.375 71.3125 785.375 68.5938 784.875 64.8438H788.906C789.312 66.625 790.688 67.7812 792.75 67.7812C796.031 67.7812 797.875 64.875 797.906 60.0312H797.656C796.5 62 794.344 63.1562 791.844 63.1562C787.812 63.1562 784.688 60.0938 784.656 55.8125C784.656 51.375 787.969 48.0312 793 48.0625ZM793.031 51.3438C790.5 51.3438 788.594 53.3125 788.625 55.7188C788.625 58.1562 790.438 60.0625 792.969 60.0625C795.469 60.0625 797.438 58.0312 797.406 55.6875C797.406 53.375 795.562 51.3438 793.031 51.3438Z" fill="black"/>
<path d="M772.875 71.3125C767.438 71.3125 764.188 67.0938 764.188 59.6875C764.188 52.3125 767.438 48.0625 772.875 48.0625C778.281 48.0625 781.562 52.3125 781.562 59.6875C781.562 67.0938 778.312 71.3125 772.875 71.3125ZM772.875 67.9062C775.719 67.9062 777.469 65.125 777.469 59.6875C777.469 54.2812 775.688 51.4375 772.875 51.4375C770.062 51.4375 768.281 54.2812 768.281 59.6875C768.281 65.125 770.031 67.9062 772.875 67.9062Z" fill="black"/>
<path d="M743.469 66.7812V63.5312L753.25 48.375H758.312V63.4375H761.281V66.7812H758.312V71H754.438V66.7812H743.469ZM747.625 63.4375H754.5V53H754.25L747.625 63.2812V63.4375Z" fill="black"/>
</g>
<g id="changjo_hall_408">
<path d="M656 14C656 9.58172 659.582 6 664 6H729C733.418 6 737 9.58172 737 14V105C737 109.418 733.418 113 729 113H664C659.582 113 656 109.418 656 105V14Z" fill="#F7FBFF"/>
<path d="M729 110V113H664V110H729ZM734 105V14C734 11.2386 731.761 9 729 9H664C661.239 9 659 11.2386 659 14V105C659 107.761 661.239 110 664 110V113C659.582 113 656 109.418 656 105V14C656 9.58172 659.582 6 664 6H729L729.412 6.01074C733.639 6.22523 737 9.71994 737 14V105C737 109.28 733.639 112.775 729.412 112.989L729 113V110C731.761 110 734 107.761 734 105Z" fill="#2E2F33" fill-opacity="0.88"/>
<path d="M717.188 71.3125C712.156 71.3125 708.594 68.625 708.594 64.9375C708.594 62.0625 710.719 59.7188 713.438 59.2812V59.1562C711.062 58.6562 709.438 56.5938 709.438 54.125C709.438 50.625 712.719 48.0625 717.188 48.0625C721.625 48.0625 724.906 50.625 724.906 54.125C724.906 56.5938 723.25 58.6562 720.906 59.1562V59.2812C723.625 59.7188 725.781 62.0625 725.781 64.9375C725.781 68.625 722.188 71.3125 717.188 71.3125ZM717.188 68.0938C719.844 68.0938 721.594 66.6562 721.594 64.5625C721.594 62.4375 719.719 60.875 717.188 60.875C714.625 60.875 712.75 62.4375 712.781 64.5625C712.75 66.6562 714.5 68.0938 717.188 68.0938ZM717.188 57.8438C719.375 57.8438 720.938 56.4688 720.938 54.5C720.938 52.5938 719.406 51.25 717.188 51.25C714.938 51.25 713.406 52.5625 713.406 54.5C713.406 56.4688 714.969 57.8438 717.188 57.8438Z" fill="black"/>
<path d="M696.875 71.3125C691.438 71.3125 688.188 67.0938 688.188 59.6875C688.188 52.3125 691.438 48.0625 696.875 48.0625C702.281 48.0625 705.562 52.3125 705.562 59.6875C705.562 67.0938 702.312 71.3125 696.875 71.3125ZM696.875 67.9062C699.719 67.9062 701.469 65.125 701.469 59.6875C701.469 54.2812 699.688 51.4375 696.875 51.4375C694.062 51.4375 692.281 54.2812 692.281 59.6875C692.281 65.125 694.031 67.9062 696.875 67.9062Z" fill="black"/>
<path d="M667.469 66.7812V63.5312L677.25 48.375H682.312V63.4375H685.281V66.7812H682.312V71H678.438V66.7812H667.469ZM671.625 63.4375H678.5V53H678.25L671.625 63.2812V63.4375Z" fill="black"/>
</g>
<g id="changjo_hall_407">
<path d="M736 162C736 157.582 739.582 154 744 154H802C806.418 154 810 157.582 810 162V257C810 261.418 806.418 265 802 265H744C739.582 265 736 261.418 736 257V162Z" fill="#F7FBFF"/>
<path d="M802 262V265H744L744 262H802ZM807 257V162C807 159.239 804.761 157 802 157H744C741.239 157 739 159.239 739 162V257C739 259.761 741.239 262 744 262L744 265L743.588 264.989C739.361 264.775 736 261.28 736 257V162C736 157.582 739.582 154 744 154H802C806.418 154 810 157.582 810 162V257C810 261.418 806.418 265 802 265V262C804.761 262 807 259.761 807 257Z" fill="#2E2F33" fill-opacity="0.88"/>
<path d="M787.188 221L797 201.938V201.781H785.625V198.375H801.219V201.844L791.406 221H787.188Z" fill="black"/>
<path d="M774.875 221.312C769.438 221.312 766.188 217.094 766.188 209.688C766.188 202.312 769.438 198.062 774.875 198.062C780.281 198.062 783.562 202.312 783.562 209.688C783.562 217.094 780.312 221.312 774.875 221.312ZM774.875 217.906C777.719 217.906 779.469 215.125 779.469 209.688C779.469 204.281 777.688 201.438 774.875 201.438C772.062 201.438 770.281 204.281 770.281 209.688C770.281 215.125 772.031 217.906 774.875 217.906Z" fill="black"/>
<path d="M745.469 216.781V213.531L755.25 198.375H760.312V213.438H763.281V216.781H760.312V221H756.438V216.781H745.469ZM749.625 213.438H756.5V203H756.25L749.625 213.281V213.438Z" fill="black"/>
</g>
<g id="changjo_hall_406">
<path d="M807 162C807 157.582 810.582 154 815 154H877C881.418 154 885 157.582 885 162V257C885 261.418 881.418 265 877 265H815C810.582 265 807 261.418 807 257V162Z" fill="#F7FBFF"/>
<path d="M877 262V265H815L815 262H877ZM882 257V162C882 159.239 879.761 157 877 157H815C812.239 157 810 159.239 810 162V257C810 259.761 812.239 262 815 262L815 265L814.588 264.989C810.361 264.775 807 261.28 807 257V162C807 157.582 810.582 154 815 154H877C881.418 154 885 157.582 885 162V257C885 261.418 881.418 265 877 265V262C879.761 262 882 259.761 882 257Z" fill="#2E2F33" fill-opacity="0.88"/>
<path d="M866.437 221.312C862.031 221.281 857.594 218.656 857.625 210.312C857.625 202.562 861.156 198.062 866.687 198.062C871.062 198.062 874.062 200.812 874.562 204.469H870.531C870.125 202.75 868.75 201.594 866.687 201.594C863.406 201.594 861.562 204.5 861.562 209.25H861.781C862.937 207.312 865.125 206.156 867.594 206.156C871.656 206.156 874.781 209.219 874.781 213.5C874.781 218 871.437 221.344 866.437 221.312ZM866.437 218.031C868.969 218.031 870.844 216.062 870.844 213.594C870.844 211.188 869 209.25 866.5 209.25C863.969 209.25 862.031 211.25 862 213.625C862.031 216 863.875 218.031 866.437 218.031Z" fill="black"/>
<path d="M845.875 221.312C840.438 221.312 837.188 217.094 837.188 209.688C837.188 202.312 840.438 198.062 845.875 198.062C851.281 198.062 854.562 202.312 854.562 209.688C854.562 217.094 851.312 221.312 845.875 221.312ZM845.875 217.906C848.719 217.906 850.469 215.125 850.469 209.688C850.469 204.281 848.688 201.438 845.875 201.438C843.062 201.438 841.281 204.281 841.281 209.688C841.281 215.125 843.031 217.906 845.875 217.906Z" fill="black"/>
<path d="M816.469 216.781V213.531L826.25 198.375H831.312V213.438H834.281V216.781H831.312V221H827.438V216.781H816.469ZM820.625 213.438H827.5V203H827.25L820.625 213.281V213.438Z" fill="black"/>
</g>
<g id="changjo_hall_4f_toilet_right_girl">
<path d="M812 1185C812 1180.58 815.582 1177 820 1177H895C899.418 1177 903 1180.58 903 1185V1281C903 1285.42 899.418 1289 895 1289H820C815.582 1289 812 1285.42 812 1281V1185Z" fill="#FED9C4"/>
<path d="M895 1286V1289H820L820 1286H895ZM900 1281V1185C900 1182.24 897.761 1180 895 1180H820C817.239 1180 815 1182.24 815 1185V1281C815 1283.76 817.239 1286 820 1286L820 1289L819.588 1288.99C815.361 1288.77 812 1285.28 812 1281V1185C812 1180.58 815.582 1177 820 1177H895C899.418 1177 903 1180.58 903 1185V1281C903 1285.42 899.418 1289 895 1289V1286C897.761 1286 900 1283.76 900 1281Z" fill="#2E2F33" fill-opacity="0.88"/>
<path d="M870.75 1208.25H845.25C838.623 1208.25 833.25 1213.62 833.25 1220.25V1245.75C833.25 1252.38 838.623 1257.75 845.25 1257.75H870.75C877.377 1257.75 882.75 1252.38 882.75 1245.75V1220.25C882.75 1213.62 877.377 1208.25 870.75 1208.25Z" fill="#E76D6D"/>
<path d="M855.275 1230.98L849.808 1243.52C848.953 1245.49 850.392 1247.68 852.534 1247.68H863.464C865.606 1247.68 867.046 1245.49 866.19 1243.52L860.724 1230.98C859.686 1228.59 856.309 1228.59 855.271 1230.98H855.275Z" fill="white"/>
<path d="M858 1226.38C860.227 1226.38 862.032 1224.58 862.032 1222.35C862.032 1220.12 860.227 1218.32 858 1218.32C855.773 1218.32 853.968 1220.12 853.968 1222.35C853.968 1224.58 855.773 1226.38 858 1226.38Z" fill="white"/>
</g>
<g id="changjo_hall_4f_toilet_left_girl">
<path d="M1032 162C1032 157.582 1035.58 154 1040 154H1109C1113.42 154 1117 157.582 1117 162V226C1117 230.418 1113.42 234 1109 234H1040C1035.58 234 1032 230.418 1032 226V162Z" fill="#FED9C4"/>
<path d="M1109 231V234H1040L1040 231H1109ZM1114 226V162C1114 159.239 1111.76 157 1109 157H1040C1037.24 157 1035 159.239 1035 162V226C1035 228.761 1037.24 231 1040 231L1040 234L1039.59 233.989C1035.36 233.775 1032 230.28 1032 226V162C1032 157.582 1035.58 154 1040 154H1109C1113.42 154 1117 157.582 1117 162V226C1117 230.418 1113.42 234 1109 234V231C1111.76 231 1114 228.761 1114 226Z" fill="#2E2F33" fill-opacity="0.88"/>
<path d="M1087.75 169.25H1062.25C1055.62 169.25 1050.25 174.623 1050.25 181.25V206.75C1050.25 213.377 1055.62 218.75 1062.25 218.75H1087.75C1094.38 218.75 1099.75 213.377 1099.75 206.75V181.25C1099.75 174.623 1094.38 169.25 1087.75 169.25Z" fill="#E76D6D"/>
<path d="M1072.27 191.976L1066.81 204.524C1065.95 206.488 1067.39 208.685 1069.53 208.685H1080.46C1082.61 208.685 1084.05 206.488 1083.19 204.524L1077.72 191.976C1076.69 189.594 1073.31 189.594 1072.27 191.976H1072.27Z" fill="white"/>
<path d="M1075 187.381C1077.23 187.381 1079.03 185.575 1079.03 183.348C1079.03 181.122 1077.23 179.317 1075 179.317C1072.77 179.317 1070.97 181.122 1070.97 183.348C1070.97 185.575 1072.77 187.381 1075 187.381Z" fill="white"/>
</g>
<g id="changjo_hall_4f_toilet_right_boy">
<path d="M725 1185C725 1180.58 728.582 1177 733 1177H807C811.418 1177 815 1180.58 815 1185V1281C815 1285.42 811.418 1289 807 1289H733C728.582 1289 725 1285.42 725 1281V1185Z" fill="#FED9C4"/>
<path d="M807 1286V1289H733L733 1286H807ZM812 1281V1185C812 1182.24 809.761 1180 807 1180H733C730.239 1180 728 1182.24 728 1185V1281C728 1283.76 730.239 1286 733 1286L733 1289L732.588 1288.99C728.361 1288.77 725 1285.28 725 1281V1185C725 1180.58 728.582 1177 733 1177H807C811.418 1177 815 1180.58 815 1185V1281C815 1285.42 811.418 1289 807 1289V1286C809.761 1286 812 1283.76 812 1281Z" fill="#2E2F33" fill-opacity="0.88"/>
<path d="M782.75 1208.25H757.25C750.623 1208.25 745.25 1213.62 745.25 1220.25V1245.75C745.25 1252.38 750.623 1257.75 757.25 1257.75H782.75C789.377 1257.75 794.75 1252.38 794.75 1245.75V1220.25C794.75 1213.62 789.377 1208.25 782.75 1208.25Z" fill="#3076D1"/>
<path d="M772.725 1245.89L778.191 1233.34C779.046 1231.38 777.608 1229.18 775.466 1229.18H764.535C762.394 1229.18 760.953 1231.38 761.81 1233.34L767.276 1245.89C768.314 1248.27 771.691 1248.27 772.729 1245.89H772.725Z" fill="white"/>
<path d="M770 1226.39C772.227 1226.39 774.032 1224.58 774.032 1222.36C774.032 1220.13 772.227 1218.32 770 1218.32C767.773 1218.32 765.968 1220.13 765.968 1222.36C765.968 1224.58 767.773 1226.39 770 1226.39Z" fill="white"/>
</g>
<g id="changjo_hall_4f_toilet_left_boy">
<path d="M882.5 162.5C882.5 158.082 886.082 154.5 890.5 154.5H951.5C955.918 154.5 959.5 158.082 959.5 162.5V212C959.5 216.418 963.082 220 967.5 220H977.5C981.918 220 985.5 223.582 985.5 228V257.5C985.5 261.918 981.918 265.5 977.5 265.5H890.5C886.082 265.5 882.5 261.918 882.5 257.5V162.5Z" fill="#FED9C4"/>
<path d="M977.5 262.5V265.5H890.5L890.5 262.5H977.5ZM982.5 257.5V228C982.5 225.239 980.261 223 977.5 223H967.5C961.425 223 956.5 218.075 956.5 212V162.5C956.5 159.739 954.261 157.5 951.5 157.5H890.5C887.739 157.5 885.5 159.739 885.5 162.5V257.5C885.5 260.261 887.739 262.5 890.5 262.5L890.5 265.5C886.082 265.5 882.5 261.918 882.5 257.5V162.5C882.5 158.082 886.082 154.5 890.5 154.5H951.5C955.918 154.5 959.5 158.082 959.5 162.5V212C959.5 216.418 963.082 220 967.5 220H977.5C981.918 220 985.5 223.582 985.5 228V257.5C985.5 261.918 981.918 265.5 977.5 265.5V262.5C980.261 262.5 982.5 260.261 982.5 257.5Z" fill="#2E2F33" fill-opacity="0.88"/>
<path d="M933.75 185.25H908.25C901.623 185.25 896.25 190.623 896.25 197.25V222.75C896.25 229.377 901.623 234.75 908.25 234.75H933.75C940.377 234.75 945.75 229.377 945.75 222.75V197.25C945.75 190.623 940.377 185.25 933.75 185.25Z" fill="#3076D1"/>
<path d="M923.725 222.889L929.191 210.342C930.046 208.378 928.608 206.181 926.466 206.181H915.535C913.393 206.181 911.953 208.378 912.81 210.342L918.276 222.889C919.314 225.271 922.691 225.271 923.729 222.889H923.725Z" fill="white"/>
<path d="M921 203.388C923.227 203.388 925.032 201.583 925.032 199.356C925.032 197.129 923.227 195.324 921 195.324C918.773 195.324 916.968 197.129 916.968 199.356C916.968 201.583 918.773 203.388 921 203.388Z" fill="white"/>
</g>
<g id="changjo_hall_4f_stairs_right_main">
<path d="M524 998C524 993.582 527.582 990 532 990H620C624.418 990 628 993.582 628 998V1132C628 1136.42 624.418 1140 620 1140H532C527.582 1140 524 1136.42 524 1132V998Z" fill="#D9FFE6"/>
<path d="M620 1137V1140H532L532 1137H620ZM625 1132V998C625 995.239 622.761 993 620 993H532C529.239 993 527 995.239 527 998V1132C527 1134.76 529.239 1137 532 1137L532 1140L531.588 1139.99C527.361 1139.77 524 1136.28 524 1132V998C524 993.582 527.582 990 532 990H620C624.418 990 628 993.582 628 998V1132C628 1136.42 624.418 1140 620 1140V1137C622.761 1137 625 1134.76 625 1132Z" fill="#2E2F33" fill-opacity="0.88"/>
<path d="M599.94 1038.63C598.892 1038.25 597.728 1038.79 597.341 1039.84L593.58 1050.06H572.281L575.805 1041.29C576.222 1040.25 575.719 1039.07 574.681 1038.65C573.644 1038.24 572.465 1038.74 572.048 1039.78L552.432 1088.58C552.015 1089.62 552.517 1090.8 553.556 1091.22C553.803 1091.32 554.058 1091.36 554.31 1091.36C555.112 1091.36 555.873 1090.88 556.189 1090.09L560.218 1080.07C560.306 1080.08 560.382 1080.12 560.472 1080.12H582.519L579.386 1088.64C579 1089.69 579.537 1090.85 580.587 1091.24C580.818 1091.32 581.055 1091.36 581.286 1091.36C582.11 1091.36 582.885 1090.86 583.187 1090.04L601.142 1041.23C601.527 1040.18 600.99 1039.02 599.94 1038.63ZM571.074 1054.1H592.089L588.849 1062.91H567.114L570.686 1054.03C570.816 1054.05 570.936 1054.1 571.074 1054.1ZM561.825 1076.07L565.51 1066.9C565.606 1066.92 565.694 1066.96 565.794 1066.96H587.361L584.009 1076.07H561.825Z" fill="#6E4944"/>
</g>
<g id="changjo_hall_4f_stairs_left_main">
<path d="M1079 351C1079 346.582 1082.58 343 1087 343H1175C1179.42 343 1183 346.582 1183 351V485C1183 489.418 1179.42 493 1175 493H1087C1082.58 493 1079 489.418 1079 485V351Z" fill="#D9FFE6"/>
<path d="M1175 490V493H1087L1087 490H1175ZM1180 485V351C1180 348.239 1177.76 346 1175 346H1087C1084.24 346 1082 348.239 1082 351V485C1082 487.761 1084.24 490 1087 490L1087 493L1086.59 492.989C1082.36 492.775 1079 489.28 1079 485V351C1079 346.582 1082.58 343 1087 343H1175C1179.42 343 1183 346.582 1183 351V485C1183 489.418 1179.42 493 1175 493V490C1177.76 490 1180 487.761 1180 485Z" fill="#2E2F33" fill-opacity="0.88"/>
<path d="M1154.94 391.634C1153.89 391.247 1152.73 391.787 1152.34 392.836L1148.58 403.056H1127.28L1130.81 394.29C1131.22 393.252 1130.72 392.071 1129.68 391.654C1128.64 391.237 1127.46 391.743 1127.05 392.778L1107.43 441.581C1107.02 442.619 1107.52 443.8 1108.56 444.217C1108.8 444.316 1109.06 444.364 1109.31 444.364C1110.11 444.364 1110.87 443.884 1111.19 443.093L1115.22 433.071C1115.31 433.083 1115.38 433.121 1115.47 433.121H1137.52L1134.39 441.64C1134 442.688 1134.54 443.854 1135.59 444.238C1135.82 444.324 1136.06 444.364 1136.29 444.364C1137.11 444.364 1137.89 443.855 1138.19 443.036L1156.14 394.233C1156.53 393.184 1155.99 392.018 1154.94 391.634ZM1126.07 407.104H1147.09L1143.85 415.91H1122.11L1125.69 407.026C1125.82 407.051 1125.94 407.104 1126.07 407.104ZM1116.83 429.072L1120.51 419.903C1120.61 419.917 1120.69 419.961 1120.79 419.961H1142.36L1139.01 429.072H1116.83Z" fill="#6E4944"/>
</g>
<g id="changjo_hall_4f_elevator_left">
<path d="M606 162C606 157.582 609.582 154 614 154H674C678.418 154 682 157.582 682 162V205C682 209.418 678.418 213 674 213H614C609.582 213 606 209.418 606 205V162Z" fill="#C4C4C4"/>
<path d="M674 210V213H614L614 210H674ZM679 205V162C679 159.239 676.761 157 674 157H614C611.239 157 609 159.239 609 162V205C609 207.761 611.239 210 614 210L614 213C609.582 213 606 209.418 606 205V162C606 157.582 609.582 154 614 154H674C678.418 154 682 157.582 682 162V205C682 209.418 678.418 213 674 213V210C676.761 210 679 207.761 679 205Z" fill="#2E2F33" fill-opacity="0.88"/>
<path d="M654.625 163.375H633.375C627.853 163.375 623.375 167.852 623.375 173.375V194.625C623.375 200.147 627.853 204.625 633.375 204.625H654.625C660.147 204.625 664.625 200.147 664.625 194.625V173.375C664.625 167.852 660.147 163.375 654.625 163.375ZM645.02 171.434H646.174C646.289 171.434 646.381 171.341 646.381 171.226V168.675C646.381 168.577 646.46 168.499 646.557 168.499H648.449C648.546 168.499 648.625 168.577 648.625 168.675V171.226C648.625 171.341 648.717 171.434 648.832 171.434H649.986C650.153 171.434 650.235 171.634 650.118 171.751L647.759 174.11C647.618 174.251 647.389 174.251 647.249 174.11L644.89 171.751C644.772 171.634 644.855 171.434 645.02 171.434ZM637.327 170.964L639.686 168.605C639.827 168.464 640.056 168.464 640.196 168.605L642.555 170.964C642.673 171.081 642.589 171.281 642.424 171.281H641.27C641.155 171.281 641.062 171.374 641.062 171.489V174.04C641.062 174.137 640.984 174.216 640.886 174.216H638.995C638.898 174.216 638.819 174.137 638.819 174.04V171.489C638.819 171.374 638.726 171.281 638.611 171.281H637.458C637.291 171.281 637.21 171.081 637.327 170.964ZM659.29 193.34C659.29 196.355 656.838 198.808 653.823 198.808H634.176C631.161 198.808 628.709 196.355 628.709 193.34V181.54C628.709 178.525 631.161 176.073 634.176 176.073H653.823C656.838 176.073 659.29 178.525 659.29 181.54V193.34Z" fill="#4592FB"/>
<path d="M653.823 177.04H634.176C631.695 177.04 629.676 179.059 629.676 181.54V193.34C629.676 195.821 631.695 197.841 634.176 197.841H653.823C656.304 197.841 658.323 195.822 658.323 193.34V181.54C658.323 179.059 656.304 177.04 653.823 177.04ZM651.61 179.925C652.245 179.925 652.76 180.44 652.76 181.075C652.76 181.71 652.245 182.225 651.61 182.225C650.975 182.225 650.46 181.71 650.46 181.075C650.46 180.44 650.975 179.925 651.61 179.925ZM643.866 179.925C644.501 179.925 645.016 180.44 645.016 181.075C645.016 181.71 644.501 182.225 643.866 182.225C643.231 182.225 642.716 181.71 642.716 181.075C642.716 180.44 643.231 179.925 643.866 179.925ZM636.122 179.925C636.757 179.925 637.272 180.44 637.272 181.075C637.272 181.71 636.757 182.225 636.122 182.225C635.487 182.225 634.972 181.71 634.972 181.075C634.972 180.44 635.487 179.925 636.122 179.925ZM639.455 188.081C639.455 188.441 639.162 188.734 638.802 188.734C638.442 188.734 638.15 188.441 638.15 188.081V184.663H637.809V194.084C637.809 194.477 637.49 194.796 637.096 194.796C636.703 194.796 636.384 194.477 636.384 194.084V188.665H635.859V194.084C635.859 194.477 635.54 194.796 635.146 194.796C634.753 194.796 634.434 194.477 634.434 194.084V184.663H633.995V188.081C633.995 188.441 633.703 188.734 633.343 188.734C632.983 188.734 632.69 188.441 632.69 188.081V184.051C632.69 183.33 633.274 182.746 633.995 182.746H638.147C638.868 182.746 639.452 183.33 639.452 184.051V188.081H639.455ZM647.199 188.081C647.199 188.441 646.906 188.734 646.546 188.734C646.186 188.734 645.894 188.441 645.894 188.081V184.663H645.553V194.084C645.553 194.477 645.234 194.796 644.84 194.796C644.446 194.796 644.127 194.477 644.127 194.084V188.665H643.604V194.084C643.604 194.477 643.285 194.796 642.891 194.796C642.498 194.796 642.179 194.477 642.179 194.084V184.663H641.74V188.081C641.74 188.441 641.448 188.734 641.088 188.734C640.728 188.734 640.435 188.441 640.435 188.081V184.051C640.435 183.33 641.019 182.746 641.74 182.746H645.893C646.614 182.746 647.198 183.33 647.198 184.051L647.199 188.081ZM654.942 188.081C654.942 188.441 654.65 188.734 654.29 188.734C653.93 188.734 653.637 188.441 653.637 188.081V184.663H653.296V194.084C653.296 194.477 652.978 194.796 652.584 194.796C652.19 194.796 651.871 194.477 651.871 194.084V188.665H651.346V194.084C651.346 194.477 651.028 194.796 650.634 194.796C650.24 194.796 649.921 194.477 649.921 194.084V184.663H649.482V188.081C649.482 188.441 649.19 188.734 648.83 188.734C648.47 188.734 648.177 188.441 648.177 188.081V184.051C648.177 183.33 648.761 182.746 649.482 182.746H653.635C654.356 182.746 654.94 183.33 654.94 184.051V188.081H654.942Z" fill="#4592FB"/>
<path d="M643.866 182.225C644.501 182.225 645.016 181.71 645.016 181.075C645.016 180.44 644.501 179.925 643.866 179.925C643.231 179.925 642.716 180.44 642.716 181.075C642.716 181.71 643.231 182.225 643.866 182.225Z" fill="white"/>
<path d="M636.122 182.225C636.757 182.225 637.272 181.71 637.272 181.075C637.272 180.44 636.757 179.925 636.122 179.925C635.487 179.925 634.972 180.44 634.972 181.075C634.972 181.71 635.487 182.225 636.122 182.225Z" fill="white"/>
<path d="M651.61 182.225C652.245 182.225 652.76 181.71 652.76 181.075C652.76 180.44 652.245 179.925 651.61 179.925C650.975 179.925 650.46 180.44 650.46 181.075C650.46 181.71 650.975 182.225 651.61 182.225Z" fill="white"/>
<path d="M653.825 176.075H634.175C631.163 176.075 628.712 178.525 628.712 181.538V193.337C628.712 196.35 631.163 198.812 634.175 198.812H653.825C656.838 198.812 659.287 196.35 659.287 193.337V181.538C659.287 178.525 656.838 176.075 653.825 176.075ZM658.325 193.337C658.325 195.825 656.3 197.838 653.825 197.838H634.175C631.7 197.838 629.675 195.825 629.675 193.337V181.538C629.675 179.063 631.7 177.038 634.175 177.038H653.825C656.3 177.038 658.325 179.063 658.325 181.538V193.337Z" fill="white"/>
<path d="M654.938 184.05V188.075C654.938 188.438 654.65 188.737 654.287 188.737C653.925 188.737 653.637 188.438 653.637 188.075V184.663L653.3 184.663V194.087C653.3 194.475 652.975 194.8 652.588 194.8C652.188 194.8 651.875 194.475 651.875 194.087V188.662H651.35V194.087C651.35 194.475 651.025 194.8 650.637 194.8C650.237 194.8 649.925 194.475 649.925 194.087V184.663H649.487V188.075C649.487 188.438 649.188 188.737 648.838 188.737C648.475 188.737 648.175 188.438 648.175 188.075V184.05C648.175 183.325 648.763 182.75 649.487 182.75H653.637C654.362 182.75 654.938 183.325 654.938 184.05Z" fill="white"/>
<path d="M639.45 184.05V188.075C639.45 188.438 639.162 188.737 638.8 188.737C638.438 188.737 638.15 188.438 638.15 188.075L638.15 184.663L637.812 184.663V194.087C637.812 194.475 637.487 194.8 637.1 194.8C636.7 194.8 636.388 194.475 636.388 194.087V188.662H635.862V194.087C635.862 194.475 635.538 194.8 635.15 194.8C634.75 194.8 634.438 194.475 634.438 194.087V184.663H634V188.075C634 188.438 633.7 188.737 633.35 188.737C632.988 188.737 632.688 188.438 632.688 188.075V184.05C632.688 183.325 633.275 182.75 634 182.75H638.15C638.875 182.75 639.45 183.325 639.45 184.05Z" fill="white"/>
<path d="M647.2 184.05V188.075C647.2 188.438 646.912 188.737 646.55 188.737C646.188 188.737 645.9 188.438 645.9 188.075V184.663H645.55V194.087C645.55 194.475 645.237 194.8 644.837 194.8C644.45 194.8 644.125 194.475 644.125 194.087V188.662H643.6V194.087C643.6 194.475 643.288 194.8 642.888 194.8C642.5 194.8 642.175 194.475 642.175 194.087V184.663H641.737V188.075C641.737 188.438 641.45 188.737 641.087 188.737C640.725 188.737 640.438 188.438 640.438 188.075V184.05C640.438 183.325 641.025 182.75 641.737 182.75H645.9C646.612 182.75 647.2 183.325 647.2 184.05Z" fill="white"/>
<path d="M637.459 171.281H638.612C638.728 171.281 638.82 171.374 638.82 171.489V174.04C638.82 174.138 638.899 174.216 638.996 174.216H640.888C640.985 174.216 641.064 174.138 641.064 174.04V171.489C641.064 171.374 641.156 171.281 641.271 171.281H642.425C642.591 171.281 642.674 171.08 642.556 170.964L640.198 168.605C640.056 168.464 639.827 168.464 639.688 168.605L637.329 170.964C637.211 171.081 637.294 171.281 637.459 171.281Z" fill="white"/>
<path d="M647.246 174.11C647.388 174.251 647.616 174.251 647.756 174.11L650.115 171.751C650.232 171.634 650.149 171.434 649.984 171.434H648.83C648.715 171.434 648.622 171.341 648.622 171.226V168.675C648.622 168.577 648.544 168.499 648.446 168.499H646.555C646.458 168.499 646.379 168.577 646.379 168.675V171.226C646.379 171.341 646.286 171.434 646.171 171.434H645.017C644.851 171.434 644.769 171.634 644.886 171.751L647.246 174.11Z" fill="white"/>
</g>
</g>
</svg>
