<svg width="2016" height="1490" viewBox="0 0 2016 1490" fill="none" xmlns="http://www.w3.org/2000/svg">
<g id="changjo_hall_floor_5">
<g id="Vector">
<path d="M569 878.5V987.5H629.5V1144H730.5H994.5V1087H1081.5L1210 959.5V878H1261V607H1137.5V496.5H1076.5V342.5H982.5H717V399H632L505 527.5V607.5H454V878.5H569Z" fill="#474747"/>
<path d="M569 987.5H3V1143H16.5V1292H637.5V1326.5H596V1486.5H1211.5V1282.5H906V1174.5H730.5V1144H629.5V987.5H569Z" fill="#474747"/>
<path d="M1137.5 496.5H2013V152H1078.5V115H1114.5V3H654V109.5H604.5V215.5H677.5V268H982.5V342.5H1076.5V496.5H1137.5Z" fill="#999999"/>
<path d="M1134.5 499.5H1073.5V345.5H720V402H633.253L508 528.731V610.5H457V875.5H572V984.5H632.5V1141H991.5V1084H1080.26L1207 958.249V875H1258V610H1134.5V499.5ZM6 1140H19.5V1289H640.5V1329.5H599V1483.5H1208.5V1285.5H903V1177.5H727.5V1147H626.5V990.5H6V1140ZM657 112.5H607.5V212.5H680.5V265H985.5V339.5H1079.5V493.5H2010V155H1075.5V112H1111.5V6H657V112.5ZM1140.5 604H1264V881H1213V960.75L1082.74 1090H997.5V1147H733.5V1171.5H909V1279.5H1214.5V1489.5H593V1323.5H634.5V1295H13.5V1146H0V984.5H566V881.5H451V604.5H502V526.268L630.747 396H714V339.5H979.5V271H674.5V218.5H601.5V106.5H651V0H1117.5V118H1081.5V149H2016V499.5H1140.5V604Z" fill="black"/>
</g>
<g id="Vector_2">
<path d="M456.5 618.5C456.5 614.082 460.082 610.5 464.5 610.5H677.163C679.298 610.5 681.345 611.354 682.848 612.872L777.185 708.162C778.668 709.66 779.5 711.682 779.5 713.79V772.233C779.5 774.327 778.679 776.338 777.213 777.833L682.852 874.1C681.348 875.635 679.289 876.5 677.139 876.5H464.5C460.082 876.5 456.5 872.918 456.5 868.5V618.5Z" fill="#474747"/>
<path d="M456.5 868.5V618.5C456.5 614.082 460.082 610.5 464.5 610.5H677.163L677.562 610.51C679.552 610.609 681.439 611.449 682.848 612.872L777.185 708.162C778.668 709.66 779.5 711.682 779.5 713.79V772.233L779.49 772.625C779.395 774.577 778.587 776.431 777.213 777.833L682.852 874.1L682.564 874.38C681.189 875.649 679.411 876.396 677.541 876.49L677.139 876.5L677.14 873.5C678.483 873.5 679.77 872.959 680.71 872L775.07 775.733C775.986 774.799 776.5 773.542 776.5 772.233V713.79C776.5 712.473 775.98 711.209 775.054 710.272L680.716 614.982C679.777 614.034 678.498 613.5 677.163 613.5H464.5C461.739 613.5 459.5 615.739 459.5 618.5V868.5C459.5 871.261 461.739 873.5 464.5 873.5L464.5 876.5L464.088 876.489C459.998 876.282 456.718 873.002 456.511 868.912L456.5 868.5ZM677.14 873.5L677.139 876.5H464.5L464.5 873.5H677.14Z" fill="#2E2F33" fill-opacity="0.88"/>
</g>
<g id="Vector_3">
<path d="M977.5 345.5C981.918 345.5 985.5 349.082 985.5 353.5V566.163C985.5 568.298 984.646 570.345 983.128 571.848L887.838 666.185C886.34 667.668 884.318 668.5 882.21 668.5H823.767C821.673 668.5 819.662 667.679 818.167 666.213L721.9 571.852C720.365 570.348 719.5 568.289 719.5 566.139V353.5C719.5 349.082 723.082 345.5 727.5 345.5H977.5Z" fill="#474747"/>
<path d="M727.5 345.5H977.5C981.918 345.5 985.5 349.082 985.5 353.5V566.163L985.49 566.562C985.391 568.552 984.551 570.439 983.128 571.848L887.838 666.185C886.34 667.668 884.318 668.5 882.21 668.5H823.767L823.375 668.49C821.423 668.395 819.569 667.587 818.167 666.213L721.9 571.852L721.62 571.564C720.351 570.189 719.604 568.411 719.51 566.541L719.5 566.139L722.5 566.14C722.5 567.483 723.041 568.77 724 569.71L820.267 664.07C821.201 664.986 822.458 665.5 823.767 665.5H882.21C883.527 665.5 884.791 664.98 885.728 664.054L981.018 569.716C981.966 568.777 982.5 567.498 982.5 566.163V353.5C982.5 350.739 980.261 348.5 977.5 348.5H727.5C724.739 348.5 722.5 350.739 722.5 353.5L719.5 353.5L719.511 353.088C719.718 348.998 722.998 345.718 727.088 345.511L727.5 345.5ZM722.5 566.14L719.5 566.139V353.5L722.5 353.5V566.14Z" fill="#2E2F33" fill-opacity="0.88"/>
</g>
<g id="Vector_4">
<path d="M1258.5 867.5C1258.5 871.918 1254.92 875.5 1250.5 875.5H1037.84C1035.7 875.5 1033.65 874.646 1032.15 873.128L937.815 777.838C936.332 776.34 935.5 774.318 935.5 772.21V713.767C935.5 711.673 936.321 709.662 937.787 708.167L1032.15 611.9C1033.65 610.365 1035.71 609.5 1037.86 609.5H1250.5C1254.92 609.5 1258.5 613.082 1258.5 617.5V867.5Z" fill="#474747"/>
<path d="M1258.5 617.5V867.5C1258.5 871.918 1254.92 875.5 1250.5 875.5H1037.84L1037.44 875.49C1035.45 875.391 1033.56 874.551 1032.15 873.128L937.815 777.838C936.332 776.34 935.5 774.318 935.5 772.21V713.767L935.51 713.375C935.605 711.423 936.413 709.569 937.787 708.167L1032.15 611.9L1032.44 611.62C1033.81 610.351 1035.59 609.604 1037.46 609.51L1037.86 609.5L1037.86 612.5C1036.52 612.5 1035.23 613.041 1034.29 614L939.93 710.267C939.014 711.201 938.5 712.458 938.5 713.767V772.21C938.5 773.527 939.02 774.791 939.946 775.728L1034.28 871.018C1035.22 871.966 1036.5 872.5 1037.84 872.5H1250.5C1253.26 872.5 1255.5 870.261 1255.5 867.5V617.5C1255.5 614.739 1253.26 612.5 1250.5 612.5V609.5L1250.91 609.511C1255 609.718 1258.28 612.998 1258.49 617.088L1258.5 617.5ZM1037.86 612.5L1037.86 609.5H1250.5V612.5H1037.86Z" fill="#2E2F33" fill-opacity="0.88"/>
</g>
<g id="Vector_5">
<path d="M733.5 1141.5C729.082 1141.5 725.5 1137.92 725.5 1133.5V920.837C725.5 918.702 726.354 916.655 727.872 915.152L823.162 820.815C824.66 819.332 826.682 818.5 828.79 818.5H887.233C889.327 818.5 891.338 819.321 892.833 820.787L989.1 915.148C990.635 916.652 991.5 918.711 991.5 920.861V1133.5C991.5 1137.92 987.918 1141.5 983.5 1141.5H733.5Z" fill="#474747"/>
<path d="M983.5 1141.5H733.5C729.082 1141.5 725.5 1137.92 725.5 1133.5V920.837L725.51 920.438C725.609 918.448 726.449 916.561 727.872 915.152L823.162 820.815C824.66 819.332 826.682 818.5 828.79 818.5H887.233L887.625 818.51C889.577 818.605 891.431 819.413 892.833 820.787L989.1 915.148L989.38 915.436C990.649 916.811 991.396 918.589 991.49 920.459L991.5 920.861L988.5 920.86C988.5 919.517 987.959 918.23 987 917.29L890.733 822.93C889.799 822.014 888.542 821.5 887.233 821.5H828.79C827.473 821.5 826.209 822.02 825.272 822.946L729.982 917.284C729.034 918.223 728.5 919.502 728.5 920.837V1133.5C728.5 1136.26 730.739 1138.5 733.5 1138.5H983.5C986.261 1138.5 988.5 1136.26 988.5 1133.5H991.5L991.489 1133.91C991.282 1138 988.002 1141.28 983.912 1141.49L983.5 1141.5ZM988.5 920.86L991.5 920.861V1133.5H988.5V920.86Z" fill="#2E2F33" fill-opacity="0.88"/>
</g>
<g id="Vector_6">
<path d="M524.5 998.5C524.5 994.082 528.082 990.5 532.5 990.5H620.5C624.918 990.5 628.5 994.082 628.5 998.5V1132.5C628.5 1136.92 624.918 1140.5 620.5 1140.5H532.5C528.082 1140.5 524.5 1136.92 524.5 1132.5V998.5Z" fill="#474747"/>
<path d="M620.5 1137.5V1140.5H532.5L532.5 1137.5H620.5ZM625.5 1132.5V998.5C625.5 995.739 623.261 993.5 620.5 993.5H532.5C529.739 993.5 527.5 995.739 527.5 998.5V1132.5C527.5 1135.26 529.739 1137.5 532.5 1137.5L532.5 1140.5L532.088 1140.49C527.998 1140.28 524.718 1137 524.511 1132.91L524.5 1132.5V998.5C524.5 994.082 528.082 990.5 532.5 990.5H620.5C624.918 990.5 628.5 994.082 628.5 998.5V1132.5L628.489 1132.91C628.282 1137 625.002 1140.28 620.912 1140.49L620.5 1140.5V1137.5C623.261 1137.5 625.5 1135.26 625.5 1132.5Z" fill="#2E2F33" fill-opacity="0.88"/>
</g>
<g id="Vector_7">
<path d="M18.5 1188.5C18.5 1184.08 22.0817 1180.5 26.5 1180.5H76.5C80.9183 1180.5 84.5 1184.08 84.5 1188.5V1281.5C84.5 1285.92 80.9183 1289.5 76.5 1289.5H26.5C22.0817 1289.5 18.5 1285.92 18.5 1281.5V1188.5Z" fill="#474747"/>
<path d="M76.5 1286.5V1289.5H26.5V1286.5H76.5ZM81.5 1281.5V1188.5C81.5 1185.74 79.2614 1183.5 76.5 1183.5H26.5C23.7386 1183.5 21.5 1185.74 21.5 1188.5V1281.5C21.5 1284.26 23.7386 1286.5 26.5 1286.5V1289.5C22.0817 1289.5 18.5 1285.92 18.5 1281.5V1188.5C18.5 1184.08 22.0817 1180.5 26.5 1180.5H76.5L76.9121 1180.51C81.1389 1180.73 84.5 1184.22 84.5 1188.5V1281.5C84.5 1285.78 81.1389 1289.27 76.9121 1289.49L76.5 1289.5V1286.5C79.2614 1286.5 81.5 1284.26 81.5 1281.5Z" fill="#2E2F33" fill-opacity="0.88"/>
</g>
<g id="Vector_8">
<path d="M1093.5 1292.5C1093.5 1288.08 1097.08 1284.5 1101.5 1284.5H1200.5C1204.92 1284.5 1208.5 1288.08 1208.5 1292.5V1324.5C1208.5 1328.92 1204.92 1332.5 1200.5 1332.5H1101.5C1097.08 1332.5 1093.5 1328.92 1093.5 1324.5V1292.5Z" fill="#474747"/>
<path d="M1200.5 1329.5V1332.5H1101.5L1101.5 1329.5H1200.5ZM1205.5 1324.5V1292.5C1205.5 1289.74 1203.26 1287.5 1200.5 1287.5H1101.5C1098.74 1287.5 1096.5 1289.74 1096.5 1292.5V1324.5C1096.5 1327.26 1098.74 1329.5 1101.5 1329.5L1101.5 1332.5C1097.22 1332.5 1093.73 1329.14 1093.51 1324.91L1093.5 1324.5V1292.5C1093.5 1288.22 1096.86 1284.73 1101.09 1284.51L1101.5 1284.5H1200.5L1200.91 1284.51C1205.14 1284.73 1208.5 1288.22 1208.5 1292.5V1324.5L1208.49 1324.91C1208.27 1329.14 1204.78 1332.5 1200.5 1332.5V1329.5C1203.26 1329.5 1205.5 1327.26 1205.5 1324.5Z" fill="#2E2F33" fill-opacity="0.88"/>
</g>
<g id="changjo_hall_5f_toilet_left_disabled">
<path d="M1032 265C1032 260.582 1035.58 257 1040 257H1109C1113.42 257 1117 260.582 1117 265V296C1117 300.418 1113.42 304 1109 304H1040C1035.58 304 1032 300.418 1032 296V265Z" fill="#FED9C4"/>
<path d="M1109 301V304H1040L1040 301H1109ZM1114 296V265C1114 262.239 1111.76 260 1109 260H1040C1037.24 260 1035 262.239 1035 265V296C1035 298.761 1037.24 301 1040 301L1040 304L1039.59 303.989C1035.36 303.775 1032 300.28 1032 296V265C1032 260.582 1035.58 257 1040 257H1109C1113.42 257 1117 260.582 1117 265V296C1117 300.28 1113.64 303.775 1109.41 303.989L1109 304V301C1111.76 301 1114 298.761 1114 296Z" fill="#2E2F33" fill-opacity="0.88"/>
<path d="M1083.08 265.325H1066.92C1062.73 265.325 1059.33 268.728 1059.33 272.925V289.075C1059.33 293.272 1062.73 296.675 1066.92 296.675H1083.08C1087.27 296.675 1090.67 293.272 1090.67 289.075V272.925C1090.67 268.728 1087.27 265.325 1083.08 265.325Z" fill="#291F98"/>
<path d="M1079.97 274.967C1081.59 275.274 1082.99 273.879 1082.68 272.257C1082.51 271.357 1081.77 270.62 1080.87 270.449C1079.25 270.142 1077.85 271.537 1078.16 273.158C1078.33 274.058 1079.07 274.796 1079.97 274.966L1079.97 274.967Z" fill="white"/>
<path d="M1082 280.07H1077.06L1079.34 277.788C1079.97 277.163 1079.97 276.15 1079.34 275.526L1078.08 274.261C1078.05 274.232 1078.03 274.197 1078 274.171L1074.53 271.346C1074.31 271.167 1074 271.149 1073.76 271.303L1070.48 273.416C1070.08 273.674 1069.96 274.207 1070.22 274.607C1070.48 275.008 1071.01 275.123 1071.41 274.866L1074.05 273.172L1075.49 274.345L1072.47 277.363C1071.97 277.863 1071.87 278.609 1072.17 279.208C1069.1 279.581 1066.71 282.203 1066.71 285.377C1066.71 288.805 1069.5 291.595 1072.93 291.595C1076.35 291.595 1079.14 288.805 1079.14 285.377C1079.14 284.401 1078.91 283.48 1078.51 282.658H1080.52L1080 286.572C1079.91 287.279 1080.41 287.93 1081.11 288.024C1081.82 288.118 1082.47 287.621 1082.57 286.913L1083.28 281.536C1083.38 280.761 1082.78 280.072 1082 280.072L1082 280.07ZM1077.42 285.375C1077.42 287.853 1075.4 289.869 1072.93 289.869C1070.45 289.869 1068.43 287.853 1068.43 285.375C1068.43 282.896 1070.45 280.881 1072.93 280.881C1073.23 280.881 1073.53 280.914 1073.81 280.971C1074.28 281.064 1074.7 281.245 1075.11 281.469C1075.61 281.751 1076.05 282.123 1076.41 282.569C1076.43 282.599 1076.46 282.626 1076.48 282.656C1077.06 283.413 1077.42 284.349 1077.42 285.375Z" fill="white"/>
</g>
<g id="Vector_9">
<path d="M895.476 826.597C892.352 823.473 892.352 818.408 895.476 815.283L931.608 779.152C934.732 776.028 939.797 776.028 942.921 779.152L1034.56 870.787C1036.06 872.287 1038.09 873.13 1040.21 873.13H1201C1205.42 873.13 1209 876.711 1209 881.13L1209 957.658C1209 959.796 1208.15 961.846 1206.63 963.349L1083.34 1085.19C1081.84 1086.67 1079.82 1087.5 1077.72 1087.5H997.451C993.033 1087.5 989.451 1083.92 989.451 1079.5L989.454 923.889C989.454 921.767 988.611 919.732 987.111 918.232L895.476 826.597Z" fill="#474747"/>
<path d="M1032.43 872.907L940.8 781.273C938.848 779.32 935.682 779.32 933.729 781.273L897.598 817.404C895.645 819.357 895.645 822.523 897.598 824.475L989.232 916.11C991.295 918.173 992.453 920.971 992.453 923.889L992.451 1079.5C992.451 1082.26 994.69 1084.5 997.451 1084.5L1077.72 1084.5C1079.03 1084.5 1080.3 1083.98 1081.23 1083.06L1204.52 961.214L1206.63 963.349L1083.34 1085.19C1081.94 1086.58 1080.07 1087.39 1078.11 1087.49L1077.72 1087.5H997.451C993.171 1087.5 989.676 1084.14 989.461 1079.91L989.451 1079.5L989.454 923.889C989.454 921.899 988.713 919.986 987.384 918.519L987.111 918.232L895.476 826.597C892.449 823.57 892.355 818.722 895.192 815.582L895.476 815.283L931.608 779.152L931.906 778.868C935.046 776.031 939.895 776.125 942.921 779.152L1034.56 870.787L1034.84 871.06C1036.31 872.389 1038.22 873.13 1040.21 873.13H1201C1205.42 873.13 1209 876.711 1209 881.13L1209 957.658L1208.99 958.058C1208.89 960.05 1208.05 961.939 1206.63 963.349L1204.52 961.214C1205.47 960.275 1206 958.995 1206 957.659V881.13C1206 878.368 1203.77 876.129 1201 876.129L1040.21 876.129C1037.3 876.129 1034.5 874.97 1032.43 872.907Z" fill="#2E2F33" fill-opacity="0.88"/>
</g>
<g id="Vector_10">
<path d="M773.777 706.221C776.921 709.397 782.059 709.381 785.183 706.184L816.925 673.703C820.006 670.551 819.957 665.501 816.815 662.41L724.786 571.852C723.257 570.348 722.397 568.294 722.397 566.15L722.397 407.43C722.397 403.011 718.815 399.43 714.397 399.43L637.868 399.43C635.73 399.43 633.681 400.286 632.178 401.806L510.336 525.093C508.856 526.59 508.026 528.61 508.026 530.716L508.023 604.001C508.023 608.419 511.605 612.001 516.023 612.001L677.161 612.001C679.297 612.001 681.344 612.855 682.847 614.373L773.777 706.221Z" fill="#474747"/>
<path d="M816.925 673.703C820.006 670.551 819.957 665.501 816.815 662.41L724.786 571.852L724.507 571.564C723.153 570.091 722.397 568.16 722.397 566.15L722.397 407.43C722.397 403.011 718.815 399.43 714.397 399.43L637.868 399.43C635.73 399.43 633.681 400.286 632.178 401.806L634.312 403.916C635.251 402.965 636.532 402.429 637.868 402.429L714.397 402.429C717.158 402.43 719.397 404.668 719.397 407.43L719.397 566.15C719.397 569.098 720.58 571.923 722.681 573.991L814.711 664.548C816.674 666.48 816.705 669.636 814.78 671.606L783.038 704.086C781.085 706.084 777.874 706.095 775.908 704.11L684.978 612.263C682.912 610.176 680.098 609.002 677.161 609.002L516.023 609.001C513.262 609.001 511.023 606.763 511.023 604.001L511.027 530.715C511.027 529.4 511.546 528.137 512.47 527.201L634.312 403.916L632.178 401.806L510.336 525.093C508.949 526.496 508.133 528.36 508.036 530.322L508.026 530.716L508.023 604.001C508.023 608.281 511.385 611.777 515.612 611.991L516.023 612.001L677.161 612.001C679.164 612.001 681.088 612.752 682.559 614.097L682.847 614.373L773.777 706.221C776.921 709.397 782.059 709.381 785.183 706.184L816.925 673.703Z" fill="#2E2F33" fill-opacity="0.88"/>
</g>
<g id="changjo_hall_535">
<path d="M1180 352C1180 347.582 1183.58 344 1188 344H1325C1329.42 344 1333 347.582 1333 352V486C1333 490.418 1329.42 494 1325 494H1188C1183.58 494 1180 490.418 1180 486V352Z" fill="#F7FBFF"/>
<path d="M1325 491V494H1188L1188 491H1325ZM1330 486V352C1330 349.239 1327.76 347 1325 347H1188C1185.24 347 1183 349.239 1183 352V486C1183 488.761 1185.24 491 1188 491L1188 494L1187.59 493.989C1183.5 493.782 1180.22 490.502 1180.01 486.412L1180 486V352C1180 347.582 1183.58 344 1188 344H1325C1329.42 344 1333 347.582 1333 352V486L1332.99 486.412C1332.78 490.502 1329.5 493.782 1325.41 493.989L1325 494V491C1327.76 491 1330 488.761 1330 486Z" fill="#2E2F33" fill-opacity="0.88"/>
<path d="M1276.88 430.312C1272.34 430.312 1269.03 427.625 1268.91 423.875H1272.88C1273 425.719 1274.72 427.031 1276.88 427.031C1279.41 427.031 1281.22 425.188 1281.22 422.688C1281.22 420.094 1279.34 418.25 1276.75 418.25C1275 418.219 1273.72 418.844 1273 420.188H1269.22L1270.59 407.375H1283.97V410.781H1273.94L1273.25 416.781H1273.47C1274.34 415.781 1276 415.062 1277.84 415.062C1282.06 415.062 1285.16 418.219 1285.16 422.562C1285.16 427.094 1281.75 430.312 1276.88 430.312Z" fill="black"/>
<path d="M1256.84 430.312C1252 430.312 1248.56 427.688 1248.47 423.875H1252.56C1252.69 425.688 1254.5 426.875 1256.84 426.875C1259.34 426.875 1261.12 425.5 1261.12 423.5C1261.12 421.469 1259.38 420 1256.44 420H1254.41V416.875H1256.44C1258.84 416.875 1260.53 415.531 1260.5 413.562C1260.53 411.656 1259.09 410.375 1256.88 410.375C1254.75 410.375 1252.91 411.562 1252.84 413.469H1248.94C1249.03 409.656 1252.47 407.062 1256.91 407.062C1261.5 407.062 1264.47 409.875 1264.44 413.344C1264.47 415.875 1262.78 417.719 1260.31 418.219V418.406C1263.5 418.844 1265.31 420.875 1265.28 423.719C1265.31 427.531 1261.75 430.312 1256.84 430.312Z" fill="black"/>
<path d="M1236.91 430.312C1232.38 430.312 1229.06 427.625 1228.94 423.875H1232.91C1233.03 425.719 1234.75 427.031 1236.91 427.031C1239.44 427.031 1241.25 425.188 1241.25 422.688C1241.25 420.094 1239.38 418.25 1236.78 418.25C1235.03 418.219 1233.75 418.844 1233.03 420.188H1229.25L1230.62 407.375H1244V410.781H1233.97L1233.28 416.781H1233.5C1234.38 415.781 1236.03 415.062 1237.88 415.062C1242.09 415.062 1245.19 418.219 1245.19 422.562C1245.19 427.094 1241.78 430.312 1236.91 430.312Z" fill="black"/>
</g>
<g id="changjo_hall_515">
<path d="M1114 162C1114 157.582 1117.58 154 1122 154H1269C1273.42 154 1277 157.582 1277 162V296C1277 300.418 1273.42 304 1269 304H1122C1117.58 304 1114 300.418 1114 296V162Z" fill="#F7FBFF"/>
<path d="M1269 301V304H1122L1122 301H1269ZM1274 296V162C1274 159.239 1271.76 157 1269 157H1122C1119.24 157 1117 159.239 1117 162V296C1117 298.761 1119.24 301 1122 301L1122 304C1117.72 304 1114.23 300.639 1114.01 296.412L1114 296V162C1114 157.72 1117.36 154.225 1121.59 154.011L1122 154H1269L1269.41 154.011C1273.64 154.225 1277 157.72 1277 162V296L1276.99 296.412C1276.77 300.639 1273.28 304 1269 304V301C1271.76 301 1274 298.761 1274 296Z" fill="#2E2F33" fill-opacity="0.88"/>
<path d="M1212.34 240.312C1207.81 240.312 1204.5 237.625 1204.38 233.875H1208.34C1208.47 235.719 1210.19 237.031 1212.34 237.031C1214.88 237.031 1216.69 235.188 1216.69 232.688C1216.69 230.094 1214.81 228.25 1212.22 228.25C1210.47 228.219 1209.19 228.844 1208.47 230.188H1204.69L1206.06 217.375H1219.44V220.781H1209.41L1208.72 226.781H1208.94C1209.81 225.781 1211.47 225.062 1213.31 225.062C1217.53 225.062 1220.62 228.219 1220.62 232.562C1220.62 237.094 1217.22 240.312 1212.34 240.312Z" fill="black"/>
<path d="M1198.81 217.375V240H1194.72V221.344H1194.59L1189.31 224.719V221L1194.91 217.375H1198.81Z" fill="black"/>
<path d="M1177.91 240.312C1173.38 240.312 1170.06 237.625 1169.94 233.875H1173.91C1174.03 235.719 1175.75 237.031 1177.91 237.031C1180.44 237.031 1182.25 235.188 1182.25 232.688C1182.25 230.094 1180.38 228.25 1177.78 228.25C1176.03 228.219 1174.75 228.844 1174.03 230.188H1170.25L1171.62 217.375H1185V220.781H1174.97L1174.28 226.781H1174.5C1175.38 225.781 1177.03 225.062 1178.88 225.062C1183.09 225.062 1186.19 228.219 1186.19 232.562C1186.19 237.094 1182.78 240.312 1177.91 240.312Z" fill="black"/>
</g>
<g id="changjo_hall_518">
<path d="M1274 162C1274 157.582 1277.58 154 1282 154H1412C1416.42 154 1420 157.582 1420 162V296C1420 300.418 1416.42 304 1412 304H1282C1277.58 304 1274 300.418 1274 296V162Z" fill="#F7FBFF"/>
<path d="M1412 301V304H1282L1282 301H1412ZM1417 296V162C1417 159.239 1414.76 157 1412 157H1282C1279.24 157 1277 159.239 1277 162V296C1277 298.761 1279.24 301 1282 301L1282 304C1277.72 304 1274.23 300.639 1274.01 296.412L1274 296V162C1274 157.72 1277.36 154.225 1281.59 154.011L1282 154H1412L1412.41 154.011C1416.64 154.225 1420 157.72 1420 162V296L1419.99 296.412C1419.77 300.639 1416.28 304 1412 304V301C1414.76 301 1417 298.761 1417 296Z" fill="#2E2F33" fill-opacity="0.88"/>
<path d="M1364.53 240.312C1359.5 240.312 1355.94 237.625 1355.94 233.938C1355.94 231.062 1358.06 228.719 1360.78 228.281V228.156C1358.41 227.656 1356.78 225.594 1356.78 223.125C1356.78 219.625 1360.06 217.062 1364.53 217.062C1368.97 217.062 1372.25 219.625 1372.25 223.125C1372.25 225.594 1370.59 227.656 1368.25 228.156V228.281C1370.97 228.719 1373.12 231.062 1373.12 233.938C1373.12 237.625 1369.53 240.312 1364.53 240.312ZM1364.53 237.094C1367.19 237.094 1368.94 235.656 1368.94 233.562C1368.94 231.438 1367.06 229.875 1364.53 229.875C1361.97 229.875 1360.09 231.438 1360.12 233.562C1360.09 235.656 1361.84 237.094 1364.53 237.094ZM1364.53 226.844C1366.72 226.844 1368.28 225.469 1368.28 223.5C1368.28 221.594 1366.75 220.25 1364.53 220.25C1362.28 220.25 1360.75 221.562 1360.75 223.5C1360.75 225.469 1362.31 226.844 1364.53 226.844Z" fill="black"/>
<path d="M1350.81 217.375V240H1346.72V221.344H1346.59L1341.31 224.719V221L1346.91 217.375H1350.81Z" fill="black"/>
<path d="M1329.91 240.312C1325.38 240.312 1322.06 237.625 1321.94 233.875H1325.91C1326.03 235.719 1327.75 237.031 1329.91 237.031C1332.44 237.031 1334.25 235.188 1334.25 232.688C1334.25 230.094 1332.38 228.25 1329.78 228.25C1328.03 228.219 1326.75 228.844 1326.03 230.188H1322.25L1323.62 217.375H1337V220.781H1326.97L1326.28 226.781H1326.5C1327.38 225.781 1329.03 225.062 1330.88 225.062C1335.09 225.062 1338.19 228.219 1338.19 232.562C1338.19 237.094 1334.78 240.312 1329.91 240.312Z" fill="black"/>
</g>
<g id="changjo_hall_534">
<path d="M1331 351C1331 346.582 1334.58 343 1339 343H1402C1406.42 343 1410 346.582 1410 351V485C1410 489.418 1406.42 493 1402 493H1339C1334.58 493 1331 489.418 1331 485V351Z" fill="#F7FBFF"/>
<path d="M1402 490V493H1339L1339 490H1402ZM1407 485V351C1407 348.239 1404.76 346 1402 346H1339C1336.24 346 1334 348.239 1334 351V485C1334 487.761 1336.24 490 1339 490L1339 493C1334.72 493 1331.23 489.639 1331.01 485.412L1331 485V351C1331 346.582 1334.58 343 1339 343H1402L1402.41 343.011C1406.64 343.225 1410 346.72 1410 351V485L1409.99 485.412C1409.78 489.502 1406.5 492.782 1402.41 492.989L1402 493V490C1404.76 490 1407 487.761 1407 485Z" fill="#2E2F33" fill-opacity="0.88"/>
<path d="M1381.44 424.781V421.531L1391.22 406.375H1396.28V421.438H1399.25V424.781H1396.28V429H1392.41V424.781H1381.44ZM1385.59 421.438H1392.47V411H1392.22L1385.59 421.281V421.438Z" fill="black"/>
<path d="M1369.84 429.312C1365 429.312 1361.56 426.688 1361.47 422.875H1365.56C1365.69 424.688 1367.5 425.875 1369.84 425.875C1372.34 425.875 1374.12 424.5 1374.12 422.5C1374.12 420.469 1372.38 419 1369.44 419H1367.41V415.875H1369.44C1371.84 415.875 1373.53 414.531 1373.5 412.562C1373.53 410.656 1372.09 409.375 1369.88 409.375C1367.75 409.375 1365.91 410.562 1365.84 412.469H1361.94C1362.03 408.656 1365.47 406.062 1369.91 406.062C1374.5 406.062 1377.47 408.875 1377.44 412.344C1377.47 414.875 1375.78 416.719 1373.31 417.219V417.406C1376.5 417.844 1378.31 419.875 1378.28 422.719C1378.31 426.531 1374.75 429.312 1369.84 429.312Z" fill="black"/>
<path d="M1349.91 429.312C1345.38 429.312 1342.06 426.625 1341.94 422.875H1345.91C1346.03 424.719 1347.75 426.031 1349.91 426.031C1352.44 426.031 1354.25 424.188 1354.25 421.688C1354.25 419.094 1352.38 417.25 1349.78 417.25C1348.03 417.219 1346.75 417.844 1346.03 419.188H1342.25L1343.62 406.375H1357V409.781H1346.97L1346.28 415.781H1346.5C1347.38 414.781 1349.03 414.062 1350.88 414.062C1355.09 414.062 1358.19 417.219 1358.19 421.562C1358.19 426.094 1354.78 429.312 1349.91 429.312Z" fill="black"/>
</g>
<g id="changjo_hall_533">
<path d="M1407 351C1407 346.582 1410.58 343 1415 343H1478C1482.42 343 1486 346.582 1486 351V485C1486 489.418 1482.42 493 1478 493H1415C1410.58 493 1407 489.418 1407 485V351Z" fill="#F7FBFF"/>
<path d="M1478 490V493H1415L1415 490H1478ZM1483 485V351C1483 348.239 1480.76 346 1478 346H1415C1412.24 346 1410 348.239 1410 351V485C1410 487.761 1412.24 490 1415 490L1415 493C1410.72 493 1407.23 489.639 1407.01 485.412L1407 485V351C1407 346.582 1410.58 343 1415 343H1478L1478.41 343.011C1482.64 343.225 1486 346.72 1486 351V485L1485.99 485.412C1485.78 489.502 1482.5 492.782 1478.41 492.989L1478 493V490C1480.76 490 1483 487.761 1483 485Z" fill="#2E2F33" fill-opacity="0.88"/>
<path d="M1466.06 429.312C1461.22 429.312 1457.78 426.688 1457.69 422.875H1461.78C1461.91 424.688 1463.72 425.875 1466.06 425.875C1468.56 425.875 1470.34 424.5 1470.34 422.5C1470.34 420.469 1468.59 419 1465.66 419H1463.62V415.875H1465.66C1468.06 415.875 1469.75 414.531 1469.72 412.562C1469.75 410.656 1468.31 409.375 1466.09 409.375C1463.97 409.375 1462.12 410.562 1462.06 412.469H1458.16C1458.25 408.656 1461.69 406.062 1466.12 406.062C1470.72 406.062 1473.69 408.875 1473.66 412.344C1473.69 414.875 1472 416.719 1469.53 417.219V417.406C1472.72 417.844 1474.53 419.875 1474.5 422.719C1474.53 426.531 1470.97 429.312 1466.06 429.312Z" fill="black"/>
<path d="M1445.84 429.312C1441 429.312 1437.56 426.688 1437.47 422.875H1441.56C1441.69 424.688 1443.5 425.875 1445.84 425.875C1448.34 425.875 1450.12 424.5 1450.12 422.5C1450.12 420.469 1448.38 419 1445.44 419H1443.41V415.875H1445.44C1447.84 415.875 1449.53 414.531 1449.5 412.562C1449.53 410.656 1448.09 409.375 1445.88 409.375C1443.75 409.375 1441.91 410.562 1441.84 412.469H1437.94C1438.03 408.656 1441.47 406.062 1445.91 406.062C1450.5 406.062 1453.47 408.875 1453.44 412.344C1453.47 414.875 1451.78 416.719 1449.31 417.219V417.406C1452.5 417.844 1454.31 419.875 1454.28 422.719C1454.31 426.531 1450.75 429.312 1445.84 429.312Z" fill="black"/>
<path d="M1425.91 429.312C1421.38 429.312 1418.06 426.625 1417.94 422.875H1421.91C1422.03 424.719 1423.75 426.031 1425.91 426.031C1428.44 426.031 1430.25 424.188 1430.25 421.688C1430.25 419.094 1428.38 417.25 1425.78 417.25C1424.03 417.219 1422.75 417.844 1422.03 419.188H1418.25L1419.62 406.375H1433V409.781H1422.97L1422.28 415.781H1422.5C1423.38 414.781 1425.03 414.062 1426.88 414.062C1431.09 414.062 1434.19 417.219 1434.19 421.562C1434.19 426.094 1430.78 429.312 1425.91 429.312Z" fill="black"/>
</g>
<g id="changjo_hall_520">
<path d="M1417 162C1417 157.582 1420.58 154 1425 154H1486C1490.42 154 1494 157.582 1494 162V296C1494 300.418 1490.42 304 1486 304H1425C1420.58 304 1417 300.418 1417 296V162Z" fill="#F7FBFF"/>
<path d="M1486 301V304H1425L1425 301H1486ZM1491 296V162C1491 159.239 1488.76 157 1486 157H1425C1422.24 157 1420 159.239 1420 162V296C1420 298.761 1422.24 301 1425 301L1425 304L1424.59 303.989C1420.5 303.782 1417.22 300.502 1417.01 296.412L1417 296V162C1417 157.72 1420.36 154.225 1424.59 154.011L1425 154H1486C1490.42 154 1494 157.582 1494 162V296L1493.99 296.412C1493.77 300.639 1490.28 304 1486 304V301C1488.76 301 1491 298.761 1491 296Z" fill="#2E2F33" fill-opacity="0.88"/>
<path d="M1475.25 240.312C1469.81 240.312 1466.56 236.094 1466.56 228.688C1466.56 221.312 1469.81 217.062 1475.25 217.062C1480.66 217.062 1483.94 221.312 1483.94 228.688C1483.94 236.094 1480.69 240.312 1475.25 240.312ZM1475.25 236.906C1478.09 236.906 1479.84 234.125 1479.84 228.688C1479.84 223.281 1478.06 220.438 1475.25 220.438C1472.44 220.438 1470.66 223.281 1470.66 228.688C1470.66 234.125 1472.41 236.906 1475.25 236.906Z" fill="black"/>
<path d="M1447.62 240V237.062L1455.62 229.344C1457.91 227.062 1459.09 225.719 1459.09 223.812C1459.09 221.719 1457.44 220.375 1455.22 220.375C1452.87 220.375 1451.37 221.844 1451.41 224.125H1447.53C1447.5 219.844 1450.72 217.062 1455.25 217.062C1459.87 217.062 1463 219.812 1463 223.625C1463 226.188 1461.75 228.25 1457.31 232.438L1453.28 236.438V236.594H1463.34V240H1447.62Z" fill="black"/>
<path d="M1435.91 240.312C1431.38 240.312 1428.06 237.625 1427.94 233.875H1431.91C1432.03 235.719 1433.75 237.031 1435.91 237.031C1438.44 237.031 1440.25 235.188 1440.25 232.688C1440.25 230.094 1438.38 228.25 1435.78 228.25C1434.03 228.219 1432.75 228.844 1432.03 230.188H1428.25L1429.62 217.375H1443V220.781H1432.97L1432.28 226.781H1432.5C1433.38 225.781 1435.03 225.062 1436.88 225.062C1441.09 225.062 1444.19 228.219 1444.19 232.562C1444.19 237.094 1440.78 240.312 1435.91 240.312Z" fill="black"/>
</g>
<g id="changjo_hall_521">
<path d="M1491 162C1491 157.582 1494.58 154 1499 154H1660C1664.42 154 1668 157.582 1668 162V296C1668 300.418 1664.42 304 1660 304H1499C1494.58 304 1491 300.418 1491 296V162Z" fill="#F7FBFF"/>
<path d="M1660 301V304H1499L1499 301H1660ZM1665 296V162C1665 159.239 1662.76 157 1660 157H1499C1496.24 157 1494 159.239 1494 162V296C1494 298.761 1496.24 301 1499 301L1499 304L1498.59 303.989C1494.5 303.782 1491.22 300.502 1491.01 296.412L1491 296V162C1491 157.582 1494.58 154 1499 154H1660C1664.42 154 1668 157.582 1668 162V296L1667.99 296.412C1667.78 300.502 1664.5 303.782 1660.41 303.989L1660 304V301C1662.76 301 1665 298.761 1665 296Z" fill="#2E2F33" fill-opacity="0.88"/>
<path d="M1603.09 217.375V240H1599V221.344H1598.88L1593.59 224.719V221L1599.19 217.375H1603.09Z" fill="black"/>
<path d="M1574.62 240V237.062L1582.62 229.344C1584.91 227.062 1586.09 225.719 1586.09 223.812C1586.09 221.719 1584.44 220.375 1582.22 220.375C1579.87 220.375 1578.37 221.844 1578.41 224.125H1574.53C1574.5 219.844 1577.72 217.062 1582.25 217.062C1586.87 217.062 1590 219.812 1590 223.625C1590 226.188 1588.75 228.25 1584.31 232.438L1580.28 236.438V236.594H1590.34V240H1574.62Z" fill="black"/>
<path d="M1562.91 240.312C1558.38 240.312 1555.06 237.625 1554.94 233.875H1558.91C1559.03 235.719 1560.75 237.031 1562.91 237.031C1565.44 237.031 1567.25 235.188 1567.25 232.688C1567.25 230.094 1565.38 228.25 1562.78 228.25C1561.03 228.219 1559.75 228.844 1559.03 230.188H1555.25L1556.62 217.375H1570V220.781H1559.97L1559.28 226.781H1559.5C1560.38 225.781 1562.03 225.062 1563.88 225.062C1568.09 225.062 1571.19 228.219 1571.19 232.562C1571.19 237.094 1567.78 240.312 1562.91 240.312Z" fill="black"/>
</g>
<g id="changjo_hall_532">
<path d="M1484 351C1484 346.582 1487.58 343 1492 343H1555C1559.42 343 1563 346.582 1563 351V485C1563 489.418 1559.42 493 1555 493H1492C1487.58 493 1484 489.418 1484 485V351Z" fill="#F7FBFF"/>
<path d="M1555 490V493H1492L1492 490H1555ZM1560 485V351C1560 348.239 1557.76 346 1555 346H1492C1489.24 346 1487 348.239 1487 351V485C1487 487.761 1489.24 490 1492 490L1492 493C1487.72 493 1484.23 489.639 1484.01 485.412L1484 485V351C1484 346.582 1487.58 343 1492 343H1555L1555.41 343.011C1559.64 343.225 1563 346.72 1563 351V485L1562.99 485.412C1562.78 489.502 1559.5 492.782 1555.41 492.989L1555 493V490C1557.76 490 1560 487.761 1560 485Z" fill="#2E2F33" fill-opacity="0.88"/>
<path d="M1534.84 429V426.062L1542.84 418.344C1545.12 416.062 1546.31 414.719 1546.31 412.812C1546.31 410.719 1544.66 409.375 1542.44 409.375C1540.09 409.375 1538.59 410.844 1538.62 413.125H1534.75C1534.72 408.844 1537.94 406.062 1542.47 406.062C1547.09 406.062 1550.22 408.812 1550.22 412.625C1550.22 415.188 1548.97 417.25 1544.53 421.438L1540.5 425.438V425.594H1550.56V429H1534.84Z" fill="black"/>
<path d="M1522.84 429.312C1518 429.312 1514.56 426.688 1514.47 422.875H1518.56C1518.69 424.688 1520.5 425.875 1522.84 425.875C1525.34 425.875 1527.12 424.5 1527.12 422.5C1527.12 420.469 1525.38 419 1522.44 419H1520.41V415.875H1522.44C1524.84 415.875 1526.53 414.531 1526.5 412.562C1526.53 410.656 1525.09 409.375 1522.88 409.375C1520.75 409.375 1518.91 410.562 1518.84 412.469H1514.94C1515.03 408.656 1518.47 406.062 1522.91 406.062C1527.5 406.062 1530.47 408.875 1530.44 412.344C1530.47 414.875 1528.78 416.719 1526.31 417.219V417.406C1529.5 417.844 1531.31 419.875 1531.28 422.719C1531.31 426.531 1527.75 429.312 1522.84 429.312Z" fill="black"/>
<path d="M1502.91 429.312C1498.38 429.312 1495.06 426.625 1494.94 422.875H1498.91C1499.03 424.719 1500.75 426.031 1502.91 426.031C1505.44 426.031 1507.25 424.188 1507.25 421.688C1507.25 419.094 1505.38 417.25 1502.78 417.25C1501.03 417.219 1499.75 417.844 1499.03 419.188H1495.25L1496.62 406.375H1510V409.781H1499.97L1499.28 415.781H1499.5C1500.38 414.781 1502.03 414.062 1503.88 414.062C1508.09 414.062 1511.19 417.219 1511.19 421.562C1511.19 426.094 1507.78 429.312 1502.91 429.312Z" fill="black"/>
</g>
<g id="changjo_hall_531">
<path d="M1560 351C1560 346.582 1563.58 343 1568 343H1631C1635.42 343 1639 346.582 1639 351V485C1639 489.418 1635.42 493 1631 493H1568C1563.58 493 1560 489.418 1560 485V351Z" fill="#F7FBFF"/>
<path d="M1631 490V493H1568L1568 490H1631ZM1636 485V351C1636 348.239 1633.76 346 1631 346H1568C1565.24 346 1563 348.239 1563 351V485C1563 487.761 1565.24 490 1568 490L1568 493C1563.72 493 1560.23 489.639 1560.01 485.412L1560 485V351C1560 346.582 1563.58 343 1568 343H1631L1631.41 343.011C1635.64 343.225 1639 346.72 1639 351V485L1638.99 485.412C1638.78 489.502 1635.5 492.782 1631.41 492.989L1631 493V490C1633.76 490 1636 487.761 1636 485Z" fill="#2E2F33" fill-opacity="0.88"/>
<path d="M1623.03 406.375V429H1618.94V410.344H1618.81L1613.53 413.719V410L1619.12 406.375H1623.03Z" fill="black"/>
<path d="M1601.84 429.312C1597 429.312 1593.56 426.688 1593.47 422.875H1597.56C1597.69 424.688 1599.5 425.875 1601.84 425.875C1604.34 425.875 1606.12 424.5 1606.12 422.5C1606.12 420.469 1604.38 419 1601.44 419H1599.41V415.875H1601.44C1603.84 415.875 1605.53 414.531 1605.5 412.562C1605.53 410.656 1604.09 409.375 1601.88 409.375C1599.75 409.375 1597.91 410.562 1597.84 412.469H1593.94C1594.03 408.656 1597.47 406.062 1601.91 406.062C1606.5 406.062 1609.47 408.875 1609.44 412.344C1609.47 414.875 1607.78 416.719 1605.31 417.219V417.406C1608.5 417.844 1610.31 419.875 1610.28 422.719C1610.31 426.531 1606.75 429.312 1601.84 429.312Z" fill="black"/>
<path d="M1581.91 429.312C1577.38 429.312 1574.06 426.625 1573.94 422.875H1577.91C1578.03 424.719 1579.75 426.031 1581.91 426.031C1584.44 426.031 1586.25 424.188 1586.25 421.688C1586.25 419.094 1584.38 417.25 1581.78 417.25C1580.03 417.219 1578.75 417.844 1578.03 419.188H1574.25L1575.62 406.375H1589V409.781H1578.97L1578.28 415.781H1578.5C1579.38 414.781 1581.03 414.062 1582.88 414.062C1587.09 414.062 1590.19 417.219 1590.19 421.562C1590.19 426.094 1586.78 429.312 1581.91 429.312Z" fill="black"/>
</g>
<g id="changjo_hall_530">
<path d="M1636 351C1636 346.582 1639.58 343 1644 343H1705C1709.42 343 1713 346.582 1713 351V485C1713 489.418 1709.42 493 1705 493H1644C1639.58 493 1636 489.418 1636 485V351Z" fill="#F7FBFF"/>
<path d="M1705 490V493H1644L1644 490H1705ZM1710 485V351C1710 348.239 1707.76 346 1705 346H1644C1641.24 346 1639 348.239 1639 351V485C1639 487.761 1641.24 490 1644 490L1644 493L1643.59 492.989C1639.5 492.782 1636.22 489.502 1636.01 485.412L1636 485V351C1636 346.72 1639.36 343.225 1643.59 343.011L1644 343H1705C1709.42 343 1713 346.582 1713 351V485L1712.99 485.412C1712.77 489.639 1709.28 493 1705 493V490C1707.76 490 1710 487.761 1710 485Z" fill="#2E2F33" fill-opacity="0.88"/>
<path d="M1694.19 429.312C1688.75 429.312 1685.5 425.094 1685.5 417.688C1685.5 410.312 1688.75 406.062 1694.19 406.062C1699.59 406.062 1702.88 410.312 1702.88 417.688C1702.88 425.094 1699.62 429.312 1694.19 429.312ZM1694.19 425.906C1697.03 425.906 1698.78 423.125 1698.78 417.688C1698.78 412.281 1697 409.438 1694.19 409.438C1691.38 409.438 1689.59 412.281 1689.59 417.688C1689.59 423.125 1691.34 425.906 1694.19 425.906Z" fill="black"/>
<path d="M1673.84 429.312C1669 429.312 1665.56 426.688 1665.47 422.875H1669.56C1669.69 424.688 1671.5 425.875 1673.84 425.875C1676.34 425.875 1678.12 424.5 1678.12 422.5C1678.12 420.469 1676.38 419 1673.44 419H1671.41V415.875H1673.44C1675.84 415.875 1677.53 414.531 1677.5 412.562C1677.53 410.656 1676.09 409.375 1673.88 409.375C1671.75 409.375 1669.91 410.562 1669.84 412.469H1665.94C1666.03 408.656 1669.47 406.062 1673.91 406.062C1678.5 406.062 1681.47 408.875 1681.44 412.344C1681.47 414.875 1679.78 416.719 1677.31 417.219V417.406C1680.5 417.844 1682.31 419.875 1682.28 422.719C1682.31 426.531 1678.75 429.312 1673.84 429.312Z" fill="black"/>
<path d="M1653.91 429.312C1649.38 429.312 1646.06 426.625 1645.94 422.875H1649.91C1650.03 424.719 1651.75 426.031 1653.91 426.031C1656.44 426.031 1658.25 424.188 1658.25 421.688C1658.25 419.094 1656.38 417.25 1653.78 417.25C1652.03 417.219 1650.75 417.844 1650.03 419.188H1646.25L1647.62 406.375H1661V409.781H1650.97L1650.28 415.781H1650.5C1651.38 414.781 1653.03 414.062 1654.88 414.062C1659.09 414.062 1662.19 417.219 1662.19 421.562C1662.19 426.094 1658.78 429.312 1653.91 429.312Z" fill="black"/>
</g>
<g id="changjo_hall_521-1">
<path d="M1666 162C1666 157.582 1669.58 154 1674 154H1777C1781.42 154 1785 157.582 1785 162V296C1785 300.418 1781.42 304 1777 304H1674C1669.58 304 1666 300.418 1666 296V162Z" fill="#F7FBFF"/>
<path d="M1777 301V304H1674L1674 301H1777ZM1782 296V162C1782 159.239 1779.76 157 1777 157H1674C1671.24 157 1669 159.239 1669 162V296C1669 298.761 1671.24 301 1674 301L1674 304L1673.59 303.989C1669.5 303.782 1666.22 300.502 1666.01 296.412L1666 296V162C1666 157.582 1669.58 154 1674 154H1777C1781.42 154 1785 157.582 1785 162V296L1784.99 296.412C1784.78 300.502 1781.5 303.782 1777.41 303.989L1777 304V301C1779.76 301 1782 298.761 1782 296Z" fill="#2E2F33" fill-opacity="0.88"/>
<path d="M1762.97 217.375V240H1758.88V221.344H1758.75L1753.47 224.719V221L1759.06 217.375H1762.97Z" fill="black"/>
<path d="M1749.91 227.062V230.344H1739.72V227.062H1749.91Z" fill="black"/>
<path d="M1734.09 217.375V240H1730V221.344H1729.88L1724.59 224.719V221L1730.19 217.375H1734.09Z" fill="black"/>
<path d="M1705.62 240V237.062L1713.62 229.344C1715.91 227.062 1717.09 225.719 1717.09 223.812C1717.09 221.719 1715.44 220.375 1713.22 220.375C1710.87 220.375 1709.37 221.844 1709.41 224.125H1705.53C1705.5 219.844 1708.72 217.062 1713.25 217.062C1717.87 217.062 1721 219.812 1721 223.625C1721 226.188 1719.75 228.25 1715.31 232.438L1711.28 236.438V236.594H1721.34V240H1705.62Z" fill="black"/>
<path d="M1693.91 240.312C1689.38 240.312 1686.06 237.625 1685.94 233.875H1689.91C1690.03 235.719 1691.75 237.031 1693.91 237.031C1696.44 237.031 1698.25 235.188 1698.25 232.688C1698.25 230.094 1696.38 228.25 1693.78 228.25C1692.03 228.219 1690.75 228.844 1690.03 230.188H1686.25L1687.62 217.375H1701V220.781H1690.97L1690.28 226.781H1690.5C1691.38 225.781 1693.03 225.062 1694.88 225.062C1699.09 225.062 1702.19 228.219 1702.19 232.562C1702.19 237.094 1698.78 240.312 1693.91 240.312Z" fill="black"/>
</g>
<g id="changjo_hall_524">
<path d="M1782 162C1782 157.582 1785.58 154 1790 154H2002C2006.42 154 2010 157.582 2010 162V296C2010 300.418 2006.42 304 2002 304H1790C1785.58 304 1782 300.418 1782 296V162Z" fill="#F7FBFF"/>
<path d="M2002 301V304H1790L1790 301H2002ZM2007 296V162C2007 159.239 2004.76 157 2002 157H1790C1787.24 157 1785 159.239 1785 162V296C1785 298.761 1787.24 301 1790 301L1790 304L1789.59 303.989C1785.5 303.782 1782.22 300.502 1782.01 296.412L1782 296V162C1782 157.582 1785.58 154 1790 154H2002C2006.42 154 2010 157.582 2010 162V296L2009.99 296.412C2009.78 300.502 2006.5 303.782 2002.41 303.989L2002 304V301C2004.76 301 2007 298.761 2007 296Z" fill="#2E2F33" fill-opacity="0.88"/>
<path d="M1906 235.781V232.531L1915.78 217.375H1920.84V232.438H1923.81V235.781H1920.84V240H1916.97V235.781H1906ZM1910.16 232.438H1917.03V222H1916.78L1910.16 232.281V232.438Z" fill="black"/>
<path d="M1887.62 240V237.062L1895.62 229.344C1897.91 227.062 1899.09 225.719 1899.09 223.812C1899.09 221.719 1897.44 220.375 1895.22 220.375C1892.87 220.375 1891.37 221.844 1891.41 224.125H1887.53C1887.5 219.844 1890.72 217.062 1895.25 217.062C1899.87 217.062 1903 219.812 1903 223.625C1903 226.188 1901.75 228.25 1897.31 232.438L1893.28 236.438V236.594H1903.34V240H1887.62Z" fill="black"/>
<path d="M1875.91 240.312C1871.38 240.312 1868.06 237.625 1867.94 233.875H1871.91C1872.03 235.719 1873.75 237.031 1875.91 237.031C1878.44 237.031 1880.25 235.188 1880.25 232.688C1880.25 230.094 1878.38 228.25 1875.78 228.25C1874.03 228.219 1872.75 228.844 1872.03 230.188H1868.25L1869.62 217.375H1883V220.781H1872.97L1872.28 226.781H1872.5C1873.38 225.781 1875.03 225.062 1876.88 225.062C1881.09 225.062 1884.19 228.219 1884.19 232.562C1884.19 237.094 1880.78 240.312 1875.91 240.312Z" fill="black"/>
</g>
<g id="changjo_hall_527">
<path d="M1764 351C1764 346.582 1767.58 343 1772 343H2002C2006.42 343 2010 346.582 2010 351V485C2010 489.418 2006.42 493 2002 493H1772C1767.58 493 1764 489.418 1764 485V351Z" fill="#F7FBFF"/>
<path d="M2002 490V493H1772L1772 490H2002ZM2007 485V351C2007 348.239 2004.76 346 2002 346H1772C1769.24 346 1767 348.239 1767 351V485C1767 487.761 1769.24 490 1772 490L1772 493C1767.72 493 1764.23 489.639 1764.01 485.412L1764 485V351C1764 346.72 1767.36 343.225 1771.59 343.011L1772 343H2002L2002.41 343.011C2006.64 343.225 2010 346.72 2010 351V485L2009.99 485.412C2009.77 489.639 2006.28 493 2002 493V490C2004.76 490 2007 487.761 2007 485Z" fill="#2E2F33" fill-opacity="0.88"/>
<path d="M1899.75 429L1909.56 409.938V409.781H1898.19V406.375H1913.78V409.844L1903.97 429H1899.75Z" fill="black"/>
<path d="M1879.62 429V426.062L1887.62 418.344C1889.91 416.062 1891.09 414.719 1891.09 412.812C1891.09 410.719 1889.44 409.375 1887.22 409.375C1884.87 409.375 1883.37 410.844 1883.41 413.125H1879.53C1879.5 408.844 1882.72 406.062 1887.25 406.062C1891.87 406.062 1895 408.812 1895 412.625C1895 415.188 1893.75 417.25 1889.31 421.438L1885.28 425.438V425.594H1895.34V429H1879.62Z" fill="black"/>
<path d="M1867.91 429.312C1863.38 429.312 1860.06 426.625 1859.94 422.875H1863.91C1864.03 424.719 1865.75 426.031 1867.91 426.031C1870.44 426.031 1872.25 424.188 1872.25 421.688C1872.25 419.094 1870.38 417.25 1867.78 417.25C1866.03 417.219 1864.75 417.844 1864.03 419.188H1860.25L1861.62 406.375H1875V409.781H1864.97L1864.28 415.781H1864.5C1865.38 414.781 1867.03 414.062 1868.88 414.062C1873.09 414.062 1876.19 417.219 1876.19 421.562C1876.19 426.094 1872.78 429.312 1867.91 429.312Z" fill="black"/>
</g>
<g id="changjo_hall_506">
<path d="M736 162C736 157.582 739.582 154 744 154H877C881.418 154 885 157.582 885 162V257C885 261.418 881.418 265 877 265H744C739.582 265 736 261.418 736 257V162Z" fill="#F7FBFF"/>
<path d="M877 262V265H744L744 262H877ZM882 257V162C882 159.239 879.761 157 877 157H744C741.239 157 739 159.239 739 162V257C739 259.761 741.239 262 744 262L744 265L743.588 264.989C739.498 264.782 736.218 261.502 736.011 257.412L736 257V162C736 157.582 739.582 154 744 154H877C881.418 154 885 157.582 885 162V257L884.989 257.412C884.782 261.502 881.502 264.782 877.412 264.989L877 265V262C879.761 262 882 259.761 882 257Z" fill="#2E2F33" fill-opacity="0.88"/>
<path d="M830.531 220.312C826.125 220.281 821.687 217.656 821.719 209.312C821.719 201.562 825.25 197.062 830.781 197.062C835.156 197.062 838.156 199.812 838.656 203.469H834.625C834.219 201.75 832.844 200.594 830.781 200.594C827.5 200.594 825.656 203.5 825.656 208.25H825.875C827.031 206.312 829.219 205.156 831.687 205.156C835.75 205.156 838.875 208.219 838.875 212.5C838.875 217 835.531 220.344 830.531 220.312ZM830.531 217.031C833.062 217.031 834.937 215.062 834.937 212.594C834.937 210.188 833.094 208.25 830.594 208.25C828.062 208.25 826.125 210.25 826.094 212.625C826.125 215 827.969 217.031 830.531 217.031Z" fill="black"/>
<path d="M809.969 220.312C804.531 220.312 801.281 216.094 801.281 208.688C801.281 201.312 804.531 197.062 809.969 197.062C815.375 197.062 818.656 201.312 818.656 208.688C818.656 216.094 815.406 220.312 809.969 220.312ZM809.969 216.906C812.812 216.906 814.562 214.125 814.562 208.688C814.562 203.281 812.781 200.438 809.969 200.438C807.156 200.438 805.375 203.281 805.375 208.688C805.375 214.125 807.125 216.906 809.969 216.906Z" fill="black"/>
<path d="M789.906 220.312C785.375 220.312 782.062 217.625 781.938 213.875H785.906C786.031 215.719 787.75 217.031 789.906 217.031C792.438 217.031 794.25 215.188 794.25 212.688C794.25 210.094 792.375 208.25 789.781 208.25C788.031 208.219 786.75 208.844 786.031 210.188H782.25L783.625 197.375H797V200.781H786.969L786.281 206.781H786.5C787.375 205.781 789.031 205.062 790.875 205.062C795.094 205.062 798.188 208.219 798.188 212.562C798.188 217.094 794.781 220.312 789.906 220.312Z" fill="black"/>
</g>
<g id="changjo_hall_508">
<path d="M656 15C656 10.5817 659.582 7 664 7H879C883.418 7 887 10.5817 887 15V106C887 110.418 883.418 114 879 114H664C659.582 114 656 110.418 656 106V15Z" fill="#F7FBFF"/>
<path d="M879 111V114H664L664 111H879ZM884 106V15C884 12.2386 881.761 10 879 10H664C661.239 10 659 12.2386 659 15V106C659 108.761 661.239 111 664 111L664 114L663.588 113.989C659.361 113.775 656 110.28 656 106V15C656 10.7199 659.361 7.22523 663.588 7.01074L664 7H879C883.418 7 887 10.5817 887 15V106C887 110.418 883.418 114 879 114V111C881.761 111 884 108.761 884 106Z" fill="#2E2F33" fill-opacity="0.88"/>
<path d="M791.281 71.3125C786.25 71.3125 782.688 68.625 782.688 64.9375C782.688 62.0625 784.812 59.7188 787.531 59.2812V59.1562C785.156 58.6562 783.531 56.5938 783.531 54.125C783.531 50.625 786.812 48.0625 791.281 48.0625C795.719 48.0625 799 50.625 799 54.125C799 56.5938 797.344 58.6562 795 59.1562V59.2812C797.719 59.7188 799.875 62.0625 799.875 64.9375C799.875 68.625 796.281 71.3125 791.281 71.3125ZM791.281 68.0938C793.938 68.0938 795.688 66.6562 795.688 64.5625C795.688 62.4375 793.812 60.875 791.281 60.875C788.719 60.875 786.844 62.4375 786.875 64.5625C786.844 66.6562 788.594 68.0938 791.281 68.0938ZM791.281 57.8438C793.469 57.8438 795.031 56.4688 795.031 54.5C795.031 52.5938 793.5 51.25 791.281 51.25C789.031 51.25 787.5 52.5625 787.5 54.5C787.5 56.4688 789.062 57.8438 791.281 57.8438Z" fill="black"/>
<path d="M770.969 71.3125C765.531 71.3125 762.281 67.0938 762.281 59.6875C762.281 52.3125 765.531 48.0625 770.969 48.0625C776.375 48.0625 779.656 52.3125 779.656 59.6875C779.656 67.0938 776.406 71.3125 770.969 71.3125ZM770.969 67.9062C773.812 67.9062 775.562 65.125 775.562 59.6875C775.562 54.2812 773.781 51.4375 770.969 51.4375C768.156 51.4375 766.375 54.2812 766.375 59.6875C766.375 65.125 768.125 67.9062 770.969 67.9062Z" fill="black"/>
<path d="M750.906 71.3125C746.375 71.3125 743.062 68.625 742.938 64.875H746.906C747.031 66.7188 748.75 68.0312 750.906 68.0312C753.438 68.0312 755.25 66.1875 755.25 63.6875C755.25 61.0938 753.375 59.25 750.781 59.25C749.031 59.2188 747.75 59.8438 747.031 61.1875H743.25L744.625 48.375H758V51.7812H747.969L747.281 57.7812H747.5C748.375 56.7812 750.031 56.0625 751.875 56.0625C756.094 56.0625 759.188 59.2188 759.188 63.5625C759.188 68.0938 755.781 71.3125 750.906 71.3125Z" fill="black"/>
</g>
<g id="changjo_hall_511">
<path d="M884 14C884 9.58172 887.582 6 892 6H1030C1034.42 6 1038 9.58172 1038 14V105C1038 109.418 1034.42 113 1030 113H892C887.582 113 884 109.418 884 105V14Z" fill="#F7FBFF"/>
<path d="M1030 110V113H892L892 110H1030ZM1035 105V14C1035 11.3247 1032.9 9.14053 1030.26 9.00684L1030 9H892C889.239 9 887 11.2386 887 14V105C887 107.761 889.239 110 892 110L892 113C887.582 113 884 109.418 884 105V14C884 9.71994 887.361 6.22523 891.588 6.01074L892 6H1030L1030.41 6.01074C1034.64 6.22523 1038 9.71994 1038 14V105C1038 109.418 1034.42 113 1030 113V110C1032.76 110 1035 107.761 1035 105Z" fill="#2E2F33" fill-opacity="0.88"/>
<path d="M981.5 47.375V70H977.406V51.3438H977.281L972 54.7188V51L977.594 47.375H981.5Z" fill="black"/>
<path d="M966.812 47.375V70H962.719V51.3438H962.594L957.312 54.7188V51L962.906 47.375H966.812Z" fill="black"/>
<path d="M945.906 70.3125C941.375 70.3125 938.062 67.625 937.938 63.875H941.906C942.031 65.7188 943.75 67.0312 945.906 67.0312C948.438 67.0312 950.25 65.1875 950.25 62.6875C950.25 60.0938 948.375 58.25 945.781 58.25C944.031 58.2188 942.75 58.8438 942.031 60.1875H938.25L939.625 47.375H953V50.7812H942.969L942.281 56.7812H942.5C943.375 55.7812 945.031 55.0625 946.875 55.0625C951.094 55.0625 954.188 58.2188 954.188 62.5625C954.188 67.0938 950.781 70.3125 945.906 70.3125Z" fill="black"/>
</g>
<g id="changjo_hall_513">
<path d="M1035 13C1035 8.58172 1038.58 5 1043 5H1103C1107.42 5 1111 8.58172 1111 13V104C1111 108.418 1107.42 112 1103 112H1043C1038.58 112 1035 108.418 1035 104V13Z" fill="#F7FBFF"/>
<path d="M1103 109V112H1043L1043 109H1103ZM1108 104V13C1108 10.2386 1105.76 8 1103 8H1043C1040.24 8 1038 10.2386 1038 13V104C1038 106.761 1040.24 109 1043 109L1043 112C1038.58 112 1035 108.418 1035 104V13C1035 8.58172 1038.58 5 1043 5H1103L1103.41 5.01074C1107.64 5.22523 1111 8.71994 1111 13V104C1111 108.28 1107.64 111.775 1103.41 111.989L1103 112V109C1105.76 109 1108 106.761 1108 104Z" fill="#2E2F33" fill-opacity="0.88"/>
<path d="M1090.53 70.3125C1085.69 70.3125 1082.25 67.6875 1082.16 63.875H1086.25C1086.38 65.6875 1088.19 66.875 1090.53 66.875C1093.03 66.875 1094.81 65.5 1094.81 63.5C1094.81 61.4688 1093.06 60 1090.12 60H1088.09V56.875H1090.12C1092.53 56.875 1094.22 55.5312 1094.19 53.5625C1094.22 51.6562 1092.78 50.375 1090.56 50.375C1088.44 50.375 1086.59 51.5625 1086.53 53.4688H1082.62C1082.72 49.6562 1086.16 47.0625 1090.59 47.0625C1095.19 47.0625 1098.16 49.875 1098.12 53.3438C1098.16 55.875 1096.47 57.7188 1094 58.2188V58.4062C1097.19 58.8438 1099 60.875 1098.97 63.7188C1099 67.5312 1095.44 70.3125 1090.53 70.3125Z" fill="black"/>
<path d="M1076.81 47.375V70H1072.72V51.3438H1072.59L1067.31 54.7188V51L1072.91 47.375H1076.81Z" fill="black"/>
<path d="M1055.91 70.3125C1051.38 70.3125 1048.06 67.625 1047.94 63.875H1051.91C1052.03 65.7188 1053.75 67.0312 1055.91 67.0312C1058.44 67.0312 1060.25 65.1875 1060.25 62.6875C1060.25 60.0938 1058.38 58.25 1055.78 58.25C1054.03 58.2188 1052.75 58.8438 1052.03 60.1875H1048.25L1049.62 47.375H1063V50.7812H1052.97L1052.28 56.7812H1052.5C1053.38 55.7812 1055.03 55.0625 1056.88 55.0625C1061.09 55.0625 1064.19 58.2188 1064.19 62.5625C1064.19 67.0938 1060.78 70.3125 1055.91 70.3125Z" fill="black"/>
</g>
<g id="changjo_hall_5f_stairs_left_2">
<path d="M1710 351C1710 346.582 1713.58 343 1718 343H1759C1763.42 343 1767 346.582 1767 351V485C1767 489.418 1763.42 493 1759 493H1718C1713.58 493 1710 489.418 1710 485V351Z" fill="#D9FFE6"/>
<path d="M1759 490V493H1718V490H1759ZM1764 485V351C1764 348.239 1761.76 346 1759 346H1718C1715.24 346 1713 348.239 1713 351V485C1713 487.761 1715.24 490 1718 490V493C1713.72 493 1710.23 489.639 1710.01 485.412L1710 485V351C1710 346.582 1713.58 343 1718 343H1759L1759.41 343.011C1763.64 343.225 1767 346.72 1767 351V485L1766.99 485.412C1766.78 489.502 1763.5 492.782 1759.41 492.989L1759 493V490C1761.76 490 1764 487.761 1764 485Z" fill="#2E2F33" fill-opacity="0.88"/>
<path d="M1755.76 399.544C1755.02 399.273 1754.21 399.651 1753.94 400.385L1751.31 407.539H1736.4L1738.86 401.403C1739.16 400.676 1738.8 399.85 1738.08 399.558C1737.35 399.266 1736.53 399.62 1736.23 400.344L1722.5 434.507C1722.21 435.234 1722.56 436.06 1723.29 436.352C1723.46 436.421 1723.64 436.455 1723.82 436.455C1724.38 436.455 1724.91 436.119 1725.13 435.565L1727.95 428.549C1728.01 428.558 1728.07 428.585 1728.13 428.585H1743.56L1741.37 434.548C1741.1 435.282 1741.48 436.098 1742.21 436.367C1742.37 436.426 1742.54 436.455 1742.7 436.455C1743.28 436.455 1743.82 436.099 1744.03 435.526L1756.6 401.363C1756.87 400.629 1756.49 399.813 1755.76 399.544ZM1735.55 410.373H1750.26L1747.99 416.537H1732.78L1735.28 410.318C1735.37 410.336 1735.46 410.373 1735.55 410.373ZM1729.08 425.75L1731.66 419.332C1731.72 419.342 1731.79 419.372 1731.86 419.372H1746.95L1744.61 425.75H1729.08Z" fill="#6E4944"/>
</g>
<g id="changjo_hall_5f_stairs_left_1">
<path d="M679 162C679 157.582 682.582 154 687 154H731C735.418 154 739 157.582 739 162V257C739 261.418 735.418 265 731 265H687C682.582 265 679 261.418 679 257V162Z" fill="#D9FFE6"/>
<path d="M731 262V265H687L687 262H731ZM736 257V162C736 159.239 733.761 157 731 157H687C684.239 157 682 159.239 682 162V257C682 259.761 684.239 262 687 262L687 265L686.588 264.989C682.498 264.782 679.218 261.502 679.011 257.412L679 257V162C679 157.582 682.582 154 687 154H731C735.418 154 739 157.582 739 162V257L738.989 257.412C738.782 261.502 735.502 264.782 731.412 264.989L731 265V262C733.761 262 736 259.761 736 257Z" fill="#2E2F33" fill-opacity="0.88"/>
<path d="M725.758 191.544C725.024 191.273 724.209 191.651 723.938 192.385L721.306 199.539H706.397L708.864 193.403C709.155 192.676 708.804 191.85 708.077 191.558C707.35 191.266 706.525 191.62 706.233 192.344L692.502 226.507C692.211 227.234 692.562 228.06 693.289 228.352C693.462 228.421 693.641 228.455 693.817 228.455C694.379 228.455 694.911 228.119 695.133 227.565L697.953 220.549C698.014 220.558 698.067 220.585 698.13 220.585H713.563L711.37 226.548C711.1 227.282 711.476 228.098 712.211 228.367C712.373 228.426 712.539 228.455 712.7 228.455C713.277 228.455 713.82 228.099 714.031 227.526L726.599 193.363C726.869 192.629 726.493 191.813 725.758 191.544ZM705.552 202.373H720.262L717.994 208.537H702.78L705.28 202.318C705.371 202.336 705.455 202.373 705.552 202.373ZM699.078 217.75L701.657 211.332C701.725 211.342 701.785 211.372 701.856 211.372H716.953L714.606 217.75H699.078Z" fill="#6E4944"/>
</g>
<g id="changjo_hall_5f_stairs_left_main">
<path d="M1079 351C1079 346.582 1082.58 343 1087 343H1175C1179.42 343 1183 346.582 1183 351V485C1183 489.418 1179.42 493 1175 493H1087C1082.58 493 1079 489.418 1079 485V351Z" fill="#D9FFE6"/>
<path d="M1175 490V493H1087L1087 490H1175ZM1180 485V351C1180 348.239 1177.76 346 1175 346H1087C1084.24 346 1082 348.239 1082 351V485C1082 487.761 1084.24 490 1087 490L1087 493L1086.59 492.989C1082.5 492.782 1079.22 489.502 1079.01 485.412L1079 485V351C1079 346.582 1082.58 343 1087 343H1175C1179.42 343 1183 346.582 1183 351V485L1182.99 485.412C1182.78 489.502 1179.5 492.782 1175.41 492.989L1175 493V490C1177.76 490 1180 487.761 1180 485Z" fill="#2E2F33" fill-opacity="0.88"/>
<path d="M1154.94 391.634C1153.89 391.247 1152.73 391.787 1152.34 392.836L1148.58 403.056H1127.28L1130.81 394.29C1131.22 393.252 1130.72 392.071 1129.68 391.654C1128.64 391.237 1127.46 391.743 1127.05 392.778L1107.43 441.581C1107.02 442.619 1107.52 443.8 1108.56 444.217C1108.8 444.316 1109.06 444.364 1109.31 444.364C1110.11 444.364 1110.87 443.884 1111.19 443.093L1115.22 433.071C1115.31 433.083 1115.38 433.121 1115.47 433.121H1137.52L1134.39 441.64C1134 442.688 1134.54 443.854 1135.59 444.238C1135.82 444.324 1136.06 444.364 1136.29 444.364C1137.11 444.364 1137.89 443.855 1138.19 443.036L1156.14 394.233C1156.53 393.184 1155.99 392.018 1154.94 391.634ZM1126.07 407.104H1147.09L1143.85 415.91H1122.11L1125.69 407.026C1125.82 407.051 1125.94 407.104 1126.07 407.104ZM1116.83 429.072L1120.51 419.903C1120.61 419.917 1120.69 419.961 1120.79 419.961H1142.36L1139.01 429.072H1116.83Z" fill="#6E4944"/>
</g>
<g id="changjo_hall_5f_toilet_left_girl">
<path d="M1032 162C1032 157.582 1035.58 154 1040 154H1109C1113.42 154 1117 157.582 1117 162V226C1117 230.418 1113.42 234 1109 234H1040C1035.58 234 1032 230.418 1032 226V162Z" fill="#FED9C4"/>
<path d="M1109 231V234H1040L1040 231H1109ZM1114 226V162C1114 159.239 1111.76 157 1109 157H1040C1037.24 157 1035 159.239 1035 162V226C1035 228.761 1037.24 231 1040 231L1040 234L1039.59 233.989C1035.5 233.782 1032.22 230.502 1032.01 226.412L1032 226V162C1032 157.582 1035.58 154 1040 154H1109C1113.42 154 1117 157.582 1117 162V226L1116.99 226.412C1116.78 230.502 1113.5 233.782 1109.41 233.989L1109 234V231C1111.76 231 1114 228.761 1114 226Z" fill="#2E2F33" fill-opacity="0.88"/>
<path d="M1087.75 169.25H1062.25C1055.62 169.25 1050.25 174.623 1050.25 181.25V206.75C1050.25 213.377 1055.62 218.75 1062.25 218.75H1087.75C1094.38 218.75 1099.75 213.377 1099.75 206.75V181.25C1099.75 174.623 1094.38 169.25 1087.75 169.25Z" fill="#E76D6D"/>
<path d="M1072.27 191.976L1066.81 204.524C1065.95 206.488 1067.39 208.685 1069.53 208.685H1080.46C1082.61 208.685 1084.05 206.488 1083.19 204.524L1077.72 191.976C1076.69 189.594 1073.31 189.594 1072.27 191.976H1072.27Z" fill="white"/>
<path d="M1075 187.381C1077.23 187.381 1079.03 185.575 1079.03 183.348C1079.03 181.122 1077.23 179.317 1075 179.317C1072.77 179.317 1070.97 181.122 1070.97 183.348C1070.97 185.575 1072.77 187.381 1075 187.381Z" fill="white"/>
</g>
<g id="changjo_hall_5f_toilet_left_boy">
<path d="M882.5 162.5C882.5 158.082 886.082 154.5 890.5 154.5H951.5C955.918 154.5 959.5 158.082 959.5 162.5V212C959.5 216.418 963.082 220 967.5 220H977.5C981.918 220 985.5 223.582 985.5 228V257.5C985.5 261.918 981.918 265.5 977.5 265.5H890.5C886.082 265.5 882.5 261.918 882.5 257.5V162.5Z" fill="#FED9C4"/>
<path d="M977.5 262.5V265.5H890.5L890.5 262.5H977.5ZM982.5 257.5V228C982.5 225.239 980.261 223 977.5 223H967.5C961.425 223 956.5 218.075 956.5 212V162.5C956.5 159.739 954.261 157.5 951.5 157.5H890.5C887.739 157.5 885.5 159.739 885.5 162.5V257.5C885.5 260.261 887.739 262.5 890.5 262.5L890.5 265.5C886.22 265.5 882.725 262.139 882.511 257.912L882.5 257.5V162.5C882.5 158.22 885.861 154.725 890.088 154.511L890.5 154.5H951.5C955.918 154.5 959.5 158.082 959.5 162.5V212L959.511 212.412C959.725 216.639 963.22 220 967.5 220H977.5C981.918 220 985.5 223.582 985.5 228V257.5C985.5 261.78 982.139 265.275 977.912 265.489L977.5 265.5V262.5C980.261 262.5 982.5 260.261 982.5 257.5Z" fill="#2E2F33" fill-opacity="0.88"/>
<path d="M937.75 184.25H912.25C905.623 184.25 900.25 189.623 900.25 196.25V221.75C900.25 228.377 905.623 233.75 912.25 233.75H937.75C944.377 233.75 949.75 228.377 949.75 221.75V196.25C949.75 189.623 944.377 184.25 937.75 184.25Z" fill="#3076D1"/>
<path d="M927.725 221.889L933.191 209.342C934.046 207.378 932.608 205.181 930.466 205.181H919.535C917.394 205.181 915.953 207.378 916.81 209.342L922.276 221.889C923.314 224.271 926.691 224.271 927.729 221.889H927.725Z" fill="white"/>
<path d="M925 202.388C927.227 202.388 929.032 200.583 929.032 198.356C929.032 196.129 927.227 194.324 925 194.324C922.773 194.324 920.968 196.129 920.968 198.356C920.968 200.583 922.773 202.388 925 202.388Z" fill="white"/>
</g>
<g id="changjo_hall_5f_elevator_left">
<path d="M606 162C606 157.582 609.582 154 614 154H674C678.418 154 682 157.582 682 162V205C682 209.418 678.418 213 674 213H614C609.582 213 606 209.418 606 205V162Z" fill="#C4C4C4"/>
<path d="M674 210V213H614L614 210H674ZM679 205V162C679 159.239 676.761 157 674 157H614C611.239 157 609 159.239 609 162V205C609 207.761 611.239 210 614 210L614 213C609.72 213 606.225 209.639 606.011 205.412L606 205V162C606 157.582 609.582 154 614 154H674L674.412 154.011C678.639 154.225 682 157.72 682 162V205L681.989 205.412C681.782 209.502 678.502 212.782 674.412 212.989L674 213V210C676.761 210 679 207.761 679 205Z" fill="#2E2F33" fill-opacity="0.88"/>
<path d="M654.625 163.375H633.375C627.853 163.375 623.375 167.852 623.375 173.375V194.625C623.375 200.147 627.853 204.625 633.375 204.625H654.625C660.147 204.625 664.625 200.147 664.625 194.625V173.375C664.625 167.852 660.147 163.375 654.625 163.375ZM645.02 171.434H646.174C646.289 171.434 646.381 171.341 646.381 171.226V168.675C646.381 168.577 646.46 168.499 646.557 168.499H648.449C648.546 168.499 648.625 168.577 648.625 168.675V171.226C648.625 171.341 648.717 171.434 648.832 171.434H649.986C650.153 171.434 650.235 171.634 650.118 171.751L647.759 174.11C647.618 174.251 647.389 174.251 647.249 174.11L644.89 171.751C644.772 171.634 644.855 171.434 645.02 171.434ZM637.327 170.964L639.686 168.605C639.827 168.464 640.056 168.464 640.196 168.605L642.555 170.964C642.673 171.081 642.589 171.281 642.424 171.281H641.27C641.155 171.281 641.062 171.374 641.062 171.489V174.04C641.062 174.137 640.984 174.216 640.886 174.216H638.995C638.898 174.216 638.819 174.137 638.819 174.04V171.489C638.819 171.374 638.726 171.281 638.611 171.281H637.458C637.291 171.281 637.21 171.081 637.327 170.964ZM659.29 193.34C659.29 196.355 656.838 198.808 653.823 198.808H634.176C631.161 198.808 628.709 196.355 628.709 193.34V181.54C628.709 178.525 631.161 176.073 634.176 176.073H653.823C656.838 176.073 659.29 178.525 659.29 181.54V193.34Z" fill="#4592FB"/>
<path d="M653.823 177.04H634.176C631.695 177.04 629.676 179.059 629.676 181.54V193.34C629.676 195.821 631.695 197.841 634.176 197.841H653.823C656.304 197.841 658.323 195.822 658.323 193.34V181.54C658.323 179.059 656.304 177.04 653.823 177.04ZM651.61 179.925C652.245 179.925 652.76 180.44 652.76 181.075C652.76 181.71 652.245 182.225 651.61 182.225C650.975 182.225 650.46 181.71 650.46 181.075C650.46 180.44 650.975 179.925 651.61 179.925ZM643.866 179.925C644.501 179.925 645.016 180.44 645.016 181.075C645.016 181.71 644.501 182.225 643.866 182.225C643.231 182.225 642.716 181.71 642.716 181.075C642.716 180.44 643.231 179.925 643.866 179.925ZM636.122 179.925C636.757 179.925 637.272 180.44 637.272 181.075C637.272 181.71 636.757 182.225 636.122 182.225C635.487 182.225 634.972 181.71 634.972 181.075C634.972 180.44 635.487 179.925 636.122 179.925ZM639.455 188.081C639.455 188.441 639.162 188.734 638.802 188.734C638.442 188.734 638.15 188.441 638.15 188.081V184.663H637.809V194.084C637.809 194.477 637.49 194.796 637.096 194.796C636.703 194.796 636.384 194.477 636.384 194.084V188.665H635.859V194.084C635.859 194.477 635.54 194.796 635.146 194.796C634.753 194.796 634.434 194.477 634.434 194.084V184.663H633.995V188.081C633.995 188.441 633.703 188.734 633.343 188.734C632.983 188.734 632.69 188.441 632.69 188.081V184.051C632.69 183.33 633.274 182.746 633.995 182.746H638.147C638.868 182.746 639.452 183.33 639.452 184.051V188.081H639.455ZM647.199 188.081C647.199 188.441 646.906 188.734 646.546 188.734C646.186 188.734 645.894 188.441 645.894 188.081V184.663H645.553V194.084C645.553 194.477 645.234 194.796 644.84 194.796C644.446 194.796 644.127 194.477 644.127 194.084V188.665H643.604V194.084C643.604 194.477 643.285 194.796 642.891 194.796C642.498 194.796 642.179 194.477 642.179 194.084V184.663H641.74V188.081C641.74 188.441 641.448 188.734 641.088 188.734C640.728 188.734 640.435 188.441 640.435 188.081V184.051C640.435 183.33 641.019 182.746 641.74 182.746H645.893C646.614 182.746 647.198 183.33 647.198 184.051L647.199 188.081ZM654.942 188.081C654.942 188.441 654.65 188.734 654.29 188.734C653.93 188.734 653.637 188.441 653.637 188.081V184.663H653.296V194.084C653.296 194.477 652.978 194.796 652.584 194.796C652.19 194.796 651.871 194.477 651.871 194.084V188.665H651.346V194.084C651.346 194.477 651.028 194.796 650.634 194.796C650.24 194.796 649.921 194.477 649.921 194.084V184.663H649.482V188.081C649.482 188.441 649.19 188.734 648.83 188.734C648.47 188.734 648.177 188.441 648.177 188.081V184.051C648.177 183.33 648.761 182.746 649.482 182.746H653.635C654.356 182.746 654.94 183.33 654.94 184.051V188.081H654.942Z" fill="#4592FB"/>
<path d="M643.866 182.225C644.501 182.225 645.016 181.71 645.016 181.075C645.016 180.44 644.501 179.925 643.866 179.925C643.231 179.925 642.716 180.44 642.716 181.075C642.716 181.71 643.231 182.225 643.866 182.225Z" fill="white"/>
<path d="M636.122 182.225C636.757 182.225 637.272 181.71 637.272 181.075C637.272 180.44 636.757 179.925 636.122 179.925C635.487 179.925 634.972 180.44 634.972 181.075C634.972 181.71 635.487 182.225 636.122 182.225Z" fill="white"/>
<path d="M651.61 182.225C652.245 182.225 652.76 181.71 652.76 181.075C652.76 180.44 652.245 179.925 651.61 179.925C650.975 179.925 650.46 180.44 650.46 181.075C650.46 181.71 650.975 182.225 651.61 182.225Z" fill="white"/>
<path d="M653.825 176.075H634.175C631.163 176.075 628.712 178.525 628.712 181.538V193.337C628.712 196.35 631.163 198.812 634.175 198.812H653.825C656.838 198.812 659.287 196.35 659.287 193.337V181.538C659.287 178.525 656.838 176.075 653.825 176.075ZM658.325 193.337C658.325 195.825 656.3 197.838 653.825 197.838H634.175C631.7 197.838 629.675 195.825 629.675 193.337V181.538C629.675 179.063 631.7 177.038 634.175 177.038H653.825C656.3 177.038 658.325 179.063 658.325 181.538V193.337Z" fill="white"/>
<path d="M654.938 184.05V188.075C654.938 188.438 654.65 188.737 654.287 188.737C653.925 188.737 653.637 188.438 653.637 188.075V184.663L653.3 184.663V194.087C653.3 194.475 652.975 194.8 652.588 194.8C652.188 194.8 651.875 194.475 651.875 194.087V188.662H651.35V194.087C651.35 194.475 651.025 194.8 650.637 194.8C650.237 194.8 649.925 194.475 649.925 194.087V184.663H649.487V188.075C649.487 188.438 649.188 188.737 648.838 188.737C648.475 188.737 648.175 188.438 648.175 188.075V184.05C648.175 183.325 648.763 182.75 649.487 182.75H653.637C654.362 182.75 654.938 183.325 654.938 184.05Z" fill="white"/>
<path d="M639.45 184.05V188.075C639.45 188.438 639.162 188.737 638.8 188.737C638.438 188.737 638.15 188.438 638.15 188.075L638.15 184.663L637.812 184.663V194.087C637.812 194.475 637.487 194.8 637.1 194.8C636.7 194.8 636.388 194.475 636.388 194.087V188.662H635.862V194.087C635.862 194.475 635.538 194.8 635.15 194.8C634.75 194.8 634.438 194.475 634.438 194.087V184.663H634V188.075C634 188.438 633.7 188.737 633.35 188.737C632.988 188.737 632.688 188.438 632.688 188.075V184.05C632.688 183.325 633.275 182.75 634 182.75H638.15C638.875 182.75 639.45 183.325 639.45 184.05Z" fill="white"/>
<path d="M647.2 184.05V188.075C647.2 188.438 646.912 188.737 646.55 188.737C646.188 188.737 645.9 188.438 645.9 188.075V184.663H645.55V194.087C645.55 194.475 645.237 194.8 644.837 194.8C644.45 194.8 644.125 194.475 644.125 194.087V188.662H643.6V194.087C643.6 194.475 643.288 194.8 642.888 194.8C642.5 194.8 642.175 194.475 642.175 194.087V184.663H641.737V188.075C641.737 188.438 641.45 188.737 641.087 188.737C640.725 188.737 640.438 188.438 640.438 188.075V184.05C640.438 183.325 641.025 182.75 641.737 182.75H645.9C646.612 182.75 647.2 183.325 647.2 184.05Z" fill="white"/>
<path d="M637.459 171.281H638.612C638.728 171.281 638.82 171.374 638.82 171.489V174.04C638.82 174.138 638.899 174.216 638.996 174.216H640.888C640.985 174.216 641.064 174.138 641.064 174.04V171.489C641.064 171.374 641.156 171.281 641.271 171.281H642.425C642.591 171.281 642.674 171.08 642.556 170.964L640.198 168.605C640.056 168.464 639.827 168.464 639.688 168.605L637.329 170.964C637.211 171.081 637.294 171.281 637.459 171.281Z" fill="white"/>
<path d="M647.246 174.11C647.388 174.251 647.616 174.251 647.756 174.11L650.115 171.751C650.232 171.634 650.149 171.434 649.984 171.434H648.83C648.715 171.434 648.622 171.341 648.622 171.226V168.675C648.622 168.577 648.544 168.499 648.446 168.499H646.555C646.458 168.499 646.379 168.577 646.379 168.675V171.226C646.379 171.341 646.286 171.434 646.171 171.434H645.017C644.851 171.434 644.769 171.634 644.886 171.751L647.246 174.11Z" fill="white"/>
</g>
</g>
</svg>
