<svg width="2469" height="1554" viewBox="0 0 2469 1554" fill="none" xmlns="http://www.w3.org/2000/svg">
<g id="jeongui_hall_floor_1">
<g id="Vector">
<path d="M4.00195 1047.51L170.502 646.01L612.502 838.004L423.502 416.504L594.502 344.004L626.502 329.504L575.502 209.504L800.002 126.51L786.502 76.0102C786.502 76.0102 1032 4.5147 1229 3.51019C1426 2.50568 1668.5 76.0102 1668.5 76.0102L1651 126.51L1884 209.504L1833 329.504L2040.5 416.504L1861 838.004L2303.5 646.01L2465 1047.51L1633 1402.5L1617.5 1372L1521.5 1412.01L1533.5 1441.01C1533.5 1441.01 1389 1491.01 1234.5 1493.01C1080 1495.01 935.502 1441.01 935.502 1441.01L945.002 1412.01L859.002 1376.01L845.002 1406.51L4.00195 1047.51Z" fill="#999999"/>
<path d="M1228.99 0.509751C1327.81 0.00586161 1437.93 18.1833 1523.25 36.4502C1565.94 45.5878 1602.46 54.7562 1628.31 61.6416C1641.23 65.0844 1651.49 67.9572 1658.52 69.9697C1662.04 70.976 1664.75 71.7673 1666.58 72.3076C1667.49 72.5778 1668.19 72.7847 1668.66 72.9248C1668.89 72.9948 1669.07 73.0481 1669.19 73.084C1669.25 73.1019 1669.29 73.1158 1669.33 73.125C1669.34 73.1295 1669.35 73.1334 1669.36 73.1357C1669.36 73.1369 1669.37 73.1371 1669.37 73.1377C1669.37 73.1388 1669.36 73.1788 1668.5 76.0102L1669.37 73.1396L1672.36 74.0439L1654.81 124.682L1888.01 207.746L1836.94 327.902L2044.44 414.903L1866.71 832.257L2305.13 642.031L2468.88 1049.12L1631.6 1406.36L1616.09 1375.84L1525.42 1413.63L1537.49 1442.8L1534.48 1443.84L1533.5 1441.01C1534.45 1443.76 1534.48 1443.84 1534.48 1443.85C1534.48 1443.85 1534.48 1443.85 1534.47 1443.85C1534.47 1443.85 1534.46 1443.85 1534.45 1443.86C1534.43 1443.86 1534.41 1443.87 1534.37 1443.88C1534.3 1443.91 1534.19 1443.95 1534.05 1443.99C1533.77 1444.09 1533.35 1444.23 1532.79 1444.42C1531.69 1444.79 1530.05 1445.33 1527.91 1446.02C1523.64 1447.4 1517.37 1449.36 1509.36 1451.73C1493.35 1456.46 1470.4 1462.79 1442.61 1469.18C1387.05 1481.96 1312.08 1495.01 1234.54 1496.01C1156.96 1497.01 1081.94 1483.96 1026.37 1470.68C998.569 1464.03 975.609 1457.33 959.592 1452.28C951.583 1449.75 945.309 1447.64 941.031 1446.16C938.893 1445.42 937.253 1444.84 936.146 1444.44C935.592 1444.24 935.171 1444.08 934.888 1443.98C934.746 1443.93 934.638 1443.89 934.565 1443.86C934.529 1443.85 934.501 1443.84 934.482 1443.83C934.473 1443.83 934.465 1443.83 934.46 1443.82C934.458 1443.82 934.455 1443.82 934.454 1443.82C934.453 1443.82 934.468 1443.78 935.502 1441.01L934.452 1443.82L931.755 1442.81L941.289 1413.71L860.519 1379.9L846.51 1410.42L0.09375 1049.1L168.899 642.043L606.597 832.167L419.512 414.938L593.288 341.26L622.595 327.98L571.51 207.781L796.397 124.644L782.846 73.9502L785.663 73.1299L786.502 76.0102C785.663 73.1302 785.665 73.1295 785.667 73.1289C785.669 73.1283 785.672 73.127 785.676 73.126C785.684 73.1237 785.695 73.1205 785.71 73.1162C785.741 73.1073 785.786 73.0936 785.847 73.0762C785.967 73.0413 786.146 72.9899 786.383 72.9219C786.857 72.7856 787.562 72.5842 788.488 72.3213C790.341 71.7954 793.082 71.0244 796.638 70.0439C803.75 68.0829 814.127 65.2818 827.191 61.918C853.32 55.1906 890.209 46.2111 933.263 37.2002C1019.33 19.1862 1130.19 1.01357 1228.99 0.509751ZM1229.02 6.50975C1130.82 7.01048 1020.42 25.0884 934.491 43.0732C891.545 52.0617 854.746 61.0191 828.688 67.7285C815.659 71.083 805.316 73.8753 798.233 75.8281C794.715 76.7983 792 77.5603 790.161 78.082L803.606 128.376L579.493 211.226L630.409 331.027L595.74 346.736L595.707 346.752L595.673 346.766L427.491 418.07L618.406 843.84L172.104 649.977L7.91016 1045.92L843.493 1402.6L857.485 1372.12L948.715 1410.31L939.258 1439.18C940.245 1439.53 941.493 1439.97 942.994 1440.49C947.223 1441.96 953.445 1444.05 961.396 1446.55C977.301 1451.57 1000.12 1458.24 1027.76 1464.84C1083.06 1478.06 1157.55 1491.01 1234.46 1490.01C1311.43 1489.01 1385.95 1476.06 1441.27 1463.34C1468.92 1456.98 1491.75 1450.68 1507.66 1445.98C1515.61 1443.62 1521.84 1441.67 1526.07 1440.31C1527.42 1439.87 1528.56 1439.5 1529.5 1439.19L1517.59 1410.39L1618.92 1368.17L1634.41 1398.64L2461.12 1045.9L2301.87 649.988L1855.29 843.751L2036.56 418.104L1829.06 331.104L1880 211.261L1647.19 128.338L1664.64 77.9912C1662.83 77.4578 1660.22 76.6963 1656.87 75.7383C1649.87 73.735 1639.65 70.872 1626.76 67.4394C1600.99 60.5741 1564.57 51.4303 1522 42.3174C1436.83 24.0832 1327.2 6.00917 1229.02 6.50975Z" fill="black"/>
</g>
<g id="jeongui_hall_101">
<path d="M839.565 1391.04C837.839 1395.11 833.142 1397.01 829.075 1395.28L675.876 1330.25C671.809 1328.52 669.912 1323.83 671.638 1319.76L739.08 1160.88C740.806 1156.81 745.503 1154.91 749.57 1156.64L902.769 1221.67C906.836 1223.39 908.734 1228.09 907.007 1232.16L839.565 1391.04Z" fill="#F7FBFF"/>
<path d="M748.397 1159.4L749.57 1156.64L902.769 1221.67L901.597 1224.43L748.397 1159.4ZM741.841 1162.05L674.399 1320.93C673.32 1323.47 674.506 1326.41 677.048 1327.49L830.247 1392.52C832.789 1393.6 835.725 1392.41 836.804 1389.87L904.246 1230.99C905.325 1228.44 904.139 1225.51 901.597 1224.43L902.769 1221.67C906.836 1223.39 908.734 1228.09 907.007 1232.16L839.565 1391.04C837.839 1395.11 833.142 1397.01 829.075 1395.28L675.876 1330.25L675.502 1330.08C671.694 1328.23 669.966 1323.7 671.638 1319.76L739.08 1160.88L739.251 1160.5C741.04 1156.82 745.341 1155.08 749.187 1156.49L749.57 1156.64L748.397 1159.4C745.856 1158.32 742.92 1159.51 741.841 1162.05Z" fill="#2E2F33" fill-opacity="0.88"/>
<path d="M811.189 1264.38V1287H807.096V1268.34H806.971L801.689 1271.72V1268L807.283 1264.38H811.189Z" fill="black"/>
<path d="M789.908 1287.31C784.471 1287.31 781.221 1283.09 781.221 1275.69C781.221 1268.31 784.471 1264.06 789.908 1264.06C795.314 1264.06 798.596 1268.31 798.596 1275.69C798.596 1283.09 795.346 1287.31 789.908 1287.31ZM789.908 1283.91C792.752 1283.91 794.502 1281.12 794.502 1275.69C794.502 1270.28 792.721 1267.44 789.908 1267.44C787.096 1267.44 785.314 1270.28 785.314 1275.69C785.314 1281.12 787.064 1283.91 789.908 1283.91Z" fill="black"/>
<path d="M776.064 1264.38V1287H771.971V1268.34H771.846L766.564 1271.72V1268L772.158 1264.38H776.064Z" fill="black"/>
</g>
<g id="jeongui_hall_103">
<path d="M674.005 1322.65C672.279 1326.72 667.583 1328.62 663.516 1326.89L508.876 1261.25C504.809 1259.52 502.912 1254.83 504.638 1250.76L572.08 1091.88C573.806 1087.81 578.503 1085.91 582.57 1087.64L737.209 1153.28C741.276 1155.01 743.174 1159.7 741.448 1163.77L674.005 1322.65Z" fill="#F7FBFF"/>
<path d="M581.398 1090.4L582.57 1087.64L737.209 1153.28L736.037 1156.04L581.398 1090.4ZM574.842 1093.05L507.4 1251.93C506.321 1254.47 507.507 1257.41 510.048 1258.49L664.688 1324.13C667.23 1325.21 670.165 1324.02 671.244 1321.48L738.686 1162.6C739.765 1160.05 738.579 1157.12 736.037 1156.04L737.209 1153.28L737.585 1153.45C741.392 1155.3 743.12 1159.83 741.448 1163.77L674.005 1322.65C672.279 1326.72 667.583 1328.62 663.516 1326.89L508.876 1261.25L508.502 1261.08C504.694 1259.23 502.966 1254.7 504.638 1250.76L572.08 1091.88L572.251 1091.5C574.04 1087.82 578.341 1086.08 582.188 1087.49L582.57 1087.64L581.398 1090.4C578.856 1089.32 575.921 1090.51 574.842 1093.05Z" fill="#2E2F33" fill-opacity="0.88"/>
<path d="M640.219 1218.31C635.375 1218.31 631.938 1215.69 631.844 1211.88H635.938C636.063 1213.69 637.875 1214.88 640.219 1214.88C642.719 1214.88 644.5 1213.5 644.5 1211.5C644.5 1209.47 642.75 1208 639.813 1208H637.782V1204.88H639.813C642.219 1204.88 643.907 1203.53 643.875 1201.56C643.907 1199.66 642.469 1198.38 640.25 1198.38C638.125 1198.38 636.282 1199.56 636.219 1201.47H632.313C632.407 1197.66 635.844 1195.06 640.282 1195.06C644.875 1195.06 647.844 1197.88 647.813 1201.34C647.844 1203.88 646.157 1205.72 643.688 1206.22V1206.41C646.875 1206.84 648.688 1208.88 648.657 1211.72C648.688 1215.53 645.125 1218.31 640.219 1218.31Z" fill="black"/>
<path d="M619.907 1218.31C614.469 1218.31 611.219 1214.09 611.219 1206.69C611.219 1199.31 614.469 1195.06 619.907 1195.06C625.313 1195.06 628.594 1199.31 628.594 1206.69C628.594 1214.09 625.344 1218.31 619.907 1218.31ZM619.907 1214.91C622.75 1214.91 624.5 1212.12 624.5 1206.69C624.5 1201.28 622.719 1198.44 619.907 1198.44C617.094 1198.44 615.313 1201.28 615.313 1206.69C615.313 1212.12 617.063 1214.91 619.907 1214.91Z" fill="black"/>
<path d="M606.063 1195.38V1218H601.969V1199.34H601.844L596.563 1202.72V1199L602.157 1195.38H606.063Z" fill="black"/>
</g>
<g id="jeongui_hall_105">
<path d="M507.495 1251.12C505.768 1255.19 501.072 1257.08 497.005 1255.36L265.876 1157.25C261.809 1155.52 259.912 1150.83 261.638 1146.76L329.08 987.877C330.806 983.81 335.503 981.912 339.57 983.639L570.698 1081.75C574.766 1083.47 576.663 1088.17 574.937 1092.24L507.495 1251.12Z" fill="#F7FBFF"/>
<path d="M338.398 986.4L339.57 983.639L570.698 1081.75L569.526 1084.51L338.398 986.4ZM331.842 989.049L264.4 1147.93C263.321 1150.47 264.507 1153.41 267.048 1154.49L498.177 1252.6C500.719 1253.68 503.654 1252.49 504.733 1249.95L572.175 1091.06C573.254 1088.52 572.068 1085.59 569.526 1084.51L570.698 1081.75C574.766 1083.47 576.663 1088.17 574.937 1092.24L507.495 1251.12C505.768 1255.19 501.072 1257.08 497.005 1255.36L265.876 1157.25L265.501 1157.08C261.694 1155.23 259.966 1150.7 261.638 1146.76L329.08 987.877L329.251 987.502C331.04 983.817 335.341 982.079 339.187 983.487L339.57 983.639L338.398 986.4C335.856 985.321 332.921 986.507 331.842 989.049Z" fill="#2E2F33" fill-opacity="0.88"/>
<path d="M436.033 1130.31C431.501 1130.31 428.189 1127.62 428.064 1123.88H432.033C432.158 1125.72 433.876 1127.03 436.033 1127.03C438.564 1127.03 440.376 1125.19 440.376 1122.69C440.376 1120.09 438.501 1118.25 435.908 1118.25C434.158 1118.22 432.876 1118.84 432.158 1120.19H428.376L429.751 1107.38H443.126V1110.78H433.095L432.408 1116.78H432.626C433.501 1115.78 435.158 1115.06 437.001 1115.06C441.22 1115.06 444.314 1118.22 444.314 1122.56C444.314 1127.09 440.908 1130.31 436.033 1130.31Z" fill="black"/>
<path d="M415.908 1130.31C410.47 1130.31 407.22 1126.09 407.22 1118.69C407.22 1111.31 410.47 1107.06 415.908 1107.06C421.314 1107.06 424.595 1111.31 424.595 1118.69C424.595 1126.09 421.345 1130.31 415.908 1130.31ZM415.908 1126.91C418.751 1126.91 420.501 1124.12 420.501 1118.69C420.501 1113.28 418.72 1110.44 415.908 1110.44C413.095 1110.44 411.314 1113.28 411.314 1118.69C411.314 1124.12 413.064 1126.91 415.908 1126.91Z" fill="black"/>
<path d="M402.064 1107.38V1130H397.97V1111.34H397.845L392.564 1114.72V1111L398.158 1107.38H402.064Z" fill="black"/>
</g>
<g id="jeongui_hall_108">
<path d="M263.748 1147.05C262.021 1151.11 257.325 1153.01 253.258 1151.29L12.8762 1049.25C8.80917 1047.52 6.91167 1042.83 8.63802 1038.76L76.0801 879.876C77.8064 875.809 82.5029 873.912 86.57 875.638L326.951 977.674C331.018 979.4 332.916 984.097 331.19 988.164L263.748 1147.05Z" fill="#F7FBFF"/>
<path d="M85.3979 878.4L86.57 875.638L326.951 977.674L325.779 980.436L85.3979 878.4ZM78.8417 881.049L11.3998 1039.93C10.3208 1042.47 11.5067 1045.41 14.0486 1046.49L254.43 1148.52C256.972 1149.6 259.907 1148.42 260.986 1145.88L328.428 986.992C329.507 984.45 328.321 981.515 325.779 980.436L326.951 977.674C331.018 979.4 332.916 984.097 331.19 988.164L263.748 1147.05C262.021 1151.11 257.325 1153.01 253.258 1151.29L12.8762 1049.25C8.80917 1047.52 6.91167 1042.83 8.63802 1038.76L76.0801 879.876C77.8064 875.809 82.5029 873.912 86.57 875.638L85.3979 878.4C82.856 877.321 79.9207 878.507 78.8417 881.049Z" fill="#2E2F33" fill-opacity="0.88"/>
<path d="M187.219 1024.31C182.188 1024.31 178.625 1021.62 178.625 1017.94C178.625 1015.06 180.75 1012.72 183.469 1012.28V1012.16C181.094 1011.66 179.469 1009.59 179.469 1007.12C179.469 1003.62 182.75 1001.06 187.219 1001.06C191.657 1001.06 194.938 1003.62 194.938 1007.12C194.938 1009.59 193.282 1011.66 190.938 1012.16V1012.28C193.657 1012.72 195.813 1015.06 195.813 1017.94C195.813 1021.62 192.219 1024.31 187.219 1024.31ZM187.219 1021.09C189.875 1021.09 191.625 1019.66 191.625 1017.56C191.625 1015.44 189.75 1013.88 187.219 1013.88C184.657 1013.88 182.782 1015.44 182.813 1017.56C182.782 1019.66 184.532 1021.09 187.219 1021.09ZM187.219 1010.84C189.407 1010.84 190.969 1009.47 190.969 1007.5C190.969 1005.59 189.438 1004.25 187.219 1004.25C184.969 1004.25 183.438 1005.56 183.438 1007.5C183.438 1009.47 185 1010.84 187.219 1010.84Z" fill="black"/>
<path d="M166.907 1024.31C161.469 1024.31 158.219 1020.09 158.219 1012.69C158.219 1005.31 161.469 1001.06 166.907 1001.06C172.313 1001.06 175.594 1005.31 175.594 1012.69C175.594 1020.09 172.344 1024.31 166.907 1024.31ZM166.907 1020.91C169.75 1020.91 171.5 1018.12 171.5 1012.69C171.5 1007.28 169.719 1004.44 166.907 1004.44C164.094 1004.44 162.313 1007.28 162.313 1012.69C162.313 1018.12 164.063 1020.91 166.907 1020.91Z" fill="black"/>
<path d="M153.063 1001.38V1024H148.969V1005.34H148.844L143.563 1008.72V1005L149.157 1001.38H153.063Z" fill="black"/>
</g>
<g id="jeongui_hall_111">
<path d="M359.932 926.673C358.205 930.74 353.509 932.637 349.442 930.911L102.876 826.25C98.8092 824.524 96.9117 819.827 98.638 815.76L166.08 656.877C167.806 652.809 172.503 650.912 176.57 652.638L423.136 757.299C427.203 759.026 429.1 763.722 427.374 767.789L359.932 926.673Z" fill="#F7FBFF"/>
<path d="M175.397 655.4L176.57 652.638L423.136 757.299L421.963 760.061L175.397 655.4ZM168.841 658.049L101.399 816.932C100.32 819.474 101.506 822.409 104.048 823.488L350.614 928.149C353.156 929.228 356.091 928.042 357.17 925.5L424.612 766.617C425.691 764.075 424.505 761.14 421.963 760.061L423.136 757.299L423.511 757.469C427.318 759.318 429.046 763.849 427.374 767.789L359.932 926.673C358.205 930.74 353.509 932.637 349.442 930.911L102.876 826.25L102.502 826.079C98.6943 824.231 96.9656 819.7 98.638 815.76L166.08 656.877L166.251 656.501C168.04 652.817 172.341 651.079 176.187 652.487L176.57 652.638L175.397 655.4C172.856 654.321 169.92 655.507 168.841 658.049Z" fill="#2E2F33" fill-opacity="0.88"/>
<path d="M281.438 780.375V803H277.344V784.344H277.219L271.938 787.719V784L277.531 780.375H281.438Z" fill="black"/>
<path d="M266.75 780.375V803H262.656V784.344H262.531L257.25 787.719V784L262.844 780.375H266.75Z" fill="black"/>
<path d="M252.062 780.375V803H247.969V784.344H247.844L242.562 787.719V784L248.156 780.375H252.062Z" fill="black"/>
</g>
<g id="jeongui_hall_114">
<path d="M600.78 1030.39C599.053 1034.46 594.357 1036.36 590.29 1034.63L360.876 937.25C356.809 935.523 354.912 930.827 356.638 926.76L424.08 767.876C425.806 763.809 430.503 761.912 434.57 763.638L663.983 861.018C668.05 862.745 669.948 867.441 668.222 871.508L600.78 1030.39Z" fill="#F7FBFF"/>
<path d="M433.398 766.4L434.57 763.638L663.983 861.018L662.811 863.78L433.398 766.4ZM426.842 769.048L359.4 927.932C358.321 930.474 359.507 933.409 362.048 934.488L591.462 1031.87C594.004 1032.95 596.939 1031.76 598.018 1029.22L665.46 870.336C666.539 867.794 665.353 864.859 662.811 863.78L663.983 861.018L664.359 861.188C668.166 863.037 669.894 867.568 668.222 871.508L600.78 1030.39C599.053 1034.46 594.357 1036.36 590.29 1034.63L360.876 937.25C356.809 935.523 354.912 930.827 356.638 926.76L424.08 767.876C425.806 763.809 430.503 761.912 434.57 763.638L433.398 766.4C430.856 765.321 427.921 766.507 426.842 769.048Z" fill="#2E2F33" fill-opacity="0.88"/>
<path d="M517.845 906.781V903.531L527.626 888.375H532.689V903.438H535.658V906.781H532.689V911H528.814V906.781H517.845ZM522.001 903.438H528.876V893H528.626L522.001 903.281V903.438Z" fill="black"/>
<path d="M512.751 888.375V911H508.658V892.344H508.533L503.251 895.719V892L508.845 888.375H512.751Z" fill="black"/>
<path d="M498.064 888.375V911H493.97V892.344H493.845L488.564 895.719V892L494.158 888.375H498.064Z" fill="black"/>
</g>
<g id="jeongui_hall_117">
<path d="M848.236 1135.71C846.51 1139.77 841.813 1141.67 837.746 1139.95L602.876 1040.25C598.809 1038.52 596.912 1033.83 598.638 1029.76L666.08 870.876C667.806 866.809 672.503 864.912 676.57 866.638L911.44 966.334C915.507 968.061 917.405 972.757 915.678 976.824L848.236 1135.71Z" fill="#F7FBFF"/>
<path d="M675.398 869.4L676.57 866.638L911.44 966.334L910.268 969.096L675.398 869.4ZM668.842 872.048L601.4 1030.93C600.321 1033.47 601.507 1036.41 604.048 1037.49L838.918 1137.18C841.46 1138.26 844.396 1137.08 845.475 1134.54L912.917 975.652C913.996 973.11 912.81 970.175 910.268 969.096L911.44 966.334C915.507 968.061 917.405 972.757 915.678 976.824L848.236 1135.71C846.51 1139.77 841.813 1141.67 837.746 1139.95L602.876 1040.25C598.809 1038.52 596.912 1033.83 598.638 1029.76L666.08 870.876C667.806 866.809 672.503 864.912 676.57 866.638L675.398 869.4C672.856 868.321 669.921 869.507 668.842 872.048Z" fill="#2E2F33" fill-opacity="0.88"/>
<path d="M765.095 1015L774.907 995.938V995.781H763.532V992.375H779.126V995.844L769.313 1015H765.095Z" fill="black"/>
<path d="M758.751 992.375V1015H754.657V996.344H754.532L749.251 999.719V996L754.845 992.375H758.751Z" fill="black"/>
<path d="M744.063 992.375V1015H739.97V996.344H739.845L734.563 999.719V996L740.157 992.375H744.063Z" fill="black"/>
</g>
<g id="jeongui_hall_121">
<path d="M1083.66 1076.86C1085.38 1072.79 1083.48 1068.1 1079.42 1066.37L992.885 1029.64C988.818 1027.91 984.121 1029.81 982.395 1033.88L927.638 1162.88C925.912 1166.94 927.809 1171.64 931.876 1173.37L1018.41 1210.1C1022.48 1211.82 1027.17 1209.92 1028.9 1205.86L1083.66 1076.86Z" fill="#F7FBFF"/>
<path d="M933.048 1170.6L931.876 1173.37L1018.41 1210.1L1019.58 1207.33L933.048 1170.6ZM930.399 1164.05L985.156 1035.05C986.235 1032.51 989.17 1031.32 991.712 1032.4L1078.25 1069.13C1080.79 1070.21 1081.97 1073.14 1080.89 1075.69L1026.14 1204.69C1025.06 1207.23 1022.12 1208.41 1019.58 1207.33L1018.41 1210.1L1018.79 1210.25C1022.64 1211.65 1026.94 1209.92 1028.73 1206.23L1028.9 1205.86L1083.66 1076.86C1085.33 1072.92 1083.6 1068.39 1079.79 1066.54L1079.42 1066.37L992.885 1029.64L992.502 1029.49C988.527 1028.03 984.067 1029.94 982.395 1033.88L927.638 1162.88L927.487 1163.26C926.079 1167.1 927.817 1171.41 931.502 1173.19L931.876 1173.37L933.048 1170.6C930.506 1169.52 929.32 1166.59 930.399 1164.05Z" fill="#2E2F33" fill-opacity="0.88"/>
<path d="M1044.72 1105.53V1119.94H1041.28V1105.53H1044.72ZM1044.78 1121.25V1128.59H1029.5V1130.78H1045.62V1133.53H1026.09V1126H1041.31V1123.94H1026.03V1121.25H1044.78ZM1031.78 1108.41C1031.78 1112 1034.16 1115.38 1038.62 1116.72L1036.94 1119.41C1033.66 1118.41 1031.31 1116.3 1030.03 1113.59C1028.75 1116.53 1026.34 1118.83 1022.97 1119.91L1021.22 1117.19C1025.78 1115.72 1028.19 1112.09 1028.19 1108.41V1106.22H1031.78V1108.41Z" fill="black"/>
<path d="M1017.12 1105.53V1133.81H1013.69V1105.53H1017.12ZM1008.44 1108V1118.59H998.719V1124.28C1003.17 1124.25 1007.02 1124.03 1011.41 1123.28L1011.72 1126.12C1006.91 1126.97 1002.69 1127.12 997.625 1127.12H995.156V1115.84H1004.91V1110.81H995.125V1108H1008.44Z" fill="black"/>
<path d="M981.719 1107.62V1109.31C981.688 1111.25 981.688 1114.03 981.031 1117.62L977.594 1117.31C978.141 1114.39 978.25 1112.23 978.312 1110.5H967.312V1107.62H981.719ZM974.594 1114.06V1119.69C977.516 1119.58 980.516 1119.36 983.25 1118.97L983.438 1121.47C977.562 1122.53 970.906 1122.62 965.938 1122.66L965.625 1119.88C967.297 1119.86 969.172 1119.84 971.156 1119.81V1114.06H974.594ZM988.469 1105.53V1114.34H992.125V1117.25H988.469V1126.69H984.906V1105.53H988.469ZM989.375 1130.41V1133.22H969.844V1124.81H973.344V1130.41H989.375Z" fill="black"/>
</g>
<g id="jeongui_hall_1f_stand">
<path d="M742.304 891.2C743.131 893.005 744.6 894.439 746.425 895.221L887.578 955.728C894.184 958.559 900.883 951.921 898.112 945.29L746.675 582.917C744.968 578.833 740.269 576.911 736.189 578.629L628.897 623.812C624.736 625.564 622.849 630.411 624.729 634.516L742.304 891.2Z" fill="#D9FFE6"/>
<path d="M887.578 955.728C894.184 958.559 900.883 951.921 898.112 945.29L746.675 582.917C744.968 578.833 740.269 576.911 736.189 578.629L628.897 623.812L630.062 626.576L737.353 581.394C739.903 580.32 742.84 581.521 743.907 584.074L895.344 946.447C897.076 950.591 892.888 954.74 888.76 952.97L747.607 892.464C746.466 891.975 745.548 891.078 745.032 889.95L627.456 633.266C626.281 630.701 627.461 627.671 630.062 626.576L628.897 623.812L628.514 623.984C624.622 625.866 622.907 630.539 624.729 634.516L742.304 891.2C743.079 892.892 744.419 894.257 746.087 895.066L746.425 895.221L887.578 955.728Z" fill="#2E2F33" fill-opacity="0.88"/>
<path d="M799.188 766.781V769.562H779.375V756H798.969V758.812H782.813V766.781H799.188ZM802.063 775.312V778.188H776.25V775.312H802.063Z" fill="black"/>
<path d="M760.75 755.875V758.625H753V761.594H760.469V764.312H753V767.438C756.454 767.406 758.844 767.281 761.594 766.781L761.969 769.562C758.657 770.156 755.907 770.25 751.532 770.25H749.657V755.875H760.75ZM772.75 753.562V774.656H769.438V764.344H766.5V773.969H763.25V754.094H766.5V761.531H769.438V753.562H772.75ZM773.532 778.406V781.219H753.844V772.188H757.313V778.406H773.532Z" fill="black"/>
<path d="M735.532 757.406C735.532 761.781 739.813 766.156 745.719 767.188L744.157 770.094C739.422 769.094 735.547 766.234 733.719 762.438C731.844 766.203 727.969 769.078 723.25 770.094L721.719 767.188C727.563 766.125 731.813 761.75 731.844 757.406V755.312H735.532V757.406ZM746.75 775.312V778.188H720.938V775.312H746.75Z" fill="black"/>
</g>
<g id="jeongui_hall_150">
<path d="M538.51 544.75C540.237 548.817 544.933 550.714 549 548.988L684.629 491.417C688.696 489.691 690.594 484.994 688.867 480.927L628.995 339.877C627.268 335.81 622.572 333.912 618.505 335.638L482.876 393.209C478.809 394.936 476.912 399.632 478.638 403.699L538.51 544.75Z" fill="#F7FBFF"/>
<path d="M619.677 338.4L618.505 335.638L482.876 393.209L484.048 395.971L619.677 338.4ZM626.233 341.049L686.106 482.099C687.185 484.641 685.999 487.577 683.457 488.656L547.828 546.227C545.286 547.305 542.351 546.12 541.272 543.578L481.4 402.527C480.321 399.985 481.507 397.05 484.048 395.971L482.876 393.209L482.501 393.379C478.694 395.228 476.966 399.759 478.638 403.699L538.51 544.75C540.237 548.817 544.933 550.714 549 548.988L684.629 491.417L685.003 491.247C688.811 489.398 690.54 484.867 688.867 480.927L628.995 339.877L628.824 339.502C627.035 335.817 622.734 334.079 618.887 335.487L618.505 335.638L619.677 338.4C622.219 337.321 625.154 338.507 626.233 341.049Z" fill="#2E2F33" fill-opacity="0.88"/>
<path d="M600.656 454.312C595.218 454.312 591.968 450.094 591.968 442.688C591.968 435.312 595.218 431.062 600.656 431.062C606.062 431.062 609.343 435.312 609.343 442.688C609.343 450.094 606.093 454.312 600.656 454.312ZM600.656 450.906C603.5 450.906 605.25 448.125 605.25 442.688C605.25 437.281 603.468 434.438 600.656 434.438C597.843 434.438 596.062 437.281 596.062 442.688C596.062 448.125 597.812 450.906 600.656 450.906Z" fill="black"/>
<path d="M580.593 454.312C576.062 454.312 572.75 451.625 572.625 447.875H576.593C576.718 449.719 578.437 451.031 580.593 451.031C583.125 451.031 584.937 449.188 584.937 446.688C584.937 444.094 583.062 442.25 580.468 442.25C578.718 442.219 577.437 442.844 576.718 444.188H572.937L574.312 431.375H587.687V434.781H577.656L576.968 440.781H577.187C578.062 439.781 579.718 439.062 581.562 439.062C585.781 439.062 588.875 442.219 588.875 446.562C588.875 451.094 585.468 454.312 580.593 454.312Z" fill="black"/>
<path d="M567.062 431.375V454H562.968V435.344H562.843L557.562 438.719V435L563.156 431.375H567.062Z" fill="black"/>
</g>
<g id="jeongui_hall_146">
<path d="M686.6 282.917C684.931 278.838 686.857 274.2 690.958 272.588C737.122 254.432 992.268 158.767 1237.58 161.04C1482.43 163.309 1721.16 254.948 1764.95 272.611C1768.97 274.229 1770.83 278.745 1769.26 282.774L1539.34 871.603C1538.84 872.873 1538.03 873.995 1536.98 874.863L1355.44 1024.71C1354 1025.89 1352.2 1026.54 1350.34 1026.54H1106.22C1104.29 1026.54 1102.42 1025.84 1100.96 1024.56L929.642 874.784C928.706 873.966 927.974 872.941 927.503 871.79L686.6 282.917Z" fill="#F7FBFF"/>
<path d="M690.958 272.588C737.122 254.432 992.268 158.767 1237.58 161.04C1482.43 163.309 1721.16 254.948 1764.95 272.611C1768.97 274.229 1770.83 278.745 1769.26 282.774L1539.34 871.603L1539.24 871.84C1538.74 873.012 1537.96 874.05 1536.98 874.863L1355.44 1024.71L1355.16 1024.92C1353.87 1025.9 1352.31 1026.46 1350.69 1026.53L1350.34 1026.54L1350.34 1023.54C1351.51 1023.54 1352.63 1023.13 1353.53 1022.4L1535.07 872.55C1535.73 872.007 1536.23 871.305 1536.54 870.512L1766.46 281.683C1767.46 279.134 1766.27 276.377 1763.83 275.393C1720.11 257.759 1481.82 166.303 1237.55 164.04C992.86 161.773 738.175 257.242 692.056 275.38C689.546 276.367 688.328 279.217 689.376 281.78L930.28 870.654C930.574 871.373 931.032 872.014 931.616 872.525L1102.93 1022.3C1103.84 1023.1 1105.01 1023.54 1106.22 1023.54L1106.22 1026.54L1105.86 1026.53C1104.17 1026.45 1102.56 1025.85 1101.24 1024.79L1100.96 1024.56L929.642 874.784C928.706 873.966 927.974 872.941 927.503 871.79L686.6 282.917C684.984 278.966 686.741 274.489 690.58 272.747L690.958 272.588ZM1350.34 1023.54L1350.34 1026.54H1106.22L1106.22 1023.54H1350.34Z" fill="#2E2F33" fill-opacity="0.88"/>
<path d="M1245.69 605.312C1241.28 605.281 1236.84 602.656 1236.88 594.312C1236.88 586.562 1240.41 582.062 1245.94 582.062C1250.31 582.062 1253.31 584.812 1253.81 588.469H1249.78C1249.38 586.75 1248 585.594 1245.94 585.594C1242.66 585.594 1240.81 588.5 1240.81 593.25H1241.03C1242.19 591.312 1244.38 590.156 1246.84 590.156C1250.91 590.156 1254.03 593.219 1254.03 597.5C1254.03 602 1250.69 605.344 1245.69 605.312ZM1245.69 602.031C1248.22 602.031 1250.09 600.062 1250.09 597.594C1250.09 595.188 1248.25 593.25 1245.75 593.25C1243.22 593.25 1241.28 595.25 1241.25 597.625C1241.28 600 1243.13 602.031 1245.69 602.031Z" fill="black"/>
<path d="M1216.16 600.781V597.531L1225.94 582.375H1231V597.438H1233.97V600.781H1231V605H1227.12V600.781H1216.16ZM1220.31 597.438H1227.19V587H1226.94L1220.31 597.281V597.438Z" fill="black"/>
<path d="M1211.06 582.375V605H1206.97V586.344H1206.84L1201.56 589.719V586L1207.16 582.375H1211.06Z" fill="black"/>
</g>
<g id="jeongui_hall_151">
<path d="M1922.99 544.75C1921.27 548.817 1916.57 550.714 1912.5 548.988L1776.88 491.417C1772.81 489.691 1770.91 484.994 1772.64 480.927L1832.51 339.877C1834.24 335.81 1838.93 333.912 1843 335.638L1978.63 393.209C1982.7 394.936 1984.59 399.632 1982.87 403.699L1922.99 544.75Z" fill="#F7FBFF"/>
<path d="M1841.83 338.4L1843 335.638L1978.63 393.209L1977.46 395.971L1841.83 338.4ZM1835.27 341.049L1775.4 482.099C1774.32 484.641 1775.51 487.577 1778.05 488.656L1913.68 546.227C1916.22 547.305 1919.15 546.12 1920.23 543.578L1980.11 402.527C1981.18 399.985 1980 397.05 1977.46 395.971L1978.63 393.209L1979 393.379C1982.81 395.228 1984.54 399.759 1982.87 403.699L1922.99 544.75C1921.27 548.817 1916.57 550.714 1912.5 548.988L1776.88 491.417L1776.5 491.247C1772.69 489.398 1770.97 484.867 1772.64 480.927L1832.51 339.877L1832.68 339.502C1834.47 335.817 1838.77 334.079 1842.62 335.487L1843 335.638L1841.83 338.4C1839.29 337.321 1836.35 338.507 1835.27 341.049Z" fill="#2E2F33" fill-opacity="0.88"/>
<path d="M1896.5 431.375V454H1892.41V435.344H1892.28L1887 438.719V435L1892.6 431.375H1896.5Z" fill="black"/>
<path d="M1875.6 454.312C1871.06 454.312 1867.75 451.625 1867.63 447.875H1871.6C1871.72 449.719 1873.44 451.031 1875.6 451.031C1878.13 451.031 1879.94 449.188 1879.94 446.688C1879.94 444.094 1878.06 442.25 1875.47 442.25C1873.72 442.219 1872.44 442.844 1871.72 444.188H1867.94L1869.31 431.375H1882.69V434.781H1872.66L1871.97 440.781H1872.19C1873.06 439.781 1874.72 439.062 1876.56 439.062C1880.78 439.062 1883.88 442.219 1883.88 446.562C1883.88 451.094 1880.47 454.312 1875.6 454.312Z" fill="black"/>
<path d="M1862.06 431.375V454H1857.97V435.344H1857.85L1852.56 438.719V435L1858.16 431.375H1862.06Z" fill="black"/>
</g>
<g id="jeongui_hall_152">
<path d="M1862.48 829.093C1861.66 831.019 1860.12 832.548 1858.19 833.352L1590.1 945.006C1583.5 947.753 1576.89 941.13 1579.64 934.536L1731.18 571.917C1732.89 567.825 1737.6 565.905 1741.69 567.638L1930.71 647.872C1934.78 649.599 1936.67 654.295 1934.95 658.362L1862.48 829.093Z" fill="#F7FBFF"/>
<path d="M1934.95 658.362L1862.48 829.093C1861.71 830.898 1860.31 832.355 1858.54 833.193L1858.19 833.352L1590.1 945.006C1583.5 947.753 1576.89 941.13 1579.64 934.536L1731.18 571.917C1732.84 567.953 1737.31 566.027 1741.3 567.487L1741.69 567.638L1740.52 570.4C1737.96 569.316 1735.02 570.517 1733.95 573.074L1582.41 935.693C1580.69 939.814 1584.82 943.954 1588.95 942.236L1857.03 830.583C1858.24 830.08 1859.2 829.125 1859.71 827.921L1932.18 657.19C1933.26 654.648 1932.08 651.713 1929.54 650.634L1930.71 647.872L1931.08 648.043C1934.77 649.833 1936.5 654.133 1935.1 657.979L1934.95 658.362ZM1740.52 570.4L1741.69 567.638L1930.71 647.872L1929.54 650.634L1740.52 570.4Z" fill="#2E2F33" fill-opacity="0.88"/>
<path d="M1767.31 767V764.062L1775.31 756.344C1777.59 754.062 1778.78 752.719 1778.78 750.812C1778.78 748.719 1777.12 747.375 1774.91 747.375C1772.56 747.375 1771.06 748.844 1771.09 751.125H1767.22C1767.19 746.844 1770.41 744.062 1774.94 744.062C1779.56 744.062 1782.69 746.812 1782.69 750.625C1782.69 753.188 1781.44 755.25 1777 759.438L1772.97 763.438V763.594H1783.03V767H1767.31Z" fill="black"/>
<path d="M1755.59 767.312C1751.06 767.312 1747.75 764.625 1747.62 760.875H1751.59C1751.72 762.719 1753.44 764.031 1755.59 764.031C1758.12 764.031 1759.94 762.188 1759.94 759.688C1759.94 757.094 1758.06 755.25 1755.47 755.25C1753.72 755.219 1752.44 755.844 1751.72 757.188H1747.94L1749.31 744.375H1762.69V747.781H1752.66L1751.97 753.781H1752.19C1753.06 752.781 1754.72 752.062 1756.56 752.062C1760.78 752.062 1763.88 755.219 1763.88 759.562C1763.88 764.094 1760.47 767.312 1755.59 767.312Z" fill="black"/>
<path d="M1742.06 744.375V767H1737.97V748.344H1737.84L1732.56 751.719V748L1738.16 744.375H1742.06Z" fill="black"/>
</g>
<g id="jeongui_hall_125">
<path d="M1475.64 1009.65C1473.91 1005.58 1475.81 1000.89 1479.88 999.161L1547.07 970.638C1551.14 968.912 1555.84 970.809 1557.56 974.876L1624.85 1133.39C1626.57 1137.46 1624.68 1142.15 1620.61 1143.88L1553.41 1172.4C1549.35 1174.13 1544.65 1172.23 1542.92 1168.16L1475.64 1009.65Z" fill="#F7FBFF"/>
<path d="M1619.44 1141.12L1620.61 1143.88L1553.41 1172.4L1552.24 1169.64L1619.44 1141.12ZM1622.09 1134.56L1554.8 976.048C1553.72 973.507 1550.79 972.321 1548.25 973.4L1481.05 1001.92C1478.51 1003 1477.32 1005.94 1478.4 1008.48L1545.68 1166.99C1546.76 1169.53 1549.7 1170.72 1552.24 1169.64L1553.41 1172.4L1553.03 1172.55C1549.18 1173.96 1544.88 1172.22 1543.09 1168.54L1542.92 1168.16L1475.64 1009.65C1473.91 1005.58 1475.81 1000.89 1479.88 999.161L1547.07 970.638C1551.14 968.912 1555.84 970.809 1557.56 974.876L1624.85 1133.39L1625 1133.77C1626.41 1137.62 1624.67 1141.92 1620.98 1143.71L1620.61 1143.88L1619.44 1141.12C1621.98 1140.04 1623.16 1137.1 1622.09 1134.56Z" fill="#2E2F33" fill-opacity="0.88"/>
<path d="M1566.88 1083.31C1562.34 1083.31 1559.03 1080.62 1558.91 1076.88H1562.88C1563 1078.72 1564.72 1080.03 1566.88 1080.03C1569.41 1080.03 1571.22 1078.19 1571.22 1075.69C1571.22 1073.09 1569.34 1071.25 1566.75 1071.25C1565 1071.22 1563.72 1071.84 1563 1073.19H1559.22L1560.59 1060.38H1573.97V1063.78H1563.94L1563.25 1069.78H1563.47C1564.34 1068.78 1566 1068.06 1567.84 1068.06C1572.06 1068.06 1575.16 1071.22 1575.16 1075.56C1575.16 1080.09 1571.75 1083.31 1566.88 1083.31Z" fill="black"/>
<path d="M1539.56 1083V1080.06L1547.56 1072.34C1549.84 1070.06 1551.03 1068.72 1551.03 1066.81C1551.03 1064.72 1549.38 1063.38 1547.16 1063.38C1544.81 1063.38 1543.31 1064.84 1543.34 1067.12H1539.47C1539.44 1062.84 1542.66 1060.06 1547.19 1060.06C1551.81 1060.06 1554.94 1062.81 1554.94 1066.62C1554.94 1069.19 1553.69 1071.25 1549.25 1075.44L1545.22 1079.44V1079.59H1555.28V1083H1539.56Z" fill="black"/>
<path d="M1534.06 1060.38V1083H1529.97V1064.34H1529.84L1524.56 1067.72V1064L1530.16 1060.38H1534.06Z" fill="black"/>
</g>
<g id="jeongui_hall_126">
<path d="M1622.08 1134.68C1623.81 1138.75 1628.5 1140.64 1632.57 1138.92L1702.46 1109.25C1706.53 1107.52 1708.43 1102.83 1706.7 1098.76L1639.26 939.877C1637.53 935.81 1632.84 933.912 1628.77 935.638L1558.88 965.307C1554.81 967.033 1552.91 971.73 1554.64 975.797L1622.08 1134.68Z" fill="#F7FBFF"/>
<path d="M1629.94 938.4L1628.77 935.638L1558.88 965.307L1560.05 968.068L1629.94 938.4ZM1636.5 941.049L1703.94 1099.93C1705.02 1102.47 1703.83 1105.41 1701.29 1106.49L1631.4 1136.16C1628.86 1137.24 1625.92 1136.05 1624.84 1133.51L1557.4 974.625C1556.32 972.083 1557.51 969.147 1560.05 968.068L1558.88 965.307C1554.81 967.033 1552.91 971.73 1554.64 975.797L1622.08 1134.68C1623.75 1138.62 1628.21 1140.52 1632.19 1139.07L1632.57 1138.92L1702.46 1109.25L1702.84 1109.08C1706.65 1107.23 1708.37 1102.7 1706.7 1098.76L1639.26 939.877L1639.09 939.501C1637.3 935.817 1633 934.079 1629.15 935.487L1628.77 935.638L1629.94 938.4C1632.48 937.321 1635.42 938.507 1636.5 941.049Z" fill="#2E2F33" fill-opacity="0.88"/>
<path d="M1647.31 1049.31C1642.91 1049.28 1638.47 1046.66 1638.5 1038.31C1638.5 1030.56 1642.03 1026.06 1647.56 1026.06C1651.94 1026.06 1654.94 1028.81 1655.44 1032.47H1651.41C1651 1030.75 1649.62 1029.59 1647.56 1029.59C1644.28 1029.59 1642.44 1032.5 1642.44 1037.25H1642.66C1643.81 1035.31 1646 1034.16 1648.47 1034.16C1652.53 1034.16 1655.66 1037.22 1655.66 1041.5C1655.66 1046 1652.31 1049.34 1647.31 1049.31ZM1647.31 1046.03C1649.84 1046.03 1651.72 1044.06 1651.72 1041.59C1651.72 1039.19 1649.87 1037.25 1647.37 1037.25C1644.84 1037.25 1642.91 1039.25 1642.87 1041.62C1642.91 1044 1644.75 1046.03 1647.31 1046.03Z" fill="black"/>
<path d="M1619.56 1049V1046.06L1627.56 1038.34C1629.84 1036.06 1631.03 1034.72 1631.03 1032.81C1631.03 1030.72 1629.37 1029.38 1627.16 1029.38C1624.81 1029.38 1623.31 1030.84 1623.34 1033.12H1619.47C1619.44 1028.84 1622.66 1026.06 1627.19 1026.06C1631.81 1026.06 1634.94 1028.81 1634.94 1032.62C1634.94 1035.19 1633.69 1037.25 1629.25 1041.44L1625.22 1045.44V1045.59H1635.28V1049H1619.56Z" fill="black"/>
<path d="M1614.06 1026.38V1049H1609.97V1030.34H1609.84L1604.56 1033.72V1030L1610.16 1026.38H1614.06Z" fill="black"/>
</g>
<g id="jeongui_hall_127">
<path d="M1705.08 1101.02C1706.81 1105.09 1711.5 1106.98 1715.57 1105.26L1868.72 1040.25C1872.78 1038.52 1874.68 1033.83 1872.95 1029.76L1805.51 870.877C1803.79 866.81 1799.09 864.912 1795.02 866.639L1641.88 931.645C1637.81 933.371 1635.91 938.068 1637.64 942.135L1705.08 1101.02Z" fill="#F7FBFF"/>
<path d="M1796.19 869.4L1795.02 866.639L1641.88 931.645L1643.05 934.406L1796.19 869.4ZM1802.75 872.049L1870.19 1030.93C1871.27 1033.47 1870.09 1036.41 1867.54 1037.49L1714.4 1102.49C1711.86 1103.57 1708.92 1102.39 1707.84 1099.85L1640.4 940.963C1639.32 938.421 1640.51 935.485 1643.05 934.406L1641.88 931.645L1641.5 931.815C1637.69 933.664 1635.97 938.195 1637.64 942.135L1705.08 1101.02C1706.81 1105.09 1711.5 1106.98 1715.57 1105.26L1868.72 1040.25L1869.09 1040.08C1872.9 1038.23 1874.63 1033.7 1872.95 1029.76L1805.51 870.877L1805.34 870.502C1803.55 866.817 1799.25 865.079 1795.4 866.487L1795.02 866.639L1796.19 869.4C1798.74 868.321 1801.67 869.507 1802.75 872.049Z" fill="#2E2F33" fill-opacity="0.88"/>
<path d="M1764.69 997L1774.5 977.938V977.781H1763.12V974.375H1778.72V977.844L1768.91 997H1764.69Z" fill="black"/>
<path d="M1744.56 997V994.062L1752.56 986.344C1754.84 984.062 1756.03 982.719 1756.03 980.812C1756.03 978.719 1754.37 977.375 1752.16 977.375C1749.81 977.375 1748.31 978.844 1748.34 981.125H1744.47C1744.44 976.844 1747.66 974.062 1752.19 974.062C1756.81 974.062 1759.94 976.812 1759.94 980.625C1759.94 983.188 1758.69 985.25 1754.25 989.438L1750.22 993.438V993.594H1760.28V997H1744.56Z" fill="black"/>
<path d="M1739.06 974.375V997H1734.97V978.344H1734.84L1729.56 981.719V978L1735.16 974.375H1739.06Z" fill="black"/>
</g>
<g id="jeongui_hall_129">
<path d="M1870.08 1030.68C1871.81 1034.75 1876.5 1036.64 1880.57 1034.92L1950.46 1005.25C1954.53 1003.52 1956.43 998.827 1954.7 994.76L1887.26 835.877C1885.53 831.81 1880.84 829.912 1876.77 831.638L1806.88 861.307C1802.81 863.033 1800.91 867.73 1802.64 871.797L1870.08 1030.68Z" fill="#F7FBFF"/>
<path d="M1877.94 834.4L1876.77 831.638L1806.88 861.307L1808.05 864.068L1877.94 834.4ZM1884.5 837.049L1951.94 995.932C1953.02 998.474 1951.83 1001.41 1949.29 1002.49L1879.4 1032.16C1876.86 1033.24 1873.92 1032.05 1872.84 1029.51L1805.4 870.625C1804.32 868.083 1805.51 865.147 1808.05 864.068L1806.88 861.307C1802.81 863.033 1800.91 867.73 1802.64 871.797L1870.08 1030.68C1871.75 1034.62 1876.21 1036.52 1880.19 1035.07L1880.57 1034.92L1950.46 1005.25L1950.84 1005.08C1954.65 1003.23 1956.37 998.7 1954.7 994.76L1887.26 835.877L1887.09 835.501C1885.3 831.817 1881 830.079 1877.15 831.487L1876.77 831.638L1877.94 834.4C1880.48 833.321 1883.42 834.507 1884.5 837.049Z" fill="#2E2F33" fill-opacity="0.88"/>
<path d="M1894.87 922.062C1899.31 922.094 1903.69 924.719 1903.72 933C1903.72 940.812 1900.19 945.312 1894.62 945.312C1890.25 945.312 1887.25 942.594 1886.75 938.844H1890.78C1891.19 940.625 1892.56 941.781 1894.62 941.781C1897.91 941.781 1899.75 938.875 1899.78 934.031H1899.53C1898.37 936 1896.22 937.156 1893.72 937.156C1889.69 937.156 1886.56 934.094 1886.53 929.812C1886.53 925.375 1889.84 922.031 1894.87 922.062ZM1894.91 925.344C1892.37 925.344 1890.47 927.312 1890.5 929.719C1890.5 932.156 1892.31 934.062 1894.84 934.062C1897.34 934.062 1899.31 932.031 1899.28 929.687C1899.28 927.375 1897.44 925.344 1894.91 925.344Z" fill="black"/>
<path d="M1867.56 945V942.062L1875.56 934.344C1877.84 932.062 1879.03 930.719 1879.03 928.812C1879.03 926.719 1877.37 925.375 1875.16 925.375C1872.81 925.375 1871.31 926.844 1871.34 929.125H1867.47C1867.44 924.844 1870.66 922.062 1875.19 922.062C1879.81 922.062 1882.94 924.812 1882.94 928.625C1882.94 931.188 1881.69 933.25 1877.25 937.438L1873.22 941.438V941.594H1883.28V945H1867.56Z" fill="black"/>
<path d="M1862.06 922.375V945H1857.97V926.344H1857.84L1852.56 929.719V926L1858.16 922.375H1862.06Z" fill="black"/>
</g>
<g id="jeongui_hall_130">
<path d="M1952.08 996.68C1953.81 1000.75 1958.5 1002.64 1962.57 1000.92L2032.46 971.25C2036.53 969.524 2038.43 964.827 2036.7 960.76L1969.26 801.877C1967.53 797.81 1962.84 795.912 1958.77 797.638L1888.88 827.307C1884.81 829.033 1882.91 833.73 1884.64 837.797L1952.08 996.68Z" fill="#F7FBFF"/>
<path d="M1959.94 800.4L1958.77 797.638L1888.88 827.307L1890.05 830.068L1959.94 800.4ZM1966.5 803.049L2033.94 961.932C2035.02 964.474 2033.83 967.409 2031.29 968.488L1961.4 998.157C1958.86 999.236 1955.92 998.05 1954.84 995.508L1887.4 836.625C1886.32 834.083 1887.51 831.147 1890.05 830.068L1888.88 827.307C1884.81 829.033 1882.91 833.73 1884.64 837.797L1952.08 996.68C1953.75 1000.62 1958.21 1002.52 1962.19 1001.07L1962.57 1000.92L2032.46 971.25L2032.84 971.079C2036.65 969.23 2038.37 964.7 2036.7 960.76L1969.26 801.877L1969.09 801.501C1967.3 797.817 1963 796.079 1959.15 797.487L1958.77 797.638L1959.94 800.4C1962.48 799.321 1965.42 800.507 1966.5 803.049Z" fill="#2E2F33" fill-opacity="0.88"/>
<path d="M1978.12 911.312C1972.69 911.312 1969.44 907.094 1969.44 899.688C1969.44 892.312 1972.69 888.062 1978.12 888.062C1983.53 888.062 1986.81 892.312 1986.81 899.688C1986.81 907.094 1983.56 911.312 1978.12 911.312ZM1978.12 907.906C1980.97 907.906 1982.72 905.125 1982.72 899.688C1982.72 894.281 1980.94 891.438 1978.12 891.438C1975.31 891.438 1973.53 894.281 1973.53 899.688C1973.53 905.125 1975.28 907.906 1978.12 907.906Z" fill="black"/>
<path d="M1957.78 911.312C1952.94 911.312 1949.5 908.688 1949.41 904.875H1953.5C1953.62 906.688 1955.44 907.875 1957.78 907.875C1960.28 907.875 1962.06 906.5 1962.06 904.5C1962.06 902.469 1960.31 901 1957.37 901H1955.34V897.875H1957.37C1959.78 897.875 1961.47 896.531 1961.44 894.562C1961.47 892.656 1960.03 891.375 1957.81 891.375C1955.69 891.375 1953.84 892.562 1953.78 894.469H1949.87C1949.97 890.656 1953.41 888.062 1957.84 888.062C1962.44 888.062 1965.41 890.875 1965.37 894.344C1965.41 896.875 1963.72 898.719 1961.25 899.219V899.406C1964.44 899.844 1966.25 901.875 1966.22 904.719C1966.25 908.531 1962.69 911.312 1957.78 911.312Z" fill="black"/>
<path d="M1944.06 888.375V911H1939.97V892.344H1939.84L1934.56 895.719V892L1940.16 888.375H1944.06Z" fill="black"/>
</g>
<g id="jeongui_hall_131">
<path d="M2034.08 960.776C2035.81 964.843 2040.5 966.741 2044.57 965.014L2109.98 937.25C2114.05 935.523 2115.94 930.827 2114.22 926.76L2046.78 767.876C2045.05 763.809 2040.35 761.912 2036.29 763.638L1970.88 791.403C1966.81 793.129 1964.91 797.825 1966.64 801.893L2034.08 960.776Z" fill="#F7FBFF"/>
<path d="M2037.46 766.4L2036.29 763.638L1970.88 791.403L1972.05 794.164L2037.46 766.4ZM2044.01 769.049L2111.46 927.932C2112.53 930.474 2111.35 933.409 2108.81 934.488L2043.4 962.253C2040.86 963.332 2037.92 962.146 2036.84 959.604L1969.4 800.721C1968.32 798.179 1969.51 795.243 1972.05 794.164L1970.88 791.403L1970.5 791.573C1966.69 793.422 1964.97 797.953 1966.64 801.893L2034.08 960.776C2035.81 964.843 2040.5 966.741 2044.57 965.014L2109.98 937.25C2114.05 935.523 2115.94 930.827 2114.22 926.76L2046.78 767.876C2045.05 763.809 2040.35 761.912 2036.29 763.638L2037.46 766.4C2040 765.321 2042.93 766.507 2044.01 769.049Z" fill="#2E2F33" fill-opacity="0.88"/>
<path d="M2061.97 853.375V876H2057.87V857.344H2057.75L2052.47 860.719V857L2058.06 853.375H2061.97Z" fill="black"/>
<path d="M2040.78 876.312C2035.94 876.312 2032.5 873.688 2032.41 869.875H2036.5C2036.62 871.688 2038.44 872.875 2040.78 872.875C2043.28 872.875 2045.06 871.5 2045.06 869.5C2045.06 867.469 2043.31 866 2040.37 866H2038.34V862.875H2040.37C2042.78 862.875 2044.47 861.531 2044.44 859.562C2044.47 857.656 2043.03 856.375 2040.81 856.375C2038.69 856.375 2036.84 857.562 2036.78 859.469H2032.87C2032.97 855.656 2036.41 853.062 2040.84 853.062C2045.44 853.062 2048.41 855.875 2048.37 859.344C2048.41 861.875 2046.72 863.719 2044.25 864.219V864.406C2047.44 864.844 2049.25 866.875 2049.22 869.719C2049.25 873.531 2045.69 876.312 2040.78 876.312Z" fill="black"/>
<path d="M2027.06 853.375V876H2022.97V857.344H2022.84L2017.56 860.719V857L2023.16 853.375H2027.06Z" fill="black"/>
</g>
<g id="jeongui_hall_132">
<path d="M2112.08 927.344C2113.81 931.411 2118.5 933.309 2122.57 931.583L2196.39 900.25C2200.45 898.523 2202.35 893.827 2200.62 889.76L2133.18 730.876C2131.46 726.809 2126.76 724.912 2122.69 726.638L2048.88 757.971C2044.81 759.697 2042.91 764.394 2044.64 768.461L2112.08 927.344Z" fill="#F7FBFF"/>
<path d="M2123.86 729.4L2122.69 726.638L2048.88 757.971L2050.05 760.732L2123.86 729.4ZM2130.42 732.048L2197.86 890.932C2198.94 893.474 2197.76 896.409 2195.21 897.488L2121.4 928.821C2118.86 929.9 2115.92 928.714 2114.84 926.172L2047.4 767.289C2046.32 764.747 2047.51 761.811 2050.05 760.732L2048.88 757.971C2044.81 759.697 2042.91 764.394 2044.64 768.461L2112.08 927.344C2113.81 931.411 2118.5 933.309 2122.57 931.583L2196.39 900.25C2200.45 898.523 2202.35 893.827 2200.62 889.76L2133.18 730.876C2131.46 726.809 2126.76 724.912 2122.69 726.638L2123.86 729.4C2126.41 728.321 2129.34 729.507 2130.42 732.048Z" fill="#2E2F33" fill-opacity="0.88"/>
<path d="M2131.78 841V838.062L2139.78 830.344C2142.06 828.062 2143.25 826.719 2143.25 824.812C2143.25 822.719 2141.59 821.375 2139.37 821.375C2137.03 821.375 2135.53 822.844 2135.56 825.125H2131.69C2131.66 820.844 2134.87 818.062 2139.41 818.062C2144.03 818.062 2147.16 820.812 2147.16 824.625C2147.16 827.188 2145.91 829.25 2141.47 833.438L2137.44 837.438V837.594H2147.5V841H2131.78Z" fill="black"/>
<path d="M2119.78 841.312C2114.94 841.312 2111.5 838.688 2111.41 834.875H2115.5C2115.62 836.688 2117.44 837.875 2119.78 837.875C2122.28 837.875 2124.06 836.5 2124.06 834.5C2124.06 832.469 2122.31 831 2119.37 831H2117.34V827.875H2119.37C2121.78 827.875 2123.47 826.531 2123.44 824.562C2123.47 822.656 2122.03 821.375 2119.81 821.375C2117.69 821.375 2115.84 822.562 2115.78 824.469H2111.87C2111.97 820.656 2115.41 818.062 2119.84 818.062C2124.44 818.062 2127.41 820.875 2127.37 824.344C2127.41 826.875 2125.72 828.719 2123.25 829.219V829.406C2126.44 829.844 2128.25 831.875 2128.22 834.719C2128.25 838.531 2124.69 841.312 2119.78 841.312Z" fill="black"/>
<path d="M2106.06 818.375V841H2101.97V822.344H2101.84L2096.56 825.719V822L2102.16 818.375H2106.06Z" fill="black"/>
</g>
<g id="jeongui_hall_133">
<path d="M2198.08 890.344C2199.81 894.411 2204.5 896.309 2208.57 894.583L2282.39 863.25C2286.45 861.523 2288.35 856.827 2286.62 852.76L2219.18 693.876C2217.46 689.809 2212.76 687.912 2208.69 689.638L2134.88 720.971C2130.81 722.697 2128.91 727.394 2130.64 731.461L2198.08 890.344Z" fill="#F7FBFF"/>
<path d="M2209.86 692.4L2208.69 689.638L2134.88 720.971L2136.05 723.732L2209.86 692.4ZM2216.42 695.048L2283.86 853.932C2284.94 856.474 2283.76 859.409 2281.21 860.488L2207.4 891.821C2204.86 892.9 2201.92 891.714 2200.84 889.172L2133.4 730.289C2132.32 727.747 2133.51 724.811 2136.05 723.732L2134.88 720.971C2130.81 722.697 2128.91 727.394 2130.64 731.461L2198.08 890.344C2199.81 894.411 2204.5 896.309 2208.57 894.583L2282.39 863.25C2286.45 861.523 2288.35 856.827 2286.62 852.76L2219.18 693.876C2217.46 689.809 2212.76 687.912 2208.69 689.638L2209.86 692.4C2212.41 691.321 2215.34 692.507 2216.42 695.048Z" fill="#2E2F33" fill-opacity="0.88"/>
<path d="M2225 804.312C2220.16 804.312 2216.72 801.688 2216.62 797.875H2220.72C2220.84 799.688 2222.66 800.875 2225 800.875C2227.5 800.875 2229.28 799.5 2229.28 797.5C2229.28 795.469 2227.53 794 2224.59 794H2222.56V790.875H2224.59C2227 790.875 2228.69 789.531 2228.66 787.562C2228.69 785.656 2227.25 784.375 2225.03 784.375C2222.91 784.375 2221.06 785.562 2221 787.469H2217.09C2217.19 783.656 2220.62 781.062 2225.06 781.062C2229.66 781.062 2232.62 783.875 2232.59 787.344C2232.62 789.875 2230.94 791.719 2228.47 792.219V792.406C2231.66 792.844 2233.47 794.875 2233.44 797.719C2233.47 801.531 2229.91 804.312 2225 804.312Z" fill="black"/>
<path d="M2204.78 804.312C2199.94 804.312 2196.5 801.688 2196.41 797.875H2200.5C2200.62 799.688 2202.44 800.875 2204.78 800.875C2207.28 800.875 2209.06 799.5 2209.06 797.5C2209.06 795.469 2207.31 794 2204.37 794H2202.34V790.875H2204.37C2206.78 790.875 2208.47 789.531 2208.44 787.562C2208.47 785.656 2207.03 784.375 2204.81 784.375C2202.69 784.375 2200.84 785.562 2200.78 787.469H2196.87C2196.97 783.656 2200.41 781.062 2204.84 781.062C2209.44 781.062 2212.41 783.875 2212.37 787.344C2212.41 789.875 2210.72 791.719 2208.25 792.219V792.406C2211.44 792.844 2213.25 794.875 2213.22 797.719C2213.25 801.531 2209.69 804.312 2204.78 804.312Z" fill="black"/>
<path d="M2191.06 781.375V804H2186.97V785.344H2186.84L2181.56 788.719V785L2187.16 781.375H2191.06Z" fill="black"/>
</g>
<g id="jeongui_hall_134">
<path d="M2284.08 853.344C2285.81 857.411 2290.5 859.309 2294.57 857.583L2368.39 826.25C2372.45 824.523 2374.35 819.827 2372.62 815.76L2305.18 656.876C2303.46 652.809 2298.76 650.912 2294.69 652.638L2220.88 683.971C2216.81 685.697 2214.91 690.394 2216.64 694.461L2284.08 853.344Z" fill="#F7FBFF"/>
<path d="M2295.86 655.4L2294.69 652.638L2220.88 683.971L2222.05 686.732L2295.86 655.4ZM2302.42 658.048L2369.86 816.932C2370.94 819.474 2369.76 822.409 2367.21 823.488L2293.4 854.821C2290.86 855.9 2287.92 854.714 2286.84 852.172L2219.4 693.289C2218.32 690.747 2219.51 687.811 2222.05 686.732L2220.88 683.971C2216.81 685.697 2214.91 690.394 2216.64 694.461L2284.08 853.344C2285.81 857.411 2290.5 859.309 2294.57 857.583L2368.39 826.25C2372.45 824.523 2374.35 819.827 2372.62 815.76L2305.18 656.876C2303.46 652.809 2298.76 650.912 2294.69 652.638L2295.86 655.4C2298.41 654.321 2301.34 655.507 2302.42 658.048Z" fill="#2E2F33" fill-opacity="0.88"/>
<path d="M2302.37 762.781V759.531L2312.16 744.375H2317.22V759.438H2320.19V762.781H2317.22V767H2313.34V762.781H2302.37ZM2306.53 759.438H2313.41V749H2313.16L2306.53 759.281V759.438Z" fill="black"/>
<path d="M2290.78 767.312C2285.94 767.312 2282.5 764.688 2282.41 760.875H2286.5C2286.62 762.688 2288.44 763.875 2290.78 763.875C2293.28 763.875 2295.06 762.5 2295.06 760.5C2295.06 758.469 2293.31 757 2290.37 757H2288.34V753.875H2290.37C2292.78 753.875 2294.47 752.531 2294.44 750.562C2294.47 748.656 2293.03 747.375 2290.81 747.375C2288.69 747.375 2286.84 748.562 2286.78 750.469H2282.87C2282.97 746.656 2286.41 744.062 2290.84 744.062C2295.44 744.062 2298.41 746.875 2298.37 750.344C2298.41 752.875 2296.72 754.719 2294.25 755.219V755.406C2297.44 755.844 2299.25 757.875 2299.22 760.719C2299.25 764.531 2295.69 767.312 2290.78 767.312Z" fill="black"/>
<path d="M2277.06 744.375V767H2272.97V748.344H2272.84L2267.56 751.719V748L2273.16 744.375H2277.06Z" fill="black"/>
</g>
<g id="jeongui_hall_135">
<path d="M2289.08 1112.12C2290.81 1116.19 2295.5 1118.09 2299.57 1116.36L2457.67 1049.25C2461.74 1047.52 2463.64 1042.83 2461.91 1038.76L2394.47 879.876C2392.74 875.809 2388.05 873.912 2383.98 875.638L2225.88 942.749C2221.81 944.475 2219.91 949.172 2221.64 953.239L2289.08 1112.12Z" fill="#F7FBFF"/>
<path d="M2385.15 878.4L2383.98 875.638L2225.88 942.749L2227.05 945.51L2385.15 878.4ZM2391.71 881.048L2459.15 1039.93C2460.23 1042.47 2459.04 1045.41 2456.5 1046.49L2298.4 1113.6C2295.86 1114.68 2292.92 1113.49 2291.84 1110.95L2224.4 952.066C2223.32 949.525 2224.51 946.589 2227.05 945.51L2225.88 942.749C2221.81 944.475 2219.91 949.172 2221.64 953.239L2289.08 1112.12C2290.81 1116.19 2295.5 1118.09 2299.57 1116.36L2457.67 1049.25C2461.74 1047.52 2463.64 1042.83 2461.91 1038.76L2394.47 879.876C2392.74 875.809 2388.05 873.912 2383.98 875.638L2385.15 878.4C2387.69 877.321 2390.63 878.507 2391.71 881.048Z" fill="#2E2F33" fill-opacity="0.88"/>
<path d="M2359.81 1007.31C2355.28 1007.31 2351.97 1004.62 2351.84 1000.88H2355.81C2355.94 1002.72 2357.66 1004.03 2359.81 1004.03C2362.34 1004.03 2364.16 1002.19 2364.16 999.688C2364.16 997.094 2362.28 995.25 2359.69 995.25C2357.94 995.219 2356.66 995.844 2355.94 997.188H2352.16L2353.53 984.375H2366.91V987.781H2356.87L2356.19 993.781H2356.41C2357.28 992.781 2358.94 992.062 2360.78 992.062C2365 992.062 2368.09 995.219 2368.09 999.562C2368.09 1004.09 2364.69 1007.31 2359.81 1007.31Z" fill="black"/>
<path d="M2339.78 1007.31C2334.94 1007.31 2331.5 1004.69 2331.41 1000.88H2335.5C2335.62 1002.69 2337.44 1003.88 2339.78 1003.88C2342.28 1003.88 2344.06 1002.5 2344.06 1000.5C2344.06 998.469 2342.31 997 2339.37 997H2337.34V993.875H2339.37C2341.78 993.875 2343.47 992.531 2343.44 990.562C2343.47 988.656 2342.03 987.375 2339.81 987.375C2337.69 987.375 2335.84 988.562 2335.78 990.469H2331.87C2331.97 986.656 2335.41 984.062 2339.84 984.062C2344.44 984.062 2347.41 986.875 2347.37 990.344C2347.41 992.875 2345.72 994.719 2343.25 995.219V995.406C2346.44 995.844 2348.25 997.875 2348.22 1000.72C2348.25 1004.53 2344.69 1007.31 2339.78 1007.31Z" fill="black"/>
<path d="M2326.06 984.375V1007H2321.97V988.344H2321.84L2316.56 991.719V988L2322.16 984.375H2326.06Z" fill="black"/>
</g>
<g id="jeongui_hall_136">
<path d="M2127.08 1182.26C2128.81 1186.33 2133.5 1188.23 2137.57 1186.5L2286.58 1123.25C2290.65 1121.52 2292.55 1116.83 2290.82 1112.76L2223.38 953.876C2221.65 949.809 2216.96 947.912 2212.89 949.638L2063.88 1012.89C2059.81 1014.62 2057.91 1019.31 2059.64 1023.38L2127.08 1182.26Z" fill="#F7FBFF"/>
<path d="M2214.06 952.4L2212.89 949.638L2063.88 1012.89L2065.05 1015.65L2214.06 952.4ZM2220.62 955.049L2288.06 1113.93C2289.14 1116.47 2287.95 1119.41 2285.41 1120.49L2136.4 1183.74C2133.86 1184.82 2130.92 1183.63 2129.84 1181.09L2062.4 1022.21C2061.32 1019.67 2062.51 1016.73 2065.05 1015.65L2063.88 1012.89L2063.5 1013.06C2059.69 1014.91 2057.97 1019.44 2059.64 1023.38L2127.08 1182.26C2128.81 1186.33 2133.5 1188.23 2137.57 1186.5L2286.58 1123.25C2290.65 1121.52 2292.55 1116.83 2290.82 1112.76L2223.38 953.876C2221.65 949.809 2216.96 947.912 2212.89 949.638L2214.06 952.4C2216.6 951.321 2219.54 952.507 2220.62 955.049Z" fill="#2E2F33" fill-opacity="0.88"/>
<path d="M2192.25 1080.31C2187.84 1080.28 2183.41 1077.66 2183.44 1069.31C2183.44 1061.56 2186.97 1057.06 2192.5 1057.06C2196.87 1057.06 2199.87 1059.81 2200.37 1063.47H2196.34C2195.94 1061.75 2194.56 1060.59 2192.5 1060.59C2189.22 1060.59 2187.37 1063.5 2187.37 1068.25H2187.59C2188.75 1066.31 2190.94 1065.16 2193.41 1065.16C2197.47 1065.16 2200.59 1068.22 2200.59 1072.5C2200.59 1077 2197.25 1080.34 2192.25 1080.31ZM2192.25 1077.03C2194.78 1077.03 2196.66 1075.06 2196.66 1072.59C2196.66 1070.19 2194.81 1068.25 2192.31 1068.25C2189.78 1068.25 2187.84 1070.25 2187.81 1072.62C2187.84 1075 2189.69 1077.03 2192.25 1077.03Z" fill="black"/>
<path d="M2171.78 1080.31C2166.94 1080.31 2163.5 1077.69 2163.41 1073.88H2167.5C2167.62 1075.69 2169.44 1076.88 2171.78 1076.88C2174.28 1076.88 2176.06 1075.5 2176.06 1073.5C2176.06 1071.47 2174.31 1070 2171.37 1070H2169.34V1066.88H2171.37C2173.78 1066.88 2175.47 1065.53 2175.44 1063.56C2175.47 1061.66 2174.03 1060.38 2171.81 1060.38C2169.69 1060.38 2167.84 1061.56 2167.78 1063.47H2163.87C2163.97 1059.66 2167.41 1057.06 2171.84 1057.06C2176.44 1057.06 2179.41 1059.88 2179.37 1063.34C2179.41 1065.88 2177.72 1067.72 2175.25 1068.22V1068.41C2178.44 1068.84 2180.25 1070.88 2180.22 1073.72C2180.25 1077.53 2176.69 1080.31 2171.78 1080.31Z" fill="black"/>
<path d="M2158.06 1057.38V1080H2153.97V1061.34H2153.84L2148.56 1064.72V1061L2154.16 1057.38H2158.06Z" fill="black"/>
</g>
<g id="jeongui_hall_139">
<path d="M1964.08 1251.7C1965.81 1255.77 1970.5 1257.66 1974.57 1255.94L2124.61 1192.25C2128.68 1190.52 2130.57 1185.83 2128.85 1181.76L2061.41 1022.88C2059.68 1018.81 2054.98 1016.91 2050.92 1018.64L1900.88 1082.33C1896.81 1084.05 1894.91 1088.75 1896.64 1092.82L1964.08 1251.7Z" fill="#F7FBFF"/>
<path d="M2052.09 1021.4L2050.92 1018.64L1900.88 1082.33L1902.05 1085.09L2052.09 1021.4ZM2058.64 1024.05L2126.09 1182.93C2127.16 1185.47 2125.98 1188.41 2123.44 1189.49L1973.4 1253.18C1970.86 1254.25 1967.92 1253.07 1966.84 1250.53L1899.4 1091.64C1898.32 1089.1 1899.51 1086.17 1902.05 1085.09L1900.88 1082.33C1896.81 1084.05 1894.91 1088.75 1896.64 1092.82L1964.08 1251.7C1965.81 1255.77 1970.5 1257.66 1974.57 1255.94L2124.61 1192.25C2128.68 1190.52 2130.57 1185.83 2128.85 1181.76L2061.41 1022.88C2059.68 1018.81 2054.98 1016.91 2050.92 1018.64L2052.09 1021.4C2054.63 1020.32 2057.56 1021.51 2058.64 1024.05Z" fill="#2E2F33" fill-opacity="0.88"/>
<path d="M2029.81 1126.06C2034.25 1126.09 2038.62 1128.72 2038.66 1137C2038.66 1144.81 2035.12 1149.31 2029.56 1149.31C2025.19 1149.31 2022.19 1146.59 2021.69 1142.84H2025.72C2026.12 1144.62 2027.5 1145.78 2029.56 1145.78C2032.84 1145.78 2034.69 1142.87 2034.72 1138.03H2034.47C2033.31 1140 2031.16 1141.16 2028.66 1141.16C2024.62 1141.16 2021.5 1138.09 2021.47 1133.81C2021.47 1129.37 2024.78 1126.03 2029.81 1126.06ZM2029.84 1129.34C2027.31 1129.34 2025.41 1131.31 2025.44 1133.72C2025.44 1136.16 2027.25 1138.06 2029.78 1138.06C2032.28 1138.06 2034.25 1136.03 2034.22 1133.69C2034.22 1131.37 2032.37 1129.34 2029.84 1129.34Z" fill="black"/>
<path d="M2009.78 1149.31C2004.94 1149.31 2001.5 1146.69 2001.41 1142.88H2005.5C2005.62 1144.69 2007.44 1145.88 2009.78 1145.88C2012.28 1145.88 2014.06 1144.5 2014.06 1142.5C2014.06 1140.47 2012.31 1139 2009.37 1139H2007.34V1135.88H2009.37C2011.78 1135.88 2013.47 1134.53 2013.44 1132.56C2013.47 1130.66 2012.03 1129.38 2009.81 1129.38C2007.69 1129.38 2005.84 1130.56 2005.78 1132.47H2001.87C2001.97 1128.66 2005.41 1126.06 2009.84 1126.06C2014.44 1126.06 2017.41 1128.88 2017.37 1132.34C2017.41 1134.88 2015.72 1136.72 2013.25 1137.22V1137.41C2016.44 1137.84 2018.25 1139.88 2018.22 1142.72C2018.25 1146.53 2014.69 1149.31 2009.78 1149.31Z" fill="black"/>
<path d="M1996.06 1126.38V1149H1991.97V1130.34H1991.84L1986.56 1133.72V1130L1992.16 1126.38H1996.06Z" fill="black"/>
</g>
<g id="jeongui_hall_141">
<path d="M1796.08 1321.79C1797.81 1325.85 1802.5 1327.75 1806.57 1326.03L1879.07 1295.25C1883.14 1293.52 1885.04 1288.83 1883.31 1284.76L1815.87 1125.88C1814.14 1121.81 1809.45 1119.91 1805.38 1121.64L1732.88 1152.41C1728.81 1154.14 1726.91 1158.84 1728.64 1162.9L1796.08 1321.79Z" fill="#F7FBFF"/>
<path d="M1806.55 1124.4L1805.38 1121.64L1732.88 1152.41L1734.05 1155.18L1806.55 1124.4ZM1813.11 1127.05L1880.55 1285.93C1881.63 1288.47 1880.44 1291.41 1877.9 1292.49L1805.4 1323.26C1802.86 1324.34 1799.92 1323.16 1798.84 1320.62L1731.4 1161.73C1730.32 1159.19 1731.51 1156.26 1734.05 1155.18L1732.88 1152.41C1728.81 1154.14 1726.91 1158.84 1728.64 1162.9L1796.08 1321.79C1797.75 1325.73 1802.21 1327.63 1806.19 1326.18L1806.57 1326.03L1879.07 1295.25L1879.45 1295.08C1883.26 1293.23 1884.98 1288.7 1883.31 1284.76L1815.87 1125.88L1815.7 1125.5C1813.91 1121.82 1809.61 1120.08 1805.76 1121.49L1805.38 1121.64L1806.55 1124.4C1809.09 1123.32 1812.03 1124.51 1813.11 1127.05Z" fill="#2E2F33" fill-opacity="0.88"/>
<path d="M1827.09 1212.37V1235H1823V1216.34H1822.87L1817.59 1219.72V1216L1823.19 1212.37H1827.09Z" fill="black"/>
<path d="M1797.16 1230.78V1227.53L1806.94 1212.37H1812V1227.44H1814.97V1230.78H1812V1235H1808.12V1230.78H1797.16ZM1801.31 1227.44H1808.19V1217H1807.94L1801.31 1227.28V1227.44Z" fill="black"/>
<path d="M1792.06 1212.37V1235H1787.97V1216.34H1787.84L1782.56 1219.72V1216L1788.16 1212.37H1792.06Z" fill="black"/>
</g>
<g id="jeongui_hall_141-1">
<path d="M1881.08 1284.66C1882.81 1288.73 1887.5 1290.63 1891.57 1288.9L1961.42 1259.25C1965.49 1257.52 1967.39 1252.83 1965.66 1248.76L1898.22 1089.88C1896.49 1085.81 1891.79 1083.91 1887.73 1085.64L1817.88 1115.29C1813.81 1117.01 1811.91 1121.71 1813.64 1125.78L1881.08 1284.66Z" fill="#F7FBFF"/>
<path d="M1888.9 1088.4L1887.73 1085.64L1817.88 1115.29L1819.05 1118.05L1888.9 1088.4ZM1895.46 1091.05L1962.9 1249.93C1963.98 1252.47 1962.79 1255.41 1960.25 1256.49L1890.4 1286.14C1887.86 1287.22 1884.92 1286.03 1883.84 1283.49L1816.4 1124.61C1815.32 1122.06 1816.51 1119.13 1819.05 1118.05L1817.88 1115.29L1817.5 1115.46C1813.69 1117.31 1811.97 1121.84 1813.64 1125.78L1881.08 1284.66C1882.81 1288.73 1887.5 1290.63 1891.57 1288.9L1961.42 1259.25C1965.49 1257.52 1967.39 1252.83 1965.66 1248.76L1898.22 1089.88C1896.49 1085.81 1891.79 1083.91 1887.73 1085.64L1888.9 1088.4C1891.44 1087.32 1894.38 1088.51 1895.46 1091.05Z" fill="#2E2F33" fill-opacity="0.88"/>
<path d="M1925.97 1176.38V1199H1921.88V1180.34H1921.75L1916.47 1183.72V1180L1922.06 1176.38H1925.97Z" fill="black"/>
<path d="M1912.91 1186.06V1189.34H1902.72V1186.06H1912.91Z" fill="black"/>
<path d="M1897.09 1176.38V1199H1893V1180.34H1892.88L1887.59 1183.72V1180L1893.19 1176.38H1897.09Z" fill="black"/>
<path d="M1867.16 1194.78V1191.53L1876.94 1176.38H1882V1191.44H1884.97V1194.78H1882V1199H1878.13V1194.78H1867.16ZM1871.31 1191.44H1878.19V1181H1877.94L1871.31 1191.28V1191.44Z" fill="black"/>
<path d="M1862.06 1176.38V1199H1857.97V1180.34H1857.84L1852.56 1183.72V1180L1858.16 1176.38H1862.06Z" fill="black"/>
</g>
<g id="jeongui_hall_143">
<path d="M1631.08 1391.41C1632.81 1395.48 1637.5 1397.37 1641.57 1395.65L1795.64 1330.25C1799.71 1328.52 1801.6 1323.83 1799.88 1319.76L1732.43 1160.88C1730.71 1156.81 1726.01 1154.91 1721.94 1156.64L1567.88 1222.04C1563.81 1223.76 1561.91 1228.46 1563.64 1232.53L1631.08 1391.41Z" fill="#F7FBFF"/>
<path d="M1723.12 1159.4L1721.94 1156.64L1567.88 1222.04L1569.05 1224.8L1723.12 1159.4ZM1729.67 1162.05L1797.12 1320.93C1798.19 1323.47 1797.01 1326.41 1794.47 1327.49L1640.4 1392.89C1637.86 1393.97 1634.92 1392.78 1633.84 1390.24L1566.4 1231.35C1565.32 1228.81 1566.51 1225.88 1569.05 1224.8L1567.88 1222.04C1563.81 1223.76 1561.91 1228.46 1563.64 1232.53L1631.08 1391.41C1632.81 1395.48 1637.5 1397.37 1641.57 1395.65L1795.64 1330.25L1796.01 1330.08C1799.82 1328.23 1801.55 1323.7 1799.88 1319.76L1732.43 1160.88L1732.26 1160.5C1730.47 1156.82 1726.17 1155.08 1722.33 1156.49L1721.94 1156.64L1723.12 1159.4C1725.66 1158.32 1728.59 1159.51 1729.67 1162.05Z" fill="#2E2F33" fill-opacity="0.88"/>
<path d="M1699.44 1287.31C1694.59 1287.31 1691.16 1284.69 1691.06 1280.88H1695.16C1695.28 1282.69 1697.09 1283.88 1699.44 1283.88C1701.94 1283.88 1703.72 1282.5 1703.72 1280.5C1703.72 1278.47 1701.97 1277 1699.03 1277H1697V1273.88H1699.03C1701.44 1273.88 1703.12 1272.53 1703.09 1270.56C1703.12 1268.66 1701.69 1267.38 1699.47 1267.38C1697.34 1267.38 1695.5 1268.56 1695.44 1270.47H1691.53C1691.62 1266.66 1695.06 1264.06 1699.5 1264.06C1704.09 1264.06 1707.06 1266.88 1707.03 1270.34C1707.06 1272.88 1705.37 1274.72 1702.91 1275.22V1275.41C1706.09 1275.84 1707.91 1277.88 1707.87 1280.72C1707.91 1284.53 1704.34 1287.31 1699.44 1287.31Z" fill="black"/>
<path d="M1670.16 1282.78V1279.53L1679.94 1264.38H1685V1279.44H1687.97V1282.78H1685V1287H1681.12V1282.78H1670.16ZM1674.31 1279.44H1681.19V1269H1680.94L1674.31 1279.28V1279.44Z" fill="black"/>
<path d="M1665.06 1264.38V1287H1660.97V1268.34H1660.84L1655.56 1271.72V1268L1661.16 1264.38H1665.06Z" fill="black"/>
</g>
<g id="jeongui_hall_1f_toilet_auditorium_girl">
<path d="M888.68 197.908C889.515 202.247 893.709 205.087 898.048 204.251L990.353 186.48C994.691 185.645 997.531 181.45 996.696 177.112L971.162 44.489C970.327 40.1504 966.132 37.3104 961.794 38.1458L869.489 55.9172C865.15 56.7525 862.31 60.9468 863.146 65.2854L888.68 197.908Z" fill="#FED9C4"/>
<path d="M962.361 41.0916L961.794 38.1458L869.489 55.9172L870.056 58.8631L962.361 41.0916ZM968.216 45.0562L993.75 177.679C994.272 180.391 992.497 183.012 989.785 183.534L897.481 201.305C894.769 201.828 892.148 200.053 891.625 197.341L866.092 64.7182C865.57 62.0066 867.345 59.3851 870.056 58.8631L869.489 55.9172L869.086 56.0056C865.109 56.9828 862.509 60.8236 863.079 64.8796L863.146 65.2854L888.68 197.908C889.489 202.111 893.45 204.907 897.641 204.319L898.048 204.251L990.353 186.48C994.691 185.645 997.531 181.45 996.696 177.112L971.162 44.489L971.074 44.0873C970.097 40.1096 966.257 37.5089 962.201 38.0784L961.794 38.1458L962.361 41.0916C965.073 40.5696 967.694 42.3447 968.216 45.0562Z" fill="#2E2F33" fill-opacity="0.88"/>
<path d="M942.75 97.25H917.25C910.623 97.25 905.25 102.623 905.25 109.25V134.75C905.25 141.377 910.623 146.75 917.25 146.75H942.75C949.378 146.75 954.75 141.377 954.75 134.75V109.25C954.75 102.623 949.378 97.25 942.75 97.25Z" fill="#E76D6D"/>
<path d="M927.275 119.977L921.809 132.524C920.954 134.488 922.392 136.685 924.534 136.685H935.465C937.607 136.685 939.047 134.488 938.19 132.524L932.724 119.977C931.686 117.594 928.31 117.594 927.272 119.977H927.275Z" fill="white"/>
<path d="M930 115.381C932.227 115.381 934.032 113.575 934.032 111.349C934.032 109.122 932.227 107.316 930 107.316C927.774 107.316 925.968 109.122 925.968 111.349C925.968 113.575 927.774 115.381 930 115.381Z" fill="white"/>
</g>
<g id="jeongui_hall_1f_toilet_girl">
<path d="M1518.72 1403.14C1520.45 1407.2 1525.15 1409.1 1529.21 1407.38L1615.41 1370.79C1619.48 1369.06 1621.38 1364.36 1619.65 1360.3L1565.57 1232.88C1563.84 1228.81 1559.14 1226.91 1555.08 1228.64L1468.88 1265.23C1464.81 1266.95 1462.91 1271.65 1464.64 1275.72L1518.72 1403.14Z" fill="#FED9C4"/>
<path d="M1556.25 1231.4L1555.08 1228.64L1468.88 1265.23L1470.05 1267.99L1556.25 1231.4ZM1562.8 1234.05L1616.89 1361.47C1617.97 1364.01 1616.78 1366.95 1614.24 1368.02L1528.04 1404.61C1525.5 1405.69 1522.57 1404.51 1521.49 1401.97L1467.4 1274.55C1466.32 1272 1467.51 1269.07 1470.05 1267.99L1468.88 1265.23C1464.81 1266.95 1462.91 1271.65 1464.64 1275.72L1518.72 1403.14C1520.4 1407.08 1524.86 1408.98 1528.83 1407.53L1529.21 1407.38L1615.41 1370.79C1619.48 1369.06 1621.38 1364.36 1619.65 1360.3L1565.57 1232.88C1563.84 1228.81 1559.14 1226.91 1555.08 1228.64L1556.25 1231.4C1558.79 1230.32 1561.72 1231.51 1562.8 1234.05Z" fill="#2E2F33" fill-opacity="0.88"/>
<path d="M1554.75 1293.25H1529.25C1522.62 1293.25 1517.25 1298.62 1517.25 1305.25V1330.75C1517.25 1337.38 1522.62 1342.75 1529.25 1342.75H1554.75C1561.38 1342.75 1566.75 1337.38 1566.75 1330.75V1305.25C1566.75 1298.62 1561.38 1293.25 1554.75 1293.25Z" fill="#E76D6D"/>
<path d="M1539.27 1315.98L1533.81 1328.52C1532.95 1330.49 1534.39 1332.69 1536.53 1332.69H1547.46C1549.61 1332.69 1551.05 1330.49 1550.19 1328.52L1544.72 1315.98C1543.69 1313.59 1540.31 1313.59 1539.27 1315.98H1539.27Z" fill="white"/>
<path d="M1542 1311.38C1544.23 1311.38 1546.03 1309.58 1546.03 1307.35C1546.03 1305.12 1544.23 1303.32 1542 1303.32C1539.77 1303.32 1537.97 1305.12 1537.97 1307.35C1537.97 1309.58 1539.77 1311.38 1542 1311.38Z" fill="white"/>
</g>
<g id="jeongui_hall_1f_toilet_auditorium_boy">
<path d="M1567.16 197.908C1566.33 202.247 1562.13 205.087 1557.79 204.251L1465.49 186.48C1461.15 185.645 1458.31 181.45 1459.15 177.112L1484.68 44.489C1485.51 40.1504 1489.71 37.3104 1494.05 38.1458L1586.35 55.9172C1590.69 56.7525 1593.53 60.9468 1592.7 65.2854L1567.16 197.908Z" fill="#FED9C4"/>
<path d="M1493.48 41.0916L1494.05 38.1458L1586.35 55.9172L1585.79 58.8631L1493.48 41.0916ZM1487.63 45.0562L1462.09 177.679C1461.57 180.391 1463.34 183.012 1466.06 183.534L1558.36 201.305C1561.07 201.828 1563.69 200.053 1564.22 197.341L1589.75 64.7182C1590.27 62.0066 1588.5 59.3851 1585.79 58.8631L1586.35 55.9172L1586.76 56.0056C1590.73 56.9828 1593.33 60.8236 1592.76 64.8796L1592.7 65.2854L1567.16 197.908C1566.35 202.111 1562.39 204.907 1558.2 204.319L1557.79 204.251L1465.49 186.48C1461.15 185.645 1458.31 181.45 1459.15 177.112L1484.68 44.489L1484.77 44.0873C1485.74 40.1096 1489.59 37.5089 1493.64 38.0784L1494.05 38.1458L1493.48 41.0916C1490.77 40.5696 1488.15 42.3447 1487.63 45.0562Z" fill="#2E2F33" fill-opacity="0.88"/>
<path d="M1538.75 97.25H1513.25C1506.62 97.25 1501.25 102.623 1501.25 109.25V134.75C1501.25 141.377 1506.62 146.75 1513.25 146.75H1538.75C1545.38 146.75 1550.75 141.377 1550.75 134.75V109.25C1550.75 102.623 1545.38 97.25 1538.75 97.25Z" fill="#3076D1"/>
<path d="M1528.73 134.889L1534.19 122.342C1535.05 120.379 1533.61 118.181 1531.47 118.181H1520.54C1518.39 118.181 1516.95 120.379 1517.81 122.342L1523.28 134.889C1524.31 137.271 1527.69 137.271 1528.73 134.889H1528.73Z" fill="white"/>
<path d="M1526 115.388C1528.23 115.388 1530.03 113.583 1530.03 111.356C1530.03 109.129 1528.23 107.324 1526 107.324C1523.77 107.324 1521.97 109.129 1521.97 111.356C1521.97 113.583 1523.77 115.388 1526 115.388Z" fill="white"/>
</g>
<g id="jeongui_hall_1f_toilet_boy">
<path d="M1386.64 1076.86C1384.91 1072.79 1386.81 1068.1 1390.88 1066.37L1477.41 1029.64C1481.48 1027.91 1486.17 1029.81 1487.9 1033.88L1542.66 1162.88C1544.38 1166.94 1542.48 1171.64 1538.42 1173.37L1451.88 1210.1C1447.82 1211.82 1443.12 1209.92 1441.39 1205.86L1386.64 1076.86Z" fill="#FED9C4"/>
<path d="M1537.25 1170.6L1538.42 1173.37L1451.88 1210.1L1450.71 1207.33L1537.25 1170.6ZM1539.89 1164.05L1485.14 1035.05C1484.06 1032.51 1481.12 1031.32 1478.58 1032.4L1392.05 1069.13C1389.51 1070.21 1388.32 1073.14 1389.4 1075.69L1444.16 1204.69C1445.24 1207.23 1448.17 1208.41 1450.71 1207.33L1451.88 1210.1L1451.5 1210.25C1447.65 1211.65 1443.35 1209.92 1441.57 1206.23L1441.39 1205.86L1386.64 1076.86C1384.97 1072.92 1386.69 1068.39 1390.5 1066.54L1390.88 1066.37L1477.41 1029.64L1477.79 1029.49C1481.77 1028.03 1486.23 1029.94 1487.9 1033.88L1542.66 1162.88L1542.81 1163.26C1544.21 1167.1 1542.48 1171.41 1538.79 1173.19L1538.42 1173.37L1537.25 1170.6C1539.79 1169.52 1540.97 1166.59 1539.89 1164.05Z" fill="#2E2F33" fill-opacity="0.88"/>
<path d="M1477.75 1095.25H1452.25C1445.62 1095.25 1440.25 1100.62 1440.25 1107.25V1132.75C1440.25 1139.38 1445.62 1144.75 1452.25 1144.75H1477.75C1484.38 1144.75 1489.75 1139.38 1489.75 1132.75V1107.25C1489.75 1100.62 1484.38 1095.25 1477.75 1095.25Z" fill="#3076D1"/>
<path d="M1467.73 1132.89L1473.19 1120.34C1474.05 1118.38 1472.61 1116.18 1470.47 1116.18H1459.54C1457.39 1116.18 1455.95 1118.38 1456.81 1120.34L1462.28 1132.89C1463.31 1135.27 1466.69 1135.27 1467.73 1132.89H1467.73Z" fill="white"/>
<path d="M1465 1113.39C1467.23 1113.39 1469.03 1111.58 1469.03 1109.36C1469.03 1107.13 1467.23 1105.32 1465 1105.32C1462.77 1105.32 1460.97 1107.13 1460.97 1109.36C1460.97 1111.58 1462.77 1113.39 1465 1113.39Z" fill="white"/>
</g>
<g id="jeongui_hall_1f_elevator">
<path d="M940.435 1314.46C938.709 1318.53 934.012 1320.43 929.945 1318.7L884.876 1299.57C880.809 1297.85 878.912 1293.15 880.638 1289.08L905.345 1230.88C907.071 1226.81 911.768 1224.91 915.835 1226.64L960.904 1245.77C964.971 1247.5 966.868 1252.19 965.142 1256.26L940.435 1314.46Z" fill="#C4C4C4"/>
<path d="M914.663 1229.4L915.835 1226.64L960.904 1245.77L959.732 1248.53L914.663 1229.4ZM908.107 1232.05L883.4 1290.25C882.321 1292.8 883.507 1295.73 886.049 1296.81L931.117 1315.94C933.659 1317.02 936.595 1315.83 937.674 1313.29L962.381 1255.09C963.459 1252.54 962.274 1249.61 959.732 1248.53L960.904 1245.77L961.279 1245.94C964.963 1247.73 966.701 1252.03 965.293 1255.88L965.142 1256.26L940.435 1314.46C938.709 1318.53 934.012 1320.43 929.945 1318.7L884.876 1299.57C880.809 1297.85 878.912 1293.15 880.638 1289.08L905.345 1230.88L905.515 1230.5C907.304 1226.82 911.605 1225.08 915.452 1226.49L915.835 1226.64L914.663 1229.4C912.121 1228.32 909.186 1229.51 908.107 1232.05Z" fill="#2E2F33" fill-opacity="0.88"/>
<path d="M933.626 1252.38H912.376C906.853 1252.38 902.376 1256.85 902.376 1262.38V1283.62C902.376 1289.15 906.853 1293.62 912.376 1293.62H933.626C939.148 1293.62 943.626 1289.15 943.626 1283.62V1262.38C943.626 1256.85 939.148 1252.38 933.626 1252.38ZM924.021 1260.43H925.175C925.29 1260.43 925.382 1260.34 925.382 1260.23V1257.67C925.382 1257.58 925.461 1257.5 925.558 1257.5H927.45C927.547 1257.5 927.626 1257.58 927.626 1257.67V1260.23C927.626 1260.34 927.718 1260.43 927.833 1260.43H928.987C929.153 1260.43 929.236 1260.63 929.118 1260.75L926.76 1263.11C926.618 1263.25 926.39 1263.25 926.25 1263.11L923.891 1260.75C923.773 1260.63 923.856 1260.43 924.021 1260.43ZM916.328 1259.96L918.687 1257.6C918.828 1257.46 919.057 1257.46 919.197 1257.6L921.556 1259.96C921.673 1260.08 921.59 1260.28 921.425 1260.28H920.271C920.156 1260.28 920.063 1260.37 920.063 1260.49V1263.04C920.063 1263.14 919.985 1263.22 919.887 1263.22H917.996C917.898 1263.22 917.82 1263.14 917.82 1263.04V1260.49C917.82 1260.37 917.727 1260.28 917.612 1260.28H916.458C916.292 1260.28 916.211 1260.08 916.328 1259.96ZM938.291 1282.34C938.291 1285.35 935.838 1287.81 932.823 1287.81H913.177C910.162 1287.81 907.71 1285.35 907.71 1282.34V1270.54C907.71 1267.53 910.162 1265.07 913.177 1265.07H932.823C935.838 1265.07 938.291 1267.53 938.291 1270.54V1282.34Z" fill="#4592FB"/>
<path d="M932.823 1266.04H913.177C910.696 1266.04 908.677 1268.06 908.677 1270.54V1282.34C908.677 1284.82 910.696 1286.84 913.177 1286.84H932.823C935.305 1286.84 937.323 1284.82 937.323 1282.34V1270.54C937.323 1268.06 935.305 1266.04 932.823 1266.04ZM930.611 1268.92C931.246 1268.92 931.761 1269.44 931.761 1270.08C931.761 1270.71 931.246 1271.23 930.611 1271.23C929.976 1271.23 929.461 1270.71 929.461 1270.08C929.461 1269.44 929.976 1268.92 930.611 1268.92ZM922.867 1268.92C923.502 1268.92 924.017 1269.44 924.017 1270.08C924.017 1270.71 923.502 1271.23 922.867 1271.23C922.232 1271.23 921.717 1270.71 921.717 1270.08C921.717 1269.44 922.232 1268.92 922.867 1268.92ZM915.123 1268.92C915.758 1268.92 916.273 1269.44 916.273 1270.08C916.273 1270.71 915.758 1271.23 915.123 1271.23C914.488 1271.23 913.973 1270.71 913.973 1270.08C913.973 1269.44 914.488 1268.92 915.123 1268.92ZM918.456 1277.08C918.456 1277.44 918.163 1277.73 917.803 1277.73C917.443 1277.73 917.151 1277.44 917.151 1277.08V1273.66H916.81V1283.08C916.81 1283.48 916.491 1283.8 916.097 1283.8C915.703 1283.8 915.385 1283.48 915.385 1283.08V1277.67H914.86V1283.08C914.86 1283.48 914.541 1283.8 914.147 1283.8C913.753 1283.8 913.435 1283.48 913.435 1283.08V1273.66H912.996V1277.08C912.996 1277.44 912.703 1277.73 912.343 1277.73C911.983 1277.73 911.691 1277.44 911.691 1277.08V1273.05C911.691 1272.33 912.275 1271.75 912.996 1271.75H917.148C917.868 1271.75 918.453 1272.33 918.453 1273.05V1277.08H918.456ZM926.2 1277.08C926.2 1277.44 925.907 1277.73 925.547 1277.73C925.187 1277.73 924.895 1277.44 924.895 1277.08V1273.66H924.553V1283.08C924.553 1283.48 924.235 1283.8 923.841 1283.8C923.447 1283.8 923.128 1283.48 923.128 1283.08V1277.67H922.605V1283.08C922.605 1283.48 922.286 1283.8 921.892 1283.8C921.498 1283.8 921.18 1283.48 921.18 1283.08V1273.66H920.741V1277.08C920.741 1277.44 920.448 1277.73 920.088 1277.73C919.728 1277.73 919.436 1277.44 919.436 1277.08V1273.05C919.436 1272.33 920.02 1271.75 920.741 1271.75H924.893C925.615 1271.75 926.198 1272.33 926.198 1273.05L926.2 1277.08ZM933.943 1277.08C933.943 1277.44 933.651 1277.73 933.291 1277.73C932.931 1277.73 932.638 1277.44 932.638 1277.08V1273.66H932.297V1283.08C932.297 1283.48 931.978 1283.8 931.585 1283.8C931.191 1283.8 930.872 1283.48 930.872 1283.08V1277.67H930.347V1283.08C930.347 1283.48 930.028 1283.8 929.635 1283.8C929.241 1283.8 928.922 1283.48 928.922 1283.08V1273.66H928.483V1277.08C928.483 1277.44 928.191 1277.73 927.831 1277.73C927.471 1277.73 927.178 1277.44 927.178 1277.08V1273.05C927.178 1272.33 927.762 1271.75 928.483 1271.75H932.636C933.357 1271.75 933.941 1272.33 933.941 1273.05V1277.08H933.943Z" fill="#4592FB"/>
<path d="M922.867 1271.23C923.502 1271.23 924.017 1270.71 924.017 1270.08C924.017 1269.44 923.502 1268.92 922.867 1268.92C922.232 1268.92 921.717 1269.44 921.717 1270.08C921.717 1270.71 922.232 1271.23 922.867 1271.23Z" fill="white"/>
<path d="M915.123 1271.23C915.758 1271.23 916.273 1270.71 916.273 1270.08C916.273 1269.44 915.758 1268.92 915.123 1268.92C914.488 1268.92 913.973 1269.44 913.973 1270.08C913.973 1270.71 914.488 1271.23 915.123 1271.23Z" fill="white"/>
<path d="M930.611 1271.23C931.246 1271.23 931.761 1270.71 931.761 1270.08C931.761 1269.44 931.246 1268.92 930.611 1268.92C929.976 1268.92 929.461 1269.44 929.461 1270.08C929.461 1270.71 929.976 1271.23 930.611 1271.23Z" fill="white"/>
<path d="M932.826 1265.08H913.176C910.163 1265.08 907.713 1267.53 907.713 1270.54V1282.34C907.713 1285.35 910.163 1287.81 913.176 1287.81H932.826C935.838 1287.81 938.288 1285.35 938.288 1282.34V1270.54C938.288 1267.53 935.838 1265.08 932.826 1265.08ZM937.326 1282.34C937.326 1284.82 935.301 1286.84 932.826 1286.84H913.176C910.701 1286.84 908.676 1284.82 908.676 1282.34V1270.54C908.676 1268.06 910.701 1266.04 913.176 1266.04H932.826C935.301 1266.04 937.326 1268.06 937.326 1270.54V1282.34Z" fill="white"/>
<path d="M933.938 1273.05V1277.08C933.938 1277.44 933.651 1277.74 933.288 1277.74C932.926 1277.74 932.638 1277.44 932.638 1277.08L932.638 1273.66H932.301V1283.09C932.301 1283.47 931.976 1283.8 931.588 1283.8C931.188 1283.8 930.876 1283.47 930.876 1283.09V1277.66H930.351V1283.09C930.351 1283.47 930.026 1283.8 929.638 1283.8C929.238 1283.8 928.926 1283.47 928.926 1283.09V1273.66H928.488V1277.08C928.488 1277.44 928.188 1277.74 927.838 1277.74C927.476 1277.74 927.176 1277.44 927.176 1277.08V1273.05C927.176 1272.33 927.763 1271.75 928.488 1271.75H932.638C933.363 1271.75 933.938 1272.33 933.938 1273.05Z" fill="white"/>
<path d="M918.451 1273.05V1277.08C918.451 1277.44 918.163 1277.74 917.801 1277.74C917.438 1277.74 917.151 1277.44 917.151 1277.08L917.151 1273.66H916.813V1283.09C916.813 1283.47 916.488 1283.8 916.101 1283.8C915.701 1283.8 915.388 1283.47 915.388 1283.09V1277.66H914.863V1283.09C914.863 1283.47 914.538 1283.8 914.151 1283.8C913.751 1283.8 913.438 1283.47 913.438 1283.09V1273.66H913.001V1277.08C913.001 1277.44 912.701 1277.74 912.351 1277.74C911.988 1277.74 911.688 1277.44 911.688 1277.08V1273.05C911.688 1272.33 912.276 1271.75 913.001 1271.75H917.151C917.876 1271.75 918.451 1272.33 918.451 1273.05Z" fill="white"/>
<path d="M926.201 1273.05V1277.08C926.201 1277.44 925.913 1277.74 925.551 1277.74C925.188 1277.74 924.901 1277.44 924.901 1277.08V1273.66H924.551V1283.09C924.551 1283.47 924.238 1283.8 923.838 1283.8C923.451 1283.8 923.126 1283.47 923.126 1283.09V1277.66H922.601V1283.09C922.601 1283.47 922.288 1283.8 921.888 1283.8C921.501 1283.8 921.176 1283.47 921.176 1283.09V1273.66H920.738V1277.08C920.738 1277.44 920.451 1277.74 920.088 1277.74C919.726 1277.74 919.438 1277.44 919.438 1277.08V1273.05C919.438 1272.33 920.026 1271.75 920.738 1271.75H924.901C925.613 1271.75 926.201 1272.33 926.201 1273.05Z" fill="white"/>
<path d="M916.46 1260.28H917.613C917.728 1260.28 917.821 1260.37 917.821 1260.49V1263.04C917.821 1263.14 917.9 1263.22 917.997 1263.22H919.888C919.986 1263.22 920.065 1263.14 920.065 1263.04V1260.49C920.065 1260.37 920.157 1260.28 920.272 1260.28H921.426C921.592 1260.28 921.675 1260.08 921.557 1259.96L919.198 1257.61C919.057 1257.46 918.828 1257.46 918.688 1257.61L916.33 1259.96C916.212 1260.08 916.295 1260.28 916.46 1260.28Z" fill="white"/>
<path d="M926.247 1263.11C926.388 1263.25 926.617 1263.25 926.757 1263.11L929.116 1260.75C929.233 1260.63 929.15 1260.43 928.985 1260.43H927.831C927.716 1260.43 927.623 1260.34 927.623 1260.23V1257.67C927.623 1257.58 927.545 1257.5 927.447 1257.5H925.556C925.458 1257.5 925.38 1257.58 925.38 1257.67V1260.23C925.38 1260.34 925.287 1260.43 925.172 1260.43H924.018C923.852 1260.43 923.77 1260.63 923.887 1260.75L926.247 1263.11Z" fill="white"/>
</g>
<g id="jeongui_hall_1f_stairs_auditorium_left">
<path d="M655.253 182.787C651.104 184.305 648.971 188.9 650.489 193.049L678.197 268.77C679.715 272.92 684.309 275.052 688.458 273.534L804.054 231.236C808.204 229.718 810.336 225.124 808.818 220.974L781.111 145.253C779.593 141.104 774.998 138.971 770.849 140.489L655.253 182.787Z" fill="#D9FFE6"/>
<path d="M806.001 222.005L808.818 220.974L781.111 145.253L778.294 146.284L806.001 222.005ZM803.024 228.418L687.427 270.716C684.834 271.665 681.963 270.332 681.014 267.739L653.307 192.018C652.358 189.425 653.691 186.553 656.284 185.604L771.88 143.307C774.473 142.358 777.345 143.691 778.294 146.284L781.111 145.253L780.959 144.87C779.359 141.1 775.152 139.147 771.239 140.358L770.849 140.489L655.253 182.787C651.104 184.305 648.971 188.9 650.489 193.049L678.197 268.77C679.715 272.92 684.309 275.052 688.458 273.534L804.054 231.236L804.437 231.085C808.208 229.485 810.161 225.277 808.95 221.365L808.818 220.974L806.001 222.005C806.95 224.598 805.617 227.469 803.024 228.418Z" fill="#2E2F33" fill-opacity="0.88"/>
<path d="M753.938 180.634C752.89 180.247 751.726 180.787 751.339 181.836L747.578 192.056H726.28L729.803 183.29C730.22 182.252 729.718 181.071 728.68 180.654C727.642 180.237 726.463 180.743 726.046 181.778L706.43 230.581C706.013 231.619 706.516 232.8 707.554 233.217C707.801 233.316 708.056 233.364 708.308 233.364C709.111 233.364 709.871 232.884 710.188 232.093L714.217 222.071C714.304 222.083 714.38 222.121 714.47 222.121H736.517L733.384 230.64C732.998 231.688 733.535 232.854 734.585 233.238C734.816 233.324 735.053 233.364 735.284 233.364C736.108 233.364 736.883 232.855 737.185 232.036L755.14 183.233C755.525 182.184 754.988 181.018 753.938 180.634ZM725.072 196.104H746.087L742.847 204.91H721.112L724.684 196.026C724.814 196.052 724.934 196.104 725.072 196.104ZM715.823 218.072L719.509 208.903C719.605 208.917 719.692 208.961 719.792 208.961H741.359L738.007 218.072H715.823Z" fill="#6E4944"/>
</g>
<g id="jeongui_hall_1f_stairs_stand">
<path d="M613.109 840.342C613.927 842.268 615.465 843.796 617.396 844.601L729.714 891.403C736.424 894.199 743.085 887.318 740.071 880.702L627.095 632.686C625.297 628.739 620.682 626.943 616.689 628.638L544.876 659.121C540.809 660.847 538.912 665.543 540.638 669.61L613.109 840.342Z" fill="#D9FFE6"/>
<path d="M540.638 669.61L613.109 840.342C613.876 842.147 615.276 843.604 617.039 844.442L617.396 844.601L729.714 891.403C736.424 894.199 743.085 887.318 740.071 880.702L627.095 632.686C625.297 628.739 620.682 626.943 616.689 628.638L617.861 631.399C620.357 630.34 623.241 631.462 624.365 633.929L737.341 881.946C739.224 886.081 735.062 890.381 730.868 888.633L618.55 841.831C617.344 841.328 616.381 840.373 615.871 839.169L543.4 668.438C542.321 665.896 543.506 662.961 546.048 661.882L544.876 659.121L544.501 659.291C540.694 661.14 538.966 665.671 540.638 669.61ZM617.861 631.399L616.689 628.638L544.876 659.121L546.048 661.882L617.861 631.399Z" fill="#2E2F33" fill-opacity="0.88"/>
<path d="M658.94 736.634C657.891 736.247 656.727 736.787 656.34 737.836L652.58 748.055H631.281L634.805 739.289C635.222 738.251 634.719 737.071 633.681 736.654C632.643 736.237 631.464 736.742 631.047 737.777L611.432 786.581C611.015 787.619 611.517 788.8 612.555 789.217C612.803 789.316 613.058 789.364 613.31 789.364C614.112 789.364 614.873 788.884 615.189 788.093L619.218 778.07C619.305 778.082 619.382 778.122 619.472 778.122H641.519L638.385 786.64C638 787.689 638.537 788.854 639.587 789.238C639.818 789.323 640.055 789.364 640.286 789.364C641.109 789.364 641.885 788.855 642.186 788.036L660.141 739.232C660.527 738.184 659.99 737.019 658.94 736.634ZM630.074 752.104H651.089L647.849 760.911H626.114L629.685 752.026C629.816 752.051 629.936 752.104 630.074 752.104ZM620.825 774.072L624.51 764.904C624.606 764.917 624.693 764.96 624.794 764.96H646.361L643.008 774.072H620.825Z" fill="#6E4944"/>
</g>
<g id="jeongui_hall_1f_stairs_auditorium_right">
<path d="M1801.05 182.787C1805.2 184.305 1807.34 188.9 1805.82 193.049L1778.11 268.77C1776.59 272.92 1772 275.052 1767.85 273.534L1652.25 231.236C1648.1 229.718 1645.97 225.124 1647.49 220.974L1675.2 145.253C1676.71 141.104 1681.31 138.971 1685.46 140.489L1801.05 182.787Z" fill="#D9FFE6"/>
<path d="M1650.31 222.005L1647.49 220.974L1675.2 145.253L1678.01 146.284L1650.31 222.005ZM1653.28 228.418L1768.88 270.716C1771.47 271.665 1774.34 270.332 1775.29 267.739L1803 192.018C1803.95 189.425 1802.62 186.553 1800.02 185.604L1684.43 143.307C1681.83 142.358 1678.96 143.691 1678.01 146.284L1675.2 145.253L1675.35 144.87C1676.95 141.1 1681.16 139.147 1685.07 140.358L1685.46 140.489L1801.05 182.787C1805.2 184.305 1807.34 188.9 1805.82 193.049L1778.11 268.77C1776.59 272.92 1772 275.052 1767.85 273.534L1652.25 231.236L1651.87 231.085C1648.1 229.485 1646.15 225.277 1647.36 221.365L1647.49 220.974L1650.31 222.005C1649.36 224.598 1650.69 227.469 1653.28 228.418Z" fill="#2E2F33" fill-opacity="0.88"/>
<path d="M1750.94 180.634C1749.89 180.247 1748.73 180.787 1748.34 181.836L1744.58 192.056H1723.28L1726.81 183.29C1727.22 182.252 1726.72 181.071 1725.68 180.654C1724.64 180.237 1723.47 180.743 1723.05 181.778L1703.43 230.581C1703.02 231.619 1703.52 232.8 1704.56 233.217C1704.8 233.316 1705.06 233.364 1705.31 233.364C1706.11 233.364 1706.87 232.884 1707.19 232.093L1711.22 222.071C1711.31 222.083 1711.38 222.121 1711.47 222.121H1733.52L1730.39 230.64C1730 231.688 1730.54 232.854 1731.59 233.238C1731.82 233.324 1732.06 233.364 1732.29 233.364C1733.11 233.364 1733.89 232.855 1734.19 232.036L1752.14 183.233C1752.53 182.184 1751.99 181.018 1750.94 180.634ZM1722.07 196.104H1743.09L1739.85 204.91H1718.11L1721.69 196.026C1721.82 196.052 1721.94 196.104 1722.07 196.104ZM1712.83 218.072L1716.51 208.903C1716.61 208.917 1716.69 208.961 1716.79 208.961H1738.36L1735.01 218.072H1712.83Z" fill="#6E4944"/>
</g>
<g id="jeongui_hall_1f_stairs_left">
<path d="M995.369 1009.65C997.095 1005.58 995.198 1000.89 991.131 999.161L923.934 970.638C919.867 968.912 915.17 970.809 913.444 974.876L862.638 1094.57C860.912 1098.63 862.809 1103.33 866.876 1105.06L934.073 1133.58C938.14 1135.31 942.837 1133.41 944.563 1129.34L995.369 1009.65Z" fill="#D9FFE6"/>
<path d="M868.049 1102.3L866.876 1105.06L934.073 1133.58L935.245 1130.82L868.049 1102.3ZM865.4 1095.74L916.205 976.048C917.284 973.507 920.22 972.321 922.762 973.4L989.958 1001.92C992.5 1003 993.686 1005.94 992.607 1008.48L941.802 1128.17C940.723 1130.71 937.787 1131.9 935.245 1130.82L934.073 1133.58L934.456 1133.73C938.431 1135.19 942.891 1133.28 944.563 1129.34L995.369 1009.65C997.095 1005.58 995.198 1000.89 991.131 999.161L923.934 970.638C919.867 968.912 915.17 970.809 913.444 974.876L862.638 1094.57C860.912 1098.63 862.809 1103.33 866.876 1105.06L868.049 1102.3C865.507 1101.22 864.321 1098.28 865.4 1095.74Z" fill="#2E2F33" fill-opacity="0.88"/>
<path d="M944.959 1035.42C944.26 1035.16 943.484 1035.53 943.226 1036.22L940.719 1043.04H926.52L928.869 1037.19C929.147 1036.5 928.812 1035.71 928.12 1035.44C927.428 1035.16 926.642 1035.49 926.364 1036.18L913.287 1068.72C913.009 1069.41 913.344 1070.2 914.036 1070.48C914.201 1070.54 914.371 1070.58 914.539 1070.58C915.074 1070.58 915.581 1070.26 915.792 1069.73L918.478 1063.05C918.536 1063.06 918.587 1063.08 918.647 1063.08H933.345L931.256 1068.76C930.999 1069.46 931.357 1070.24 932.057 1070.49C932.211 1070.55 932.369 1070.58 932.523 1070.58C933.072 1070.58 933.589 1070.24 933.79 1069.69L945.76 1037.15C946.017 1036.46 945.659 1035.68 944.959 1035.42ZM925.715 1045.74H939.725L937.565 1051.61H923.075L925.456 1045.68C925.543 1045.7 925.623 1045.74 925.715 1045.74ZM919.549 1060.38L922.006 1054.27C922.07 1054.28 922.128 1054.31 922.195 1054.31H936.573L934.338 1060.38H919.549Z" fill="#6E4944"/>
</g>
<g id="jeongui_hall_1f_stairs_main_left">
<path d="M1072.91 1301.79C1074.64 1297.72 1072.74 1293.02 1068.67 1291.3L1012.93 1267.64C1008.87 1265.91 1004.17 1267.81 1002.44 1271.88L951.638 1391.57C949.912 1395.63 951.809 1400.33 955.876 1402.06L1011.61 1425.72C1015.68 1427.44 1020.38 1425.55 1022.1 1421.48L1072.91 1301.79Z" fill="#D9FFE6"/>
<path d="M957.049 1399.3L955.876 1402.06L1011.61 1425.72L1012.79 1422.95L957.049 1399.3ZM954.4 1392.74L1005.21 1273.05C1006.28 1270.51 1009.22 1269.32 1011.76 1270.4L1067.5 1294.06C1070.04 1295.14 1071.23 1298.07 1070.15 1300.62L1019.34 1420.31C1018.26 1422.85 1015.33 1424.03 1012.79 1422.95L1011.61 1425.72L1012 1425.87C1015.97 1427.32 1020.43 1425.42 1022.1 1421.48L1072.91 1301.79C1074.64 1297.72 1072.74 1293.02 1068.67 1291.3L1012.93 1267.64C1008.87 1265.91 1004.17 1267.81 1002.44 1271.88L951.638 1391.57C949.912 1395.63 951.809 1400.33 955.876 1402.06L957.049 1399.3C954.507 1398.22 953.321 1395.28 954.4 1392.74Z" fill="#2E2F33" fill-opacity="0.88"/>
<path d="M1028.96 1329.42C1028.26 1329.17 1027.49 1329.52 1027.23 1330.22L1024.72 1337.04H1010.52L1012.87 1331.19C1013.15 1330.5 1012.81 1329.71 1012.12 1329.44C1011.43 1329.16 1010.64 1329.5 1010.37 1330.19L997.289 1362.72C997.011 1363.41 997.346 1364.2 998.038 1364.48C998.203 1364.54 998.373 1364.58 998.541 1364.58C999.076 1364.58 999.583 1364.26 999.794 1363.73L1002.48 1357.05C1002.54 1357.06 1002.59 1357.08 1002.65 1357.08H1017.35L1015.26 1362.76C1015 1363.46 1015.36 1364.24 1016.06 1364.49C1016.21 1364.55 1016.37 1364.58 1016.52 1364.58C1017.07 1364.58 1017.59 1364.24 1017.79 1363.69L1029.76 1331.15C1030.02 1330.46 1029.66 1329.68 1028.96 1329.42ZM1009.72 1339.74H1023.73L1021.57 1345.61H1007.08L1009.46 1339.68C1009.54 1339.7 1009.62 1339.74 1009.72 1339.74ZM1003.55 1354.38L1006.01 1348.27C1006.07 1348.28 1006.13 1348.31 1006.2 1348.31H1020.57L1018.34 1354.38H1003.55Z" fill="#6E4944"/>
</g>
<g id="jeongui_hall_1f_stairs_main_right">
<path d="M1393.64 1305.06C1391.91 1301 1393.81 1296.3 1397.88 1294.57L1456.62 1269.64C1460.69 1267.91 1465.39 1269.81 1467.11 1273.88L1517.92 1393.57C1519.65 1397.63 1517.75 1402.33 1513.68 1404.06L1454.93 1428.99C1450.87 1430.72 1446.17 1428.82 1444.44 1424.76L1393.64 1305.06Z" fill="#D9FFE6"/>
<path d="M1512.51 1401.3L1513.68 1404.06L1454.93 1428.99L1453.76 1426.23L1512.51 1401.3ZM1515.16 1394.74L1464.35 1275.05C1463.27 1272.51 1460.34 1271.32 1457.8 1272.4L1399.05 1297.34C1396.51 1298.42 1395.32 1301.35 1396.4 1303.89L1447.21 1423.58C1448.28 1426.13 1451.22 1427.31 1453.76 1426.23L1454.93 1428.99C1450.87 1430.72 1446.17 1428.82 1444.44 1424.76L1393.64 1305.06C1391.91 1301 1393.81 1296.3 1397.88 1294.57L1456.62 1269.64L1457.01 1269.49C1460.98 1268.03 1465.44 1269.94 1467.11 1273.88L1517.92 1393.57L1518.07 1393.95C1519.48 1397.8 1517.74 1402.1 1514.06 1403.89L1513.68 1404.06L1512.51 1401.3C1515.05 1400.22 1516.24 1397.28 1515.16 1394.74Z" fill="#2E2F33" fill-opacity="0.88"/>
<path d="M1471.96 1332.42C1471.26 1332.17 1470.49 1332.52 1470.23 1333.22L1467.72 1340.04H1453.52L1455.87 1334.19C1456.15 1333.5 1455.81 1332.71 1455.12 1332.44C1454.43 1332.16 1453.64 1332.49 1453.37 1333.18L1440.29 1365.72C1440.01 1366.41 1440.35 1367.2 1441.04 1367.48C1441.2 1367.54 1441.37 1367.58 1441.54 1367.58C1442.08 1367.58 1442.58 1367.26 1442.79 1366.73L1445.48 1360.05C1445.54 1360.06 1445.59 1360.08 1445.65 1360.08H1460.35L1458.26 1365.76C1458 1366.46 1458.36 1367.24 1459.06 1367.49C1459.21 1367.55 1459.37 1367.58 1459.52 1367.58C1460.07 1367.58 1460.59 1367.24 1460.79 1366.69L1472.76 1334.15C1473.02 1333.46 1472.66 1332.68 1471.96 1332.42ZM1452.72 1342.74H1466.73L1464.57 1348.61H1450.08L1452.46 1342.68C1452.54 1342.7 1452.62 1342.74 1452.72 1342.74ZM1446.55 1357.38L1449.01 1351.27C1449.07 1351.28 1449.13 1351.31 1449.2 1351.31H1463.57L1461.34 1357.38H1446.55Z" fill="#6E4944"/>
</g>
<g id="jeongui_hall_126_2">
<path d="M534.874 658.634C536.6 662.701 541.297 664.599 545.364 662.872L578.252 648.912C582.319 647.186 584.217 642.489 582.49 638.422L567.801 603.817C566.075 599.75 561.378 597.853 557.311 599.579L524.423 613.539C520.356 615.266 518.459 619.962 520.185 624.029L534.874 658.634Z" fill="#F7FBFF"/>
<path d="M558.483 602.34L557.311 599.579L524.423 613.539L525.595 616.301L558.483 602.34ZM565.04 604.989L579.729 639.595C580.808 642.136 579.622 645.072 577.08 646.151L544.192 660.111C541.65 661.19 538.714 660.004 537.635 657.462L522.946 622.857C521.867 620.315 523.053 617.38 525.595 616.301L524.423 613.539C520.356 615.266 518.459 619.962 520.185 624.029L534.874 658.634C536.6 662.701 541.297 664.599 545.364 662.872L578.252 648.912L578.626 648.742C582.434 646.893 584.163 642.362 582.49 638.422L567.801 603.817L567.63 603.442C565.841 599.758 561.54 598.02 557.694 599.428L557.311 599.579L558.483 602.34C561.025 601.262 563.961 602.447 565.04 604.989Z" fill="#2E2F33" fill-opacity="0.88"/>
<path d="M561.692 638.195C558.938 638.176 556.165 636.535 556.184 631.32C556.184 626.477 558.391 623.664 561.848 623.664C564.582 623.664 566.457 625.383 566.77 627.668H564.25C563.997 626.594 563.137 625.871 561.848 625.871C559.797 625.871 558.645 627.687 558.645 630.656H558.782C559.504 629.445 560.872 628.723 562.415 628.723C564.954 628.723 566.907 630.637 566.907 633.312C566.907 636.125 564.817 638.215 561.692 638.195ZM561.692 636.145C563.274 636.145 564.446 634.914 564.446 633.371C564.446 631.867 563.293 630.656 561.731 630.656C560.149 630.656 558.938 631.906 558.918 633.391C558.938 634.875 560.09 636.145 561.692 636.145Z" fill="black"/>
<path d="M544.348 638V636.164L549.348 631.34C550.774 629.914 551.516 629.074 551.516 627.883C551.516 626.574 550.481 625.734 549.094 625.734C547.629 625.734 546.692 626.652 546.711 628.078H544.29C544.27 625.402 546.282 623.664 549.114 623.664C552.004 623.664 553.958 625.383 553.958 627.766C553.958 629.367 553.176 630.656 550.403 633.273L547.883 635.773V635.871H554.172V638H544.348Z" fill="black"/>
<path d="M540.911 623.859V638H538.352V626.34H538.274L534.973 628.449V626.125L538.469 623.859H540.911Z" fill="black"/>
</g>
<g id="jeongui_hall_1f_gate_front">
<path d="M1301 1481C1301 1521.32 1268.32 1554 1228 1554C1187.68 1554 1155 1521.32 1155 1481C1155 1440.68 1187.68 1408 1228 1408C1268.32 1408 1301 1440.68 1301 1481Z" fill="#FAA4FF"/>
<path d="M1298 1481C1298 1442.34 1266.66 1411 1228 1411C1189.34 1411 1158 1442.34 1158 1481C1158 1519.66 1189.34 1551 1228 1551V1554C1187.68 1554 1155 1521.32 1155 1481C1155 1440.68 1187.68 1408 1228 1408C1268.32 1408 1301 1440.68 1301 1481C1301 1521.32 1268.32 1554 1228 1554V1551C1266.66 1551 1298 1519.66 1298 1481Z" fill="#2E2F33" fill-opacity="0.88"/>
<path d="M1244.02 1444.25H1211.98C1207.57 1444.25 1204 1447.82 1204 1452.23V1509.77C1204 1514.18 1207.57 1517.75 1211.98 1517.75H1244.02C1248.43 1517.75 1252 1514.18 1252 1509.77V1452.23C1252 1447.82 1248.43 1444.25 1244.02 1444.25Z" fill="#5E403B"/>
<path d="M1241.01 1486.7C1244.16 1486.7 1246.71 1484.15 1246.71 1481C1246.71 1477.85 1244.16 1475.3 1241.01 1475.3C1237.86 1475.3 1235.31 1477.85 1235.31 1481C1235.31 1484.15 1237.86 1486.7 1241.01 1486.7Z" fill="#FFDE57"/>
<path d="M1241.01 1483.24C1242.24 1483.24 1243.25 1482.23 1243.25 1481C1243.25 1479.77 1242.24 1478.76 1241.01 1478.76C1239.78 1478.76 1238.77 1479.77 1238.77 1481C1238.77 1482.23 1239.78 1483.24 1241.01 1483.24Z" fill="#CB8C00"/>
<path d="M1241.01 1478.77H1231.52C1230.29 1478.77 1229.29 1479.77 1229.29 1481C1229.29 1482.24 1230.29 1483.24 1231.52 1483.24H1241.01C1242.25 1483.24 1243.25 1482.24 1243.25 1481C1243.25 1479.77 1242.25 1478.77 1241.01 1478.77Z" fill="#CB8C00"/>
</g>
<g id="jeongui_hall_1f_gate_right">
<path d="M2332 1119C2332 1139.43 2315.43 1156 2295 1156C2274.57 1156 2258 1139.43 2258 1119C2258 1098.57 2274.57 1082 2295 1082C2315.43 1082 2332 1098.57 2332 1119Z" fill="#B1A4FF"/>
<path d="M2329 1119C2329 1100.22 2313.78 1085 2295 1085C2276.22 1085 2261 1100.22 2261 1119C2261 1137.78 2276.22 1153 2295 1153V1156C2274.57 1156 2258 1139.43 2258 1119C2258 1098.57 2274.57 1082 2295 1082C2315.43 1082 2332 1098.57 2332 1119C2332 1139.43 2315.43 1156 2295 1156V1153C2313.78 1153 2329 1137.78 2329 1119Z" fill="#2E2F33" fill-opacity="0.88"/>
<path d="M2303.13 1100.37H2286.89C2284.65 1100.37 2282.84 1102.19 2282.84 1104.42V1133.59C2282.84 1135.82 2284.65 1137.63 2286.89 1137.63H2303.13C2305.36 1137.63 2307.17 1135.82 2307.17 1133.59V1104.42C2307.17 1102.19 2305.36 1100.37 2303.13 1100.37Z" fill="#5E403B"/>
<path d="M2301.6 1121.89C2303.2 1121.89 2304.49 1120.6 2304.49 1119C2304.49 1117.41 2303.2 1116.11 2301.6 1116.11C2300 1116.11 2298.71 1117.41 2298.71 1119C2298.71 1120.6 2300 1121.89 2301.6 1121.89Z" fill="#FFDE57"/>
<path d="M2301.6 1120.14C2302.23 1120.14 2302.73 1119.63 2302.73 1119C2302.73 1118.38 2302.23 1117.87 2301.6 1117.87C2300.97 1117.87 2300.47 1118.38 2300.47 1119C2300.47 1119.63 2300.97 1120.14 2301.6 1120.14Z" fill="#CB8C00"/>
<path d="M2301.6 1117.87H2296.79C2296.16 1117.87 2295.66 1118.38 2295.66 1119C2295.66 1119.63 2296.16 1120.14 2296.79 1120.14H2301.6C2302.23 1120.14 2302.73 1119.63 2302.73 1119C2302.73 1118.38 2302.23 1117.87 2301.6 1117.87Z" fill="#CB8C00"/>
</g>
<g id="jeongui_hall_1f_gate_left">
<path d="M123 848C123 868.435 106.435 885 86 885C65.5655 885 49 868.435 49 848C49 827.565 65.5655 811 86 811C106.435 811 123 827.565 123 848Z" fill="#B1A4FF"/>
<path d="M120 848C120 829.222 104.778 814 86 814C67.2223 814 52 829.222 52 848C52 866.778 67.2223 882 86 882V885C65.5655 885 49 868.435 49 848C49 827.565 65.5655 811 86 811C106.435 811 123 827.565 123 848C123 868.435 106.435 885 86 885V882C104.778 882 120 866.778 120 848Z" fill="#2E2F33" fill-opacity="0.88"/>
<path d="M94.1251 829.375H77.8877C75.6533 829.375 73.842 831.186 73.842 833.42V862.586C73.842 864.82 75.6533 866.631 77.8877 866.631H94.1251C96.3595 866.631 98.1708 864.82 98.1708 862.586V833.42C98.1708 831.186 96.3595 829.375 94.1251 829.375Z" fill="#5E403B"/>
<path d="M92.6005 850.894C94.1972 850.894 95.4916 849.599 95.4916 848.002C95.4916 846.406 94.1972 845.111 92.6005 845.111C91.0038 845.111 89.7094 846.406 89.7094 848.002C89.7094 849.599 91.0038 850.894 92.6005 850.894Z" fill="#FFDE57"/>
<path d="M92.6005 849.136C93.2264 849.136 93.7338 848.628 93.7338 848.002C93.7338 847.377 93.2264 846.869 92.6005 846.869C91.9746 846.869 91.4672 847.377 91.4672 848.002C91.4672 848.628 91.9746 849.136 92.6005 849.136Z" fill="#CB8C00"/>
<path d="M92.6025 846.873H87.7895C87.1647 846.873 86.6582 847.38 86.6582 848.005C86.6582 848.629 87.1647 849.136 87.7895 849.136H92.6025C93.2273 849.136 93.7338 848.629 93.7338 848.005C93.7338 847.38 93.2273 846.873 92.6025 846.873Z" fill="#CB8C00"/>
</g>
<g id="jeongui_hall_1f_gate_auditorium_left">
<path d="M478 398C478 418.435 461.435 435 441 435C420.565 435 404 418.435 404 398C404 377.565 420.565 361 441 361C461.435 361 478 377.565 478 398Z" fill="#B1A4FF"/>
<path d="M475 398C475 379.222 459.778 364 441 364C422.222 364 407 379.222 407 398C407 416.778 422.222 432 441 432V435C420.565 435 404 418.435 404 398C404 377.565 420.565 361 441 361C461.435 361 478 377.565 478 398C478 418.435 461.435 435 441 435V432C459.778 432 475 416.778 475 398Z" fill="#2E2F33" fill-opacity="0.88"/>
<path d="M449.125 379.375H432.888C430.653 379.375 428.842 381.186 428.842 383.42V412.586C428.842 414.82 430.653 416.631 432.888 416.631H449.125C451.359 416.631 453.171 414.82 453.171 412.586V383.42C453.171 381.186 451.359 379.375 449.125 379.375Z" fill="#5E403B"/>
<path d="M447.601 400.894C449.197 400.894 450.492 399.599 450.492 398.002C450.492 396.406 449.197 395.111 447.601 395.111C446.004 395.111 444.709 396.406 444.709 398.002C444.709 399.599 446.004 400.894 447.601 400.894Z" fill="#FFDE57"/>
<path d="M447.601 399.136C448.226 399.136 448.734 398.628 448.734 398.002C448.734 397.377 448.226 396.869 447.601 396.869C446.975 396.869 446.467 397.377 446.467 398.002C446.467 398.628 446.975 399.136 447.601 399.136Z" fill="#CB8C00"/>
<path d="M447.603 396.873H442.789C442.165 396.873 441.658 397.38 441.658 398.005C441.658 398.629 442.165 399.136 442.789 399.136H447.603C448.227 399.136 448.734 398.629 448.734 398.005C448.734 397.38 448.227 396.873 447.603 396.873Z" fill="#CB8C00"/>
</g>
<g id="jeongui_hall_1f_gate_auditorium_right">
<path d="M2060 397C2060 417.435 2043.43 434 2023 434C2002.57 434 1986 417.435 1986 397C1986 376.565 2002.57 360 2023 360C2043.43 360 2060 376.565 2060 397Z" fill="#B1A4FF"/>
<path d="M2057 397C2057 378.222 2041.78 363 2023 363C2004.22 363 1989 378.222 1989 397C1989 415.778 2004.22 431 2023 431V434C2002.57 434 1986 417.435 1986 397C1986 376.565 2002.57 360 2023 360C2043.43 360 2060 376.565 2060 397C2060 417.435 2043.43 434 2023 434V431C2041.78 431 2057 415.778 2057 397Z" fill="#2E2F33" fill-opacity="0.88"/>
<path d="M2031.13 378.375H2014.89C2012.65 378.375 2010.84 380.186 2010.84 382.42V411.586C2010.84 413.82 2012.65 415.631 2014.89 415.631H2031.13C2033.36 415.631 2035.17 413.82 2035.17 411.586V382.42C2035.17 380.186 2033.36 378.375 2031.13 378.375Z" fill="#5E403B"/>
<path d="M2029.6 399.894C2031.2 399.894 2032.49 398.599 2032.49 397.002C2032.49 395.406 2031.2 394.111 2029.6 394.111C2028 394.111 2026.71 395.406 2026.71 397.002C2026.71 398.599 2028 399.894 2029.6 399.894Z" fill="#FFDE57"/>
<path d="M2029.6 398.136C2030.23 398.136 2030.73 397.628 2030.73 397.002C2030.73 396.377 2030.23 395.869 2029.6 395.869C2028.97 395.869 2028.47 396.377 2028.47 397.002C2028.47 397.628 2028.97 398.136 2029.6 398.136Z" fill="#CB8C00"/>
<path d="M2029.6 395.873H2024.79C2024.16 395.873 2023.66 396.38 2023.66 397.005C2023.66 397.629 2024.16 398.136 2024.79 398.136H2029.6C2030.23 398.136 2030.73 397.629 2030.73 397.005C2030.73 396.38 2030.23 395.873 2029.6 395.873Z" fill="#CB8C00"/>
</g>
</g>
</svg>
