<svg width="2520" height="1145" viewBox="0 0 2520 1145" fill="none" xmlns="http://www.w3.org/2000/svg">
<g id="mirae_hall_floor_1">
<g id="Vector">
<path d="M2434 209.5H2011.5V402.5H2434V209.5Z" fill="#474747"/>
<path d="M3 434.5H1098V483H989.5V713H1098V818H989.5V1058.5H2012.5V1141.5H2299.5V889H2517V706H2434V402.5H2011.5V634H1340.5V3H3V434.5Z" fill="#999999"/>
<path d="M1343.5 0V631H2008.5V206.5H2437V703H2520V892H2302.5V1144.5H2009.5V1061.5H986.5V815H1095V716H986.5V480H1095V437.5H0V0H1343.5ZM2014.5 399.5H2431V212.5H2014.5V399.5ZM6 431.5H1101V486H992.5V710H1101V821H992.5V1055.5H2015.5V1138.5H2296.5V886H2514V709H2431V405.5H2014.5V637H1337.5V6H6V431.5Z" fill="black"/>
</g>
<g id="Vector_2">
<path d="M1267 14C1267 9.58172 1270.58 6 1275 6H1330C1334.42 6 1338 9.58172 1338 14V125C1338 129.418 1334.42 133 1330 133H1275C1270.58 133 1267 129.418 1267 125V14Z" fill="#474747"/>
<path d="M1330 130V133H1275L1275 130H1330ZM1335 125V14C1335 11.2386 1332.76 9 1330 9H1275C1272.24 9 1270 11.2386 1270 14V125C1270 127.761 1272.24 130 1275 130L1275 133C1270.58 133 1267 129.418 1267 125V14C1267 9.58172 1270.58 6 1275 6H1330L1330.41 6.01074C1334.64 6.22523 1338 9.71994 1338 14V125C1338 129.418 1334.42 133 1330 133V130C1332.76 130 1335 127.761 1335 125Z" fill="#2E2F33" fill-opacity="0.88"/>
</g>
<g id="Vector_3">
<path d="M1204 244C1204 239.582 1207.58 236 1212 236H1330C1334.42 236 1338 239.582 1338 244V271C1338 275.418 1334.42 279 1330 279H1212C1207.58 279 1204 275.418 1204 271V244Z" fill="#474747"/>
<path d="M1330 276V279H1212L1212 276H1330ZM1335 271V244C1335 241.239 1332.76 239 1330 239H1212C1209.24 239 1207 241.239 1207 244V271C1207 273.761 1209.24 276 1212 276L1212 279C1207.58 279 1204 275.418 1204 271V244C1204 239.582 1207.58 236 1212 236H1330C1334.42 236 1338 239.582 1338 244V271C1338 275.418 1334.42 279 1330 279V276C1332.76 276 1335 273.761 1335 271Z" fill="#2E2F33" fill-opacity="0.88"/>
</g>
<g id="Vector_4">
<path d="M98 299C98 294.582 101.582 291 106 291H229C233.418 291 237 294.582 237 299V424C237 428.418 233.418 432 229 432H106C101.582 432 98 428.418 98 424V299Z" fill="#474747"/>
<path d="M229 429V432H106L106 429H229ZM234 424V299C234 296.239 231.761 294 229 294H106C103.239 294 101 296.239 101 299V424C101 426.761 103.239 429 106 429L106 432L105.588 431.989C101.361 431.775 98 428.28 98 424V299C98 294.72 101.361 291.225 105.588 291.011L106 291H229C233.418 291 237 294.582 237 299V424C237 428.418 233.418 432 229 432V429C231.761 429 234 426.761 234 424Z" fill="#2E2F33" fill-opacity="0.88"/>
</g>
<g id="Vector_5">
<path d="M914 299C914 294.582 917.582 291 922 291H1096C1100.42 291 1104 294.582 1104 299V424C1104 428.418 1100.42 432 1096 432H922C917.582 432 914 428.418 914 424V299Z" fill="#474747"/>
<path d="M1096 429V432H922L922 429H1096ZM1101 424V299C1101 296.239 1098.76 294 1096 294H922C919.239 294 917 296.239 917 299V424C917 426.761 919.239 429 922 429L922 432L921.588 431.989C917.361 431.775 914 428.28 914 424V299C914 294.582 917.582 291 922 291H1096C1100.42 291 1104 294.582 1104 299V424C1104 428.418 1100.42 432 1096 432V429C1098.76 429 1101 426.761 1101 424Z" fill="#2E2F33" fill-opacity="0.88"/>
</g>
<g id="Vector_6">
<path d="M1204 14C1204 9.58172 1207.58 6 1212 6H1262C1266.42 6 1270 9.58172 1270 14V62C1270 66.4183 1266.42 70 1262 70H1212C1207.58 70 1204 66.4183 1204 62V14Z" fill="#474747"/>
<path d="M1262 67V70H1212V67H1262ZM1267 62V14C1267 11.2386 1264.76 9 1262 9H1212C1209.24 9 1207 11.2386 1207 14V62C1207 64.7614 1209.24 67 1212 67V70C1207.58 70 1204 66.4183 1204 62V14C1204 9.58172 1207.58 6 1212 6H1262C1266.42 6 1270 9.58172 1270 14V62C1270 66.4183 1266.42 70 1262 70V67C1264.76 67 1267 64.7614 1267 62Z" fill="#2E2F33" fill-opacity="0.88"/>
</g>
<g id="Vector_7">
<path d="M992 983C992 978.582 995.582 975 1000 975H1026C1030.42 975 1034 978.582 1034 983V1047C1034 1051.42 1030.42 1055 1026 1055H1000C995.582 1055 992 1051.42 992 1047V983Z" fill="#474747"/>
<path d="M1026 1052V1055H1000L1000 1052H1026ZM1031 1047V983C1031 980.239 1028.76 978 1026 978H1000C997.239 978 995 980.239 995 983V1047C995 1049.76 997.239 1052 1000 1052L1000 1055L999.588 1054.99C995.361 1054.77 992 1051.28 992 1047V983C992 978.582 995.582 975 1000 975H1026C1030.42 975 1034 978.582 1034 983V1047C1034 1051.42 1030.42 1055 1026 1055V1052C1028.76 1052 1031 1049.76 1031 1047Z" fill="#2E2F33" fill-opacity="0.88"/>
</g>
<g id="mirae_hall_1f_toilet_left_boy">
<path d="M902 135C902 130.582 905.582 127 910 127H1096C1100.42 127 1104 130.582 1104 135V235C1104 239.418 1100.42 243 1096 243H910C905.582 243 902 239.418 902 235V135Z" fill="#FED9C4"/>
<path d="M1096 240V243H910L910 240H1096ZM1101 235V135C1101 132.239 1098.76 130 1096 130H910C907.239 130 905 132.239 905 135V235C905 237.761 907.239 240 910 240L910 243L909.588 242.989C905.361 242.775 902 239.28 902 235V135C902 130.582 905.582 127 910 127H1096C1100.42 127 1104 130.582 1104 135V235C1104 239.418 1100.42 243 1096 243V240C1098.76 240 1101 237.761 1101 235Z" fill="#2E2F33" fill-opacity="0.88"/>
<path d="M1015.75 160.25H990.25C983.623 160.25 978.25 165.623 978.25 172.25V197.75C978.25 204.377 983.623 209.75 990.25 209.75H1015.75C1022.38 209.75 1027.75 204.377 1027.75 197.75V172.25C1027.75 165.623 1022.38 160.25 1015.75 160.25Z" fill="#3076D1"/>
<path d="M1005.73 197.889L1011.19 185.342C1012.05 183.378 1010.61 181.181 1008.47 181.181H997.535C995.394 181.181 993.953 183.378 994.81 185.342L1000.28 197.889C1001.31 200.271 1004.69 200.271 1005.73 197.889H1005.73Z" fill="white"/>
<path d="M1003 178.388C1005.23 178.388 1007.03 176.583 1007.03 174.356C1007.03 172.129 1005.23 170.324 1003 170.324C1000.77 170.324 998.968 172.129 998.968 174.356C998.968 176.583 1000.77 178.388 1003 178.388Z" fill="white"/>
</g>
<g id="mirae_hall_1f_toilet_right_boy">
<path d="M1155 976C1155 971.582 1158.58 968 1163 968H1333C1337.42 968 1341 971.582 1341 976V1047C1341 1051.42 1337.42 1055 1333 1055H1163C1158.58 1055 1155 1051.42 1155 1047V976Z" fill="#FED9C4"/>
<path d="M1333 1052V1055H1163L1163 1052H1333ZM1338 1047V976C1338 973.239 1335.76 971 1333 971H1163C1160.24 971 1158 973.239 1158 976V1047C1158 1049.76 1160.24 1052 1163 1052L1163 1055C1158.58 1055 1155 1051.42 1155 1047V976C1155 971.582 1158.58 968 1163 968H1333C1337.42 968 1341 971.582 1341 976V1047C1341 1051.42 1337.42 1055 1333 1055V1052C1335.76 1052 1338 1049.76 1338 1047Z" fill="#2E2F33" fill-opacity="0.88"/>
<path d="M1260.75 986.25H1235.25C1228.62 986.25 1223.25 991.623 1223.25 998.25V1023.75C1223.25 1030.38 1228.62 1035.75 1235.25 1035.75H1260.75C1267.38 1035.75 1272.75 1030.38 1272.75 1023.75V998.25C1272.75 991.623 1267.38 986.25 1260.75 986.25Z" fill="#3076D1"/>
<path d="M1250.73 1023.89L1256.19 1011.34C1257.05 1009.38 1255.61 1007.18 1253.47 1007.18H1242.54C1240.39 1007.18 1238.95 1009.38 1239.81 1011.34L1245.28 1023.89C1246.31 1026.27 1249.69 1026.27 1250.73 1023.89H1250.73Z" fill="white"/>
<path d="M1248 1004.39C1250.23 1004.39 1252.03 1002.58 1252.03 1000.36C1252.03 998.129 1250.23 996.324 1248 996.324C1245.77 996.324 1243.97 998.129 1243.97 1000.36C1243.97 1002.58 1245.77 1004.39 1248 1004.39Z" fill="white"/>
</g>
<g id="mirae_hall_1f_toilet_left_girl">
<path d="M902 14C902 9.58172 905.582 6 910 6H1096C1100.42 6 1104 9.58172 1104 14V122C1104 126.418 1100.42 130 1096 130H910C905.582 130 902 126.418 902 122V14Z" fill="#FED9C4"/>
<path d="M1096 127V130H910L910 127H1096ZM1101 122V14C1101 11.2386 1098.76 9 1096 9H910C907.239 9 905 11.2386 905 14V122C905 124.761 907.239 127 910 127L910 130L909.588 129.989C905.361 129.775 902 126.28 902 122V14C902 9.58172 905.582 6 910 6H1096C1100.42 6 1104 9.58172 1104 14V122C1104 126.418 1100.42 130 1096 130V127C1098.76 127 1101 124.761 1101 122Z" fill="#2E2F33" fill-opacity="0.88"/>
<path d="M1015.75 43.25H990.25C983.623 43.25 978.25 48.6226 978.25 55.25V80.75C978.25 87.3774 983.623 92.75 990.25 92.75H1015.75C1022.38 92.75 1027.75 87.3774 1027.75 80.75V55.25C1027.75 48.6226 1022.38 43.25 1015.75 43.25Z" fill="#E76D6D"/>
<path d="M1000.27 65.9765L994.809 78.524C993.953 80.4875 995.392 82.685 997.534 82.685H1008.46C1010.61 82.685 1012.05 80.4875 1011.19 78.524L1005.72 65.9765C1004.69 63.5945 1001.31 63.5945 1000.27 65.9765H1000.27Z" fill="white"/>
<path d="M1003 61.3805C1005.23 61.3805 1007.03 59.5753 1007.03 57.3485C1007.03 55.1217 1005.23 53.3165 1003 53.3165C1000.77 53.3165 998.968 55.1217 998.968 57.3485C998.968 59.5753 1000.77 61.3805 1003 61.3805Z" fill="white"/>
</g>
<g id="mirae_hall_1f_toilet_right_girl">
<path d="M1155 887C1155 882.582 1158.58 879 1163 879H1333C1337.42 879 1341 882.582 1341 887V963C1341 967.418 1337.42 971 1333 971H1163C1158.58 971 1155 967.418 1155 963V887Z" fill="#FED9C4"/>
<path d="M1333 968V971H1163L1163 968H1333ZM1338 963V887C1338 884.239 1335.76 882 1333 882H1163C1160.24 882 1158 884.239 1158 887V963C1158 965.761 1160.24 968 1163 968L1163 971C1158.58 971 1155 967.418 1155 963V887C1155 882.582 1158.58 879 1163 879H1333C1337.42 879 1341 882.582 1341 887V963C1341 967.418 1337.42 971 1333 971V968C1335.76 968 1338 965.761 1338 963Z" fill="#2E2F33" fill-opacity="0.88"/>
<path d="M1260.75 900.25H1235.25C1228.62 900.25 1223.25 905.623 1223.25 912.25V937.75C1223.25 944.377 1228.62 949.75 1235.25 949.75H1260.75C1267.38 949.75 1272.75 944.377 1272.75 937.75V912.25C1272.75 905.623 1267.38 900.25 1260.75 900.25Z" fill="#E76D6D"/>
<path d="M1245.27 922.976L1239.81 935.524C1238.95 937.488 1240.39 939.685 1242.53 939.685H1253.46C1255.61 939.685 1257.05 937.488 1256.19 935.524L1250.72 922.976C1249.69 920.594 1246.31 920.594 1245.27 922.976H1245.27Z" fill="white"/>
<path d="M1248 918.381C1250.23 918.381 1252.03 916.575 1252.03 914.348C1252.03 912.122 1250.23 910.317 1248 910.317C1245.77 910.317 1243.97 912.122 1243.97 914.348C1243.97 916.575 1245.77 918.381 1248 918.381Z" fill="white"/>
</g>
<g id="mirae_hall_1f_elevator_left">
<path d="M1204 75C1204 70.5817 1207.58 67 1212 67H1262C1266.42 67 1270 70.5817 1270 75V125C1270 129.418 1266.42 133 1262 133H1212C1207.58 133 1204 129.418 1204 125V75Z" fill="#F2F2F2"/>
<path d="M1262 130V133H1212V130H1262ZM1267 125V75C1267 72.2386 1264.76 70 1262 70H1212C1209.24 70 1207 72.2386 1207 75V125C1207 127.761 1209.24 130 1212 130V133C1207.58 133 1204 129.418 1204 125V75C1204 70.5817 1207.58 67 1212 67H1262C1266.42 67 1270 70.5817 1270 75V125C1270 129.418 1266.42 133 1262 133V130C1264.76 130 1267 127.761 1267 125Z" fill="#2E2F33" fill-opacity="0.88"/>
<path d="M1247.62 79.375H1226.38C1220.85 79.375 1216.38 83.8525 1216.38 89.375V110.625C1216.38 116.147 1220.85 120.625 1226.38 120.625H1247.62C1253.15 120.625 1257.62 116.147 1257.62 110.625V89.375C1257.62 83.8525 1253.15 79.375 1247.62 79.375ZM1238.02 87.4338H1239.17C1239.29 87.4338 1239.38 87.3412 1239.38 87.2262V84.675C1239.38 84.5775 1239.46 84.4987 1239.56 84.4987H1241.45C1241.55 84.4987 1241.62 84.5775 1241.62 84.675V87.2262C1241.62 87.3412 1241.72 87.4338 1241.83 87.4338H1242.99C1243.15 87.4338 1243.24 87.6338 1243.12 87.7513L1240.76 90.11C1240.62 90.2513 1240.39 90.2513 1240.25 90.11L1237.89 87.7513C1237.77 87.6338 1237.85 87.4338 1238.02 87.4338ZM1230.33 86.9637L1232.69 84.605C1232.83 84.4637 1233.06 84.4637 1233.2 84.605L1235.56 86.9637C1235.67 87.0812 1235.59 87.2812 1235.42 87.2812H1234.27C1234.16 87.2812 1234.06 87.3738 1234.06 87.4888V90.04C1234.06 90.1375 1233.98 90.2163 1233.89 90.2163H1232C1231.9 90.2163 1231.82 90.1375 1231.82 90.04V87.4888C1231.82 87.3738 1231.73 87.2812 1231.61 87.2812H1230.46C1230.29 87.2812 1230.21 87.0812 1230.33 86.9637ZM1252.29 109.34C1252.29 112.355 1249.84 114.808 1246.82 114.808H1227.18C1224.16 114.808 1221.71 112.355 1221.71 109.34V97.54C1221.71 94.525 1224.16 92.0725 1227.18 92.0725H1246.82C1249.84 92.0725 1252.29 94.525 1252.29 97.54V109.34Z" fill="#4592FB"/>
<path d="M1246.82 93.04H1227.18C1224.69 93.04 1222.68 95.0588 1222.68 97.54V109.34C1222.68 111.821 1224.69 113.841 1227.18 113.841H1246.82C1249.3 113.841 1251.32 111.822 1251.32 109.34V97.54C1251.32 95.0588 1249.3 93.04 1246.82 93.04ZM1244.61 95.925C1245.24 95.925 1245.76 96.44 1245.76 97.075C1245.76 97.71 1245.24 98.225 1244.61 98.225C1243.98 98.225 1243.46 97.71 1243.46 97.075C1243.46 96.44 1243.98 95.925 1244.61 95.925ZM1236.87 95.925C1237.5 95.925 1238.02 96.44 1238.02 97.075C1238.02 97.71 1237.5 98.225 1236.87 98.225C1236.23 98.225 1235.72 97.71 1235.72 97.075C1235.72 96.44 1236.23 95.925 1236.87 95.925ZM1229.12 95.925C1229.76 95.925 1230.27 96.44 1230.27 97.075C1230.27 97.71 1229.76 98.225 1229.12 98.225C1228.49 98.225 1227.97 97.71 1227.97 97.075C1227.97 96.44 1228.49 95.925 1229.12 95.925ZM1232.45 104.081C1232.45 104.441 1232.16 104.734 1231.8 104.734C1231.44 104.734 1231.15 104.441 1231.15 104.081V100.663H1230.81V110.084C1230.81 110.477 1230.49 110.796 1230.1 110.796C1229.7 110.796 1229.38 110.477 1229.38 110.084V104.665H1228.86V110.084C1228.86 110.477 1228.54 110.796 1228.15 110.796C1227.75 110.796 1227.43 110.477 1227.43 110.084V100.663H1227V104.081C1227 104.441 1226.7 104.734 1226.34 104.734C1225.98 104.734 1225.69 104.441 1225.69 104.081V100.051C1225.69 99.33 1226.27 98.7463 1227 98.7463H1231.15C1231.87 98.7463 1232.45 99.33 1232.45 100.051V104.081H1232.45ZM1240.2 104.081C1240.2 104.441 1239.91 104.734 1239.55 104.734C1239.19 104.734 1238.89 104.441 1238.89 104.081V100.663H1238.55V110.084C1238.55 110.477 1238.23 110.796 1237.84 110.796C1237.45 110.796 1237.13 110.477 1237.13 110.084V104.665H1236.6V110.084C1236.6 110.477 1236.28 110.796 1235.89 110.796C1235.5 110.796 1235.18 110.477 1235.18 110.084V100.663H1234.74V104.081C1234.74 104.441 1234.45 104.734 1234.09 104.734C1233.73 104.734 1233.44 104.441 1233.44 104.081V100.051C1233.44 99.33 1234.02 98.7463 1234.74 98.7463H1238.89C1239.61 98.7463 1240.2 99.33 1240.2 100.051L1240.2 104.081ZM1247.94 104.081C1247.94 104.441 1247.65 104.734 1247.29 104.734C1246.93 104.734 1246.64 104.441 1246.64 104.081V100.663H1246.3V110.084C1246.3 110.477 1245.98 110.796 1245.58 110.796C1245.19 110.796 1244.87 110.477 1244.87 110.084V104.665H1244.35V110.084C1244.35 110.477 1244.03 110.796 1243.63 110.796C1243.24 110.796 1242.92 110.477 1242.92 110.084V100.663H1242.48V104.081C1242.48 104.441 1242.19 104.734 1241.83 104.734C1241.47 104.734 1241.18 104.441 1241.18 104.081V100.051C1241.18 99.33 1241.76 98.7463 1242.48 98.7463H1246.64C1247.36 98.7463 1247.94 99.33 1247.94 100.051V104.081H1247.94Z" fill="#4592FB"/>
<path d="M1236.87 98.225C1237.5 98.225 1238.02 97.71 1238.02 97.075C1238.02 96.44 1237.5 95.925 1236.87 95.925C1236.23 95.925 1235.72 96.44 1235.72 97.075C1235.72 97.71 1236.23 98.225 1236.87 98.225Z" fill="white"/>
<path d="M1229.12 98.225C1229.76 98.225 1230.27 97.71 1230.27 97.075C1230.27 96.44 1229.76 95.925 1229.12 95.925C1228.49 95.925 1227.97 96.44 1227.97 97.075C1227.97 97.71 1228.49 98.225 1229.12 98.225Z" fill="white"/>
<path d="M1244.61 98.225C1245.24 98.225 1245.76 97.71 1245.76 97.075C1245.76 96.44 1245.24 95.925 1244.61 95.925C1243.98 95.925 1243.46 96.44 1243.46 97.075C1243.46 97.71 1243.98 98.225 1244.61 98.225Z" fill="white"/>
<path d="M1246.83 92.075H1227.18C1224.16 92.075 1221.71 94.525 1221.71 97.5375V109.337C1221.71 112.35 1224.16 114.812 1227.18 114.812H1246.83C1249.84 114.812 1252.29 112.35 1252.29 109.337V97.5375C1252.29 94.525 1249.84 92.075 1246.83 92.075ZM1251.33 109.337C1251.33 111.825 1249.3 113.838 1246.83 113.838H1227.18C1224.7 113.838 1222.67 111.825 1222.67 109.337V97.5375C1222.67 95.0625 1224.7 93.0375 1227.18 93.0375H1246.83C1249.3 93.0375 1251.33 95.0625 1251.33 97.5375V109.337Z" fill="white"/>
<path d="M1247.94 100.05V104.075C1247.94 104.438 1247.65 104.737 1247.29 104.737C1246.92 104.737 1246.64 104.438 1246.64 104.075V100.663L1246.3 100.662V110.087C1246.3 110.475 1245.98 110.8 1245.59 110.8C1245.19 110.8 1244.88 110.475 1244.88 110.087V104.662H1244.35V110.087C1244.35 110.475 1244.02 110.8 1243.64 110.8C1243.24 110.8 1242.92 110.475 1242.92 110.087V100.662H1242.49V104.075C1242.49 104.438 1242.19 104.737 1241.84 104.737C1241.48 104.737 1241.17 104.438 1241.17 104.075V100.05C1241.17 99.325 1241.76 98.75 1242.49 98.75H1246.64C1247.36 98.75 1247.94 99.325 1247.94 100.05Z" fill="white"/>
<path d="M1232.45 100.05V104.075C1232.45 104.438 1232.16 104.737 1231.8 104.737C1231.44 104.737 1231.15 104.438 1231.15 104.075V100.663L1230.81 100.662V110.087C1230.81 110.475 1230.49 110.8 1230.1 110.8C1229.7 110.8 1229.39 110.475 1229.39 110.087V104.662H1228.86V110.087C1228.86 110.475 1228.54 110.8 1228.15 110.8C1227.75 110.8 1227.44 110.475 1227.44 110.087V100.662H1227V104.075C1227 104.438 1226.7 104.737 1226.35 104.737C1225.99 104.737 1225.69 104.438 1225.69 104.075V100.05C1225.69 99.325 1226.27 98.75 1227 98.75H1231.15C1231.88 98.75 1232.45 99.325 1232.45 100.05Z" fill="white"/>
<path d="M1240.2 100.05V104.075C1240.2 104.438 1239.91 104.737 1239.55 104.737C1239.19 104.737 1238.9 104.438 1238.9 104.075V100.662H1238.55V110.087C1238.55 110.475 1238.24 110.8 1237.84 110.8C1237.45 110.8 1237.12 110.475 1237.12 110.087V104.662H1236.6V110.087C1236.6 110.475 1236.29 110.8 1235.89 110.8C1235.5 110.8 1235.17 110.475 1235.17 110.087V100.662H1234.74V104.075C1234.74 104.438 1234.45 104.737 1234.09 104.737C1233.73 104.737 1233.44 104.438 1233.44 104.075V100.05C1233.44 99.325 1234.02 98.75 1234.74 98.75H1238.9C1239.61 98.75 1240.2 99.325 1240.2 100.05Z" fill="white"/>
<path d="M1230.46 87.2815H1231.61C1231.73 87.2815 1231.82 87.374 1231.82 87.489V90.0402C1231.82 90.1377 1231.9 90.2165 1232 90.2165H1233.89C1233.99 90.2165 1234.06 90.1377 1234.06 90.0402V87.489C1234.06 87.374 1234.16 87.2815 1234.27 87.2815H1235.42C1235.59 87.2815 1235.67 87.0802 1235.56 86.964L1233.2 84.6052C1233.06 84.464 1232.83 84.464 1232.69 84.6052L1230.33 86.964C1230.21 87.0815 1230.29 87.2815 1230.46 87.2815Z" fill="white"/>
<path d="M1240.25 90.11C1240.39 90.2513 1240.62 90.2513 1240.76 90.11L1243.11 87.7513C1243.23 87.6338 1243.15 87.4338 1242.98 87.4338H1241.83C1241.71 87.4338 1241.62 87.3412 1241.62 87.2262V84.675C1241.62 84.5775 1241.54 84.4988 1241.45 84.4988H1239.56C1239.46 84.4988 1239.38 84.5775 1239.38 84.675V87.2262C1239.38 87.3412 1239.29 87.4338 1239.17 87.4338H1238.02C1237.85 87.4338 1237.77 87.6338 1237.89 87.7513L1240.25 90.11Z" fill="white"/>
</g>
<g id="mirae_hall_1f_stairs_left_main">
<path d="M1204 138C1204 133.582 1207.58 130 1212 130H1330C1334.42 130 1338 133.582 1338 138V231C1338 235.418 1334.42 239 1330 239H1212C1207.58 239 1204 235.418 1204 231V138Z" fill="#D9FFE6"/>
<path d="M1330 236V239H1212L1212 236H1330ZM1335 231V138C1335 135.239 1332.76 133 1330 133H1212C1209.24 133 1207 135.239 1207 138V231C1207 233.761 1209.24 236 1212 236L1212 239C1207.58 239 1204 235.418 1204 231V138C1204 133.582 1207.58 130 1212 130H1330C1334.42 130 1338 133.582 1338 138V231C1338 235.418 1334.42 239 1330 239V236C1332.76 236 1335 233.761 1335 231Z" fill="#2E2F33" fill-opacity="0.88"/>
<path d="M1294.94 157.635C1293.89 157.248 1292.73 157.788 1292.34 158.836L1288.58 169.056H1267.28L1270.81 160.289C1271.22 159.251 1270.72 158.071 1269.68 157.654C1268.64 157.237 1267.46 157.743 1267.05 158.778L1247.43 207.581C1247.01 208.619 1247.52 209.8 1248.56 210.217C1248.8 210.316 1249.06 210.364 1249.31 210.364C1250.11 210.364 1250.87 209.884 1251.19 209.093L1255.22 199.071C1255.31 199.083 1255.38 199.121 1255.47 199.121H1277.52L1274.39 207.64C1274 208.688 1274.54 209.854 1275.59 210.238C1275.82 210.324 1276.06 210.364 1276.29 210.364C1277.11 210.364 1277.89 209.855 1278.19 209.036L1296.14 160.233C1296.53 159.184 1295.99 158.019 1294.94 157.635ZM1266.07 173.104H1287.09L1283.85 181.91H1262.11L1265.69 173.026C1265.82 173.052 1265.94 173.104 1266.07 173.104ZM1256.83 195.072L1260.51 185.903C1260.61 185.917 1260.69 185.96 1260.79 185.96H1282.36L1279.01 195.072H1256.83Z" fill="#6E4944"/>
</g>
<g id="mirae_hall_1f_stairs_outside">
<path d="M2428 717C2428 712.582 2431.58 709 2436 709H2506C2510.42 709 2514 712.582 2514 717V878C2514 882.418 2510.42 886 2506 886H2436C2431.58 886 2428 882.418 2428 878V717Z" fill="#D9FFE6"/>
<path d="M2506 883V886H2436L2436 883H2506ZM2511 878V717C2511 714.239 2508.76 712 2506 712H2436C2433.24 712 2431 714.239 2431 717V878C2431 880.761 2433.24 883 2436 883L2436 886L2435.59 885.989C2431.36 885.775 2428 882.28 2428 878V717C2428 712.582 2431.58 709 2436 709H2506C2510.42 709 2514 712.582 2514 717V878C2514 882.418 2510.42 886 2506 886V883C2508.76 883 2511 880.761 2511 878Z" fill="#2E2F33" fill-opacity="0.88"/>
<path d="M2494.94 770.634C2493.89 770.247 2492.73 770.787 2492.34 771.836L2488.58 782.055H2467.28L2470.81 773.289C2471.22 772.251 2470.72 771.071 2469.68 770.654C2468.64 770.237 2467.46 770.743 2467.05 771.778L2447.43 820.581C2447.02 821.619 2447.52 822.8 2448.56 823.217C2448.8 823.316 2449.06 823.364 2449.31 823.364C2450.11 823.364 2450.87 822.884 2451.19 822.093L2455.22 812.071C2455.31 812.083 2455.38 812.121 2455.47 812.121H2477.52L2474.39 820.64C2474 821.688 2474.54 822.854 2475.59 823.238C2475.82 823.324 2476.06 823.364 2476.29 823.364C2477.11 823.364 2477.89 822.855 2478.19 822.036L2496.14 773.232C2496.53 772.184 2495.99 771.018 2494.94 770.634ZM2466.07 786.104H2487.09L2483.85 794.91H2462.11L2465.69 786.026C2465.82 786.051 2465.94 786.104 2466.07 786.104ZM2456.83 808.072L2460.51 798.903C2460.61 798.917 2460.69 798.961 2460.79 798.961H2482.36L2479.01 808.072H2456.83Z" fill="#6E4944"/>
</g>
<g id="mirae_hall_1f_stairs_right_main">
<path d="M992 829C992 824.582 995.582 821 1000 821H1095C1099.42 821 1103 824.582 1103 829V970C1103 974.418 1099.42 978 1095 978H1000C995.582 978 992 974.418 992 970V829Z" fill="#D9FFE6"/>
<path d="M1095 975V978H1000L1000 975H1095ZM1100 970V829C1100 826.239 1097.76 824 1095 824H1000C997.239 824 995 826.239 995 829V970C995 972.761 997.239 975 1000 975L1000 978C995.582 978 992 974.418 992 970V829C992 824.582 995.582 821 1000 821H1095C1099.42 821 1103 824.582 1103 829V970C1103 974.418 1099.42 978 1095 978V975C1097.76 975 1100 972.761 1100 970Z" fill="#2E2F33" fill-opacity="0.88"/>
<path d="M1070.94 872.634C1069.89 872.247 1068.73 872.787 1068.34 873.836L1064.58 884.056H1043.28L1046.81 875.29C1047.22 874.252 1046.72 873.071 1045.68 872.654C1044.64 872.237 1043.46 872.743 1043.05 873.778L1023.43 922.581C1023.02 923.619 1023.52 924.8 1024.56 925.217C1024.8 925.316 1025.06 925.364 1025.31 925.364C1026.11 925.364 1026.87 924.884 1027.19 924.093L1031.22 914.071C1031.31 914.083 1031.38 914.121 1031.47 914.121H1053.52L1050.39 922.64C1050 923.688 1050.54 924.854 1051.59 925.238C1051.82 925.324 1052.06 925.364 1052.29 925.364C1053.11 925.364 1053.89 924.855 1054.19 924.036L1072.14 875.233C1072.53 874.184 1071.99 873.018 1070.94 872.634ZM1042.07 888.104H1063.09L1059.85 896.91H1038.11L1041.69 888.026C1041.82 888.051 1041.94 888.104 1042.07 888.104ZM1032.83 910.072L1036.51 900.903C1036.61 900.917 1036.69 900.961 1036.79 900.961H1058.36L1055.01 910.072H1032.83Z" fill="#6E4944"/>
</g>
<g id="mirae_hall_1f_stairs">
<path d="M6 299C6 294.582 9.58172 291 14 291H93C97.4183 291 101 294.582 101 299V424C101 428.418 97.4183 432 93 432H14C9.58172 432 6 428.418 6 424V299Z" fill="#D9FFE6"/>
<path d="M93 429V432H14L14 429H93ZM98 424V299C98 296.239 95.7614 294 93 294H14C11.2386 294 9 296.239 9 299V424C9 426.761 11.2386 429 14 429L14 432L13.5879 431.989C9.36114 431.775 6 428.28 6 424V299C6 294.582 9.58172 291 14 291H93C97.4183 291 101 294.582 101 299V424C101 428.418 97.4183 432 93 432V429C95.7614 429 98 426.761 98 424Z" fill="#2E2F33" fill-opacity="0.88"/>
<path d="M76.94 334.634C75.8915 334.247 74.7275 334.787 74.3405 335.836L70.58 346.056H49.2815L52.805 337.29C53.222 336.252 52.7195 335.071 51.6815 334.654C50.6435 334.237 49.4645 334.743 49.0475 335.778L29.432 384.581C29.015 385.619 29.5175 386.8 30.5555 387.217C30.803 387.316 31.058 387.364 31.31 387.364C32.1125 387.364 32.873 386.884 33.1895 386.093L37.2185 376.071C37.3055 376.083 37.382 376.121 37.472 376.121H59.519L56.3855 384.64C56 385.688 56.537 386.854 57.587 387.238C57.818 387.324 58.055 387.364 58.286 387.364C59.1095 387.364 59.885 386.855 60.1865 386.036L78.1415 337.233C78.527 336.184 77.99 335.018 76.94 334.634ZM48.074 350.104H69.089L65.849 358.91H44.114L47.6855 350.026C47.816 350.052 47.936 350.104 48.074 350.104ZM38.825 372.072L42.5105 362.903C42.6065 362.917 42.6935 362.961 42.794 362.961H64.361L61.0085 372.072H38.825Z" fill="#6E4944"/>
</g>
<g id="mirae_hall_1f_elevator_right">
<path d="M1031 983C1031 978.582 1034.58 975 1039 975H1095C1099.42 975 1103 978.582 1103 983V1047C1103 1051.42 1099.42 1055 1095 1055H1039C1034.58 1055 1031 1051.42 1031 1047V983Z" fill="#F2F2F2"/>
<path d="M1095 1052V1055H1039L1039 1052H1095ZM1100 1047V983C1100 980.239 1097.76 978 1095 978H1039C1036.24 978 1034 980.239 1034 983V1047C1034 1049.76 1036.24 1052 1039 1052L1039 1055L1038.59 1054.99C1034.36 1054.77 1031 1051.28 1031 1047V983C1031 978.582 1034.58 975 1039 975H1095C1099.42 975 1103 978.582 1103 983V1047C1103 1051.42 1099.42 1055 1095 1055V1052C1097.76 1052 1100 1049.76 1100 1047Z" fill="#2E2F33" fill-opacity="0.88"/>
<path d="M1077.62 994.375H1056.38C1050.85 994.375 1046.38 998.853 1046.38 1004.38V1025.62C1046.38 1031.15 1050.85 1035.62 1056.38 1035.62H1077.62C1083.15 1035.62 1087.62 1031.15 1087.62 1025.62V1004.38C1087.62 998.853 1083.15 994.375 1077.62 994.375ZM1068.02 1002.43H1069.17C1069.29 1002.43 1069.38 1002.34 1069.38 1002.23V999.675C1069.38 999.577 1069.46 999.499 1069.56 999.499H1071.45C1071.55 999.499 1071.62 999.577 1071.62 999.675V1002.23C1071.62 1002.34 1071.72 1002.43 1071.83 1002.43H1072.99C1073.15 1002.43 1073.24 1002.63 1073.12 1002.75L1070.76 1005.11C1070.62 1005.25 1070.39 1005.25 1070.25 1005.11L1067.89 1002.75C1067.77 1002.63 1067.85 1002.43 1068.02 1002.43ZM1060.33 1001.96L1062.69 999.605C1062.83 999.464 1063.06 999.464 1063.2 999.605L1065.56 1001.96C1065.67 1002.08 1065.59 1002.28 1065.42 1002.28H1064.27C1064.15 1002.28 1064.06 1002.37 1064.06 1002.49V1005.04C1064.06 1005.14 1063.98 1005.22 1063.89 1005.22H1062C1061.9 1005.22 1061.82 1005.14 1061.82 1005.04V1002.49C1061.82 1002.37 1061.73 1002.28 1061.61 1002.28H1060.46C1060.29 1002.28 1060.21 1002.08 1060.33 1001.96ZM1082.29 1024.34C1082.29 1027.35 1079.84 1029.81 1076.82 1029.81H1057.18C1054.16 1029.81 1051.71 1027.35 1051.71 1024.34V1012.54C1051.71 1009.53 1054.16 1007.07 1057.18 1007.07H1076.82C1079.84 1007.07 1082.29 1009.53 1082.29 1012.54V1024.34Z" fill="#4592FB"/>
<path d="M1076.82 1008.04H1057.18C1054.69 1008.04 1052.68 1010.06 1052.68 1012.54V1024.34C1052.68 1026.82 1054.69 1028.84 1057.18 1028.84H1076.82C1079.3 1028.84 1081.32 1026.82 1081.32 1024.34V1012.54C1081.32 1010.06 1079.3 1008.04 1076.82 1008.04ZM1074.61 1010.92C1075.24 1010.92 1075.76 1011.44 1075.76 1012.08C1075.76 1012.71 1075.24 1013.22 1074.61 1013.22C1073.98 1013.22 1073.46 1012.71 1073.46 1012.08C1073.46 1011.44 1073.98 1010.92 1074.61 1010.92ZM1066.87 1010.92C1067.5 1010.92 1068.02 1011.44 1068.02 1012.08C1068.02 1012.71 1067.5 1013.22 1066.87 1013.22C1066.23 1013.22 1065.72 1012.71 1065.72 1012.08C1065.72 1011.44 1066.23 1010.92 1066.87 1010.92ZM1059.12 1010.92C1059.76 1010.92 1060.27 1011.44 1060.27 1012.08C1060.27 1012.71 1059.76 1013.22 1059.12 1013.22C1058.49 1013.22 1057.97 1012.71 1057.97 1012.08C1057.97 1011.44 1058.49 1010.92 1059.12 1010.92ZM1062.45 1019.08C1062.45 1019.44 1062.16 1019.73 1061.8 1019.73C1061.44 1019.73 1061.15 1019.44 1061.15 1019.08V1015.66H1060.81V1025.08C1060.81 1025.48 1060.49 1025.8 1060.1 1025.8C1059.7 1025.8 1059.38 1025.48 1059.38 1025.08V1019.67H1058.86V1025.08C1058.86 1025.48 1058.54 1025.8 1058.15 1025.8C1057.75 1025.8 1057.43 1025.48 1057.43 1025.08V1015.66H1057V1019.08C1057 1019.44 1056.7 1019.73 1056.34 1019.73C1055.98 1019.73 1055.69 1019.44 1055.69 1019.08V1015.05C1055.69 1014.33 1056.27 1013.75 1057 1013.75H1061.15C1061.87 1013.75 1062.45 1014.33 1062.45 1015.05V1019.08H1062.45ZM1070.2 1019.08C1070.2 1019.44 1069.91 1019.73 1069.55 1019.73C1069.19 1019.73 1068.89 1019.44 1068.89 1019.08V1015.66H1068.55V1025.08C1068.55 1025.48 1068.23 1025.8 1067.84 1025.8C1067.45 1025.8 1067.13 1025.48 1067.13 1025.08V1019.67H1066.6V1025.08C1066.6 1025.48 1066.28 1025.8 1065.89 1025.8C1065.5 1025.8 1065.18 1025.48 1065.18 1025.08V1015.66H1064.74V1019.08C1064.74 1019.44 1064.45 1019.73 1064.09 1019.73C1063.73 1019.73 1063.44 1019.44 1063.44 1019.08V1015.05C1063.44 1014.33 1064.02 1013.75 1064.74 1013.75H1068.89C1069.61 1013.75 1070.2 1014.33 1070.2 1015.05L1070.2 1019.08ZM1077.94 1019.08C1077.94 1019.44 1077.65 1019.73 1077.29 1019.73C1076.93 1019.73 1076.64 1019.44 1076.64 1019.08V1015.66H1076.3V1025.08C1076.3 1025.48 1075.98 1025.8 1075.58 1025.8C1075.19 1025.8 1074.87 1025.48 1074.87 1025.08V1019.67H1074.35V1025.08C1074.35 1025.48 1074.03 1025.8 1073.63 1025.8C1073.24 1025.8 1072.92 1025.48 1072.92 1025.08V1015.66H1072.48V1019.08C1072.48 1019.44 1072.19 1019.73 1071.83 1019.73C1071.47 1019.73 1071.18 1019.44 1071.18 1019.08V1015.05C1071.18 1014.33 1071.76 1013.75 1072.48 1013.75H1076.64C1077.36 1013.75 1077.94 1014.33 1077.94 1015.05V1019.08H1077.94Z" fill="#4592FB"/>
<path d="M1066.87 1013.22C1067.5 1013.22 1068.02 1012.71 1068.02 1012.08C1068.02 1011.44 1067.5 1010.92 1066.87 1010.92C1066.23 1010.92 1065.72 1011.44 1065.72 1012.08C1065.72 1012.71 1066.23 1013.22 1066.87 1013.22Z" fill="white"/>
<path d="M1059.12 1013.22C1059.76 1013.22 1060.27 1012.71 1060.27 1012.08C1060.27 1011.44 1059.76 1010.92 1059.12 1010.92C1058.49 1010.92 1057.97 1011.44 1057.97 1012.08C1057.97 1012.71 1058.49 1013.22 1059.12 1013.22Z" fill="white"/>
<path d="M1074.61 1013.22C1075.24 1013.22 1075.76 1012.71 1075.76 1012.08C1075.76 1011.44 1075.24 1010.92 1074.61 1010.92C1073.98 1010.92 1073.46 1011.44 1073.46 1012.08C1073.46 1012.71 1073.98 1013.22 1074.61 1013.22Z" fill="white"/>
<path d="M1076.83 1007.08H1057.18C1054.16 1007.08 1051.71 1009.53 1051.71 1012.54V1024.34C1051.71 1027.35 1054.16 1029.81 1057.18 1029.81H1076.83C1079.84 1029.81 1082.29 1027.35 1082.29 1024.34V1012.54C1082.29 1009.53 1079.84 1007.08 1076.83 1007.08ZM1081.33 1024.34C1081.33 1026.82 1079.3 1028.84 1076.83 1028.84H1057.18C1054.7 1028.84 1052.67 1026.82 1052.67 1024.34V1012.54C1052.67 1010.06 1054.7 1008.04 1057.18 1008.04H1076.83C1079.3 1008.04 1081.33 1010.06 1081.33 1012.54V1024.34Z" fill="white"/>
<path d="M1077.94 1015.05V1019.08C1077.94 1019.44 1077.65 1019.74 1077.29 1019.74C1076.92 1019.74 1076.64 1019.44 1076.64 1019.08V1015.66L1076.3 1015.66V1025.09C1076.3 1025.47 1075.98 1025.8 1075.59 1025.8C1075.19 1025.8 1074.88 1025.47 1074.88 1025.09V1019.66H1074.35V1025.09C1074.35 1025.47 1074.02 1025.8 1073.64 1025.8C1073.24 1025.8 1072.92 1025.47 1072.92 1025.09V1015.66H1072.49V1019.08C1072.49 1019.44 1072.19 1019.74 1071.84 1019.74C1071.48 1019.74 1071.17 1019.44 1071.17 1019.08V1015.05C1071.17 1014.33 1071.76 1013.75 1072.49 1013.75H1076.64C1077.36 1013.75 1077.94 1014.33 1077.94 1015.05Z" fill="white"/>
<path d="M1062.45 1015.05V1019.08C1062.45 1019.44 1062.16 1019.74 1061.8 1019.74C1061.44 1019.74 1061.15 1019.44 1061.15 1019.08V1015.66L1060.81 1015.66V1025.09C1060.81 1025.47 1060.49 1025.8 1060.1 1025.8C1059.7 1025.8 1059.39 1025.47 1059.39 1025.09V1019.66H1058.86V1025.09C1058.86 1025.47 1058.54 1025.8 1058.15 1025.8C1057.75 1025.8 1057.44 1025.47 1057.44 1025.09V1015.66H1057V1019.08C1057 1019.44 1056.7 1019.74 1056.35 1019.74C1055.99 1019.74 1055.69 1019.44 1055.69 1019.08V1015.05C1055.69 1014.33 1056.27 1013.75 1057 1013.75H1061.15C1061.88 1013.75 1062.45 1014.33 1062.45 1015.05Z" fill="white"/>
<path d="M1070.2 1015.05V1019.08C1070.2 1019.44 1069.91 1019.74 1069.55 1019.74C1069.19 1019.74 1068.9 1019.44 1068.9 1019.08V1015.66H1068.55V1025.09C1068.55 1025.47 1068.24 1025.8 1067.84 1025.8C1067.45 1025.8 1067.12 1025.47 1067.12 1025.09V1019.66H1066.6V1025.09C1066.6 1025.47 1066.29 1025.8 1065.89 1025.8C1065.5 1025.8 1065.17 1025.47 1065.17 1025.09V1015.66H1064.74V1019.08C1064.74 1019.44 1064.45 1019.74 1064.09 1019.74C1063.72 1019.74 1063.44 1019.44 1063.44 1019.08V1015.05C1063.44 1014.33 1064.02 1013.75 1064.74 1013.75H1068.9C1069.61 1013.75 1070.2 1014.33 1070.2 1015.05Z" fill="white"/>
<path d="M1060.46 1002.28H1061.61C1061.73 1002.28 1061.82 1002.37 1061.82 1002.49V1005.04C1061.82 1005.14 1061.9 1005.22 1062 1005.22H1063.89C1063.99 1005.22 1064.06 1005.14 1064.06 1005.04V1002.49C1064.06 1002.37 1064.16 1002.28 1064.27 1002.28H1065.42C1065.59 1002.28 1065.67 1002.08 1065.56 1001.96L1063.2 999.605C1063.06 999.464 1062.83 999.464 1062.69 999.605L1060.33 1001.96C1060.21 1002.08 1060.29 1002.28 1060.46 1002.28Z" fill="white"/>
<path d="M1070.25 1005.11C1070.39 1005.25 1070.62 1005.25 1070.76 1005.11L1073.11 1002.75C1073.23 1002.63 1073.15 1002.43 1072.98 1002.43H1071.83C1071.71 1002.43 1071.62 1002.34 1071.62 1002.23V999.675C1071.62 999.577 1071.54 999.499 1071.45 999.499H1069.56C1069.46 999.499 1069.38 999.577 1069.38 999.675V1002.23C1069.38 1002.34 1069.29 1002.43 1069.17 1002.43H1068.02C1067.85 1002.43 1067.77 1002.63 1067.89 1002.75L1070.25 1005.11Z" fill="white"/>
</g>
<g id="mirae_hall_111">
<path d="M6 14C6 9.58173 9.58172 6 14 6H154C158.418 6 162 9.58172 162 14V235C162 239.418 158.418 243 154 243H14C9.58172 243 6 239.418 6 235V14Z" fill="#F7FBFF"/>
<path d="M154 240V243H14L14 240H154ZM159 235V14C159 11.2386 156.761 9 154 9H14C11.2386 9 9 11.2386 9 14V235C9 237.761 11.2386 240 14 240L14 243L13.5879 242.989C9.36114 242.775 6 239.28 6 235V14C6 9.58173 9.58172 6 14 6H154C158.418 6 162 9.58172 162 14V235C162 239.418 158.418 243 154 243V240C156.761 240 159 237.761 159 235Z" fill="#2E2F33" fill-opacity="0.88"/>
<path d="M101.438 112.375V135H97.3438V116.344H97.2188L91.9375 119.719V116L97.5312 112.375H101.438Z" fill="black"/>
<path d="M86.75 112.375V135H82.6562V116.344H82.5312L77.25 119.719V116L82.8438 112.375H86.75Z" fill="black"/>
<path d="M72.0625 112.375V135H67.9688V116.344H67.8438L62.5625 119.719V116L68.1562 112.375H72.0625Z" fill="black"/>
</g>
<g id="mirae_hall_112">
<path d="M159 14C159 9.58173 162.582 6 167 6H324C328.418 6 332 9.58172 332 14V235C332 239.418 328.418 243 324 243H167C162.582 243 159 239.418 159 235V14Z" fill="#F7FBFF"/>
<path d="M324 240V243H167V240H324ZM329 235V14C329 11.2386 326.761 9 324 9H167C164.239 9 162 11.2386 162 14V235C162 237.761 164.239 240 167 240V243C162.582 243 159 239.418 159 235V14C159 9.58173 162.582 6 167 6H324C328.418 6 332 9.58172 332 14V235C332 239.418 328.418 243 324 243V240C326.761 240 329 237.761 329 235Z" fill="#2E2F33" fill-opacity="0.88"/>
<path d="M252.25 135V132.062L260.25 124.344C262.531 122.062 263.719 120.719 263.719 118.812C263.719 116.719 262.062 115.375 259.844 115.375C257.5 115.375 256 116.844 256.031 119.125H252.156C252.125 114.844 255.344 112.062 259.875 112.062C264.5 112.062 267.625 114.812 267.625 118.625C267.625 121.188 266.375 123.25 261.938 127.438L257.906 131.438V131.594H267.969V135H252.25Z" fill="black"/>
<path d="M246.75 112.375V135H242.656V116.344H242.531L237.25 119.719V116L242.844 112.375H246.75Z" fill="black"/>
<path d="M232.062 112.375V135H227.969V116.344H227.844L222.562 119.719V116L228.156 112.375H232.062Z" fill="black"/>
</g>
<g id="mirae_hall_114">
<path d="M329 14C329 9.58173 332.582 6 337 6H516C520.418 6 524 9.58172 524 14V235C524 239.418 520.418 243 516 243H337C332.582 243 329 239.418 329 235V14Z" fill="#F7FBFF"/>
<path d="M516 240V243H337L337 240H516ZM521 235V14C521 11.2386 518.761 9 516 9H337C334.239 9 332 11.2386 332 14V235C332 237.761 334.239 240 337 240L337 243L336.588 242.989C332.361 242.775 329 239.28 329 235V14C329 9.58173 332.582 6 337 6H516C520.418 6 524 9.58172 524 14V235C524 239.418 520.418 243 516 243V240C518.761 240 521 237.761 521 235Z" fill="#2E2F33" fill-opacity="0.88"/>
<path d="M431.844 130.781V127.531L441.625 112.375H446.688V127.438H449.656V130.781H446.688V135H442.812V130.781H431.844ZM436 127.438H442.875V117H442.625L436 127.281V127.438Z" fill="black"/>
<path d="M426.75 112.375V135H422.656V116.344H422.531L417.25 119.719V116L422.844 112.375H426.75Z" fill="black"/>
<path d="M412.062 112.375V135H407.969V116.344H407.844L402.562 119.719V116L408.156 112.375H412.062Z" fill="black"/>
</g>
<g id="mirae_hall_107">
<path d="M332 299C332 294.582 335.582 291 340 291H519C523.418 291 527 294.582 527 299V424C527 428.418 523.418 432 519 432H340C335.582 432 332 428.418 332 424V299Z" fill="#F7FBFF"/>
<path d="M519 429V432H340L340 429H519ZM524 424V299C524 296.239 521.761 294 519 294H340C337.239 294 335 296.239 335 299V424C335 426.761 337.239 429 340 429L340 432L339.588 431.989C335.361 431.775 332 428.28 332 424V299C332 294.582 335.582 291 340 291H519C523.418 291 527 294.582 527 299V424C527 428.418 523.418 432 519 432V429C521.761 429 524 426.761 524 424Z" fill="#2E2F33" fill-opacity="0.88"/>
<path d="M440.219 372L450.031 352.938V352.781H438.656V349.375H454.25V352.844L444.438 372H440.219Z" fill="black"/>
<path d="M427.906 372.312C422.469 372.312 419.219 368.094 419.219 360.688C419.219 353.312 422.469 349.062 427.906 349.062C433.312 349.062 436.594 353.312 436.594 360.688C436.594 368.094 433.344 372.312 427.906 372.312ZM427.906 368.906C430.75 368.906 432.5 366.125 432.5 360.688C432.5 355.281 430.719 352.438 427.906 352.438C425.094 352.438 423.312 355.281 423.312 360.688C423.312 366.125 425.062 368.906 427.906 368.906Z" fill="black"/>
<path d="M414.062 349.375V372H409.969V353.344H409.844L404.562 356.719V353L410.156 349.375H414.062Z" fill="black"/>
</g>
<g id="mirae_hall_104">
<path d="M524 299C524 294.582 527.582 291 532 291H764C768.418 291 772 294.582 772 299V424C772 428.418 768.418 432 764 432H532C527.582 432 524 428.418 524 424V299Z" fill="#F7FBFF"/>
<path d="M764 429V432H532L532 429H764ZM769 424V299C769 296.239 766.761 294 764 294H532C529.239 294 527 296.239 527 299V424C527 426.761 529.239 429 532 429L532 432C527.582 432 524 428.418 524 424V299C524 294.72 527.361 291.225 531.588 291.011L532 291H764C768.418 291 772 294.582 772 299V424C772 428.418 768.418 432 764 432V429C766.761 429 769 426.761 769 424Z" fill="#2E2F33" fill-opacity="0.88"/>
<path d="M656.594 367.781V364.531L666.375 349.375H671.438V364.438H674.406V367.781H671.438V372H667.562V367.781H656.594ZM660.75 364.438H667.625V354H667.375L660.75 364.281V364.438Z" fill="black"/>
<path d="M644.906 372.312C639.469 372.312 636.219 368.094 636.219 360.688C636.219 353.312 639.469 349.062 644.906 349.062C650.312 349.062 653.594 353.312 653.594 360.688C653.594 368.094 650.344 372.312 644.906 372.312ZM644.906 368.906C647.75 368.906 649.5 366.125 649.5 360.688C649.5 355.281 647.719 352.438 644.906 352.438C642.094 352.438 640.312 355.281 640.312 360.688C640.312 366.125 642.062 368.906 644.906 368.906Z" fill="black"/>
<path d="M631.062 349.375V372H626.969V353.344H626.844L621.562 356.719V353L627.156 349.375H631.062Z" fill="black"/>
</g>
<g id="mirae_hall_116">
<path d="M521 14C521 9.58173 524.582 6 529 6H708C712.418 6 716 9.58172 716 14V235C716 239.418 712.418 243 708 243H529C524.582 243 521 239.418 521 235V14Z" fill="#F7FBFF"/>
<path d="M708 240V243H529L529 240H708ZM713 235V14C713 11.2386 710.761 9 708 9H529C526.239 9 524 11.2386 524 14V235C524 237.761 526.239 240 529 240L529 243L528.588 242.989C524.361 242.775 521 239.28 521 235V14C521 9.58173 524.582 6 529 6H708C712.418 6 716 9.58172 716 14V235C716 239.418 712.418 243 708 243V240C710.761 240 713 237.761 713 235Z" fill="#2E2F33" fill-opacity="0.88"/>
<path d="M632.719 135.312C628.312 135.281 623.875 132.656 623.906 124.312C623.906 116.562 627.437 112.062 632.969 112.062C637.344 112.062 640.344 114.812 640.844 118.469H636.812C636.406 116.75 635.031 115.594 632.969 115.594C629.687 115.594 627.844 118.5 627.844 123.25H628.062C629.219 121.312 631.406 120.156 633.875 120.156C637.937 120.156 641.062 123.219 641.062 127.5C641.062 132 637.719 135.344 632.719 135.312ZM632.719 132.031C635.25 132.031 637.125 130.062 637.125 127.594C637.125 125.188 635.281 123.25 632.781 123.25C630.25 123.25 628.312 125.25 628.281 127.625C628.312 130 630.156 132.031 632.719 132.031Z" fill="black"/>
<path d="M618.75 112.375V135H614.656V116.344H614.531L609.25 119.719V116L614.844 112.375H618.75Z" fill="black"/>
<path d="M604.062 112.375V135H599.969V116.344H599.844L594.562 119.719V116L600.156 112.375H604.062Z" fill="black"/>
</g>
<g id="mirae_hall_118">
<path d="M713 14C713 9.58173 716.582 6 721 6H897C901.418 6 905 9.58172 905 14V235C905 239.418 901.418 243 897 243H721C716.582 243 713 239.418 713 235V14Z" fill="#F7FBFF"/>
<path d="M897 240V243H721L721 240H897ZM902 235V14C902 11.2386 899.761 9 897 9H721C718.239 9 716 11.2386 716 14V235C716 237.761 718.239 240 721 240L721 243C716.582 243 713 239.418 713 235V14C713 9.58173 716.582 6 721 6H897C901.418 6 905 9.58172 905 14V235C905 239.418 901.418 243 897 243V240C899.761 240 902 237.761 902 235Z" fill="#2E2F33" fill-opacity="0.88"/>
<path d="M823.469 135.312C818.438 135.312 814.875 132.625 814.875 128.938C814.875 126.062 817 123.719 819.719 123.281V123.156C817.344 122.656 815.719 120.594 815.719 118.125C815.719 114.625 819 112.062 823.469 112.062C827.906 112.062 831.188 114.625 831.188 118.125C831.188 120.594 829.531 122.656 827.188 123.156V123.281C829.906 123.719 832.062 126.062 832.062 128.938C832.062 132.625 828.469 135.312 823.469 135.312ZM823.469 132.094C826.125 132.094 827.875 130.656 827.875 128.562C827.875 126.438 826 124.875 823.469 124.875C820.906 124.875 819.031 126.438 819.062 128.562C819.031 130.656 820.781 132.094 823.469 132.094ZM823.469 121.844C825.656 121.844 827.219 120.469 827.219 118.5C827.219 116.594 825.688 115.25 823.469 115.25C821.219 115.25 819.688 116.562 819.688 118.5C819.688 120.469 821.25 121.844 823.469 121.844Z" fill="black"/>
<path d="M809.75 112.375V135H805.656V116.344H805.531L800.25 119.719V116L805.844 112.375H809.75Z" fill="black"/>
<path d="M795.062 112.375V135H790.969V116.344H790.844L785.562 119.719V116L791.156 112.375H795.062Z" fill="black"/>
</g>
<g id="mirae_hall_103">
<path d="M769 299C769 294.582 772.582 291 777 291H909C913.418 291 917 294.582 917 299V424C917 428.418 913.418 432 909 432H777C772.582 432 769 428.418 769 424V299Z" fill="#F7FBFF"/>
<path d="M909 429V432H777L777 429H909ZM914 424V299C914 296.239 911.761 294 909 294H777C774.239 294 772 296.239 772 299V424C772 426.761 774.239 429 777 429L777 432C772.582 432 769 428.418 769 424V299C769 294.72 772.361 291.225 776.588 291.011L777 291H909C913.418 291 917 294.582 917 299V424C917 428.418 913.418 432 909 432V429C911.761 429 914 426.761 914 424Z" fill="#2E2F33" fill-opacity="0.88"/>
<path d="M860.656 372.25C855.812 372.25 852.375 369.625 852.281 365.812H856.375C856.5 367.625 858.312 368.812 860.656 368.812C863.156 368.812 864.938 367.438 864.938 365.438C864.938 363.406 863.188 361.938 860.25 361.938H858.219V358.812H860.25C862.656 358.812 864.344 357.469 864.312 355.5C864.344 353.594 862.906 352.312 860.688 352.312C858.562 352.312 856.719 353.5 856.656 355.406H852.75C852.844 351.594 856.281 349 860.719 349C865.312 349 868.281 351.812 868.25 355.281C868.281 357.812 866.594 359.656 864.125 360.156V360.344C867.312 360.781 869.125 362.812 869.094 365.656C869.125 369.469 865.562 372.25 860.656 372.25Z" fill="black"/>
<path d="M840.344 372.25C834.906 372.25 831.656 368.031 831.656 360.625C831.656 353.25 834.906 349 840.344 349C845.75 349 849.031 353.25 849.031 360.625C849.031 368.031 845.781 372.25 840.344 372.25ZM840.344 368.844C843.188 368.844 844.938 366.062 844.938 360.625C844.938 355.219 843.156 352.375 840.344 352.375C837.531 352.375 835.75 355.219 835.75 360.625C835.75 366.062 837.5 368.844 840.344 368.844Z" fill="black"/>
<path d="M826.5 349.312V371.938H822.406V353.281H822.281L817 356.656V352.938L822.594 349.312H826.5Z" fill="black"/>
</g>
<g id="mirae_hall_131">
<path d="M1327 645C1327 640.582 1330.58 637 1335 637H1403C1407.42 637 1411 640.582 1411 645V819C1411 823.418 1407.42 827 1403 827H1335C1330.58 827 1327 823.418 1327 819V645Z" fill="#F7FBFF"/>
<path d="M1403 824V827H1335L1335 824H1403ZM1408 819V645C1408 642.239 1405.76 640 1403 640H1335C1332.24 640 1330 642.239 1330 645V819C1330 821.761 1332.24 824 1335 824L1335 827L1334.59 826.989C1330.36 826.775 1327 823.28 1327 819V645C1327 640.582 1330.58 637 1335 637H1403C1407.42 637 1411 640.582 1411 645V819C1411 823.418 1407.42 827 1403 827V824C1405.76 824 1408 821.761 1408 819Z" fill="#2E2F33" fill-opacity="0.88"/>
<path d="M1389.97 720.375V743H1385.88V724.344H1385.75L1380.47 727.719V724L1386.06 720.375H1389.97Z" fill="black"/>
<path d="M1368.78 743.312C1363.94 743.312 1360.5 740.688 1360.41 736.875H1364.5C1364.62 738.688 1366.44 739.875 1368.78 739.875C1371.28 739.875 1373.06 738.5 1373.06 736.5C1373.06 734.469 1371.31 733 1368.38 733H1366.34V729.875H1368.38C1370.78 729.875 1372.47 728.531 1372.44 726.562C1372.47 724.656 1371.03 723.375 1368.81 723.375C1366.69 723.375 1364.84 724.562 1364.78 726.469H1360.88C1360.97 722.656 1364.41 720.062 1368.84 720.062C1373.44 720.062 1376.41 722.875 1376.38 726.344C1376.41 728.875 1374.72 730.719 1372.25 731.219V731.406C1375.44 731.844 1377.25 733.875 1377.22 736.719C1377.25 740.531 1373.69 743.312 1368.78 743.312Z" fill="black"/>
<path d="M1355.06 720.375V743H1350.97V724.344H1350.84L1345.56 727.719V724L1351.16 720.375H1355.06Z" fill="black"/>
</g>
<g id="mirae_hall_142">
<path d="M1338 887C1338 882.582 1341.58 879 1346 879H1547C1551.42 879 1555 882.582 1555 887V1047C1555 1051.42 1551.42 1055 1547 1055H1346C1341.58 1055 1338 1051.42 1338 1047V887Z" fill="#F7FBFF"/>
<path d="M1547 1052V1055H1346L1346 1052H1547ZM1552 1047V887C1552 884.239 1549.76 882 1547 882H1346C1343.24 882 1341 884.239 1341 887V1047C1341 1049.76 1343.24 1052 1346 1052L1346 1055C1341.58 1055 1338 1051.42 1338 1047V887C1338 882.582 1341.58 879 1346 879H1547C1551.42 879 1555 882.582 1555 887V1047C1555 1051.42 1551.42 1055 1547 1055V1052C1549.76 1052 1552 1049.76 1552 1047Z" fill="#2E2F33" fill-opacity="0.88"/>
<path d="M1456.22 978V975.062L1464.22 967.344C1466.5 965.062 1467.69 963.719 1467.69 961.812C1467.69 959.719 1466.03 958.375 1463.81 958.375C1461.47 958.375 1459.97 959.844 1460 962.125H1456.12C1456.09 957.844 1459.31 955.062 1463.84 955.062C1468.47 955.062 1471.59 957.812 1471.59 961.625C1471.59 964.188 1470.34 966.25 1465.91 970.438L1461.87 974.438V974.594H1471.94V978H1456.22Z" fill="black"/>
<path d="M1435.16 973.781V970.531L1444.94 955.375H1450V970.438H1452.97V973.781H1450V978H1446.12V973.781H1435.16ZM1439.31 970.438H1446.19V960H1445.94L1439.31 970.281V970.438Z" fill="black"/>
<path d="M1430.06 955.375V978H1425.97V959.344H1425.84L1420.56 962.719V959L1426.16 955.375H1430.06Z" fill="black"/>
</g>
<g id="mirae_hall_141">
<path d="M1552 887C1552 882.582 1555.58 879 1560 879H1782C1786.42 879 1790 882.582 1790 887V1047C1790 1051.42 1786.42 1055 1782 1055H1560C1555.58 1055 1552 1051.42 1552 1047V887Z" fill="#F7FBFF"/>
<path d="M1782 1052V1055H1560L1560 1052H1782ZM1787 1047V887C1787 884.239 1784.76 882 1782 882H1560C1557.24 882 1555 884.239 1555 887V1047C1555 1049.76 1557.24 1052 1560 1052L1560 1055L1559.59 1054.99C1555.36 1054.77 1552 1051.28 1552 1047V887C1552 882.582 1555.58 879 1560 879H1782C1786.42 879 1790 882.582 1790 887V1047C1790 1051.42 1786.42 1055 1782 1055V1052C1784.76 1052 1787 1049.76 1787 1047Z" fill="#2E2F33" fill-opacity="0.88"/>
<path d="M1692.09 955.375V978H1688V959.344H1687.88L1682.59 962.719V959L1688.19 955.375H1692.09Z" fill="black"/>
<path d="M1662.16 973.781V970.531L1671.94 955.375H1677V970.438H1679.97V973.781H1677V978H1673.12V973.781H1662.16ZM1666.31 970.438H1673.19V960H1672.94L1666.31 970.281V970.438Z" fill="black"/>
<path d="M1657.06 955.375V978H1652.97V959.344H1652.84L1647.56 962.719V959L1653.16 955.375H1657.06Z" fill="black"/>
</g>
<g id="mirae_hall_135">
<path d="M1781 645C1781 640.582 1784.58 637 1789 637H1923C1927.42 637 1931 640.582 1931 645V819C1931 823.418 1927.42 827 1923 827H1789C1784.58 827 1781 823.418 1781 819V645Z" fill="#F7FBFF"/>
<path d="M1923 824V827H1789L1789 824H1923ZM1928 819V645C1928 642.239 1925.76 640 1923 640H1789C1786.24 640 1784 642.239 1784 645V819C1784 821.761 1786.24 824 1789 824L1789 827C1784.58 827 1781 823.418 1781 819V645C1781 640.582 1784.58 637 1789 637H1923C1927.42 637 1931 640.582 1931 645V819C1931 823.418 1927.42 827 1923 827V824C1925.76 824 1928 821.761 1928 819Z" fill="#2E2F33" fill-opacity="0.88"/>
<path d="M1872.81 743.312C1868.28 743.312 1864.97 740.625 1864.84 736.875H1868.81C1868.94 738.719 1870.66 740.031 1872.81 740.031C1875.34 740.031 1877.16 738.188 1877.16 735.688C1877.16 733.094 1875.28 731.25 1872.69 731.25C1870.94 731.219 1869.66 731.844 1868.94 733.188H1865.16L1866.53 720.375H1879.91V723.781H1869.88L1869.19 729.781H1869.41C1870.28 728.781 1871.94 728.062 1873.78 728.062C1878 728.062 1881.09 731.219 1881.09 735.562C1881.09 740.094 1877.69 743.312 1872.81 743.312Z" fill="black"/>
<path d="M1852.78 743.312C1847.94 743.312 1844.5 740.688 1844.41 736.875H1848.5C1848.62 738.688 1850.44 739.875 1852.78 739.875C1855.28 739.875 1857.06 738.5 1857.06 736.5C1857.06 734.469 1855.31 733 1852.38 733H1850.34V729.875H1852.38C1854.78 729.875 1856.47 728.531 1856.44 726.562C1856.47 724.656 1855.03 723.375 1852.81 723.375C1850.69 723.375 1848.84 724.562 1848.78 726.469H1844.88C1844.97 722.656 1848.41 720.062 1852.84 720.062C1857.44 720.062 1860.41 722.875 1860.38 726.344C1860.41 728.875 1858.72 730.719 1856.25 731.219V731.406C1859.44 731.844 1861.25 733.875 1861.22 736.719C1861.25 740.531 1857.69 743.312 1852.78 743.312Z" fill="black"/>
<path d="M1839.06 720.375V743H1834.97V724.344H1834.84L1829.56 727.719V724L1835.16 720.375H1839.06Z" fill="black"/>
</g>
<g id="mirae_hall_136">
<path d="M1928 645C1928 640.582 1931.58 637 1936 637H2007C2011.42 637 2015 640.582 2015 645V819C2015 823.418 2011.42 827 2007 827H1936C1931.58 827 1928 823.418 1928 819V645Z" fill="#F7FBFF"/>
<path d="M2007 824V827H1936L1936 824H2007ZM2012 819V645C2012 642.239 2009.76 640 2007 640H1936C1933.24 640 1931 642.239 1931 645V819C1931 821.761 1933.24 824 1936 824L1936 827C1931.58 827 1928 823.418 1928 819V645C1928 640.582 1931.58 637 1936 637H2007C2011.42 637 2015 640.582 2015 645V819C2015 823.418 2011.42 827 2007 827V824C2009.76 824 2012 821.761 2012 819Z" fill="#2E2F33" fill-opacity="0.88"/>
<path d="M1988.25 743.312C1983.84 743.281 1979.41 740.656 1979.44 732.312C1979.44 724.562 1982.97 720.062 1988.5 720.062C1992.88 720.062 1995.88 722.812 1996.38 726.469H1992.34C1991.94 724.75 1990.56 723.594 1988.5 723.594C1985.22 723.594 1983.38 726.5 1983.38 731.25H1983.59C1984.75 729.312 1986.94 728.156 1989.41 728.156C1993.47 728.156 1996.59 731.219 1996.59 735.5C1996.59 740 1993.25 743.344 1988.25 743.312ZM1988.25 740.031C1990.78 740.031 1992.66 738.062 1992.66 735.594C1992.66 733.188 1990.81 731.25 1988.31 731.25C1985.78 731.25 1983.84 733.25 1983.81 735.625C1983.84 738 1985.69 740.031 1988.25 740.031Z" fill="black"/>
<path d="M1967.78 743.312C1962.94 743.312 1959.5 740.688 1959.41 736.875H1963.5C1963.62 738.688 1965.44 739.875 1967.78 739.875C1970.28 739.875 1972.06 738.5 1972.06 736.5C1972.06 734.469 1970.31 733 1967.38 733H1965.34V729.875H1967.38C1969.78 729.875 1971.47 728.531 1971.44 726.562C1971.47 724.656 1970.03 723.375 1967.81 723.375C1965.69 723.375 1963.84 724.562 1963.78 726.469H1959.88C1959.97 722.656 1963.41 720.062 1967.84 720.062C1972.44 720.062 1975.41 722.875 1975.38 726.344C1975.41 728.875 1973.72 730.719 1971.25 731.219V731.406C1974.44 731.844 1976.25 733.875 1976.22 736.719C1976.25 740.531 1972.69 743.312 1967.78 743.312Z" fill="black"/>
<path d="M1954.06 720.375V743H1949.97V724.344H1949.84L1944.56 727.719V724L1950.16 720.375H1954.06Z" fill="black"/>
</g>
<g id="mirae_hall_140">
<path d="M1787 887C1787 882.582 1790.58 879 1795 879H2010C2014.42 879 2018 882.582 2018 887V1047C2018 1051.42 2014.42 1055 2010 1055H1795C1790.58 1055 1787 1051.42 1787 1047V887Z" fill="#F7FBFF"/>
<path d="M2010 1052V1055H1795L1795 1052H2010ZM2015 1047V887C2015 884.239 2012.76 882 2010 882H1795C1792.24 882 1790 884.239 1790 887V1047C1790 1049.76 1792.24 1052 1795 1052L1795 1055L1794.59 1054.99C1790.36 1054.77 1787 1051.28 1787 1047V887C1787 882.582 1790.58 879 1795 879H2010C2014.42 879 2018 882.582 2018 887V1047C2018 1051.42 2014.42 1055 2010 1055V1052C2012.76 1052 2015 1049.76 2015 1047Z" fill="#2E2F33" fill-opacity="0.88"/>
<path d="M1919.56 978.312C1914.12 978.312 1910.88 974.094 1910.88 966.688C1910.88 959.312 1914.12 955.062 1919.56 955.062C1924.97 955.062 1928.25 959.312 1928.25 966.688C1928.25 974.094 1925 978.312 1919.56 978.312ZM1919.56 974.906C1922.41 974.906 1924.16 972.125 1924.16 966.688C1924.16 961.281 1922.38 958.438 1919.56 958.438C1916.75 958.438 1914.97 961.281 1914.97 966.688C1914.97 972.125 1916.72 974.906 1919.56 974.906Z" fill="black"/>
<path d="M1890.16 973.781V970.531L1899.94 955.375H1905V970.438H1907.97V973.781H1905V978H1901.12V973.781H1890.16ZM1894.31 970.438H1901.19V960H1900.94L1894.31 970.281V970.438Z" fill="black"/>
<path d="M1885.06 955.375V978H1880.97V959.344H1880.84L1875.56 962.719V959L1881.16 955.375H1885.06Z" fill="black"/>
</g>
<g id="mirae_hall_139">
<path d="M2015 887C2015 882.582 2018.58 879 2023 879H2289C2293.42 879 2297 882.582 2297 887V1130C2297 1134.42 2293.42 1138 2289 1138H2023C2018.58 1138 2015 1134.42 2015 1130V887Z" fill="#F7FBFF"/>
<path d="M2289 1135V1138H2023L2023 1135H2289ZM2294 1130V887C2294 884.239 2291.76 882 2289 882H2023C2020.24 882 2018 884.239 2018 887V1130C2018 1132.76 2020.24 1135 2023 1135L2023 1138L2022.59 1137.99C2018.36 1137.77 2015 1134.28 2015 1130V887C2015 882.72 2018.36 879.225 2022.59 879.011L2023 879H2289C2293.42 879 2297 882.582 2297 887V1130C2297 1134.42 2293.42 1138 2289 1138V1135C2291.76 1135 2294 1132.76 2294 1130Z" fill="#2E2F33" fill-opacity="0.88"/>
<path d="M2172.81 996.062C2177.25 996.094 2181.62 998.719 2181.66 1007C2181.66 1014.81 2178.12 1019.31 2172.56 1019.31C2168.19 1019.31 2165.19 1016.59 2164.69 1012.84H2168.72C2169.12 1014.62 2170.5 1015.78 2172.56 1015.78C2175.84 1015.78 2177.69 1012.87 2177.72 1008.03H2177.47C2176.31 1010 2174.16 1011.16 2171.66 1011.16C2167.62 1011.16 2164.5 1008.09 2164.47 1003.81C2164.47 999.375 2167.78 996.031 2172.81 996.062ZM2172.84 999.344C2170.31 999.344 2168.41 1001.31 2168.44 1003.72C2168.44 1006.16 2170.25 1008.06 2172.78 1008.06C2175.28 1008.06 2177.25 1006.03 2177.22 1003.69C2177.22 1001.37 2175.38 999.344 2172.84 999.344Z" fill="black"/>
<path d="M2152.78 1019.31C2147.94 1019.31 2144.5 1016.69 2144.41 1012.88H2148.5C2148.62 1014.69 2150.44 1015.88 2152.78 1015.88C2155.28 1015.88 2157.06 1014.5 2157.06 1012.5C2157.06 1010.47 2155.31 1009 2152.38 1009H2150.34V1005.88H2152.38C2154.78 1005.88 2156.47 1004.53 2156.44 1002.56C2156.47 1000.66 2155.03 999.375 2152.81 999.375C2150.69 999.375 2148.84 1000.56 2148.78 1002.47H2144.88C2144.97 998.656 2148.41 996.062 2152.84 996.062C2157.44 996.062 2160.41 998.875 2160.38 1002.34C2160.41 1004.88 2158.72 1006.72 2156.25 1007.22V1007.41C2159.44 1007.84 2161.25 1009.88 2161.22 1012.72C2161.25 1016.53 2157.69 1019.31 2152.78 1019.31Z" fill="black"/>
<path d="M2139.06 996.375V1019H2134.97V1000.34H2134.84L2129.56 1003.72V1000L2135.16 996.375H2139.06Z" fill="black"/>
</g>
<g id="Vector_8">
<path d="M2015 413C2015 408.582 2018.58 405 2023 405H2423C2427.42 405 2431 408.582 2431 413V577.957C2431 582.375 2427.42 585.957 2423 585.957H2302C2297.58 585.957 2294 589.539 2294 593.957V793C2294 797.418 2290.42 801 2286 801H2023C2018.58 801 2015 797.418 2015 793V413Z" fill="#F7FBFF"/>
<path d="M2286 798V801H2023L2023 798H2286ZM2291 793V593.957C2291 587.882 2295.92 582.957 2302 582.957V585.957L2301.59 585.968C2297.36 586.182 2294 589.677 2294 593.957V793C2294 797.418 2290.42 801 2286 801V798C2288.76 798 2291 795.761 2291 793ZM2423 582.957V585.957H2302V582.957H2423ZM2428 577.957V413C2428 410.239 2425.76 408 2423 408H2023C2020.24 408 2018 410.239 2018 413V793C2018 795.761 2020.24 798 2023 798L2023 801L2022.59 800.989C2018.36 800.775 2015 797.28 2015 793V413C2015 408.582 2018.58 405 2023 405H2423C2427.42 405 2431 408.582 2431 413V577.957L2430.99 578.368C2430.78 582.459 2427.5 585.739 2423.41 585.946L2423 585.957V582.957C2425.76 582.957 2428 580.718 2428 577.957Z" fill="#2E2F33" fill-opacity="0.88"/>
<path d="M2178.66 661.125V663.844C2178.62 667.344 2178.62 671.281 2177.53 677.188L2174.03 676.812C2175.12 671.312 2175.12 667.297 2175.16 663.906H2158.28V661.125H2178.66ZM2181.34 680.281V683.125H2155.59V680.281H2165.09V670.469H2168.53V680.281H2181.34Z" fill="black"/>
<path d="M2138.09 664.562C2138.09 667.656 2140.38 670.625 2144.81 671.844L2143.22 674.594C2139.98 673.703 2137.69 671.781 2136.41 669.375C2135.17 672.109 2132.83 674.266 2129.5 675.281L2127.81 672.562C2132.25 671.281 2134.62 668.031 2134.62 664.562V664.438H2128.72V661.688H2134.62V658.406H2138.12V661.688H2144V664.438H2138.09V664.562ZM2150.22 658.531V665.438H2154.16V668.281H2150.22V675.656H2146.75V658.531H2150.22ZM2141.03 676.25C2146.91 676.25 2150.47 678.156 2150.5 681.5C2150.47 684.812 2146.91 686.719 2141.03 686.719C2135.09 686.719 2131.47 684.812 2131.47 681.5C2131.47 678.156 2135.09 676.25 2141.03 676.25ZM2141.03 678.938C2137.12 678.938 2134.94 679.781 2134.94 681.5C2134.94 683.188 2137.12 684.062 2141.03 684.062C2144.91 684.062 2147.06 683.188 2147.06 681.5C2147.06 679.781 2144.91 678.938 2141.03 678.938Z" fill="black"/>
</g>
<g id="mirae_hall_138">
<path d="M2291 592C2291 587.582 2294.58 584 2299 584H2423C2427.42 584 2431 587.582 2431 592V793C2431 797.418 2427.42 801 2423 801H2299C2294.58 801 2291 797.418 2291 793V592Z" fill="#F7FBFF"/>
<path d="M2423 798V801H2299L2299 798H2423ZM2428 793V592C2428 589.239 2425.76 587 2423 587H2299C2296.24 587 2294 589.239 2294 592V793C2294 795.761 2296.24 798 2299 798L2299 801L2298.59 800.989C2294.36 800.775 2291 797.28 2291 793V592C2291 587.582 2294.58 584 2299 584H2423C2427.42 584 2431 587.582 2431 592V793C2431 797.418 2427.42 801 2423 801V798C2425.76 798 2428 795.761 2428 793Z" fill="#2E2F33" fill-opacity="0.88"/>
<path d="M2378 703.312C2372.97 703.312 2369.41 700.625 2369.41 696.938C2369.41 694.062 2371.53 691.719 2374.25 691.281V691.156C2371.88 690.656 2370.25 688.594 2370.25 686.125C2370.25 682.625 2373.53 680.062 2378 680.062C2382.44 680.062 2385.72 682.625 2385.72 686.125C2385.72 688.594 2384.06 690.656 2381.72 691.156V691.281C2384.44 691.719 2386.59 694.062 2386.59 696.938C2386.59 700.625 2383 703.312 2378 703.312ZM2378 700.094C2380.66 700.094 2382.41 698.656 2382.41 696.562C2382.41 694.438 2380.53 692.875 2378 692.875C2375.44 692.875 2373.56 694.438 2373.59 696.562C2373.56 698.656 2375.31 700.094 2378 700.094ZM2378 689.844C2380.19 689.844 2381.75 688.469 2381.75 686.5C2381.75 684.594 2380.22 683.25 2378 683.25C2375.75 683.25 2374.22 684.562 2374.22 686.5C2374.22 688.469 2375.78 689.844 2378 689.844Z" fill="black"/>
<path d="M2357.78 703.312C2352.94 703.312 2349.5 700.688 2349.41 696.875H2353.5C2353.62 698.688 2355.44 699.875 2357.78 699.875C2360.28 699.875 2362.06 698.5 2362.06 696.5C2362.06 694.469 2360.31 693 2357.38 693H2355.34V689.875H2357.38C2359.78 689.875 2361.47 688.531 2361.44 686.562C2361.47 684.656 2360.03 683.375 2357.81 683.375C2355.69 683.375 2353.84 684.562 2353.78 686.469H2349.88C2349.97 682.656 2353.41 680.062 2357.84 680.062C2362.44 680.062 2365.41 682.875 2365.38 686.344C2365.41 688.875 2363.72 690.719 2361.25 691.219V691.406C2364.44 691.844 2366.25 693.875 2366.22 696.719C2366.25 700.531 2362.69 703.312 2357.78 703.312Z" fill="black"/>
<path d="M2344.06 680.375V703H2339.97V684.344H2339.84L2334.56 687.719V684L2340.16 680.375H2344.06Z" fill="black"/>
</g>
<g id="mirae_hall_132">
<path d="M1408 645C1408 640.582 1411.58 637 1416 637H1776C1780.42 637 1784 640.582 1784 645V819C1784 823.418 1780.42 827 1776 827H1416C1411.58 827 1408 823.418 1408 819V645Z" fill="#F7FBFF"/>
<path d="M1776 824V827H1416L1416 824H1776ZM1781 819V645C1781 642.239 1778.76 640 1776 640H1416C1413.24 640 1411 642.239 1411 645V819C1411 821.761 1413.24 824 1416 824L1416 827L1415.59 826.989C1411.5 826.782 1408.22 823.502 1408.01 819.412L1408 819V645C1408 640.72 1411.36 637.225 1415.59 637.011L1416 637H1776C1780.42 637 1784 640.582 1784 645V819C1784 823.418 1780.42 827 1776 827V824C1778.76 824 1781 821.761 1781 819Z" fill="#2E2F33" fill-opacity="0.88"/>
<path d="M1604.78 743V740.062L1612.78 732.344C1615.06 730.062 1616.25 728.719 1616.25 726.812C1616.25 724.719 1614.59 723.375 1612.37 723.375C1610.03 723.375 1608.53 724.844 1608.56 727.125H1604.69C1604.66 722.844 1607.87 720.062 1612.41 720.062C1617.03 720.062 1620.16 722.812 1620.16 726.625C1620.16 729.188 1618.91 731.25 1614.47 735.438L1610.44 739.438V739.594H1620.5V743H1604.78Z" fill="black"/>
<path d="M1592.78 743.312C1587.94 743.312 1584.5 740.688 1584.41 736.875H1588.5C1588.62 738.688 1590.44 739.875 1592.78 739.875C1595.28 739.875 1597.06 738.5 1597.06 736.5C1597.06 734.469 1595.31 733 1592.38 733H1590.34V729.875H1592.38C1594.78 729.875 1596.47 728.531 1596.44 726.562C1596.47 724.656 1595.03 723.375 1592.81 723.375C1590.69 723.375 1588.84 724.562 1588.78 726.469H1584.88C1584.97 722.656 1588.41 720.062 1592.84 720.062C1597.44 720.062 1600.41 722.875 1600.38 726.344C1600.41 728.875 1598.72 730.719 1596.25 731.219V731.406C1599.44 731.844 1601.25 733.875 1601.22 736.719C1601.25 740.531 1597.69 743.312 1592.78 743.312Z" fill="black"/>
<path d="M1579.06 720.375V743H1574.97V724.344H1574.84L1569.56 727.719V724L1575.16 720.375H1579.06Z" fill="black"/>
</g>
<g id="mirae_hall_1f_gate_main">
<path d="M1060 603C1060 643.317 1027.32 676 987 676C946.683 676 914 643.317 914 603C914 562.683 946.683 530 987 530C1027.32 530 1060 562.683 1060 603Z" fill="#FAA4FF"/>
<path d="M1057 603C1057 564.34 1025.66 533 987 533C948.34 533 917 564.34 917 603C917 641.66 948.34 673 987 673V676C946.683 676 914 643.317 914 603C914 562.683 946.683 530 987 530C1027.32 530 1060 562.683 1060 603C1060 643.317 1027.32 676 987 676V673C1025.66 673 1057 641.66 1057 603Z" fill="#2E2F33" fill-opacity="0.88"/>
<path d="M1003.02 566.248H970.982C966.574 566.248 963 569.822 963 574.23V631.772C963 636.18 966.574 639.754 970.982 639.754H1003.02C1007.43 639.754 1011 636.18 1011 631.772V574.23C1011 569.822 1007.43 566.248 1003.02 566.248Z" fill="#5E403B"/>
<path d="M1000.01 608.704C1003.16 608.704 1005.71 606.15 1005.71 603C1005.71 599.85 1003.16 597.296 1000.01 597.296C996.86 597.296 994.306 599.85 994.306 603C994.306 606.15 996.86 608.704 1000.01 608.704Z" fill="#FFDE57"/>
<path d="M1000.01 605.236C1001.24 605.236 1002.25 604.235 1002.25 603C1002.25 601.765 1001.24 600.764 1000.01 600.764C998.775 600.764 997.774 601.765 997.774 603C997.774 604.235 998.775 605.236 1000.01 605.236Z" fill="#CB8C00"/>
<path d="M1000.01 600.772H990.518C989.285 600.772 988.286 601.771 988.286 603.004C988.286 604.237 989.285 605.236 990.518 605.236H1000.01C1001.25 605.236 1002.25 604.237 1002.25 603.004C1002.25 601.771 1001.25 600.772 1000.01 600.772Z" fill="#CB8C00"/>
</g>
<g id="mirae_hall_1f_gate_left">
<path d="M321 432C321 452.435 304.435 469 284 469C263.565 469 247 452.435 247 432C247 411.565 263.565 395 284 395C304.435 395 321 411.565 321 432Z" fill="#B1A4FF"/>
<path d="M318 432C318 413.222 302.778 398 284 398C265.222 398 250 413.222 250 432C250 450.778 265.222 466 284 466V469C263.565 469 247 452.435 247 432C247 411.565 263.565 395 284 395C304.435 395 321 411.565 321 432C321 452.435 304.435 469 284 469V466C302.778 466 318 450.778 318 432Z" fill="#2E2F33" fill-opacity="0.88"/>
<path d="M292.125 413.375H275.888C273.653 413.375 271.842 415.186 271.842 417.42V446.586C271.842 448.82 273.653 450.631 275.888 450.631H292.125C294.359 450.631 296.171 448.82 296.171 446.586V417.42C296.171 415.186 294.359 413.375 292.125 413.375Z" fill="#5E403B"/>
<path d="M290.601 434.894C292.197 434.894 293.492 433.599 293.492 432.002C293.492 430.406 292.197 429.111 290.601 429.111C289.004 429.111 287.709 430.406 287.709 432.002C287.709 433.599 289.004 434.894 290.601 434.894Z" fill="#FFDE57"/>
<path d="M290.601 433.136C291.226 433.136 291.734 432.628 291.734 432.002C291.734 431.377 291.226 430.869 290.601 430.869C289.975 430.869 289.467 431.377 289.467 432.002C289.467 432.628 289.975 433.136 290.601 433.136Z" fill="#CB8C00"/>
<path d="M290.603 430.873H285.789C285.165 430.873 284.658 431.38 284.658 432.005C284.658 432.629 285.165 433.136 285.789 433.136H290.603C291.227 433.136 291.734 432.629 291.734 432.005C291.734 431.38 291.227 430.873 290.603 430.873Z" fill="#CB8C00"/>
</g>
<g id="mirae_hall_1f_gate_smokingArea">
<path d="M1375 342C1375 362.435 1358.43 379 1338 379C1317.57 379 1301 362.435 1301 342C1301 321.565 1317.57 305 1338 305C1358.43 305 1375 321.565 1375 342Z" fill="#B1A4FF"/>
<path d="M1372 342C1372 323.222 1356.78 308 1338 308C1319.22 308 1304 323.222 1304 342C1304 360.778 1319.22 376 1338 376V379C1317.57 379 1301 362.435 1301 342C1301 321.565 1317.57 305 1338 305C1358.43 305 1375 321.565 1375 342C1375 362.435 1358.43 379 1338 379V376C1356.78 376 1372 360.778 1372 342Z" fill="#2E2F33" fill-opacity="0.88"/>
<path d="M1346.13 323.375H1329.89C1327.65 323.375 1325.84 325.186 1325.84 327.42V356.586C1325.84 358.82 1327.65 360.631 1329.89 360.631H1346.13C1348.36 360.631 1350.17 358.82 1350.17 356.586V327.42C1350.17 325.186 1348.36 323.375 1346.13 323.375Z" fill="#5E403B"/>
<path d="M1344.6 344.894C1346.2 344.894 1347.49 343.599 1347.49 342.002C1347.49 340.406 1346.2 339.111 1344.6 339.111C1343 339.111 1341.71 340.406 1341.71 342.002C1341.71 343.599 1343 344.894 1344.6 344.894Z" fill="#FFDE57"/>
<path d="M1344.6 343.136C1345.23 343.136 1345.73 342.628 1345.73 342.002C1345.73 341.377 1345.23 340.869 1344.6 340.869C1343.97 340.869 1343.47 341.377 1343.47 342.002C1343.47 342.628 1343.97 343.136 1344.6 343.136Z" fill="#CB8C00"/>
<path d="M1344.6 340.873H1339.79C1339.16 340.873 1338.66 341.38 1338.66 342.005C1338.66 342.629 1339.16 343.136 1339.79 343.136H1344.6C1345.23 343.136 1345.73 342.629 1345.73 342.005C1345.73 341.38 1345.23 340.873 1344.6 340.873Z" fill="#CB8C00"/>
</g>
<g id="mirae_hall_1f_gate_library">
<path d="M2399 891C2399 911.435 2382.43 928 2362 928C2341.57 928 2325 911.435 2325 891C2325 870.565 2341.57 854 2362 854C2382.43 854 2399 870.565 2399 891Z" fill="#B1A4FF"/>
<path d="M2396 891C2396 872.222 2380.78 857 2362 857C2343.22 857 2328 872.222 2328 891C2328 909.778 2343.22 925 2362 925V928C2341.57 928 2325 911.435 2325 891C2325 870.565 2341.57 854 2362 854C2382.43 854 2399 870.565 2399 891C2399 911.435 2382.43 928 2362 928V925C2380.78 925 2396 909.778 2396 891Z" fill="#2E2F33" fill-opacity="0.88"/>
<path d="M2370.13 872.375H2353.89C2351.65 872.375 2349.84 874.186 2349.84 876.42V905.586C2349.84 907.82 2351.65 909.631 2353.89 909.631H2370.13C2372.36 909.631 2374.17 907.82 2374.17 905.586V876.42C2374.17 874.186 2372.36 872.375 2370.13 872.375Z" fill="#5E403B"/>
<path d="M2368.6 893.894C2370.2 893.894 2371.49 892.599 2371.49 891.002C2371.49 889.406 2370.2 888.111 2368.6 888.111C2367 888.111 2365.71 889.406 2365.71 891.002C2365.71 892.599 2367 893.894 2368.6 893.894Z" fill="#FFDE57"/>
<path d="M2368.6 892.136C2369.23 892.136 2369.73 891.628 2369.73 891.002C2369.73 890.377 2369.23 889.869 2368.6 889.869C2367.97 889.869 2367.47 890.377 2367.47 891.002C2367.47 891.628 2367.97 892.136 2368.6 892.136Z" fill="#CB8C00"/>
<path d="M2368.6 889.873H2363.79C2363.16 889.873 2362.66 890.38 2362.66 891.005C2362.66 891.629 2363.16 892.136 2363.79 892.136H2368.6C2369.23 892.136 2369.73 891.629 2369.73 891.005C2369.73 890.38 2369.23 889.873 2368.6 889.873Z" fill="#CB8C00"/>
</g>
</g>
</svg>
