<svg width="2520" height="1145" viewBox="0 0 2520 1145" fill="none" xmlns="http://www.w3.org/2000/svg">
<g id="mirae_hall_floor_4">
<g id="Vector">
<path d="M2434 209.5H2011.5H2012.5H2434Z" fill="#474747"/>
<path d="M3 434.5H1098V818H989.5V1058.5H1882V946.5H2012.5V1141.5H2299.5V889H2517V706H2434V209.5H2012.5L2011.5 634H1340.5V3H3V434.5Z" fill="#999999"/>
<path d="M1343.5 0V631H2008.51L2009.5 209.493L2011.5 209.497V206.5H2437V703H2520V892H2302.5V1144.5H2009.5V949.5H1885V1061.5H986.5V815H1095V437.5H0V0H1343.5ZM6 431.5H1101V821H992.5V1055.5H1879V943.5H2015.5V1138.5H2296.5V886H2514V709H2431V212.5H2015.49L2014.49 637H1337.5V6H6V431.5Z" fill="black"/>
</g>
<g id="Vector_2">
<path d="M1267 14C1267 9.58172 1270.58 6 1275 6H1330C1334.42 6 1338 9.58172 1338 14V125C1338 129.418 1334.42 133 1330 133H1275C1270.58 133 1267 129.418 1267 125V14Z" fill="#474747"/>
<path d="M1330 130V133H1275L1275 130H1330ZM1335 125V14C1335 11.2386 1332.76 9 1330 9H1275C1272.24 9 1270 11.2386 1270 14V125C1270 127.761 1272.24 130 1275 130L1275 133C1270.58 133 1267 129.418 1267 125V14C1267 9.58172 1270.58 6 1275 6H1330L1330.41 6.01074C1334.64 6.22523 1338 9.71994 1338 14V125C1338 129.418 1334.42 133 1330 133V130C1332.76 130 1335 127.761 1335 125Z" fill="#2E2F33" fill-opacity="0.88"/>
</g>
<g id="Vector_3">
<path d="M98 299C98 294.582 101.582 291 106 291H148C152.418 291 156 294.582 156 299V424C156 428.418 152.418 432 148 432H106C101.582 432 98 428.418 98 424V299Z" fill="#474747"/>
<path d="M148 429V432H106L106 429H148ZM153 424V299C153 296.239 150.761 294 148 294H106C103.239 294 101 296.239 101 299V424C101 426.761 103.239 429 106 429L106 432C101.582 432 98 428.418 98 424V299C98 294.582 101.582 291 106 291H148C152.418 291 156 294.582 156 299V424C156 428.418 152.418 432 148 432V429C150.761 429 153 426.761 153 424Z" fill="#2E2F33" fill-opacity="0.88"/>
</g>
<g id="Vector_4">
<path d="M1204 244C1204 239.582 1207.58 236 1212 236H1330C1334.42 236 1338 239.582 1338 244V271C1338 275.418 1334.42 279 1330 279H1212C1207.58 279 1204 275.418 1204 271V244Z" fill="#474747"/>
<path d="M1330 276V279H1212L1212 276H1330ZM1335 271V244C1335 241.239 1332.76 239 1330 239H1212C1209.24 239 1207 241.239 1207 244V271C1207 273.761 1209.24 276 1212 276L1212 279C1207.58 279 1204 275.418 1204 271V244C1204 239.582 1207.58 236 1212 236H1330C1334.42 236 1338 239.582 1338 244V271C1338 275.418 1334.42 279 1330 279V276C1332.76 276 1335 273.761 1335 271Z" fill="#2E2F33" fill-opacity="0.88"/>
</g>
<g id="Vector_5">
<path d="M1204 14C1204 9.58172 1207.58 6 1212 6H1262C1266.42 6 1270 9.58172 1270 14V62C1270 66.4183 1266.42 70 1262 70H1212C1207.58 70 1204 66.4183 1204 62V14Z" fill="#474747"/>
<path d="M1262 67V70H1212V67H1262ZM1267 62V14C1267 11.2386 1264.76 9 1262 9H1212C1209.24 9 1207 11.2386 1207 14V62C1207 64.7614 1209.24 67 1212 67V70C1207.58 70 1204 66.4183 1204 62V14C1204 9.58172 1207.58 6 1212 6H1262C1266.42 6 1270 9.58172 1270 14V62C1270 66.4183 1266.42 70 1262 70V67C1264.76 67 1267 64.7614 1267 62Z" fill="#2E2F33" fill-opacity="0.88"/>
</g>
<g id="Vector_6">
<path d="M992 983C992 978.582 995.582 975 1000 975H1026C1030.42 975 1034 978.582 1034 983V1047C1034 1051.42 1030.42 1055 1026 1055H1000C995.582 1055 992 1051.42 992 1047V983Z" fill="#474747"/>
<path d="M1026 1052V1055H1000L1000 1052H1026ZM1031 1047V983C1031 980.239 1028.76 978 1026 978H1000C997.239 978 995 980.239 995 983V1047C995 1049.76 997.239 1052 1000 1052L1000 1055L999.588 1054.99C995.361 1054.77 992 1051.28 992 1047V983C992 978.582 995.582 975 1000 975H1026C1030.42 975 1034 978.582 1034 983V1047C1034 1051.42 1030.42 1055 1026 1055V1052C1028.76 1052 1031 1049.76 1031 1047Z" fill="#2E2F33" fill-opacity="0.88"/>
</g>
<g id="Vector_7">
<path d="M6 14C6 9.58173 9.58172 6 14 6H138C142.418 6 146 9.58172 146 14V235C146 239.418 142.418 243 138 243H14C9.58172 243 6 239.418 6 235V14Z" fill="#92D3F5"/>
<path d="M138 240V243H14L14 240H138ZM143 235V14C143 11.2386 140.761 9 138 9H14C11.2386 9 9 11.2386 9 14V235C9 237.761 11.2386 240 14 240L14 243L13.5879 242.989C9.36114 242.775 6 239.28 6 235V14C6 9.58173 9.58172 6 14 6H138C142.418 6 146 9.58172 146 14V235C146 239.418 142.418 243 138 243V240C140.761 240 143 237.761 143 235Z" fill="#2E2F33" fill-opacity="0.88"/>
<path d="M104.844 113.406C104.844 117.781 109.125 122.156 115.031 123.188L113.469 126.094C108.734 125.094 104.859 122.234 103.031 118.438C101.156 122.203 97.2812 125.078 92.5625 126.094L91.0312 123.188C96.875 122.125 101.125 117.75 101.156 113.406V111.312H104.844V113.406ZM116.062 131.312V134.188H90.25V131.312H116.062Z" fill="black"/>
<path d="M84.7188 109.531V120.375H89.0625V123.281H84.7188V137.812H81.2812V109.531H84.7188ZM76.7188 112V122.656H67.2188V128.281C71.6875 128.25 75.1719 128.062 79.125 127.375L79.4375 130.188C75.0938 130.969 71.2188 131.156 66.0938 131.156H63.7812V119.875H73.25V114.812H63.7188V112H76.7188Z" fill="black"/>
<path d="M46.4375 112.781V115.531H39.1875V120.375H45.25V123.062H39.1875V128.531C42.5469 128.5 44.8594 128.344 47.625 127.875L47.9375 130.656C44.6875 131.281 42 131.344 37.7188 131.344H35.875V112.781H46.4375ZM59.3125 109.531V137.781H55.9375V109.531H59.3125ZM53.375 110.094V136.406H50.125V122.781H46.625V119.969H50.125V110.094H53.375Z" fill="black"/>
</g>
<g id="mirae_hall_412">
<path d="M143 14C143 9.58173 146.582 6 151 6H233C237.418 6 241 9.58172 241 14V235C241 239.418 237.418 243 233 243H151C146.582 243 143 239.418 143 235V14Z" fill="#F7FBFF"/>
<path d="M233 240V243H151L151 240H233ZM238 235V14C238 11.2386 235.761 9 233 9H151C148.239 9 146 11.2386 146 14V235C146 237.761 148.239 240 151 240L151 243C146.582 243 143 239.418 143 235V14C143 9.58173 146.582 6 151 6H233C237.418 6 241 9.58172 241 14V235C241 239.418 237.418 243 233 243V240C235.761 240 238 237.761 238 235Z" fill="#2E2F33" fill-opacity="0.88"/>
<path d="M200.906 135V132.062L208.906 124.344C211.188 122.062 212.375 120.719 212.375 118.812C212.375 116.719 210.719 115.375 208.5 115.375C206.156 115.375 204.656 116.844 204.687 119.125H200.812C200.781 114.844 204 112.062 208.531 112.062C213.156 112.062 216.281 114.812 216.281 118.625C216.281 121.188 215.031 123.25 210.594 127.438L206.562 131.438V131.594H216.625V135H200.906Z" fill="black"/>
<path d="M195.406 112.375V135H191.312V116.344H191.188L185.906 119.719V116L191.5 112.375H195.406Z" fill="black"/>
<path d="M165.469 130.781V127.531L175.25 112.375H180.312V127.438H183.281V130.781H180.312V135H176.438V130.781H165.469ZM169.625 127.438H176.5V117H176.25L169.625 127.281V127.438Z" fill="black"/>
</g>
<g id="mirae_hall_413">
<path d="M238 14C238 9.58173 241.582 6 246 6H328C332.418 6 336 9.58172 336 14V235C336 239.418 332.418 243 328 243H246C241.582 243 238 239.418 238 235V14Z" fill="#F7FBFF"/>
<path d="M328 240V243H246L246 240H328ZM333 235V14C333 11.2386 330.761 9 328 9H246C243.239 9 241 11.2386 241 14V235C241 237.761 243.239 240 246 240L246 243C241.582 243 238 239.418 238 235V14C238 9.58173 241.582 6 246 6H328C332.418 6 336 9.58172 336 14V235C336 239.418 332.418 243 328 243V240C330.761 240 333 237.761 333 235Z" fill="#2E2F33" fill-opacity="0.88"/>
<path d="M304.125 135.312C299.281 135.312 295.844 132.688 295.75 128.875H299.844C299.969 130.688 301.781 131.875 304.125 131.875C306.625 131.875 308.406 130.5 308.406 128.5C308.406 126.469 306.656 125 303.719 125H301.688V121.875H303.719C306.125 121.875 307.812 120.531 307.781 118.562C307.812 116.656 306.375 115.375 304.156 115.375C302.031 115.375 300.188 116.562 300.125 118.469H296.219C296.312 114.656 299.75 112.062 304.188 112.062C308.781 112.062 311.75 114.875 311.719 118.344C311.75 120.875 310.062 122.719 307.594 123.219V123.406C310.781 123.844 312.594 125.875 312.562 128.719C312.594 132.531 309.031 135.312 304.125 135.312Z" fill="black"/>
<path d="M290.406 112.375V135H286.312V116.344H286.188L280.906 119.719V116L286.5 112.375H290.406Z" fill="black"/>
<path d="M260.469 130.781V127.531L270.25 112.375H275.312V127.438H278.281V130.781H275.312V135H271.438V130.781H260.469ZM264.625 127.438H271.5V117H271.25L264.625 127.281V127.438Z" fill="black"/>
</g>
<g id="mirae_hall_414">
<path d="M333 14C333 9.58173 336.582 6 341 6H423C427.418 6 431 9.58172 431 14V235C431 239.418 427.418 243 423 243H341C336.582 243 333 239.418 333 235V14Z" fill="#F7FBFF"/>
<path d="M423 240V243H341L341 240H423ZM428 235V14C428 11.2386 425.761 9 423 9H341C338.239 9 336 11.2386 336 14V235C336 237.761 338.239 240 341 240L341 243C336.582 243 333 239.418 333 235V14C333 9.58173 336.582 6 341 6H423C427.418 6 431 9.58172 431 14V235C431 239.418 427.418 243 423 243V240C425.761 240 428 237.761 428 235Z" fill="#2E2F33" fill-opacity="0.88"/>
<path d="M390.5 130.781V127.531L400.281 112.375H405.344V127.438H408.312V130.781H405.344V135H401.469V130.781H390.5ZM394.656 127.438H401.531V117H401.281L394.656 127.281V127.438Z" fill="black"/>
<path d="M385.406 112.375V135H381.312V116.344H381.188L375.906 119.719V116L381.5 112.375H385.406Z" fill="black"/>
<path d="M355.469 130.781V127.531L365.25 112.375H370.312V127.438H373.281V130.781H370.312V135H366.438V130.781H355.469ZM359.625 127.438H366.5V117H366.25L359.625 127.281V127.438Z" fill="black"/>
</g>
<g id="mirae_hall_415">
<path d="M428 14C428 9.58173 431.582 6 436 6H518C522.418 6 526 9.58172 526 14V235C526 239.418 522.418 243 518 243H436C431.582 243 428 239.418 428 235V14Z" fill="#F7FBFF"/>
<path d="M518 240V243H436L436 240H518ZM523 235V14C523 11.2386 520.761 9 518 9H436C433.239 9 431 11.2386 431 14V235C431 237.761 433.239 240 436 240L436 243C431.582 243 428 239.418 428 235V14C428 9.58173 431.582 6 436 6H518C522.418 6 526 9.58172 526 14V235C526 239.418 522.418 243 518 243V240C520.761 240 523 237.761 523 235Z" fill="#2E2F33" fill-opacity="0.88"/>
<path d="M493.938 135.312C489.406 135.312 486.094 132.625 485.969 128.875H489.938C490.062 130.719 491.781 132.031 493.938 132.031C496.469 132.031 498.281 130.188 498.281 127.688C498.281 125.094 496.406 123.25 493.812 123.25C492.062 123.219 490.781 123.844 490.062 125.188H486.281L487.656 112.375H501.031V115.781H491L490.312 121.781H490.531C491.406 120.781 493.062 120.062 494.906 120.062C499.125 120.062 502.219 123.219 502.219 127.562C502.219 132.094 498.812 135.312 493.938 135.312Z" fill="black"/>
<path d="M480.406 112.375V135H476.312V116.344H476.188L470.906 119.719V116L476.5 112.375H480.406Z" fill="black"/>
<path d="M450.469 130.781V127.531L460.25 112.375H465.312V127.438H468.281V130.781H465.312V135H461.438V130.781H450.469ZM454.625 127.438H461.5V117H461.25L454.625 127.281V127.438Z" fill="black"/>
</g>
<g id="mirae_hall_416">
<path d="M523 14C523 9.58173 526.582 6 531 6H613C617.418 6 621 9.58172 621 14V235C621 239.418 617.418 243 613 243H531C526.582 243 523 239.418 523 235V14Z" fill="#F7FBFF"/>
<path d="M613 240V243H531L531 240H613ZM618 235V14C618 11.2386 615.761 9 613 9H531C528.239 9 526 11.2386 526 14V235C526 237.761 528.239 240 531 240L531 243C526.582 243 523 239.418 523 235V14C523 9.58173 526.582 6 531 6H613C617.418 6 621 9.58172 621 14V235C621 239.418 617.418 243 613 243V240C615.761 240 618 237.761 618 235Z" fill="#2E2F33" fill-opacity="0.88"/>
<path d="M589.375 135.312C584.969 135.281 580.531 132.656 580.562 124.312C580.562 116.562 584.094 112.062 589.625 112.062C594 112.062 597 114.812 597.5 118.469H593.469C593.062 116.75 591.687 115.594 589.625 115.594C586.344 115.594 584.5 118.5 584.5 123.25H584.719C585.875 121.312 588.062 120.156 590.531 120.156C594.594 120.156 597.719 123.219 597.719 127.5C597.719 132 594.375 135.344 589.375 135.312ZM589.375 132.031C591.906 132.031 593.781 130.062 593.781 127.594C593.781 125.188 591.937 123.25 589.437 123.25C586.906 123.25 584.969 125.25 584.937 127.625C584.969 130 586.812 132.031 589.375 132.031Z" fill="black"/>
<path d="M575.406 112.375V135H571.312V116.344H571.188L565.906 119.719V116L571.5 112.375H575.406Z" fill="black"/>
<path d="M545.469 130.781V127.531L555.25 112.375H560.312V127.438H563.281V130.781H560.312V135H556.438V130.781H545.469ZM549.625 127.438H556.5V117H556.25L549.625 127.281V127.438Z" fill="black"/>
</g>
<g id="mirae_hall_417">
<path d="M617 14C617 9.58173 620.582 6 625 6H707C711.418 6 715 9.58172 715 14V235C715 239.418 711.418 243 707 243H625C620.582 243 617 239.418 617 235V14Z" fill="#F7FBFF"/>
<path d="M707 240V243H625L625 240H707ZM712 235V14C712 11.2386 709.761 9 707 9H625C622.239 9 620 11.2386 620 14V235C620 237.761 622.239 240 625 240L625 243C620.582 243 617 239.418 617 235V14C617 9.58173 620.582 6 625 6H707C711.418 6 715 9.58172 715 14V235C715 239.418 711.418 243 707 243V240C709.761 240 712 237.761 712 235Z" fill="#2E2F33" fill-opacity="0.88"/>
<path d="M676.75 135L686.562 115.938V115.781H675.188V112.375H690.781V115.844L680.969 135H676.75Z" fill="black"/>
<path d="M670.406 112.375V135H666.312V116.344H666.188L660.906 119.719V116L666.5 112.375H670.406Z" fill="black"/>
<path d="M640.469 130.781V127.531L650.25 112.375H655.312V127.438H658.281V130.781H655.312V135H651.438V130.781H640.469ZM644.625 127.438H651.5V117H651.25L644.625 127.281V127.438Z" fill="black"/>
</g>
<g id="mirae_hall_418">
<path d="M712 14C712 9.58173 715.582 6 720 6H802C806.418 6 810 9.58172 810 14V235C810 239.418 806.418 243 802 243H720C715.582 243 712 239.418 712 235V14Z" fill="#F7FBFF"/>
<path d="M802 240V243H720L720 240H802ZM807 235V14C807 11.2386 804.761 9 802 9H720C717.239 9 715 11.2386 715 14V235C715 237.761 717.239 240 720 240L720 243C715.582 243 712 239.418 712 235V14C712 9.58173 715.582 6 720 6H802C806.418 6 810 9.58172 810 14V235C810 239.418 806.418 243 802 243V240C804.761 240 807 237.761 807 235Z" fill="#2E2F33" fill-opacity="0.88"/>
<path d="M778.125 135.312C773.094 135.312 769.531 132.625 769.531 128.938C769.531 126.062 771.656 123.719 774.375 123.281V123.156C772 122.656 770.375 120.594 770.375 118.125C770.375 114.625 773.656 112.062 778.125 112.062C782.562 112.062 785.844 114.625 785.844 118.125C785.844 120.594 784.188 122.656 781.844 123.156V123.281C784.562 123.719 786.719 126.062 786.719 128.938C786.719 132.625 783.125 135.312 778.125 135.312ZM778.125 132.094C780.781 132.094 782.531 130.656 782.531 128.562C782.531 126.438 780.656 124.875 778.125 124.875C775.562 124.875 773.688 126.438 773.719 128.562C773.688 130.656 775.438 132.094 778.125 132.094ZM778.125 121.844C780.312 121.844 781.875 120.469 781.875 118.5C781.875 116.594 780.344 115.25 778.125 115.25C775.875 115.25 774.344 116.562 774.344 118.5C774.344 120.469 775.906 121.844 778.125 121.844Z" fill="black"/>
<path d="M764.406 112.375V135H760.312V116.344H760.188L754.906 119.719V116L760.5 112.375H764.406Z" fill="black"/>
<path d="M734.469 130.781V127.531L744.25 112.375H749.312V127.438H752.281V130.781H749.312V135H745.438V130.781H734.469ZM738.625 127.438H745.5V117H745.25L738.625 127.281V127.438Z" fill="black"/>
</g>
<g id="mirae_hall_419">
<path d="M807 14C807 9.58173 810.582 6 815 6H897C901.418 6 905 9.58172 905 14V235C905 239.418 901.418 243 897 243H815C810.582 243 807 239.418 807 235V14Z" fill="#F7FBFF"/>
<path d="M897 240V243H815L815 240H897ZM902 235V14C902 11.2386 899.761 9 897 9H815C812.239 9 810 11.2386 810 14V235C810 237.761 812.239 240 815 240L815 243C810.582 243 807 239.418 807 235V14C807 9.58173 810.582 6 815 6H897C901.418 6 905 9.58172 905 14V235C905 239.418 901.418 243 897 243V240C899.761 240 902 237.761 902 235Z" fill="#2E2F33" fill-opacity="0.88"/>
<path d="M872.938 112.062C877.375 112.094 881.75 114.719 881.781 123C881.781 130.812 878.25 135.312 872.688 135.312C868.312 135.312 865.312 132.594 864.812 128.844H868.844C869.25 130.625 870.625 131.781 872.688 131.781C875.969 131.781 877.812 128.875 877.844 124.031H877.594C876.438 126 874.281 127.156 871.781 127.156C867.75 127.156 864.625 124.094 864.594 119.812C864.594 115.375 867.906 112.031 872.938 112.062ZM872.969 115.344C870.438 115.344 868.531 117.312 868.562 119.719C868.562 122.156 870.375 124.062 872.906 124.062C875.406 124.062 877.375 122.031 877.344 119.688C877.344 117.375 875.5 115.344 872.969 115.344Z" fill="black"/>
<path d="M859.406 112.375V135H855.312V116.344H855.188L849.906 119.719V116L855.5 112.375H859.406Z" fill="black"/>
<path d="M829.469 130.781V127.531L839.25 112.375H844.312V127.438H847.281V130.781H844.312V135H840.438V130.781H829.469ZM833.625 127.438H840.5V117H840.25L833.625 127.281V127.438Z" fill="black"/>
</g>
<g id="mirae_hall_401">
<path d="M896 299C896 294.582 899.582 291 904 291H1093C1097.42 291 1101 294.582 1101 299V424C1101 428.418 1097.42 432 1093 432H904C899.582 432 896 428.418 896 424V299Z" fill="#F7FBFF"/>
<path d="M1093 429V432H904L904 429H1093ZM1098 424V299C1098 296.239 1095.76 294 1093 294H904C901.239 294 899 296.239 899 299V424C899 426.761 901.239 429 904 429L904 432C899.582 432 896 428.418 896 424V299C896 294.582 899.582 291 904 291H1093C1097.42 291 1101 294.582 1101 299V424C1101 428.418 1097.42 432 1093 432V429C1095.76 429 1098 426.761 1098 424Z" fill="#2E2F33" fill-opacity="0.88"/>
<path d="M1022.16 349.375V372H1018.06V353.344H1017.94L1012.66 356.719V353L1018.25 349.375H1022.16Z" fill="black"/>
<path d="M1000.88 372.312C995.438 372.312 992.188 368.094 992.188 360.688C992.188 353.312 995.438 349.062 1000.88 349.062C1006.28 349.062 1009.56 353.312 1009.56 360.688C1009.56 368.094 1006.31 372.312 1000.88 372.312ZM1000.88 368.906C1003.72 368.906 1005.47 366.125 1005.47 360.688C1005.47 355.281 1003.69 352.438 1000.88 352.438C998.062 352.438 996.281 355.281 996.281 360.688C996.281 366.125 998.031 368.906 1000.88 368.906Z" fill="black"/>
<path d="M971.469 367.781V364.531L981.25 349.375H986.312V364.438H989.281V367.781H986.312V372H982.438V367.781H971.469ZM975.625 364.438H982.5V354H982.25L975.625 364.281V364.438Z" fill="black"/>
</g>
<g id="mirae_hall_424">
<path d="M1160 299C1160 294.582 1163.58 291 1168 291H1330C1334.42 291 1338 294.582 1338 299V396C1338 400.418 1334.42 404 1330 404H1168C1163.58 404 1160 400.418 1160 396V299Z" fill="#F7FBFF"/>
<path d="M1330 401V404H1168L1168 401H1330ZM1335 396V299C1335 296.239 1332.76 294 1330 294H1168C1165.24 294 1163 296.239 1163 299V396C1163 398.761 1165.24 401 1168 401L1168 404L1167.59 403.989C1163.36 403.775 1160 400.28 1160 396V299C1160 294.582 1163.58 291 1168 291H1330C1334.42 291 1338 294.582 1338 299V396C1338 400.418 1334.42 404 1330 404V401C1332.76 401 1335 398.761 1335 396Z" fill="#2E2F33" fill-opacity="0.88"/>
<path d="M1258.91 353.781V350.531L1268.69 335.375H1273.75V350.438H1276.72V353.781H1273.75V358H1269.88V353.781H1258.91ZM1263.06 350.438H1269.94V340H1269.69L1263.06 350.281V350.438Z" fill="black"/>
<path d="M1240.53 358V355.062L1248.53 347.344C1250.81 345.062 1252 343.719 1252 341.812C1252 339.719 1250.34 338.375 1248.12 338.375C1245.78 338.375 1244.28 339.844 1244.31 342.125H1240.44C1240.41 337.844 1243.62 335.062 1248.16 335.062C1252.78 335.062 1255.91 337.812 1255.91 341.625C1255.91 344.188 1254.66 346.25 1250.22 350.438L1246.19 354.438V354.594H1256.25V358H1240.53Z" fill="black"/>
<path d="M1219.47 353.781V350.531L1229.25 335.375H1234.31V350.438H1237.28V353.781H1234.31V358H1230.44V353.781H1219.47ZM1223.62 350.438H1230.5V340H1230.25L1223.62 350.281V350.438Z" fill="black"/>
</g>
<g id="mirae_hall_425">
<path d="M1160 409C1160 404.582 1163.58 401 1168 401H1330C1334.42 401 1338 404.582 1338 409V527C1338 531.418 1334.42 535 1330 535H1168C1163.58 535 1160 531.418 1160 527V409Z" fill="#F7FBFF"/>
<path d="M1330 532V535H1168L1168 532H1330ZM1335 527V409C1335 406.239 1332.76 404 1330 404H1168C1165.24 404 1163 406.239 1163 409V527C1163 529.761 1165.24 532 1168 532L1168 535L1167.59 534.989C1163.36 534.775 1160 531.28 1160 527V409C1160 404.582 1163.58 401 1168 401H1330C1334.42 401 1338 404.582 1338 409V527C1338 531.418 1334.42 535 1330 535V532C1332.76 532 1335 529.761 1335 527Z" fill="#2E2F33" fill-opacity="0.88"/>
<path d="M1268.84 479.312C1264.31 479.312 1261 476.625 1260.88 472.875H1264.84C1264.97 474.719 1266.69 476.031 1268.84 476.031C1271.38 476.031 1273.19 474.188 1273.19 471.688C1273.19 469.094 1271.31 467.25 1268.72 467.25C1266.97 467.219 1265.69 467.844 1264.97 469.188H1261.19L1262.56 456.375H1275.94V459.781H1265.91L1265.22 465.781H1265.44C1266.31 464.781 1267.97 464.062 1269.81 464.062C1274.03 464.062 1277.12 467.219 1277.12 471.562C1277.12 476.094 1273.72 479.312 1268.84 479.312Z" fill="black"/>
<path d="M1241.53 479V476.062L1249.53 468.344C1251.81 466.062 1253 464.719 1253 462.812C1253 460.719 1251.34 459.375 1249.12 459.375C1246.78 459.375 1245.28 460.844 1245.31 463.125H1241.44C1241.41 458.844 1244.62 456.062 1249.16 456.062C1253.78 456.062 1256.91 458.812 1256.91 462.625C1256.91 465.188 1255.66 467.25 1251.22 471.438L1247.19 475.438V475.594H1257.25V479H1241.53Z" fill="black"/>
<path d="M1220.47 474.781V471.531L1230.25 456.375H1235.31V471.438H1238.28V474.781H1235.31V479H1231.44V474.781H1220.47ZM1224.62 471.438H1231.5V461H1231.25L1224.62 471.281V471.438Z" fill="black"/>
</g>
<g id="mirae_hall_426">
<path d="M1160 540C1160 535.582 1163.58 532 1168 532H1330C1334.42 532 1338 535.582 1338 540V632C1338 636.418 1334.42 640 1330 640H1168C1163.58 640 1160 636.418 1160 632V540Z" fill="#F7FBFF"/>
<path d="M1330 637V640H1168L1168 637H1330ZM1335 632V540C1335 537.239 1332.76 535 1330 535H1168C1165.24 535 1163 537.239 1163 540V632C1163 634.761 1165.24 637 1168 637L1168 640L1167.59 639.989C1163.36 639.775 1160 636.28 1160 632V540C1160 535.582 1163.58 532 1168 532H1330C1334.42 532 1338 535.582 1338 540V632C1338 636.418 1334.42 640 1330 640V637C1332.76 637 1335 634.761 1335 632Z" fill="#2E2F33" fill-opacity="0.88"/>
<path d="M1268.28 597.312C1263.88 597.281 1259.44 594.656 1259.47 586.312C1259.47 578.562 1263 574.062 1268.53 574.062C1272.91 574.062 1275.91 576.812 1276.41 580.469H1272.38C1271.97 578.75 1270.59 577.594 1268.53 577.594C1265.25 577.594 1263.41 580.5 1263.41 585.25H1263.63C1264.78 583.312 1266.97 582.156 1269.44 582.156C1273.5 582.156 1276.63 585.219 1276.63 589.5C1276.63 594 1273.28 597.344 1268.28 597.312ZM1268.28 594.031C1270.81 594.031 1272.69 592.062 1272.69 589.594C1272.69 587.188 1270.84 585.25 1268.34 585.25C1265.81 585.25 1263.88 587.25 1263.84 589.625C1263.88 592 1265.72 594.031 1268.28 594.031Z" fill="black"/>
<path d="M1240.53 597V594.062L1248.53 586.344C1250.81 584.062 1252 582.719 1252 580.812C1252 578.719 1250.34 577.375 1248.12 577.375C1245.78 577.375 1244.28 578.844 1244.31 581.125H1240.44C1240.41 576.844 1243.62 574.062 1248.16 574.062C1252.78 574.062 1255.91 576.812 1255.91 580.625C1255.91 583.188 1254.66 585.25 1250.22 589.438L1246.19 593.438V593.594H1256.25V597H1240.53Z" fill="black"/>
<path d="M1219.47 592.781V589.531L1229.25 574.375H1234.31V589.438H1237.28V592.781H1234.31V597H1230.44V592.781H1219.47ZM1223.62 589.438H1230.5V579H1230.25L1223.62 589.281V589.438Z" fill="black"/>
</g>
<g id="mirae_hall_427">
<path d="M1160 645C1160 640.582 1163.58 637 1168 637H1330C1334.42 637 1338 640.582 1338 645V819C1338 823.418 1334.42 827 1330 827H1168C1163.58 827 1160 823.418 1160 819V645Z" fill="#F7FBFF"/>
<path d="M1330 824V827H1168L1168 824H1330ZM1335 819V645C1335 642.239 1332.76 640 1330 640H1168C1165.24 640 1163 642.239 1163 645V819C1163 821.761 1165.24 824 1168 824L1168 827L1167.59 826.989C1163.36 826.775 1160 823.28 1160 819V645C1160 640.582 1163.58 637 1168 637H1330C1334.42 637 1338 640.582 1338 645V819C1338 823.418 1334.42 827 1330 827V824C1332.76 824 1335 821.761 1335 819Z" fill="#2E2F33" fill-opacity="0.88"/>
<path d="M1261.66 743L1271.47 723.938V723.781H1260.09V720.375H1275.69V723.844L1265.88 743H1261.66Z" fill="black"/>
<path d="M1241.53 743V740.062L1249.53 732.344C1251.81 730.062 1253 728.719 1253 726.812C1253 724.719 1251.34 723.375 1249.12 723.375C1246.78 723.375 1245.28 724.844 1245.31 727.125H1241.44C1241.41 722.844 1244.62 720.062 1249.16 720.062C1253.78 720.062 1256.91 722.812 1256.91 726.625C1256.91 729.188 1255.66 731.25 1251.22 735.438L1247.19 739.438V739.594H1257.25V743H1241.53Z" fill="black"/>
<path d="M1220.47 738.781V735.531L1230.25 720.375H1235.31V735.438H1238.28V738.781H1235.31V743H1231.44V738.781H1220.47ZM1224.62 735.438H1231.5V725H1231.25L1224.62 735.281V735.438Z" fill="black"/>
</g>
<g id="mirae_hall_431">
<path d="M1335 645C1335 640.582 1338.58 637 1343 637H1598C1602.42 637 1606 640.582 1606 645V819C1606 823.418 1602.42 827 1598 827H1343C1338.58 827 1335 823.418 1335 819V645Z" fill="#F7FBFF"/>
<path d="M1598 824V827H1343L1343 824H1598ZM1603 819V645C1603 642.239 1600.76 640 1598 640H1343C1340.24 640 1338 642.239 1338 645V819C1338 821.761 1340.24 824 1343 824L1343 827L1342.59 826.989C1338.36 826.775 1335 823.28 1335 819V645C1335 640.582 1338.58 637 1343 637H1598C1602.42 637 1606 640.582 1606 645V819C1606 823.418 1602.42 827 1598 827V824C1600.76 824 1603 821.761 1603 819Z" fill="#2E2F33" fill-opacity="0.88"/>
<path d="M1493.94 720.375V743H1489.84V724.344H1489.72L1484.44 727.719V724L1490.03 720.375H1493.94Z" fill="black"/>
<path d="M1472.75 743.312C1467.91 743.312 1464.47 740.688 1464.38 736.875H1468.47C1468.59 738.688 1470.41 739.875 1472.75 739.875C1475.25 739.875 1477.03 738.5 1477.03 736.5C1477.03 734.469 1475.28 733 1472.34 733H1470.31V729.875H1472.34C1474.75 729.875 1476.44 728.531 1476.41 726.562C1476.44 724.656 1475 723.375 1472.78 723.375C1470.66 723.375 1468.81 724.562 1468.75 726.469H1464.84C1464.94 722.656 1468.38 720.062 1472.81 720.062C1477.41 720.062 1480.38 722.875 1480.34 726.344C1480.38 728.875 1478.69 730.719 1476.22 731.219V731.406C1479.41 731.844 1481.22 733.875 1481.19 736.719C1481.22 740.531 1477.66 743.312 1472.75 743.312Z" fill="black"/>
<path d="M1443.47 738.781V735.531L1453.25 720.375H1458.31V735.438H1461.28V738.781H1458.31V743H1454.44V738.781H1443.47ZM1447.62 735.438H1454.5V725H1454.25L1447.62 735.281V735.438Z" fill="black"/>
</g>
<g id="mirae_hall_434">
<path d="M1603 645C1603 640.582 1606.58 637 1611 637H1871C1875.42 637 1879 640.582 1879 645V819C1879 823.418 1875.42 827 1871 827H1611C1606.58 827 1603 823.418 1603 819V645Z" fill="#F7FBFF"/>
<path d="M1871 824V827H1611L1611 824H1871ZM1876 819V645C1876 642.239 1873.76 640 1871 640H1611C1608.24 640 1606 642.239 1606 645V819C1606 821.761 1608.24 824 1611 824L1611 827L1610.59 826.989C1606.36 826.775 1603 823.28 1603 819V645C1603 640.582 1606.58 637 1611 637H1871C1875.42 637 1879 640.582 1879 645V819C1879 823.418 1875.42 827 1871 827V824C1873.76 824 1876 821.761 1876 819Z" fill="#2E2F33" fill-opacity="0.88"/>
<path d="M1752.34 738.781V735.531L1762.12 720.375H1767.19V735.438H1770.16V738.781H1767.19V743H1763.31V738.781H1752.34ZM1756.5 735.438H1763.38V725H1763.12L1756.5 735.281V735.438Z" fill="black"/>
<path d="M1740.75 743.312C1735.91 743.312 1732.47 740.688 1732.38 736.875H1736.47C1736.59 738.688 1738.41 739.875 1740.75 739.875C1743.25 739.875 1745.03 738.5 1745.03 736.5C1745.03 734.469 1743.28 733 1740.34 733H1738.31V729.875H1740.34C1742.75 729.875 1744.44 728.531 1744.41 726.562C1744.44 724.656 1743 723.375 1740.78 723.375C1738.66 723.375 1736.81 724.562 1736.75 726.469H1732.84C1732.94 722.656 1736.38 720.062 1740.81 720.062C1745.41 720.062 1748.38 722.875 1748.34 726.344C1748.38 728.875 1746.69 730.719 1744.22 731.219V731.406C1747.41 731.844 1749.22 733.875 1749.19 736.719C1749.22 740.531 1745.66 743.312 1740.75 743.312Z" fill="black"/>
<path d="M1711.47 738.781V735.531L1721.25 720.375H1726.31V735.438H1729.28V738.781H1726.31V743H1722.44V738.781H1711.47ZM1715.62 735.438H1722.5V725H1722.25L1715.62 735.281V735.438Z" fill="black"/>
</g>
<g id="mirae_hall_436">
<path d="M1876 645C1876 640.582 1879.58 637 1884 637H2007C2011.42 637 2015 640.582 2015 645V819C2015 823.418 2011.42 827 2007 827H1884C1879.58 827 1876 823.418 1876 819V645Z" fill="#F7FBFF"/>
<path d="M2007 824V827H1884L1884 824H2007ZM2012 819V645C2012 642.239 2009.76 640 2007 640H1884C1881.24 640 1879 642.239 1879 645V819C1879 821.761 1881.24 824 1884 824L1884 827L1883.59 826.989C1879.36 826.775 1876 823.28 1876 819V645C1876 640.72 1879.36 637.225 1883.59 637.011L1884 637H2007C2011.42 637 2015 640.582 2015 645V819C2015 823.418 2011.42 827 2007 827V824C2009.76 824 2012 821.761 2012 819Z" fill="#2E2F33" fill-opacity="0.88"/>
<path d="M1965.22 743.312C1960.81 743.281 1956.38 740.656 1956.41 732.312C1956.41 724.562 1959.94 720.062 1965.47 720.062C1969.84 720.062 1972.84 722.812 1973.34 726.469H1969.31C1968.91 724.75 1967.53 723.594 1965.47 723.594C1962.19 723.594 1960.34 726.5 1960.34 731.25H1960.56C1961.72 729.312 1963.91 728.156 1966.38 728.156C1970.44 728.156 1973.56 731.219 1973.56 735.5C1973.56 740 1970.22 743.344 1965.22 743.312ZM1965.22 740.031C1967.75 740.031 1969.63 738.062 1969.63 735.594C1969.63 733.188 1967.78 731.25 1965.28 731.25C1962.75 731.25 1960.81 733.25 1960.78 735.625C1960.81 738 1962.66 740.031 1965.22 740.031Z" fill="black"/>
<path d="M1944.75 743.312C1939.91 743.312 1936.47 740.688 1936.38 736.875H1940.47C1940.59 738.688 1942.41 739.875 1944.75 739.875C1947.25 739.875 1949.03 738.5 1949.03 736.5C1949.03 734.469 1947.28 733 1944.34 733H1942.31V729.875H1944.34C1946.75 729.875 1948.44 728.531 1948.41 726.562C1948.44 724.656 1947 723.375 1944.78 723.375C1942.66 723.375 1940.81 724.562 1940.75 726.469H1936.84C1936.94 722.656 1940.38 720.062 1944.81 720.062C1949.41 720.062 1952.38 722.875 1952.34 726.344C1952.38 728.875 1950.69 730.719 1948.22 731.219V731.406C1951.41 731.844 1953.22 733.875 1953.19 736.719C1953.22 740.531 1949.66 743.312 1944.75 743.312Z" fill="black"/>
<path d="M1915.47 738.781V735.531L1925.25 720.375H1930.31V735.438H1933.28V738.781H1930.31V743H1926.44V738.781H1915.47ZM1919.62 735.438H1926.5V725H1926.25L1919.62 735.281V735.438Z" fill="black"/>
</g>
<g id="mirae_hall_443">
<path d="M1338 887C1338 882.582 1341.58 879 1346 879H1601C1605.42 879 1609 882.582 1609 887V1047C1609 1051.42 1605.42 1055 1601 1055H1346C1341.58 1055 1338 1051.42 1338 1047V887Z" fill="#F7FBFF"/>
<path d="M1601 1052V1055H1346L1346 1052H1601ZM1606 1047V887C1606 884.239 1603.76 882 1601 882H1346C1343.24 882 1341 884.239 1341 887V1047C1341 1049.76 1343.24 1052 1346 1052L1346 1055L1345.59 1054.99C1341.36 1054.77 1338 1051.28 1338 1047V887C1338 882.582 1341.58 879 1346 879H1601C1605.42 879 1609 882.582 1609 887V1047C1609 1051.42 1605.42 1055 1601 1055V1052C1603.76 1052 1606 1049.76 1606 1047Z" fill="#2E2F33" fill-opacity="0.88"/>
<path d="M1493.41 978.312C1488.56 978.312 1485.12 975.688 1485.03 971.875H1489.12C1489.25 973.688 1491.06 974.875 1493.41 974.875C1495.91 974.875 1497.69 973.5 1497.69 971.5C1497.69 969.469 1495.94 968 1493 968H1490.97V964.875H1493C1495.41 964.875 1497.09 963.531 1497.06 961.562C1497.09 959.656 1495.66 958.375 1493.44 958.375C1491.31 958.375 1489.47 959.562 1489.41 961.469H1485.5C1485.59 957.656 1489.03 955.062 1493.47 955.062C1498.06 955.062 1501.03 957.875 1501 961.344C1501.03 963.875 1499.34 965.719 1496.88 966.219V966.406C1500.06 966.844 1501.88 968.875 1501.84 971.719C1501.88 975.531 1498.31 978.312 1493.41 978.312Z" fill="black"/>
<path d="M1464.12 973.781V970.531L1473.91 955.375H1478.97V970.438H1481.94V973.781H1478.97V978H1475.09V973.781H1464.12ZM1468.28 970.438H1475.16V960H1474.91L1468.28 970.281V970.438Z" fill="black"/>
<path d="M1443.47 973.781V970.531L1453.25 955.375H1458.31V970.438H1461.28V973.781H1458.31V978H1454.44V973.781H1443.47ZM1447.62 970.438H1454.5V960H1454.25L1447.62 970.281V970.438Z" fill="black"/>
</g>
<g id="mirae_hall_441">
<path d="M1606 887C1606 882.582 1609.58 879 1614 879H1871C1875.42 879 1879 882.582 1879 887V1047C1879 1051.42 1875.42 1055 1871 1055H1614C1609.58 1055 1606 1051.42 1606 1047V887Z" fill="#F7FBFF"/>
<path d="M1871 1052V1055H1614L1614 1052H1871ZM1876 1047V887C1876 884.239 1873.76 882 1871 882H1614C1611.24 882 1609 884.239 1609 887V1047C1609 1049.76 1611.24 1052 1614 1052L1614 1055L1613.59 1054.99C1609.36 1054.77 1606 1051.28 1606 1047V887C1606 882.582 1609.58 879 1614 879H1871C1875.42 879 1879 882.582 1879 887V1047C1879 1051.42 1875.42 1055 1871 1055V1052C1873.76 1052 1876 1049.76 1876 1047Z" fill="#2E2F33" fill-opacity="0.88"/>
<path d="M1766.06 955.375V978H1761.97V959.344H1761.84L1756.56 962.719V959L1762.16 955.375H1766.06Z" fill="black"/>
<path d="M1736.12 973.781V970.531L1745.91 955.375H1750.97V970.438H1753.94V973.781H1750.97V978H1747.09V973.781H1736.12ZM1740.28 970.438H1747.16V960H1746.91L1740.28 970.281V970.438Z" fill="black"/>
<path d="M1715.47 973.781V970.531L1725.25 955.375H1730.31V970.438H1733.28V973.781H1730.31V978H1726.44V973.781H1715.47ZM1719.62 970.438H1726.5V960H1726.25L1719.62 970.281V970.438Z" fill="black"/>
</g>
<g id="mirae_hall_440">
<path d="M1876 887C1876 882.582 1879.58 879 1884 879H2010C2014.42 879 2018 882.582 2018 887V936C2018 940.418 2014.42 944 2010 944H1884C1879.58 944 1876 940.418 1876 936V887Z" fill="#F7FBFF"/>
<path d="M2010 941V944H1884L1884 941H2010ZM2015 936V887C2015 884.239 2012.76 882 2010 882H1884C1881.24 882 1879 884.239 1879 887V936C1879 938.761 1881.24 941 1884 941L1884 944L1883.59 943.989C1879.36 943.775 1876 940.28 1876 936V887C1876 882.582 1879.58 879 1884 879H2010C2014.42 879 2018 882.582 2018 887V936C2018 940.418 2014.42 944 2010 944V941C2012.76 941 2015 938.761 2015 936Z" fill="#2E2F33" fill-opacity="0.88"/>
<path d="M1967.53 922.312C1962.09 922.312 1958.84 918.094 1958.84 910.688C1958.84 903.312 1962.09 899.062 1967.53 899.062C1972.94 899.062 1976.22 903.312 1976.22 910.688C1976.22 918.094 1972.97 922.312 1967.53 922.312ZM1967.53 918.906C1970.38 918.906 1972.12 916.125 1972.12 910.688C1972.12 905.281 1970.34 902.438 1967.53 902.438C1964.72 902.438 1962.94 905.281 1962.94 910.688C1962.94 916.125 1964.69 918.906 1967.53 918.906Z" fill="black"/>
<path d="M1938.12 917.781V914.531L1947.91 899.375H1952.97V914.438H1955.94V917.781H1952.97V922H1949.09V917.781H1938.12ZM1942.28 914.438H1949.16V904H1948.91L1942.28 914.281V914.438Z" fill="black"/>
<path d="M1917.47 917.781V914.531L1927.25 899.375H1932.31V914.438H1935.28V917.781H1932.31V922H1928.44V917.781H1917.47ZM1921.62 914.438H1928.5V904H1928.25L1921.62 914.281V914.438Z" fill="black"/>
</g>
<g id="mirae_hall_439">
<path d="M2015 887C2015 882.582 2018.58 879 2023 879H2289C2293.42 879 2297 882.582 2297 887V1130C2297 1134.42 2293.42 1138 2289 1138H2023C2018.58 1138 2015 1134.42 2015 1130V887Z" fill="#F7FBFF"/>
<path d="M2289 1135V1138H2023L2023 1135H2289ZM2294 1130V887C2294 884.239 2291.76 882 2289 882H2023C2020.24 882 2018 884.239 2018 887V1130C2018 1132.76 2020.24 1135 2023 1135L2023 1138L2022.59 1137.99C2018.36 1137.77 2015 1134.28 2015 1130V887C2015 882.72 2018.36 879.225 2022.59 879.011L2023 879H2289C2293.42 879 2297 882.582 2297 887V1130C2297 1134.42 2293.42 1138 2289 1138V1135C2291.76 1135 2294 1132.76 2294 1130Z" fill="#2E2F33" fill-opacity="0.88"/>
<path d="M2175.78 996.062C2180.22 996.094 2184.59 998.719 2184.62 1007C2184.62 1014.81 2181.09 1019.31 2175.53 1019.31C2171.16 1019.31 2168.16 1016.59 2167.66 1012.84H2171.69C2172.09 1014.62 2173.47 1015.78 2175.53 1015.78C2178.81 1015.78 2180.66 1012.87 2180.69 1008.03H2180.44C2179.28 1010 2177.12 1011.16 2174.62 1011.16C2170.59 1011.16 2167.47 1008.09 2167.44 1003.81C2167.44 999.375 2170.75 996.031 2175.78 996.062ZM2175.81 999.344C2173.28 999.344 2171.38 1001.31 2171.41 1003.72C2171.41 1006.16 2173.22 1008.06 2175.75 1008.06C2178.25 1008.06 2180.22 1006.03 2180.19 1003.69C2180.19 1001.37 2178.34 999.344 2175.81 999.344Z" fill="black"/>
<path d="M2155.75 1019.31C2150.91 1019.31 2147.47 1016.69 2147.38 1012.88H2151.47C2151.59 1014.69 2153.41 1015.88 2155.75 1015.88C2158.25 1015.88 2160.03 1014.5 2160.03 1012.5C2160.03 1010.47 2158.28 1009 2155.34 1009H2153.31V1005.88H2155.34C2157.75 1005.88 2159.44 1004.53 2159.41 1002.56C2159.44 1000.66 2158 999.375 2155.78 999.375C2153.66 999.375 2151.81 1000.56 2151.75 1002.47H2147.84C2147.94 998.656 2151.38 996.062 2155.81 996.062C2160.41 996.062 2163.38 998.875 2163.34 1002.34C2163.38 1004.88 2161.69 1006.72 2159.22 1007.22V1007.41C2162.41 1007.84 2164.22 1009.88 2164.19 1012.72C2164.22 1016.53 2160.66 1019.31 2155.75 1019.31Z" fill="black"/>
<path d="M2126.47 1014.78V1011.53L2136.25 996.375H2141.31V1011.44H2144.28V1014.78H2141.31V1019H2137.44V1014.78H2126.47ZM2130.62 1011.44H2137.5V1001H2137.25L2130.62 1011.28V1011.44Z" fill="black"/>
</g>
<g id="mirae_hall_438">
<path d="M2140 655C2140 650.582 2143.58 647 2148 647H2423C2427.42 647 2431 650.582 2431 655V793C2431 797.418 2427.42 801 2423 801H2148C2143.58 801 2140 797.418 2140 793V655Z" fill="#F7FBFF"/>
<path d="M2423 798V801H2148L2148 798H2423ZM2428 793V655C2428 652.239 2425.76 650 2423 650H2148C2145.24 650 2143 652.239 2143 655V793C2143 795.761 2145.24 798 2148 798L2148 801L2147.59 800.989C2143.36 800.775 2140 797.28 2140 793V655C2140 650.582 2143.58 647 2148 647H2423C2427.42 647 2431 650.582 2431 655V793C2431 797.418 2427.42 801 2423 801V798C2425.76 798 2428 795.761 2428 793Z" fill="#2E2F33" fill-opacity="0.88"/>
<path d="M2304.97 735.312C2299.94 735.312 2296.38 732.625 2296.38 728.938C2296.38 726.062 2298.5 723.719 2301.22 723.281V723.156C2298.84 722.656 2297.22 720.594 2297.22 718.125C2297.22 714.625 2300.5 712.062 2304.97 712.062C2309.41 712.062 2312.69 714.625 2312.69 718.125C2312.69 720.594 2311.03 722.656 2308.69 723.156V723.281C2311.41 723.719 2313.56 726.062 2313.56 728.938C2313.56 732.625 2309.97 735.312 2304.97 735.312ZM2304.97 732.094C2307.62 732.094 2309.38 730.656 2309.38 728.562C2309.38 726.438 2307.5 724.875 2304.97 724.875C2302.41 724.875 2300.53 726.438 2300.56 728.562C2300.53 730.656 2302.28 732.094 2304.97 732.094ZM2304.97 721.844C2307.16 721.844 2308.72 720.469 2308.72 718.5C2308.72 716.594 2307.19 715.25 2304.97 715.25C2302.72 715.25 2301.19 716.562 2301.19 718.5C2301.19 720.469 2302.75 721.844 2304.97 721.844Z" fill="black"/>
<path d="M2284.75 735.312C2279.91 735.312 2276.47 732.688 2276.38 728.875H2280.47C2280.59 730.688 2282.41 731.875 2284.75 731.875C2287.25 731.875 2289.03 730.5 2289.03 728.5C2289.03 726.469 2287.28 725 2284.34 725H2282.31V721.875H2284.34C2286.75 721.875 2288.44 720.531 2288.41 718.562C2288.44 716.656 2287 715.375 2284.78 715.375C2282.66 715.375 2280.81 716.562 2280.75 718.469H2276.84C2276.94 714.656 2280.38 712.062 2284.81 712.062C2289.41 712.062 2292.38 714.875 2292.34 718.344C2292.38 720.875 2290.69 722.719 2288.22 723.219V723.406C2291.41 723.844 2293.22 725.875 2293.19 728.719C2293.22 732.531 2289.66 735.312 2284.75 735.312Z" fill="black"/>
<path d="M2255.47 730.781V727.531L2265.25 712.375H2270.31V727.438H2273.28V730.781H2270.31V735H2266.44V730.781H2255.47ZM2259.62 727.438H2266.5V717H2266.25L2259.62 727.281V727.438Z" fill="black"/>
</g>
<g id="mirae_hall_437">
<path d="M2014 220C2014 215.582 2017.58 212 2022 212H2423C2427.42 212 2431 215.582 2431 220V642C2431 646.418 2427.42 650 2423 650H2022C2017.58 650 2014 646.418 2014 642V220Z" fill="#F7FBFF"/>
<path d="M2423 647V650H2022L2022 647H2423ZM2428 642V220C2428 217.239 2425.76 215 2423 215H2022C2019.24 215 2017 217.239 2017 220V642C2017 644.761 2019.24 647 2022 647L2022 650L2021.59 649.989C2017.36 649.775 2014 646.28 2014 642V220C2014 215.582 2017.58 212 2022 212H2423C2427.42 212 2431 215.582 2431 220V642C2431 646.418 2427.42 650 2423 650V647C2425.76 647 2428 644.761 2428 642Z" fill="#2E2F33" fill-opacity="0.88"/>
<path d="M2235.59 442L2245.41 422.938V422.781H2234.03V419.375H2249.62V422.844L2239.81 442H2235.59Z" fill="black"/>
<path d="M2222.75 442.312C2217.91 442.312 2214.47 439.688 2214.38 435.875H2218.47C2218.59 437.688 2220.41 438.875 2222.75 438.875C2225.25 438.875 2227.03 437.5 2227.03 435.5C2227.03 433.469 2225.28 432 2222.34 432H2220.31V428.875H2222.34C2224.75 428.875 2226.44 427.531 2226.41 425.562C2226.44 423.656 2225 422.375 2222.78 422.375C2220.66 422.375 2218.81 423.562 2218.75 425.469H2214.84C2214.94 421.656 2218.38 419.062 2222.81 419.062C2227.41 419.062 2230.38 421.875 2230.34 425.344C2230.38 427.875 2228.69 429.719 2226.22 430.219V430.406C2229.41 430.844 2231.22 432.875 2231.19 435.719C2231.22 439.531 2227.66 442.312 2222.75 442.312Z" fill="black"/>
<path d="M2193.47 437.781V434.531L2203.25 419.375H2208.31V434.438H2211.28V437.781H2208.31V442H2204.44V437.781H2193.47ZM2197.62 434.438H2204.5V424H2204.25L2197.62 434.281V434.438Z" fill="black"/>
</g>
<g id="mirae_hall_403">
<path d="M803 299C803 294.582 806.582 291 811 291H891C895.418 291 899 294.582 899 299V424C899 428.418 895.418 432 891 432H811C806.582 432 803 428.418 803 424V299Z" fill="#F7FBFF"/>
<path d="M891 429V432H811L811 429H891ZM896 424V299C896 296.239 893.761 294 891 294H811C808.239 294 806 296.239 806 299V424C806 426.761 808.239 429 811 429L811 432L810.588 431.989C806.361 431.775 803 428.28 803 424V299C803 294.582 806.582 291 811 291H891C895.418 291 899 294.582 899 299V424C899 428.418 895.418 432 891 432V429C893.761 429 896 426.761 896 424Z" fill="#2E2F33" fill-opacity="0.88"/>
<path d="M871.188 372.312C866.344 372.312 862.906 369.688 862.812 365.875H866.906C867.031 367.688 868.844 368.875 871.188 368.875C873.688 368.875 875.469 367.5 875.469 365.5C875.469 363.469 873.719 362 870.781 362H868.75V358.875H870.781C873.188 358.875 874.875 357.531 874.844 355.562C874.875 353.656 873.438 352.375 871.219 352.375C869.094 352.375 867.25 353.562 867.188 355.469H863.281C863.375 351.656 866.812 349.062 871.25 349.062C875.844 349.062 878.812 351.875 878.781 355.344C878.812 357.875 877.125 359.719 874.656 360.219V360.406C877.844 360.844 879.656 362.875 879.625 365.719C879.656 369.531 876.094 372.312 871.188 372.312Z" fill="black"/>
<path d="M850.875 372.312C845.438 372.312 842.188 368.094 842.188 360.688C842.188 353.312 845.438 349.062 850.875 349.062C856.281 349.062 859.562 353.312 859.562 360.688C859.562 368.094 856.312 372.312 850.875 372.312ZM850.875 368.906C853.719 368.906 855.469 366.125 855.469 360.688C855.469 355.281 853.688 352.438 850.875 352.438C848.062 352.438 846.281 355.281 846.281 360.688C846.281 366.125 848.031 368.906 850.875 368.906Z" fill="black"/>
<path d="M821.469 367.781V364.531L831.25 349.375H836.312V364.438H839.281V367.781H836.312V372H832.438V367.781H821.469ZM825.625 364.438H832.5V354H832.25L825.625 364.281V364.438Z" fill="black"/>
</g>
<g id="mirae_hall_404">
<path d="M711 299C711 294.582 714.582 291 719 291H799C803.418 291 807 294.582 807 299V424C807 428.418 803.418 432 799 432H719C714.582 432 711 428.418 711 424V299Z" fill="#F7FBFF"/>
<path d="M799 429V432H719L719 429H799ZM804 424V299C804 296.239 801.761 294 799 294H719C716.239 294 714 296.239 714 299V424C714 426.761 716.239 429 719 429L719 432L718.588 431.989C714.361 431.775 711 428.28 711 424V299C711 294.582 714.582 291 719 291H799C803.418 291 807 294.582 807 299V424C807 428.418 803.418 432 799 432V429C801.761 429 804 426.761 804 424Z" fill="#2E2F33" fill-opacity="0.88"/>
<path d="M770.562 367.781V364.531L780.344 349.375H785.406V364.438H788.375V367.781H785.406V372H781.531V367.781H770.562ZM774.719 364.438H781.594V354H781.344L774.719 364.281V364.438Z" fill="black"/>
<path d="M758.875 372.312C753.438 372.312 750.188 368.094 750.188 360.688C750.188 353.312 753.438 349.062 758.875 349.062C764.281 349.062 767.562 353.312 767.562 360.688C767.562 368.094 764.312 372.312 758.875 372.312ZM758.875 368.906C761.719 368.906 763.469 366.125 763.469 360.688C763.469 355.281 761.688 352.438 758.875 352.438C756.062 352.438 754.281 355.281 754.281 360.688C754.281 366.125 756.031 368.906 758.875 368.906Z" fill="black"/>
<path d="M729.469 367.781V364.531L739.25 349.375H744.312V364.438H747.281V367.781H744.312V372H740.438V367.781H729.469ZM733.625 364.438H740.5V354H740.25L733.625 364.281V364.438Z" fill="black"/>
</g>
<g id="mirae_hall_405">
<path d="M618 299C618 294.582 621.582 291 626 291H706C710.418 291 714 294.582 714 299V424C714 428.418 710.418 432 706 432H626C621.582 432 618 428.418 618 424V299Z" fill="#F7FBFF"/>
<path d="M706 429V432H626L626 429H706ZM711 424V299C711 296.239 708.761 294 706 294H626C623.239 294 621 296.239 621 299V424C621 426.761 623.239 429 626 429L626 432L625.588 431.989C621.361 431.775 618 428.28 618 424V299C618 294.582 621.582 291 626 291H706C710.418 291 714 294.582 714 299V424C714 428.418 710.418 432 706 432V429C708.761 429 711 426.761 711 424Z" fill="#2E2F33" fill-opacity="0.88"/>
<path d="M686 372.312C681.469 372.312 678.156 369.625 678.031 365.875H682C682.125 367.719 683.844 369.031 686 369.031C688.531 369.031 690.344 367.188 690.344 364.688C690.344 362.094 688.469 360.25 685.875 360.25C684.125 360.219 682.844 360.844 682.125 362.188H678.344L679.719 349.375H693.094V352.781H683.062L682.375 358.781H682.594C683.469 357.781 685.125 357.062 686.969 357.062C691.188 357.062 694.281 360.219 694.281 364.562C694.281 369.094 690.875 372.312 686 372.312Z" fill="black"/>
<path d="M665.875 372.312C660.438 372.312 657.188 368.094 657.188 360.688C657.188 353.312 660.438 349.062 665.875 349.062C671.281 349.062 674.562 353.312 674.562 360.688C674.562 368.094 671.312 372.312 665.875 372.312ZM665.875 368.906C668.719 368.906 670.469 366.125 670.469 360.688C670.469 355.281 668.688 352.438 665.875 352.438C663.062 352.438 661.281 355.281 661.281 360.688C661.281 366.125 663.031 368.906 665.875 368.906Z" fill="black"/>
<path d="M636.469 367.781V364.531L646.25 349.375H651.312V364.438H654.281V367.781H651.312V372H647.438V367.781H636.469ZM640.625 364.438H647.5V354H647.25L640.625 364.281V364.438Z" fill="black"/>
</g>
<g id="mirae_hall_406">
<path d="M525 299C525 294.582 528.582 291 533 291H613C617.418 291 621 294.582 621 299V424C621 428.418 617.418 432 613 432H533C528.582 432 525 428.418 525 424V299Z" fill="#F7FBFF"/>
<path d="M613 429V432H533L533 429H613ZM618 424V299C618 296.239 615.761 294 613 294H533C530.239 294 528 296.239 528 299V424C528 426.761 530.239 429 533 429L533 432L532.588 431.989C528.361 431.775 525 428.28 525 424V299C525 294.582 528.582 291 533 291H613C617.418 291 621 294.582 621 299V424C621 428.418 617.418 432 613 432V429C615.761 429 618 426.761 618 424Z" fill="#2E2F33" fill-opacity="0.88"/>
<path d="M593.437 372.312C589.031 372.281 584.594 369.656 584.625 361.312C584.625 353.562 588.156 349.062 593.687 349.062C598.062 349.062 601.062 351.812 601.562 355.469H597.531C597.125 353.75 595.75 352.594 593.687 352.594C590.406 352.594 588.562 355.5 588.562 360.25H588.781C589.937 358.312 592.125 357.156 594.594 357.156C598.656 357.156 601.781 360.219 601.781 364.5C601.781 369 598.437 372.344 593.437 372.312ZM593.437 369.031C595.969 369.031 597.844 367.062 597.844 364.594C597.844 362.188 596 360.25 593.5 360.25C590.969 360.25 589.031 362.25 589 364.625C589.031 367 590.875 369.031 593.437 369.031Z" fill="black"/>
<path d="M572.875 372.312C567.438 372.312 564.188 368.094 564.188 360.688C564.188 353.312 567.438 349.062 572.875 349.062C578.281 349.062 581.562 353.312 581.562 360.688C581.562 368.094 578.312 372.312 572.875 372.312ZM572.875 368.906C575.719 368.906 577.469 366.125 577.469 360.688C577.469 355.281 575.688 352.438 572.875 352.438C570.062 352.438 568.281 355.281 568.281 360.688C568.281 366.125 570.031 368.906 572.875 368.906Z" fill="black"/>
<path d="M543.469 367.781V364.531L553.25 349.375H558.312V364.438H561.281V367.781H558.312V372H554.438V367.781H543.469ZM547.625 364.438H554.5V354H554.25L547.625 364.281V364.438Z" fill="black"/>
</g>
<g id="mirae_hall_407">
<path d="M432 299C432 294.582 435.582 291 440 291H520C524.418 291 528 294.582 528 299V424C528 428.418 524.418 432 520 432H440C435.582 432 432 428.418 432 424V299Z" fill="#F7FBFF"/>
<path d="M520 429V432H440L440 429H520ZM525 424V299C525 296.239 522.761 294 520 294H440C437.239 294 435 296.239 435 299V424C435 426.761 437.239 429 440 429L440 432L439.588 431.989C435.361 431.775 432 428.28 432 424V299C432 294.582 435.582 291 440 291H520C524.418 291 528 294.582 528 299V424C528 428.418 524.418 432 520 432V429C522.761 429 525 426.761 525 424Z" fill="#2E2F33" fill-opacity="0.88"/>
<path d="M493.188 372L503 352.938V352.781H491.625V349.375H507.219V352.844L497.406 372H493.188Z" fill="black"/>
<path d="M480.875 372.312C475.438 372.312 472.188 368.094 472.188 360.688C472.188 353.312 475.438 349.062 480.875 349.062C486.281 349.062 489.562 353.312 489.562 360.688C489.562 368.094 486.312 372.312 480.875 372.312ZM480.875 368.906C483.719 368.906 485.469 366.125 485.469 360.688C485.469 355.281 483.688 352.438 480.875 352.438C478.062 352.438 476.281 355.281 476.281 360.688C476.281 366.125 478.031 368.906 480.875 368.906Z" fill="black"/>
<path d="M451.469 367.781V364.531L461.25 349.375H466.312V364.438H469.281V367.781H466.312V372H462.438V367.781H451.469ZM455.625 364.438H462.5V354H462.25L455.625 364.281V364.438Z" fill="black"/>
</g>
<g id="mirae_hall_408">
<path d="M339 299C339 294.582 342.582 291 347 291H427C431.418 291 435 294.582 435 299V424C435 428.418 431.418 432 427 432H347C342.582 432 339 428.418 339 424V299Z" fill="#F7FBFF"/>
<path d="M427 429V432H347L347 429H427ZM432 424V299C432 296.239 429.761 294 427 294H347C344.239 294 342 296.239 342 299V424C342 426.761 344.239 429 347 429L347 432L346.588 431.989C342.361 431.775 339 428.28 339 424V299C339 294.582 342.582 291 347 291H427C431.418 291 435 294.582 435 299V424C435 428.418 431.418 432 427 432V429C429.761 429 432 426.761 432 424Z" fill="#2E2F33" fill-opacity="0.88"/>
<path d="M407.188 372.312C402.156 372.312 398.594 369.625 398.594 365.938C398.594 363.062 400.719 360.719 403.438 360.281V360.156C401.062 359.656 399.438 357.594 399.438 355.125C399.438 351.625 402.719 349.062 407.188 349.062C411.625 349.062 414.906 351.625 414.906 355.125C414.906 357.594 413.25 359.656 410.906 360.156V360.281C413.625 360.719 415.781 363.062 415.781 365.938C415.781 369.625 412.188 372.312 407.188 372.312ZM407.188 369.094C409.844 369.094 411.594 367.656 411.594 365.562C411.594 363.438 409.719 361.875 407.188 361.875C404.625 361.875 402.75 363.438 402.781 365.562C402.75 367.656 404.5 369.094 407.188 369.094ZM407.188 358.844C409.375 358.844 410.938 357.469 410.938 355.5C410.938 353.594 409.406 352.25 407.188 352.25C404.938 352.25 403.406 353.562 403.406 355.5C403.406 357.469 404.969 358.844 407.188 358.844Z" fill="black"/>
<path d="M386.875 372.312C381.438 372.312 378.188 368.094 378.188 360.688C378.188 353.312 381.438 349.062 386.875 349.062C392.281 349.062 395.562 353.312 395.562 360.688C395.562 368.094 392.312 372.312 386.875 372.312ZM386.875 368.906C389.719 368.906 391.469 366.125 391.469 360.688C391.469 355.281 389.688 352.438 386.875 352.438C384.062 352.438 382.281 355.281 382.281 360.688C382.281 366.125 384.031 368.906 386.875 368.906Z" fill="black"/>
<path d="M357.469 367.781V364.531L367.25 349.375H372.312V364.438H375.281V367.781H372.312V372H368.438V367.781H357.469ZM361.625 364.438H368.5V354H368.25L361.625 364.281V364.438Z" fill="black"/>
</g>
<g id="mirae_hall_409">
<path d="M246 299C246 294.582 249.582 291 254 291H334C338.418 291 342 294.582 342 299V424C342 428.418 338.418 432 334 432H254C249.582 432 246 428.418 246 424V299Z" fill="#F7FBFF"/>
<path d="M334 429V432H254L254 429H334ZM339 424V299C339 296.239 336.761 294 334 294H254C251.239 294 249 296.239 249 299V424C249 426.761 251.239 429 254 429L254 432L253.588 431.989C249.361 431.775 246 428.28 246 424V299C246 294.582 249.582 291 254 291H334C338.418 291 342 294.582 342 299V424C342 428.418 338.418 432 334 432V429C336.761 429 339 426.761 339 424Z" fill="#2E2F33" fill-opacity="0.88"/>
<path d="M314 349.063C318.438 349.094 322.812 351.719 322.844 360C322.844 367.812 319.312 372.312 313.75 372.312C309.375 372.312 306.375 369.594 305.875 365.844H309.906C310.312 367.625 311.688 368.781 313.75 368.781C317.031 368.781 318.875 365.875 318.906 361.031H318.656C317.5 363 315.344 364.156 312.844 364.156C308.812 364.156 305.688 361.094 305.656 356.812C305.656 352.375 308.969 349.031 314 349.063ZM314.031 352.344C311.5 352.344 309.594 354.312 309.625 356.719C309.625 359.156 311.438 361.062 313.969 361.062C316.469 361.062 318.438 359.031 318.406 356.688C318.406 354.375 316.562 352.344 314.031 352.344Z" fill="black"/>
<path d="M293.875 372.312C288.438 372.312 285.188 368.094 285.188 360.688C285.188 353.312 288.438 349.062 293.875 349.062C299.281 349.062 302.562 353.312 302.562 360.688C302.562 368.094 299.312 372.312 293.875 372.312ZM293.875 368.906C296.719 368.906 298.469 366.125 298.469 360.688C298.469 355.281 296.688 352.438 293.875 352.438C291.062 352.438 289.281 355.281 289.281 360.688C289.281 366.125 291.031 368.906 293.875 368.906Z" fill="black"/>
<path d="M264.469 367.781V364.531L274.25 349.375H279.312V364.438H282.281V367.781H279.312V372H275.438V367.781H264.469ZM268.625 364.438H275.5V354H275.25L268.625 364.281V364.438Z" fill="black"/>
</g>
<g id="mirae_hall_410">
<path d="M153 299C153 294.582 156.582 291 161 291H241C245.418 291 249 294.582 249 299V424C249 428.418 245.418 432 241 432H161C156.582 432 153 428.418 153 424V299Z" fill="#F7FBFF"/>
<path d="M241 429V432H161L161 429H241ZM246 424V299C246 296.239 243.761 294 241 294H161C158.239 294 156 296.239 156 299V424C156 426.761 158.239 429 161 429L161 432L160.588 431.989C156.361 431.775 153 428.28 153 424V299C153 294.582 156.582 291 161 291H241C245.418 291 249 294.582 249 299V424C249 428.418 245.418 432 241 432V429C243.761 429 246 426.761 246 424Z" fill="#2E2F33" fill-opacity="0.88"/>
<path d="M218.25 372.312C212.812 372.312 209.562 368.094 209.562 360.688C209.562 353.312 212.812 349.062 218.25 349.062C223.656 349.062 226.938 353.312 226.938 360.688C226.938 368.094 223.688 372.312 218.25 372.312ZM218.25 368.906C221.094 368.906 222.844 366.125 222.844 360.688C222.844 355.281 221.062 352.438 218.25 352.438C215.438 352.438 213.656 355.281 213.656 360.688C213.656 366.125 215.406 368.906 218.25 368.906Z" fill="black"/>
<path d="M204.406 349.375V372H200.312V353.344H200.188L194.906 356.719V353L200.5 349.375H204.406Z" fill="black"/>
<path d="M174.469 367.781V364.531L184.25 349.375H189.312V364.438H192.281V367.781H189.312V372H185.438V367.781H174.469ZM178.625 364.438H185.5V354H185.25L178.625 364.281V364.438Z" fill="black"/>
</g>
<g id="mirae_hall_4f_toilet_left_boy">
<path d="M902 135C902 130.582 905.582 127 910 127H1096C1100.42 127 1104 130.582 1104 135V235C1104 239.418 1100.42 243 1096 243H910C905.582 243 902 239.418 902 235V135Z" fill="#FED9C4"/>
<path d="M1096 240V243H910L910 240H1096ZM1101 235V135C1101 132.239 1098.76 130 1096 130H910C907.239 130 905 132.239 905 135V235C905 237.761 907.239 240 910 240L910 243L909.588 242.989C905.361 242.775 902 239.28 902 235V135C902 130.582 905.582 127 910 127H1096C1100.42 127 1104 130.582 1104 135V235C1104 239.418 1100.42 243 1096 243V240C1098.76 240 1101 237.761 1101 235Z" fill="#2E2F33" fill-opacity="0.88"/>
<path d="M1015.75 160.25H990.25C983.623 160.25 978.25 165.623 978.25 172.25V197.75C978.25 204.377 983.623 209.75 990.25 209.75H1015.75C1022.38 209.75 1027.75 204.377 1027.75 197.75V172.25C1027.75 165.623 1022.38 160.25 1015.75 160.25Z" fill="#3076D1"/>
<path d="M1005.73 197.889L1011.19 185.342C1012.05 183.378 1010.61 181.181 1008.47 181.181H997.535C995.394 181.181 993.953 183.378 994.81 185.342L1000.28 197.889C1001.31 200.271 1004.69 200.271 1005.73 197.889H1005.73Z" fill="white"/>
<path d="M1003 178.388C1005.23 178.388 1007.03 176.583 1007.03 174.356C1007.03 172.129 1005.23 170.324 1003 170.324C1000.77 170.324 998.968 172.129 998.968 174.356C998.968 176.583 1000.77 178.388 1003 178.388Z" fill="white"/>
</g>
<g id="mirae_hall_4f_toilet_right_boy">
<path d="M1155 976C1155 971.582 1158.58 968 1163 968H1333C1337.42 968 1341 971.582 1341 976V1047C1341 1051.42 1337.42 1055 1333 1055H1163C1158.58 1055 1155 1051.42 1155 1047V976Z" fill="#FED9C4"/>
<path d="M1333 1052V1055H1163L1163 1052H1333ZM1338 1047V976C1338 973.239 1335.76 971 1333 971H1163C1160.24 971 1158 973.239 1158 976V1047C1158 1049.76 1160.24 1052 1163 1052L1163 1055C1158.58 1055 1155 1051.42 1155 1047V976C1155 971.582 1158.58 968 1163 968H1333C1337.42 968 1341 971.582 1341 976V1047C1341 1051.42 1337.42 1055 1333 1055V1052C1335.76 1052 1338 1049.76 1338 1047Z" fill="#2E2F33" fill-opacity="0.88"/>
<path d="M1260.75 986.25H1235.25C1228.62 986.25 1223.25 991.623 1223.25 998.25V1023.75C1223.25 1030.38 1228.62 1035.75 1235.25 1035.75H1260.75C1267.38 1035.75 1272.75 1030.38 1272.75 1023.75V998.25C1272.75 991.623 1267.38 986.25 1260.75 986.25Z" fill="#3076D1"/>
<path d="M1250.73 1023.89L1256.19 1011.34C1257.05 1009.38 1255.61 1007.18 1253.47 1007.18H1242.54C1240.39 1007.18 1238.95 1009.38 1239.81 1011.34L1245.28 1023.89C1246.31 1026.27 1249.69 1026.27 1250.73 1023.89H1250.73Z" fill="white"/>
<path d="M1248 1004.39C1250.23 1004.39 1252.03 1002.58 1252.03 1000.36C1252.03 998.129 1250.23 996.324 1248 996.324C1245.77 996.324 1243.97 998.129 1243.97 1000.36C1243.97 1002.58 1245.77 1004.39 1248 1004.39Z" fill="white"/>
</g>
<g id="mirae_hall_4f_toilet_left_girl">
<path d="M902 14C902 9.58172 905.582 6 910 6H1096C1100.42 6 1104 9.58172 1104 14V122C1104 126.418 1100.42 130 1096 130H910C905.582 130 902 126.418 902 122V14Z" fill="#FED9C4"/>
<path d="M1096 127V130H910L910 127H1096ZM1101 122V14C1101 11.2386 1098.76 9 1096 9H910C907.239 9 905 11.2386 905 14V122C905 124.761 907.239 127 910 127L910 130L909.588 129.989C905.361 129.775 902 126.28 902 122V14C902 9.58172 905.582 6 910 6H1096C1100.42 6 1104 9.58172 1104 14V122C1104 126.418 1100.42 130 1096 130V127C1098.76 127 1101 124.761 1101 122Z" fill="#2E2F33" fill-opacity="0.88"/>
<path d="M1015.75 43.25H990.25C983.623 43.25 978.25 48.6226 978.25 55.25V80.75C978.25 87.3774 983.623 92.75 990.25 92.75H1015.75C1022.38 92.75 1027.75 87.3774 1027.75 80.75V55.25C1027.75 48.6226 1022.38 43.25 1015.75 43.25Z" fill="#E76D6D"/>
<path d="M1000.27 65.9765L994.809 78.524C993.953 80.4875 995.392 82.685 997.534 82.685H1008.46C1010.61 82.685 1012.05 80.4875 1011.19 78.524L1005.72 65.9765C1004.69 63.5945 1001.31 63.5945 1000.27 65.9765H1000.27Z" fill="white"/>
<path d="M1003 61.3805C1005.23 61.3805 1007.03 59.5753 1007.03 57.3485C1007.03 55.1217 1005.23 53.3165 1003 53.3165C1000.77 53.3165 998.968 55.1217 998.968 57.3485C998.968 59.5753 1000.77 61.3805 1003 61.3805Z" fill="white"/>
</g>
<g id="mirae_hall_4f_toilet_right_girl">
<path d="M1155 887C1155 882.582 1158.58 879 1163 879H1333C1337.42 879 1341 882.582 1341 887V963C1341 967.418 1337.42 971 1333 971H1163C1158.58 971 1155 967.418 1155 963V887Z" fill="#FED9C4"/>
<path d="M1333 968V971H1163L1163 968H1333ZM1338 963V887C1338 884.239 1335.76 882 1333 882H1163C1160.24 882 1158 884.239 1158 887V963C1158 965.761 1160.24 968 1163 968L1163 971C1158.58 971 1155 967.418 1155 963V887C1155 882.582 1158.58 879 1163 879H1333C1337.42 879 1341 882.582 1341 887V963C1341 967.418 1337.42 971 1333 971V968C1335.76 968 1338 965.761 1338 963Z" fill="#2E2F33" fill-opacity="0.88"/>
<path d="M1260.75 900.25H1235.25C1228.62 900.25 1223.25 905.623 1223.25 912.25V937.75C1223.25 944.377 1228.62 949.75 1235.25 949.75H1260.75C1267.38 949.75 1272.75 944.377 1272.75 937.75V912.25C1272.75 905.623 1267.38 900.25 1260.75 900.25Z" fill="#E76D6D"/>
<path d="M1245.27 922.976L1239.81 935.524C1238.95 937.488 1240.39 939.685 1242.53 939.685H1253.46C1255.61 939.685 1257.05 937.488 1256.19 935.524L1250.72 922.976C1249.69 920.594 1246.31 920.594 1245.27 922.976H1245.27Z" fill="white"/>
<path d="M1248 918.381C1250.23 918.381 1252.03 916.575 1252.03 914.348C1252.03 912.122 1250.23 910.317 1248 910.317C1245.77 910.317 1243.97 912.122 1243.97 914.348C1243.97 916.575 1245.77 918.381 1248 918.381Z" fill="white"/>
</g>
<g id="mirae_hall_4f_stairs_left_main">
<path d="M1204 138C1204 133.582 1207.58 130 1212 130H1330C1334.42 130 1338 133.582 1338 138V231C1338 235.418 1334.42 239 1330 239H1212C1207.58 239 1204 235.418 1204 231V138Z" fill="#D9FFE6"/>
<path d="M1330 236V239H1212L1212 236H1330ZM1335 231V138C1335 135.239 1332.76 133 1330 133H1212C1209.24 133 1207 135.239 1207 138V231C1207 233.761 1209.24 236 1212 236L1212 239C1207.58 239 1204 235.418 1204 231V138C1204 133.582 1207.58 130 1212 130H1330C1334.42 130 1338 133.582 1338 138V231C1338 235.418 1334.42 239 1330 239V236C1332.76 236 1335 233.761 1335 231Z" fill="#2E2F33" fill-opacity="0.88"/>
<path d="M1294.94 157.635C1293.89 157.248 1292.73 157.788 1292.34 158.836L1288.58 169.056H1267.28L1270.81 160.289C1271.22 159.251 1270.72 158.071 1269.68 157.654C1268.64 157.237 1267.46 157.743 1267.05 158.778L1247.43 207.581C1247.01 208.619 1247.52 209.8 1248.56 210.217C1248.8 210.316 1249.06 210.364 1249.31 210.364C1250.11 210.364 1250.87 209.884 1251.19 209.093L1255.22 199.071C1255.31 199.083 1255.38 199.121 1255.47 199.121H1277.52L1274.39 207.64C1274 208.688 1274.54 209.854 1275.59 210.238C1275.82 210.324 1276.06 210.364 1276.29 210.364C1277.11 210.364 1277.89 209.855 1278.19 209.036L1296.14 160.233C1296.53 159.184 1295.99 158.019 1294.94 157.635ZM1266.07 173.104H1287.09L1283.85 181.91H1262.11L1265.69 173.026C1265.82 173.052 1265.94 173.104 1266.07 173.104ZM1256.83 195.072L1260.51 185.903C1260.61 185.917 1260.69 185.96 1260.79 185.96H1282.36L1279.01 195.072H1256.83Z" fill="#6E4944"/>
</g>
<g id="mirae_hall_4f_stairs_right_main">
<path d="M992 829C992 824.582 995.582 821 1000 821H1095C1099.42 821 1103 824.582 1103 829V970C1103 974.418 1099.42 978 1095 978H1000C995.582 978 992 974.418 992 970V829Z" fill="#D9FFE6"/>
<path d="M1095 975V978H1000L1000 975H1095ZM1100 970V829C1100 826.239 1097.76 824 1095 824H1000C997.239 824 995 826.239 995 829V970C995 972.761 997.239 975 1000 975L1000 978C995.582 978 992 974.418 992 970V829C992 824.582 995.582 821 1000 821H1095C1099.42 821 1103 824.582 1103 829V970C1103 974.418 1099.42 978 1095 978V975C1097.76 975 1100 972.761 1100 970Z" fill="#2E2F33" fill-opacity="0.88"/>
<path d="M1070.94 872.634C1069.89 872.247 1068.73 872.787 1068.34 873.836L1064.58 884.056H1043.28L1046.81 875.29C1047.22 874.252 1046.72 873.071 1045.68 872.654C1044.64 872.237 1043.46 872.743 1043.05 873.778L1023.43 922.581C1023.02 923.619 1023.52 924.8 1024.56 925.217C1024.8 925.316 1025.06 925.364 1025.31 925.364C1026.11 925.364 1026.87 924.884 1027.19 924.093L1031.22 914.071C1031.31 914.083 1031.38 914.121 1031.47 914.121H1053.52L1050.39 922.64C1050 923.688 1050.54 924.854 1051.59 925.238C1051.82 925.324 1052.06 925.364 1052.29 925.364C1053.11 925.364 1053.89 924.855 1054.19 924.036L1072.14 875.233C1072.53 874.184 1071.99 873.018 1070.94 872.634ZM1042.07 888.104H1063.09L1059.85 896.91H1038.11L1041.69 888.026C1041.82 888.051 1041.94 888.104 1042.07 888.104ZM1032.83 910.072L1036.51 900.903C1036.61 900.917 1036.69 900.961 1036.79 900.961H1058.36L1055.01 910.072H1032.83Z" fill="#6E4944"/>
</g>
<g id="mirae_hall_4f_stairs">
<path d="M2428 717C2428 712.582 2431.58 709 2436 709H2506C2510.42 709 2514 712.582 2514 717V878C2514 882.418 2510.42 886 2506 886H2436C2431.58 886 2428 882.418 2428 878V717Z" fill="#D9FFE6"/>
<path d="M2506 883V886H2436L2436 883H2506ZM2511 878V717C2511 714.239 2508.76 712 2506 712H2436C2433.24 712 2431 714.239 2431 717V878C2431 880.761 2433.24 883 2436 883L2436 886L2435.59 885.989C2431.36 885.775 2428 882.28 2428 878V717C2428 712.582 2431.58 709 2436 709H2506C2510.42 709 2514 712.582 2514 717V878C2514 882.418 2510.42 886 2506 886V883C2508.76 883 2511 880.761 2511 878Z" fill="#2E2F33" fill-opacity="0.88"/>
<path d="M2494.94 770.634C2493.89 770.247 2492.73 770.787 2492.34 771.836L2488.58 782.055H2467.28L2470.81 773.289C2471.22 772.251 2470.72 771.071 2469.68 770.654C2468.64 770.237 2467.46 770.743 2467.05 771.778L2447.43 820.581C2447.02 821.619 2447.52 822.8 2448.56 823.217C2448.8 823.316 2449.06 823.364 2449.31 823.364C2450.11 823.364 2450.87 822.884 2451.19 822.093L2455.22 812.071C2455.31 812.083 2455.38 812.121 2455.47 812.121H2477.52L2474.39 820.64C2474 821.688 2474.54 822.854 2475.59 823.238C2475.82 823.324 2476.06 823.364 2476.29 823.364C2477.11 823.364 2477.89 822.855 2478.19 822.036L2496.14 773.232C2496.53 772.184 2495.99 771.018 2494.94 770.634ZM2466.07 786.104H2487.09L2483.85 794.91H2462.11L2465.69 786.026C2465.82 786.051 2465.94 786.104 2466.07 786.104ZM2456.83 808.072L2460.51 798.903C2460.61 798.917 2460.69 798.961 2460.79 798.961H2482.36L2479.01 808.072H2456.83Z" fill="#6E4944"/>
</g>
<g id="mirae_hall_4f_stairs_left">
<path d="M6 299C6 294.582 9.58172 291 14 291H93C97.4183 291 101 294.582 101 299V424C101 428.418 97.4183 432 93 432H14C9.58172 432 6 428.418 6 424V299Z" fill="#D9FFE6"/>
<path d="M93 429V432H14L14 429H93ZM98 424V299C98 296.239 95.7614 294 93 294H14C11.2386 294 9 296.239 9 299V424C9 426.761 11.2386 429 14 429L14 432L13.5879 431.989C9.36114 431.775 6 428.28 6 424V299C6 294.582 9.58172 291 14 291H93C97.4183 291 101 294.582 101 299V424C101 428.418 97.4183 432 93 432V429C95.7614 429 98 426.761 98 424Z" fill="#2E2F33" fill-opacity="0.88"/>
<path d="M76.94 334.634C75.8915 334.247 74.7275 334.787 74.3405 335.836L70.58 346.056H49.2815L52.805 337.29C53.222 336.252 52.7195 335.071 51.6815 334.654C50.6435 334.237 49.4645 334.743 49.0475 335.778L29.432 384.581C29.015 385.619 29.5175 386.8 30.5555 387.217C30.803 387.316 31.058 387.364 31.31 387.364C32.1125 387.364 32.873 386.884 33.1895 386.093L37.2185 376.071C37.3055 376.083 37.382 376.121 37.472 376.121H59.519L56.3855 384.64C56 385.688 56.537 386.854 57.587 387.238C57.818 387.324 58.055 387.364 58.286 387.364C59.1095 387.364 59.885 386.855 60.1865 386.036L78.1415 337.233C78.527 336.184 77.99 335.018 76.94 334.634ZM48.074 350.104H69.089L65.849 358.91H44.114L47.6855 350.026C47.816 350.052 47.936 350.104 48.074 350.104ZM38.825 372.072L42.5105 362.903C42.6065 362.917 42.6935 362.961 42.794 362.961H64.361L61.0085 372.072H38.825Z" fill="#6E4944"/>
</g>
<g id="mirae_hall_4f_elevator_left">
<path d="M1204 75C1204 70.5817 1207.58 67 1212 67H1262C1266.42 67 1270 70.5817 1270 75V125C1270 129.418 1266.42 133 1262 133H1212C1207.58 133 1204 129.418 1204 125V75Z" fill="#F2F2F2"/>
<path d="M1262 130V133H1212V130H1262ZM1267 125V75C1267 72.2386 1264.76 70 1262 70H1212C1209.24 70 1207 72.2386 1207 75V125C1207 127.761 1209.24 130 1212 130V133C1207.58 133 1204 129.418 1204 125V75C1204 70.5817 1207.58 67 1212 67H1262C1266.42 67 1270 70.5817 1270 75V125C1270 129.418 1266.42 133 1262 133V130C1264.76 130 1267 127.761 1267 125Z" fill="#2E2F33" fill-opacity="0.88"/>
<path d="M1247.62 79.375H1226.38C1220.85 79.375 1216.38 83.8525 1216.38 89.375V110.625C1216.38 116.147 1220.85 120.625 1226.38 120.625H1247.62C1253.15 120.625 1257.62 116.147 1257.62 110.625V89.375C1257.62 83.8525 1253.15 79.375 1247.62 79.375ZM1238.02 87.4338H1239.17C1239.29 87.4338 1239.38 87.3412 1239.38 87.2262V84.675C1239.38 84.5775 1239.46 84.4987 1239.56 84.4987H1241.45C1241.55 84.4987 1241.62 84.5775 1241.62 84.675V87.2262C1241.62 87.3412 1241.72 87.4338 1241.83 87.4338H1242.99C1243.15 87.4338 1243.24 87.6338 1243.12 87.7513L1240.76 90.11C1240.62 90.2513 1240.39 90.2513 1240.25 90.11L1237.89 87.7513C1237.77 87.6338 1237.85 87.4338 1238.02 87.4338ZM1230.33 86.9637L1232.69 84.605C1232.83 84.4637 1233.06 84.4637 1233.2 84.605L1235.56 86.9637C1235.67 87.0812 1235.59 87.2812 1235.42 87.2812H1234.27C1234.16 87.2812 1234.06 87.3738 1234.06 87.4888V90.04C1234.06 90.1375 1233.98 90.2163 1233.89 90.2163H1232C1231.9 90.2163 1231.82 90.1375 1231.82 90.04V87.4888C1231.82 87.3738 1231.73 87.2812 1231.61 87.2812H1230.46C1230.29 87.2812 1230.21 87.0812 1230.33 86.9637ZM1252.29 109.34C1252.29 112.355 1249.84 114.808 1246.82 114.808H1227.18C1224.16 114.808 1221.71 112.355 1221.71 109.34V97.54C1221.71 94.525 1224.16 92.0725 1227.18 92.0725H1246.82C1249.84 92.0725 1252.29 94.525 1252.29 97.54V109.34Z" fill="#4592FB"/>
<path d="M1246.82 93.04H1227.18C1224.69 93.04 1222.68 95.0588 1222.68 97.54V109.34C1222.68 111.821 1224.69 113.841 1227.18 113.841H1246.82C1249.3 113.841 1251.32 111.822 1251.32 109.34V97.54C1251.32 95.0588 1249.3 93.04 1246.82 93.04ZM1244.61 95.925C1245.24 95.925 1245.76 96.44 1245.76 97.075C1245.76 97.71 1245.24 98.225 1244.61 98.225C1243.98 98.225 1243.46 97.71 1243.46 97.075C1243.46 96.44 1243.98 95.925 1244.61 95.925ZM1236.87 95.925C1237.5 95.925 1238.02 96.44 1238.02 97.075C1238.02 97.71 1237.5 98.225 1236.87 98.225C1236.23 98.225 1235.72 97.71 1235.72 97.075C1235.72 96.44 1236.23 95.925 1236.87 95.925ZM1229.12 95.925C1229.76 95.925 1230.27 96.44 1230.27 97.075C1230.27 97.71 1229.76 98.225 1229.12 98.225C1228.49 98.225 1227.97 97.71 1227.97 97.075C1227.97 96.44 1228.49 95.925 1229.12 95.925ZM1232.45 104.081C1232.45 104.441 1232.16 104.734 1231.8 104.734C1231.44 104.734 1231.15 104.441 1231.15 104.081V100.663H1230.81V110.084C1230.81 110.477 1230.49 110.796 1230.1 110.796C1229.7 110.796 1229.38 110.477 1229.38 110.084V104.665H1228.86V110.084C1228.86 110.477 1228.54 110.796 1228.15 110.796C1227.75 110.796 1227.43 110.477 1227.43 110.084V100.663H1227V104.081C1227 104.441 1226.7 104.734 1226.34 104.734C1225.98 104.734 1225.69 104.441 1225.69 104.081V100.051C1225.69 99.33 1226.27 98.7463 1227 98.7463H1231.15C1231.87 98.7463 1232.45 99.33 1232.45 100.051V104.081H1232.45ZM1240.2 104.081C1240.2 104.441 1239.91 104.734 1239.55 104.734C1239.19 104.734 1238.89 104.441 1238.89 104.081V100.663H1238.55V110.084C1238.55 110.477 1238.23 110.796 1237.84 110.796C1237.45 110.796 1237.13 110.477 1237.13 110.084V104.665H1236.6V110.084C1236.6 110.477 1236.28 110.796 1235.89 110.796C1235.5 110.796 1235.18 110.477 1235.18 110.084V100.663H1234.74V104.081C1234.74 104.441 1234.45 104.734 1234.09 104.734C1233.73 104.734 1233.44 104.441 1233.44 104.081V100.051C1233.44 99.33 1234.02 98.7463 1234.74 98.7463H1238.89C1239.61 98.7463 1240.2 99.33 1240.2 100.051L1240.2 104.081ZM1247.94 104.081C1247.94 104.441 1247.65 104.734 1247.29 104.734C1246.93 104.734 1246.64 104.441 1246.64 104.081V100.663H1246.3V110.084C1246.3 110.477 1245.98 110.796 1245.58 110.796C1245.19 110.796 1244.87 110.477 1244.87 110.084V104.665H1244.35V110.084C1244.35 110.477 1244.03 110.796 1243.63 110.796C1243.24 110.796 1242.92 110.477 1242.92 110.084V100.663H1242.48V104.081C1242.48 104.441 1242.19 104.734 1241.83 104.734C1241.47 104.734 1241.18 104.441 1241.18 104.081V100.051C1241.18 99.33 1241.76 98.7463 1242.48 98.7463H1246.64C1247.36 98.7463 1247.94 99.33 1247.94 100.051V104.081H1247.94Z" fill="#4592FB"/>
<path d="M1236.87 98.225C1237.5 98.225 1238.02 97.71 1238.02 97.075C1238.02 96.44 1237.5 95.925 1236.87 95.925C1236.23 95.925 1235.72 96.44 1235.72 97.075C1235.72 97.71 1236.23 98.225 1236.87 98.225Z" fill="white"/>
<path d="M1229.12 98.225C1229.76 98.225 1230.27 97.71 1230.27 97.075C1230.27 96.44 1229.76 95.925 1229.12 95.925C1228.49 95.925 1227.97 96.44 1227.97 97.075C1227.97 97.71 1228.49 98.225 1229.12 98.225Z" fill="white"/>
<path d="M1244.61 98.225C1245.24 98.225 1245.76 97.71 1245.76 97.075C1245.76 96.44 1245.24 95.925 1244.61 95.925C1243.98 95.925 1243.46 96.44 1243.46 97.075C1243.46 97.71 1243.98 98.225 1244.61 98.225Z" fill="white"/>
<path d="M1246.83 92.075H1227.18C1224.16 92.075 1221.71 94.525 1221.71 97.5375V109.337C1221.71 112.35 1224.16 114.812 1227.18 114.812H1246.83C1249.84 114.812 1252.29 112.35 1252.29 109.337V97.5375C1252.29 94.525 1249.84 92.075 1246.83 92.075ZM1251.33 109.337C1251.33 111.825 1249.3 113.838 1246.83 113.838H1227.18C1224.7 113.838 1222.67 111.825 1222.67 109.337V97.5375C1222.67 95.0625 1224.7 93.0375 1227.18 93.0375H1246.83C1249.3 93.0375 1251.33 95.0625 1251.33 97.5375V109.337Z" fill="white"/>
<path d="M1247.94 100.05V104.075C1247.94 104.438 1247.65 104.737 1247.29 104.737C1246.92 104.737 1246.64 104.438 1246.64 104.075V100.663L1246.3 100.662V110.087C1246.3 110.475 1245.98 110.8 1245.59 110.8C1245.19 110.8 1244.88 110.475 1244.88 110.087V104.662H1244.35V110.087C1244.35 110.475 1244.02 110.8 1243.64 110.8C1243.24 110.8 1242.92 110.475 1242.92 110.087V100.662H1242.49V104.075C1242.49 104.438 1242.19 104.737 1241.84 104.737C1241.48 104.737 1241.17 104.438 1241.17 104.075V100.05C1241.17 99.325 1241.76 98.75 1242.49 98.75H1246.64C1247.36 98.75 1247.94 99.325 1247.94 100.05Z" fill="white"/>
<path d="M1232.45 100.05V104.075C1232.45 104.438 1232.16 104.737 1231.8 104.737C1231.44 104.737 1231.15 104.438 1231.15 104.075V100.663L1230.81 100.662V110.087C1230.81 110.475 1230.49 110.8 1230.1 110.8C1229.7 110.8 1229.39 110.475 1229.39 110.087V104.662H1228.86V110.087C1228.86 110.475 1228.54 110.8 1228.15 110.8C1227.75 110.8 1227.44 110.475 1227.44 110.087V100.662H1227V104.075C1227 104.438 1226.7 104.737 1226.35 104.737C1225.99 104.737 1225.69 104.438 1225.69 104.075V100.05C1225.69 99.325 1226.27 98.75 1227 98.75H1231.15C1231.88 98.75 1232.45 99.325 1232.45 100.05Z" fill="white"/>
<path d="M1240.2 100.05V104.075C1240.2 104.438 1239.91 104.737 1239.55 104.737C1239.19 104.737 1238.9 104.438 1238.9 104.075V100.662H1238.55V110.087C1238.55 110.475 1238.24 110.8 1237.84 110.8C1237.45 110.8 1237.12 110.475 1237.12 110.087V104.662H1236.6V110.087C1236.6 110.475 1236.29 110.8 1235.89 110.8C1235.5 110.8 1235.17 110.475 1235.17 110.087V100.662H1234.74V104.075C1234.74 104.438 1234.45 104.737 1234.09 104.737C1233.73 104.737 1233.44 104.438 1233.44 104.075V100.05C1233.44 99.325 1234.02 98.75 1234.74 98.75H1238.9C1239.61 98.75 1240.2 99.325 1240.2 100.05Z" fill="white"/>
<path d="M1230.46 87.2815H1231.61C1231.73 87.2815 1231.82 87.374 1231.82 87.489V90.0402C1231.82 90.1377 1231.9 90.2165 1232 90.2165H1233.89C1233.99 90.2165 1234.06 90.1377 1234.06 90.0402V87.489C1234.06 87.374 1234.16 87.2815 1234.27 87.2815H1235.42C1235.59 87.2815 1235.67 87.0802 1235.56 86.964L1233.2 84.6052C1233.06 84.464 1232.83 84.464 1232.69 84.6052L1230.33 86.964C1230.21 87.0815 1230.29 87.2815 1230.46 87.2815Z" fill="white"/>
<path d="M1240.25 90.11C1240.39 90.2513 1240.62 90.2513 1240.76 90.11L1243.11 87.7513C1243.23 87.6338 1243.15 87.4338 1242.98 87.4338H1241.83C1241.71 87.4338 1241.62 87.3412 1241.62 87.2262V84.675C1241.62 84.5775 1241.54 84.4988 1241.45 84.4988H1239.56C1239.46 84.4988 1239.38 84.5775 1239.38 84.675V87.2262C1239.38 87.3412 1239.29 87.4338 1239.17 87.4338H1238.02C1237.85 87.4338 1237.77 87.6338 1237.89 87.7513L1240.25 90.11Z" fill="white"/>
</g>
<g id="mirae_hall_4f_elevator_right">
<path d="M1031 983C1031 978.582 1034.58 975 1039 975H1095C1099.42 975 1103 978.582 1103 983V1047C1103 1051.42 1099.42 1055 1095 1055H1039C1034.58 1055 1031 1051.42 1031 1047V983Z" fill="#F2F2F2"/>
<path d="M1095 1052V1055H1039L1039 1052H1095ZM1100 1047V983C1100 980.239 1097.76 978 1095 978H1039C1036.24 978 1034 980.239 1034 983V1047C1034 1049.76 1036.24 1052 1039 1052L1039 1055L1038.59 1054.99C1034.36 1054.77 1031 1051.28 1031 1047V983C1031 978.582 1034.58 975 1039 975H1095C1099.42 975 1103 978.582 1103 983V1047C1103 1051.42 1099.42 1055 1095 1055V1052C1097.76 1052 1100 1049.76 1100 1047Z" fill="#2E2F33" fill-opacity="0.88"/>
<path d="M1077.62 994.375H1056.38C1050.85 994.375 1046.38 998.853 1046.38 1004.38V1025.62C1046.38 1031.15 1050.85 1035.62 1056.38 1035.62H1077.62C1083.15 1035.62 1087.62 1031.15 1087.62 1025.62V1004.38C1087.62 998.853 1083.15 994.375 1077.62 994.375ZM1068.02 1002.43H1069.17C1069.29 1002.43 1069.38 1002.34 1069.38 1002.23V999.675C1069.38 999.577 1069.46 999.499 1069.56 999.499H1071.45C1071.55 999.499 1071.62 999.577 1071.62 999.675V1002.23C1071.62 1002.34 1071.72 1002.43 1071.83 1002.43H1072.99C1073.15 1002.43 1073.24 1002.63 1073.12 1002.75L1070.76 1005.11C1070.62 1005.25 1070.39 1005.25 1070.25 1005.11L1067.89 1002.75C1067.77 1002.63 1067.85 1002.43 1068.02 1002.43ZM1060.33 1001.96L1062.69 999.605C1062.83 999.464 1063.06 999.464 1063.2 999.605L1065.56 1001.96C1065.67 1002.08 1065.59 1002.28 1065.42 1002.28H1064.27C1064.15 1002.28 1064.06 1002.37 1064.06 1002.49V1005.04C1064.06 1005.14 1063.98 1005.22 1063.89 1005.22H1062C1061.9 1005.22 1061.82 1005.14 1061.82 1005.04V1002.49C1061.82 1002.37 1061.73 1002.28 1061.61 1002.28H1060.46C1060.29 1002.28 1060.21 1002.08 1060.33 1001.96ZM1082.29 1024.34C1082.29 1027.35 1079.84 1029.81 1076.82 1029.81H1057.18C1054.16 1029.81 1051.71 1027.35 1051.71 1024.34V1012.54C1051.71 1009.53 1054.16 1007.07 1057.18 1007.07H1076.82C1079.84 1007.07 1082.29 1009.53 1082.29 1012.54V1024.34Z" fill="#4592FB"/>
<path d="M1076.82 1008.04H1057.18C1054.69 1008.04 1052.68 1010.06 1052.68 1012.54V1024.34C1052.68 1026.82 1054.69 1028.84 1057.18 1028.84H1076.82C1079.3 1028.84 1081.32 1026.82 1081.32 1024.34V1012.54C1081.32 1010.06 1079.3 1008.04 1076.82 1008.04ZM1074.61 1010.92C1075.24 1010.92 1075.76 1011.44 1075.76 1012.08C1075.76 1012.71 1075.24 1013.22 1074.61 1013.22C1073.98 1013.22 1073.46 1012.71 1073.46 1012.08C1073.46 1011.44 1073.98 1010.92 1074.61 1010.92ZM1066.87 1010.92C1067.5 1010.92 1068.02 1011.44 1068.02 1012.08C1068.02 1012.71 1067.5 1013.22 1066.87 1013.22C1066.23 1013.22 1065.72 1012.71 1065.72 1012.08C1065.72 1011.44 1066.23 1010.92 1066.87 1010.92ZM1059.12 1010.92C1059.76 1010.92 1060.27 1011.44 1060.27 1012.08C1060.27 1012.71 1059.76 1013.22 1059.12 1013.22C1058.49 1013.22 1057.97 1012.71 1057.97 1012.08C1057.97 1011.44 1058.49 1010.92 1059.12 1010.92ZM1062.45 1019.08C1062.45 1019.44 1062.16 1019.73 1061.8 1019.73C1061.44 1019.73 1061.15 1019.44 1061.15 1019.08V1015.66H1060.81V1025.08C1060.81 1025.48 1060.49 1025.8 1060.1 1025.8C1059.7 1025.8 1059.38 1025.48 1059.38 1025.08V1019.67H1058.86V1025.08C1058.86 1025.48 1058.54 1025.8 1058.15 1025.8C1057.75 1025.8 1057.43 1025.48 1057.43 1025.08V1015.66H1057V1019.08C1057 1019.44 1056.7 1019.73 1056.34 1019.73C1055.98 1019.73 1055.69 1019.44 1055.69 1019.08V1015.05C1055.69 1014.33 1056.27 1013.75 1057 1013.75H1061.15C1061.87 1013.75 1062.45 1014.33 1062.45 1015.05V1019.08H1062.45ZM1070.2 1019.08C1070.2 1019.44 1069.91 1019.73 1069.55 1019.73C1069.19 1019.73 1068.89 1019.44 1068.89 1019.08V1015.66H1068.55V1025.08C1068.55 1025.48 1068.23 1025.8 1067.84 1025.8C1067.45 1025.8 1067.13 1025.48 1067.13 1025.08V1019.67H1066.6V1025.08C1066.6 1025.48 1066.28 1025.8 1065.89 1025.8C1065.5 1025.8 1065.18 1025.48 1065.18 1025.08V1015.66H1064.74V1019.08C1064.74 1019.44 1064.45 1019.73 1064.09 1019.73C1063.73 1019.73 1063.44 1019.44 1063.44 1019.08V1015.05C1063.44 1014.33 1064.02 1013.75 1064.74 1013.75H1068.89C1069.61 1013.75 1070.2 1014.33 1070.2 1015.05L1070.2 1019.08ZM1077.94 1019.08C1077.94 1019.44 1077.65 1019.73 1077.29 1019.73C1076.93 1019.73 1076.64 1019.44 1076.64 1019.08V1015.66H1076.3V1025.08C1076.3 1025.48 1075.98 1025.8 1075.58 1025.8C1075.19 1025.8 1074.87 1025.48 1074.87 1025.08V1019.67H1074.35V1025.08C1074.35 1025.48 1074.03 1025.8 1073.63 1025.8C1073.24 1025.8 1072.92 1025.48 1072.92 1025.08V1015.66H1072.48V1019.08C1072.48 1019.44 1072.19 1019.73 1071.83 1019.73C1071.47 1019.73 1071.18 1019.44 1071.18 1019.08V1015.05C1071.18 1014.33 1071.76 1013.75 1072.48 1013.75H1076.64C1077.36 1013.75 1077.94 1014.33 1077.94 1015.05V1019.08H1077.94Z" fill="#4592FB"/>
<path d="M1066.87 1013.22C1067.5 1013.22 1068.02 1012.71 1068.02 1012.08C1068.02 1011.44 1067.5 1010.92 1066.87 1010.92C1066.23 1010.92 1065.72 1011.44 1065.72 1012.08C1065.72 1012.71 1066.23 1013.22 1066.87 1013.22Z" fill="white"/>
<path d="M1059.12 1013.22C1059.76 1013.22 1060.27 1012.71 1060.27 1012.08C1060.27 1011.44 1059.76 1010.92 1059.12 1010.92C1058.49 1010.92 1057.97 1011.44 1057.97 1012.08C1057.97 1012.71 1058.49 1013.22 1059.12 1013.22Z" fill="white"/>
<path d="M1074.61 1013.22C1075.24 1013.22 1075.76 1012.71 1075.76 1012.08C1075.76 1011.44 1075.24 1010.92 1074.61 1010.92C1073.98 1010.92 1073.46 1011.44 1073.46 1012.08C1073.46 1012.71 1073.98 1013.22 1074.61 1013.22Z" fill="white"/>
<path d="M1076.83 1007.08H1057.18C1054.16 1007.08 1051.71 1009.53 1051.71 1012.54V1024.34C1051.71 1027.35 1054.16 1029.81 1057.18 1029.81H1076.83C1079.84 1029.81 1082.29 1027.35 1082.29 1024.34V1012.54C1082.29 1009.53 1079.84 1007.08 1076.83 1007.08ZM1081.33 1024.34C1081.33 1026.82 1079.3 1028.84 1076.83 1028.84H1057.18C1054.7 1028.84 1052.67 1026.82 1052.67 1024.34V1012.54C1052.67 1010.06 1054.7 1008.04 1057.18 1008.04H1076.83C1079.3 1008.04 1081.33 1010.06 1081.33 1012.54V1024.34Z" fill="white"/>
<path d="M1077.94 1015.05V1019.08C1077.94 1019.44 1077.65 1019.74 1077.29 1019.74C1076.92 1019.74 1076.64 1019.44 1076.64 1019.08V1015.66L1076.3 1015.66V1025.09C1076.3 1025.47 1075.98 1025.8 1075.59 1025.8C1075.19 1025.8 1074.88 1025.47 1074.88 1025.09V1019.66H1074.35V1025.09C1074.35 1025.47 1074.02 1025.8 1073.64 1025.8C1073.24 1025.8 1072.92 1025.47 1072.92 1025.09V1015.66H1072.49V1019.08C1072.49 1019.44 1072.19 1019.74 1071.84 1019.74C1071.48 1019.74 1071.17 1019.44 1071.17 1019.08V1015.05C1071.17 1014.33 1071.76 1013.75 1072.49 1013.75H1076.64C1077.36 1013.75 1077.94 1014.33 1077.94 1015.05Z" fill="white"/>
<path d="M1062.45 1015.05V1019.08C1062.45 1019.44 1062.16 1019.74 1061.8 1019.74C1061.44 1019.74 1061.15 1019.44 1061.15 1019.08V1015.66L1060.81 1015.66V1025.09C1060.81 1025.47 1060.49 1025.8 1060.1 1025.8C1059.7 1025.8 1059.39 1025.47 1059.39 1025.09V1019.66H1058.86V1025.09C1058.86 1025.47 1058.54 1025.8 1058.15 1025.8C1057.75 1025.8 1057.44 1025.47 1057.44 1025.09V1015.66H1057V1019.08C1057 1019.44 1056.7 1019.74 1056.35 1019.74C1055.99 1019.74 1055.69 1019.44 1055.69 1019.08V1015.05C1055.69 1014.33 1056.27 1013.75 1057 1013.75H1061.15C1061.88 1013.75 1062.45 1014.33 1062.45 1015.05Z" fill="white"/>
<path d="M1070.2 1015.05V1019.08C1070.2 1019.44 1069.91 1019.74 1069.55 1019.74C1069.19 1019.74 1068.9 1019.44 1068.9 1019.08V1015.66H1068.55V1025.09C1068.55 1025.47 1068.24 1025.8 1067.84 1025.8C1067.45 1025.8 1067.12 1025.47 1067.12 1025.09V1019.66H1066.6V1025.09C1066.6 1025.47 1066.29 1025.8 1065.89 1025.8C1065.5 1025.8 1065.17 1025.47 1065.17 1025.09V1015.66H1064.74V1019.08C1064.74 1019.44 1064.45 1019.74 1064.09 1019.74C1063.72 1019.74 1063.44 1019.44 1063.44 1019.08V1015.05C1063.44 1014.33 1064.02 1013.75 1064.74 1013.75H1068.9C1069.61 1013.75 1070.2 1014.33 1070.2 1015.05Z" fill="white"/>
<path d="M1060.46 1002.28H1061.61C1061.73 1002.28 1061.82 1002.37 1061.82 1002.49V1005.04C1061.82 1005.14 1061.9 1005.22 1062 1005.22H1063.89C1063.99 1005.22 1064.06 1005.14 1064.06 1005.04V1002.49C1064.06 1002.37 1064.16 1002.28 1064.27 1002.28H1065.42C1065.59 1002.28 1065.67 1002.08 1065.56 1001.96L1063.2 999.605C1063.06 999.464 1062.83 999.464 1062.69 999.605L1060.33 1001.96C1060.21 1002.08 1060.29 1002.28 1060.46 1002.28Z" fill="white"/>
<path d="M1070.25 1005.11C1070.39 1005.25 1070.62 1005.25 1070.76 1005.11L1073.11 1002.75C1073.23 1002.63 1073.15 1002.43 1072.98 1002.43H1071.83C1071.71 1002.43 1071.62 1002.34 1071.62 1002.23V999.675C1071.62 999.577 1071.54 999.499 1071.45 999.499H1069.56C1069.46 999.499 1069.38 999.577 1069.38 999.675V1002.23C1069.38 1002.34 1069.29 1002.43 1069.17 1002.43H1068.02C1067.85 1002.43 1067.77 1002.63 1067.89 1002.75L1070.25 1005.11Z" fill="white"/>
</g>
</g>
</svg>
