<svg width="2520" height="1145" viewBox="0 0 2520 1145" fill="none" xmlns="http://www.w3.org/2000/svg">
<g id="mirae_hall_floor_5">
<g id="Vector">
<path d="M1098 434.5V818H1340.5V634V294.5H1098V434.5Z" fill="#474747"/>
<path d="M1098 818H989.5V1058.5H1882V946.5H2012.5V1141.5H2299.5V889H2517V706H2434V634H1340.5V818H1098Z" fill="#999999"/>
<path d="M3 288V434.5H1098V294.5H1340.5V3H95.5V288H3Z" fill="#999999"/>
<path d="M1343.5 0V631H2437V703H2520V892H2302.5V1144.5H2009.5V949.5H1885V1061.5H986.5V815H1095V437.5H0V285H92.5V0H1343.5ZM98.5 291H6V431.5H1095V291.5H1337.5V6H98.5V291ZM2015.5 1138.5H2296.5V886H2514V709H2431V637H1343.5V821H992.5V1055.5H1879V943.5H2015.5V1138.5ZM1101 815H1337.5V297.5H1101V815Z" fill="black"/>
</g>
<g id="Vector_2">
<path d="M2015 887C2015 882.582 2018.58 879 2023 879H2289C2293.42 879 2297 882.582 2297 887V1130C2297 1134.42 2293.42 1138 2289 1138H2023C2018.58 1138 2015 1134.42 2015 1130V887Z" fill="#F7FBFF"/>
<path d="M2289 1135V1138H2023L2023 1135H2289ZM2294 1130V887C2294 884.239 2291.76 882 2289 882H2023C2020.24 882 2018 884.239 2018 887V1130C2018 1132.76 2020.24 1135 2023 1135L2023 1138L2022.59 1137.99C2018.36 1137.77 2015 1134.28 2015 1130V887C2015 882.72 2018.36 879.225 2022.59 879.011L2023 879H2289C2293.42 879 2297 882.582 2297 887V1130C2297 1134.42 2293.42 1138 2289 1138V1135C2291.76 1135 2294 1132.76 2294 1130Z" fill="#2E2F33" fill-opacity="0.88"/>
</g>
<g id="Vector_3">
<path d="M1267 75C1267 70.5817 1270.58 67 1275 67H1330C1334.42 67 1338 70.5817 1338 75V125C1338 129.418 1334.42 133 1330 133H1275C1270.58 133 1267 129.418 1267 125V75Z" fill="#474747"/>
<path d="M1330 130V133H1275L1275 130H1330ZM1335 125V75C1335 72.2386 1332.76 70 1330 70H1275C1272.24 70 1270 72.2386 1270 75V125C1270 127.761 1272.24 130 1275 130L1275 133C1270.58 133 1267 129.418 1267 125V75C1267 70.5817 1270.58 67 1275 67H1330L1330.41 67.0107C1334.64 67.2252 1338 70.7199 1338 75V125C1338 129.418 1334.42 133 1330 133V130C1332.76 130 1335 127.761 1335 125Z" fill="#2E2F33" fill-opacity="0.88"/>
</g>
<g id="Vector_4">
<path d="M1204 244C1204 239.582 1207.58 236 1212 236H1330C1334.42 236 1338 239.582 1338 244V271C1338 275.418 1334.42 279 1330 279H1212C1207.58 279 1204 275.418 1204 271V244Z" fill="#474747"/>
<path d="M1330 276V279H1212L1212 276H1330ZM1335 271V244C1335 241.239 1332.76 239 1330 239H1212C1209.24 239 1207 241.239 1207 244V271C1207 273.761 1209.24 276 1212 276L1212 279C1207.58 279 1204 275.418 1204 271V244C1204 239.582 1207.58 236 1212 236H1330C1334.42 236 1338 239.582 1338 244V271C1338 275.418 1334.42 279 1330 279V276C1332.76 276 1335 273.761 1335 271Z" fill="#2E2F33" fill-opacity="0.88"/>
</g>
<g id="Vector_5">
<path d="M992 983C992 978.582 995.582 975 1000 975H1026C1030.42 975 1034 978.582 1034 983V1047C1034 1051.42 1030.42 1055 1026 1055H1000C995.582 1055 992 1051.42 992 1047V983Z" fill="#474747"/>
<path d="M1026 1052V1055H1000L1000 1052H1026ZM1031 1047V983C1031 980.239 1028.76 978 1026 978H1000C997.239 978 995 980.239 995 983V1047C995 1049.76 997.239 1052 1000 1052L1000 1055L999.588 1054.99C995.361 1054.77 992 1051.28 992 1047V983C992 978.582 995.582 975 1000 975H1026C1030.42 975 1034 978.582 1034 983V1047C1034 1051.42 1030.42 1055 1026 1055V1052C1028.76 1052 1031 1049.76 1031 1047Z" fill="#2E2F33" fill-opacity="0.88"/>
</g>
<g id="mirae_hall_5f_toilet_left_boy">
<path d="M902 135C902 130.582 905.582 127 910 127H1096C1100.42 127 1104 130.582 1104 135V235C1104 239.418 1100.42 243 1096 243H910C905.582 243 902 239.418 902 235V135Z" fill="#FED9C4"/>
<path d="M1096 240V243H910L910 240H1096ZM1101 235V135C1101 132.239 1098.76 130 1096 130H910C907.239 130 905 132.239 905 135V235C905 237.761 907.239 240 910 240L910 243L909.588 242.989C905.361 242.775 902 239.28 902 235V135C902 130.582 905.582 127 910 127H1096C1100.42 127 1104 130.582 1104 135V235C1104 239.418 1100.42 243 1096 243V240C1098.76 240 1101 237.761 1101 235Z" fill="#2E2F33" fill-opacity="0.88"/>
<path d="M1015.75 160.25H990.25C983.623 160.25 978.25 165.623 978.25 172.25V197.75C978.25 204.377 983.623 209.75 990.25 209.75H1015.75C1022.38 209.75 1027.75 204.377 1027.75 197.75V172.25C1027.75 165.623 1022.38 160.25 1015.75 160.25Z" fill="#3076D1"/>
<path d="M1005.73 197.889L1011.19 185.342C1012.05 183.378 1010.61 181.181 1008.47 181.181H997.535C995.394 181.181 993.953 183.378 994.81 185.342L1000.28 197.889C1001.31 200.271 1004.69 200.271 1005.73 197.889H1005.73Z" fill="white"/>
<path d="M1003 178.388C1005.23 178.388 1007.03 176.583 1007.03 174.356C1007.03 172.129 1005.23 170.324 1003 170.324C1000.77 170.324 998.968 172.129 998.968 174.356C998.968 176.583 1000.77 178.388 1003 178.388Z" fill="white"/>
</g>
<g id="mirae_hall_5f_toilet_right_boy">
<path d="M1155 976C1155 971.582 1158.58 968 1163 968H1333C1337.42 968 1341 971.582 1341 976V1047C1341 1051.42 1337.42 1055 1333 1055H1163C1158.58 1055 1155 1051.42 1155 1047V976Z" fill="#FED9C4"/>
<path d="M1333 1052V1055H1163L1163 1052H1333ZM1338 1047V976C1338 973.239 1335.76 971 1333 971H1163C1160.24 971 1158 973.239 1158 976V1047C1158 1049.76 1160.24 1052 1163 1052L1163 1055C1158.58 1055 1155 1051.42 1155 1047V976C1155 971.582 1158.58 968 1163 968H1333C1337.42 968 1341 971.582 1341 976V1047C1341 1051.42 1337.42 1055 1333 1055V1052C1335.76 1052 1338 1049.76 1338 1047Z" fill="#2E2F33" fill-opacity="0.88"/>
<path d="M1260.75 986.25H1235.25C1228.62 986.25 1223.25 991.623 1223.25 998.25V1023.75C1223.25 1030.38 1228.62 1035.75 1235.25 1035.75H1260.75C1267.38 1035.75 1272.75 1030.38 1272.75 1023.75V998.25C1272.75 991.623 1267.38 986.25 1260.75 986.25Z" fill="#3076D1"/>
<path d="M1250.73 1023.89L1256.19 1011.34C1257.05 1009.38 1255.61 1007.18 1253.47 1007.18H1242.54C1240.39 1007.18 1238.95 1009.38 1239.81 1011.34L1245.28 1023.89C1246.31 1026.27 1249.69 1026.27 1250.73 1023.89H1250.73Z" fill="white"/>
<path d="M1248 1004.39C1250.23 1004.39 1252.03 1002.58 1252.03 1000.36C1252.03 998.129 1250.23 996.324 1248 996.324C1245.77 996.324 1243.97 998.129 1243.97 1000.36C1243.97 1002.58 1245.77 1004.39 1248 1004.39Z" fill="white"/>
</g>
<g id="mirae_hall_5f_toilet_left_girl">
<path d="M1204 14C1204 9.58172 1207.58 6 1212 6H1330C1334.42 6 1338 9.58172 1338 14V62C1338 66.4183 1334.42 70 1330 70H1212C1207.58 70 1204 66.4183 1204 62V14Z" fill="#FED9C4"/>
<path d="M1330 67V70H1212L1212 67H1330ZM1335 62V14C1335 11.2386 1332.76 9 1330 9H1212C1209.24 9 1207 11.2386 1207 14V62C1207 64.7614 1209.24 67 1212 67L1212 70C1207.58 70 1204 66.4183 1204 62V14C1204 9.58172 1207.58 6 1212 6H1330C1334.42 6 1338 9.58172 1338 14V62C1338 66.4183 1334.42 70 1330 70V67C1332.76 67 1335 64.7614 1335 62Z" fill="#2E2F33" fill-opacity="0.88"/>
<path d="M1281.62 17.375H1260.38C1254.85 17.375 1250.38 21.8522 1250.38 27.375V48.625C1250.38 54.1478 1254.85 58.625 1260.38 58.625H1281.62C1287.15 58.625 1291.62 54.1478 1291.62 48.625V27.375C1291.62 21.8522 1287.15 17.375 1281.62 17.375Z" fill="#E76D6D"/>
<path d="M1268.73 36.3137L1264.17 46.77C1263.46 48.4062 1264.66 50.2375 1266.44 50.2375H1275.55C1277.34 50.2375 1278.54 48.4062 1277.82 46.77L1273.27 36.3137C1272.41 34.3287 1269.59 34.3287 1268.73 36.3137H1268.73Z" fill="white"/>
<path d="M1271 32.4837C1272.86 32.4837 1274.36 30.9794 1274.36 29.1237C1274.36 27.2681 1272.86 25.7638 1271 25.7638C1269.14 25.7638 1267.64 27.2681 1267.64 29.1237C1267.64 30.9794 1269.14 32.4837 1271 32.4837Z" fill="white"/>
</g>
<g id="mirae_hall_5f_toilet_right_girl">
<path d="M1155 887C1155 882.582 1158.58 879 1163 879H1333C1337.42 879 1341 882.582 1341 887V963C1341 967.418 1337.42 971 1333 971H1163C1158.58 971 1155 967.418 1155 963V887Z" fill="#FED9C4"/>
<path d="M1333 968V971H1163L1163 968H1333ZM1338 963V887C1338 884.239 1335.76 882 1333 882H1163C1160.24 882 1158 884.239 1158 887V963C1158 965.761 1160.24 968 1163 968L1163 971C1158.58 971 1155 967.418 1155 963V887C1155 882.582 1158.58 879 1163 879H1333C1337.42 879 1341 882.582 1341 887V963C1341 967.418 1337.42 971 1333 971V968C1335.76 968 1338 965.761 1338 963Z" fill="#2E2F33" fill-opacity="0.88"/>
<path d="M1260.75 900.25H1235.25C1228.62 900.25 1223.25 905.623 1223.25 912.25V937.75C1223.25 944.377 1228.62 949.75 1235.25 949.75H1260.75C1267.38 949.75 1272.75 944.377 1272.75 937.75V912.25C1272.75 905.623 1267.38 900.25 1260.75 900.25Z" fill="#E76D6D"/>
<path d="M1245.27 922.976L1239.81 935.524C1238.95 937.488 1240.39 939.685 1242.53 939.685H1253.46C1255.61 939.685 1257.05 937.488 1256.19 935.524L1250.72 922.976C1249.69 920.594 1246.31 920.594 1245.27 922.976H1245.27Z" fill="white"/>
<path d="M1248 918.381C1250.23 918.381 1252.03 916.575 1252.03 914.348C1252.03 912.122 1250.23 910.317 1248 910.317C1245.77 910.317 1243.97 912.122 1243.97 914.348C1243.97 916.575 1245.77 918.381 1248 918.381Z" fill="white"/>
</g>
<g id="mirae_hall_5f_stairs_left_main">
<path d="M1204 138C1204 133.582 1207.58 130 1212 130H1330C1334.42 130 1338 133.582 1338 138V231C1338 235.418 1334.42 239 1330 239H1212C1207.58 239 1204 235.418 1204 231V138Z" fill="#D9FFE6"/>
<path d="M1330 236V239H1212L1212 236H1330ZM1335 231V138C1335 135.239 1332.76 133 1330 133H1212C1209.24 133 1207 135.239 1207 138V231C1207 233.761 1209.24 236 1212 236L1212 239C1207.58 239 1204 235.418 1204 231V138C1204 133.582 1207.58 130 1212 130H1330C1334.42 130 1338 133.582 1338 138V231C1338 235.418 1334.42 239 1330 239V236C1332.76 236 1335 233.761 1335 231Z" fill="#2E2F33" fill-opacity="0.88"/>
<path d="M1294.94 157.635C1293.89 157.248 1292.73 157.788 1292.34 158.836L1288.58 169.056H1267.28L1270.81 160.289C1271.22 159.251 1270.72 158.071 1269.68 157.654C1268.64 157.237 1267.46 157.743 1267.05 158.778L1247.43 207.581C1247.01 208.619 1247.52 209.8 1248.56 210.217C1248.8 210.316 1249.06 210.364 1249.31 210.364C1250.11 210.364 1250.87 209.884 1251.19 209.093L1255.22 199.071C1255.31 199.083 1255.38 199.121 1255.47 199.121H1277.52L1274.39 207.64C1274 208.688 1274.54 209.854 1275.59 210.238C1275.82 210.324 1276.06 210.364 1276.29 210.364C1277.11 210.364 1277.89 209.855 1278.19 209.036L1296.14 160.233C1296.53 159.184 1295.99 158.019 1294.94 157.635ZM1266.07 173.104H1287.09L1283.85 181.91H1262.11L1265.69 173.026C1265.82 173.052 1265.94 173.104 1266.07 173.104ZM1256.83 195.072L1260.51 185.903C1260.61 185.917 1260.69 185.96 1260.79 185.96H1282.36L1279.01 195.072H1256.83Z" fill="#6E4944"/>
</g>
<g id="mirae_hall_5f_stairs_right_main">
<path d="M992 829C992 824.582 995.582 821 1000 821H1095C1099.42 821 1103 824.582 1103 829V970C1103 974.418 1099.42 978 1095 978H1000C995.582 978 992 974.418 992 970V829Z" fill="#D9FFE6"/>
<path d="M1095 975V978H1000L1000 975H1095ZM1100 970V829C1100 826.239 1097.76 824 1095 824H1000C997.239 824 995 826.239 995 829V970C995 972.761 997.239 975 1000 975L1000 978C995.582 978 992 974.418 992 970V829C992 824.582 995.582 821 1000 821H1095C1099.42 821 1103 824.582 1103 829V970C1103 974.418 1099.42 978 1095 978V975C1097.76 975 1100 972.761 1100 970Z" fill="#2E2F33" fill-opacity="0.88"/>
<path d="M1070.94 872.634C1069.89 872.247 1068.73 872.787 1068.34 873.836L1064.58 884.056H1043.28L1046.81 875.29C1047.22 874.252 1046.72 873.071 1045.68 872.654C1044.64 872.237 1043.46 872.743 1043.05 873.778L1023.43 922.581C1023.02 923.619 1023.52 924.8 1024.56 925.217C1024.8 925.316 1025.06 925.364 1025.31 925.364C1026.11 925.364 1026.87 924.884 1027.19 924.093L1031.22 914.071C1031.31 914.083 1031.38 914.121 1031.47 914.121H1053.52L1050.39 922.64C1050 923.688 1050.54 924.854 1051.59 925.238C1051.82 925.324 1052.06 925.364 1052.29 925.364C1053.11 925.364 1053.89 924.855 1054.19 924.036L1072.14 875.233C1072.53 874.184 1071.99 873.018 1070.94 872.634ZM1042.07 888.104H1063.09L1059.85 896.91H1038.11L1041.69 888.026C1041.82 888.051 1041.94 888.104 1042.07 888.104ZM1032.83 910.072L1036.51 900.903C1036.61 900.917 1036.69 900.961 1036.79 900.961H1058.36L1055.01 910.072H1032.83Z" fill="#6E4944"/>
</g>
<g id="mirae_hall_5f_stairs">
<path d="M2428 717C2428 712.582 2431.58 709 2436 709H2506C2510.42 709 2514 712.582 2514 717V878C2514 882.418 2510.42 886 2506 886H2436C2431.58 886 2428 882.418 2428 878V717Z" fill="#D9FFE6"/>
<path d="M2506 883V886H2436L2436 883H2506ZM2511 878V717C2511 714.239 2508.76 712 2506 712H2436C2433.24 712 2431 714.239 2431 717V878C2431 880.761 2433.24 883 2436 883L2436 886L2435.59 885.989C2431.36 885.775 2428 882.28 2428 878V717C2428 712.582 2431.58 709 2436 709H2506C2510.42 709 2514 712.582 2514 717V878C2514 882.418 2510.42 886 2506 886V883C2508.76 883 2511 880.761 2511 878Z" fill="#2E2F33" fill-opacity="0.88"/>
<path d="M2494.94 770.634C2493.89 770.247 2492.73 770.787 2492.34 771.836L2488.58 782.055H2467.28L2470.81 773.289C2471.22 772.251 2470.72 771.071 2469.68 770.654C2468.64 770.237 2467.46 770.743 2467.05 771.778L2447.43 820.581C2447.02 821.619 2447.52 822.8 2448.56 823.217C2448.8 823.316 2449.06 823.364 2449.31 823.364C2450.11 823.364 2450.87 822.884 2451.19 822.093L2455.22 812.071C2455.31 812.083 2455.38 812.121 2455.47 812.121H2477.52L2474.39 820.64C2474 821.688 2474.54 822.854 2475.59 823.238C2475.82 823.324 2476.06 823.364 2476.29 823.364C2477.11 823.364 2477.89 822.855 2478.19 822.036L2496.14 773.232C2496.53 772.184 2495.99 771.018 2494.94 770.634ZM2466.07 786.104H2487.09L2483.85 794.91H2462.11L2465.69 786.026C2465.82 786.051 2465.94 786.104 2466.07 786.104ZM2456.83 808.072L2460.51 798.903C2460.61 798.917 2460.69 798.961 2460.79 798.961H2482.36L2479.01 808.072H2456.83Z" fill="#6E4944"/>
</g>
<g id="mirae_hall_5f_elevator_left">
<path d="M1204 75C1204 70.5817 1207.58 67 1212 67H1262C1266.42 67 1270 70.5817 1270 75V125C1270 129.418 1266.42 133 1262 133H1212C1207.58 133 1204 129.418 1204 125V75Z" fill="#F2F2F2"/>
<path d="M1262 130V133H1212V130H1262ZM1267 125V75C1267 72.2386 1264.76 70 1262 70H1212C1209.24 70 1207 72.2386 1207 75V125C1207 127.761 1209.24 130 1212 130V133C1207.58 133 1204 129.418 1204 125V75C1204 70.5817 1207.58 67 1212 67H1262C1266.42 67 1270 70.5817 1270 75V125C1270 129.418 1266.42 133 1262 133V130C1264.76 130 1267 127.761 1267 125Z" fill="#2E2F33" fill-opacity="0.88"/>
<path d="M1247.62 79.375H1226.38C1220.85 79.375 1216.38 83.8525 1216.38 89.375V110.625C1216.38 116.147 1220.85 120.625 1226.38 120.625H1247.62C1253.15 120.625 1257.62 116.147 1257.62 110.625V89.375C1257.62 83.8525 1253.15 79.375 1247.62 79.375ZM1238.02 87.4338H1239.17C1239.29 87.4338 1239.38 87.3412 1239.38 87.2262V84.675C1239.38 84.5775 1239.46 84.4987 1239.56 84.4987H1241.45C1241.55 84.4987 1241.62 84.5775 1241.62 84.675V87.2262C1241.62 87.3412 1241.72 87.4338 1241.83 87.4338H1242.99C1243.15 87.4338 1243.24 87.6338 1243.12 87.7513L1240.76 90.11C1240.62 90.2513 1240.39 90.2513 1240.25 90.11L1237.89 87.7513C1237.77 87.6338 1237.85 87.4338 1238.02 87.4338ZM1230.33 86.9637L1232.69 84.605C1232.83 84.4637 1233.06 84.4637 1233.2 84.605L1235.56 86.9637C1235.67 87.0812 1235.59 87.2812 1235.42 87.2812H1234.27C1234.16 87.2812 1234.06 87.3738 1234.06 87.4888V90.04C1234.06 90.1375 1233.98 90.2163 1233.89 90.2163H1232C1231.9 90.2163 1231.82 90.1375 1231.82 90.04V87.4888C1231.82 87.3738 1231.73 87.2812 1231.61 87.2812H1230.46C1230.29 87.2812 1230.21 87.0812 1230.33 86.9637ZM1252.29 109.34C1252.29 112.355 1249.84 114.808 1246.82 114.808H1227.18C1224.16 114.808 1221.71 112.355 1221.71 109.34V97.54C1221.71 94.525 1224.16 92.0725 1227.18 92.0725H1246.82C1249.84 92.0725 1252.29 94.525 1252.29 97.54V109.34Z" fill="#4592FB"/>
<path d="M1246.82 93.04H1227.18C1224.69 93.04 1222.68 95.0588 1222.68 97.54V109.34C1222.68 111.821 1224.69 113.841 1227.18 113.841H1246.82C1249.3 113.841 1251.32 111.822 1251.32 109.34V97.54C1251.32 95.0588 1249.3 93.04 1246.82 93.04ZM1244.61 95.925C1245.24 95.925 1245.76 96.44 1245.76 97.075C1245.76 97.71 1245.24 98.225 1244.61 98.225C1243.98 98.225 1243.46 97.71 1243.46 97.075C1243.46 96.44 1243.98 95.925 1244.61 95.925ZM1236.87 95.925C1237.5 95.925 1238.02 96.44 1238.02 97.075C1238.02 97.71 1237.5 98.225 1236.87 98.225C1236.23 98.225 1235.72 97.71 1235.72 97.075C1235.72 96.44 1236.23 95.925 1236.87 95.925ZM1229.12 95.925C1229.76 95.925 1230.27 96.44 1230.27 97.075C1230.27 97.71 1229.76 98.225 1229.12 98.225C1228.49 98.225 1227.97 97.71 1227.97 97.075C1227.97 96.44 1228.49 95.925 1229.12 95.925ZM1232.45 104.081C1232.45 104.441 1232.16 104.734 1231.8 104.734C1231.44 104.734 1231.15 104.441 1231.15 104.081V100.663H1230.81V110.084C1230.81 110.477 1230.49 110.796 1230.1 110.796C1229.7 110.796 1229.38 110.477 1229.38 110.084V104.665H1228.86V110.084C1228.86 110.477 1228.54 110.796 1228.15 110.796C1227.75 110.796 1227.43 110.477 1227.43 110.084V100.663H1227V104.081C1227 104.441 1226.7 104.734 1226.34 104.734C1225.98 104.734 1225.69 104.441 1225.69 104.081V100.051C1225.69 99.33 1226.27 98.7463 1227 98.7463H1231.15C1231.87 98.7463 1232.45 99.33 1232.45 100.051V104.081H1232.45ZM1240.2 104.081C1240.2 104.441 1239.91 104.734 1239.55 104.734C1239.19 104.734 1238.89 104.441 1238.89 104.081V100.663H1238.55V110.084C1238.55 110.477 1238.23 110.796 1237.84 110.796C1237.45 110.796 1237.13 110.477 1237.13 110.084V104.665H1236.6V110.084C1236.6 110.477 1236.28 110.796 1235.89 110.796C1235.5 110.796 1235.18 110.477 1235.18 110.084V100.663H1234.74V104.081C1234.74 104.441 1234.45 104.734 1234.09 104.734C1233.73 104.734 1233.44 104.441 1233.44 104.081V100.051C1233.44 99.33 1234.02 98.7463 1234.74 98.7463H1238.89C1239.61 98.7463 1240.2 99.33 1240.2 100.051L1240.2 104.081ZM1247.94 104.081C1247.94 104.441 1247.65 104.734 1247.29 104.734C1246.93 104.734 1246.64 104.441 1246.64 104.081V100.663H1246.3V110.084C1246.3 110.477 1245.98 110.796 1245.58 110.796C1245.19 110.796 1244.87 110.477 1244.87 110.084V104.665H1244.35V110.084C1244.35 110.477 1244.03 110.796 1243.63 110.796C1243.24 110.796 1242.92 110.477 1242.92 110.084V100.663H1242.48V104.081C1242.48 104.441 1242.19 104.734 1241.83 104.734C1241.47 104.734 1241.18 104.441 1241.18 104.081V100.051C1241.18 99.33 1241.76 98.7463 1242.48 98.7463H1246.64C1247.36 98.7463 1247.94 99.33 1247.94 100.051V104.081H1247.94Z" fill="#4592FB"/>
<path d="M1236.87 98.225C1237.5 98.225 1238.02 97.71 1238.02 97.075C1238.02 96.44 1237.5 95.925 1236.87 95.925C1236.23 95.925 1235.72 96.44 1235.72 97.075C1235.72 97.71 1236.23 98.225 1236.87 98.225Z" fill="white"/>
<path d="M1229.12 98.225C1229.76 98.225 1230.27 97.71 1230.27 97.075C1230.27 96.44 1229.76 95.925 1229.12 95.925C1228.49 95.925 1227.97 96.44 1227.97 97.075C1227.97 97.71 1228.49 98.225 1229.12 98.225Z" fill="white"/>
<path d="M1244.61 98.225C1245.24 98.225 1245.76 97.71 1245.76 97.075C1245.76 96.44 1245.24 95.925 1244.61 95.925C1243.98 95.925 1243.46 96.44 1243.46 97.075C1243.46 97.71 1243.98 98.225 1244.61 98.225Z" fill="white"/>
<path d="M1246.83 92.075H1227.18C1224.16 92.075 1221.71 94.525 1221.71 97.5375V109.337C1221.71 112.35 1224.16 114.812 1227.18 114.812H1246.83C1249.84 114.812 1252.29 112.35 1252.29 109.337V97.5375C1252.29 94.525 1249.84 92.075 1246.83 92.075ZM1251.33 109.337C1251.33 111.825 1249.3 113.838 1246.83 113.838H1227.18C1224.7 113.838 1222.67 111.825 1222.67 109.337V97.5375C1222.67 95.0625 1224.7 93.0375 1227.18 93.0375H1246.83C1249.3 93.0375 1251.33 95.0625 1251.33 97.5375V109.337Z" fill="white"/>
<path d="M1247.94 100.05V104.075C1247.94 104.438 1247.65 104.737 1247.29 104.737C1246.92 104.737 1246.64 104.438 1246.64 104.075V100.663L1246.3 100.662V110.087C1246.3 110.475 1245.98 110.8 1245.59 110.8C1245.19 110.8 1244.88 110.475 1244.88 110.087V104.662H1244.35V110.087C1244.35 110.475 1244.02 110.8 1243.64 110.8C1243.24 110.8 1242.92 110.475 1242.92 110.087V100.662H1242.49V104.075C1242.49 104.438 1242.19 104.737 1241.84 104.737C1241.48 104.737 1241.17 104.438 1241.17 104.075V100.05C1241.17 99.325 1241.76 98.75 1242.49 98.75H1246.64C1247.36 98.75 1247.94 99.325 1247.94 100.05Z" fill="white"/>
<path d="M1232.45 100.05V104.075C1232.45 104.438 1232.16 104.737 1231.8 104.737C1231.44 104.737 1231.15 104.438 1231.15 104.075V100.663L1230.81 100.662V110.087C1230.81 110.475 1230.49 110.8 1230.1 110.8C1229.7 110.8 1229.39 110.475 1229.39 110.087V104.662H1228.86V110.087C1228.86 110.475 1228.54 110.8 1228.15 110.8C1227.75 110.8 1227.44 110.475 1227.44 110.087V100.662H1227V104.075C1227 104.438 1226.7 104.737 1226.35 104.737C1225.99 104.737 1225.69 104.438 1225.69 104.075V100.05C1225.69 99.325 1226.27 98.75 1227 98.75H1231.15C1231.88 98.75 1232.45 99.325 1232.45 100.05Z" fill="white"/>
<path d="M1240.2 100.05V104.075C1240.2 104.438 1239.91 104.737 1239.55 104.737C1239.19 104.737 1238.9 104.438 1238.9 104.075V100.662H1238.55V110.087C1238.55 110.475 1238.24 110.8 1237.84 110.8C1237.45 110.8 1237.12 110.475 1237.12 110.087V104.662H1236.6V110.087C1236.6 110.475 1236.29 110.8 1235.89 110.8C1235.5 110.8 1235.17 110.475 1235.17 110.087V100.662H1234.74V104.075C1234.74 104.438 1234.45 104.737 1234.09 104.737C1233.73 104.737 1233.44 104.438 1233.44 104.075V100.05C1233.44 99.325 1234.02 98.75 1234.74 98.75H1238.9C1239.61 98.75 1240.2 99.325 1240.2 100.05Z" fill="white"/>
<path d="M1230.46 87.2815H1231.61C1231.73 87.2815 1231.82 87.374 1231.82 87.489V90.0402C1231.82 90.1377 1231.9 90.2165 1232 90.2165H1233.89C1233.99 90.2165 1234.06 90.1377 1234.06 90.0402V87.489C1234.06 87.374 1234.16 87.2815 1234.27 87.2815H1235.42C1235.59 87.2815 1235.67 87.0802 1235.56 86.964L1233.2 84.6052C1233.06 84.464 1232.83 84.464 1232.69 84.6052L1230.33 86.964C1230.21 87.0815 1230.29 87.2815 1230.46 87.2815Z" fill="white"/>
<path d="M1240.25 90.11C1240.39 90.2513 1240.62 90.2513 1240.76 90.11L1243.11 87.7513C1243.23 87.6338 1243.15 87.4338 1242.98 87.4338H1241.83C1241.71 87.4338 1241.62 87.3412 1241.62 87.2262V84.675C1241.62 84.5775 1241.54 84.4988 1241.45 84.4988H1239.56C1239.46 84.4988 1239.38 84.5775 1239.38 84.675V87.2262C1239.38 87.3412 1239.29 87.4338 1239.17 87.4338H1238.02C1237.85 87.4338 1237.77 87.6338 1237.89 87.7513L1240.25 90.11Z" fill="white"/>
</g>
<g id="mirae_hall_5f_elevator_right">
<path d="M1031 983C1031 978.582 1034.58 975 1039 975H1095C1099.42 975 1103 978.582 1103 983V1047C1103 1051.42 1099.42 1055 1095 1055H1039C1034.58 1055 1031 1051.42 1031 1047V983Z" fill="#F2F2F2"/>
<path d="M1095 1052V1055H1039L1039 1052H1095ZM1100 1047V983C1100 980.239 1097.76 978 1095 978H1039C1036.24 978 1034 980.239 1034 983V1047C1034 1049.76 1036.24 1052 1039 1052L1039 1055L1038.59 1054.99C1034.36 1054.77 1031 1051.28 1031 1047V983C1031 978.582 1034.58 975 1039 975H1095C1099.42 975 1103 978.582 1103 983V1047C1103 1051.42 1099.42 1055 1095 1055V1052C1097.76 1052 1100 1049.76 1100 1047Z" fill="#2E2F33" fill-opacity="0.88"/>
<path d="M1077.62 994.375H1056.38C1050.85 994.375 1046.38 998.853 1046.38 1004.38V1025.62C1046.38 1031.15 1050.85 1035.62 1056.38 1035.62H1077.62C1083.15 1035.62 1087.62 1031.15 1087.62 1025.62V1004.38C1087.62 998.853 1083.15 994.375 1077.62 994.375ZM1068.02 1002.43H1069.17C1069.29 1002.43 1069.38 1002.34 1069.38 1002.23V999.675C1069.38 999.577 1069.46 999.499 1069.56 999.499H1071.45C1071.55 999.499 1071.62 999.577 1071.62 999.675V1002.23C1071.62 1002.34 1071.72 1002.43 1071.83 1002.43H1072.99C1073.15 1002.43 1073.24 1002.63 1073.12 1002.75L1070.76 1005.11C1070.62 1005.25 1070.39 1005.25 1070.25 1005.11L1067.89 1002.75C1067.77 1002.63 1067.85 1002.43 1068.02 1002.43ZM1060.33 1001.96L1062.69 999.605C1062.83 999.464 1063.06 999.464 1063.2 999.605L1065.56 1001.96C1065.67 1002.08 1065.59 1002.28 1065.42 1002.28H1064.27C1064.15 1002.28 1064.06 1002.37 1064.06 1002.49V1005.04C1064.06 1005.14 1063.98 1005.22 1063.89 1005.22H1062C1061.9 1005.22 1061.82 1005.14 1061.82 1005.04V1002.49C1061.82 1002.37 1061.73 1002.28 1061.61 1002.28H1060.46C1060.29 1002.28 1060.21 1002.08 1060.33 1001.96ZM1082.29 1024.34C1082.29 1027.35 1079.84 1029.81 1076.82 1029.81H1057.18C1054.16 1029.81 1051.71 1027.35 1051.71 1024.34V1012.54C1051.71 1009.53 1054.16 1007.07 1057.18 1007.07H1076.82C1079.84 1007.07 1082.29 1009.53 1082.29 1012.54V1024.34Z" fill="#4592FB"/>
<path d="M1076.82 1008.04H1057.18C1054.69 1008.04 1052.68 1010.06 1052.68 1012.54V1024.34C1052.68 1026.82 1054.69 1028.84 1057.18 1028.84H1076.82C1079.3 1028.84 1081.32 1026.82 1081.32 1024.34V1012.54C1081.32 1010.06 1079.3 1008.04 1076.82 1008.04ZM1074.61 1010.92C1075.24 1010.92 1075.76 1011.44 1075.76 1012.08C1075.76 1012.71 1075.24 1013.22 1074.61 1013.22C1073.98 1013.22 1073.46 1012.71 1073.46 1012.08C1073.46 1011.44 1073.98 1010.92 1074.61 1010.92ZM1066.87 1010.92C1067.5 1010.92 1068.02 1011.44 1068.02 1012.08C1068.02 1012.71 1067.5 1013.22 1066.87 1013.22C1066.23 1013.22 1065.72 1012.71 1065.72 1012.08C1065.72 1011.44 1066.23 1010.92 1066.87 1010.92ZM1059.12 1010.92C1059.76 1010.92 1060.27 1011.44 1060.27 1012.08C1060.27 1012.71 1059.76 1013.22 1059.12 1013.22C1058.49 1013.22 1057.97 1012.71 1057.97 1012.08C1057.97 1011.44 1058.49 1010.92 1059.12 1010.92ZM1062.45 1019.08C1062.45 1019.44 1062.16 1019.73 1061.8 1019.73C1061.44 1019.73 1061.15 1019.44 1061.15 1019.08V1015.66H1060.81V1025.08C1060.81 1025.48 1060.49 1025.8 1060.1 1025.8C1059.7 1025.8 1059.38 1025.48 1059.38 1025.08V1019.67H1058.86V1025.08C1058.86 1025.48 1058.54 1025.8 1058.15 1025.8C1057.75 1025.8 1057.43 1025.48 1057.43 1025.08V1015.66H1057V1019.08C1057 1019.44 1056.7 1019.73 1056.34 1019.73C1055.98 1019.73 1055.69 1019.44 1055.69 1019.08V1015.05C1055.69 1014.33 1056.27 1013.75 1057 1013.75H1061.15C1061.87 1013.75 1062.45 1014.33 1062.45 1015.05V1019.08H1062.45ZM1070.2 1019.08C1070.2 1019.44 1069.91 1019.73 1069.55 1019.73C1069.19 1019.73 1068.89 1019.44 1068.89 1019.08V1015.66H1068.55V1025.08C1068.55 1025.48 1068.23 1025.8 1067.84 1025.8C1067.45 1025.8 1067.13 1025.48 1067.13 1025.08V1019.67H1066.6V1025.08C1066.6 1025.48 1066.28 1025.8 1065.89 1025.8C1065.5 1025.8 1065.18 1025.48 1065.18 1025.08V1015.66H1064.74V1019.08C1064.74 1019.44 1064.45 1019.73 1064.09 1019.73C1063.73 1019.73 1063.44 1019.44 1063.44 1019.08V1015.05C1063.44 1014.33 1064.02 1013.75 1064.74 1013.75H1068.89C1069.61 1013.75 1070.2 1014.33 1070.2 1015.05L1070.2 1019.08ZM1077.94 1019.08C1077.94 1019.44 1077.65 1019.73 1077.29 1019.73C1076.93 1019.73 1076.64 1019.44 1076.64 1019.08V1015.66H1076.3V1025.08C1076.3 1025.48 1075.98 1025.8 1075.58 1025.8C1075.19 1025.8 1074.87 1025.48 1074.87 1025.08V1019.67H1074.35V1025.08C1074.35 1025.48 1074.03 1025.8 1073.63 1025.8C1073.24 1025.8 1072.92 1025.48 1072.92 1025.08V1015.66H1072.48V1019.08C1072.48 1019.44 1072.19 1019.73 1071.83 1019.73C1071.47 1019.73 1071.18 1019.44 1071.18 1019.08V1015.05C1071.18 1014.33 1071.76 1013.75 1072.48 1013.75H1076.64C1077.36 1013.75 1077.94 1014.33 1077.94 1015.05V1019.08H1077.94Z" fill="#4592FB"/>
<path d="M1066.87 1013.22C1067.5 1013.22 1068.02 1012.71 1068.02 1012.08C1068.02 1011.44 1067.5 1010.92 1066.87 1010.92C1066.23 1010.92 1065.72 1011.44 1065.72 1012.08C1065.72 1012.71 1066.23 1013.22 1066.87 1013.22Z" fill="white"/>
<path d="M1059.12 1013.22C1059.76 1013.22 1060.27 1012.71 1060.27 1012.08C1060.27 1011.44 1059.76 1010.92 1059.12 1010.92C1058.49 1010.92 1057.97 1011.44 1057.97 1012.08C1057.97 1012.71 1058.49 1013.22 1059.12 1013.22Z" fill="white"/>
<path d="M1074.61 1013.22C1075.24 1013.22 1075.76 1012.71 1075.76 1012.08C1075.76 1011.44 1075.24 1010.92 1074.61 1010.92C1073.98 1010.92 1073.46 1011.44 1073.46 1012.08C1073.46 1012.71 1073.98 1013.22 1074.61 1013.22Z" fill="white"/>
<path d="M1076.83 1007.08H1057.18C1054.16 1007.08 1051.71 1009.53 1051.71 1012.54V1024.34C1051.71 1027.35 1054.16 1029.81 1057.18 1029.81H1076.83C1079.84 1029.81 1082.29 1027.35 1082.29 1024.34V1012.54C1082.29 1009.53 1079.84 1007.08 1076.83 1007.08ZM1081.33 1024.34C1081.33 1026.82 1079.3 1028.84 1076.83 1028.84H1057.18C1054.7 1028.84 1052.67 1026.82 1052.67 1024.34V1012.54C1052.67 1010.06 1054.7 1008.04 1057.18 1008.04H1076.83C1079.3 1008.04 1081.33 1010.06 1081.33 1012.54V1024.34Z" fill="white"/>
<path d="M1077.94 1015.05V1019.08C1077.94 1019.44 1077.65 1019.74 1077.29 1019.74C1076.92 1019.74 1076.64 1019.44 1076.64 1019.08V1015.66L1076.3 1015.66V1025.09C1076.3 1025.47 1075.98 1025.8 1075.59 1025.8C1075.19 1025.8 1074.88 1025.47 1074.88 1025.09V1019.66H1074.35V1025.09C1074.35 1025.47 1074.02 1025.8 1073.64 1025.8C1073.24 1025.8 1072.92 1025.47 1072.92 1025.09V1015.66H1072.49V1019.08C1072.49 1019.44 1072.19 1019.74 1071.84 1019.74C1071.48 1019.74 1071.17 1019.44 1071.17 1019.08V1015.05C1071.17 1014.33 1071.76 1013.75 1072.49 1013.75H1076.64C1077.36 1013.75 1077.94 1014.33 1077.94 1015.05Z" fill="white"/>
<path d="M1062.45 1015.05V1019.08C1062.45 1019.44 1062.16 1019.74 1061.8 1019.74C1061.44 1019.74 1061.15 1019.44 1061.15 1019.08V1015.66L1060.81 1015.66V1025.09C1060.81 1025.47 1060.49 1025.8 1060.1 1025.8C1059.7 1025.8 1059.39 1025.47 1059.39 1025.09V1019.66H1058.86V1025.09C1058.86 1025.47 1058.54 1025.8 1058.15 1025.8C1057.75 1025.8 1057.44 1025.47 1057.44 1025.09V1015.66H1057V1019.08C1057 1019.44 1056.7 1019.74 1056.35 1019.74C1055.99 1019.74 1055.69 1019.44 1055.69 1019.08V1015.05C1055.69 1014.33 1056.27 1013.75 1057 1013.75H1061.15C1061.88 1013.75 1062.45 1014.33 1062.45 1015.05Z" fill="white"/>
<path d="M1070.2 1015.05V1019.08C1070.2 1019.44 1069.91 1019.74 1069.55 1019.74C1069.19 1019.74 1068.9 1019.44 1068.9 1019.08V1015.66H1068.55V1025.09C1068.55 1025.47 1068.24 1025.8 1067.84 1025.8C1067.45 1025.8 1067.12 1025.47 1067.12 1025.09V1019.66H1066.6V1025.09C1066.6 1025.47 1066.29 1025.8 1065.89 1025.8C1065.5 1025.8 1065.17 1025.47 1065.17 1025.09V1015.66H1064.74V1019.08C1064.74 1019.44 1064.45 1019.74 1064.09 1019.74C1063.72 1019.74 1063.44 1019.44 1063.44 1019.08V1015.05C1063.44 1014.33 1064.02 1013.75 1064.74 1013.75H1068.9C1069.61 1013.75 1070.2 1014.33 1070.2 1015.05Z" fill="white"/>
<path d="M1060.46 1002.28H1061.61C1061.73 1002.28 1061.82 1002.37 1061.82 1002.49V1005.04C1061.82 1005.14 1061.9 1005.22 1062 1005.22H1063.89C1063.99 1005.22 1064.06 1005.14 1064.06 1005.04V1002.49C1064.06 1002.37 1064.16 1002.28 1064.27 1002.28H1065.42C1065.59 1002.28 1065.67 1002.08 1065.56 1001.96L1063.2 999.605C1063.06 999.464 1062.83 999.464 1062.69 999.605L1060.33 1001.96C1060.21 1002.08 1060.29 1002.28 1060.46 1002.28Z" fill="white"/>
<path d="M1070.25 1005.11C1070.39 1005.25 1070.62 1005.25 1070.76 1005.11L1073.11 1002.75C1073.23 1002.63 1073.15 1002.43 1072.98 1002.43H1071.83C1071.71 1002.43 1071.62 1002.34 1071.62 1002.23V999.675C1071.62 999.577 1071.54 999.499 1071.45 999.499H1069.56C1069.46 999.499 1069.38 999.577 1069.38 999.675V1002.23C1069.38 1002.34 1069.29 1002.43 1069.17 1002.43H1068.02C1067.85 1002.43 1067.77 1002.63 1067.89 1002.75L1070.25 1005.11Z" fill="white"/>
</g>
<g id="Vector_6">
<path d="M98 14C98 9.58172 101.582 6 106 6H328C332.418 6 336 9.58172 336 14V424C336 428.418 332.418 432 328 432H106C101.582 432 98 428.418 98 424V14Z" fill="#92D3F5"/>
<path d="M328 429V432H106L106 429H328ZM333 424V14C333 11.2386 330.761 9 328 9H106C103.239 9 101 11.2386 101 14V424C101 426.761 103.239 429 106 429L106 432L105.588 431.989C101.361 431.775 98 428.28 98 424V14C98 9.58172 101.582 6 106 6H328C332.418 6 336 9.58172 336 14V424C336 428.418 332.418 432 328 432V429C330.761 429 333 426.761 333 424Z" fill="#2E2F33" fill-opacity="0.88"/>
<path d="M227.594 209.031C227.594 212.594 229.906 215.938 234.25 217.312L232.375 220.031C229.328 219 227.141 216.938 225.938 214.312C224.688 217.312 222.406 219.672 219.156 220.812L217.281 218.094C221.844 216.5 224.094 212.75 224.125 208.719V206.031H227.594V209.031ZM239.875 204.531V211.406H243.812V214.281H239.875V221.438H236.406V204.531H239.875ZM230.688 222.062C236.531 222.031 240.125 224.031 240.156 227.375C240.125 230.781 236.531 232.75 230.688 232.75C224.781 232.75 221.125 230.781 221.125 227.375C221.125 224.031 224.781 222.031 230.688 222.062ZM230.688 224.781C226.812 224.781 224.594 225.719 224.594 227.375C224.594 229.125 226.812 230 230.688 230C234.562 230 236.719 229.125 236.719 227.375C236.719 225.719 234.562 224.781 230.688 224.781Z" fill="black"/>
<path d="M202.781 205.125C208.969 205.125 212.938 207.25 212.969 210.75C212.938 213.875 209.703 215.891 204.531 216.25V218.562H215.688V221.344H189.938V218.562H201.031V216.25C195.844 215.891 192.594 213.875 192.594 210.75C192.594 207.25 196.594 205.125 202.781 205.125ZM202.781 207.906C198.656 207.906 196.188 208.875 196.219 210.75C196.188 212.531 198.656 213.594 202.781 213.594C206.906 213.594 209.375 212.531 209.375 210.75C209.375 208.875 206.906 207.906 202.781 207.906ZM212.531 223.562V232.781H209.062V226.312H192.781V223.562H212.531Z" fill="black"/>
</g>
<g id="mirae_hall_514">
<path d="M333 14C333 9.58173 336.582 6 341 6H423C427.418 6 431 9.58172 431 14V235C431 239.418 427.418 243 423 243H341C336.582 243 333 239.418 333 235V14Z" fill="#F7FBFF"/>
<path d="M423 240V243H341L341 240H423ZM428 235V14C428 11.2386 425.761 9 423 9H341C338.239 9 336 11.2386 336 14V235C336 237.761 338.239 240 341 240L341 243C336.582 243 333 239.418 333 235V14C333 9.58173 336.582 6 341 6H423C427.418 6 431 9.58172 431 14V235C431 239.418 427.418 243 423 243V240C425.761 240 428 237.761 428 235Z" fill="#2E2F33" fill-opacity="0.88"/>
<path d="M389.906 130.781V127.531L399.688 112.375H404.75V127.438H407.719V130.781H404.75V135H400.875V130.781H389.906ZM394.062 127.438H400.938V117H400.688L394.062 127.281V127.438Z" fill="black"/>
<path d="M384.812 112.375V135H380.719V116.344H380.594L375.312 119.719V116L380.906 112.375H384.812Z" fill="black"/>
<path d="M363.906 135.312C359.375 135.312 356.062 132.625 355.938 128.875H359.906C360.031 130.719 361.75 132.031 363.906 132.031C366.438 132.031 368.25 130.188 368.25 127.688C368.25 125.094 366.375 123.25 363.781 123.25C362.031 123.219 360.75 123.844 360.031 125.188H356.25L357.625 112.375H371V115.781H360.969L360.281 121.781H360.5C361.375 120.781 363.031 120.062 364.875 120.062C369.094 120.062 372.188 123.219 372.188 127.562C372.188 132.094 368.781 135.312 363.906 135.312Z" fill="black"/>
</g>
<g id="mirae_hall_508">
<path d="M333 299C333 294.582 336.582 291 341 291H427C431.418 291 435 294.582 435 299V424C435 428.418 431.418 432 427 432H341C336.582 432 333 428.418 333 424V299Z" fill="#F7FBFF"/>
<path d="M427 429V432H341L341 429H427ZM432 424V299C432 296.239 429.761 294 427 294H341C338.239 294 336 296.239 336 299V424C336 426.761 338.239 429 341 429L341 432L340.588 431.989C336.361 431.775 333 428.28 333 424V299C333 294.582 336.582 291 341 291H427C431.418 291 435 294.582 435 299V424C435 428.418 431.418 432 427 432V429C429.761 429 432 426.761 432 424Z" fill="#2E2F33" fill-opacity="0.88"/>
<path d="M403.281 372.312C398.25 372.312 394.688 369.625 394.688 365.938C394.688 363.062 396.812 360.719 399.531 360.281V360.156C397.156 359.656 395.531 357.594 395.531 355.125C395.531 351.625 398.812 349.062 403.281 349.062C407.719 349.062 411 351.625 411 355.125C411 357.594 409.344 359.656 407 360.156V360.281C409.719 360.719 411.875 363.062 411.875 365.938C411.875 369.625 408.281 372.312 403.281 372.312ZM403.281 369.094C405.938 369.094 407.688 367.656 407.688 365.562C407.688 363.438 405.812 361.875 403.281 361.875C400.719 361.875 398.844 363.438 398.875 365.562C398.844 367.656 400.594 369.094 403.281 369.094ZM403.281 358.844C405.469 358.844 407.031 357.469 407.031 355.5C407.031 353.594 405.5 352.25 403.281 352.25C401.031 352.25 399.5 353.562 399.5 355.5C399.5 357.469 401.062 358.844 403.281 358.844Z" fill="black"/>
<path d="M382.969 372.312C377.531 372.312 374.281 368.094 374.281 360.688C374.281 353.312 377.531 349.062 382.969 349.062C388.375 349.062 391.656 353.312 391.656 360.688C391.656 368.094 388.406 372.312 382.969 372.312ZM382.969 368.906C385.812 368.906 387.562 366.125 387.562 360.688C387.562 355.281 385.781 352.438 382.969 352.438C380.156 352.438 378.375 355.281 378.375 360.688C378.375 366.125 380.125 368.906 382.969 368.906Z" fill="black"/>
<path d="M362.906 372.312C358.375 372.312 355.062 369.625 354.938 365.875H358.906C359.031 367.719 360.75 369.031 362.906 369.031C365.438 369.031 367.25 367.188 367.25 364.688C367.25 362.094 365.375 360.25 362.781 360.25C361.031 360.219 359.75 360.844 359.031 362.188H355.25L356.625 349.375H370V352.781H359.969L359.281 358.781H359.5C360.375 357.781 362.031 357.062 363.875 357.062C368.094 357.062 371.188 360.219 371.188 364.562C371.188 369.094 367.781 372.312 362.906 372.312Z" fill="black"/>
</g>
<g id="mirae_hall_507">
<path d="M432 299C432 294.582 435.582 291 440 291H520C524.418 291 528 294.582 528 299V424C528 428.418 524.418 432 520 432H440C435.582 432 432 428.418 432 424V299Z" fill="#F7FBFF"/>
<path d="M520 429V432H440L440 429H520ZM525 424V299C525 296.239 522.761 294 520 294H440C437.239 294 435 296.239 435 299V424C435 426.761 437.239 429 440 429L440 432L439.588 431.989C435.361 431.775 432 428.28 432 424V299C432 294.582 435.582 291 440 291H520C524.418 291 528 294.582 528 299V424C528 428.418 524.418 432 520 432V429C522.761 429 525 426.761 525 424Z" fill="#2E2F33" fill-opacity="0.88"/>
<path d="M493.281 372L503.094 352.938V352.781H491.719V349.375H507.312V352.844L497.5 372H493.281Z" fill="black"/>
<path d="M480.969 372.312C475.531 372.312 472.281 368.094 472.281 360.688C472.281 353.312 475.531 349.062 480.969 349.062C486.375 349.062 489.656 353.312 489.656 360.688C489.656 368.094 486.406 372.312 480.969 372.312ZM480.969 368.906C483.812 368.906 485.562 366.125 485.562 360.688C485.562 355.281 483.781 352.438 480.969 352.438C478.156 352.438 476.375 355.281 476.375 360.688C476.375 366.125 478.125 368.906 480.969 368.906Z" fill="black"/>
<path d="M460.906 372.312C456.375 372.312 453.062 369.625 452.938 365.875H456.906C457.031 367.719 458.75 369.031 460.906 369.031C463.438 369.031 465.25 367.188 465.25 364.688C465.25 362.094 463.375 360.25 460.781 360.25C459.031 360.219 457.75 360.844 457.031 362.188H453.25L454.625 349.375H468V352.781H457.969L457.281 358.781H457.5C458.375 357.781 460.031 357.062 461.875 357.062C466.094 357.062 469.188 360.219 469.188 364.562C469.188 369.094 465.781 372.312 460.906 372.312Z" fill="black"/>
</g>
<g id="mirae_hall_515">
<path d="M428 14C428 9.58173 431.582 6 436 6H518C522.418 6 526 9.58172 526 14V235C526 239.418 522.418 243 518 243H436C431.582 243 428 239.418 428 235V14Z" fill="#F7FBFF"/>
<path d="M518 240V243H436L436 240H518ZM523 235V14C523 11.2386 520.761 9 518 9H436C433.239 9 431 11.2386 431 14V235C431 237.761 433.239 240 436 240L436 243C431.582 243 428 239.418 428 235V14C428 9.58173 431.582 6 436 6H518C522.418 6 526 9.58172 526 14V235C526 239.418 522.418 243 518 243V240C520.761 240 523 237.761 523 235Z" fill="#2E2F33" fill-opacity="0.88"/>
<path d="M493.344 135.312C488.812 135.312 485.5 132.625 485.375 128.875H489.344C489.469 130.719 491.188 132.031 493.344 132.031C495.875 132.031 497.688 130.188 497.688 127.688C497.688 125.094 495.812 123.25 493.219 123.25C491.469 123.219 490.188 123.844 489.469 125.188H485.688L487.062 112.375H500.438V115.781H490.406L489.719 121.781H489.938C490.812 120.781 492.469 120.062 494.312 120.062C498.531 120.062 501.625 123.219 501.625 127.562C501.625 132.094 498.219 135.312 493.344 135.312Z" fill="black"/>
<path d="M479.812 112.375V135H475.719V116.344H475.594L470.312 119.719V116L475.906 112.375H479.812Z" fill="black"/>
<path d="M458.906 135.312C454.375 135.312 451.062 132.625 450.938 128.875H454.906C455.031 130.719 456.75 132.031 458.906 132.031C461.438 132.031 463.25 130.188 463.25 127.688C463.25 125.094 461.375 123.25 458.781 123.25C457.031 123.219 455.75 123.844 455.031 125.188H451.25L452.625 112.375H466V115.781H455.969L455.281 121.781H455.5C456.375 120.781 458.031 120.062 459.875 120.062C464.094 120.062 467.188 123.219 467.188 127.562C467.188 132.094 463.781 135.312 458.906 135.312Z" fill="black"/>
</g>
<g id="mirae_hall_516">
<path d="M523 14C523 9.58173 526.582 6 531 6H613C617.418 6 621 9.58172 621 14V235C621 239.418 617.418 243 613 243H531C526.582 243 523 239.418 523 235V14Z" fill="#F7FBFF"/>
<path d="M613 240V243H531L531 240H613ZM618 235V14C618 11.2386 615.761 9 613 9H531C528.239 9 526 11.2386 526 14V235C526 237.761 528.239 240 531 240L531 243C526.582 243 523 239.418 523 235V14C523 9.58173 526.582 6 531 6H613C617.418 6 621 9.58172 621 14V235C621 239.418 617.418 243 613 243V240C615.761 240 618 237.761 618 235Z" fill="#2E2F33" fill-opacity="0.88"/>
<path d="M588.781 135.312C584.375 135.281 579.937 132.656 579.969 124.312C579.969 116.562 583.5 112.062 589.031 112.062C593.406 112.062 596.406 114.812 596.906 118.469H592.875C592.469 116.75 591.094 115.594 589.031 115.594C585.75 115.594 583.906 118.5 583.906 123.25H584.125C585.281 121.312 587.469 120.156 589.937 120.156C594 120.156 597.125 123.219 597.125 127.5C597.125 132 593.781 135.344 588.781 135.312ZM588.781 132.031C591.312 132.031 593.187 130.062 593.187 127.594C593.187 125.188 591.344 123.25 588.844 123.25C586.312 123.25 584.375 125.25 584.344 127.625C584.375 130 586.219 132.031 588.781 132.031Z" fill="black"/>
<path d="M574.812 112.375V135H570.719V116.344H570.594L565.312 119.719V116L570.906 112.375H574.812Z" fill="black"/>
<path d="M553.906 135.312C549.375 135.312 546.062 132.625 545.938 128.875H549.906C550.031 130.719 551.75 132.031 553.906 132.031C556.438 132.031 558.25 130.188 558.25 127.688C558.25 125.094 556.375 123.25 553.781 123.25C552.031 123.219 550.75 123.844 550.031 125.188H546.25L547.625 112.375H561V115.781H550.969L550.281 121.781H550.5C551.375 120.781 553.031 120.062 554.875 120.062C559.094 120.062 562.188 123.219 562.188 127.562C562.188 132.094 558.781 135.312 553.906 135.312Z" fill="black"/>
</g>
<g id="mirae_hall_506">
<path d="M525 299C525 294.582 528.582 291 533 291H613C617.418 291 621 294.582 621 299V424C621 428.418 617.418 432 613 432H533C528.582 432 525 428.418 525 424V299Z" fill="#F7FBFF"/>
<path d="M613 429V432H533L533 429H613ZM618 424V299C618 296.239 615.761 294 613 294H533C530.239 294 528 296.239 528 299V424C528 426.761 530.239 429 533 429L533 432L532.588 431.989C528.361 431.775 525 428.28 525 424V299C525 294.582 528.582 291 533 291H613C617.418 291 621 294.582 621 299V424C621 428.418 617.418 432 613 432V429C615.761 429 618 426.761 618 424Z" fill="#2E2F33" fill-opacity="0.88"/>
<path d="M592.531 372.312C588.125 372.281 583.687 369.656 583.719 361.312C583.719 353.562 587.25 349.062 592.781 349.062C597.156 349.062 600.156 351.812 600.656 355.469H596.625C596.219 353.75 594.844 352.594 592.781 352.594C589.5 352.594 587.656 355.5 587.656 360.25H587.875C589.031 358.312 591.219 357.156 593.687 357.156C597.75 357.156 600.875 360.219 600.875 364.5C600.875 369 597.531 372.344 592.531 372.312ZM592.531 369.031C595.062 369.031 596.937 367.062 596.937 364.594C596.937 362.188 595.094 360.25 592.594 360.25C590.062 360.25 588.125 362.25 588.094 364.625C588.125 367 589.969 369.031 592.531 369.031Z" fill="black"/>
<path d="M571.969 372.312C566.531 372.312 563.281 368.094 563.281 360.688C563.281 353.312 566.531 349.062 571.969 349.062C577.375 349.062 580.656 353.312 580.656 360.688C580.656 368.094 577.406 372.312 571.969 372.312ZM571.969 368.906C574.812 368.906 576.562 366.125 576.562 360.688C576.562 355.281 574.781 352.438 571.969 352.438C569.156 352.438 567.375 355.281 567.375 360.688C567.375 366.125 569.125 368.906 571.969 368.906Z" fill="black"/>
<path d="M551.906 372.312C547.375 372.312 544.062 369.625 543.938 365.875H547.906C548.031 367.719 549.75 369.031 551.906 369.031C554.438 369.031 556.25 367.188 556.25 364.688C556.25 362.094 554.375 360.25 551.781 360.25C550.031 360.219 548.75 360.844 548.031 362.188H544.25L545.625 349.375H559V352.781H548.969L548.281 358.781H548.5C549.375 357.781 551.031 357.062 552.875 357.062C557.094 357.062 560.188 360.219 560.188 364.562C560.188 369.094 556.781 372.312 551.906 372.312Z" fill="black"/>
</g>
<g id="mirae_hall_505">
<path d="M618 299C618 294.582 621.582 291 626 291H706C710.418 291 714 294.582 714 299V424C714 428.418 710.418 432 706 432H626C621.582 432 618 428.418 618 424V299Z" fill="#F7FBFF"/>
<path d="M706 429V432H626L626 429H706ZM711 424V299C711 296.239 708.761 294 706 294H626C623.239 294 621 296.239 621 299V424C621 426.761 623.239 429 626 429L626 432L625.588 431.989C621.361 431.775 618 428.28 618 424V299C618 294.582 621.582 291 626 291H706C710.418 291 714 294.582 714 299V424C714 428.418 710.418 432 706 432V429C708.761 429 711 426.761 711 424Z" fill="#2E2F33" fill-opacity="0.88"/>
<path d="M686.094 372.312C681.562 372.312 678.25 369.625 678.125 365.875H682.094C682.219 367.719 683.938 369.031 686.094 369.031C688.625 369.031 690.438 367.188 690.438 364.688C690.438 362.094 688.562 360.25 685.969 360.25C684.219 360.219 682.938 360.844 682.219 362.188H678.438L679.812 349.375H693.188V352.781H683.156L682.469 358.781H682.688C683.562 357.781 685.219 357.062 687.062 357.062C691.281 357.062 694.375 360.219 694.375 364.562C694.375 369.094 690.969 372.312 686.094 372.312Z" fill="black"/>
<path d="M665.969 372.312C660.531 372.312 657.281 368.094 657.281 360.688C657.281 353.312 660.531 349.062 665.969 349.062C671.375 349.062 674.656 353.312 674.656 360.688C674.656 368.094 671.406 372.312 665.969 372.312ZM665.969 368.906C668.812 368.906 670.562 366.125 670.562 360.688C670.562 355.281 668.781 352.438 665.969 352.438C663.156 352.438 661.375 355.281 661.375 360.688C661.375 366.125 663.125 368.906 665.969 368.906Z" fill="black"/>
<path d="M645.906 372.312C641.375 372.312 638.062 369.625 637.938 365.875H641.906C642.031 367.719 643.75 369.031 645.906 369.031C648.438 369.031 650.25 367.188 650.25 364.688C650.25 362.094 648.375 360.25 645.781 360.25C644.031 360.219 642.75 360.844 642.031 362.188H638.25L639.625 349.375H653V352.781H642.969L642.281 358.781H642.5C643.375 357.781 645.031 357.062 646.875 357.062C651.094 357.062 654.188 360.219 654.188 364.562C654.188 369.094 650.781 372.312 645.906 372.312Z" fill="black"/>
</g>
<g id="mirae_hall_517">
<path d="M617 14C617 9.58173 620.582 6 625 6H707C711.418 6 715 9.58172 715 14V235C715 239.418 711.418 243 707 243H625C620.582 243 617 239.418 617 235V14Z" fill="#F7FBFF"/>
<path d="M707 240V243H625L625 240H707ZM712 235V14C712 11.2386 709.761 9 707 9H625C622.239 9 620 11.2386 620 14V235C620 237.761 622.239 240 625 240L625 243C620.582 243 617 239.418 617 235V14C617 9.58173 620.582 6 625 6H707C711.418 6 715 9.58172 715 14V235C715 239.418 711.418 243 707 243V240C709.761 240 712 237.761 712 235Z" fill="#2E2F33" fill-opacity="0.88"/>
<path d="M676.156 135L685.969 115.938V115.781H674.594V112.375H690.188V115.844L680.375 135H676.156Z" fill="black"/>
<path d="M669.812 112.375V135H665.719V116.344H665.594L660.312 119.719V116L665.906 112.375H669.812Z" fill="black"/>
<path d="M648.906 135.312C644.375 135.312 641.062 132.625 640.938 128.875H644.906C645.031 130.719 646.75 132.031 648.906 132.031C651.438 132.031 653.25 130.188 653.25 127.688C653.25 125.094 651.375 123.25 648.781 123.25C647.031 123.219 645.75 123.844 645.031 125.188H641.25L642.625 112.375H656V115.781H645.969L645.281 121.781H645.5C646.375 120.781 648.031 120.062 649.875 120.062C654.094 120.062 657.188 123.219 657.188 127.562C657.188 132.094 653.781 135.312 648.906 135.312Z" fill="black"/>
</g>
<g id="mirae_hall_518">
<path d="M712 14C712 9.58173 715.582 6 720 6H802C806.418 6 810 9.58172 810 14V235C810 239.418 806.418 243 802 243H720C715.582 243 712 239.418 712 235V14Z" fill="#F7FBFF"/>
<path d="M802 240V243H720L720 240H802ZM807 235V14C807 11.2386 804.761 9 802 9H720C717.239 9 715 11.2386 715 14V235C715 237.761 717.239 240 720 240L720 243C715.582 243 712 239.418 712 235V14C712 9.58173 715.582 6 720 6H802C806.418 6 810 9.58172 810 14V235C810 239.418 806.418 243 802 243V240C804.761 240 807 237.761 807 235Z" fill="#2E2F33" fill-opacity="0.88"/>
<path d="M777.531 135.312C772.5 135.312 768.938 132.625 768.938 128.938C768.938 126.062 771.062 123.719 773.781 123.281V123.156C771.406 122.656 769.781 120.594 769.781 118.125C769.781 114.625 773.062 112.062 777.531 112.062C781.969 112.062 785.25 114.625 785.25 118.125C785.25 120.594 783.594 122.656 781.25 123.156V123.281C783.969 123.719 786.125 126.062 786.125 128.938C786.125 132.625 782.531 135.312 777.531 135.312ZM777.531 132.094C780.188 132.094 781.938 130.656 781.938 128.562C781.938 126.438 780.062 124.875 777.531 124.875C774.969 124.875 773.094 126.438 773.125 128.562C773.094 130.656 774.844 132.094 777.531 132.094ZM777.531 121.844C779.719 121.844 781.281 120.469 781.281 118.5C781.281 116.594 779.75 115.25 777.531 115.25C775.281 115.25 773.75 116.562 773.75 118.5C773.75 120.469 775.312 121.844 777.531 121.844Z" fill="black"/>
<path d="M763.812 112.375V135H759.719V116.344H759.594L754.312 119.719V116L759.906 112.375H763.812Z" fill="black"/>
<path d="M742.906 135.312C738.375 135.312 735.062 132.625 734.938 128.875H738.906C739.031 130.719 740.75 132.031 742.906 132.031C745.438 132.031 747.25 130.188 747.25 127.688C747.25 125.094 745.375 123.25 742.781 123.25C741.031 123.219 739.75 123.844 739.031 125.188H735.25L736.625 112.375H750V115.781H739.969L739.281 121.781H739.5C740.375 120.781 742.031 120.062 743.875 120.062C748.094 120.062 751.188 123.219 751.188 127.562C751.188 132.094 747.781 135.312 742.906 135.312Z" fill="black"/>
</g>
<g id="mirae_hall_504">
<path d="M711 299C711 294.582 714.582 291 719 291H799C803.418 291 807 294.582 807 299V424C807 428.418 803.418 432 799 432H719C714.582 432 711 428.418 711 424V299Z" fill="#F7FBFF"/>
<path d="M799 429V432H719L719 429H799ZM804 424V299C804 296.239 801.761 294 799 294H719C716.239 294 714 296.239 714 299V424C714 426.761 716.239 429 719 429L719 432L718.588 431.989C714.361 431.775 711 428.28 711 424V299C711 294.582 714.582 291 719 291H799C803.418 291 807 294.582 807 299V424C807 428.418 803.418 432 799 432V429C801.761 429 804 426.761 804 424Z" fill="#2E2F33" fill-opacity="0.88"/>
<path d="M769.656 367.781V364.531L779.438 349.375H784.5V364.438H787.469V367.781H784.5V372H780.625V367.781H769.656ZM773.812 364.438H780.688V354H780.438L773.812 364.281V364.438Z" fill="black"/>
<path d="M757.969 372.312C752.531 372.312 749.281 368.094 749.281 360.688C749.281 353.312 752.531 349.062 757.969 349.062C763.375 349.062 766.656 353.312 766.656 360.688C766.656 368.094 763.406 372.312 757.969 372.312ZM757.969 368.906C760.812 368.906 762.562 366.125 762.562 360.688C762.562 355.281 760.781 352.438 757.969 352.438C755.156 352.438 753.375 355.281 753.375 360.688C753.375 366.125 755.125 368.906 757.969 368.906Z" fill="black"/>
<path d="M737.906 372.312C733.375 372.312 730.062 369.625 729.938 365.875H733.906C734.031 367.719 735.75 369.031 737.906 369.031C740.438 369.031 742.25 367.188 742.25 364.688C742.25 362.094 740.375 360.25 737.781 360.25C736.031 360.219 734.75 360.844 734.031 362.188H730.25L731.625 349.375H745V352.781H734.969L734.281 358.781H734.5C735.375 357.781 737.031 357.062 738.875 357.062C743.094 357.062 746.188 360.219 746.188 364.562C746.188 369.094 742.781 372.312 737.906 372.312Z" fill="black"/>
</g>
<g id="mirae_hall_503">
<path d="M803 299C803 294.582 806.582 291 811 291H891C895.418 291 899 294.582 899 299V424C899 428.418 895.418 432 891 432H811C806.582 432 803 428.418 803 424V299Z" fill="#F7FBFF"/>
<path d="M891 429V432H811L811 429H891ZM896 424V299C896 296.239 893.761 294 891 294H811C808.239 294 806 296.239 806 299V424C806 426.761 808.239 429 811 429L811 432L810.588 431.989C806.361 431.775 803 428.28 803 424V299C803 294.582 806.582 291 811 291H891C895.418 291 899 294.582 899 299V424C899 428.418 895.418 432 891 432V429C893.761 429 896 426.761 896 424Z" fill="#2E2F33" fill-opacity="0.88"/>
<path d="M870.281 372.312C865.438 372.312 862 369.688 861.906 365.875H866C866.125 367.688 867.938 368.875 870.281 368.875C872.781 368.875 874.562 367.5 874.562 365.5C874.562 363.469 872.812 362 869.875 362H867.844V358.875H869.875C872.281 358.875 873.969 357.531 873.938 355.562C873.969 353.656 872.531 352.375 870.312 352.375C868.188 352.375 866.344 353.562 866.281 355.469H862.375C862.469 351.656 865.906 349.062 870.344 349.062C874.938 349.062 877.906 351.875 877.875 355.344C877.906 357.875 876.219 359.719 873.75 360.219V360.406C876.938 360.844 878.75 362.875 878.719 365.719C878.75 369.531 875.188 372.312 870.281 372.312Z" fill="black"/>
<path d="M849.969 372.312C844.531 372.312 841.281 368.094 841.281 360.688C841.281 353.312 844.531 349.062 849.969 349.062C855.375 349.062 858.656 353.312 858.656 360.688C858.656 368.094 855.406 372.312 849.969 372.312ZM849.969 368.906C852.812 368.906 854.562 366.125 854.562 360.688C854.562 355.281 852.781 352.438 849.969 352.438C847.156 352.438 845.375 355.281 845.375 360.688C845.375 366.125 847.125 368.906 849.969 368.906Z" fill="black"/>
<path d="M829.906 372.312C825.375 372.312 822.062 369.625 821.938 365.875H825.906C826.031 367.719 827.75 369.031 829.906 369.031C832.438 369.031 834.25 367.188 834.25 364.688C834.25 362.094 832.375 360.25 829.781 360.25C828.031 360.219 826.75 360.844 826.031 362.188H822.25L823.625 349.375H837V352.781H826.969L826.281 358.781H826.5C827.375 357.781 829.031 357.062 830.875 357.062C835.094 357.062 838.188 360.219 838.188 364.562C838.188 369.094 834.781 372.312 829.906 372.312Z" fill="black"/>
</g>
<g id="mirae_hall_519">
<path d="M807 14C807 9.58173 810.582 6 815 6H897C901.418 6 905 9.58172 905 14V235C905 239.418 901.418 243 897 243H815C810.582 243 807 239.418 807 235V14Z" fill="#F7FBFF"/>
<path d="M897 240V243H815L815 240H897ZM902 235V14C902 11.2386 899.761 9 897 9H815C812.239 9 810 11.2386 810 14V235C810 237.761 812.239 240 815 240L815 243C810.582 243 807 239.418 807 235V14C807 9.58173 810.582 6 815 6H897C901.418 6 905 9.58172 905 14V235C905 239.418 901.418 243 897 243V240C899.761 240 902 237.761 902 235Z" fill="#2E2F33" fill-opacity="0.88"/>
<path d="M872.344 112.062C876.781 112.094 881.156 114.719 881.188 123C881.188 130.812 877.656 135.312 872.094 135.312C867.719 135.312 864.719 132.594 864.219 128.844H868.25C868.656 130.625 870.031 131.781 872.094 131.781C875.375 131.781 877.219 128.875 877.25 124.031H877C875.844 126 873.688 127.156 871.188 127.156C867.156 127.156 864.031 124.094 864 119.812C864 115.375 867.312 112.031 872.344 112.062ZM872.375 115.344C869.844 115.344 867.938 117.312 867.969 119.719C867.969 122.156 869.781 124.062 872.312 124.062C874.812 124.062 876.781 122.031 876.75 119.688C876.75 117.375 874.906 115.344 872.375 115.344Z" fill="black"/>
<path d="M858.812 112.375V135H854.719V116.344H854.594L849.312 119.719V116L854.906 112.375H858.812Z" fill="black"/>
<path d="M837.906 135.312C833.375 135.312 830.062 132.625 829.938 128.875H833.906C834.031 130.719 835.75 132.031 837.906 132.031C840.438 132.031 842.25 130.188 842.25 127.688C842.25 125.094 840.375 123.25 837.781 123.25C836.031 123.219 834.75 123.844 834.031 125.188H830.25L831.625 112.375H845V115.781H834.969L834.281 121.781H834.5C835.375 120.781 837.031 120.062 838.875 120.062C843.094 120.062 846.188 123.219 846.188 127.562C846.188 132.094 842.781 135.312 837.906 135.312Z" fill="black"/>
</g>
<g id="Vector_7">
<path d="M896 299C896 294.582 899.582 291 904 291H1087C1091.42 291 1095 294.582 1095 299V424C1095 428.418 1091.42 432 1087 432H904C899.582 432 896 428.418 896 424V299Z" fill="#F7FBFF"/>
<path d="M1087 429V432H904L904 429H1087ZM1092 424V299C1092 296.239 1089.76 294 1087 294H904C901.239 294 899 296.239 899 299V424C899 426.761 901.239 429 904 429L904 432C899.582 432 896 428.418 896 424V299C896 294.582 899.582 291 904 291H1087C1091.42 291 1095 294.582 1095 299V424C1095 428.418 1091.42 432 1087 432V429C1089.76 429 1092 426.761 1092 424Z" fill="#2E2F33" fill-opacity="0.88"/>
<path d="M1021.38 360.719V363.5H1010.19V365.781H1018.28V374.438H998.938V365.781H1006.75V363.5H995.562V360.719H1021.38ZM1002.34 368.5V371.625H1014.84V368.5H1002.34ZM1018.19 347.125V354.312H1002.28V356.312H1018.75V359.062H998.844V351.812H1014.72V349.75H998.75V347.125H1018.19Z" fill="black"/>
<path d="M982.156 349.125V351.656H968.25V349.125H973.5V346.719H976.812V349.125H982.156ZM975.188 352.438C978.812 352.438 981.25 353.844 981.25 356.188C981.25 358.562 978.812 360 975.188 359.969C971.531 360 969.062 358.562 969.062 356.188C969.062 353.844 971.531 352.438 975.188 352.438ZM975.188 354.656C973.375 354.656 972.188 355.188 972.188 356.188C972.188 357.188 973.375 357.688 975.188 357.688C977.031 357.688 978.188 357.188 978.188 356.188C978.188 355.188 977.031 354.656 975.188 354.656ZM992.312 346.531V369.094H988.969V346.531H992.312ZM986.969 347.062V368.688H983.688V366.75H979.281V364.375H983.688V347.062H986.969ZM967.531 361.219C971.375 361.219 977.625 361.156 982.25 360.438L982.469 362.688C980.781 363.016 978.922 363.25 977.062 363.406V366.875H973.719V363.625C971.547 363.75 969.5 363.781 967.844 363.812L967.531 361.219ZM993.031 371.406V374.219H972.281V367.656H975.781V371.406H993.031Z" fill="black"/>
</g>
<g id="mirae_hall_543">
<path d="M1338 887C1338 882.582 1341.58 879 1346 879H1601C1605.42 879 1609 882.582 1609 887V1047C1609 1051.42 1605.42 1055 1601 1055H1346C1341.58 1055 1338 1051.42 1338 1047V887Z" fill="#F7FBFF"/>
<path d="M1601 1052V1055H1346L1346 1052H1601ZM1606 1047V887C1606 884.239 1603.76 882 1601 882H1346C1343.24 882 1341 884.239 1341 887V1047C1341 1049.76 1343.24 1052 1346 1052L1346 1055L1345.59 1054.99C1341.36 1054.77 1338 1051.28 1338 1047V887C1338 882.582 1341.58 879 1346 879H1601C1605.42 879 1609 882.582 1609 887V1047C1609 1051.42 1605.42 1055 1601 1055V1052C1603.76 1052 1606 1049.76 1606 1047Z" fill="#2E2F33" fill-opacity="0.88"/>
<path d="M1493.5 978.312C1488.66 978.312 1485.22 975.688 1485.12 971.875H1489.22C1489.34 973.688 1491.16 974.875 1493.5 974.875C1496 974.875 1497.78 973.5 1497.78 971.5C1497.78 969.469 1496.03 968 1493.09 968H1491.06V964.875H1493.09C1495.5 964.875 1497.19 963.531 1497.16 961.562C1497.19 959.656 1495.75 958.375 1493.53 958.375C1491.41 958.375 1489.56 959.562 1489.5 961.469H1485.59C1485.69 957.656 1489.12 955.062 1493.56 955.062C1498.16 955.062 1501.12 957.875 1501.09 961.344C1501.12 963.875 1499.44 965.719 1496.97 966.219V966.406C1500.16 966.844 1501.97 968.875 1501.94 971.719C1501.97 975.531 1498.41 978.312 1493.5 978.312Z" fill="black"/>
<path d="M1464.22 973.781V970.531L1474 955.375H1479.06V970.438H1482.03V973.781H1479.06V978H1475.19V973.781H1464.22ZM1468.38 970.438H1475.25V960H1475L1468.38 970.281V970.438Z" fill="black"/>
<path d="M1452.91 978.312C1448.38 978.312 1445.06 975.625 1444.94 971.875H1448.91C1449.03 973.719 1450.75 975.031 1452.91 975.031C1455.44 975.031 1457.25 973.188 1457.25 970.688C1457.25 968.094 1455.38 966.25 1452.78 966.25C1451.03 966.219 1449.75 966.844 1449.03 968.188H1445.25L1446.62 955.375H1460V958.781H1449.97L1449.28 964.781H1449.5C1450.38 963.781 1452.03 963.062 1453.88 963.062C1458.09 963.062 1461.19 966.219 1461.19 970.562C1461.19 975.094 1457.78 978.312 1452.91 978.312Z" fill="black"/>
</g>
<g id="mirae_hall_531">
<path d="M1343 645C1343 640.582 1346.58 637 1351 637H1678C1682.42 637 1686 640.582 1686 645V819C1686 823.418 1682.42 827 1678 827H1351C1346.58 827 1343 823.418 1343 819V645Z" fill="#F7FBFF"/>
<path d="M1678 824V827H1351L1351 824H1678ZM1683 819V645C1683 642.239 1680.76 640 1678 640H1351C1348.24 640 1346 642.239 1346 645V819C1346 821.761 1348.24 824 1351 824L1351 827L1350.59 826.989C1346.36 826.775 1343 823.28 1343 819V645C1343 640.582 1346.58 637 1351 637H1678C1682.42 637 1686 640.582 1686 645V819C1686 823.418 1682.42 827 1678 827V824C1680.76 824 1683 821.761 1683 819Z" fill="#2E2F33" fill-opacity="0.88"/>
<path d="M1538.03 720.375V743H1533.94V724.344H1533.81L1528.53 727.719V724L1534.12 720.375H1538.03Z" fill="black"/>
<path d="M1516.84 743.312C1512 743.312 1508.56 740.688 1508.47 736.875H1512.56C1512.69 738.688 1514.5 739.875 1516.84 739.875C1519.34 739.875 1521.12 738.5 1521.12 736.5C1521.12 734.469 1519.38 733 1516.44 733H1514.41V729.875H1516.44C1518.84 729.875 1520.53 728.531 1520.5 726.562C1520.53 724.656 1519.09 723.375 1516.88 723.375C1514.75 723.375 1512.91 724.562 1512.84 726.469H1508.94C1509.03 722.656 1512.47 720.062 1516.91 720.062C1521.5 720.062 1524.47 722.875 1524.44 726.344C1524.47 728.875 1522.78 730.719 1520.31 731.219V731.406C1523.5 731.844 1525.31 733.875 1525.28 736.719C1525.31 740.531 1521.75 743.312 1516.84 743.312Z" fill="black"/>
<path d="M1496.91 743.312C1492.38 743.312 1489.06 740.625 1488.94 736.875H1492.91C1493.03 738.719 1494.75 740.031 1496.91 740.031C1499.44 740.031 1501.25 738.188 1501.25 735.688C1501.25 733.094 1499.38 731.25 1496.78 731.25C1495.03 731.219 1493.75 731.844 1493.03 733.188H1489.25L1490.62 720.375H1504V723.781H1493.97L1493.28 729.781H1493.5C1494.38 728.781 1496.03 728.062 1497.88 728.062C1502.09 728.062 1505.19 731.219 1505.19 735.562C1505.19 740.094 1501.78 743.312 1496.91 743.312Z" fill="black"/>
</g>
<g id="mirae_hall_541">
<path d="M1606 887C1606 882.582 1609.58 879 1614 879H1871C1875.42 879 1879 882.582 1879 887V1047C1879 1051.42 1875.42 1055 1871 1055H1614C1609.58 1055 1606 1051.42 1606 1047V887Z" fill="#F7FBFF"/>
<path d="M1871 1052V1055H1614L1614 1052H1871ZM1876 1047V887C1876 884.239 1873.76 882 1871 882H1614C1611.24 882 1609 884.239 1609 887V1047C1609 1049.76 1611.24 1052 1614 1052L1614 1055L1613.59 1054.99C1609.36 1054.77 1606 1051.28 1606 1047V887C1606 882.582 1609.58 879 1614 879H1871C1875.42 879 1879 882.582 1879 887V1047C1879 1051.42 1875.42 1055 1871 1055V1052C1873.76 1052 1876 1049.76 1876 1047Z" fill="#2E2F33" fill-opacity="0.88"/>
<path d="M1766.16 955.375V978H1762.06V959.344H1761.94L1756.66 962.719V959L1762.25 955.375H1766.16Z" fill="black"/>
<path d="M1736.22 973.781V970.531L1746 955.375H1751.06V970.438H1754.03V973.781H1751.06V978H1747.19V973.781H1736.22ZM1740.38 970.438H1747.25V960H1747L1740.38 970.281V970.438Z" fill="black"/>
<path d="M1724.91 978.312C1720.38 978.312 1717.06 975.625 1716.94 971.875H1720.91C1721.03 973.719 1722.75 975.031 1724.91 975.031C1727.44 975.031 1729.25 973.188 1729.25 970.688C1729.25 968.094 1727.38 966.25 1724.78 966.25C1723.03 966.219 1721.75 966.844 1721.03 968.188H1717.25L1718.62 955.375H1732V958.781H1721.97L1721.28 964.781H1721.5C1722.38 963.781 1724.03 963.062 1725.88 963.062C1730.09 963.062 1733.19 966.219 1733.19 970.562C1733.19 975.094 1729.78 978.312 1724.91 978.312Z" fill="black"/>
</g>
<g id="mirae_hall_534">
<path d="M1682 645C1682 640.582 1685.58 637 1690 637H1996C2000.42 637 2004 640.582 2004 645V819C2004 823.418 2000.42 827 1996 827H1690C1685.58 827 1682 823.418 1682 819V645Z" fill="#F7FBFF"/>
<path d="M1996 824V827H1690L1690 824H1996ZM2001 819V645C2001 642.239 1998.76 640 1996 640H1690C1687.24 640 1685 642.239 1685 645V819C1685 821.761 1687.24 824 1690 824L1690 827L1689.59 826.989C1685.36 826.775 1682 823.28 1682 819V645C1682 640.582 1685.58 637 1690 637H1996C2000.42 637 2004 640.582 2004 645V819C2004 823.418 2000.42 827 1996 827V824C1998.76 824 2001 821.761 2001 819Z" fill="#2E2F33" fill-opacity="0.88"/>
<path d="M1853.44 738.781V735.531L1863.22 720.375H1868.28V735.438H1871.25V738.781H1868.28V743H1864.41V738.781H1853.44ZM1857.59 735.438H1864.47V725H1864.22L1857.59 735.281V735.438Z" fill="black"/>
<path d="M1841.84 743.312C1837 743.312 1833.56 740.688 1833.47 736.875H1837.56C1837.69 738.688 1839.5 739.875 1841.84 739.875C1844.34 739.875 1846.12 738.5 1846.12 736.5C1846.12 734.469 1844.38 733 1841.44 733H1839.41V729.875H1841.44C1843.84 729.875 1845.53 728.531 1845.5 726.562C1845.53 724.656 1844.09 723.375 1841.88 723.375C1839.75 723.375 1837.91 724.562 1837.84 726.469H1833.94C1834.03 722.656 1837.47 720.062 1841.91 720.062C1846.5 720.062 1849.47 722.875 1849.44 726.344C1849.47 728.875 1847.78 730.719 1845.31 731.219V731.406C1848.5 731.844 1850.31 733.875 1850.28 736.719C1850.31 740.531 1846.75 743.312 1841.84 743.312Z" fill="black"/>
<path d="M1821.91 743.312C1817.38 743.312 1814.06 740.625 1813.94 736.875H1817.91C1818.03 738.719 1819.75 740.031 1821.91 740.031C1824.44 740.031 1826.25 738.188 1826.25 735.688C1826.25 733.094 1824.38 731.25 1821.78 731.25C1820.03 731.219 1818.75 731.844 1818.03 733.188H1814.25L1815.62 720.375H1829V723.781H1818.97L1818.28 729.781H1818.5C1819.38 728.781 1821.03 728.062 1822.88 728.062C1827.09 728.062 1830.19 731.219 1830.19 735.562C1830.19 740.094 1826.78 743.312 1821.91 743.312Z" fill="black"/>
</g>
<g id="mirae_hall_540">
<path d="M1876 887C1876 882.582 1879.58 879 1884 879H2010C2014.42 879 2018 882.582 2018 887V936C2018 940.418 2014.42 944 2010 944H1884C1879.58 944 1876 940.418 1876 936V887Z" fill="#F7FBFF"/>
<path d="M2010 941V944H1884L1884 941H2010ZM2015 936V887C2015 884.239 2012.76 882 2010 882H1884C1881.24 882 1879 884.239 1879 887V936C1879 938.761 1881.24 941 1884 941L1884 944L1883.59 943.989C1879.36 943.775 1876 940.28 1876 936V887C1876 882.582 1879.58 879 1884 879H2010C2014.42 879 2018 882.582 2018 887V936C2018 940.418 2014.42 944 2010 944V941C2012.76 941 2015 938.761 2015 936Z" fill="#2E2F33" fill-opacity="0.88"/>
<path d="M1966.62 922.312C1961.19 922.312 1957.94 918.094 1957.94 910.688C1957.94 903.312 1961.19 899.062 1966.62 899.062C1972.03 899.062 1975.31 903.312 1975.31 910.688C1975.31 918.094 1972.06 922.312 1966.62 922.312ZM1966.62 918.906C1969.47 918.906 1971.22 916.125 1971.22 910.688C1971.22 905.281 1969.44 902.438 1966.62 902.438C1963.81 902.438 1962.03 905.281 1962.03 910.688C1962.03 916.125 1963.78 918.906 1966.62 918.906Z" fill="black"/>
<path d="M1937.22 917.781V914.531L1947 899.375H1952.06V914.438H1955.03V917.781H1952.06V922H1948.19V917.781H1937.22ZM1941.38 914.438H1948.25V904H1948L1941.38 914.281V914.438Z" fill="black"/>
<path d="M1925.91 922.312C1921.38 922.312 1918.06 919.625 1917.94 915.875H1921.91C1922.03 917.719 1923.75 919.031 1925.91 919.031C1928.44 919.031 1930.25 917.188 1930.25 914.688C1930.25 912.094 1928.38 910.25 1925.78 910.25C1924.03 910.219 1922.75 910.844 1922.03 912.188H1918.25L1919.62 899.375H1933V902.781H1922.97L1922.28 908.781H1922.5C1923.38 907.781 1925.03 907.062 1926.88 907.062C1931.09 907.062 1934.19 910.219 1934.19 914.562C1934.19 919.094 1930.78 922.312 1925.91 922.312Z" fill="black"/>
</g>
<g id="mirae_hall_537">
<path d="M2001 645C2001 640.582 2004.58 637 2009 637H2135C2139.42 637 2143 640.582 2143 645V819C2143 823.418 2139.42 827 2135 827H2009C2004.58 827 2001 823.418 2001 819V645Z" fill="#F7FBFF"/>
<path d="M2135 824V827H2009L2009 824H2135ZM2140 819V645C2140 642.239 2137.76 640 2135 640H2009C2006.24 640 2004 642.239 2004 645V819C2004 821.761 2006.24 824 2009 824L2009 827L2008.59 826.989C2004.36 826.775 2001 823.28 2001 819V645C2001 640.582 2004.58 637 2009 637H2135C2139.42 637 2143 640.582 2143 645V819C2143 823.418 2139.42 827 2135 827V824C2137.76 824 2140 821.761 2140 819Z" fill="#2E2F33" fill-opacity="0.88"/>
<path d="M2084.69 743L2094.5 723.938V723.781H2083.12V720.375H2098.72V723.844L2088.91 743H2084.69Z" fill="black"/>
<path d="M2071.84 743.312C2067 743.312 2063.56 740.688 2063.47 736.875H2067.56C2067.69 738.688 2069.5 739.875 2071.84 739.875C2074.34 739.875 2076.12 738.5 2076.12 736.5C2076.12 734.469 2074.38 733 2071.44 733H2069.41V729.875H2071.44C2073.84 729.875 2075.53 728.531 2075.5 726.562C2075.53 724.656 2074.09 723.375 2071.88 723.375C2069.75 723.375 2067.91 724.562 2067.84 726.469H2063.94C2064.03 722.656 2067.47 720.062 2071.91 720.062C2076.5 720.062 2079.47 722.875 2079.44 726.344C2079.47 728.875 2077.78 730.719 2075.31 731.219V731.406C2078.5 731.844 2080.31 733.875 2080.28 736.719C2080.31 740.531 2076.75 743.312 2071.84 743.312Z" fill="black"/>
<path d="M2051.91 743.312C2047.38 743.312 2044.06 740.625 2043.94 736.875H2047.91C2048.03 738.719 2049.75 740.031 2051.91 740.031C2054.44 740.031 2056.25 738.188 2056.25 735.688C2056.25 733.094 2054.38 731.25 2051.78 731.25C2050.03 731.219 2048.75 731.844 2048.03 733.188H2044.25L2045.62 720.375H2059V723.781H2048.97L2048.28 729.781H2048.5C2049.38 728.781 2051.03 728.062 2052.88 728.062C2057.09 728.062 2060.19 731.219 2060.19 735.562C2060.19 740.094 2056.78 743.312 2051.91 743.312Z" fill="black"/>
</g>
<g id="mirae_hall_538">
<path d="M2140 645C2140 640.582 2143.58 637 2148 637H2423C2427.42 637 2431 640.582 2431 645V819C2431 823.418 2427.42 827 2423 827H2148C2143.58 827 2140 823.418 2140 819V645Z" fill="#F7FBFF"/>
<path d="M2423 824V827H2148L2148 824H2423ZM2428 819V645C2428 642.239 2425.76 640 2423 640H2148C2145.24 640 2143 642.239 2143 645V819C2143 821.761 2145.24 824 2148 824L2148 827L2147.59 826.989C2143.36 826.775 2140 823.28 2140 819V645C2140 640.582 2143.58 637 2148 637H2423C2427.42 637 2431 640.582 2431 645V819C2431 823.418 2427.42 827 2423 827V824C2425.76 824 2428 821.761 2428 819Z" fill="#2E2F33" fill-opacity="0.88"/>
<path d="M2305.06 743.312C2300.03 743.312 2296.47 740.625 2296.47 736.938C2296.47 734.062 2298.59 731.719 2301.31 731.281V731.156C2298.94 730.656 2297.31 728.594 2297.31 726.125C2297.31 722.625 2300.59 720.062 2305.06 720.062C2309.5 720.062 2312.78 722.625 2312.78 726.125C2312.78 728.594 2311.12 730.656 2308.78 731.156V731.281C2311.5 731.719 2313.66 734.062 2313.66 736.938C2313.66 740.625 2310.06 743.312 2305.06 743.312ZM2305.06 740.094C2307.72 740.094 2309.47 738.656 2309.47 736.562C2309.47 734.438 2307.59 732.875 2305.06 732.875C2302.5 732.875 2300.62 734.438 2300.66 736.562C2300.62 738.656 2302.38 740.094 2305.06 740.094ZM2305.06 729.844C2307.25 729.844 2308.81 728.469 2308.81 726.5C2308.81 724.594 2307.28 723.25 2305.06 723.25C2302.81 723.25 2301.28 724.562 2301.28 726.5C2301.28 728.469 2302.84 729.844 2305.06 729.844Z" fill="black"/>
<path d="M2284.84 743.312C2280 743.312 2276.56 740.688 2276.47 736.875H2280.56C2280.69 738.688 2282.5 739.875 2284.84 739.875C2287.34 739.875 2289.12 738.5 2289.12 736.5C2289.12 734.469 2287.38 733 2284.44 733H2282.41V729.875H2284.44C2286.84 729.875 2288.53 728.531 2288.5 726.562C2288.53 724.656 2287.09 723.375 2284.88 723.375C2282.75 723.375 2280.91 724.562 2280.84 726.469H2276.94C2277.03 722.656 2280.47 720.062 2284.91 720.062C2289.5 720.062 2292.47 722.875 2292.44 726.344C2292.47 728.875 2290.78 730.719 2288.31 731.219V731.406C2291.5 731.844 2293.31 733.875 2293.28 736.719C2293.31 740.531 2289.75 743.312 2284.84 743.312Z" fill="black"/>
<path d="M2264.91 743.312C2260.38 743.312 2257.06 740.625 2256.94 736.875H2260.91C2261.03 738.719 2262.75 740.031 2264.91 740.031C2267.44 740.031 2269.25 738.188 2269.25 735.688C2269.25 733.094 2267.38 731.25 2264.78 731.25C2263.03 731.219 2261.75 731.844 2261.03 733.188H2257.25L2258.62 720.375H2272V723.781H2261.97L2261.28 729.781H2261.5C2262.38 728.781 2264.03 728.062 2265.88 728.062C2270.09 728.062 2273.19 731.219 2273.19 735.562C2273.19 740.094 2269.78 743.312 2264.91 743.312Z" fill="black"/>
</g>
<g id="Vector_8">
<path d="M902 14C902 9.58172 905.582 6 910 6H1096C1100.42 6 1104 9.58172 1104 14V122C1104 126.418 1100.42 130 1096 130H910C905.582 130 902 126.418 902 122V14Z" fill="#92D3F5"/>
<path d="M1096 127V130H910L910 127H1096ZM1101 122V14C1101 11.2386 1098.76 9 1096 9H910C907.239 9 905 11.2386 905 14V122C905 124.761 907.239 127 910 127L910 130L909.588 129.989C905.361 129.775 902 126.28 902 122V14C902 9.58172 905.582 6 910 6H1096C1100.42 6 1104 9.58172 1104 14V122C1104 126.418 1100.42 130 1096 130V127C1098.76 127 1101 124.761 1101 122Z" fill="#2E2F33" fill-opacity="0.88"/>
<path d="M1013.59 58.0312C1013.59 61.5938 1015.91 64.9375 1020.25 66.3125L1018.38 69.0312C1015.33 68 1013.14 65.9375 1011.94 63.3125C1010.69 66.3125 1008.41 68.6719 1005.16 69.8125L1003.28 67.0938C1007.84 65.5 1010.09 61.75 1010.12 57.7188V55.0312H1013.59V58.0312ZM1025.88 53.5312V60.4062H1029.81V63.2812H1025.88V70.4375H1022.41V53.5312H1025.88ZM1016.69 71.0625C1022.53 71.0312 1026.12 73.0312 1026.16 76.375C1026.12 79.7812 1022.53 81.75 1016.69 81.75C1010.78 81.75 1007.12 79.7812 1007.12 76.375C1007.12 73.0312 1010.78 71.0312 1016.69 71.0625ZM1016.69 73.7812C1012.81 73.7812 1010.59 74.7188 1010.59 76.375C1010.59 78.125 1012.81 79 1016.69 79C1020.56 79 1022.72 78.125 1022.72 76.375C1022.72 74.7188 1020.56 73.7812 1016.69 73.7812Z" fill="black"/>
<path d="M988.781 54.125C994.969 54.125 998.938 56.25 998.969 59.75C998.938 62.875 995.703 64.8906 990.531 65.25V67.5625H1001.69V70.3438H975.938V67.5625H987.031V65.25C981.844 64.8906 978.594 62.875 978.594 59.75C978.594 56.25 982.594 54.125 988.781 54.125ZM988.781 56.9062C984.656 56.9062 982.188 57.875 982.219 59.75C982.188 61.5312 984.656 62.5938 988.781 62.5938C992.906 62.5938 995.375 61.5312 995.375 59.75C995.375 57.875 992.906 56.9062 988.781 56.9062ZM998.531 72.5625V81.7812H995.062V75.3125H978.781V72.5625H998.531Z" fill="black"/>
</g>
<g id="mirae_hall_5f_stairs_left">
<path d="M6 299C6 294.582 9.58172 291 14 291H93C97.4183 291 101 294.582 101 299V424C101 428.418 97.4183 432 93 432H14C9.58172 432 6 428.418 6 424V299Z" fill="#D9FFE6"/>
<path d="M93 429V432H14L14 429H93ZM98 424V299C98 296.239 95.7614 294 93 294H14C11.2386 294 9 296.239 9 299V424C9 426.761 11.2386 429 14 429L14 432L13.5879 431.989C9.36114 431.775 6 428.28 6 424V299C6 294.582 9.58172 291 14 291H93C97.4183 291 101 294.582 101 299V424C101 428.418 97.4183 432 93 432V429C95.7614 429 98 426.761 98 424Z" fill="#2E2F33" fill-opacity="0.88"/>
<path d="M76.94 334.634C75.8915 334.247 74.7275 334.787 74.3405 335.836L70.58 346.056H49.2815L52.805 337.29C53.222 336.252 52.7195 335.071 51.6815 334.654C50.6435 334.237 49.4645 334.743 49.0475 335.778L29.432 384.581C29.015 385.619 29.5175 386.8 30.5555 387.217C30.803 387.316 31.058 387.364 31.31 387.364C32.1125 387.364 32.873 386.884 33.1895 386.093L37.2185 376.071C37.3055 376.083 37.382 376.121 37.472 376.121H59.519L56.3855 384.64C56 385.688 56.537 386.854 57.587 387.238C57.818 387.324 58.055 387.364 58.286 387.364C59.1095 387.364 59.885 386.855 60.1865 386.036L78.1415 337.233C78.527 336.184 77.99 335.018 76.94 334.634ZM48.074 350.104H69.089L65.849 358.91H44.114L47.6855 350.026C47.816 350.052 47.936 350.104 48.074 350.104ZM38.825 372.072L42.5105 362.903C42.6065 362.917 42.6935 362.961 42.794 362.961H64.361L61.0085 372.072H38.825Z" fill="#6E4944"/>
</g>
</g>
</svg>
