<svg width="2520" height="1145" viewBox="0 0 2520 1145" fill="none" xmlns="http://www.w3.org/2000/svg">
<g id="mirae_hall_floor_3">
<g id="Vector">
<path d="M2434 209.5H2011.5H2012.5H2434Z" fill="#474747"/>
<path d="M3 434.5H1098V818H989.5V1058.5H1882V946.5H2012.5V1141.5H2299.5V889H2517V706H2434V209.5H2012.5L2011.5 634H1340.5V3H3V434.5Z" fill="#999999"/>
<path d="M1343.5 0V631H2008.51L2009.5 209.493L2011.5 209.497V206.5H2437V703H2520V892H2302.5V1144.5H2009.5V949.5H1885V1061.5H986.5V815H1095V437.5H0V0H1343.5ZM6 431.5H1101V821H992.5V1055.5H1879V943.5H2015.5V1138.5H2296.5V886H2514V709H2431V212.5H2015.49L2014.49 637H1337.5V6H6V431.5Z" fill="black"/>
</g>
<g id="Vector_2">
<path d="M1267 14C1267 9.58172 1270.58 6 1275 6H1330C1334.42 6 1338 9.58172 1338 14V125C1338 129.418 1334.42 133 1330 133H1275C1270.58 133 1267 129.418 1267 125V14Z" fill="#474747"/>
<path d="M1330 130V133H1275L1275 130H1330ZM1335 125V14C1335 11.2386 1332.76 9 1330 9H1275C1272.24 9 1270 11.2386 1270 14V125C1270 127.761 1272.24 130 1275 130L1275 133C1270.58 133 1267 129.418 1267 125V14C1267 9.58172 1270.58 6 1275 6H1330L1330.41 6.01074C1334.64 6.22523 1338 9.71994 1338 14V125C1338 129.418 1334.42 133 1330 133V130C1332.76 130 1335 127.761 1335 125Z" fill="#2E2F33" fill-opacity="0.88"/>
</g>
<g id="Vector_3">
<path d="M1204 244C1204 239.582 1207.58 236 1212 236H1330C1334.42 236 1338 239.582 1338 244V271C1338 275.418 1334.42 279 1330 279H1212C1207.58 279 1204 275.418 1204 271V244Z" fill="#474747"/>
<path d="M1330 276V279H1212L1212 276H1330ZM1335 271V244C1335 241.239 1332.76 239 1330 239H1212C1209.24 239 1207 241.239 1207 244V271C1207 273.761 1209.24 276 1212 276L1212 279C1207.58 279 1204 275.418 1204 271V244C1204 239.582 1207.58 236 1212 236H1330C1334.42 236 1338 239.582 1338 244V271C1338 275.418 1334.42 279 1330 279V276C1332.76 276 1335 273.761 1335 271Z" fill="#2E2F33" fill-opacity="0.88"/>
</g>
<g id="Vector_4">
<path d="M1204 14C1204 9.58172 1207.58 6 1212 6H1262C1266.42 6 1270 9.58172 1270 14V62C1270 66.4183 1266.42 70 1262 70H1212C1207.58 70 1204 66.4183 1204 62V14Z" fill="#474747"/>
<path d="M1262 67V70H1212V67H1262ZM1267 62V14C1267 11.2386 1264.76 9 1262 9H1212C1209.24 9 1207 11.2386 1207 14V62C1207 64.7614 1209.24 67 1212 67V70C1207.58 70 1204 66.4183 1204 62V14C1204 9.58172 1207.58 6 1212 6H1262C1266.42 6 1270 9.58172 1270 14V62C1270 66.4183 1266.42 70 1262 70V67C1264.76 67 1267 64.7614 1267 62Z" fill="#2E2F33" fill-opacity="0.88"/>
</g>
<g id="Vector_5">
<path d="M992 983C992 978.582 995.582 975 1000 975H1026C1030.42 975 1034 978.582 1034 983V1047C1034 1051.42 1030.42 1055 1026 1055H1000C995.582 1055 992 1051.42 992 1047V983Z" fill="#474747"/>
<path d="M1026 1052V1055H1000L1000 1052H1026ZM1031 1047V983C1031 980.239 1028.76 978 1026 978H1000C997.239 978 995 980.239 995 983V1047C995 1049.76 997.239 1052 1000 1052L1000 1055L999.588 1054.99C995.361 1054.77 992 1051.28 992 1047V983C992 978.582 995.582 975 1000 975H1026C1030.42 975 1034 978.582 1034 983V1047C1034 1051.42 1030.42 1055 1026 1055V1052C1028.76 1052 1031 1049.76 1031 1047Z" fill="#2E2F33" fill-opacity="0.88"/>
</g>
<g id="mirae_hall_3f_toilet_left_girl">
<path d="M902 14C902 9.58172 905.582 6 910 6H1096C1100.42 6 1104 9.58172 1104 14V122C1104 126.418 1100.42 130 1096 130H910C905.582 130 902 126.418 902 122V14Z" fill="#FED9C4"/>
<path d="M1096 127V130H910L910 127H1096ZM1101 122V14C1101 11.2386 1098.76 9 1096 9H910C907.239 9 905 11.2386 905 14V122C905 124.761 907.239 127 910 127L910 130L909.588 129.989C905.361 129.775 902 126.28 902 122V14C902 9.71994 905.361 6.22523 909.588 6.01074L910 6H1096C1100.42 6 1104 9.58172 1104 14V122C1104 126.418 1100.42 130 1096 130V127C1098.76 127 1101 124.761 1101 122Z" fill="#2E2F33" fill-opacity="0.88"/>
<path d="M1015.75 43.25H990.25C983.623 43.25 978.25 48.6226 978.25 55.25V80.75C978.25 87.3774 983.623 92.75 990.25 92.75H1015.75C1022.38 92.75 1027.75 87.3774 1027.75 80.75V55.25C1027.75 48.6226 1022.38 43.25 1015.75 43.25Z" fill="#E76D6D"/>
<path d="M1000.27 65.9765L994.809 78.524C993.953 80.4875 995.392 82.685 997.534 82.685H1008.46C1010.61 82.685 1012.05 80.4875 1011.19 78.524L1005.72 65.9765C1004.69 63.5945 1001.31 63.5945 1000.27 65.9765H1000.27Z" fill="white"/>
<path d="M1003 61.3805C1005.23 61.3805 1007.03 59.5753 1007.03 57.3485C1007.03 55.1217 1005.23 53.3165 1003 53.3165C1000.77 53.3165 998.968 55.1217 998.968 57.3485C998.968 59.5753 1000.77 61.3805 1003 61.3805Z" fill="white"/>
</g>
<g id="mirae_hall_3f_toilet_right_girl">
<path d="M1155 887C1155 882.582 1158.58 879 1163 879H1333C1337.42 879 1341 882.582 1341 887V963C1341 967.418 1337.42 971 1333 971H1163C1158.58 971 1155 967.418 1155 963V887Z" fill="#FED9C4"/>
<path d="M1333 968V971H1163L1163 968H1333ZM1338 963V887C1338 884.239 1335.76 882 1333 882H1163C1160.24 882 1158 884.239 1158 887V963C1158 965.761 1160.24 968 1163 968L1163 971C1158.58 971 1155 967.418 1155 963V887C1155 882.582 1158.58 879 1163 879H1333C1337.42 879 1341 882.582 1341 887V963C1341 967.418 1337.42 971 1333 971V968C1335.76 968 1338 965.761 1338 963Z" fill="#2E2F33" fill-opacity="0.88"/>
<path d="M1260.75 900.25H1235.25C1228.62 900.25 1223.25 905.623 1223.25 912.25V937.75C1223.25 944.377 1228.62 949.75 1235.25 949.75H1260.75C1267.38 949.75 1272.75 944.377 1272.75 937.75V912.25C1272.75 905.623 1267.38 900.25 1260.75 900.25Z" fill="#E76D6D"/>
<path d="M1245.27 922.976L1239.81 935.524C1238.95 937.488 1240.39 939.685 1242.53 939.685H1253.46C1255.61 939.685 1257.05 937.488 1256.19 935.524L1250.72 922.976C1249.69 920.594 1246.31 920.594 1245.27 922.976H1245.27Z" fill="white"/>
<path d="M1248 918.381C1250.23 918.381 1252.03 916.575 1252.03 914.348C1252.03 912.122 1250.23 910.317 1248 910.317C1245.77 910.317 1243.97 912.122 1243.97 914.348C1243.97 916.575 1245.77 918.381 1248 918.381Z" fill="white"/>
</g>
<g id="mirae_hall_3f_toilet_left_boy">
<path d="M902 135C902 130.582 905.582 127 910 127H1096C1100.42 127 1104 130.582 1104 135V235C1104 239.418 1100.42 243 1096 243H910C905.582 243 902 239.418 902 235V135Z" fill="#FED9C4"/>
<path d="M1096 240V243H910L910 240H1096ZM1101 235V135C1101 132.239 1098.76 130 1096 130H910C907.239 130 905 132.239 905 135V235C905 237.761 907.239 240 910 240L910 243L909.588 242.989C905.361 242.775 902 239.28 902 235V135C902 130.582 905.582 127 910 127H1096C1100.42 127 1104 130.582 1104 135V235C1104 239.418 1100.42 243 1096 243V240C1098.76 240 1101 237.761 1101 235Z" fill="#2E2F33" fill-opacity="0.88"/>
<path d="M1015.75 160.25H990.25C983.623 160.25 978.25 165.623 978.25 172.25V197.75C978.25 204.377 983.623 209.75 990.25 209.75H1015.75C1022.38 209.75 1027.75 204.377 1027.75 197.75V172.25C1027.75 165.623 1022.38 160.25 1015.75 160.25Z" fill="#3076D1"/>
<path d="M1005.73 197.889L1011.19 185.342C1012.05 183.378 1010.61 181.181 1008.47 181.181H997.535C995.394 181.181 993.953 183.378 994.81 185.342L1000.28 197.889C1001.31 200.271 1004.69 200.271 1005.73 197.889H1005.73Z" fill="white"/>
<path d="M1003 178.388C1005.23 178.388 1007.03 176.583 1007.03 174.356C1007.03 172.129 1005.23 170.324 1003 170.324C1000.77 170.324 998.968 172.129 998.968 174.356C998.968 176.583 1000.77 178.388 1003 178.388Z" fill="white"/>
</g>
<g id="mirae_hall_3f_toilet_right_boy">
<path d="M1155 976C1155 971.582 1158.58 968 1163 968H1333C1337.42 968 1341 971.582 1341 976V1047C1341 1051.42 1337.42 1055 1333 1055H1163C1158.58 1055 1155 1051.42 1155 1047V976Z" fill="#FED9C4"/>
<path d="M1333 1052V1055H1163L1163 1052H1333ZM1338 1047V976C1338 973.239 1335.76 971 1333 971H1163C1160.24 971 1158 973.239 1158 976V1047C1158 1049.76 1160.24 1052 1163 1052L1163 1055C1158.58 1055 1155 1051.42 1155 1047V976C1155 971.582 1158.58 968 1163 968H1333C1337.42 968 1341 971.582 1341 976V1047C1341 1051.42 1337.42 1055 1333 1055V1052C1335.76 1052 1338 1049.76 1338 1047Z" fill="#2E2F33" fill-opacity="0.88"/>
<path d="M1260.75 986.25H1235.25C1228.62 986.25 1223.25 991.623 1223.25 998.25V1023.75C1223.25 1030.38 1228.62 1035.75 1235.25 1035.75H1260.75C1267.38 1035.75 1272.75 1030.38 1272.75 1023.75V998.25C1272.75 991.623 1267.38 986.25 1260.75 986.25Z" fill="#3076D1"/>
<path d="M1250.73 1023.89L1256.19 1011.34C1257.05 1009.38 1255.61 1007.18 1253.47 1007.18H1242.54C1240.39 1007.18 1238.95 1009.38 1239.81 1011.34L1245.28 1023.89C1246.31 1026.27 1249.69 1026.27 1250.73 1023.89H1250.73Z" fill="white"/>
<path d="M1248 1004.39C1250.23 1004.39 1252.03 1002.58 1252.03 1000.36C1252.03 998.129 1250.23 996.324 1248 996.324C1245.77 996.324 1243.97 998.129 1243.97 1000.36C1243.97 1002.58 1245.77 1004.39 1248 1004.39Z" fill="white"/>
</g>
<g id="mirae_hall_3f_elevator_left">
<path d="M1204 75C1204 70.5817 1207.58 67 1212 67H1262C1266.42 67 1270 70.5817 1270 75V125C1270 129.418 1266.42 133 1262 133H1212C1207.58 133 1204 129.418 1204 125V75Z" fill="#F2F2F2"/>
<path d="M1262 130V133H1212V130H1262ZM1267 125V75C1267 72.2386 1264.76 70 1262 70H1212C1209.24 70 1207 72.2386 1207 75V125C1207 127.761 1209.24 130 1212 130V133C1207.58 133 1204 129.418 1204 125V75C1204 70.5817 1207.58 67 1212 67H1262C1266.42 67 1270 70.5817 1270 75V125C1270 129.418 1266.42 133 1262 133V130C1264.76 130 1267 127.761 1267 125Z" fill="#2E2F33" fill-opacity="0.88"/>
<path d="M1247.62 79.375H1226.38C1220.85 79.375 1216.38 83.8525 1216.38 89.375V110.625C1216.38 116.147 1220.85 120.625 1226.38 120.625H1247.62C1253.15 120.625 1257.62 116.147 1257.62 110.625V89.375C1257.62 83.8525 1253.15 79.375 1247.62 79.375ZM1238.02 87.4338H1239.17C1239.29 87.4338 1239.38 87.3412 1239.38 87.2262V84.675C1239.38 84.5775 1239.46 84.4987 1239.56 84.4987H1241.45C1241.55 84.4987 1241.62 84.5775 1241.62 84.675V87.2262C1241.62 87.3412 1241.72 87.4338 1241.83 87.4338H1242.99C1243.15 87.4338 1243.24 87.6338 1243.12 87.7513L1240.76 90.11C1240.62 90.2513 1240.39 90.2513 1240.25 90.11L1237.89 87.7513C1237.77 87.6338 1237.85 87.4338 1238.02 87.4338ZM1230.33 86.9637L1232.69 84.605C1232.83 84.4637 1233.06 84.4637 1233.2 84.605L1235.56 86.9637C1235.67 87.0812 1235.59 87.2812 1235.42 87.2812H1234.27C1234.16 87.2812 1234.06 87.3738 1234.06 87.4888V90.04C1234.06 90.1375 1233.98 90.2163 1233.89 90.2163H1232C1231.9 90.2163 1231.82 90.1375 1231.82 90.04V87.4888C1231.82 87.3738 1231.73 87.2812 1231.61 87.2812H1230.46C1230.29 87.2812 1230.21 87.0812 1230.33 86.9637ZM1252.29 109.34C1252.29 112.355 1249.84 114.808 1246.82 114.808H1227.18C1224.16 114.808 1221.71 112.355 1221.71 109.34V97.54C1221.71 94.525 1224.16 92.0725 1227.18 92.0725H1246.82C1249.84 92.0725 1252.29 94.525 1252.29 97.54V109.34Z" fill="#4592FB"/>
<path d="M1246.82 93.04H1227.18C1224.69 93.04 1222.68 95.0588 1222.68 97.54V109.34C1222.68 111.821 1224.69 113.841 1227.18 113.841H1246.82C1249.3 113.841 1251.32 111.822 1251.32 109.34V97.54C1251.32 95.0588 1249.3 93.04 1246.82 93.04ZM1244.61 95.925C1245.24 95.925 1245.76 96.44 1245.76 97.075C1245.76 97.71 1245.24 98.225 1244.61 98.225C1243.98 98.225 1243.46 97.71 1243.46 97.075C1243.46 96.44 1243.98 95.925 1244.61 95.925ZM1236.87 95.925C1237.5 95.925 1238.02 96.44 1238.02 97.075C1238.02 97.71 1237.5 98.225 1236.87 98.225C1236.23 98.225 1235.72 97.71 1235.72 97.075C1235.72 96.44 1236.23 95.925 1236.87 95.925ZM1229.12 95.925C1229.76 95.925 1230.27 96.44 1230.27 97.075C1230.27 97.71 1229.76 98.225 1229.12 98.225C1228.49 98.225 1227.97 97.71 1227.97 97.075C1227.97 96.44 1228.49 95.925 1229.12 95.925ZM1232.45 104.081C1232.45 104.441 1232.16 104.734 1231.8 104.734C1231.44 104.734 1231.15 104.441 1231.15 104.081V100.663H1230.81V110.084C1230.81 110.477 1230.49 110.796 1230.1 110.796C1229.7 110.796 1229.38 110.477 1229.38 110.084V104.665H1228.86V110.084C1228.86 110.477 1228.54 110.796 1228.15 110.796C1227.75 110.796 1227.43 110.477 1227.43 110.084V100.663H1227V104.081C1227 104.441 1226.7 104.734 1226.34 104.734C1225.98 104.734 1225.69 104.441 1225.69 104.081V100.051C1225.69 99.33 1226.27 98.7463 1227 98.7463H1231.15C1231.87 98.7463 1232.45 99.33 1232.45 100.051V104.081H1232.45ZM1240.2 104.081C1240.2 104.441 1239.91 104.734 1239.55 104.734C1239.19 104.734 1238.89 104.441 1238.89 104.081V100.663H1238.55V110.084C1238.55 110.477 1238.23 110.796 1237.84 110.796C1237.45 110.796 1237.13 110.477 1237.13 110.084V104.665H1236.6V110.084C1236.6 110.477 1236.28 110.796 1235.89 110.796C1235.5 110.796 1235.18 110.477 1235.18 110.084V100.663H1234.74V104.081C1234.74 104.441 1234.45 104.734 1234.09 104.734C1233.73 104.734 1233.44 104.441 1233.44 104.081V100.051C1233.44 99.33 1234.02 98.7463 1234.74 98.7463H1238.89C1239.61 98.7463 1240.2 99.33 1240.2 100.051L1240.2 104.081ZM1247.94 104.081C1247.94 104.441 1247.65 104.734 1247.29 104.734C1246.93 104.734 1246.64 104.441 1246.64 104.081V100.663H1246.3V110.084C1246.3 110.477 1245.98 110.796 1245.58 110.796C1245.19 110.796 1244.87 110.477 1244.87 110.084V104.665H1244.35V110.084C1244.35 110.477 1244.03 110.796 1243.63 110.796C1243.24 110.796 1242.92 110.477 1242.92 110.084V100.663H1242.48V104.081C1242.48 104.441 1242.19 104.734 1241.83 104.734C1241.47 104.734 1241.18 104.441 1241.18 104.081V100.051C1241.18 99.33 1241.76 98.7463 1242.48 98.7463H1246.64C1247.36 98.7463 1247.94 99.33 1247.94 100.051V104.081H1247.94Z" fill="#4592FB"/>
<path d="M1236.87 98.225C1237.5 98.225 1238.02 97.71 1238.02 97.075C1238.02 96.44 1237.5 95.925 1236.87 95.925C1236.23 95.925 1235.72 96.44 1235.72 97.075C1235.72 97.71 1236.23 98.225 1236.87 98.225Z" fill="white"/>
<path d="M1229.12 98.225C1229.76 98.225 1230.27 97.71 1230.27 97.075C1230.27 96.44 1229.76 95.925 1229.12 95.925C1228.49 95.925 1227.97 96.44 1227.97 97.075C1227.97 97.71 1228.49 98.225 1229.12 98.225Z" fill="white"/>
<path d="M1244.61 98.225C1245.24 98.225 1245.76 97.71 1245.76 97.075C1245.76 96.44 1245.24 95.925 1244.61 95.925C1243.98 95.925 1243.46 96.44 1243.46 97.075C1243.46 97.71 1243.98 98.225 1244.61 98.225Z" fill="white"/>
<path d="M1246.83 92.075H1227.18C1224.16 92.075 1221.71 94.525 1221.71 97.5375V109.337C1221.71 112.35 1224.16 114.812 1227.18 114.812H1246.83C1249.84 114.812 1252.29 112.35 1252.29 109.337V97.5375C1252.29 94.525 1249.84 92.075 1246.83 92.075ZM1251.33 109.337C1251.33 111.825 1249.3 113.838 1246.83 113.838H1227.18C1224.7 113.838 1222.67 111.825 1222.67 109.337V97.5375C1222.67 95.0625 1224.7 93.0375 1227.18 93.0375H1246.83C1249.3 93.0375 1251.33 95.0625 1251.33 97.5375V109.337Z" fill="white"/>
<path d="M1247.94 100.05V104.075C1247.94 104.438 1247.65 104.737 1247.29 104.737C1246.92 104.737 1246.64 104.438 1246.64 104.075V100.663L1246.3 100.662V110.087C1246.3 110.475 1245.98 110.8 1245.59 110.8C1245.19 110.8 1244.88 110.475 1244.88 110.087V104.662H1244.35V110.087C1244.35 110.475 1244.02 110.8 1243.64 110.8C1243.24 110.8 1242.92 110.475 1242.92 110.087V100.662H1242.49V104.075C1242.49 104.438 1242.19 104.737 1241.84 104.737C1241.48 104.737 1241.17 104.438 1241.17 104.075V100.05C1241.17 99.325 1241.76 98.75 1242.49 98.75H1246.64C1247.36 98.75 1247.94 99.325 1247.94 100.05Z" fill="white"/>
<path d="M1232.45 100.05V104.075C1232.45 104.438 1232.16 104.737 1231.8 104.737C1231.44 104.737 1231.15 104.438 1231.15 104.075V100.663L1230.81 100.662V110.087C1230.81 110.475 1230.49 110.8 1230.1 110.8C1229.7 110.8 1229.39 110.475 1229.39 110.087V104.662H1228.86V110.087C1228.86 110.475 1228.54 110.8 1228.15 110.8C1227.75 110.8 1227.44 110.475 1227.44 110.087V100.662H1227V104.075C1227 104.438 1226.7 104.737 1226.35 104.737C1225.99 104.737 1225.69 104.438 1225.69 104.075V100.05C1225.69 99.325 1226.27 98.75 1227 98.75H1231.15C1231.88 98.75 1232.45 99.325 1232.45 100.05Z" fill="white"/>
<path d="M1240.2 100.05V104.075C1240.2 104.438 1239.91 104.737 1239.55 104.737C1239.19 104.737 1238.9 104.438 1238.9 104.075V100.662H1238.55V110.087C1238.55 110.475 1238.24 110.8 1237.84 110.8C1237.45 110.8 1237.12 110.475 1237.12 110.087V104.662H1236.6V110.087C1236.6 110.475 1236.29 110.8 1235.89 110.8C1235.5 110.8 1235.17 110.475 1235.17 110.087V100.662H1234.74V104.075C1234.74 104.438 1234.45 104.737 1234.09 104.737C1233.73 104.737 1233.44 104.438 1233.44 104.075V100.05C1233.44 99.325 1234.02 98.75 1234.74 98.75H1238.9C1239.61 98.75 1240.2 99.325 1240.2 100.05Z" fill="white"/>
<path d="M1230.46 87.2815H1231.61C1231.73 87.2815 1231.82 87.374 1231.82 87.489V90.0402C1231.82 90.1377 1231.9 90.2165 1232 90.2165H1233.89C1233.99 90.2165 1234.06 90.1377 1234.06 90.0402V87.489C1234.06 87.374 1234.16 87.2815 1234.27 87.2815H1235.42C1235.59 87.2815 1235.67 87.0802 1235.56 86.964L1233.2 84.6052C1233.06 84.464 1232.83 84.464 1232.69 84.6052L1230.33 86.964C1230.21 87.0815 1230.29 87.2815 1230.46 87.2815Z" fill="white"/>
<path d="M1240.25 90.11C1240.39 90.2513 1240.62 90.2513 1240.76 90.11L1243.11 87.7513C1243.23 87.6338 1243.15 87.4338 1242.98 87.4338H1241.83C1241.71 87.4338 1241.62 87.3412 1241.62 87.2262V84.675C1241.62 84.5775 1241.54 84.4988 1241.45 84.4988H1239.56C1239.46 84.4988 1239.38 84.5775 1239.38 84.675V87.2262C1239.38 87.3412 1239.29 87.4338 1239.17 87.4338H1238.02C1237.85 87.4338 1237.77 87.6338 1237.89 87.7513L1240.25 90.11Z" fill="white"/>
</g>
<g id="mirae_hall_3f_elevator_right">
<path d="M1031 983C1031 978.582 1034.58 975 1039 975H1095C1099.42 975 1103 978.582 1103 983V1047C1103 1051.42 1099.42 1055 1095 1055H1039C1034.58 1055 1031 1051.42 1031 1047V983Z" fill="#F2F2F2"/>
<path d="M1095 1052V1055H1039L1039 1052H1095ZM1100 1047V983C1100 980.239 1097.76 978 1095 978H1039C1036.24 978 1034 980.239 1034 983V1047C1034 1049.76 1036.24 1052 1039 1052L1039 1055L1038.59 1054.99C1034.36 1054.77 1031 1051.28 1031 1047V983C1031 978.582 1034.58 975 1039 975H1095C1099.42 975 1103 978.582 1103 983V1047C1103 1051.42 1099.42 1055 1095 1055V1052C1097.76 1052 1100 1049.76 1100 1047Z" fill="#2E2F33" fill-opacity="0.88"/>
<path d="M1077.62 994.375H1056.38C1050.85 994.375 1046.38 998.853 1046.38 1004.38V1025.62C1046.38 1031.15 1050.85 1035.62 1056.38 1035.62H1077.62C1083.15 1035.62 1087.62 1031.15 1087.62 1025.62V1004.38C1087.62 998.853 1083.15 994.375 1077.62 994.375ZM1068.02 1002.43H1069.17C1069.29 1002.43 1069.38 1002.34 1069.38 1002.23V999.675C1069.38 999.577 1069.46 999.499 1069.56 999.499H1071.45C1071.55 999.499 1071.62 999.577 1071.62 999.675V1002.23C1071.62 1002.34 1071.72 1002.43 1071.83 1002.43H1072.99C1073.15 1002.43 1073.24 1002.63 1073.12 1002.75L1070.76 1005.11C1070.62 1005.25 1070.39 1005.25 1070.25 1005.11L1067.89 1002.75C1067.77 1002.63 1067.85 1002.43 1068.02 1002.43ZM1060.33 1001.96L1062.69 999.605C1062.83 999.464 1063.06 999.464 1063.2 999.605L1065.56 1001.96C1065.67 1002.08 1065.59 1002.28 1065.42 1002.28H1064.27C1064.15 1002.28 1064.06 1002.37 1064.06 1002.49V1005.04C1064.06 1005.14 1063.98 1005.22 1063.89 1005.22H1062C1061.9 1005.22 1061.82 1005.14 1061.82 1005.04V1002.49C1061.82 1002.37 1061.73 1002.28 1061.61 1002.28H1060.46C1060.29 1002.28 1060.21 1002.08 1060.33 1001.96ZM1082.29 1024.34C1082.29 1027.35 1079.84 1029.81 1076.82 1029.81H1057.18C1054.16 1029.81 1051.71 1027.35 1051.71 1024.34V1012.54C1051.71 1009.53 1054.16 1007.07 1057.18 1007.07H1076.82C1079.84 1007.07 1082.29 1009.53 1082.29 1012.54V1024.34Z" fill="#4592FB"/>
<path d="M1076.82 1008.04H1057.18C1054.69 1008.04 1052.68 1010.06 1052.68 1012.54V1024.34C1052.68 1026.82 1054.69 1028.84 1057.18 1028.84H1076.82C1079.3 1028.84 1081.32 1026.82 1081.32 1024.34V1012.54C1081.32 1010.06 1079.3 1008.04 1076.82 1008.04ZM1074.61 1010.92C1075.24 1010.92 1075.76 1011.44 1075.76 1012.08C1075.76 1012.71 1075.24 1013.22 1074.61 1013.22C1073.98 1013.22 1073.46 1012.71 1073.46 1012.08C1073.46 1011.44 1073.98 1010.92 1074.61 1010.92ZM1066.87 1010.92C1067.5 1010.92 1068.02 1011.44 1068.02 1012.08C1068.02 1012.71 1067.5 1013.22 1066.87 1013.22C1066.23 1013.22 1065.72 1012.71 1065.72 1012.08C1065.72 1011.44 1066.23 1010.92 1066.87 1010.92ZM1059.12 1010.92C1059.76 1010.92 1060.27 1011.44 1060.27 1012.08C1060.27 1012.71 1059.76 1013.22 1059.12 1013.22C1058.49 1013.22 1057.97 1012.71 1057.97 1012.08C1057.97 1011.44 1058.49 1010.92 1059.12 1010.92ZM1062.45 1019.08C1062.45 1019.44 1062.16 1019.73 1061.8 1019.73C1061.44 1019.73 1061.15 1019.44 1061.15 1019.08V1015.66H1060.81V1025.08C1060.81 1025.48 1060.49 1025.8 1060.1 1025.8C1059.7 1025.8 1059.38 1025.48 1059.38 1025.08V1019.67H1058.86V1025.08C1058.86 1025.48 1058.54 1025.8 1058.15 1025.8C1057.75 1025.8 1057.43 1025.48 1057.43 1025.08V1015.66H1057V1019.08C1057 1019.44 1056.7 1019.73 1056.34 1019.73C1055.98 1019.73 1055.69 1019.44 1055.69 1019.08V1015.05C1055.69 1014.33 1056.27 1013.75 1057 1013.75H1061.15C1061.87 1013.75 1062.45 1014.33 1062.45 1015.05V1019.08H1062.45ZM1070.2 1019.08C1070.2 1019.44 1069.91 1019.73 1069.55 1019.73C1069.19 1019.73 1068.89 1019.44 1068.89 1019.08V1015.66H1068.55V1025.08C1068.55 1025.48 1068.23 1025.8 1067.84 1025.8C1067.45 1025.8 1067.13 1025.48 1067.13 1025.08V1019.67H1066.6V1025.08C1066.6 1025.48 1066.28 1025.8 1065.89 1025.8C1065.5 1025.8 1065.18 1025.48 1065.18 1025.08V1015.66H1064.74V1019.08C1064.74 1019.44 1064.45 1019.73 1064.09 1019.73C1063.73 1019.73 1063.44 1019.44 1063.44 1019.08V1015.05C1063.44 1014.33 1064.02 1013.75 1064.74 1013.75H1068.89C1069.61 1013.75 1070.2 1014.33 1070.2 1015.05L1070.2 1019.08ZM1077.94 1019.08C1077.94 1019.44 1077.65 1019.73 1077.29 1019.73C1076.93 1019.73 1076.64 1019.44 1076.64 1019.08V1015.66H1076.3V1025.08C1076.3 1025.48 1075.98 1025.8 1075.58 1025.8C1075.19 1025.8 1074.87 1025.48 1074.87 1025.08V1019.67H1074.35V1025.08C1074.35 1025.48 1074.03 1025.8 1073.63 1025.8C1073.24 1025.8 1072.92 1025.48 1072.92 1025.08V1015.66H1072.48V1019.08C1072.48 1019.44 1072.19 1019.73 1071.83 1019.73C1071.47 1019.73 1071.18 1019.44 1071.18 1019.08V1015.05C1071.18 1014.33 1071.76 1013.75 1072.48 1013.75H1076.64C1077.36 1013.75 1077.94 1014.33 1077.94 1015.05V1019.08H1077.94Z" fill="#4592FB"/>
<path d="M1066.87 1013.22C1067.5 1013.22 1068.02 1012.71 1068.02 1012.08C1068.02 1011.44 1067.5 1010.92 1066.87 1010.92C1066.23 1010.92 1065.72 1011.44 1065.72 1012.08C1065.72 1012.71 1066.23 1013.22 1066.87 1013.22Z" fill="white"/>
<path d="M1059.12 1013.22C1059.76 1013.22 1060.27 1012.71 1060.27 1012.08C1060.27 1011.44 1059.76 1010.92 1059.12 1010.92C1058.49 1010.92 1057.97 1011.44 1057.97 1012.08C1057.97 1012.71 1058.49 1013.22 1059.12 1013.22Z" fill="white"/>
<path d="M1074.61 1013.22C1075.24 1013.22 1075.76 1012.71 1075.76 1012.08C1075.76 1011.44 1075.24 1010.92 1074.61 1010.92C1073.98 1010.92 1073.46 1011.44 1073.46 1012.08C1073.46 1012.71 1073.98 1013.22 1074.61 1013.22Z" fill="white"/>
<path d="M1076.83 1007.08H1057.18C1054.16 1007.08 1051.71 1009.53 1051.71 1012.54V1024.34C1051.71 1027.35 1054.16 1029.81 1057.18 1029.81H1076.83C1079.84 1029.81 1082.29 1027.35 1082.29 1024.34V1012.54C1082.29 1009.53 1079.84 1007.08 1076.83 1007.08ZM1081.33 1024.34C1081.33 1026.82 1079.3 1028.84 1076.83 1028.84H1057.18C1054.7 1028.84 1052.67 1026.82 1052.67 1024.34V1012.54C1052.67 1010.06 1054.7 1008.04 1057.18 1008.04H1076.83C1079.3 1008.04 1081.33 1010.06 1081.33 1012.54V1024.34Z" fill="white"/>
<path d="M1077.94 1015.05V1019.08C1077.94 1019.44 1077.65 1019.74 1077.29 1019.74C1076.92 1019.74 1076.64 1019.44 1076.64 1019.08V1015.66L1076.3 1015.66V1025.09C1076.3 1025.47 1075.98 1025.8 1075.59 1025.8C1075.19 1025.8 1074.88 1025.47 1074.88 1025.09V1019.66H1074.35V1025.09C1074.35 1025.47 1074.02 1025.8 1073.64 1025.8C1073.24 1025.8 1072.92 1025.47 1072.92 1025.09V1015.66H1072.49V1019.08C1072.49 1019.44 1072.19 1019.74 1071.84 1019.74C1071.48 1019.74 1071.17 1019.44 1071.17 1019.08V1015.05C1071.17 1014.33 1071.76 1013.75 1072.49 1013.75H1076.64C1077.36 1013.75 1077.94 1014.33 1077.94 1015.05Z" fill="white"/>
<path d="M1062.45 1015.05V1019.08C1062.45 1019.44 1062.16 1019.74 1061.8 1019.74C1061.44 1019.74 1061.15 1019.44 1061.15 1019.08V1015.66L1060.81 1015.66V1025.09C1060.81 1025.47 1060.49 1025.8 1060.1 1025.8C1059.7 1025.8 1059.39 1025.47 1059.39 1025.09V1019.66H1058.86V1025.09C1058.86 1025.47 1058.54 1025.8 1058.15 1025.8C1057.75 1025.8 1057.44 1025.47 1057.44 1025.09V1015.66H1057V1019.08C1057 1019.44 1056.7 1019.74 1056.35 1019.74C1055.99 1019.74 1055.69 1019.44 1055.69 1019.08V1015.05C1055.69 1014.33 1056.27 1013.75 1057 1013.75H1061.15C1061.88 1013.75 1062.45 1014.33 1062.45 1015.05Z" fill="white"/>
<path d="M1070.2 1015.05V1019.08C1070.2 1019.44 1069.91 1019.74 1069.55 1019.74C1069.19 1019.74 1068.9 1019.44 1068.9 1019.08V1015.66H1068.55V1025.09C1068.55 1025.47 1068.24 1025.8 1067.84 1025.8C1067.45 1025.8 1067.12 1025.47 1067.12 1025.09V1019.66H1066.6V1025.09C1066.6 1025.47 1066.29 1025.8 1065.89 1025.8C1065.5 1025.8 1065.17 1025.47 1065.17 1025.09V1015.66H1064.74V1019.08C1064.74 1019.44 1064.45 1019.74 1064.09 1019.74C1063.72 1019.74 1063.44 1019.44 1063.44 1019.08V1015.05C1063.44 1014.33 1064.02 1013.75 1064.74 1013.75H1068.9C1069.61 1013.75 1070.2 1014.33 1070.2 1015.05Z" fill="white"/>
<path d="M1060.46 1002.28H1061.61C1061.73 1002.28 1061.82 1002.37 1061.82 1002.49V1005.04C1061.82 1005.14 1061.9 1005.22 1062 1005.22H1063.89C1063.99 1005.22 1064.06 1005.14 1064.06 1005.04V1002.49C1064.06 1002.37 1064.16 1002.28 1064.27 1002.28H1065.42C1065.59 1002.28 1065.67 1002.08 1065.56 1001.96L1063.2 999.605C1063.06 999.464 1062.83 999.464 1062.69 999.605L1060.33 1001.96C1060.21 1002.08 1060.29 1002.28 1060.46 1002.28Z" fill="white"/>
<path d="M1070.25 1005.11C1070.39 1005.25 1070.62 1005.25 1070.76 1005.11L1073.11 1002.75C1073.23 1002.63 1073.15 1002.43 1072.98 1002.43H1071.83C1071.71 1002.43 1071.62 1002.34 1071.62 1002.23V999.675C1071.62 999.577 1071.54 999.499 1071.45 999.499H1069.56C1069.46 999.499 1069.38 999.577 1069.38 999.675V1002.23C1069.38 1002.34 1069.29 1002.43 1069.17 1002.43H1068.02C1067.85 1002.43 1067.77 1002.63 1067.89 1002.75L1070.25 1005.11Z" fill="white"/>
</g>
<g id="mirae_hall_3f_stairs_left_main">
<path d="M1204 138C1204 133.582 1207.58 130 1212 130H1330C1334.42 130 1338 133.582 1338 138V231C1338 235.418 1334.42 239 1330 239H1212C1207.58 239 1204 235.418 1204 231V138Z" fill="#D9FFE6"/>
<path d="M1330 236V239H1212L1212 236H1330ZM1335 231V138C1335 135.239 1332.76 133 1330 133H1212C1209.24 133 1207 135.239 1207 138V231C1207 233.761 1209.24 236 1212 236L1212 239C1207.58 239 1204 235.418 1204 231V138C1204 133.582 1207.58 130 1212 130H1330C1334.42 130 1338 133.582 1338 138V231C1338 235.418 1334.42 239 1330 239V236C1332.76 236 1335 233.761 1335 231Z" fill="#2E2F33" fill-opacity="0.88"/>
<path d="M1294.94 157.635C1293.89 157.248 1292.73 157.788 1292.34 158.836L1288.58 169.056H1267.28L1270.81 160.289C1271.22 159.251 1270.72 158.071 1269.68 157.654C1268.64 157.237 1267.46 157.743 1267.05 158.778L1247.43 207.581C1247.01 208.619 1247.52 209.8 1248.56 210.217C1248.8 210.316 1249.06 210.364 1249.31 210.364C1250.11 210.364 1250.87 209.884 1251.19 209.093L1255.22 199.071C1255.31 199.083 1255.38 199.121 1255.47 199.121H1277.52L1274.39 207.64C1274 208.688 1274.54 209.854 1275.59 210.238C1275.82 210.324 1276.06 210.364 1276.29 210.364C1277.11 210.364 1277.89 209.855 1278.19 209.036L1296.14 160.233C1296.53 159.184 1295.99 158.019 1294.94 157.635ZM1266.07 173.104H1287.09L1283.85 181.91H1262.11L1265.69 173.026C1265.82 173.052 1265.94 173.104 1266.07 173.104ZM1256.83 195.072L1260.51 185.903C1260.61 185.917 1260.69 185.96 1260.79 185.96H1282.36L1279.01 195.072H1256.83Z" fill="#6E4944"/>
</g>
<g id="mirae_hall_3f_stairs_right_main">
<path d="M992 829C992 824.582 995.582 821 1000 821H1095C1099.42 821 1103 824.582 1103 829V970C1103 974.418 1099.42 978 1095 978H1000C995.582 978 992 974.418 992 970V829Z" fill="#D9FFE6"/>
<path d="M1095 975V978H1000L1000 975H1095ZM1100 970V829C1100 826.239 1097.76 824 1095 824H1000C997.239 824 995 826.239 995 829V970C995 972.761 997.239 975 1000 975L1000 978C995.582 978 992 974.418 992 970V829C992 824.582 995.582 821 1000 821H1095C1099.42 821 1103 824.582 1103 829V970C1103 974.418 1099.42 978 1095 978V975C1097.76 975 1100 972.761 1100 970Z" fill="#2E2F33" fill-opacity="0.88"/>
<path d="M1070.94 872.634C1069.89 872.247 1068.73 872.787 1068.34 873.836L1064.58 884.056H1043.28L1046.81 875.29C1047.22 874.252 1046.72 873.071 1045.68 872.654C1044.64 872.237 1043.46 872.743 1043.05 873.778L1023.43 922.581C1023.02 923.619 1023.52 924.8 1024.56 925.217C1024.8 925.316 1025.06 925.364 1025.31 925.364C1026.11 925.364 1026.87 924.884 1027.19 924.093L1031.22 914.071C1031.31 914.083 1031.38 914.121 1031.47 914.121H1053.52L1050.39 922.64C1050 923.688 1050.54 924.854 1051.59 925.238C1051.82 925.324 1052.06 925.364 1052.29 925.364C1053.11 925.364 1053.89 924.855 1054.19 924.036L1072.14 875.233C1072.53 874.184 1071.99 873.018 1070.94 872.634ZM1042.07 888.104H1063.09L1059.85 896.91H1038.11L1041.69 888.026C1041.82 888.051 1041.94 888.104 1042.07 888.104ZM1032.83 910.072L1036.51 900.903C1036.61 900.917 1036.69 900.961 1036.79 900.961H1058.36L1055.01 910.072H1032.83Z" fill="#6E4944"/>
</g>
<g id="mirae_hall_3f_stairs">
<path d="M2428 717C2428 712.582 2431.58 709 2436 709H2506C2510.42 709 2514 712.582 2514 717V878C2514 882.418 2510.42 886 2506 886H2436C2431.58 886 2428 882.418 2428 878V717Z" fill="#D9FFE6"/>
<path d="M2506 883V886H2436L2436 883H2506ZM2511 878V717C2511 714.239 2508.76 712 2506 712H2436C2433.24 712 2431 714.239 2431 717V878C2431 880.761 2433.24 883 2436 883L2436 886L2435.59 885.989C2431.36 885.775 2428 882.28 2428 878V717C2428 712.582 2431.58 709 2436 709H2506C2510.42 709 2514 712.582 2514 717V878C2514 882.418 2510.42 886 2506 886V883C2508.76 883 2511 880.761 2511 878Z" fill="#2E2F33" fill-opacity="0.88"/>
<path d="M2494.94 770.634C2493.89 770.247 2492.73 770.787 2492.34 771.836L2488.58 782.055H2467.28L2470.81 773.289C2471.22 772.251 2470.72 771.071 2469.68 770.654C2468.64 770.237 2467.46 770.743 2467.05 771.778L2447.43 820.581C2447.02 821.619 2447.52 822.8 2448.56 823.217C2448.8 823.316 2449.06 823.364 2449.31 823.364C2450.11 823.364 2450.87 822.884 2451.19 822.093L2455.22 812.071C2455.31 812.083 2455.38 812.121 2455.47 812.121H2477.52L2474.39 820.64C2474 821.688 2474.54 822.854 2475.59 823.238C2475.82 823.324 2476.06 823.364 2476.29 823.364C2477.11 823.364 2477.89 822.855 2478.19 822.036L2496.14 773.232C2496.53 772.184 2495.99 771.018 2494.94 770.634ZM2466.07 786.104H2487.09L2483.85 794.91H2462.11L2465.69 786.026C2465.82 786.051 2465.94 786.104 2466.07 786.104ZM2456.83 808.072L2460.51 798.903C2460.61 798.917 2460.69 798.961 2460.79 798.961H2482.36L2479.01 808.072H2456.83Z" fill="#6E4944"/>
</g>
<g id="mirae_hall_3f_stairs_left">
<path d="M6 299C6 294.582 9.58172 291 14 291H93C97.4183 291 101 294.582 101 299V424C101 428.418 97.4183 432 93 432H14C9.58172 432 6 428.418 6 424V299Z" fill="#D9FFE6"/>
<path d="M93 429V432H14L14 429H93ZM98 424V299C98 296.239 95.7614 294 93 294H14C11.2386 294 9 296.239 9 299V424C9 426.761 11.2386 429 14 429L14 432L13.5879 431.989C9.36114 431.775 6 428.28 6 424V299C6 294.582 9.58172 291 14 291H93C97.4183 291 101 294.582 101 299V424C101 428.418 97.4183 432 93 432V429C95.7614 429 98 426.761 98 424Z" fill="#2E2F33" fill-opacity="0.88"/>
<path d="M76.94 334.634C75.8915 334.247 74.7275 334.787 74.3405 335.836L70.58 346.056H49.2815L52.805 337.29C53.222 336.252 52.7195 335.071 51.6815 334.654C50.6435 334.237 49.4645 334.743 49.0475 335.778L29.432 384.581C29.015 385.619 29.5175 386.8 30.5555 387.217C30.803 387.316 31.058 387.364 31.31 387.364C32.1125 387.364 32.873 386.884 33.1895 386.093L37.2185 376.071C37.3055 376.083 37.382 376.121 37.472 376.121H59.519L56.3855 384.64C56 385.688 56.537 386.854 57.587 387.238C57.818 387.324 58.055 387.364 58.286 387.364C59.1095 387.364 59.885 386.855 60.1865 386.036L78.1415 337.233C78.527 336.184 77.99 335.018 76.94 334.634ZM48.074 350.104H69.089L65.849 358.91H44.114L47.6855 350.026C47.816 350.052 47.936 350.104 48.074 350.104ZM38.825 372.072L42.5105 362.903C42.6065 362.917 42.6935 362.961 42.794 362.961H64.361L61.0085 372.072H38.825Z" fill="#6E4944"/>
</g>
<g id="mirae_hall_313">
<path d="M6 14C6 9.58172 9.58172 6 14 6H328C332.418 6 336 9.58172 336 14V235C336 239.418 332.418 243 328 243H252C247.582 243 244 239.418 244 235V148C244 143.582 240.418 140 236 140H14C9.58172 140 6 136.418 6 132V14Z" fill="#F7FBFF"/>
<path d="M244 235V148C244 143.582 240.418 140 236 140V137C242.075 137 247 141.925 247 148V235C247 237.761 249.239 240 252 240V243C247.582 243 244 239.418 244 235ZM328 240V243H252V240H328ZM333 235V14C333 11.2386 330.761 9 328 9H14C11.2386 9 9 11.2386 9 14V132C9 134.761 11.2386 137 14 137L14 140L13.5879 139.989C9.36114 139.775 6 136.28 6 132V14C6 9.71995 9.36114 6.22523 13.5879 6.01074L14 6H328C332.418 6 336 9.58172 336 14V235C336 239.418 332.418 243 328 243V240C330.761 240 333 237.761 333 235ZM236 137V140H14L14 137H236Z" fill="#2E2F33" fill-opacity="0.88"/>
<path d="M188 91.3125C183.156 91.3125 179.719 88.6875 179.625 84.875H183.719C183.844 86.6875 185.656 87.875 188 87.875C190.5 87.875 192.281 86.5 192.281 84.5C192.281 82.4688 190.531 81 187.594 81H185.562V77.875H187.594C190 77.875 191.688 76.5312 191.656 74.5625C191.688 72.6562 190.25 71.375 188.031 71.375C185.906 71.375 184.062 72.5625 184 74.4688H180.094C180.188 70.6562 183.625 68.0625 188.062 68.0625C192.656 68.0625 195.625 70.875 195.594 74.3438C195.625 76.875 193.938 78.7188 191.469 79.2188V79.4062C194.656 79.8438 196.469 81.875 196.438 84.7188C196.469 88.5312 192.906 91.3125 188 91.3125Z" fill="black"/>
<path d="M174.281 68.375V91H170.188V72.3438H170.062L164.781 75.7188V72L170.375 68.375H174.281Z" fill="black"/>
<path d="M153.094 91.3125C148.25 91.3125 144.812 88.6875 144.719 84.875H148.812C148.938 86.6875 150.75 87.875 153.094 87.875C155.594 87.875 157.375 86.5 157.375 84.5C157.375 82.4688 155.625 81 152.688 81H150.656V77.875H152.688C155.094 77.875 156.781 76.5312 156.75 74.5625C156.781 72.6562 155.344 71.375 153.125 71.375C151 71.375 149.156 72.5625 149.094 74.4688H145.188C145.281 70.6562 148.719 68.0625 153.156 68.0625C157.75 68.0625 160.719 70.875 160.688 74.3438C160.719 76.875 159.031 78.7188 156.562 79.2188V79.4062C159.75 79.8438 161.562 81.875 161.531 84.7188C161.562 88.5312 158 91.3125 153.094 91.3125Z" fill="black"/>
</g>
<g id="mirae_hall_311">
<path d="M6 145C6 140.582 9.58172 137 14 137H120C124.418 137 128 140.582 128 145V235C128 239.418 124.418 243 120 243H14C9.58172 243 6 239.418 6 235V145Z" fill="#F7FBFF"/>
<path d="M120 240V243H14L14 240H120ZM125 235V145C125 142.239 122.761 140 120 140H14C11.2386 140 9 142.239 9 145V235C9 237.761 11.2386 240 14 240L14 243L13.5879 242.989C9.36114 242.775 6 239.28 6 235V145C6 140.72 9.36114 137.225 13.5879 137.011L14 137H120C124.418 137 128 140.582 128 145V235C128 239.418 124.418 243 120 243V240C122.761 240 125 237.761 125 235Z" fill="#2E2F33" fill-opacity="0.88"/>
<path d="M87.9688 178.375V201H83.875V182.344H83.75L78.4688 185.719V182L84.0625 178.375H87.9688Z" fill="black"/>
<path d="M73.2812 178.375V201H69.1875V182.344H69.0625L63.7812 185.719V182L69.375 178.375H73.2812Z" fill="black"/>
<path d="M52.0938 201.312C47.25 201.312 43.8125 198.688 43.7188 194.875H47.8125C47.9375 196.688 49.75 197.875 52.0938 197.875C54.5938 197.875 56.375 196.5 56.375 194.5C56.375 192.469 54.625 191 51.6875 191H49.6562V187.875H51.6875C54.0938 187.875 55.7812 186.531 55.75 184.562C55.7812 182.656 54.3438 181.375 52.125 181.375C50 181.375 48.1562 182.562 48.0938 184.469H44.1875C44.2812 180.656 47.7188 178.062 52.1562 178.062C56.75 178.062 59.7188 180.875 59.6875 184.344C59.7188 186.875 58.0312 188.719 55.5625 189.219V189.406C58.75 189.844 60.5625 191.875 60.5312 194.719C60.5625 198.531 57 201.312 52.0938 201.312Z" fill="black"/>
</g>
<g id="mirae_hall_312">
<path d="M125 145C125 140.582 128.582 137 133 137H239C243.418 137 247 140.582 247 145V235C247 239.418 243.418 243 239 243H133C128.582 243 125 239.418 125 235V145Z" fill="#F7FBFF"/>
<path d="M239 240V243H133L133 240H239ZM244 235V145C244 142.239 241.761 140 239 140H133C130.239 140 128 142.239 128 145V235C128 237.761 130.239 240 133 240L133 243L132.588 242.989C128.361 242.775 125 239.28 125 235V145C125 140.72 128.361 137.225 132.588 137.011L133 137H239C243.418 137 247 140.582 247 145V235C247 239.418 243.418 243 239 243V240C241.761 240 244 237.761 244 235Z" fill="#2E2F33" fill-opacity="0.88"/>
<path d="M194.781 201V198.062L202.781 190.344C205.062 188.062 206.25 186.719 206.25 184.812C206.25 182.719 204.594 181.375 202.375 181.375C200.031 181.375 198.531 182.844 198.562 185.125H194.688C194.656 180.844 197.875 178.062 202.406 178.062C207.031 178.062 210.156 180.812 210.156 184.625C210.156 187.188 208.906 189.25 204.469 193.438L200.438 197.438V197.594H210.5V201H194.781Z" fill="black"/>
<path d="M189.281 178.375V201H185.188V182.344H185.062L179.781 185.719V182L185.375 178.375H189.281Z" fill="black"/>
<path d="M168.094 201.312C163.25 201.312 159.812 198.688 159.719 194.875H163.812C163.938 196.688 165.75 197.875 168.094 197.875C170.594 197.875 172.375 196.5 172.375 194.5C172.375 192.469 170.625 191 167.688 191H165.656V187.875H167.688C170.094 187.875 171.781 186.531 171.75 184.562C171.781 182.656 170.344 181.375 168.125 181.375C166 181.375 164.156 182.562 164.094 184.469H160.188C160.281 180.656 163.719 178.062 168.156 178.062C172.75 178.062 175.719 180.875 175.688 184.344C175.719 186.875 174.031 188.719 171.562 189.219V189.406C174.75 189.844 176.562 191.875 176.531 194.719C176.562 198.531 173 201.312 168.094 201.312Z" fill="black"/>
</g>
<g id="mirae_hall_309">
<path d="M98 299C98 294.582 101.582 291 106 291H334C338.418 291 342 294.582 342 299V424C342 428.418 338.418 432 334 432H106C101.582 432 98 428.418 98 424V299Z" fill="#F7FBFF"/>
<path d="M334 429V432H106L106 429H334ZM339 424V299C339 296.239 336.761 294 334 294H106C103.239 294 101 296.239 101 299V424C101 426.761 103.239 429 106 429L106 432C101.582 432 98 428.418 98 424V299C98 294.72 101.361 291.225 105.588 291.011L106 291H334C338.418 291 342 294.582 342 299V424C342 428.418 338.418 432 334 432V429C336.761 429 339 426.761 339 424Z" fill="#2E2F33" fill-opacity="0.88"/>
<path d="M239.562 349.063C244 349.094 248.375 351.719 248.406 360C248.406 367.812 244.875 372.312 239.312 372.312C234.938 372.312 231.938 369.594 231.438 365.844H235.469C235.875 367.625 237.25 368.781 239.312 368.781C242.594 368.781 244.438 365.875 244.469 361.031H244.219C243.062 363 240.906 364.156 238.406 364.156C234.375 364.156 231.25 361.094 231.219 356.812C231.219 352.375 234.531 349.031 239.562 349.063ZM239.594 352.344C237.062 352.344 235.156 354.312 235.188 356.719C235.188 359.156 237 361.062 239.531 361.062C242.031 361.062 244 359.031 243.969 356.688C243.969 354.375 242.125 352.344 239.594 352.344Z" fill="black"/>
<path d="M219.438 372.312C214 372.312 210.75 368.094 210.75 360.688C210.75 353.312 214 349.062 219.438 349.062C224.844 349.062 228.125 353.312 228.125 360.688C228.125 368.094 224.875 372.312 219.438 372.312ZM219.438 368.906C222.281 368.906 224.031 366.125 224.031 360.688C224.031 355.281 222.25 352.438 219.438 352.438C216.625 352.438 214.844 355.281 214.844 360.688C214.844 366.125 216.594 368.906 219.438 368.906Z" fill="black"/>
<path d="M199.094 372.312C194.25 372.312 190.812 369.688 190.719 365.875H194.812C194.938 367.688 196.75 368.875 199.094 368.875C201.594 368.875 203.375 367.5 203.375 365.5C203.375 363.469 201.625 362 198.688 362H196.656V358.875H198.688C201.094 358.875 202.781 357.531 202.75 355.562C202.781 353.656 201.344 352.375 199.125 352.375C197 352.375 195.156 353.562 195.094 355.469H191.188C191.281 351.656 194.719 349.062 199.156 349.062C203.75 349.062 206.719 351.875 206.688 355.344C206.719 357.875 205.031 359.719 202.562 360.219V360.406C205.75 360.844 207.562 362.875 207.531 365.719C207.562 369.531 204 372.312 199.094 372.312Z" fill="black"/>
</g>
<g id="mirae_hall_308">
<path d="M339 299C339 294.582 342.582 291 347 291H427C431.418 291 435 294.582 435 299V424C435 428.418 431.418 432 427 432H347C342.582 432 339 428.418 339 424V299Z" fill="#F7FBFF"/>
<path d="M427 429V432H347L347 429H427ZM432 424V299C432 296.239 429.761 294 427 294H347C344.239 294 342 296.239 342 299V424C342 426.761 344.239 429 347 429L347 432L346.588 431.989C342.361 431.775 339 428.28 339 424V299C339 294.582 342.582 291 347 291H427C431.418 291 435 294.582 435 299V424C435 428.418 431.418 432 427 432V429C429.761 429 432 426.761 432 424Z" fill="#2E2F33" fill-opacity="0.88"/>
<path d="M407.031 373.25C402 373.25 398.438 370.562 398.438 366.875C398.438 364 400.562 361.656 403.281 361.219V361.094C400.906 360.594 399.281 358.531 399.281 356.062C399.281 352.562 402.562 350 407.031 350C411.469 350 414.75 352.562 414.75 356.062C414.75 358.531 413.094 360.594 410.75 361.094V361.219C413.469 361.656 415.625 364 415.625 366.875C415.625 370.562 412.031 373.25 407.031 373.25ZM407.031 370.031C409.688 370.031 411.438 368.594 411.438 366.5C411.438 364.375 409.562 362.812 407.031 362.812C404.469 362.812 402.594 364.375 402.625 366.5C402.594 368.594 404.344 370.031 407.031 370.031ZM407.031 359.781C409.219 359.781 410.781 358.406 410.781 356.438C410.781 354.531 409.25 353.188 407.031 353.188C404.781 353.188 403.25 354.5 403.25 356.438C403.25 358.406 404.812 359.781 407.031 359.781Z" fill="black"/>
<path d="M386.719 373.25C381.281 373.25 378.031 369.031 378.031 361.625C378.031 354.25 381.281 350 386.719 350C392.125 350 395.406 354.25 395.406 361.625C395.406 369.031 392.156 373.25 386.719 373.25ZM386.719 369.844C389.562 369.844 391.312 367.062 391.312 361.625C391.312 356.219 389.531 353.375 386.719 353.375C383.906 353.375 382.125 356.219 382.125 361.625C382.125 367.062 383.875 369.844 386.719 369.844Z" fill="black"/>
<path d="M366.375 373.25C361.531 373.25 358.094 370.625 358 366.812H362.094C362.219 368.625 364.031 369.812 366.375 369.812C368.875 369.812 370.656 368.438 370.656 366.438C370.656 364.406 368.906 362.938 365.969 362.938H363.938V359.812H365.969C368.375 359.812 370.062 358.469 370.031 356.5C370.062 354.594 368.625 353.312 366.406 353.312C364.281 353.312 362.438 354.5 362.375 356.406H358.469C358.562 352.594 362 350 366.438 350C371.031 350 374 352.812 373.969 356.281C374 358.812 372.312 360.656 369.844 361.156V361.344C373.031 361.781 374.844 363.812 374.812 366.656C374.844 370.469 371.281 373.25 366.375 373.25Z" fill="black"/>
</g>
<g id="mirae_hall_307">
<path d="M432 299C432 294.582 435.582 291 440 291H520C524.418 291 528 294.582 528 299V424C528 428.418 524.418 432 520 432H440C435.582 432 432 428.418 432 424V299Z" fill="#F7FBFF"/>
<path d="M520 429V432H440L440 429H520ZM525 424V299C525 296.239 522.761 294 520 294H440C437.239 294 435 296.239 435 299V424C435 426.761 437.239 429 440 429L440 432L439.588 431.989C435.361 431.775 432 428.28 432 424V299C432 294.582 435.582 291 440 291H520C524.418 291 528 294.582 528 299V424C528 428.418 524.418 432 520 432V429C522.761 429 525 426.761 525 424Z" fill="#2E2F33" fill-opacity="0.88"/>
<path d="M493.031 372.938L502.844 353.875V353.719H491.469V350.312H507.062V353.781L497.25 372.938H493.031Z" fill="black"/>
<path d="M480.719 373.25C475.281 373.25 472.031 369.031 472.031 361.625C472.031 354.25 475.281 350 480.719 350C486.125 350 489.406 354.25 489.406 361.625C489.406 369.031 486.156 373.25 480.719 373.25ZM480.719 369.844C483.562 369.844 485.312 367.062 485.312 361.625C485.312 356.219 483.531 353.375 480.719 353.375C477.906 353.375 476.125 356.219 476.125 361.625C476.125 367.062 477.875 369.844 480.719 369.844Z" fill="black"/>
<path d="M460.375 373.25C455.531 373.25 452.094 370.625 452 366.812H456.094C456.219 368.625 458.031 369.812 460.375 369.812C462.875 369.812 464.656 368.438 464.656 366.438C464.656 364.406 462.906 362.938 459.969 362.938H457.938V359.812H459.969C462.375 359.812 464.062 358.469 464.031 356.5C464.062 354.594 462.625 353.312 460.406 353.312C458.281 353.312 456.438 354.5 456.375 356.406H452.469C452.562 352.594 456 350 460.438 350C465.031 350 468 352.812 467.969 356.281C468 358.812 466.312 360.656 463.844 361.156V361.344C467.031 361.781 468.844 363.812 468.812 366.656C468.844 370.469 465.281 373.25 460.375 373.25Z" fill="black"/>
</g>
<g id="mirae_hall_306">
<path d="M525 299C525 294.582 528.582 291 533 291H613C617.418 291 621 294.582 621 299V424C621 428.418 617.418 432 613 432H533C528.582 432 525 428.418 525 424V299Z" fill="#F7FBFF"/>
<path d="M613 429V432H533L533 429H613ZM618 424V299C618 296.239 615.761 294 613 294H533C530.239 294 528 296.239 528 299V424C528 426.761 530.239 429 533 429L533 432L532.588 431.989C528.361 431.775 525 428.28 525 424V299C525 294.582 528.582 291 533 291H613C617.418 291 621 294.582 621 299V424C621 428.418 617.418 432 613 432V429C615.761 429 618 426.761 618 424Z" fill="#2E2F33" fill-opacity="0.88"/>
<path d="M593.281 373.25C588.875 373.219 584.437 370.594 584.469 362.25C584.469 354.5 588 350 593.531 350C597.906 350 600.906 352.75 601.406 356.406H597.375C596.969 354.688 595.594 353.531 593.531 353.531C590.25 353.531 588.406 356.438 588.406 361.188H588.625C589.781 359.25 591.969 358.094 594.437 358.094C598.5 358.094 601.625 361.156 601.625 365.438C601.625 369.938 598.281 373.281 593.281 373.25ZM593.281 369.969C595.812 369.969 597.687 368 597.687 365.531C597.687 363.125 595.844 361.188 593.344 361.188C590.812 361.188 588.875 363.188 588.844 365.562C588.875 367.938 590.719 369.969 593.281 369.969Z" fill="black"/>
<path d="M572.719 373.25C567.281 373.25 564.031 369.031 564.031 361.625C564.031 354.25 567.281 350 572.719 350C578.125 350 581.406 354.25 581.406 361.625C581.406 369.031 578.156 373.25 572.719 373.25ZM572.719 369.844C575.562 369.844 577.312 367.062 577.312 361.625C577.312 356.219 575.531 353.375 572.719 353.375C569.906 353.375 568.125 356.219 568.125 361.625C568.125 367.062 569.875 369.844 572.719 369.844Z" fill="black"/>
<path d="M552.375 373.25C547.531 373.25 544.094 370.625 544 366.812H548.094C548.219 368.625 550.031 369.812 552.375 369.812C554.875 369.812 556.656 368.438 556.656 366.438C556.656 364.406 554.906 362.938 551.969 362.938H549.938V359.812H551.969C554.375 359.812 556.062 358.469 556.031 356.5C556.062 354.594 554.625 353.312 552.406 353.312C550.281 353.312 548.438 354.5 548.375 356.406H544.469C544.562 352.594 548 350 552.438 350C557.031 350 560 352.812 559.969 356.281C560 358.812 558.312 360.656 555.844 361.156V361.344C559.031 361.781 560.844 363.812 560.812 366.656C560.844 370.469 557.281 373.25 552.375 373.25Z" fill="black"/>
</g>
<g id="mirae_hall_305">
<path d="M618 299C618 294.582 621.582 291 626 291H706C710.418 291 714 294.582 714 299V424C714 428.418 710.418 432 706 432H626C621.582 432 618 428.418 618 424V299Z" fill="#F7FBFF"/>
<path d="M706 429V432H626L626 429H706ZM711 424V299C711 296.239 708.761 294 706 294H626C623.239 294 621 296.239 621 299V424C621 426.761 623.239 429 626 429L626 432L625.588 431.989C621.361 431.775 618 428.28 618 424V299C618 294.582 621.582 291 626 291H706C710.418 291 714 294.582 714 299V424C714 428.418 710.418 432 706 432V429C708.761 429 711 426.761 711 424Z" fill="#2E2F33" fill-opacity="0.88"/>
<path d="M685.844 373.25C681.312 373.25 678 370.562 677.875 366.812H681.844C681.969 368.656 683.688 369.969 685.844 369.969C688.375 369.969 690.188 368.125 690.188 365.625C690.188 363.031 688.312 361.188 685.719 361.188C683.969 361.156 682.688 361.781 681.969 363.125H678.188L679.562 350.312H692.938V353.719H682.906L682.219 359.719H682.438C683.312 358.719 684.969 358 686.812 358C691.031 358 694.125 361.156 694.125 365.5C694.125 370.031 690.719 373.25 685.844 373.25Z" fill="black"/>
<path d="M665.719 373.25C660.281 373.25 657.031 369.031 657.031 361.625C657.031 354.25 660.281 350 665.719 350C671.125 350 674.406 354.25 674.406 361.625C674.406 369.031 671.156 373.25 665.719 373.25ZM665.719 369.844C668.562 369.844 670.312 367.062 670.312 361.625C670.312 356.219 668.531 353.375 665.719 353.375C662.906 353.375 661.125 356.219 661.125 361.625C661.125 367.062 662.875 369.844 665.719 369.844Z" fill="black"/>
<path d="M645.375 373.25C640.531 373.25 637.094 370.625 637 366.812H641.094C641.219 368.625 643.031 369.812 645.375 369.812C647.875 369.812 649.656 368.438 649.656 366.438C649.656 364.406 647.906 362.938 644.969 362.938H642.938V359.812H644.969C647.375 359.812 649.062 358.469 649.031 356.5C649.062 354.594 647.625 353.312 645.406 353.312C643.281 353.312 641.438 354.5 641.375 356.406H637.469C637.562 352.594 641 350 645.438 350C650.031 350 653 352.812 652.969 356.281C653 358.812 651.312 360.656 648.844 361.156V361.344C652.031 361.781 653.844 363.812 653.812 366.656C653.844 370.469 650.281 373.25 645.375 373.25Z" fill="black"/>
</g>
<g id="mirae_hall_304">
<path d="M711 299C711 294.582 714.582 291 719 291H799C803.418 291 807 294.582 807 299V424C807 428.418 803.418 432 799 432H719C714.582 432 711 428.418 711 424V299Z" fill="#F7FBFF"/>
<path d="M799 429V432H719L719 429H799ZM804 424V299C804 296.239 801.761 294 799 294H719C716.239 294 714 296.239 714 299V424C714 426.761 716.239 429 719 429L719 432L718.588 431.989C714.361 431.775 711 428.28 711 424V299C711 294.582 714.582 291 719 291H799C803.418 291 807 294.582 807 299V424C807 428.418 803.418 432 799 432V429C801.761 429 804 426.761 804 424Z" fill="#2E2F33" fill-opacity="0.88"/>
<path d="M770.406 368.719V365.469L780.188 350.312H785.25V365.375H788.219V368.719H785.25V372.938H781.375V368.719H770.406ZM774.562 365.375H781.438V354.938H781.188L774.562 365.219V365.375Z" fill="black"/>
<path d="M758.719 373.25C753.281 373.25 750.031 369.031 750.031 361.625C750.031 354.25 753.281 350 758.719 350C764.125 350 767.406 354.25 767.406 361.625C767.406 369.031 764.156 373.25 758.719 373.25ZM758.719 369.844C761.562 369.844 763.312 367.062 763.312 361.625C763.312 356.219 761.531 353.375 758.719 353.375C755.906 353.375 754.125 356.219 754.125 361.625C754.125 367.062 755.875 369.844 758.719 369.844Z" fill="black"/>
<path d="M738.375 373.25C733.531 373.25 730.094 370.625 730 366.812H734.094C734.219 368.625 736.031 369.812 738.375 369.812C740.875 369.812 742.656 368.438 742.656 366.438C742.656 364.406 740.906 362.938 737.969 362.938H735.938V359.812H737.969C740.375 359.812 742.062 358.469 742.031 356.5C742.062 354.594 740.625 353.312 738.406 353.312C736.281 353.312 734.438 354.5 734.375 356.406H730.469C730.562 352.594 734 350 738.438 350C743.031 350 746 352.812 745.969 356.281C746 358.812 744.312 360.656 741.844 361.156V361.344C745.031 361.781 746.844 363.812 746.812 366.656C746.844 370.469 743.281 373.25 738.375 373.25Z" fill="black"/>
</g>
<g id="mirae_hall_303">
<path d="M803 299C803 294.582 806.582 291 811 291H891C895.418 291 899 294.582 899 299V424C899 428.418 895.418 432 891 432H811C806.582 432 803 428.418 803 424V299Z" fill="#F7FBFF"/>
<path d="M891 429V432H811L811 429H891ZM896 424V299C896 296.239 893.761 294 891 294H811C808.239 294 806 296.239 806 299V424C806 426.761 808.239 429 811 429L811 432L810.588 431.989C806.361 431.775 803 428.28 803 424V299C803 294.582 806.582 291 811 291H891C895.418 291 899 294.582 899 299V424C899 428.418 895.418 432 891 432V429C893.761 429 896 426.761 896 424Z" fill="#2E2F33" fill-opacity="0.88"/>
<path d="M871.031 373.25C866.188 373.25 862.75 370.625 862.656 366.812H866.75C866.875 368.625 868.688 369.812 871.031 369.812C873.531 369.812 875.312 368.438 875.312 366.438C875.312 364.406 873.562 362.938 870.625 362.938H868.594V359.812H870.625C873.031 359.812 874.719 358.469 874.688 356.5C874.719 354.594 873.281 353.312 871.062 353.312C868.938 353.312 867.094 354.5 867.031 356.406H863.125C863.219 352.594 866.656 350 871.094 350C875.688 350 878.656 352.812 878.625 356.281C878.656 358.812 876.969 360.656 874.5 361.156V361.344C877.688 361.781 879.5 363.812 879.469 366.656C879.5 370.469 875.938 373.25 871.031 373.25Z" fill="black"/>
<path d="M850.719 373.25C845.281 373.25 842.031 369.031 842.031 361.625C842.031 354.25 845.281 350 850.719 350C856.125 350 859.406 354.25 859.406 361.625C859.406 369.031 856.156 373.25 850.719 373.25ZM850.719 369.844C853.562 369.844 855.312 367.062 855.312 361.625C855.312 356.219 853.531 353.375 850.719 353.375C847.906 353.375 846.125 356.219 846.125 361.625C846.125 367.062 847.875 369.844 850.719 369.844Z" fill="black"/>
<path d="M830.375 373.25C825.531 373.25 822.094 370.625 822 366.812H826.094C826.219 368.625 828.031 369.812 830.375 369.812C832.875 369.812 834.656 368.438 834.656 366.438C834.656 364.406 832.906 362.938 829.969 362.938H827.938V359.812H829.969C832.375 359.812 834.062 358.469 834.031 356.5C834.062 354.594 832.625 353.312 830.406 353.312C828.281 353.312 826.438 354.5 826.375 356.406H822.469C822.562 352.594 826 350 830.438 350C835.031 350 838 352.812 837.969 356.281C838 358.812 836.312 360.656 833.844 361.156V361.344C837.031 361.781 838.844 363.812 838.812 366.656C838.844 370.469 835.281 373.25 830.375 373.25Z" fill="black"/>
</g>
<g id="mirae_hall_302">
<path d="M896 299C896 294.582 899.582 291 904 291H984C988.418 291 992 294.582 992 299V424C992 428.418 988.418 432 984 432H904C899.582 432 896 428.418 896 424V299Z" fill="#F7FBFF"/>
<path d="M984 429V432H904L904 429H984ZM989 424V299C989 296.239 986.761 294 984 294H904C901.239 294 899 296.239 899 299V424C899 426.761 901.239 429 904 429L904 432L903.588 431.989C899.361 431.775 896 428.28 896 424V299C896 294.582 899.582 291 904 291H984C988.418 291 992 294.582 992 299V424C992 428.418 988.418 432 984 432V429C986.761 429 989 426.761 989 424Z" fill="#2E2F33" fill-opacity="0.88"/>
<path d="M956.812 372.938V370L964.812 362.281C967.094 360 968.281 358.656 968.281 356.75C968.281 354.656 966.625 353.312 964.406 353.312C962.062 353.312 960.562 354.781 960.594 357.062H956.719C956.687 352.781 959.906 350 964.437 350C969.062 350 972.187 352.75 972.187 356.562C972.187 359.125 970.937 361.188 966.5 365.375L962.469 369.375V369.531H972.531V372.938H956.812Z" fill="black"/>
<path d="M944.719 373.25C939.281 373.25 936.031 369.031 936.031 361.625C936.031 354.25 939.281 350 944.719 350C950.125 350 953.406 354.25 953.406 361.625C953.406 369.031 950.156 373.25 944.719 373.25ZM944.719 369.844C947.562 369.844 949.312 367.062 949.312 361.625C949.312 356.219 947.531 353.375 944.719 353.375C941.906 353.375 940.125 356.219 940.125 361.625C940.125 367.062 941.875 369.844 944.719 369.844Z" fill="black"/>
<path d="M924.375 373.25C919.531 373.25 916.094 370.625 916 366.812H920.094C920.219 368.625 922.031 369.812 924.375 369.812C926.875 369.812 928.656 368.438 928.656 366.438C928.656 364.406 926.906 362.938 923.969 362.938H921.938V359.812H923.969C926.375 359.812 928.062 358.469 928.031 356.5C928.062 354.594 926.625 353.312 924.406 353.312C922.281 353.312 920.438 354.5 920.375 356.406H916.469C916.562 352.594 920 350 924.438 350C929.031 350 932 352.812 931.969 356.281C932 358.812 930.312 360.656 927.844 361.156V361.344C931.031 361.781 932.844 363.812 932.812 366.656C932.844 370.469 929.281 373.25 924.375 373.25Z" fill="black"/>
</g>
<g id="mirae_hall_301">
<path d="M989 299C989 294.582 992.582 291 997 291H1093C1097.42 291 1101 294.582 1101 299V424C1101 428.418 1097.42 432 1093 432H997C992.582 432 989 428.418 989 424V299Z" fill="#F7FBFF"/>
<path d="M1093 429V432H997L997 429H1093ZM1098 424V299C1098 296.239 1095.76 294 1093 294H997C994.239 294 992 296.239 992 299V424C992 426.761 994.239 429 997 429L997 432C992.582 432 989 428.418 989 424V299C989 294.582 992.582 291 997 291H1093C1097.42 291 1101 294.582 1101 299V424C1101 428.418 1097.42 432 1093 432V429C1095.76 429 1098 426.761 1098 424Z" fill="#2E2F33" fill-opacity="0.88"/>
<path d="M1070 350.312V372.938H1065.91V354.281H1065.78L1060.5 357.656V353.938L1066.09 350.312H1070Z" fill="black"/>
<path d="M1048.72 373.25C1043.28 373.25 1040.03 369.031 1040.03 361.625C1040.03 354.25 1043.28 350 1048.72 350C1054.12 350 1057.41 354.25 1057.41 361.625C1057.41 369.031 1054.16 373.25 1048.72 373.25ZM1048.72 369.844C1051.56 369.844 1053.31 367.062 1053.31 361.625C1053.31 356.219 1051.53 353.375 1048.72 353.375C1045.91 353.375 1044.12 356.219 1044.12 361.625C1044.12 367.062 1045.88 369.844 1048.72 369.844Z" fill="black"/>
<path d="M1028.38 373.25C1023.53 373.25 1020.09 370.625 1020 366.812H1024.09C1024.22 368.625 1026.03 369.812 1028.38 369.812C1030.88 369.812 1032.66 368.438 1032.66 366.438C1032.66 364.406 1030.91 362.938 1027.97 362.938H1025.94V359.812H1027.97C1030.38 359.812 1032.06 358.469 1032.03 356.5C1032.06 354.594 1030.62 353.312 1028.41 353.312C1026.28 353.312 1024.44 354.5 1024.38 356.406H1020.47C1020.56 352.594 1024 350 1028.44 350C1033.03 350 1036 352.812 1035.97 356.281C1036 358.812 1034.31 360.656 1031.84 361.156V361.344C1035.03 361.781 1036.84 363.812 1036.81 366.656C1036.84 370.469 1033.28 373.25 1028.38 373.25Z" fill="black"/>
</g>
<g id="mirae_hall_324">
<path d="M1160 299C1160 294.582 1163.58 291 1168 291H1330C1334.42 291 1338 294.582 1338 299V396C1338 400.418 1334.42 404 1330 404H1168C1163.58 404 1160 400.418 1160 396V299Z" fill="#F7FBFF"/>
<path d="M1330 401V404H1168L1168 401H1330ZM1335 396V299C1335 296.239 1332.76 294 1330 294H1168C1165.24 294 1163 296.239 1163 299V396C1163 398.761 1165.24 401 1168 401L1168 404L1167.59 403.989C1163.36 403.775 1160 400.28 1160 396V299C1160 294.582 1163.58 291 1168 291H1330C1334.42 291 1338 294.582 1338 299V396C1338 400.418 1334.42 404 1330 404V401C1332.76 401 1335 398.761 1335 396Z" fill="#2E2F33" fill-opacity="0.88"/>
<path d="M1259.47 353.781V350.531L1269.25 335.375H1274.31V350.438H1277.28V353.781H1274.31V358H1270.44V353.781H1259.47ZM1263.62 350.438H1270.5V340H1270.25L1263.62 350.281V350.438Z" fill="black"/>
<path d="M1241.09 358V355.062L1249.09 347.344C1251.37 345.062 1252.56 343.719 1252.56 341.812C1252.56 339.719 1250.91 338.375 1248.69 338.375C1246.34 338.375 1244.84 339.844 1244.87 342.125H1241C1240.97 337.844 1244.19 335.062 1248.72 335.062C1253.34 335.062 1256.47 337.812 1256.47 341.625C1256.47 344.188 1255.22 346.25 1250.78 350.438L1246.75 354.438V354.594H1256.81V358H1241.09Z" fill="black"/>
<path d="M1229.09 358.312C1224.25 358.312 1220.81 355.688 1220.72 351.875H1224.81C1224.94 353.688 1226.75 354.875 1229.09 354.875C1231.59 354.875 1233.38 353.5 1233.38 351.5C1233.38 349.469 1231.62 348 1228.69 348H1226.66V344.875H1228.69C1231.09 344.875 1232.78 343.531 1232.75 341.562C1232.78 339.656 1231.34 338.375 1229.12 338.375C1227 338.375 1225.16 339.562 1225.09 341.469H1221.19C1221.28 337.656 1224.72 335.062 1229.16 335.062C1233.75 335.062 1236.72 337.875 1236.69 341.344C1236.72 343.875 1235.03 345.719 1232.56 346.219V346.406C1235.75 346.844 1237.56 348.875 1237.53 351.719C1237.56 355.531 1234 358.312 1229.09 358.312Z" fill="black"/>
</g>
<g id="mirae_hall_325">
<path d="M1160 409C1160 404.582 1163.58 401 1168 401H1330C1334.42 401 1338 404.582 1338 409V629C1338 633.418 1334.42 637 1330 637H1168C1163.58 637 1160 633.418 1160 629V409Z" fill="#F7FBFF"/>
<path d="M1330 634V637H1168L1168 634H1330ZM1335 629V409C1335 406.239 1332.76 404 1330 404H1168C1165.24 404 1163 406.239 1163 409V629C1163 631.761 1165.24 634 1168 634L1168 637L1167.59 636.989C1163.36 636.775 1160 633.28 1160 629V409C1160 404.582 1163.58 401 1168 401H1330C1334.42 401 1338 404.582 1338 409V629C1338 633.418 1334.42 637 1330 637V634C1332.76 634 1335 631.761 1335 629Z" fill="#2E2F33" fill-opacity="0.88"/>
<path d="M1268.41 530.312C1263.88 530.312 1260.56 527.625 1260.44 523.875H1264.41C1264.53 525.719 1266.25 527.031 1268.41 527.031C1270.94 527.031 1272.75 525.188 1272.75 522.688C1272.75 520.094 1270.88 518.25 1268.28 518.25C1266.53 518.219 1265.25 518.844 1264.53 520.188H1260.75L1262.12 507.375H1275.5V510.781H1265.47L1264.78 516.781H1265C1265.88 515.781 1267.53 515.062 1269.38 515.062C1273.59 515.062 1276.69 518.219 1276.69 522.562C1276.69 527.094 1273.28 530.312 1268.41 530.312Z" fill="black"/>
<path d="M1241.09 530V527.062L1249.09 519.344C1251.37 517.062 1252.56 515.719 1252.56 513.812C1252.56 511.719 1250.91 510.375 1248.69 510.375C1246.34 510.375 1244.84 511.844 1244.87 514.125H1241C1240.97 509.844 1244.19 507.062 1248.72 507.062C1253.34 507.062 1256.47 509.812 1256.47 513.625C1256.47 516.188 1255.22 518.25 1250.78 522.438L1246.75 526.438V526.594H1256.81V530H1241.09Z" fill="black"/>
<path d="M1229.09 530.312C1224.25 530.312 1220.81 527.688 1220.72 523.875H1224.81C1224.94 525.688 1226.75 526.875 1229.09 526.875C1231.59 526.875 1233.38 525.5 1233.38 523.5C1233.38 521.469 1231.62 520 1228.69 520H1226.66V516.875H1228.69C1231.09 516.875 1232.78 515.531 1232.75 513.562C1232.78 511.656 1231.34 510.375 1229.12 510.375C1227 510.375 1225.16 511.562 1225.09 513.469H1221.19C1221.28 509.656 1224.72 507.062 1229.16 507.062C1233.75 507.062 1236.72 509.875 1236.69 513.344C1236.72 515.875 1235.03 517.719 1232.56 518.219V518.406C1235.75 518.844 1237.56 520.875 1237.53 523.719C1237.56 527.531 1234 530.312 1229.09 530.312Z" fill="black"/>
</g>
<g id="mirae_hall_327">
<path d="M1160 642C1160 637.582 1163.58 634 1168 634H1330C1334.42 634 1338 637.582 1338 642V721C1338 725.418 1334.42 729 1330 729H1168C1163.58 729 1160 725.418 1160 721V642Z" fill="#F7FBFF"/>
<path d="M1330 726V729H1168L1168 726H1330ZM1335 721V642C1335 639.239 1332.76 637 1330 637H1168C1165.24 637 1163 639.239 1163 642V721C1163 723.761 1165.24 726 1168 726L1168 729L1167.59 728.989C1163.36 728.775 1160 725.28 1160 721V642C1160 637.582 1163.58 634 1168 634H1330C1334.42 634 1338 637.582 1338 642V721C1338 725.418 1334.42 729 1330 729V726C1332.76 726 1335 723.761 1335 721Z" fill="#2E2F33" fill-opacity="0.88"/>
<path d="M1262.22 692L1272.03 672.938V672.781H1260.66V669.375H1276.25V672.844L1266.44 692H1262.22Z" fill="black"/>
<path d="M1242.09 692V689.062L1250.09 681.344C1252.37 679.062 1253.56 677.719 1253.56 675.812C1253.56 673.719 1251.91 672.375 1249.69 672.375C1247.34 672.375 1245.84 673.844 1245.87 676.125H1242C1241.97 671.844 1245.19 669.062 1249.72 669.062C1254.34 669.062 1257.47 671.812 1257.47 675.625C1257.47 678.188 1256.22 680.25 1251.78 684.438L1247.75 688.438V688.594H1257.81V692H1242.09Z" fill="black"/>
<path d="M1230.09 692.312C1225.25 692.312 1221.81 689.688 1221.72 685.875H1225.81C1225.94 687.688 1227.75 688.875 1230.09 688.875C1232.59 688.875 1234.38 687.5 1234.38 685.5C1234.38 683.469 1232.62 682 1229.69 682H1227.66V678.875H1229.69C1232.09 678.875 1233.78 677.531 1233.75 675.562C1233.78 673.656 1232.34 672.375 1230.12 672.375C1228 672.375 1226.16 673.562 1226.09 675.469H1222.19C1222.28 671.656 1225.72 669.062 1230.16 669.062C1234.75 669.062 1237.72 671.875 1237.69 675.344C1237.72 677.875 1236.03 679.719 1233.56 680.219V680.406C1236.75 680.844 1238.56 682.875 1238.53 685.719C1238.56 689.531 1235 692.312 1230.09 692.312Z" fill="black"/>
</g>
<g id="mirae_hall_328">
<path d="M1160 734C1160 729.582 1163.58 726 1168 726H1330C1334.42 726 1338 729.582 1338 734V819C1338 823.418 1334.42 827 1330 827H1168C1163.58 827 1160 823.418 1160 819V734Z" fill="#F7FBFF"/>
<path d="M1330 824V827H1168L1168 824H1330ZM1335 819V734C1335 731.239 1332.76 729 1330 729H1168C1165.24 729 1163 731.239 1163 734V819C1163 821.761 1165.24 824 1168 824L1168 827L1167.59 826.989C1163.36 826.775 1160 823.28 1160 819V734C1160 729.582 1163.58 726 1168 726H1330C1334.42 726 1338 729.582 1338 734V819C1338 823.418 1334.42 827 1330 827V824C1332.76 824 1335 821.761 1335 819Z" fill="#2E2F33" fill-opacity="0.88"/>
<path d="M1268.59 787.312C1263.56 787.312 1260 784.625 1260 780.938C1260 778.062 1262.12 775.719 1264.84 775.281V775.156C1262.47 774.656 1260.84 772.594 1260.84 770.125C1260.84 766.625 1264.12 764.062 1268.59 764.062C1273.03 764.062 1276.31 766.625 1276.31 770.125C1276.31 772.594 1274.66 774.656 1272.31 775.156V775.281C1275.03 775.719 1277.19 778.062 1277.19 780.938C1277.19 784.625 1273.59 787.312 1268.59 787.312ZM1268.59 784.094C1271.25 784.094 1273 782.656 1273 780.562C1273 778.438 1271.12 776.875 1268.59 776.875C1266.03 776.875 1264.16 778.438 1264.19 780.562C1264.16 782.656 1265.91 784.094 1268.59 784.094ZM1268.59 773.844C1270.78 773.844 1272.34 772.469 1272.34 770.5C1272.34 768.594 1270.81 767.25 1268.59 767.25C1266.34 767.25 1264.81 768.562 1264.81 770.5C1264.81 772.469 1266.38 773.844 1268.59 773.844Z" fill="black"/>
<path d="M1241.09 787V784.062L1249.09 776.344C1251.37 774.062 1252.56 772.719 1252.56 770.812C1252.56 768.719 1250.91 767.375 1248.69 767.375C1246.34 767.375 1244.84 768.844 1244.87 771.125H1241C1240.97 766.844 1244.19 764.062 1248.72 764.062C1253.34 764.062 1256.47 766.812 1256.47 770.625C1256.47 773.188 1255.22 775.25 1250.78 779.438L1246.75 783.438V783.594H1256.81V787H1241.09Z" fill="black"/>
<path d="M1229.09 787.312C1224.25 787.312 1220.81 784.688 1220.72 780.875H1224.81C1224.94 782.688 1226.75 783.875 1229.09 783.875C1231.59 783.875 1233.38 782.5 1233.38 780.5C1233.38 778.469 1231.62 777 1228.69 777H1226.66V773.875H1228.69C1231.09 773.875 1232.78 772.531 1232.75 770.562C1232.78 768.656 1231.34 767.375 1229.12 767.375C1227 767.375 1225.16 768.562 1225.09 770.469H1221.19C1221.28 766.656 1224.72 764.062 1229.16 764.062C1233.75 764.062 1236.72 766.875 1236.69 770.344C1236.72 772.875 1235.03 774.719 1232.56 775.219V775.406C1235.75 775.844 1237.56 777.875 1237.53 780.719C1237.56 784.531 1234 787.312 1229.09 787.312Z" fill="black"/>
</g>
<g id="mirae_hall_331">
<path d="M1335 645C1335 640.582 1338.58 637 1343 637H1598C1602.42 637 1606 640.582 1606 645V819C1606 823.418 1602.42 827 1598 827H1343C1338.58 827 1335 823.418 1335 819V645Z" fill="#F7FBFF"/>
<path d="M1598 824V827H1343L1343 824H1598ZM1603 819V645C1603 642.239 1600.76 640 1598 640H1343C1340.24 640 1338 642.239 1338 645V819C1338 821.761 1340.24 824 1343 824L1343 827L1342.59 826.989C1338.36 826.775 1335 823.28 1335 819V645C1335 640.582 1338.58 637 1343 637H1598C1602.42 637 1606 640.582 1606 645V819C1606 823.418 1602.42 827 1598 827V824C1600.76 824 1603 821.761 1603 819Z" fill="#2E2F33" fill-opacity="0.88"/>
<path d="M1493.5 720.375V743H1489.41V724.344H1489.28L1484 727.719V724L1489.59 720.375H1493.5Z" fill="black"/>
<path d="M1472.31 743.312C1467.47 743.312 1464.03 740.688 1463.94 736.875H1468.03C1468.16 738.688 1469.97 739.875 1472.31 739.875C1474.81 739.875 1476.59 738.5 1476.59 736.5C1476.59 734.469 1474.84 733 1471.91 733H1469.88V729.875H1471.91C1474.31 729.875 1476 728.531 1475.97 726.562C1476 724.656 1474.56 723.375 1472.34 723.375C1470.22 723.375 1468.38 724.562 1468.31 726.469H1464.41C1464.5 722.656 1467.94 720.062 1472.38 720.062C1476.97 720.062 1479.94 722.875 1479.91 726.344C1479.94 728.875 1478.25 730.719 1475.78 731.219V731.406C1478.97 731.844 1480.78 733.875 1480.75 736.719C1480.78 740.531 1477.22 743.312 1472.31 743.312Z" fill="black"/>
<path d="M1452.09 743.312C1447.25 743.312 1443.81 740.688 1443.72 736.875H1447.81C1447.94 738.688 1449.75 739.875 1452.09 739.875C1454.59 739.875 1456.38 738.5 1456.38 736.5C1456.38 734.469 1454.62 733 1451.69 733H1449.66V729.875H1451.69C1454.09 729.875 1455.78 728.531 1455.75 726.562C1455.78 724.656 1454.34 723.375 1452.12 723.375C1450 723.375 1448.16 724.562 1448.09 726.469H1444.19C1444.28 722.656 1447.72 720.062 1452.16 720.062C1456.75 720.062 1459.72 722.875 1459.69 726.344C1459.72 728.875 1458.03 730.719 1455.56 731.219V731.406C1458.75 731.844 1460.56 733.875 1460.53 736.719C1460.56 740.531 1457 743.312 1452.09 743.312Z" fill="black"/>
</g>
<g id="mirae_hall_343">
<path d="M1338 887C1338 882.582 1341.58 879 1346 879H1601C1605.42 879 1609 882.582 1609 887V1047C1609 1051.42 1605.42 1055 1601 1055H1346C1341.58 1055 1338 1051.42 1338 1047V887Z" fill="#F7FBFF"/>
<path d="M1601 1052V1055H1346L1346 1052H1601ZM1606 1047V887C1606 884.239 1603.76 882 1601 882H1346C1343.24 882 1341 884.239 1341 887V1047C1341 1049.76 1343.24 1052 1346 1052L1346 1055L1345.59 1054.99C1341.36 1054.77 1338 1051.28 1338 1047V887C1338 882.582 1341.58 879 1346 879H1601C1605.42 879 1609 882.582 1609 887V1047C1609 1051.42 1605.42 1055 1601 1055V1052C1603.76 1052 1606 1049.76 1606 1047Z" fill="#2E2F33" fill-opacity="0.88"/>
<path d="M1492.97 978.312C1488.12 978.312 1484.69 975.688 1484.59 971.875H1488.69C1488.81 973.688 1490.62 974.875 1492.97 974.875C1495.47 974.875 1497.25 973.5 1497.25 971.5C1497.25 969.469 1495.5 968 1492.56 968H1490.53V964.875H1492.56C1494.97 964.875 1496.66 963.531 1496.62 961.562C1496.66 959.656 1495.22 958.375 1493 958.375C1490.88 958.375 1489.03 959.562 1488.97 961.469H1485.06C1485.16 957.656 1488.59 955.062 1493.03 955.062C1497.62 955.062 1500.59 957.875 1500.56 961.344C1500.59 963.875 1498.91 965.719 1496.44 966.219V966.406C1499.62 966.844 1501.44 968.875 1501.41 971.719C1501.44 975.531 1497.88 978.312 1492.97 978.312Z" fill="black"/>
<path d="M1463.69 973.781V970.531L1473.47 955.375H1478.53V970.438H1481.5V973.781H1478.53V978H1474.66V973.781H1463.69ZM1467.84 970.438H1474.72V960H1474.47L1467.84 970.281V970.438Z" fill="black"/>
<path d="M1452.09 978.312C1447.25 978.312 1443.81 975.688 1443.72 971.875H1447.81C1447.94 973.688 1449.75 974.875 1452.09 974.875C1454.59 974.875 1456.38 973.5 1456.38 971.5C1456.38 969.469 1454.62 968 1451.69 968H1449.66V964.875H1451.69C1454.09 964.875 1455.78 963.531 1455.75 961.562C1455.78 959.656 1454.34 958.375 1452.12 958.375C1450 958.375 1448.16 959.562 1448.09 961.469H1444.19C1444.28 957.656 1447.72 955.062 1452.16 955.062C1456.75 955.062 1459.72 957.875 1459.69 961.344C1459.72 963.875 1458.03 965.719 1455.56 966.219V966.406C1458.75 966.844 1460.56 968.875 1460.53 971.719C1460.56 975.531 1457 978.312 1452.09 978.312Z" fill="black"/>
</g>
<g id="mirae_hall_341">
<path d="M1606 887C1606 882.582 1609.58 879 1614 879H1871C1875.42 879 1879 882.582 1879 887V1047C1879 1051.42 1875.42 1055 1871 1055H1614C1609.58 1055 1606 1051.42 1606 1047V887Z" fill="#F7FBFF"/>
<path d="M1871 1052V1055H1614L1614 1052H1871ZM1876 1047V887C1876 884.239 1873.76 882 1871 882H1614C1611.24 882 1609 884.239 1609 887V1047C1609 1049.76 1611.24 1052 1614 1052L1614 1055L1613.59 1054.99C1609.36 1054.77 1606 1051.28 1606 1047V887C1606 882.582 1609.58 879 1614 879H1871C1875.42 879 1879 882.582 1879 887V1047C1879 1051.42 1875.42 1055 1871 1055V1052C1873.76 1052 1876 1049.76 1876 1047Z" fill="#2E2F33" fill-opacity="0.88"/>
<path d="M1765.62 955.375V978H1761.53V959.344H1761.41L1756.12 962.719V959L1761.72 955.375H1765.62Z" fill="black"/>
<path d="M1735.69 973.781V970.531L1745.47 955.375H1750.53V970.438H1753.5V973.781H1750.53V978H1746.66V973.781H1735.69ZM1739.84 970.438H1746.72V960H1746.47L1739.84 970.281V970.438Z" fill="black"/>
<path d="M1724.09 978.312C1719.25 978.312 1715.81 975.688 1715.72 971.875H1719.81C1719.94 973.688 1721.75 974.875 1724.09 974.875C1726.59 974.875 1728.38 973.5 1728.38 971.5C1728.38 969.469 1726.62 968 1723.69 968H1721.66V964.875H1723.69C1726.09 964.875 1727.78 963.531 1727.75 961.562C1727.78 959.656 1726.34 958.375 1724.12 958.375C1722 958.375 1720.16 959.562 1720.09 961.469H1716.19C1716.28 957.656 1719.72 955.062 1724.16 955.062C1728.75 955.062 1731.72 957.875 1731.69 961.344C1731.72 963.875 1730.03 965.719 1727.56 966.219V966.406C1730.75 966.844 1732.56 968.875 1732.53 971.719C1732.56 975.531 1729 978.312 1724.09 978.312Z" fill="black"/>
</g>
<g id="mirae_hall_334">
<path d="M1603 645C1603 640.582 1606.58 637 1611 637H1871C1875.42 637 1879 640.582 1879 645V819C1879 823.418 1875.42 827 1871 827H1611C1606.58 827 1603 823.418 1603 819V645Z" fill="#F7FBFF"/>
<path d="M1871 824V827H1611L1611 824H1871ZM1876 819V645C1876 642.239 1873.76 640 1871 640H1611C1608.24 640 1606 642.239 1606 645V819C1606 821.761 1608.24 824 1611 824L1611 827L1610.59 826.989C1606.36 826.775 1603 823.28 1603 819V645C1603 640.582 1606.58 637 1611 637H1871C1875.42 637 1879 640.582 1879 645V819C1879 823.418 1875.42 827 1871 827V824C1873.76 824 1876 821.761 1876 819Z" fill="#2E2F33" fill-opacity="0.88"/>
<path d="M1751.91 738.781V735.531L1761.69 720.375H1766.75V735.438H1769.72V738.781H1766.75V743H1762.88V738.781H1751.91ZM1756.06 735.438H1762.94V725H1762.69L1756.06 735.281V735.438Z" fill="black"/>
<path d="M1740.31 743.312C1735.47 743.312 1732.03 740.688 1731.94 736.875H1736.03C1736.16 738.688 1737.97 739.875 1740.31 739.875C1742.81 739.875 1744.59 738.5 1744.59 736.5C1744.59 734.469 1742.84 733 1739.91 733H1737.88V729.875H1739.91C1742.31 729.875 1744 728.531 1743.97 726.562C1744 724.656 1742.56 723.375 1740.34 723.375C1738.22 723.375 1736.38 724.562 1736.31 726.469H1732.41C1732.5 722.656 1735.94 720.062 1740.38 720.062C1744.97 720.062 1747.94 722.875 1747.91 726.344C1747.94 728.875 1746.25 730.719 1743.78 731.219V731.406C1746.97 731.844 1748.78 733.875 1748.75 736.719C1748.78 740.531 1745.22 743.312 1740.31 743.312Z" fill="black"/>
<path d="M1720.09 743.312C1715.25 743.312 1711.81 740.688 1711.72 736.875H1715.81C1715.94 738.688 1717.75 739.875 1720.09 739.875C1722.59 739.875 1724.38 738.5 1724.38 736.5C1724.38 734.469 1722.62 733 1719.69 733H1717.66V729.875H1719.69C1722.09 729.875 1723.78 728.531 1723.75 726.562C1723.78 724.656 1722.34 723.375 1720.12 723.375C1718 723.375 1716.16 724.562 1716.09 726.469H1712.19C1712.28 722.656 1715.72 720.062 1720.16 720.062C1724.75 720.062 1727.72 722.875 1727.69 726.344C1727.72 728.875 1726.03 730.719 1723.56 731.219V731.406C1726.75 731.844 1728.56 733.875 1728.53 736.719C1728.56 740.531 1725 743.312 1720.09 743.312Z" fill="black"/>
</g>
<g id="mirae_hall_336">
<path d="M1876 645C1876 640.582 1879.58 637 1884 637H2007C2011.42 637 2015 640.582 2015 645V819C2015 823.418 2011.42 827 2007 827H1884C1879.58 827 1876 823.418 1876 819V645Z" fill="#F7FBFF"/>
<path d="M2007 824V827H1884L1884 824H2007ZM2012 819V645C2012 642.239 2009.76 640 2007 640H1884C1881.24 640 1879 642.239 1879 645V819C1879 821.761 1881.24 824 1884 824L1884 827L1883.59 826.989C1879.36 826.775 1876 823.28 1876 819V645C1876 640.72 1879.36 637.225 1883.59 637.011L1884 637H2007C2011.42 637 2015 640.582 2015 645V819C2015 823.418 2011.42 827 2007 827V824C2009.76 824 2012 821.761 2012 819Z" fill="#2E2F33" fill-opacity="0.88"/>
<path d="M1965.78 743.312C1961.38 743.281 1956.94 740.656 1956.97 732.312C1956.97 724.562 1960.5 720.062 1966.03 720.062C1970.41 720.062 1973.41 722.812 1973.91 726.469H1969.88C1969.47 724.75 1968.09 723.594 1966.03 723.594C1962.75 723.594 1960.91 726.5 1960.91 731.25H1961.13C1962.28 729.312 1964.47 728.156 1966.94 728.156C1971 728.156 1974.13 731.219 1974.13 735.5C1974.13 740 1970.78 743.344 1965.78 743.312ZM1965.78 740.031C1968.31 740.031 1970.19 738.062 1970.19 735.594C1970.19 733.188 1968.34 731.25 1965.84 731.25C1963.31 731.25 1961.38 733.25 1961.34 735.625C1961.38 738 1963.22 740.031 1965.78 740.031Z" fill="black"/>
<path d="M1945.31 743.312C1940.47 743.312 1937.03 740.688 1936.94 736.875H1941.03C1941.16 738.688 1942.97 739.875 1945.31 739.875C1947.81 739.875 1949.59 738.5 1949.59 736.5C1949.59 734.469 1947.84 733 1944.91 733H1942.88V729.875H1944.91C1947.31 729.875 1949 728.531 1948.97 726.562C1949 724.656 1947.56 723.375 1945.34 723.375C1943.22 723.375 1941.38 724.562 1941.31 726.469H1937.41C1937.5 722.656 1940.94 720.062 1945.38 720.062C1949.97 720.062 1952.94 722.875 1952.91 726.344C1952.94 728.875 1951.25 730.719 1948.78 731.219V731.406C1951.97 731.844 1953.78 733.875 1953.75 736.719C1953.78 740.531 1950.22 743.312 1945.31 743.312Z" fill="black"/>
<path d="M1925.09 743.312C1920.25 743.312 1916.81 740.688 1916.72 736.875H1920.81C1920.94 738.688 1922.75 739.875 1925.09 739.875C1927.59 739.875 1929.38 738.5 1929.38 736.5C1929.38 734.469 1927.62 733 1924.69 733H1922.66V729.875H1924.69C1927.09 729.875 1928.78 728.531 1928.75 726.562C1928.78 724.656 1927.34 723.375 1925.12 723.375C1923 723.375 1921.16 724.562 1921.09 726.469H1917.19C1917.28 722.656 1920.72 720.062 1925.16 720.062C1929.75 720.062 1932.72 722.875 1932.69 726.344C1932.72 728.875 1931.03 730.719 1928.56 731.219V731.406C1931.75 731.844 1933.56 733.875 1933.53 736.719C1933.56 740.531 1930 743.312 1925.09 743.312Z" fill="black"/>
</g>
<g id="mirae_hall_340">
<path d="M1876 887C1876 882.582 1879.58 879 1884 879H2010C2014.42 879 2018 882.582 2018 887V936C2018 940.418 2014.42 944 2010 944H1884C1879.58 944 1876 940.418 1876 936V887Z" fill="#F7FBFF"/>
<path d="M2010 941V944H1884L1884 941H2010ZM2015 936V887C2015 884.239 2012.76 882 2010 882H1884C1881.24 882 1879 884.239 1879 887V936C1879 938.761 1881.24 941 1884 941L1884 944L1883.59 943.989C1879.36 943.775 1876 940.28 1876 936V887C1876 882.582 1879.58 879 1884 879H2010C2014.42 879 2018 882.582 2018 887V936C2018 940.418 2014.42 944 2010 944V941C2012.76 941 2015 938.761 2015 936Z" fill="#2E2F33" fill-opacity="0.88"/>
<path d="M1967.09 922.312C1961.66 922.312 1958.41 918.094 1958.41 910.688C1958.41 903.312 1961.66 899.062 1967.09 899.062C1972.5 899.062 1975.78 903.312 1975.78 910.688C1975.78 918.094 1972.53 922.312 1967.09 922.312ZM1967.09 918.906C1969.94 918.906 1971.69 916.125 1971.69 910.688C1971.69 905.281 1969.91 902.438 1967.09 902.438C1964.28 902.438 1962.5 905.281 1962.5 910.688C1962.5 916.125 1964.25 918.906 1967.09 918.906Z" fill="black"/>
<path d="M1937.69 917.781V914.531L1947.47 899.375H1952.53V914.438H1955.5V917.781H1952.53V922H1948.66V917.781H1937.69ZM1941.84 914.438H1948.72V904H1948.47L1941.84 914.281V914.438Z" fill="black"/>
<path d="M1926.09 922.312C1921.25 922.312 1917.81 919.688 1917.72 915.875H1921.81C1921.94 917.688 1923.75 918.875 1926.09 918.875C1928.59 918.875 1930.38 917.5 1930.38 915.5C1930.38 913.469 1928.62 912 1925.69 912H1923.66V908.875H1925.69C1928.09 908.875 1929.78 907.531 1929.75 905.562C1929.78 903.656 1928.34 902.375 1926.12 902.375C1924 902.375 1922.16 903.562 1922.09 905.469H1918.19C1918.28 901.656 1921.72 899.062 1926.16 899.062C1930.75 899.062 1933.72 901.875 1933.69 905.344C1933.72 907.875 1932.03 909.719 1929.56 910.219V910.406C1932.75 910.844 1934.56 912.875 1934.53 915.719C1934.56 919.531 1931 922.312 1926.09 922.312Z" fill="black"/>
</g>
<g id="mirae_hall_339">
<path d="M2015 887C2015 882.582 2018.58 879 2023 879H2289C2293.42 879 2297 882.582 2297 887V1130C2297 1134.42 2293.42 1138 2289 1138H2023C2018.58 1138 2015 1134.42 2015 1130V887Z" fill="#F7FBFF"/>
<path d="M2289 1135V1138H2023L2023 1135H2289ZM2294 1130V887C2294 884.239 2291.76 882 2289 882H2023C2020.24 882 2018 884.239 2018 887V1130C2018 1132.76 2020.24 1135 2023 1135L2023 1138L2022.59 1137.99C2018.36 1137.77 2015 1134.28 2015 1130V887C2015 882.72 2018.36 879.225 2022.59 879.011L2023 879H2289C2293.42 879 2297 882.582 2297 887V1130C2297 1134.42 2293.42 1138 2289 1138V1135C2291.76 1135 2294 1132.76 2294 1130Z" fill="#2E2F33" fill-opacity="0.88"/>
<path d="M2175.34 996.062C2179.78 996.094 2184.16 998.719 2184.19 1007C2184.19 1014.81 2180.66 1019.31 2175.09 1019.31C2170.72 1019.31 2167.72 1016.59 2167.22 1012.84H2171.25C2171.66 1014.62 2173.03 1015.78 2175.09 1015.78C2178.38 1015.78 2180.22 1012.87 2180.25 1008.03H2180C2178.84 1010 2176.69 1011.16 2174.19 1011.16C2170.16 1011.16 2167.03 1008.09 2167 1003.81C2167 999.375 2170.31 996.031 2175.34 996.062ZM2175.38 999.344C2172.84 999.344 2170.94 1001.31 2170.97 1003.72C2170.97 1006.16 2172.78 1008.06 2175.31 1008.06C2177.81 1008.06 2179.78 1006.03 2179.75 1003.69C2179.75 1001.37 2177.91 999.344 2175.38 999.344Z" fill="black"/>
<path d="M2155.31 1019.31C2150.47 1019.31 2147.03 1016.69 2146.94 1012.88H2151.03C2151.16 1014.69 2152.97 1015.88 2155.31 1015.88C2157.81 1015.88 2159.59 1014.5 2159.59 1012.5C2159.59 1010.47 2157.84 1009 2154.91 1009H2152.88V1005.88H2154.91C2157.31 1005.88 2159 1004.53 2158.97 1002.56C2159 1000.66 2157.56 999.375 2155.34 999.375C2153.22 999.375 2151.38 1000.56 2151.31 1002.47H2147.41C2147.5 998.656 2150.94 996.062 2155.38 996.062C2159.97 996.062 2162.94 998.875 2162.91 1002.34C2162.94 1004.88 2161.25 1006.72 2158.78 1007.22V1007.41C2161.97 1007.84 2163.78 1009.88 2163.75 1012.72C2163.78 1016.53 2160.22 1019.31 2155.31 1019.31Z" fill="black"/>
<path d="M2135.09 1019.31C2130.25 1019.31 2126.81 1016.69 2126.72 1012.88H2130.81C2130.94 1014.69 2132.75 1015.88 2135.09 1015.88C2137.59 1015.88 2139.38 1014.5 2139.38 1012.5C2139.38 1010.47 2137.62 1009 2134.69 1009H2132.66V1005.88H2134.69C2137.09 1005.88 2138.78 1004.53 2138.75 1002.56C2138.78 1000.66 2137.34 999.375 2135.12 999.375C2133 999.375 2131.16 1000.56 2131.09 1002.47H2127.19C2127.28 998.656 2130.72 996.062 2135.16 996.062C2139.75 996.062 2142.72 998.875 2142.69 1002.34C2142.72 1004.88 2141.03 1006.72 2138.56 1007.22V1007.41C2141.75 1007.84 2143.56 1009.88 2143.53 1012.72C2143.56 1016.53 2140 1019.31 2135.09 1019.31Z" fill="black"/>
</g>
<g id="mirae_hall_338">
<path d="M2140 655C2140 650.582 2143.58 647 2148 647H2423C2427.42 647 2431 650.582 2431 655V793C2431 797.418 2427.42 801 2423 801H2148C2143.58 801 2140 797.418 2140 793V655Z" fill="#F7FBFF"/>
<path d="M2423 798V801H2148L2148 798H2423ZM2428 793V655C2428 652.239 2425.76 650 2423 650H2148C2145.24 650 2143 652.239 2143 655V793C2143 795.761 2145.24 798 2148 798L2148 801L2147.59 800.989C2143.36 800.775 2140 797.28 2140 793V655C2140 650.582 2143.58 647 2148 647H2423C2427.42 647 2431 650.582 2431 655V793C2431 797.418 2427.42 801 2423 801V798C2425.76 798 2428 795.761 2428 793Z" fill="#2E2F33" fill-opacity="0.88"/>
<path d="M2305.53 735.312C2300.5 735.312 2296.94 732.625 2296.94 728.938C2296.94 726.062 2299.06 723.719 2301.78 723.281V723.156C2299.41 722.656 2297.78 720.594 2297.78 718.125C2297.78 714.625 2301.06 712.062 2305.53 712.062C2309.97 712.062 2313.25 714.625 2313.25 718.125C2313.25 720.594 2311.59 722.656 2309.25 723.156V723.281C2311.97 723.719 2314.12 726.062 2314.12 728.938C2314.12 732.625 2310.53 735.312 2305.53 735.312ZM2305.53 732.094C2308.19 732.094 2309.94 730.656 2309.94 728.562C2309.94 726.438 2308.06 724.875 2305.53 724.875C2302.97 724.875 2301.09 726.438 2301.12 728.562C2301.09 730.656 2302.84 732.094 2305.53 732.094ZM2305.53 721.844C2307.72 721.844 2309.28 720.469 2309.28 718.5C2309.28 716.594 2307.75 715.25 2305.53 715.25C2303.28 715.25 2301.75 716.562 2301.75 718.5C2301.75 720.469 2303.31 721.844 2305.53 721.844Z" fill="black"/>
<path d="M2285.31 735.312C2280.47 735.312 2277.03 732.688 2276.94 728.875H2281.03C2281.16 730.688 2282.97 731.875 2285.31 731.875C2287.81 731.875 2289.59 730.5 2289.59 728.5C2289.59 726.469 2287.84 725 2284.91 725H2282.88V721.875H2284.91C2287.31 721.875 2289 720.531 2288.97 718.562C2289 716.656 2287.56 715.375 2285.34 715.375C2283.22 715.375 2281.38 716.562 2281.31 718.469H2277.41C2277.5 714.656 2280.94 712.062 2285.38 712.062C2289.97 712.062 2292.94 714.875 2292.91 718.344C2292.94 720.875 2291.25 722.719 2288.78 723.219V723.406C2291.97 723.844 2293.78 725.875 2293.75 728.719C2293.78 732.531 2290.22 735.312 2285.31 735.312Z" fill="black"/>
<path d="M2265.09 735.312C2260.25 735.312 2256.81 732.688 2256.72 728.875H2260.81C2260.94 730.688 2262.75 731.875 2265.09 731.875C2267.59 731.875 2269.38 730.5 2269.38 728.5C2269.38 726.469 2267.62 725 2264.69 725H2262.66V721.875H2264.69C2267.09 721.875 2268.78 720.531 2268.75 718.562C2268.78 716.656 2267.34 715.375 2265.12 715.375C2263 715.375 2261.16 716.562 2261.09 718.469H2257.19C2257.28 714.656 2260.72 712.062 2265.16 712.062C2269.75 712.062 2272.72 714.875 2272.69 718.344C2272.72 720.875 2271.03 722.719 2268.56 723.219V723.406C2271.75 723.844 2273.56 725.875 2273.53 728.719C2273.56 732.531 2270 735.312 2265.09 735.312Z" fill="black"/>
</g>
<g id="Vector_6">
<path d="M2014 220C2014 215.582 2017.58 212 2022 212H2423C2427.42 212 2431 215.582 2431 220V642C2431 646.418 2427.42 650 2423 650H2022C2017.58 650 2014 646.418 2014 642V220Z" fill="#F7FBFF"/>
<path d="M2423 647V650H2022L2022 647H2423ZM2428 642V220C2428 217.239 2425.76 215 2423 215H2022C2019.24 215 2017 217.239 2017 220V642C2017 644.761 2019.24 647 2022 647L2022 650L2021.59 649.989C2017.36 649.775 2014 646.28 2014 642V220C2014 215.582 2017.58 212 2022 212H2423C2427.42 212 2431 215.582 2431 220V642C2431 646.418 2427.42 650 2423 650V647C2425.76 647 2428 644.761 2428 642Z" fill="#2E2F33" fill-opacity="0.88"/>
<path d="M2245.66 419.125V421.844C2245.62 425.344 2245.62 429.281 2244.53 435.188L2241.03 434.812C2242.12 429.312 2242.12 425.297 2242.16 421.906H2225.28V419.125H2245.66ZM2248.34 438.281V441.125H2222.59V438.281H2232.09V428.469H2235.53V438.281H2248.34Z" fill="black"/>
<path d="M2205.09 422.562C2205.09 425.656 2207.38 428.625 2211.81 429.844L2210.22 432.594C2206.98 431.703 2204.69 429.781 2203.41 427.375C2202.17 430.109 2199.83 432.266 2196.5 433.281L2194.81 430.562C2199.25 429.281 2201.62 426.031 2201.62 422.562V422.438H2195.72V419.688H2201.62V416.406H2205.12V419.688H2211V422.438H2205.09V422.562ZM2217.22 416.531V423.438H2221.16V426.281H2217.22V433.656H2213.75V416.531H2217.22ZM2208.03 434.25C2213.91 434.25 2217.47 436.156 2217.5 439.5C2217.47 442.812 2213.91 444.719 2208.03 444.719C2202.09 444.719 2198.47 442.812 2198.47 439.5C2198.47 436.156 2202.09 434.25 2208.03 434.25ZM2208.03 436.938C2204.12 436.938 2201.94 437.781 2201.94 439.5C2201.94 441.188 2204.12 442.062 2208.03 442.062C2211.91 442.062 2214.06 441.188 2214.06 439.5C2214.06 437.781 2211.91 436.938 2208.03 436.938Z" fill="black"/>
</g>
<g id="mirae_hall_319">
<path d="M807 14C807 9.58173 810.582 6 815 6H897C901.418 6 905 9.58172 905 14V235C905 239.418 901.418 243 897 243H815C810.582 243 807 239.418 807 235V14Z" fill="#F7FBFF"/>
<path d="M897 240V243H815L815 240H897ZM902 235V14C902 11.2386 899.761 9 897 9H815C812.239 9 810 11.2386 810 14V235C810 237.761 812.239 240 815 240L815 243C810.582 243 807 239.418 807 235V14C807 9.58173 810.582 6 815 6H897C901.418 6 905 9.58172 905 14V235C905 239.418 901.418 243 897 243V240C899.761 240 902 237.761 902 235Z" fill="#2E2F33" fill-opacity="0.88"/>
<path d="M872.812 112.062C877.25 112.094 881.625 114.719 881.656 123C881.656 130.812 878.125 135.312 872.562 135.312C868.188 135.312 865.188 132.594 864.688 128.844H868.719C869.125 130.625 870.5 131.781 872.562 131.781C875.844 131.781 877.688 128.875 877.719 124.031H877.469C876.312 126 874.156 127.156 871.656 127.156C867.625 127.156 864.5 124.094 864.469 119.812C864.469 115.375 867.781 112.031 872.812 112.062ZM872.844 115.344C870.312 115.344 868.406 117.312 868.438 119.719C868.438 122.156 870.25 124.062 872.781 124.062C875.281 124.062 877.25 122.031 877.219 119.688C877.219 117.375 875.375 115.344 872.844 115.344Z" fill="black"/>
<path d="M859.281 112.375V135H855.188V116.344H855.062L849.781 119.719V116L855.375 112.375H859.281Z" fill="black"/>
<path d="M838.094 135.312C833.25 135.312 829.812 132.688 829.719 128.875H833.812C833.938 130.688 835.75 131.875 838.094 131.875C840.594 131.875 842.375 130.5 842.375 128.5C842.375 126.469 840.625 125 837.688 125H835.656V121.875H837.688C840.094 121.875 841.781 120.531 841.75 118.562C841.781 116.656 840.344 115.375 838.125 115.375C836 115.375 834.156 116.562 834.094 118.469H830.188C830.281 114.656 833.719 112.062 838.156 112.062C842.75 112.062 845.719 114.875 845.688 118.344C845.719 120.875 844.031 122.719 841.562 123.219V123.406C844.75 123.844 846.562 125.875 846.531 128.719C846.562 132.531 843 135.312 838.094 135.312Z" fill="black"/>
</g>
<g id="mirae_hall_318">
<path d="M712 14C712 9.58173 715.582 6 720 6H802C806.418 6 810 9.58172 810 14V235C810 239.418 806.418 243 802 243H720C715.582 243 712 239.418 712 235V14Z" fill="#F7FBFF"/>
<path d="M802 240V243H720L720 240H802ZM807 235V14C807 11.2386 804.761 9 802 9H720C717.239 9 715 11.2386 715 14V235C715 237.761 717.239 240 720 240L720 243C715.582 243 712 239.418 712 235V14C712 9.58173 715.582 6 720 6H802C806.418 6 810 9.58172 810 14V235C810 239.418 806.418 243 802 243V240C804.761 240 807 237.761 807 235Z" fill="#2E2F33" fill-opacity="0.88"/>
<path d="M778 135.312C772.969 135.312 769.406 132.625 769.406 128.938C769.406 126.062 771.531 123.719 774.25 123.281V123.156C771.875 122.656 770.25 120.594 770.25 118.125C770.25 114.625 773.531 112.062 778 112.062C782.438 112.062 785.719 114.625 785.719 118.125C785.719 120.594 784.062 122.656 781.719 123.156V123.281C784.438 123.719 786.594 126.062 786.594 128.938C786.594 132.625 783 135.312 778 135.312ZM778 132.094C780.656 132.094 782.406 130.656 782.406 128.562C782.406 126.438 780.531 124.875 778 124.875C775.438 124.875 773.562 126.438 773.594 128.562C773.562 130.656 775.312 132.094 778 132.094ZM778 121.844C780.188 121.844 781.75 120.469 781.75 118.5C781.75 116.594 780.219 115.25 778 115.25C775.75 115.25 774.219 116.562 774.219 118.5C774.219 120.469 775.781 121.844 778 121.844Z" fill="black"/>
<path d="M764.281 112.375V135H760.188V116.344H760.062L754.781 119.719V116L760.375 112.375H764.281Z" fill="black"/>
<path d="M743.094 135.312C738.25 135.312 734.812 132.688 734.719 128.875H738.812C738.938 130.688 740.75 131.875 743.094 131.875C745.594 131.875 747.375 130.5 747.375 128.5C747.375 126.469 745.625 125 742.688 125H740.656V121.875H742.688C745.094 121.875 746.781 120.531 746.75 118.562C746.781 116.656 745.344 115.375 743.125 115.375C741 115.375 739.156 116.562 739.094 118.469H735.188C735.281 114.656 738.719 112.062 743.156 112.062C747.75 112.062 750.719 114.875 750.688 118.344C750.719 120.875 749.031 122.719 746.562 123.219V123.406C749.75 123.844 751.562 125.875 751.531 128.719C751.562 132.531 748 135.312 743.094 135.312Z" fill="black"/>
</g>
<g id="mirae_hall_317">
<path d="M617 14C617 9.58173 620.582 6 625 6H707C711.418 6 715 9.58172 715 14V235C715 239.418 711.418 243 707 243H625C620.582 243 617 239.418 617 235V14Z" fill="#F7FBFF"/>
<path d="M707 240V243H625L625 240H707ZM712 235V14C712 11.2386 709.761 9 707 9H625C622.239 9 620 11.2386 620 14V235C620 237.761 622.239 240 625 240L625 243C620.582 243 617 239.418 617 235V14C617 9.58173 620.582 6 625 6H707C711.418 6 715 9.58172 715 14V235C715 239.418 711.418 243 707 243V240C709.761 240 712 237.761 712 235Z" fill="#2E2F33" fill-opacity="0.88"/>
<path d="M676.625 135L686.438 115.938V115.781H675.062V112.375H690.656V115.844L680.844 135H676.625Z" fill="black"/>
<path d="M670.281 112.375V135H666.188V116.344H666.062L660.781 119.719V116L666.375 112.375H670.281Z" fill="black"/>
<path d="M649.094 135.312C644.25 135.312 640.812 132.688 640.719 128.875H644.812C644.938 130.688 646.75 131.875 649.094 131.875C651.594 131.875 653.375 130.5 653.375 128.5C653.375 126.469 651.625 125 648.688 125H646.656V121.875H648.688C651.094 121.875 652.781 120.531 652.75 118.562C652.781 116.656 651.344 115.375 649.125 115.375C647 115.375 645.156 116.562 645.094 118.469H641.188C641.281 114.656 644.719 112.062 649.156 112.062C653.75 112.062 656.719 114.875 656.688 118.344C656.719 120.875 655.031 122.719 652.562 123.219V123.406C655.75 123.844 657.562 125.875 657.531 128.719C657.562 132.531 654 135.312 649.094 135.312Z" fill="black"/>
</g>
<g id="mirae_hall_316">
<path d="M523 14C523 9.58173 526.582 6 531 6H613C617.418 6 621 9.58172 621 14V235C621 239.418 617.418 243 613 243H531C526.582 243 523 239.418 523 235V14Z" fill="#F7FBFF"/>
<path d="M613 240V243H531L531 240H613ZM618 235V14C618 11.2386 615.761 9 613 9H531C528.239 9 526 11.2386 526 14V235C526 237.761 528.239 240 531 240L531 243C526.582 243 523 239.418 523 235V14C523 9.58173 526.582 6 531 6H613C617.418 6 621 9.58172 621 14V235C621 239.418 617.418 243 613 243V240C615.761 240 618 237.761 618 235Z" fill="#2E2F33" fill-opacity="0.88"/>
<path d="M589.25 135.312C584.844 135.281 580.406 132.656 580.437 124.312C580.437 116.562 583.969 112.062 589.5 112.062C593.875 112.062 596.875 114.812 597.375 118.469H593.344C592.937 116.75 591.562 115.594 589.5 115.594C586.219 115.594 584.375 118.5 584.375 123.25H584.594C585.75 121.312 587.937 120.156 590.406 120.156C594.469 120.156 597.594 123.219 597.594 127.5C597.594 132 594.25 135.344 589.25 135.312ZM589.25 132.031C591.781 132.031 593.656 130.062 593.656 127.594C593.656 125.188 591.812 123.25 589.312 123.25C586.781 123.25 584.844 125.25 584.812 127.625C584.844 130 586.687 132.031 589.25 132.031Z" fill="black"/>
<path d="M575.281 112.375V135H571.188V116.344H571.062L565.781 119.719V116L571.375 112.375H575.281Z" fill="black"/>
<path d="M554.094 135.312C549.25 135.312 545.812 132.688 545.719 128.875H549.812C549.938 130.688 551.75 131.875 554.094 131.875C556.594 131.875 558.375 130.5 558.375 128.5C558.375 126.469 556.625 125 553.688 125H551.656V121.875H553.688C556.094 121.875 557.781 120.531 557.75 118.562C557.781 116.656 556.344 115.375 554.125 115.375C552 115.375 550.156 116.562 550.094 118.469H546.188C546.281 114.656 549.719 112.062 554.156 112.062C558.75 112.062 561.719 114.875 561.688 118.344C561.719 120.875 560.031 122.719 557.562 123.219V123.406C560.75 123.844 562.562 125.875 562.531 128.719C562.562 132.531 559 135.312 554.094 135.312Z" fill="black"/>
</g>
<g id="mirae_hall_315">
<path d="M428 14C428 9.58173 431.582 6 436 6H518C522.418 6 526 9.58172 526 14V235C526 239.418 522.418 243 518 243H436C431.582 243 428 239.418 428 235V14Z" fill="#F7FBFF"/>
<path d="M518 240V243H436L436 240H518ZM523 235V14C523 11.2386 520.761 9 518 9H436C433.239 9 431 11.2386 431 14V235C431 237.761 433.239 240 436 240L436 243C431.582 243 428 239.418 428 235V14C428 9.58173 431.582 6 436 6H518C522.418 6 526 9.58172 526 14V235C526 239.418 522.418 243 518 243V240C520.761 240 523 237.761 523 235Z" fill="#2E2F33" fill-opacity="0.88"/>
<path d="M493.812 135.312C489.281 135.312 485.969 132.625 485.844 128.875H489.812C489.938 130.719 491.656 132.031 493.812 132.031C496.344 132.031 498.156 130.188 498.156 127.688C498.156 125.094 496.281 123.25 493.688 123.25C491.938 123.219 490.656 123.844 489.938 125.188H486.156L487.531 112.375H500.906V115.781H490.875L490.188 121.781H490.406C491.281 120.781 492.938 120.062 494.781 120.062C499 120.062 502.094 123.219 502.094 127.562C502.094 132.094 498.688 135.312 493.812 135.312Z" fill="black"/>
<path d="M480.281 112.375V135H476.188V116.344H476.062L470.781 119.719V116L476.375 112.375H480.281Z" fill="black"/>
<path d="M459.094 135.312C454.25 135.312 450.812 132.688 450.719 128.875H454.812C454.938 130.688 456.75 131.875 459.094 131.875C461.594 131.875 463.375 130.5 463.375 128.5C463.375 126.469 461.625 125 458.688 125H456.656V121.875H458.688C461.094 121.875 462.781 120.531 462.75 118.562C462.781 116.656 461.344 115.375 459.125 115.375C457 115.375 455.156 116.562 455.094 118.469H451.188C451.281 114.656 454.719 112.062 459.156 112.062C463.75 112.062 466.719 114.875 466.688 118.344C466.719 120.875 465.031 122.719 462.562 123.219V123.406C465.75 123.844 467.562 125.875 467.531 128.719C467.562 132.531 464 135.312 459.094 135.312Z" fill="black"/>
</g>
<g id="mirae_hall_314">
<path d="M333 14C333 9.58173 336.582 6 341 6H423C427.418 6 431 9.58172 431 14V235C431 239.418 427.418 243 423 243H341C336.582 243 333 239.418 333 235V14Z" fill="#F7FBFF"/>
<path d="M423 240V243H341L341 240H423ZM428 235V14C428 11.2386 425.761 9 423 9H341C338.239 9 336 11.2386 336 14V235C336 237.761 338.239 240 341 240L341 243C336.582 243 333 239.418 333 235V14C333 9.58173 336.582 6 341 6H423C427.418 6 431 9.58172 431 14V235C431 239.418 427.418 243 423 243V240C425.761 240 428 237.761 428 235Z" fill="#2E2F33" fill-opacity="0.88"/>
<path d="M390.375 130.781V127.531L400.156 112.375H405.219V127.438H408.188V130.781H405.219V135H401.344V130.781H390.375ZM394.531 127.438H401.406V117H401.156L394.531 127.281V127.438Z" fill="black"/>
<path d="M385.281 112.375V135H381.188V116.344H381.062L375.781 119.719V116L381.375 112.375H385.281Z" fill="black"/>
<path d="M364.094 135.312C359.25 135.312 355.812 132.688 355.719 128.875H359.812C359.938 130.688 361.75 131.875 364.094 131.875C366.594 131.875 368.375 130.5 368.375 128.5C368.375 126.469 366.625 125 363.688 125H361.656V121.875H363.688C366.094 121.875 367.781 120.531 367.75 118.562C367.781 116.656 366.344 115.375 364.125 115.375C362 115.375 360.156 116.562 360.094 118.469H356.188C356.281 114.656 359.719 112.062 364.156 112.062C368.75 112.062 371.719 114.875 371.688 118.344C371.719 120.875 370.031 122.719 367.562 123.219V123.406C370.75 123.844 372.562 125.875 372.531 128.719C372.562 132.531 369 135.312 364.094 135.312Z" fill="black"/>
</g>
</g>
</svg>
