<svg width="1080" height="1080" viewBox="0 0 1080 1080" fill="none" xmlns="http://www.w3.org/2000/svg">
<rect width="1080" height="1080" fill="white"/>
<rect x="97" y="49" width="200" height="200" rx="30" fill="#F7FBFF"/>
<rect x="98.5" y="50.5" width="197" height="197" rx="28.5" stroke="#2E2F33" stroke-opacity="0.88" stroke-width="3"/>
<path d="M179.219 134.531V141.406H183.156V144.25H179.219V151.094H175.75V134.531H179.219ZM171.406 136.469C171.406 143.906 166.562 149.156 158.219 151.531L156.844 148.719C163.25 146.969 167.047 143.516 167.656 139.281H158.125V136.469H171.406ZM170.094 151.438C175.812 151.438 179.531 153.625 179.531 157.094C179.531 160.625 175.812 162.75 170.094 162.75C164.406 162.75 160.625 160.625 160.656 157.094C160.625 153.625 164.406 151.438 170.094 151.438ZM170.094 154.156C166.375 154.156 164.062 155.219 164.094 157.094C164.062 158.938 166.375 160.031 170.094 160.031C173.812 160.031 176.125 158.938 176.125 157.094C176.125 155.219 173.812 154.156 170.094 154.156ZM193.75 136.5C198.219 136.469 201.5 139.312 201.531 143.312C201.5 147.344 198.219 150.156 193.75 150.156C189.312 150.156 186 147.344 186 143.312C186 139.312 189.312 136.469 193.75 136.5ZM193.75 139.5C191.281 139.5 189.438 140.969 189.438 143.312C189.438 145.688 191.281 147.125 193.75 147.125C196.25 147.125 198.125 145.688 198.125 143.312C198.125 140.969 196.25 139.5 193.75 139.5ZM208.125 134.531V162.812H204.656V134.531H208.125ZM184.719 154.062C189.812 154.062 196.875 154 202.969 153.125L203.25 155.656C196.906 156.875 190.125 156.906 185.156 156.906L184.719 154.062ZM235.719 134.531V148.938H232.281V134.531H235.719ZM235.781 150.25V157.594H220.5V159.781H236.625V162.531H217.094V155H232.312V152.938H217.031V150.25H235.781ZM222.781 137.406C222.781 141 225.156 144.375 229.625 145.719L227.938 148.406C224.656 147.406 222.312 145.297 221.031 142.594C219.75 145.531 217.344 147.828 213.969 148.906L212.219 146.188C216.781 144.719 219.188 141.094 219.188 137.406V135.219H222.781V137.406Z" fill="black"/>
<path d="M197.332 304.805C204.715 304.805 209.324 307.344 209.324 311.68C209.324 316.094 204.715 318.633 197.332 318.633C189.793 318.633 185.145 316.094 185.145 311.68C185.145 307.344 189.793 304.805 197.332 304.805ZM197.332 308.672C192.645 308.672 190.105 309.648 190.145 311.68C190.105 313.711 192.645 314.766 197.332 314.766C201.941 314.766 204.402 313.711 204.402 311.68C204.402 309.648 201.941 308.672 197.332 308.672ZM208.973 283.047V291.289H213.777V295.469H208.973V304.023H203.973V283.047H208.973ZM186.785 285.273V289.766H194.051V285.273H199.051V301.992H181.824V285.273H186.785ZM186.785 298.047H194.051V293.633H186.785V298.047Z" fill="#373D4A"/>
<rect x="412.333" y="49" width="200" height="200" rx="30" fill="#D9FFE6"/>
<rect x="413.833" y="50.5" width="197" height="197" rx="28.5" stroke="#2E2F33" stroke-opacity="0.88" stroke-width="3"/>
<g clip-path="url(#clip0_506_291)">
<rect width="80" height="80" transform="translate(472.333 109)" fill="#D9FFE6"/>
<path d="M544.253 113.846C542.855 113.33 541.303 114.05 540.787 115.448L535.773 129.074H507.375L512.073 117.386C512.629 116.002 511.959 114.428 510.575 113.872C509.191 113.316 507.619 113.99 507.063 115.37L480.909 180.442C480.353 181.826 481.023 183.4 482.407 183.956C482.737 184.088 483.077 184.152 483.413 184.152C484.483 184.152 485.497 183.512 485.919 182.458L491.291 169.094C491.407 169.11 491.509 169.162 491.629 169.162H521.025L516.847 180.52C516.333 181.918 517.049 183.472 518.449 183.984C518.757 184.098 519.073 184.152 519.381 184.152C520.479 184.152 521.513 183.474 521.915 182.382L545.855 117.31C546.369 115.912 545.653 114.358 544.253 113.846ZM505.765 134.472H533.785L529.465 146.214H500.485L505.247 134.368C505.421 134.402 505.581 134.472 505.765 134.472ZM493.433 163.762L498.347 151.538C498.475 151.556 498.591 151.614 498.725 151.614H527.481L523.011 163.762H493.433Z" fill="#6E4944"/>
</g>
<path d="M509.638 283.047V318.594H504.95V283.047H509.638ZM502.216 283.828V317.031H497.49V305.312H492.45V301.289H497.49V296.445H493.115C491.454 302.305 487.861 307.266 481.2 311.211L478.271 307.695C485.478 303.438 488.642 298.262 489.325 291.289H480.341V287.266H494.286C494.286 289.043 494.169 290.762 493.974 292.422H497.49V283.828H502.216ZM541.591 283.047V292.734H546.396V296.836H541.591V308.75H536.591V283.047H541.591ZM530.81 285.898V289.883H519.755V298.867C526.181 298.828 529.716 298.633 533.7 297.773L534.208 301.758C529.755 302.695 525.654 302.891 517.763 302.891H514.755V285.898H530.81ZM542.88 313.984V317.969H518.544V306.016H523.505V313.984H542.88Z" fill="#373D4A"/>
<rect x="727.667" y="49" width="200" height="200" rx="30" fill="#F2F2F2"/>
<rect x="729.167" y="50.5" width="197" height="197" rx="28.5" stroke="#2E2F33" stroke-opacity="0.88" stroke-width="3"/>
<g clip-path="url(#clip1_506_291)">
<rect width="80" height="80" transform="translate(787.667 109)" fill="#F2F2F2"/>
<path d="M844.667 116H810.667C801.831 116 794.667 123.164 794.667 132V166C794.667 174.836 801.831 182 810.667 182H844.667C853.503 182 860.667 174.836 860.667 166V132C860.667 123.164 853.503 116 844.667 116ZM829.299 128.894H831.145C831.329 128.894 831.477 128.746 831.477 128.562V124.48C831.477 124.324 831.603 124.198 831.759 124.198H834.785C834.941 124.198 835.067 124.324 835.067 124.48V128.562C835.067 128.746 835.215 128.894 835.399 128.894H837.245C837.511 128.894 837.643 129.214 837.455 129.402L833.681 133.176C833.455 133.402 833.089 133.402 832.865 133.176L829.091 129.402C828.903 129.214 829.035 128.894 829.299 128.894ZM816.991 128.142L820.765 124.368C820.991 124.142 821.357 124.142 821.581 124.368L825.355 128.142C825.543 128.33 825.409 128.65 825.145 128.65H823.299C823.115 128.65 822.967 128.798 822.967 128.982V133.064C822.967 133.22 822.841 133.346 822.685 133.346H819.659C819.503 133.346 819.377 133.22 819.377 133.064V128.982C819.377 128.798 819.229 128.65 819.045 128.65H817.199C816.933 128.65 816.803 128.33 816.991 128.142ZM852.131 163.944C852.131 168.768 848.207 172.692 843.383 172.692H811.949C807.125 172.692 803.201 168.768 803.201 163.944V145.064C803.201 140.24 807.125 136.316 811.949 136.316H843.383C848.207 136.316 852.131 140.24 852.131 145.064V163.944Z" fill="#4592FB"/>
<path d="M843.383 137.864H811.949C807.979 137.864 804.749 141.094 804.749 145.064V163.944C804.749 167.914 807.979 171.146 811.949 171.146H843.383C847.353 171.146 850.583 167.916 850.583 163.944V145.064C850.583 141.094 847.353 137.864 843.383 137.864ZM839.843 142.48C840.859 142.48 841.683 143.304 841.683 144.32C841.683 145.336 840.859 146.16 839.843 146.16C838.827 146.16 838.003 145.336 838.003 144.32C838.003 143.304 838.827 142.48 839.843 142.48ZM827.453 142.48C828.469 142.48 829.293 143.304 829.293 144.32C829.293 145.336 828.469 146.16 827.453 146.16C826.437 146.16 825.613 145.336 825.613 144.32C825.613 143.304 826.437 142.48 827.453 142.48ZM815.063 142.48C816.079 142.48 816.903 143.304 816.903 144.32C816.903 145.336 816.079 146.16 815.063 146.16C814.047 146.16 813.223 145.336 813.223 144.32C813.223 143.304 814.047 142.48 815.063 142.48ZM820.395 155.53C820.395 156.106 819.927 156.574 819.351 156.574C818.775 156.574 818.307 156.106 818.307 155.53V150.06H817.761V165.134C817.761 165.764 817.251 166.274 816.621 166.274C815.991 166.274 815.481 165.764 815.481 165.134V156.464H814.641V165.134C814.641 165.764 814.131 166.274 813.501 166.274C812.871 166.274 812.361 165.764 812.361 165.134V150.06H811.659V155.53C811.659 156.106 811.191 156.574 810.615 156.574C810.039 156.574 809.571 156.106 809.571 155.53V149.082C809.571 147.928 810.505 146.994 811.659 146.994H818.303C819.455 146.994 820.391 147.928 820.391 149.082V155.53H820.395ZM832.785 155.53C832.785 156.106 832.317 156.574 831.741 156.574C831.165 156.574 830.697 156.106 830.697 155.53V150.06H830.151V165.134C830.151 165.764 829.641 166.274 829.011 166.274C828.381 166.274 827.871 165.764 827.871 165.134V156.464H827.033V165.134C827.033 165.764 826.523 166.274 825.893 166.274C825.263 166.274 824.753 165.764 824.753 165.134V150.06H824.051V155.53C824.051 156.106 823.583 156.574 823.007 156.574C822.431 156.574 821.963 156.106 821.963 155.53V149.082C821.963 147.928 822.897 146.994 824.051 146.994H830.695C831.849 146.994 832.783 147.928 832.783 149.082L832.785 155.53ZM845.175 155.53C845.175 156.106 844.707 156.574 844.131 156.574C843.555 156.574 843.087 156.106 843.087 155.53V150.06H842.541V165.134C842.541 165.764 842.031 166.274 841.401 166.274C840.771 166.274 840.261 165.764 840.261 165.134V156.464H839.421V165.134C839.421 165.764 838.911 166.274 838.281 166.274C837.651 166.274 837.141 165.764 837.141 165.134V150.06H836.439V155.53C836.439 156.106 835.971 156.574 835.395 156.574C834.819 156.574 834.351 156.106 834.351 155.53V149.082C834.351 147.928 835.285 146.994 836.439 146.994H843.083C844.237 146.994 845.171 147.928 845.171 149.082V155.53H845.175Z" fill="#4592FB"/>
<path d="M827.453 146.16C828.469 146.16 829.293 145.336 829.293 144.32C829.293 143.304 828.469 142.48 827.453 142.48C826.437 142.48 825.613 143.304 825.613 144.32C825.613 145.336 826.437 146.16 827.453 146.16Z" fill="white"/>
<path d="M815.063 146.16C816.079 146.16 816.903 145.336 816.903 144.32C816.903 143.304 816.079 142.48 815.063 142.48C814.047 142.48 813.223 143.304 813.223 144.32C813.223 145.336 814.047 146.16 815.063 146.16Z" fill="white"/>
<path d="M839.843 146.16C840.859 146.16 841.683 145.336 841.683 144.32C841.683 143.304 840.859 142.48 839.843 142.48C838.827 142.48 838.003 143.304 838.003 144.32C838.003 145.336 838.827 146.16 839.843 146.16Z" fill="white"/>
<path d="M843.387 136.32H811.947C807.127 136.32 803.207 140.24 803.207 145.06V163.94C803.207 168.76 807.127 172.7 811.947 172.7H843.387C848.207 172.7 852.127 168.76 852.127 163.94V145.06C852.127 140.24 848.207 136.32 843.387 136.32ZM850.587 163.94C850.587 167.92 847.347 171.14 843.387 171.14H811.947C807.987 171.14 804.747 167.92 804.747 163.94V145.06C804.747 141.1 807.987 137.86 811.947 137.86H843.387C847.347 137.86 850.587 141.1 850.587 145.06V163.94Z" fill="white"/>
<path d="M845.167 149.08V155.52C845.167 156.1 844.707 156.58 844.127 156.58C843.547 156.58 843.087 156.1 843.087 155.52V150.06H842.547V165.14C842.547 165.76 842.027 166.28 841.407 166.28C840.767 166.28 840.267 165.76 840.267 165.14V156.46H839.427V165.14C839.427 165.76 838.907 166.28 838.287 166.28C837.647 166.28 837.147 165.76 837.147 165.14V150.06H836.447V155.52C836.447 156.1 835.967 156.58 835.407 156.58C834.827 156.58 834.347 156.1 834.347 155.52V149.08C834.347 147.92 835.287 147 836.447 147H843.087C844.247 147 845.167 147.92 845.167 149.08Z" fill="white"/>
<path d="M820.387 149.08V155.52C820.387 156.1 819.927 156.58 819.347 156.58C818.767 156.58 818.307 156.1 818.307 155.52V150.06H817.767V165.14C817.767 165.76 817.247 166.28 816.627 166.28C815.987 166.28 815.487 165.76 815.487 165.14V156.46H814.647V165.14C814.647 165.76 814.127 166.28 813.507 166.28C812.867 166.28 812.367 165.76 812.367 165.14V150.06H811.667V155.52C811.667 156.1 811.187 156.58 810.627 156.58C810.047 156.58 809.567 156.1 809.567 155.52V149.08C809.567 147.92 810.507 147 811.667 147H818.307C819.467 147 820.387 147.92 820.387 149.08Z" fill="white"/>
<path d="M832.787 149.08V155.52C832.787 156.1 832.327 156.58 831.747 156.58C831.167 156.58 830.707 156.1 830.707 155.52V150.06H830.147V165.14C830.147 165.76 829.647 166.28 829.007 166.28C828.387 166.28 827.867 165.76 827.867 165.14V156.46H827.027V165.14C827.027 165.76 826.527 166.28 825.887 166.28C825.267 166.28 824.747 165.76 824.747 165.14V150.06H824.047V155.52C824.047 156.1 823.587 156.58 823.007 156.58C822.427 156.58 821.967 156.1 821.967 155.52V149.08C821.967 147.92 822.907 147 824.047 147H830.707C831.847 147 832.787 147.92 832.787 149.08Z" fill="white"/>
<path d="M817.201 128.651H819.047C819.231 128.651 819.379 128.799 819.379 128.983V133.065C819.379 133.221 819.505 133.347 819.661 133.347H822.687C822.843 133.347 822.969 133.221 822.969 133.065V128.983C822.969 128.799 823.117 128.651 823.301 128.651H825.147C825.413 128.651 825.545 128.329 825.357 128.143L821.583 124.369C821.357 124.143 820.991 124.143 820.767 124.369L816.993 128.143C816.805 128.331 816.937 128.651 817.201 128.651Z" fill="white"/>
<path d="M832.861 133.176C833.087 133.402 833.453 133.402 833.677 133.176L837.451 129.402C837.639 129.214 837.505 128.894 837.241 128.894H835.395C835.211 128.894 835.063 128.746 835.063 128.562V124.48C835.063 124.324 834.937 124.198 834.781 124.198H831.755C831.599 124.198 831.473 124.324 831.473 124.48V128.562C831.473 128.746 831.325 128.894 831.141 128.894H829.295C829.029 128.894 828.897 129.214 829.085 129.402L832.861 133.176Z" fill="white"/>
</g>
<path d="M772.842 283.086V301.25H768.116V283.086H772.842ZM765.655 283.672V301.094H761.046V294.453H758.663C757.823 298.047 754.698 300.43 750.616 300.43C745.85 300.43 742.452 297.188 742.452 292.578C742.452 287.773 745.85 284.648 750.616 284.688C754.62 284.648 757.706 286.855 758.585 290.43H761.046V283.672H765.655ZM772.842 302.539V312.07H753.585V314.297H774.053V318.203H748.546V308.438H767.842V306.367H748.506V302.539H772.842ZM750.616 288.477C748.428 288.477 746.905 290.039 746.905 292.578C746.905 295 748.428 296.484 750.616 296.484C752.764 296.484 754.366 295 754.405 292.578C754.366 290.039 752.764 288.477 750.616 288.477ZM806.671 283.047V318.672H801.71V283.047H806.671ZM795.655 286.016V299.727H783.936V306.25C789.346 306.23 793.956 305.918 799.171 305.078L799.6 309.102C793.741 310.117 788.467 310.352 781.983 310.352H778.78V295.781H790.577V290.039H778.741V286.016H795.655ZM817.139 286.25V294.492H822.061V286.25H826.592V296.016H830.147V283.633H834.835V317.031H830.147V300.078H826.592V310.156H812.452V286.25H817.139ZM817.139 306.094H822.061V298.438H817.139V306.094ZM842.256 283.047V318.594H837.491V283.047H842.256ZM875.772 283.047V318.672H870.733V283.047H875.772ZM856.475 285.547C861.827 285.547 865.811 290.469 865.811 298.203C865.811 306.016 861.827 310.898 856.475 310.898C851.006 310.898 847.022 306.016 847.061 298.203C847.022 290.469 851.006 285.547 856.475 285.547ZM856.475 290.039C853.702 290.039 851.866 292.93 851.866 298.203C851.866 303.516 853.702 306.367 856.475 306.367C859.171 306.367 861.006 303.516 861.006 298.203C861.006 292.93 859.171 290.039 856.475 290.039ZM910.577 283.047V318.672H905.655V299.609H899.405V295.586H905.655V283.047H910.577ZM898.819 286.016V290.039H887.178V295.938H897.53V299.844H887.178V306.562C892.1 306.523 896.046 306.348 900.46 305.664L900.967 309.648C895.772 310.43 891.124 310.625 885.03 310.625H882.217V286.016H898.819Z" fill="#373D4A"/>
<rect x="97" y="396.667" width="200" height="200" rx="30" fill="#FED9C4"/>
<rect x="98.5" y="398.167" width="197" height="197" rx="28.5" stroke="#2E2F33" stroke-opacity="0.88" stroke-width="3"/>
<g clip-path="url(#clip2_506_291)">
<rect width="80" height="80" transform="translate(157 456.667)" fill="#FED9C4"/>
<path d="M214 463.667H180C171.163 463.667 164 470.83 164 479.667V513.667C164 522.504 171.163 529.667 180 529.667H214C222.837 529.667 230 522.504 230 513.667V479.667C230 470.83 222.837 463.667 214 463.667Z" fill="#3076D1"/>
<path d="M200.634 513.853L207.922 497.123C209.062 494.505 207.144 491.575 204.288 491.575H189.714C186.858 491.575 184.938 494.505 186.08 497.123L193.368 513.853C194.752 517.029 199.254 517.029 200.638 513.853H200.634Z" fill="white"/>
<path d="M197 487.851C199.969 487.851 202.376 485.444 202.376 482.475C202.376 479.506 199.969 477.099 197 477.099C194.031 477.099 191.624 479.506 191.624 482.475C191.624 485.444 194.031 487.851 197 487.851Z" fill="white"/>
</g>
<path d="M139.832 630.753V638.253H144.637V642.315H139.832V650.792H134.832V630.753H139.832ZM139.832 652.394V665.831H116.551V652.394H139.832ZM121.434 656.261V661.925H134.949V656.261H121.434ZM118.074 632.433V644.776C122.371 644.698 127 644.288 131.941 643.331L132.527 647.394C126.668 648.565 121.16 648.878 116.121 648.878H113.074V632.433H118.074ZM159.324 640.401C159.285 645.831 162.176 652.081 168.035 654.776L165.262 658.683C161.297 656.866 158.465 653.233 156.902 648.956C155.301 653.663 152.391 657.647 148.27 659.581L145.379 655.636C151.316 652.862 154.285 646.261 154.324 640.401V638.214H146.785V634.151H166.473V638.214H159.324V640.401ZM174.246 630.714V644.269H179.48V648.448H174.246V666.261H169.246V630.714H174.246ZM209.207 630.714V645.167H213.855V649.308H209.207V666.261H204.168V630.714H209.207ZM180.34 656.222C182.938 656.222 185.965 656.222 189.129 656.144V653.097C185.34 652.354 182.879 649.952 182.918 646.651C182.879 642.667 186.473 639.972 191.668 639.972C196.746 639.972 200.379 642.667 200.418 646.651C200.379 649.952 197.879 652.374 194.129 653.097V655.948C196.941 655.812 199.773 655.577 202.41 655.206L202.723 658.839C195.145 660.245 187.02 660.284 181.004 660.284L180.34 656.222ZM202.137 634.659V638.565H181.043V634.659H189.129V630.909H194.129V634.659H202.137ZM191.668 643.761C189.246 643.761 187.605 644.815 187.645 646.651C187.605 648.526 189.246 649.542 191.668 649.542C194.012 649.542 195.613 648.526 195.613 646.651C195.613 644.815 194.012 643.761 191.668 643.761ZM235.535 633.097V637.081H228.465C228.504 641.222 230.984 645.226 236.668 646.886L234.285 650.792C230.359 649.601 227.645 647.218 226.082 644.151C224.5 647.745 221.609 650.597 217.332 652.003L214.793 648.058C220.691 646.202 223.348 641.593 223.426 637.081H216.16V633.097H235.535ZM243.543 630.714V638.956H248.348V643.019H243.543V651.808H238.543V630.714H243.543ZM231.902 652.511C239.285 652.472 243.895 655.011 243.895 659.347C243.895 663.683 239.285 666.261 231.902 666.261C224.363 666.261 219.715 663.683 219.715 659.347C219.715 655.011 224.363 652.472 231.902 652.511ZM231.902 656.378C227.215 656.378 224.676 657.354 224.715 659.347C224.676 661.378 227.215 662.394 231.902 662.394C236.512 662.394 238.973 661.378 238.973 659.347C238.973 657.354 236.512 656.378 231.902 656.378ZM279.637 630.714V648.722H274.676V630.714H279.637ZM279.676 650.245V659.894H260.77V662.081H280.652V666.026H255.887V656.183H274.715V654.112H255.809V650.245H279.676ZM263.543 634.229C263.504 638.526 266.082 642.667 271.902 644.347L269.48 648.175C265.398 646.983 262.586 644.522 261.004 641.378C259.363 644.815 256.453 647.55 252.215 648.8L249.754 644.894C255.691 643.136 258.348 638.644 258.348 634.229V631.495H263.543V634.229Z" fill="#373D4A"/>
<rect x="412.333" y="396.667" width="200" height="200" rx="30" fill="#FED9C4"/>
<rect x="413.833" y="398.167" width="197" height="197" rx="28.5" stroke="#2E2F33" stroke-opacity="0.88" stroke-width="3"/>
<g clip-path="url(#clip3_506_291)">
<rect width="80" height="80" transform="translate(472.333 456.667)" fill="#FED9C4"/>
<path d="M529.333 463.667H495.333C486.497 463.667 479.333 470.83 479.333 479.667V513.667C479.333 522.504 486.497 529.667 495.333 529.667H529.333C538.17 529.667 545.333 522.504 545.333 513.667V479.667C545.333 470.83 538.17 463.667 529.333 463.667Z" fill="#E76D6D"/>
<path d="M508.699 493.969L501.411 510.699C500.271 513.317 502.189 516.247 505.045 516.247H519.619C522.475 516.247 524.395 513.317 523.253 510.699L515.965 493.969C514.581 490.793 510.079 490.793 508.695 493.969H508.699Z" fill="white"/>
<path d="M512.333 487.841C515.302 487.841 517.709 485.434 517.709 482.465C517.709 479.496 515.302 477.089 512.333 477.089C509.364 477.089 506.957 479.496 506.957 482.465C506.957 485.434 509.364 487.841 512.333 487.841Z" fill="white"/>
</g>
<path d="M436.767 633.214C439.95 633.214 442.607 634.972 444.228 638.019H452.04V630.714H456.962V666.339H452.04V653.019H444.618C443.017 656.534 440.204 658.565 436.767 658.565C431.376 658.565 427.509 653.683 427.548 645.87C427.509 638.136 431.376 633.214 436.767 633.214ZM436.767 637.706C434.111 637.706 432.275 640.597 432.314 645.87C432.275 651.183 434.111 654.034 436.767 654.034C439.462 654.034 441.22 651.183 441.22 645.87C441.22 640.597 439.462 637.706 436.767 637.706ZM445.634 642.042C445.849 643.214 445.986 644.503 445.986 645.87C445.986 646.983 445.888 648.038 445.751 649.034H452.04V642.042H445.634ZM474.657 640.401C474.618 645.831 477.509 652.081 483.368 654.776L480.595 658.683C476.63 656.866 473.798 653.233 472.236 648.956C470.634 653.663 467.724 657.647 463.603 659.581L460.712 655.636C466.65 652.862 469.618 646.261 469.657 640.401V638.214H462.118V634.151H481.806V638.214H474.657V640.401ZM489.579 630.714V644.269H494.814V648.448H489.579V666.261H484.579V630.714H489.579ZM524.54 630.714V645.167H529.189V649.308H524.54V666.261H519.501V630.714H524.54ZM495.673 656.222C498.271 656.222 501.298 656.222 504.462 656.144V653.097C500.673 652.354 498.212 649.952 498.251 646.651C498.212 642.667 501.806 639.972 507.001 639.972C512.079 639.972 515.712 642.667 515.751 646.651C515.712 649.952 513.212 652.374 509.462 653.097V655.948C512.275 655.812 515.107 655.577 517.743 655.206L518.056 658.839C510.478 660.245 502.353 660.284 496.337 660.284L495.673 656.222ZM517.47 634.659V638.565H496.376V634.659H504.462V630.909H509.462V634.659H517.47ZM507.001 643.761C504.579 643.761 502.939 644.815 502.978 646.651C502.939 648.526 504.579 649.542 507.001 649.542C509.345 649.542 510.947 648.526 510.947 646.651C510.947 644.815 509.345 643.761 507.001 643.761ZM550.868 633.097V637.081H543.798C543.837 641.222 546.318 645.226 552.001 646.886L549.618 650.792C545.693 649.601 542.978 647.218 541.415 644.151C539.833 647.745 536.943 650.597 532.665 652.003L530.126 648.058C536.025 646.202 538.681 641.593 538.759 637.081H531.493V633.097H550.868ZM558.876 630.714V638.956H563.681V643.019H558.876V651.808H553.876V630.714H558.876ZM547.236 652.511C554.618 652.472 559.228 655.011 559.228 659.347C559.228 663.683 554.618 666.261 547.236 666.261C539.697 666.261 535.048 663.683 535.048 659.347C535.048 655.011 539.697 652.472 547.236 652.511ZM547.236 656.378C542.548 656.378 540.009 657.354 540.048 659.347C540.009 661.378 542.548 662.394 547.236 662.394C551.845 662.394 554.306 661.378 554.306 659.347C554.306 657.354 551.845 656.378 547.236 656.378ZM594.97 630.714V648.722H590.009V630.714H594.97ZM595.009 650.245V659.894H576.103V662.081H595.986V666.026H571.22V656.183H590.048V654.112H571.142V650.245H595.009ZM578.876 634.229C578.837 638.526 581.415 642.667 587.236 644.347L584.814 648.175C580.732 646.983 577.919 644.522 576.337 641.378C574.697 644.815 571.786 647.55 567.548 648.8L565.087 644.894C571.025 643.136 573.681 638.644 573.681 634.229V631.495H578.876V634.229Z" fill="#373D4A"/>
<rect x="727.667" y="396.667" width="200" height="200" rx="30" fill="#FED9C4"/>
<rect x="729.167" y="398.167" width="197" height="197" rx="28.5" stroke="#2E2F33" stroke-opacity="0.88" stroke-width="3"/>
<g clip-path="url(#clip4_506_291)">
<path d="M844.667 463.667H810.667C801.83 463.667 794.667 470.83 794.667 479.667V513.667C794.667 522.504 801.83 529.667 810.667 529.667H844.667C853.503 529.667 860.667 522.504 860.667 513.667V479.667C860.667 470.83 853.503 463.667 844.667 463.667Z" fill="#291F98"/>
<path d="M838.129 483.965C841.543 484.613 844.479 481.675 843.833 478.261C843.473 476.365 841.923 474.815 840.027 474.455C836.615 473.809 833.677 476.745 834.325 480.157C834.685 482.053 836.235 483.605 838.131 483.963L838.129 483.965Z" fill="white"/>
<path d="M842.401 494.709H832.003L836.807 489.905C838.123 488.589 838.123 486.457 836.807 485.143L834.143 482.479C834.087 482.419 834.055 482.345 833.989 482.291L826.687 476.343C826.223 475.965 825.567 475.929 825.063 476.253L818.149 480.701C817.305 481.243 817.061 482.367 817.605 483.209C818.147 484.053 819.271 484.295 820.113 483.753L825.657 480.187L828.689 482.657L822.335 489.011C821.283 490.063 821.087 491.633 821.719 492.895C815.245 493.679 810.211 499.199 810.211 505.881C810.211 513.099 816.083 518.973 823.301 518.973C830.519 518.973 836.393 513.099 836.393 505.881C836.393 503.827 835.905 501.889 835.057 500.157H839.293L838.197 508.397C837.999 509.887 839.047 511.257 840.537 511.455C842.027 511.653 843.397 510.605 843.595 509.115L845.101 497.795C845.319 496.163 844.049 494.713 842.403 494.713L842.401 494.709ZM832.761 505.877C832.761 511.095 828.517 515.339 823.299 515.339C818.081 515.339 813.839 511.095 813.839 505.877C813.839 500.659 818.083 496.417 823.299 496.417C823.939 496.417 824.563 496.485 825.169 496.605C826.145 496.801 827.045 497.183 827.889 497.655C828.949 498.249 829.873 499.031 830.631 499.971C830.681 500.033 830.733 500.091 830.781 500.153C832.003 501.747 832.761 503.717 832.761 505.877Z" fill="white"/>
</g>
<path d="M745.206 633.097V637.081H738.135C738.174 641.222 740.655 645.226 746.339 646.886L743.956 650.792C740.03 649.601 737.315 647.218 735.753 644.151C734.171 647.745 731.28 650.597 727.003 652.003L724.464 648.058C730.362 646.202 733.018 641.593 733.096 637.081H725.831V633.097H745.206ZM753.214 630.714V638.956H758.018V643.019H753.214V651.808H748.214V630.714H753.214ZM741.573 652.511C748.956 652.472 753.565 655.011 753.565 659.347C753.565 663.683 748.956 666.261 741.573 666.261C734.034 666.261 729.385 663.683 729.385 659.347C729.385 655.011 734.034 652.472 741.573 652.511ZM741.573 656.378C736.885 656.378 734.346 657.354 734.385 659.347C734.346 661.378 736.885 662.394 741.573 662.394C746.182 662.394 748.643 661.378 748.643 659.347C748.643 657.354 746.182 656.378 741.573 656.378ZM767.628 633.253C772.354 633.253 775.44 638.136 775.479 646.104C775.44 654.112 772.354 659.034 767.628 659.034C762.94 659.034 759.893 654.112 759.893 646.104C759.893 638.136 762.94 633.253 767.628 633.253ZM767.628 637.94C765.635 637.94 764.464 640.675 764.503 646.104C764.464 651.573 765.635 654.269 767.628 654.229C769.659 654.269 770.87 651.573 770.87 646.104C770.87 640.675 769.659 637.94 767.628 637.94ZM790.401 630.714V666.261H785.635V648.331H782.432V664.62H777.706V631.222H782.432V644.269H785.635V630.714H790.401ZM823.917 630.753V656.3H818.917V630.753H823.917ZM824.854 661.651V665.636H800.089V653.722H805.128V661.651H824.854ZM804.424 633.019C809.893 633.019 814.151 636.769 814.151 641.964C814.151 647.276 809.893 650.987 804.424 650.987C798.956 650.987 794.698 647.276 794.698 641.964C794.698 636.769 798.956 633.019 804.424 633.019ZM804.424 637.354C801.651 637.315 799.542 639.073 799.581 641.964C799.542 644.933 801.651 646.651 804.424 646.651C807.12 646.651 809.229 644.933 809.229 641.964C809.229 639.073 807.12 637.315 804.424 637.354ZM857.159 630.714V645.167H861.807V649.308H857.159V666.261H852.12V630.714H857.159ZM828.292 656.222C830.889 656.222 833.917 656.222 837.081 656.144V653.097C833.292 652.354 830.831 649.952 830.87 646.651C830.831 642.667 834.424 639.972 839.62 639.972C844.698 639.972 848.331 642.667 848.37 646.651C848.331 649.952 845.831 652.374 842.081 653.097V655.948C844.893 655.812 847.725 655.577 850.362 655.206L850.674 658.839C843.096 660.245 834.971 660.284 828.956 660.284L828.292 656.222ZM850.089 634.659V638.565H828.995V634.659H837.081V630.909H842.081V634.659H850.089ZM839.62 643.761C837.198 643.761 835.557 644.815 835.596 646.651C835.557 648.526 837.198 649.542 839.62 649.542C841.964 649.542 843.565 648.526 843.565 646.651C843.565 644.815 841.964 643.761 839.62 643.761ZM883.487 633.097V637.081H876.417C876.456 641.222 878.936 645.226 884.62 646.886L882.237 650.792C878.311 649.601 875.596 647.218 874.034 644.151C872.452 647.745 869.561 650.597 865.284 652.003L862.745 648.058C868.643 646.202 871.299 641.593 871.378 637.081H864.112V633.097H883.487ZM891.495 630.714V638.956H896.299V643.019H891.495V651.808H886.495V630.714H891.495ZM879.854 652.511C887.237 652.472 891.846 655.011 891.846 659.347C891.846 663.683 887.237 666.261 879.854 666.261C872.315 666.261 867.667 663.683 867.667 659.347C867.667 655.011 872.315 652.472 879.854 652.511ZM879.854 656.378C875.167 656.378 872.628 657.354 872.667 659.347C872.628 661.378 875.167 662.394 879.854 662.394C884.464 662.394 886.924 661.378 886.924 659.347C886.924 657.354 884.464 656.378 879.854 656.378ZM927.589 630.714V648.722H922.628V630.714H927.589ZM927.628 650.245V659.894H908.721V662.081H928.604V666.026H903.839V656.183H922.667V654.112H903.76V650.245H927.628ZM911.495 634.229C911.456 638.526 914.034 642.667 919.854 644.347L917.432 648.175C913.35 646.983 910.538 644.522 908.956 641.378C907.315 644.815 904.405 647.55 900.167 648.8L897.706 644.894C903.643 643.136 906.299 638.644 906.299 634.229V631.495H911.495V634.229Z" fill="#373D4A"/>
<rect x="97" y="744.333" width="200" height="200" rx="30" fill="#474747"/>
<rect x="98.5" y="745.833" width="197" height="197" rx="28.5" stroke="#2E2F33" stroke-opacity="0.88" stroke-width="3"/>
<path d="M178.895 989.122L171.434 1010.33H164.949L157.527 989.122H163.621L168.074 1004.36H168.309L172.762 989.122H178.895ZM190.535 1010.76C184.129 1010.76 180.145 1006.35 180.145 999.786C180.145 993.224 184.129 988.849 190.535 988.849C196.941 988.849 200.965 993.224 200.965 999.786C200.965 1006.35 196.941 1010.76 190.535 1010.76ZM190.574 1006.27C193.543 1006.27 195.066 1003.5 195.066 999.786C195.066 996.036 193.543 993.263 190.574 993.263C187.566 993.263 186.004 996.036 186.004 999.786C186.004 1003.5 187.566 1006.27 190.574 1006.27ZM204.598 1010.33V989.122H210.379V1010.33H204.598ZM207.488 986.349C205.73 986.349 204.324 985.021 204.324 983.419C204.324 981.778 205.73 980.45 207.488 980.45C209.207 980.45 210.613 981.778 210.613 983.419C210.613 985.021 209.207 986.349 207.488 986.349ZM222.684 1010.68C217.84 1010.68 214.051 1006.82 214.051 999.747C214.051 992.481 217.996 988.849 222.684 988.849C226.238 988.849 227.918 990.958 228.699 992.677H228.895V982.052H234.676V1010.33H228.973V1006.93H228.699C227.879 1008.69 226.121 1010.68 222.684 1010.68ZM224.48 1006.08C227.371 1006.08 229.012 1003.54 229.012 999.708C229.012 995.88 227.371 993.458 224.48 993.458C221.551 993.458 219.988 995.997 219.988 999.708C219.988 1003.46 221.551 1006.08 224.48 1006.08Z" fill="#373D4A"/>
<rect x="412.333" y="744.333" width="200" height="200" rx="30" fill="#999999"/>
<rect x="413.833" y="745.833" width="197" height="197" rx="28.5" stroke="#2E2F33" stroke-opacity="0.88" stroke-width="3"/>
<path d="M525.868 978.38V996.271H520.868V978.38H525.868ZM515.087 979.669C515.048 989.435 509.618 994.747 498.368 997.013L496.611 992.989C505.38 991.368 509.032 987.97 509.579 983.692H498.525V979.669H515.087ZM525.868 997.677V1007.29H507.118V1009.71H526.845V1013.58H502.079V1003.69H520.829V1001.54H502.001V997.677H525.868Z" fill="#373D4A"/>
<defs>
<clipPath id="clip0_506_291">
<rect width="80" height="80" fill="white" transform="translate(472.333 109)"/>
</clipPath>
<clipPath id="clip1_506_291">
<rect width="80" height="80" fill="white" transform="translate(787.667 109)"/>
</clipPath>
<clipPath id="clip2_506_291">
<rect width="80" height="80" fill="white" transform="translate(157 456.667)"/>
</clipPath>
<clipPath id="clip3_506_291">
<rect width="80" height="80" fill="white" transform="translate(472.333 456.667)"/>
</clipPath>
<clipPath id="clip4_506_291">
<rect width="80" height="80" fill="white" transform="translate(787.667 456.667)"/>
</clipPath>
</defs>
</svg>
