<svg width="2048" height="559" viewBox="0 0 2048 559" fill="none" xmlns="http://www.w3.org/2000/svg">
<g id="baekun_hall_floor_2">
<g id="Vector">
<path d="M92.5029 555.002L4.00293 228.502L795.003 16.5025L877.003 3H1191.5L1273 23.0025L2043.5 232.502L1958 550.502L1195 343.502V359.499H881.003L879.003 339L92.5029 555.002Z" fill="#999999"/>
<path d="M1191.87 0L1192.22 0.0869141L1273.72 20.0889L1273.75 20.0977L1273.79 20.1074L2047.18 230.393L1960.12 554.185L1198 347.424V362.499H878.281L876.363 342.835L90.3945 558.692L0.320312 226.384L794.369 13.5664L794.516 13.542L876.758 0H1191.87ZM795.635 19.4385L7.68457 230.621L94.6104 551.312L881.643 335.164L883.725 356.499H1192V339.58L1955.89 546.819L2039.83 234.612L1272.25 25.9053L1191.14 6H877.247L795.635 19.4385Z" fill="black"/>
</g>
<path id="Vector_2" d="M963 226.5C963 222.082 966.582 218.5 971 218.5H1103C1107.42 218.5 1111 222.082 1111 226.5V348.5C1111 352.918 1107.42 356.5 1103 356.5H971C966.582 356.5 963 352.918 963 348.5V226.5Z" fill="#474747"/>
<path id="Vector_3" d="M1103 353.5V356.5H971L971 353.5H1103Z" fill="#2E2F33" fill-opacity="0.88"/>
<path id="Vector_4" d="M1108 348.5V226.5C1108 223.739 1105.76 221.5 1103 221.5H971C968.239 221.5 966 223.739 966 226.5V348.5C966 351.261 968.239 353.5 971 353.5L971 356.5C966.582 356.5 963 352.918 963 348.5V226.5C963 222.22 966.361 218.725 970.588 218.511L971 218.5H1103C1107.42 218.5 1111 222.082 1111 226.5V348.5C1111 352.918 1107.42 356.5 1103 356.5V353.5C1105.76 353.5 1108 351.261 1108 348.5Z" fill="#2E2F33" fill-opacity="0.88"/>
<g id="Vector_5">
<path d="M1108 226.5C1108 222.082 1111.58 218.5 1116 218.5H1213.01C1218.29 218.5 1222.12 223.522 1220.73 228.613L1192.28 332.462C1192.1 333.151 1192 333.862 1192 334.576V348.5C1192 352.918 1188.42 356.5 1184 356.5H1116C1111.58 356.5 1108 352.918 1108 348.5V226.5Z" fill="#474747"/>
<path d="M1108 348.5V226.5C1108 222.082 1111.58 218.5 1116 218.5H1213.01C1218.29 218.5 1222.12 223.522 1220.73 228.613L1192.28 332.462C1192.1 333.151 1192 333.862 1192 334.576V348.5C1192 352.918 1188.42 356.5 1184 356.5V353.5C1186.76 353.5 1189 351.261 1189 348.5V334.576C1189 333.594 1189.13 332.617 1189.39 331.67L1217.84 227.821C1218.71 224.639 1216.31 221.5 1213.01 221.5H1116C1113.24 221.5 1111 223.739 1111 226.5V348.5C1111 351.261 1113.24 353.5 1116 353.5L1116 356.5L1115.59 356.489C1111.36 356.275 1108 352.78 1108 348.5Z" fill="#2E2F33" fill-opacity="0.88"/>
<path d="M1184 353.5V356.5H1116L1116 353.5H1184Z" fill="#2E2F33" fill-opacity="0.88"/>
</g>
<g id="Vector_6">
<path d="M965.503 226.5C965.503 222.082 961.921 218.5 957.503 218.5H860.489C855.21 218.5 851.379 223.522 852.773 228.613L881.219 332.462C881.407 333.151 881.503 333.862 881.503 334.576V348.5C881.503 352.918 885.085 356.5 889.503 356.5H957.503C961.921 356.5 965.503 352.918 965.503 348.5V226.5Z" fill="#474747"/>
<path d="M965.503 348.5V226.5C965.503 222.082 961.921 218.5 957.503 218.5H860.489C855.21 218.5 851.379 223.522 852.773 228.613L881.219 332.462C881.407 333.151 881.503 333.862 881.503 334.576V348.5C881.503 352.918 885.085 356.5 889.503 356.5V353.5C886.742 353.5 884.503 351.261 884.503 348.5V334.576C884.503 333.594 884.372 332.617 884.112 331.67L855.667 227.821C854.795 224.639 857.19 221.5 860.489 221.5H957.503C960.264 221.5 962.503 223.739 962.503 226.5V348.5C962.503 351.261 960.264 353.5 957.503 353.5V356.5L957.915 356.489C962.142 356.275 965.503 352.78 965.503 348.5Z" fill="#2E2F33" fill-opacity="0.88"/>
<path d="M889.503 353.5V356.5H957.503V353.5H889.503Z" fill="#2E2F33" fill-opacity="0.88"/>
</g>
<g id="baekun_hall_211">
<path d="M90.2746 215.854C89.131 211.587 91.6637 207.2 95.9314 206.056L166.026 187.275C170.294 186.131 174.681 188.664 175.824 192.931L212.541 329.96C213.684 334.227 211.152 338.614 206.884 339.758L136.789 358.539C132.521 359.683 128.135 357.15 126.991 352.883L90.2746 215.854Z" fill="#F7FBFF"/>
<path d="M206.107 336.86L206.884 339.758L136.789 358.539L136.013 355.642L206.107 336.86ZM209.643 330.736L172.926 193.708C172.212 191.041 169.47 189.458 166.803 190.172L96.7079 208.954C94.0406 209.669 92.4576 212.411 93.1724 215.078L129.889 352.106C130.604 354.773 133.345 356.356 136.013 355.642L136.789 358.539L136.388 358.636C132.383 359.494 128.367 357.175 127.108 353.277L126.991 352.883L90.2746 215.854C89.1668 211.72 91.5089 207.475 95.5361 206.173L95.9314 206.056L166.026 187.275L166.427 187.178C170.565 186.292 174.716 188.797 175.824 192.931L212.541 329.96L212.637 330.36C213.495 334.364 211.177 338.381 207.279 339.641L206.884 339.758L206.107 336.86C208.775 336.145 210.357 333.403 209.643 330.736Z" fill="#2E2F33" fill-opacity="0.88"/>
<path d="M172.032 261.375V284H167.938V265.344H167.813L162.532 268.719V265L168.126 261.375H172.032Z" fill="black"/>
<path d="M157.345 261.375V284H153.251V265.344H153.126L147.845 268.719V265L153.438 261.375H157.345Z" fill="black"/>
<path d="M128.876 284V281.062L136.876 273.344C139.157 271.062 140.345 269.719 140.345 267.812C140.345 265.719 138.688 264.375 136.47 264.375C134.126 264.375 132.626 265.844 132.657 268.125H128.782C128.751 263.844 131.97 261.062 136.501 261.062C141.126 261.062 144.251 263.812 144.251 267.625C144.251 270.188 143.001 272.25 138.563 276.438L134.532 280.438V280.594H144.595V284H128.876Z" fill="black"/>
</g>
<g id="baekun_hall_217">
<path d="M555.275 91.4295C554.131 87.1618 556.664 82.7751 560.931 81.6316L715.278 40.2746C719.546 39.131 723.932 41.6637 725.076 45.9314L761.439 181.641C762.583 185.909 760.05 190.296 755.782 191.439L601.436 232.796C597.168 233.94 592.781 231.407 591.638 227.139L555.275 91.4295Z" fill="#F7FBFF"/>
<path d="M755.006 188.541L755.782 191.439L601.436 232.796L600.659 229.898L755.006 188.541ZM758.541 182.418L722.178 46.7079C721.463 44.0406 718.722 42.4576 716.054 43.1724L561.708 84.5293C559.041 85.244 557.458 87.9857 558.172 90.6531L594.536 226.363C595.25 229.03 597.992 230.613 600.659 229.898L601.436 232.796L601.035 232.892C597.03 233.751 593.013 231.431 591.755 227.534L591.638 227.139L555.275 91.4295C554.131 87.1618 556.664 82.7751 560.931 81.6316L715.278 40.2746C719.546 39.131 723.932 41.6637 725.076 45.9314L761.439 181.641L761.535 182.041C762.394 186.046 760.075 190.063 756.177 191.322L755.782 191.439L755.006 188.541C757.673 187.827 759.256 185.085 758.541 182.418Z" fill="#2E2F33" fill-opacity="0.88"/>
<path d="M668.688 147.001L678.501 127.938V127.782H667.126V124.376H682.72V127.845L672.907 147.001H668.688Z" fill="black"/>
<path d="M662.345 124.376V147.001H658.251V128.345H658.126L652.845 131.72V128.001L658.438 124.376H662.345Z" fill="black"/>
<path d="M633.876 147.001V144.063L641.876 136.345C644.157 134.063 645.345 132.72 645.345 130.813C645.345 128.72 643.688 127.376 641.47 127.376C639.126 127.376 637.626 128.845 637.657 131.126H633.782C633.751 126.845 636.97 124.063 641.501 124.063C646.126 124.063 649.251 126.813 649.251 130.626C649.251 133.188 648.001 135.251 643.563 139.438L639.532 143.438V143.595H649.595V147.001H633.876Z" fill="black"/>
</g>
<g id="baekun_hall_203">
<path d="M620.275 282.887C619.131 278.619 621.664 274.232 625.931 273.089L688.682 256.275C692.95 255.131 697.337 257.664 698.48 261.931L727.579 370.531C728.723 374.799 726.19 379.186 721.923 380.329L659.172 397.143C654.904 398.287 650.517 395.754 649.374 391.486L620.275 282.887Z" fill="#F7FBFF"/>
<path d="M721.146 377.431L721.923 380.329L659.172 397.143L658.395 394.245L721.146 377.431ZM724.682 371.307L695.583 262.708C694.868 260.041 692.126 258.458 689.459 259.172L626.708 275.986C624.041 276.701 622.458 279.443 623.172 282.11L652.272 390.71C652.986 393.377 655.728 394.96 658.395 394.245L659.172 397.143C654.904 398.287 650.517 395.754 649.374 391.486L620.275 282.887C619.131 278.619 621.664 274.232 625.931 273.089L688.682 256.275L689.083 256.178C693.221 255.291 697.372 257.797 698.48 261.931L727.579 370.531L727.676 370.932C728.534 374.937 726.215 378.953 722.317 380.212L721.923 380.329L721.146 377.431C723.814 376.716 725.397 373.975 724.682 371.307Z" fill="#2E2F33" fill-opacity="0.88"/>
<path d="M693.813 337.313C688.97 337.313 685.532 334.688 685.438 330.876H689.532C689.657 332.688 691.47 333.876 693.813 333.876C696.313 333.876 698.095 332.501 698.095 330.501C698.095 328.47 696.345 327.001 693.407 327.001H691.376V323.876H693.407C695.813 323.876 697.501 322.532 697.47 320.563C697.501 318.657 696.063 317.376 693.845 317.376C691.72 317.376 689.876 318.563 689.813 320.47H685.907C686.001 316.657 689.438 314.063 693.876 314.063C698.47 314.063 701.438 316.876 701.407 320.345C701.438 322.876 699.751 324.72 697.282 325.22V325.407C700.47 325.845 702.282 327.876 702.251 330.72C702.282 334.532 698.72 337.313 693.813 337.313Z" fill="black"/>
<path d="M673.501 337.313C668.063 337.313 664.813 333.095 664.813 325.688C664.813 318.313 668.063 314.063 673.501 314.063C678.907 314.063 682.188 318.313 682.188 325.688C682.188 333.095 678.938 337.313 673.501 337.313ZM673.501 333.907C676.345 333.907 678.095 331.126 678.095 325.688C678.095 320.282 676.313 317.438 673.501 317.438C670.688 317.438 668.907 320.282 668.907 325.688C668.907 331.126 670.657 333.907 673.501 333.907Z" fill="black"/>
<path d="M645.876 337.001V334.063L653.876 326.345C656.157 324.063 657.345 322.72 657.345 320.813C657.345 318.72 655.688 317.376 653.47 317.376C651.126 317.376 649.626 318.845 649.657 321.126H645.782C645.751 316.845 648.97 314.063 653.501 314.063C658.126 314.063 661.251 316.813 661.251 320.626C661.251 323.188 660.001 325.251 655.563 329.438L651.532 333.438V333.595H661.595V337.001H645.876Z" fill="black"/>
</g>
<g id="baekun_hall_204">
<path d="M539.275 305.567C538.131 301.299 540.664 296.912 544.931 295.769L613.953 277.275C618.221 276.131 622.608 278.664 623.751 282.931L652.85 391.531C653.994 395.799 651.461 400.186 647.194 401.329L578.172 419.824C573.904 420.967 569.517 418.434 568.374 414.167L539.275 305.567Z" fill="#F7FBFF"/>
<path d="M646.417 398.431L647.194 401.329L578.172 419.824L577.395 416.926L646.417 398.431ZM649.953 392.307L620.854 283.708C620.139 281.041 617.397 279.458 614.73 280.172L545.708 298.667C543.041 299.381 541.458 302.123 542.172 304.79L571.272 413.39C571.986 416.057 574.728 417.64 577.395 416.926L578.172 419.824C573.904 420.967 569.517 418.434 568.374 414.167L539.275 305.567C538.131 301.299 540.664 296.912 544.931 295.769L613.953 277.275L614.354 277.178C618.492 276.291 622.643 278.797 623.751 282.931L652.85 391.531L652.947 391.932C653.805 395.937 651.486 399.953 647.588 401.212L647.194 401.329L646.417 398.431C649.085 397.716 650.668 394.975 649.953 392.307Z" fill="#2E2F33" fill-opacity="0.88"/>
<path d="M606.188 355.781V352.531L615.97 337.375H621.032V352.437H624.001V355.781H621.032V360H617.157V355.781H606.188ZM610.345 352.437H617.22V342H616.97L610.345 352.281V352.437Z" fill="black"/>
<path d="M594.501 360.312C589.063 360.312 585.813 356.093 585.813 348.687C585.813 341.312 589.063 337.062 594.501 337.062C599.907 337.062 603.188 341.312 603.188 348.687C603.188 356.093 599.938 360.312 594.501 360.312ZM594.501 356.906C597.345 356.906 599.095 354.125 599.095 348.687C599.095 343.281 597.313 340.437 594.501 340.437C591.688 340.437 589.907 343.281 589.907 348.687C589.907 354.125 591.657 356.906 594.501 356.906Z" fill="black"/>
<path d="M566.876 360V357.062L574.876 349.343C577.157 347.062 578.345 345.718 578.345 343.812C578.345 341.718 576.688 340.375 574.47 340.375C572.126 340.375 570.626 341.843 570.657 344.125H566.782C566.751 339.843 569.97 337.062 574.501 337.062C579.126 337.062 582.251 339.812 582.251 343.625C582.251 346.187 581.001 348.25 576.563 352.437L572.532 356.437V356.593H582.595V360H566.876Z" fill="black"/>
</g>
<g id="baekun_hall_205">
<path d="M457.275 328.567C456.131 324.299 458.664 319.912 462.931 318.769L531.953 300.275C536.221 299.131 540.608 301.664 541.751 305.931L570.85 414.531C571.994 418.799 569.461 423.186 565.194 424.329L496.172 442.824C491.904 443.967 487.517 441.434 486.374 437.167L457.275 328.567Z" fill="#F7FBFF"/>
<path d="M564.417 421.431L565.194 424.329L496.172 442.824L495.395 439.926L564.417 421.431ZM567.953 415.307L538.854 306.708C538.139 304.041 535.397 302.458 532.73 303.172L463.708 321.667C461.041 322.381 459.458 325.123 460.172 327.79L489.272 436.39C489.986 439.057 492.728 440.64 495.395 439.926L496.172 442.824C491.904 443.967 487.517 441.434 486.374 437.167L457.275 328.567C456.131 324.299 458.664 319.912 462.931 318.769L531.953 300.275L532.354 300.178C536.492 299.291 540.643 301.797 541.751 305.931L570.85 414.531L570.947 414.932C571.805 418.937 569.486 422.953 565.588 424.212L565.194 424.329L564.417 421.431C567.085 420.716 568.668 417.975 567.953 415.307Z" fill="#2E2F33" fill-opacity="0.88"/>
<path d="M533.626 383.312C529.095 383.312 525.782 380.625 525.657 376.875H529.626C529.751 378.718 531.47 380.031 533.626 380.031C536.157 380.031 537.97 378.187 537.97 375.687C537.97 373.093 536.095 371.25 533.501 371.25C531.751 371.218 530.47 371.843 529.751 373.187H525.97L527.345 360.375H540.72V363.781H530.688L530.001 369.781H530.22C531.095 368.781 532.751 368.062 534.595 368.062C538.813 368.062 541.907 371.218 541.907 375.562C541.907 380.093 538.501 383.312 533.626 383.312Z" fill="black"/>
<path d="M513.501 383.312C508.063 383.312 504.813 379.093 504.813 371.687C504.813 364.312 508.063 360.062 513.501 360.062C518.907 360.062 522.188 364.312 522.188 371.687C522.188 379.093 518.938 383.312 513.501 383.312ZM513.501 379.906C516.345 379.906 518.095 377.125 518.095 371.687C518.095 366.281 516.313 363.437 513.501 363.437C510.688 363.437 508.907 366.281 508.907 371.687C508.907 377.125 510.657 379.906 513.501 379.906Z" fill="black"/>
<path d="M485.876 383V380.062L493.876 372.343C496.157 370.062 497.345 368.718 497.345 366.812C497.345 364.718 495.688 363.375 493.47 363.375C491.126 363.375 489.626 364.843 489.657 367.125H485.782C485.751 362.843 488.97 360.062 493.501 360.062C498.126 360.062 501.251 362.812 501.251 366.625C501.251 369.187 500.001 371.25 495.563 375.437L491.532 379.437V379.593H501.595V383H485.876Z" fill="black"/>
</g>
<g id="baekun_hall_206">
<path d="M375.275 350.567C374.131 346.299 376.664 341.912 380.931 340.769L449.953 322.275C454.221 321.131 458.608 323.664 459.751 327.931L488.85 436.531C489.994 440.799 487.461 445.186 483.194 446.329L414.172 464.824C409.904 465.967 405.517 463.434 404.374 459.167L375.275 350.567Z" fill="#F7FBFF"/>
<path d="M482.417 443.431L483.194 446.329L414.172 464.824L413.395 461.926L482.417 443.431ZM485.953 437.307L456.854 328.708C456.139 326.041 453.397 324.458 450.73 325.172L381.708 343.667C379.041 344.381 377.458 347.123 378.172 349.79L407.272 458.39C407.986 461.057 410.728 462.64 413.395 461.926L414.172 464.824C409.904 465.967 405.517 463.434 404.374 459.167L375.275 350.567C374.131 346.299 376.664 341.912 380.931 340.769L449.953 322.275L450.354 322.178C454.492 321.291 458.643 323.797 459.751 327.931L488.85 436.531L488.947 436.932C489.805 440.937 487.486 444.953 483.588 446.212L483.194 446.329L482.417 443.431C485.085 442.716 486.668 439.975 485.953 437.307Z" fill="#2E2F33" fill-opacity="0.88"/>
<path d="M452.063 404.312C447.657 404.281 443.22 401.656 443.251 393.312C443.251 385.562 446.782 381.062 452.313 381.062C456.688 381.062 459.688 383.812 460.188 387.468H456.157C455.751 385.75 454.376 384.593 452.313 384.593C449.032 384.593 447.188 387.5 447.188 392.25H447.407C448.563 390.312 450.751 389.156 453.22 389.156C457.282 389.156 460.407 392.218 460.407 396.5C460.407 401 457.063 404.343 452.063 404.312ZM452.063 401.031C454.595 401.031 456.47 399.062 456.47 396.593C456.47 394.187 454.626 392.25 452.126 392.25C449.595 392.25 447.657 394.25 447.626 396.625C447.657 399 449.501 401.031 452.063 401.031Z" fill="black"/>
<path d="M431.501 404.312C426.063 404.312 422.813 400.093 422.813 392.687C422.813 385.312 426.063 381.062 431.501 381.062C436.907 381.062 440.188 385.312 440.188 392.687C440.188 400.093 436.938 404.312 431.501 404.312ZM431.501 400.906C434.345 400.906 436.095 398.125 436.095 392.687C436.095 387.281 434.313 384.437 431.501 384.437C428.688 384.437 426.907 387.281 426.907 392.687C426.907 398.125 428.657 400.906 431.501 400.906Z" fill="black"/>
<path d="M403.876 404V401.062L411.876 393.343C414.157 391.062 415.345 389.718 415.345 387.812C415.345 385.718 413.688 384.375 411.47 384.375C409.126 384.375 407.626 385.843 407.657 388.125H403.782C403.751 383.843 406.97 381.062 411.501 381.062C416.126 381.062 419.251 383.812 419.251 387.625C419.251 390.187 418.001 392.25 413.563 396.437L409.532 400.437V400.593H419.595V404H403.876Z" fill="black"/>
</g>
<g id="baekun_hall_207">
<path d="M297.275 371.536C296.131 367.268 298.664 362.881 302.931 361.738L368.106 344.275C372.373 343.131 376.76 345.664 377.903 349.931L407.003 458.531C408.146 462.799 405.614 467.186 401.346 468.329L336.172 485.793C331.904 486.936 327.517 484.403 326.374 480.136L297.275 371.536Z" fill="#F7FBFF"/>
<path d="M400.57 465.431L401.346 468.329L336.172 485.793L335.395 482.895L400.57 465.431ZM404.105 459.307L375.006 350.708C374.291 348.041 371.55 346.458 368.882 347.172L303.708 364.636C301.041 365.35 299.458 368.092 300.172 370.759L329.272 479.359C329.986 482.026 332.728 483.609 335.395 482.895L336.172 485.793C331.904 486.936 327.517 484.403 326.374 480.136L297.275 371.536C296.131 367.268 298.664 362.881 302.931 361.738L368.106 344.275L368.506 344.178C372.644 343.291 376.796 345.797 377.903 349.931L407.003 458.531L407.099 458.932C407.958 462.937 405.638 466.953 401.741 468.212L401.346 468.329L400.57 465.431C403.237 464.716 404.82 461.975 404.105 459.307Z" fill="#2E2F33" fill-opacity="0.88"/>
<path d="M364.813 426L374.626 406.937V406.781H363.251V403.375H378.845V406.844L369.032 426H364.813Z" fill="black"/>
<path d="M352.501 426.312C347.063 426.312 343.813 422.094 343.813 414.687C343.813 407.312 347.063 403.062 352.501 403.062C357.907 403.062 361.188 407.312 361.188 414.687C361.188 422.094 357.938 426.312 352.501 426.312ZM352.501 422.906C355.345 422.906 357.095 420.125 357.095 414.687C357.095 409.281 355.313 406.437 352.501 406.437C349.688 406.437 347.907 409.281 347.907 414.687C347.907 420.125 349.657 422.906 352.501 422.906Z" fill="black"/>
<path d="M324.876 426V423.062L332.876 415.344C335.157 413.062 336.345 411.719 336.345 409.812C336.345 407.719 334.688 406.375 332.47 406.375C330.126 406.375 328.626 407.844 328.657 410.125H324.782C324.751 405.844 327.97 403.062 332.501 403.062C337.126 403.062 340.251 405.812 340.251 409.625C340.251 412.187 339.001 414.25 334.563 418.437L330.532 422.437V422.594H340.595V426H324.876Z" fill="black"/>
</g>
<g id="baekun_hall_208">
<path d="M219.275 391.536C218.131 387.268 220.664 382.881 224.931 381.738L290.106 364.275C294.373 363.131 298.76 365.664 299.903 369.931L329.003 478.531C330.146 482.799 327.614 487.186 323.346 488.329L258.172 505.793C253.904 506.936 249.517 504.403 248.374 500.136L219.275 391.536Z" fill="#F7FBFF"/>
<path d="M322.57 485.431L323.346 488.329L258.172 505.793L257.395 502.895L322.57 485.431ZM326.105 479.307L297.006 370.708C296.291 368.041 293.55 366.458 290.882 367.172L225.708 384.636C223.041 385.35 221.458 388.092 222.172 390.759L251.272 499.359C251.986 502.026 254.728 503.609 257.395 502.895L258.172 505.793C253.904 506.936 249.517 504.403 248.374 500.136L219.275 391.536C218.131 387.268 220.664 382.881 224.931 381.738L290.106 364.275L290.506 364.178C294.644 363.291 298.796 365.797 299.903 369.931L329.003 478.531L329.099 478.932C329.958 482.937 327.638 486.953 323.741 488.212L323.346 488.329L322.57 485.431C325.237 484.716 326.82 481.975 326.105 479.307Z" fill="#2E2F33" fill-opacity="0.88"/>
<path d="M293.813 446.312C288.782 446.312 285.22 443.625 285.22 439.937C285.22 437.062 287.345 434.719 290.063 434.281V434.156C287.688 433.656 286.063 431.594 286.063 429.125C286.063 425.625 289.345 423.062 293.813 423.062C298.251 423.062 301.532 425.625 301.532 429.125C301.532 431.594 299.876 433.656 297.532 434.156V434.281C300.251 434.719 302.407 437.062 302.407 439.937C302.407 443.625 298.813 446.312 293.813 446.312ZM293.813 443.094C296.47 443.094 298.22 441.656 298.22 439.562C298.22 437.437 296.345 435.875 293.813 435.875C291.251 435.875 289.376 437.437 289.407 439.562C289.376 441.656 291.126 443.094 293.813 443.094ZM293.813 432.844C296.001 432.844 297.563 431.469 297.563 429.5C297.563 427.594 296.032 426.25 293.813 426.25C291.563 426.25 290.032 427.562 290.032 429.5C290.032 431.469 291.595 432.844 293.813 432.844Z" fill="black"/>
<path d="M273.501 446.312C268.063 446.312 264.813 442.094 264.813 434.687C264.813 427.312 268.063 423.062 273.501 423.062C278.907 423.062 282.188 427.312 282.188 434.687C282.188 442.094 278.938 446.312 273.501 446.312ZM273.501 442.906C276.345 442.906 278.095 440.125 278.095 434.687C278.095 429.281 276.313 426.437 273.501 426.437C270.688 426.437 268.907 429.281 268.907 434.687C268.907 440.125 270.657 442.906 273.501 442.906Z" fill="black"/>
<path d="M245.876 446V443.062L253.876 435.344C256.157 433.062 257.345 431.719 257.345 429.812C257.345 427.719 255.688 426.375 253.47 426.375C251.126 426.375 249.626 427.844 249.657 430.125H245.782C245.751 425.844 248.97 423.062 253.501 423.062C258.126 423.062 261.251 425.812 261.251 429.625C261.251 432.187 260.001 434.25 255.563 438.437L251.532 442.437V442.594H261.595V446H245.876Z" fill="black"/>
</g>
<g id="baekun_hall_209">
<path d="M140.275 413.536C139.131 409.268 141.664 404.881 145.931 403.738L211.106 386.275C215.373 385.131 219.76 387.664 220.903 391.931L250.003 500.531C251.146 504.799 248.614 509.186 244.346 510.329L179.172 527.793C174.904 528.936 170.517 526.403 169.374 522.136L140.275 413.536Z" fill="#F7FBFF"/>
<path d="M243.57 507.431L244.346 510.329L179.172 527.793L178.395 524.895L243.57 507.431ZM247.105 501.307L218.006 392.708C217.291 390.041 214.55 388.458 211.882 389.172L146.708 406.636C144.041 407.35 142.458 410.092 143.172 412.759L172.272 521.359C172.986 524.026 175.728 525.609 178.395 524.895L179.172 527.793C174.904 528.936 170.517 526.403 169.374 522.136L140.275 413.536C139.131 409.268 141.664 404.881 145.931 403.738L211.106 386.275L211.506 386.178C215.644 385.291 219.796 387.797 220.903 391.931L250.003 500.531L250.099 500.932C250.958 504.937 248.638 508.953 244.741 510.212L244.346 510.329L243.57 507.431C246.237 506.716 247.82 503.975 247.105 501.307Z" fill="#2E2F33" fill-opacity="0.88"/>
<path d="M214.626 445.062C219.063 445.094 223.438 447.719 223.47 456C223.47 463.812 219.938 468.312 214.376 468.312C210.001 468.312 207.001 465.594 206.501 461.844H210.532C210.938 463.625 212.313 464.781 214.376 464.781C217.657 464.781 219.501 461.875 219.532 457.031H219.282C218.126 459 215.97 460.156 213.47 460.156C209.438 460.156 206.313 457.094 206.282 452.812C206.282 448.375 209.595 445.031 214.626 445.062ZM214.657 448.344C212.126 448.344 210.22 450.312 210.251 452.719C210.251 455.156 212.063 457.062 214.595 457.062C217.095 457.062 219.063 455.031 219.032 452.687C219.032 450.375 217.188 448.344 214.657 448.344Z" fill="black"/>
<path d="M194.501 468.312C189.063 468.312 185.813 464.094 185.813 456.687C185.813 449.312 189.063 445.062 194.501 445.062C199.907 445.062 203.188 449.312 203.188 456.687C203.188 464.094 199.938 468.312 194.501 468.312ZM194.501 464.906C197.345 464.906 199.095 462.125 199.095 456.687C199.095 451.281 197.313 448.437 194.501 448.437C191.688 448.437 189.907 451.281 189.907 456.687C189.907 462.125 191.657 464.906 194.501 464.906Z" fill="black"/>
<path d="M166.876 468V465.062L174.876 457.344C177.157 455.062 178.345 453.719 178.345 451.812C178.345 449.719 176.688 448.375 174.47 448.375C172.126 448.375 170.626 449.844 170.657 452.125H166.782C166.751 447.844 169.97 445.062 174.501 445.062C179.126 445.062 182.251 447.812 182.251 451.625C182.251 454.187 181.001 456.25 176.563 460.437L172.532 464.437V464.594H182.595V468H166.876Z" fill="black"/>
</g>
<g id="baekun_hall_210">
<path d="M63.2746 435.536C62.131 431.268 64.6637 426.881 68.9314 425.738L134.106 408.275C138.373 407.131 142.76 409.664 143.903 413.931L173.003 522.531C174.146 526.799 171.614 531.186 167.346 532.329L102.172 549.793C97.904 550.936 93.5173 548.403 92.3738 544.136L63.2746 435.536Z" fill="#F7FBFF"/>
<path d="M166.57 529.431L167.346 532.329L102.172 549.793L101.395 546.895L166.57 529.431ZM170.105 523.307L141.006 414.708C140.291 412.041 137.55 410.458 134.882 411.172L69.7079 428.636C67.0406 429.35 65.4576 432.092 66.1724 434.759L95.2716 543.359C95.9863 546.026 98.7279 547.609 101.395 546.895L102.172 549.793C97.904 550.936 93.5173 548.403 92.3738 544.136L63.2746 435.536C62.131 431.268 64.6637 426.881 68.9314 425.738L134.106 408.275L134.506 408.178C138.644 407.291 142.796 409.797 143.903 413.931L173.003 522.531L173.099 522.932C173.958 526.937 171.638 530.953 167.741 532.212L167.346 532.329L166.57 529.431C169.237 528.716 170.82 525.975 170.105 523.307Z" fill="#2E2F33" fill-opacity="0.88"/>
<path d="M135.188 490.312C129.751 490.312 126.501 486.094 126.501 478.687C126.501 471.312 129.751 467.062 135.188 467.062C140.595 467.062 143.876 471.312 143.876 478.687C143.876 486.094 140.626 490.312 135.188 490.312ZM135.188 486.906C138.032 486.906 139.782 484.125 139.782 478.687C139.782 473.281 138.001 470.437 135.188 470.437C132.376 470.437 130.595 473.281 130.595 478.687C130.595 484.125 132.345 486.906 135.188 486.906Z" fill="black"/>
<path d="M121.345 467.375V490H117.251V471.344H117.126L111.845 474.719V471L117.438 467.375H121.345Z" fill="black"/>
<path d="M92.8759 490V487.062L100.876 479.344C103.157 477.062 104.345 475.719 104.345 473.812C104.345 471.719 102.688 470.375 100.47 470.375C98.1259 470.375 96.6259 471.844 96.6571 474.125H92.7821C92.7509 469.844 95.9696 467.062 100.501 467.062C105.126 467.062 108.251 469.812 108.251 473.625C108.251 476.187 107.001 478.25 102.563 482.437L98.5321 486.437V486.594H108.595V490H92.8759Z" fill="black"/>
</g>
<g id="baekun_hall_202">
<path d="M695.275 262.322C694.131 258.054 696.664 253.667 700.931 252.524L765.306 235.275C769.573 234.131 773.96 236.664 775.103 240.931L804.203 349.531C805.346 353.799 802.814 358.186 798.546 359.329L734.172 376.578C729.904 377.722 725.517 375.189 724.374 370.921L695.275 262.322Z" fill="#F7FBFF"/>
<path d="M797.769 356.431L798.546 359.329L734.172 376.578L733.395 373.68L797.769 356.431ZM801.304 350.308L772.205 241.708C771.491 239.041 768.749 237.458 766.082 238.172L701.708 255.421C699.041 256.136 697.458 258.878 698.172 261.545L727.272 370.145C727.986 372.812 730.728 374.395 733.395 373.68L734.172 376.578L733.771 376.674C729.633 377.561 725.482 375.056 724.374 370.921L695.275 262.322C694.167 258.187 696.509 253.942 700.536 252.641L700.931 252.524L765.306 235.275C769.573 234.131 773.96 236.664 775.103 240.931L804.203 349.531C805.346 353.799 802.814 358.186 798.546 359.329L797.769 356.431C800.436 355.717 802.019 352.975 801.304 350.308Z" fill="#2E2F33" fill-opacity="0.88"/>
<path d="M762.595 317V314.063L770.595 306.344C772.876 304.063 774.063 302.719 774.063 300.813C774.063 298.719 772.407 297.375 770.188 297.375C767.845 297.375 766.345 298.844 766.376 301.125H762.501C762.47 296.844 765.688 294.063 770.22 294.063C774.845 294.063 777.97 296.813 777.97 300.625C777.97 303.188 776.72 305.25 772.282 309.438L768.251 313.438V313.594H778.313V317H762.595Z" fill="black"/>
<path d="M750.501 317.313C745.063 317.313 741.813 313.094 741.813 305.688C741.813 298.313 745.063 294.063 750.501 294.063C755.907 294.063 759.188 298.313 759.188 305.688C759.188 313.094 755.938 317.313 750.501 317.313ZM750.501 313.907C753.345 313.907 755.095 311.125 755.095 305.688C755.095 300.282 753.313 297.438 750.501 297.438C747.688 297.438 745.907 300.282 745.907 305.688C745.907 311.125 747.657 313.907 750.501 313.907Z" fill="black"/>
<path d="M722.876 317V314.063L730.876 306.344C733.157 304.063 734.345 302.719 734.345 300.813C734.345 298.719 732.688 297.375 730.47 297.375C728.126 297.375 726.626 298.844 726.657 301.125H722.782C722.751 296.844 725.97 294.063 730.501 294.063C735.126 294.063 738.251 296.813 738.251 300.625C738.251 303.188 737.001 305.25 732.563 309.438L728.532 313.438V313.594H738.595V317H722.876Z" fill="black"/>
</g>
<g id="baekun_hall_201">
<path d="M772.275 241.322C771.131 237.054 773.664 232.667 777.931 231.524L842.306 214.275C846.573 213.131 850.96 215.664 852.103 219.931L881.203 328.531C882.346 332.799 879.814 337.186 875.546 338.329L811.172 355.578C806.904 356.722 802.517 354.189 801.374 349.921L772.275 241.322Z" fill="#F7FBFF"/>
<path d="M874.769 335.431L875.546 338.329L811.172 355.578L810.395 352.68L874.769 335.431ZM878.304 329.308L849.205 220.708C848.491 218.041 845.749 216.458 843.082 217.172L778.708 234.421C776.041 235.136 774.458 237.878 775.172 240.545L804.272 349.145C804.986 351.812 807.728 353.395 810.395 352.68L811.172 355.578L810.771 355.674C806.633 356.561 802.482 354.056 801.374 349.921L772.275 241.322C771.167 237.187 773.509 232.942 777.536 231.641L777.931 231.524L842.306 214.275C846.573 213.131 850.96 215.664 852.103 219.931L881.203 328.531C882.346 332.799 879.814 337.186 875.546 338.329L874.769 335.431C877.436 334.717 879.019 331.975 878.304 329.308Z" fill="#2E2F33" fill-opacity="0.88"/>
<path d="M850.782 273.375V296H846.688V277.344H846.563L841.282 280.719V277L846.876 273.375H850.782Z" fill="black"/>
<path d="M829.501 296.313C824.063 296.313 820.813 292.094 820.813 284.688C820.813 277.313 824.063 273.063 829.501 273.063C834.907 273.063 838.188 277.313 838.188 284.688C838.188 292.094 834.938 296.313 829.501 296.313ZM829.501 292.907C832.345 292.907 834.095 290.125 834.095 284.688C834.095 279.282 832.313 276.438 829.501 276.438C826.688 276.438 824.907 279.282 824.907 284.688C824.907 290.125 826.657 292.907 829.501 292.907Z" fill="black"/>
<path d="M801.876 296V293.063L809.876 285.344C812.157 283.063 813.345 281.719 813.345 279.813C813.345 277.719 811.688 276.375 809.47 276.375C807.126 276.375 805.626 277.844 805.657 280.125H801.782C801.751 275.844 804.97 273.063 809.501 273.063C814.126 273.063 817.251 275.813 817.251 279.625C817.251 282.188 816.001 284.25 811.563 288.438L807.532 292.438V292.594H817.595V296H801.876Z" fill="black"/>
</g>
<g id="baekun_hall_239">
<path d="M1299.35 244.361C1300.49 240.093 1297.96 235.706 1293.69 234.563L1229.17 217.275C1224.9 216.131 1220.52 218.664 1219.37 222.931L1190.27 331.531C1189.13 335.799 1191.66 340.186 1195.93 341.329L1260.45 358.617C1264.72 359.761 1269.11 357.228 1270.25 352.96L1299.35 244.361Z" fill="#F7FBFF"/>
<path d="M1196.71 338.431L1195.93 341.329L1260.45 358.617L1261.23 355.719L1196.71 338.431ZM1193.17 332.308L1222.27 223.708C1222.99 221.041 1225.73 219.458 1228.4 220.172L1292.92 237.46C1295.58 238.175 1297.17 240.917 1296.45 243.584L1267.35 352.184C1266.64 354.851 1263.9 356.434 1261.23 355.719L1260.45 358.617C1264.72 359.761 1269.11 357.228 1270.25 352.96L1299.35 244.361C1300.49 240.093 1297.96 235.706 1293.69 234.563L1229.17 217.275C1224.9 216.131 1220.52 218.664 1219.37 222.931L1190.27 331.531C1189.13 335.799 1191.66 340.186 1195.93 341.329L1196.71 338.431C1194.04 337.717 1192.46 334.975 1193.17 332.308Z" fill="#2E2F33" fill-opacity="0.88"/>
<path d="M1264.41 276.063C1268.84 276.094 1273.22 278.719 1273.25 287C1273.25 294.813 1269.72 299.313 1264.16 299.313C1259.78 299.313 1256.78 296.594 1256.28 292.844H1260.31C1260.72 294.625 1262.09 295.782 1264.16 295.782C1267.44 295.782 1269.28 292.875 1269.31 288.032H1269.06C1267.91 290 1265.75 291.157 1263.25 291.157C1259.22 291.157 1256.09 288.094 1256.06 283.813C1256.06 279.375 1259.37 276.032 1264.41 276.063ZM1264.44 279.344C1261.91 279.344 1260 281.313 1260.03 283.719C1260.03 286.157 1261.84 288.063 1264.37 288.063C1266.87 288.063 1268.84 286.032 1268.81 283.688C1268.81 281.375 1266.97 279.344 1264.44 279.344Z" fill="black"/>
<path d="M1244.37 299.313C1239.53 299.313 1236.09 296.688 1236 292.875H1240.09C1240.22 294.688 1242.03 295.875 1244.37 295.875C1246.87 295.875 1248.66 294.5 1248.66 292.5C1248.66 290.469 1246.91 289 1243.97 289H1241.94V285.875H1243.97C1246.37 285.875 1248.06 284.532 1248.03 282.563C1248.06 280.657 1246.62 279.375 1244.41 279.375C1242.28 279.375 1240.44 280.563 1240.37 282.469H1236.47C1236.56 278.657 1240 276.063 1244.44 276.063C1249.03 276.063 1252 278.875 1251.97 282.344C1252 284.875 1250.31 286.719 1247.84 287.219V287.407C1251.03 287.844 1252.84 289.875 1252.81 292.719C1252.84 296.532 1249.28 299.313 1244.37 299.313Z" fill="black"/>
<path d="M1216.87 299V296.063L1224.87 288.344C1227.16 286.063 1228.34 284.719 1228.34 282.813C1228.34 280.719 1226.69 279.375 1224.47 279.375C1222.12 279.375 1220.62 280.844 1220.66 283.125H1216.78C1216.75 278.844 1219.97 276.063 1224.5 276.063C1229.12 276.063 1232.25 278.813 1232.25 282.625C1232.25 285.188 1231 287.25 1226.56 291.438L1222.53 295.438V295.594H1232.59V299H1216.87Z" fill="black"/>
</g>
<g id="baekun_hall_238">
<path d="M1376.2 265.322C1377.35 261.054 1374.81 256.667 1370.55 255.524L1306.17 238.275C1301.9 237.131 1297.52 239.664 1296.37 243.931L1267.27 352.531C1266.13 356.799 1268.66 361.186 1272.93 362.329L1337.31 379.578C1341.57 380.722 1345.96 378.189 1347.1 373.921L1376.2 265.322Z" fill="#F7FBFF"/>
<path d="M1273.71 359.431L1272.93 362.329L1337.31 379.578L1338.08 376.68L1273.71 359.431ZM1270.17 353.308L1299.27 244.708C1299.99 242.041 1302.73 240.458 1305.4 241.172L1369.77 258.421C1372.44 259.136 1374.02 261.878 1373.3 264.545L1344.21 373.145C1343.49 375.812 1340.75 377.395 1338.08 376.68L1337.31 379.578L1337.71 379.674C1341.84 380.561 1346 378.056 1347.1 373.921L1376.2 265.322C1377.31 261.187 1374.97 256.942 1370.94 255.641L1370.55 255.524L1306.17 238.275C1301.9 237.131 1297.52 239.664 1296.37 243.931L1267.27 352.531C1266.13 356.799 1268.66 361.186 1272.93 362.329L1273.71 359.431C1271.04 358.717 1269.46 355.975 1270.17 353.308Z" fill="#2E2F33" fill-opacity="0.88"/>
<path d="M1341.59 320.313C1336.56 320.313 1333 317.625 1333 313.938C1333 311.063 1335.12 308.719 1337.84 308.282V308.157C1335.47 307.657 1333.84 305.594 1333.84 303.125C1333.84 299.625 1337.12 297.063 1341.59 297.063C1346.03 297.063 1349.31 299.625 1349.31 303.125C1349.31 305.594 1347.66 307.657 1345.31 308.157V308.282C1348.03 308.719 1350.19 311.063 1350.19 313.938C1350.19 317.625 1346.59 320.313 1341.59 320.313ZM1341.59 317.094C1344.25 317.094 1346 315.657 1346 313.563C1346 311.438 1344.12 309.875 1341.59 309.875C1339.03 309.875 1337.16 311.438 1337.19 313.563C1337.16 315.657 1338.91 317.094 1341.59 317.094ZM1341.59 306.844C1343.78 306.844 1345.34 305.469 1345.34 303.5C1345.34 301.594 1343.81 300.25 1341.59 300.25C1339.34 300.25 1337.81 301.563 1337.81 303.5C1337.81 305.469 1339.37 306.844 1341.59 306.844Z" fill="black"/>
<path d="M1321.37 320.313C1316.53 320.313 1313.09 317.688 1313 313.875H1317.09C1317.22 315.688 1319.03 316.875 1321.37 316.875C1323.87 316.875 1325.66 315.5 1325.66 313.5C1325.66 311.469 1323.91 310 1320.97 310H1318.94V306.875H1320.97C1323.37 306.875 1325.06 305.532 1325.03 303.563C1325.06 301.657 1323.62 300.375 1321.41 300.375C1319.28 300.375 1317.44 301.563 1317.37 303.469H1313.47C1313.56 299.657 1317 297.063 1321.44 297.063C1326.03 297.063 1329 299.875 1328.97 303.344C1329 305.875 1327.31 307.719 1324.84 308.219V308.407C1328.03 308.844 1329.84 310.875 1329.81 313.719C1329.84 317.532 1326.28 320.313 1321.37 320.313Z" fill="black"/>
<path d="M1293.87 320V317.063L1301.87 309.344C1304.16 307.063 1305.34 305.719 1305.34 303.813C1305.34 301.719 1303.69 300.375 1301.47 300.375C1299.12 300.375 1297.62 301.844 1297.66 304.125H1293.78C1293.75 299.844 1296.97 297.063 1301.5 297.063C1306.12 297.063 1309.25 299.813 1309.25 303.625C1309.25 306.188 1308 308.25 1303.56 312.438L1299.53 316.438V316.594H1309.59V320H1293.87Z" fill="black"/>
</g>
<g id="baekun_hall_237">
<path d="M1453.2 286.322C1454.35 282.054 1451.81 277.667 1447.55 276.524L1383.17 259.275C1378.9 258.131 1374.52 260.664 1373.37 264.931L1344.27 373.531C1343.13 377.799 1345.66 382.186 1349.93 383.329L1414.31 400.578C1418.57 401.722 1422.96 399.189 1424.1 394.921L1453.2 286.322Z" fill="#F7FBFF"/>
<path d="M1350.71 380.431L1349.93 383.329L1414.31 400.578L1415.08 397.68L1350.71 380.431ZM1347.17 374.308L1376.27 265.708C1376.99 263.041 1379.73 261.458 1382.4 262.172L1446.77 279.421C1449.44 280.136 1451.02 282.878 1450.3 285.545L1421.21 394.145C1420.49 396.812 1417.75 398.395 1415.08 397.68L1414.31 400.578L1414.71 400.674C1418.84 401.561 1423 399.056 1424.1 394.921L1453.2 286.322C1454.31 282.187 1451.97 277.942 1447.94 276.641L1447.55 276.524L1383.17 259.275C1378.9 258.131 1374.52 260.664 1373.37 264.931L1344.27 373.531C1343.13 377.799 1345.66 382.186 1349.93 383.329L1350.71 380.431C1348.04 379.717 1346.46 376.975 1347.17 374.308Z" fill="#2E2F33" fill-opacity="0.88"/>
<path d="M1412.22 341L1422.03 321.938V321.782H1410.66V318.375H1426.25V321.844L1416.44 341H1412.22Z" fill="black"/>
<path d="M1399.37 341.313C1394.53 341.313 1391.09 338.688 1391 334.875H1395.09C1395.22 336.688 1397.03 337.875 1399.37 337.875C1401.87 337.875 1403.66 336.5 1403.66 334.5C1403.66 332.469 1401.91 331 1398.97 331H1396.94V327.875H1398.97C1401.37 327.875 1403.06 326.532 1403.03 324.563C1403.06 322.657 1401.62 321.375 1399.41 321.375C1397.28 321.375 1395.44 322.563 1395.37 324.469H1391.47C1391.56 320.657 1395 318.063 1399.44 318.063C1404.03 318.063 1407 320.875 1406.97 324.344C1407 326.875 1405.31 328.719 1402.84 329.219V329.407C1406.03 329.844 1407.84 331.875 1407.81 334.719C1407.84 338.532 1404.28 341.313 1399.37 341.313Z" fill="black"/>
<path d="M1371.87 341V338.063L1379.87 330.344C1382.16 328.063 1383.34 326.719 1383.34 324.813C1383.34 322.719 1381.69 321.375 1379.47 321.375C1377.12 321.375 1375.62 322.844 1375.66 325.125H1371.78C1371.75 320.844 1374.97 318.063 1379.5 318.063C1384.12 318.063 1387.25 320.813 1387.25 324.625C1387.25 327.188 1386 329.25 1381.56 333.438L1377.53 337.438V337.594H1387.59V341H1371.87Z" fill="black"/>
</g>
<g id="baekun_hall_236">
<path d="M1530.2 307.322C1531.35 303.054 1528.81 298.667 1524.55 297.524L1460.17 280.275C1455.9 279.131 1451.52 281.664 1450.37 285.931L1421.27 394.531C1420.13 398.799 1422.66 403.186 1426.93 404.329L1491.31 421.578C1495.57 422.722 1499.96 420.189 1501.1 415.921L1530.2 307.322Z" fill="#F7FBFF"/>
<path d="M1427.71 401.431L1426.93 404.329L1491.31 421.578L1492.08 418.68L1427.71 401.431ZM1424.17 395.308L1453.27 286.708C1453.99 284.041 1456.73 282.458 1459.4 283.172L1523.77 300.421C1526.44 301.136 1528.02 303.878 1527.3 306.545L1498.21 415.145C1497.49 417.812 1494.75 419.395 1492.08 418.68L1491.31 421.578L1491.71 421.674C1495.84 422.561 1500 420.056 1501.1 415.921L1530.2 307.322C1531.31 303.187 1528.97 298.942 1524.94 297.641L1524.55 297.524L1460.17 280.275C1455.9 279.131 1451.52 281.664 1450.37 285.931L1421.27 394.531C1420.13 398.799 1422.66 403.186 1426.93 404.329L1427.71 401.431C1425.04 400.717 1423.46 397.975 1424.17 395.308Z" fill="#2E2F33" fill-opacity="0.88"/>
<path d="M1495.84 362.313C1491.44 362.282 1487 359.657 1487.03 351.313C1487.03 343.563 1490.56 339.063 1496.09 339.063C1500.47 339.063 1503.47 341.813 1503.97 345.469H1499.94C1499.53 343.75 1498.16 342.594 1496.09 342.594C1492.81 342.594 1490.97 345.5 1490.97 350.25H1491.19C1492.34 348.313 1494.53 347.157 1497 347.157C1501.06 347.157 1504.19 350.219 1504.19 354.5C1504.19 359 1500.84 362.344 1495.84 362.313ZM1495.84 359.032C1498.37 359.032 1500.25 357.063 1500.25 354.594C1500.25 352.188 1498.41 350.25 1495.91 350.25C1493.37 350.25 1491.44 352.25 1491.41 354.625C1491.44 357 1493.28 359.032 1495.84 359.032Z" fill="black"/>
<path d="M1475.37 362.313C1470.53 362.313 1467.09 359.688 1467 355.875H1471.09C1471.22 357.688 1473.03 358.875 1475.37 358.875C1477.87 358.875 1479.66 357.5 1479.66 355.5C1479.66 353.469 1477.91 352 1474.97 352H1472.94V348.875H1474.97C1477.37 348.875 1479.06 347.532 1479.03 345.563C1479.06 343.657 1477.62 342.375 1475.41 342.375C1473.28 342.375 1471.44 343.563 1471.37 345.469H1467.47C1467.56 341.657 1471 339.063 1475.44 339.063C1480.03 339.063 1483 341.875 1482.97 345.344C1483 347.875 1481.31 349.719 1478.84 350.219V350.407C1482.03 350.844 1483.84 352.875 1483.81 355.719C1483.84 359.532 1480.28 362.313 1475.37 362.313Z" fill="black"/>
<path d="M1447.87 362V359.063L1455.87 351.344C1458.16 349.063 1459.34 347.719 1459.34 345.813C1459.34 343.719 1457.69 342.375 1455.47 342.375C1453.12 342.375 1451.62 343.844 1451.66 346.125H1447.78C1447.75 341.844 1450.97 339.063 1455.5 339.063C1460.12 339.063 1463.25 341.813 1463.25 345.625C1463.25 348.188 1462 350.25 1457.56 354.438L1453.53 358.438V358.594H1463.59V362H1447.87Z" fill="black"/>
</g>
<g id="baekun_hall_235">
<path d="M1607.2 328.322C1608.35 324.054 1605.81 319.667 1601.55 318.524L1537.17 301.275C1532.9 300.131 1528.52 302.664 1527.37 306.931L1498.27 415.531C1497.13 419.799 1499.66 424.186 1503.93 425.329L1568.31 442.578C1572.57 443.722 1576.96 441.189 1578.1 436.921L1607.2 328.322Z" fill="#F7FBFF"/>
<path d="M1504.71 422.431L1503.93 425.329L1568.31 442.578L1569.08 439.68L1504.71 422.431ZM1501.17 416.308L1530.27 307.708C1530.99 305.041 1533.73 303.458 1536.4 304.172L1600.77 321.421C1603.44 322.136 1605.02 324.878 1604.3 327.545L1575.21 436.145C1574.49 438.812 1571.75 440.395 1569.08 439.68L1568.31 442.578L1568.71 442.674C1572.84 443.561 1577 441.056 1578.1 436.921L1607.2 328.322C1608.31 324.187 1605.97 319.942 1601.94 318.641L1601.55 318.524L1537.17 301.275C1532.9 300.131 1528.52 302.664 1527.37 306.931L1498.27 415.531C1497.13 419.799 1499.66 424.186 1503.93 425.329L1504.71 422.431C1502.04 421.717 1500.46 418.975 1501.17 416.308Z" fill="#2E2F33" fill-opacity="0.88"/>
<path d="M1572.41 383.313C1567.87 383.313 1564.56 380.625 1564.44 376.875H1568.41C1568.53 378.719 1570.25 380.032 1572.41 380.032C1574.94 380.032 1576.75 378.188 1576.75 375.688C1576.75 373.094 1574.87 371.25 1572.28 371.25C1570.53 371.219 1569.25 371.844 1568.53 373.188H1564.75L1566.12 360.375H1579.5V363.782H1569.47L1568.78 369.782H1569C1569.87 368.782 1571.53 368.063 1573.37 368.063C1577.59 368.063 1580.69 371.219 1580.69 375.563C1580.69 380.094 1577.28 383.313 1572.41 383.313Z" fill="black"/>
<path d="M1552.37 383.313C1547.53 383.313 1544.09 380.688 1544 376.875H1548.09C1548.22 378.688 1550.03 379.875 1552.37 379.875C1554.87 379.875 1556.66 378.5 1556.66 376.5C1556.66 374.469 1554.91 373 1551.97 373H1549.94V369.875H1551.97C1554.37 369.875 1556.06 368.532 1556.03 366.563C1556.06 364.657 1554.62 363.375 1552.41 363.375C1550.28 363.375 1548.44 364.563 1548.37 366.469H1544.47C1544.56 362.657 1548 360.063 1552.44 360.063C1557.03 360.063 1560 362.875 1559.97 366.344C1560 368.875 1558.31 370.719 1555.84 371.219V371.407C1559.03 371.844 1560.84 373.875 1560.81 376.719C1560.84 380.532 1557.28 383.313 1552.37 383.313Z" fill="black"/>
<path d="M1524.87 383V380.063L1532.87 372.344C1535.16 370.063 1536.34 368.719 1536.34 366.813C1536.34 364.719 1534.69 363.375 1532.47 363.375C1530.12 363.375 1528.62 364.844 1528.66 367.125H1524.78C1524.75 362.844 1527.97 360.063 1532.5 360.063C1537.12 360.063 1540.25 362.813 1540.25 366.625C1540.25 369.188 1539 371.25 1534.56 375.438L1530.53 379.438V379.594H1540.59V383H1524.87Z" fill="black"/>
</g>
<g id="baekun_hall_234">
<path d="M1675.25 345.921C1676.39 341.654 1673.86 337.267 1669.59 336.123L1614.17 321.275C1609.9 320.131 1605.52 322.664 1604.37 326.931L1575.27 435.531C1574.13 439.799 1576.66 444.186 1580.93 445.329L1636.35 460.178C1640.62 461.322 1645 458.789 1646.15 454.521L1675.25 345.921Z" fill="#F7FBFF"/>
<path d="M1581.71 442.431L1580.93 445.329L1636.35 460.178L1637.12 457.28L1581.71 442.431ZM1578.17 436.307L1607.27 327.708C1607.99 325.041 1610.73 323.458 1613.4 324.172L1668.81 339.021C1671.48 339.736 1673.06 342.478 1672.35 345.145L1643.25 453.745C1642.53 456.412 1639.79 457.995 1637.12 457.28L1636.35 460.178L1636.75 460.274C1640.89 461.161 1645.04 458.655 1646.15 454.521L1675.25 345.921C1676.39 341.654 1673.86 337.267 1669.59 336.123L1614.17 321.275L1613.77 321.178C1609.63 320.291 1605.48 322.797 1604.37 326.931L1575.27 435.531L1575.18 435.932C1574.32 439.937 1576.64 443.953 1580.54 445.212L1580.93 445.329L1581.71 442.431C1579.04 441.716 1577.46 438.975 1578.17 436.307Z" fill="#2E2F33" fill-opacity="0.88"/>
<path d="M1635.97 397.782V394.532L1645.75 379.376H1650.81V394.438H1653.78V397.782H1650.81V402.001H1646.94V397.782H1635.97ZM1640.12 394.438H1647V384.001H1646.75L1640.12 394.282V394.438Z" fill="black"/>
<path d="M1624.37 402.313C1619.53 402.313 1616.09 399.688 1616 395.876H1620.09C1620.22 397.688 1622.03 398.876 1624.37 398.876C1626.87 398.876 1628.66 397.501 1628.66 395.501C1628.66 393.469 1626.91 392.001 1623.97 392.001H1621.94V388.876H1623.97C1626.37 388.876 1628.06 387.532 1628.03 385.563C1628.06 383.657 1626.62 382.376 1624.41 382.376C1622.28 382.376 1620.44 383.563 1620.37 385.469H1616.47C1616.56 381.657 1620 379.063 1624.44 379.063C1629.03 379.063 1632 381.876 1631.97 385.344C1632 387.876 1630.31 389.719 1627.84 390.219V390.407C1631.03 390.844 1632.84 392.876 1632.81 395.719C1632.84 399.532 1629.28 402.313 1624.37 402.313Z" fill="black"/>
<path d="M1596.87 402.001V399.063L1604.87 391.344C1607.16 389.063 1608.34 387.719 1608.34 385.813C1608.34 383.719 1606.69 382.376 1604.47 382.376C1602.12 382.376 1600.62 383.844 1600.66 386.126H1596.78C1596.75 381.844 1599.97 379.063 1604.5 379.063C1609.12 379.063 1612.25 381.813 1612.25 385.626C1612.25 388.188 1611 390.251 1606.56 394.438L1602.53 398.438V398.594H1612.59V402.001H1596.87Z" fill="black"/>
</g>
<g id="baekun_hall_233">
<path d="M1754 366.536C1755.15 362.268 1752.61 357.881 1748.35 356.738L1683.17 339.275C1678.9 338.131 1674.52 340.664 1673.37 344.931L1644.27 453.531C1643.13 457.799 1645.66 462.186 1649.93 463.329L1715.11 480.793C1719.37 481.936 1723.76 479.403 1724.9 475.136L1754 366.536Z" fill="#F7FBFF"/>
<path d="M1650.71 460.431L1649.93 463.329L1715.11 480.793L1715.88 477.895L1650.71 460.431ZM1647.17 454.307L1676.27 345.708C1676.99 343.041 1679.73 341.458 1682.39 342.172L1747.57 359.636C1750.24 360.35 1751.82 363.092 1751.11 365.759L1722.01 474.359C1721.29 477.026 1718.55 478.609 1715.88 477.895L1715.11 480.793C1719.37 481.936 1723.76 479.403 1724.9 475.136L1754 366.536C1755.15 362.268 1752.61 357.881 1748.35 356.738L1683.17 339.275L1682.77 339.178C1678.63 338.291 1674.48 340.797 1673.37 344.931L1644.27 453.531L1644.18 453.932C1643.32 457.937 1645.64 461.953 1649.54 463.212L1649.93 463.329L1650.71 460.431C1648.04 459.716 1646.46 456.975 1647.17 454.307Z" fill="#2E2F33" fill-opacity="0.88"/>
<path d="M1718.59 421.312C1713.75 421.312 1710.31 418.687 1710.22 414.875H1714.31C1714.44 416.687 1716.25 417.875 1718.59 417.875C1721.09 417.875 1722.87 416.5 1722.87 414.5C1722.87 412.469 1721.12 411 1718.19 411H1716.16V407.875H1718.19C1720.59 407.875 1722.28 406.531 1722.25 404.562C1722.28 402.656 1720.84 401.375 1718.62 401.375C1716.5 401.375 1714.66 402.562 1714.59 404.469H1710.69C1710.78 400.656 1714.22 398.062 1718.66 398.062C1723.25 398.062 1726.22 400.875 1726.19 404.344C1726.22 406.875 1724.53 408.719 1722.06 409.219V409.406C1725.25 409.844 1727.06 411.875 1727.03 414.719C1727.06 418.531 1723.5 421.312 1718.59 421.312Z" fill="black"/>
<path d="M1698.37 421.312C1693.53 421.312 1690.09 418.687 1690 414.875H1694.09C1694.22 416.687 1696.03 417.875 1698.37 417.875C1700.87 417.875 1702.66 416.5 1702.66 414.5C1702.66 412.469 1700.91 411 1697.97 411H1695.94V407.875H1697.97C1700.37 407.875 1702.06 406.531 1702.03 404.562C1702.06 402.656 1700.62 401.375 1698.41 401.375C1696.28 401.375 1694.44 402.562 1694.37 404.469H1690.47C1690.56 400.656 1694 398.062 1698.44 398.062C1703.03 398.062 1706 400.875 1705.97 404.344C1706 406.875 1704.31 408.719 1701.84 409.219V409.406C1705.03 409.844 1706.84 411.875 1706.81 414.719C1706.84 418.531 1703.28 421.312 1698.37 421.312Z" fill="black"/>
<path d="M1670.87 421V418.062L1678.87 410.344C1681.16 408.062 1682.34 406.719 1682.34 404.812C1682.34 402.719 1680.69 401.375 1678.47 401.375C1676.12 401.375 1674.62 402.844 1674.66 405.125H1670.78C1670.75 400.844 1673.97 398.062 1678.5 398.062C1683.12 398.062 1686.25 400.812 1686.25 404.625C1686.25 407.187 1685 409.25 1680.56 413.437L1676.53 417.437V417.594H1686.59V421H1670.87Z" fill="black"/>
</g>
<g id="baekun_hall_232">
<path d="M1832 387.536C1833.15 383.268 1830.61 378.881 1826.35 377.738L1761.17 360.275C1756.9 359.131 1752.52 361.664 1751.37 365.931L1722.27 474.531C1721.13 478.799 1723.66 483.186 1727.93 484.329L1793.11 501.793C1797.37 502.936 1801.76 500.403 1802.9 496.136L1832 387.536Z" fill="#F7FBFF"/>
<path d="M1728.71 481.431L1727.93 484.329L1793.11 501.793L1793.88 498.895L1728.71 481.431ZM1725.17 475.307L1754.27 366.708C1754.99 364.041 1757.73 362.458 1760.39 363.172L1825.57 380.636C1828.24 381.35 1829.82 384.092 1829.11 386.759L1800.01 495.359C1799.29 498.026 1796.55 499.609 1793.88 498.895L1793.11 501.793C1797.37 502.936 1801.76 500.403 1802.9 496.136L1832 387.536C1833.15 383.268 1830.61 378.881 1826.35 377.738L1761.17 360.275L1760.77 360.178C1756.63 359.291 1752.48 361.797 1751.37 365.931L1722.27 474.531L1722.18 474.932C1721.32 478.937 1723.64 482.953 1727.54 484.212L1727.93 484.329L1728.71 481.431C1726.04 480.716 1724.46 477.975 1725.17 475.307Z" fill="#2E2F33" fill-opacity="0.88"/>
<path d="M1789.37 442V439.062L1797.37 431.344C1799.66 429.062 1800.84 427.719 1800.84 425.812C1800.84 423.719 1799.19 422.375 1796.97 422.375C1794.62 422.375 1793.12 423.844 1793.16 426.125H1789.28C1789.25 421.844 1792.47 419.062 1797 419.062C1801.62 419.062 1804.75 421.812 1804.75 425.625C1804.75 428.187 1803.5 430.25 1799.06 434.437L1795.03 438.437V438.594H1805.09V442H1789.37Z" fill="black"/>
<path d="M1777.37 442.312C1772.53 442.312 1769.09 439.687 1769 435.875H1773.09C1773.22 437.687 1775.03 438.875 1777.37 438.875C1779.87 438.875 1781.66 437.5 1781.66 435.5C1781.66 433.469 1779.91 432 1776.97 432H1774.94V428.875H1776.97C1779.37 428.875 1781.06 427.531 1781.03 425.562C1781.06 423.656 1779.62 422.375 1777.41 422.375C1775.28 422.375 1773.44 423.562 1773.37 425.469H1769.47C1769.56 421.656 1773 419.062 1777.44 419.062C1782.03 419.062 1785 421.875 1784.97 425.344C1785 427.875 1783.31 429.719 1780.84 430.219V430.406C1784.03 430.844 1785.84 432.875 1785.81 435.719C1785.84 439.531 1782.28 442.312 1777.37 442.312Z" fill="black"/>
<path d="M1749.87 442V439.062L1757.87 431.344C1760.16 429.062 1761.34 427.719 1761.34 425.812C1761.34 423.719 1759.69 422.375 1757.47 422.375C1755.12 422.375 1753.62 423.844 1753.66 426.125H1749.78C1749.75 421.844 1752.97 419.062 1757.5 419.062C1762.12 419.062 1765.25 421.812 1765.25 425.625C1765.25 428.187 1764 430.25 1759.56 434.437L1755.53 438.437V438.594H1765.59V442H1749.87Z" fill="black"/>
</g>
<g id="baekun_hall_231">
<path d="M1910 409.536C1911.15 405.268 1908.61 400.881 1904.35 399.738L1839.17 382.275C1834.9 381.131 1830.52 383.664 1829.37 387.931L1800.27 496.531C1799.13 500.799 1801.66 505.186 1805.93 506.329L1871.11 523.793C1875.37 524.936 1879.76 522.403 1880.9 518.136L1910 409.536Z" fill="#F7FBFF"/>
<path d="M1806.71 503.431L1805.93 506.329L1871.11 523.793L1871.88 520.895L1806.71 503.431ZM1803.17 497.307L1832.27 388.708C1832.99 386.041 1835.73 384.458 1838.39 385.172L1903.57 402.636C1906.24 403.35 1907.82 406.092 1907.11 408.759L1878.01 517.359C1877.29 520.026 1874.55 521.609 1871.88 520.895L1871.11 523.793C1875.37 524.936 1879.76 522.403 1880.9 518.136L1910 409.536C1911.15 405.268 1908.61 400.881 1904.35 399.738L1839.17 382.275L1838.77 382.178C1834.63 381.291 1830.48 383.797 1829.37 387.931L1800.27 496.531L1800.18 496.932C1799.32 500.937 1801.64 504.953 1805.54 506.212L1805.93 506.329L1806.71 503.431C1804.04 502.716 1802.46 499.975 1803.17 497.307Z" fill="#2E2F33" fill-opacity="0.88"/>
<path d="M1878.56 441.375V464H1874.47V445.344H1874.34L1869.06 448.719V445L1874.66 441.375H1878.56Z" fill="black"/>
<path d="M1857.37 464.312C1852.53 464.312 1849.09 461.687 1849 457.875H1853.09C1853.22 459.687 1855.03 460.875 1857.37 460.875C1859.87 460.875 1861.66 459.5 1861.66 457.5C1861.66 455.469 1859.91 454 1856.97 454H1854.94V450.875H1856.97C1859.37 450.875 1861.06 449.531 1861.03 447.562C1861.06 445.656 1859.62 444.375 1857.41 444.375C1855.28 444.375 1853.44 445.562 1853.37 447.469H1849.47C1849.56 443.656 1853 441.062 1857.44 441.062C1862.03 441.062 1865 443.875 1864.97 447.344C1865 449.875 1863.31 451.719 1860.84 452.219V452.406C1864.03 452.844 1865.84 454.875 1865.81 457.719C1865.84 461.531 1862.28 464.312 1857.37 464.312Z" fill="black"/>
<path d="M1829.87 464V461.062L1837.87 453.344C1840.16 451.062 1841.34 449.719 1841.34 447.812C1841.34 445.719 1839.69 444.375 1837.47 444.375C1835.12 444.375 1833.62 445.844 1833.66 448.125H1829.78C1829.75 443.844 1832.97 441.062 1837.5 441.062C1842.12 441.062 1845.25 443.812 1845.25 447.625C1845.25 450.187 1844 452.25 1839.56 456.437L1835.53 460.437V460.594H1845.59V464H1829.87Z" fill="black"/>
</g>
<g id="baekun_hall_230">
<path d="M1988 431.536C1989.15 427.268 1986.61 422.881 1982.35 421.738L1917.17 404.275C1912.9 403.131 1908.52 405.664 1907.37 409.931L1878.27 518.531C1877.13 522.799 1879.66 527.186 1883.93 528.329L1949.11 545.793C1953.37 546.936 1957.76 544.403 1958.9 540.136L1988 431.536Z" fill="#F7FBFF"/>
<path d="M1884.71 525.431L1883.93 528.329L1949.11 545.793L1949.88 542.895L1884.71 525.431ZM1881.17 519.307L1910.27 410.708C1910.99 408.041 1913.73 406.458 1916.39 407.172L1981.57 424.636C1984.24 425.35 1985.82 428.092 1985.11 430.759L1956.01 539.359C1955.29 542.026 1952.55 543.609 1949.88 542.895L1949.11 545.793C1953.37 546.936 1957.76 544.403 1958.9 540.136L1988 431.536C1989.15 427.268 1986.61 422.881 1982.35 421.738L1917.17 404.275L1916.77 404.178C1912.63 403.291 1908.48 405.797 1907.37 409.931L1878.27 518.531L1878.18 518.932C1877.32 522.937 1879.64 526.953 1883.54 528.212L1883.93 528.329L1884.71 525.431C1882.04 524.716 1880.46 521.975 1881.17 519.307Z" fill="#2E2F33" fill-opacity="0.88"/>
<path d="M1952.72 486.312C1947.28 486.312 1944.03 482.094 1944.03 474.687C1944.03 467.312 1947.28 463.062 1952.72 463.062C1958.12 463.062 1961.41 467.312 1961.41 474.687C1961.41 482.094 1958.16 486.312 1952.72 486.312ZM1952.72 482.906C1955.56 482.906 1957.31 480.125 1957.31 474.687C1957.31 469.281 1955.53 466.437 1952.72 466.437C1949.91 466.437 1948.12 469.281 1948.12 474.687C1948.12 480.125 1949.87 482.906 1952.72 482.906Z" fill="black"/>
<path d="M1932.37 486.312C1927.53 486.312 1924.09 483.687 1924 479.875H1928.09C1928.22 481.687 1930.03 482.875 1932.37 482.875C1934.87 482.875 1936.66 481.5 1936.66 479.5C1936.66 477.469 1934.91 476 1931.97 476H1929.94V472.875H1931.97C1934.37 472.875 1936.06 471.531 1936.03 469.562C1936.06 467.656 1934.62 466.375 1932.41 466.375C1930.28 466.375 1928.44 467.562 1928.37 469.469H1924.47C1924.56 465.656 1928 463.062 1932.44 463.062C1937.03 463.062 1940 465.875 1939.97 469.344C1940 471.875 1938.31 473.719 1935.84 474.219V474.406C1939.03 474.844 1940.84 476.875 1940.81 479.719C1940.84 483.531 1937.28 486.312 1932.37 486.312Z" fill="black"/>
<path d="M1904.87 486V483.062L1912.87 475.344C1915.16 473.062 1916.34 471.719 1916.34 469.812C1916.34 467.719 1914.69 466.375 1912.47 466.375C1910.12 466.375 1908.62 467.844 1908.66 470.125H1904.78C1904.75 465.844 1907.97 463.062 1912.5 463.062C1917.12 463.062 1920.25 465.812 1920.25 469.625C1920.25 472.187 1919 474.25 1914.56 478.437L1910.53 482.437V482.594H1920.59V486H1904.87Z" fill="black"/>
</g>
<g id="baekun_hall_229">
<path d="M1963.08 221.322C1964.22 217.054 1961.69 212.667 1957.42 211.524L1893.05 194.275C1888.78 193.131 1884.39 195.664 1883.25 199.931L1847.27 334.189C1846.13 338.457 1848.66 342.843 1852.93 343.987L1917.31 361.236C1921.57 362.379 1925.96 359.847 1927.1 355.579L1963.08 221.322Z" fill="#F7FBFF"/>
<path d="M1853.71 341.089L1852.93 343.987L1917.31 361.236L1918.08 358.338L1853.71 341.089ZM1850.17 334.965L1886.15 200.708C1886.86 198.041 1889.6 196.458 1892.27 197.172L1956.64 214.421C1959.31 215.136 1960.89 217.878 1960.18 220.545L1924.21 354.802C1923.49 357.469 1920.75 359.052 1918.08 358.338L1917.31 361.236L1917.71 361.333C1921.84 362.219 1926 359.713 1927.1 355.579L1963.08 221.322C1964.19 217.187 1961.84 212.942 1957.82 211.641L1957.42 211.524L1893.05 194.275C1888.78 193.131 1884.39 195.664 1883.25 199.931L1847.27 334.189C1846.13 338.457 1848.66 342.843 1852.93 343.987L1853.71 341.089C1851.04 340.374 1849.46 337.632 1850.17 334.965Z" fill="#2E2F33" fill-opacity="0.88"/>
<path d="M1924.47 266.063C1928.91 266.094 1933.28 268.719 1933.31 277C1933.31 284.813 1929.78 289.313 1924.22 289.313C1919.84 289.313 1916.84 286.594 1916.34 282.844H1920.37C1920.78 284.625 1922.16 285.782 1924.22 285.782C1927.5 285.782 1929.34 282.875 1929.37 278.032H1929.12C1927.97 280 1925.81 281.157 1923.31 281.157C1919.28 281.157 1916.16 278.094 1916.12 273.813C1916.12 269.375 1919.44 266.032 1924.47 266.063ZM1924.5 269.344C1921.97 269.344 1920.06 271.313 1920.09 273.719C1920.09 276.157 1921.91 278.063 1924.44 278.063C1926.94 278.063 1928.91 276.032 1928.87 273.688C1928.87 271.375 1927.03 269.344 1924.5 269.344Z" fill="black"/>
<path d="M1897.16 289V286.063L1905.16 278.344C1907.44 276.063 1908.62 274.719 1908.62 272.813C1908.62 270.719 1906.97 269.375 1904.75 269.375C1902.41 269.375 1900.91 270.844 1900.94 273.125H1897.06C1897.03 268.844 1900.25 266.063 1904.78 266.063C1909.41 266.063 1912.53 268.813 1912.53 272.625C1912.53 275.188 1911.28 277.25 1906.84 281.438L1902.81 285.438V285.594H1912.87V289H1897.16Z" fill="black"/>
<path d="M1877.87 289V286.063L1885.87 278.344C1888.16 276.063 1889.34 274.719 1889.34 272.813C1889.34 270.719 1887.69 269.375 1885.47 269.375C1883.12 269.375 1881.62 270.844 1881.66 273.125H1877.78C1877.75 268.844 1880.97 266.063 1885.5 266.063C1890.12 266.063 1893.25 268.813 1893.25 272.625C1893.25 275.188 1892 277.25 1887.56 281.438L1883.53 285.438V285.594H1893.59V289H1877.87Z" fill="black"/>
</g>
<g id="baekun_hall_225">
<path d="M1886.19 199.075C1887.33 194.807 1884.8 190.421 1880.53 189.277L1511.05 90.2746C1506.78 89.131 1502.39 91.6637 1501.25 95.9314L1465.27 230.189C1464.13 234.457 1466.66 238.843 1470.93 239.987L1840.41 338.99C1844.68 340.133 1849.07 337.6 1850.21 333.333L1886.19 199.075Z" fill="#F7FBFF"/>
<path d="M1471.71 237.089L1470.93 239.987L1840.41 338.99L1841.19 336.091L1471.71 237.089ZM1468.17 230.965L1504.15 96.708C1504.86 94.0407 1507.6 92.4578 1510.27 93.1725L1879.75 192.175C1882.42 192.89 1884 195.631 1883.29 198.299L1847.31 332.556C1846.6 335.223 1843.86 336.806 1841.19 336.091L1840.41 338.99C1844.68 340.133 1849.07 337.6 1850.21 333.333L1886.19 199.075C1887.33 194.807 1884.8 190.421 1880.53 189.277L1511.05 90.2746C1506.78 89.131 1502.39 91.6637 1501.25 95.9314L1465.27 230.189C1464.13 234.457 1466.66 238.843 1470.93 239.987L1471.71 237.089C1469.04 236.374 1467.46 233.632 1468.17 230.965Z" fill="#2E2F33" fill-opacity="0.88"/>
<path d="M1695.47 226.313C1690.94 226.313 1687.62 223.625 1687.5 219.875H1691.47C1691.59 221.719 1693.31 223.031 1695.47 223.031C1698 223.031 1699.81 221.188 1699.81 218.688C1699.81 216.094 1697.94 214.25 1695.34 214.25C1693.59 214.219 1692.31 214.844 1691.59 216.188H1687.81L1689.19 203.375H1702.56V206.781H1692.53L1691.84 212.781H1692.06C1692.94 211.781 1694.59 211.063 1696.44 211.063C1700.66 211.063 1703.75 214.219 1703.75 218.563C1703.75 223.094 1700.34 226.313 1695.47 226.313Z" fill="black"/>
<path d="M1668.16 226V223.063L1676.16 215.344C1678.44 213.063 1679.62 211.719 1679.62 209.813C1679.62 207.719 1677.97 206.375 1675.75 206.375C1673.41 206.375 1671.91 207.844 1671.94 210.125H1668.06C1668.03 205.844 1671.25 203.063 1675.78 203.063C1680.41 203.063 1683.53 205.813 1683.53 209.625C1683.53 212.188 1682.28 214.25 1677.84 218.438L1673.81 222.438V222.594H1683.87V226H1668.16Z" fill="black"/>
<path d="M1648.87 226V223.063L1656.87 215.344C1659.16 213.063 1660.34 211.719 1660.34 209.813C1660.34 207.719 1658.69 206.375 1656.47 206.375C1654.12 206.375 1652.62 207.844 1652.66 210.125H1648.78C1648.75 205.844 1651.97 203.063 1656.5 203.063C1661.12 203.063 1664.25 205.813 1664.25 209.625C1664.25 212.188 1663 214.25 1658.56 218.438L1654.53 222.438V222.594H1664.59V226H1648.87Z" fill="black"/>
</g>
<g id="baekun_hall_224">
<path d="M1503.74 97.4993C1504.88 93.2316 1502.35 88.8449 1498.08 87.7014L1433.05 70.2746C1428.78 69.131 1424.39 71.6637 1423.25 75.9314L1387.27 210.189C1386.13 214.457 1388.66 218.843 1392.93 219.987L1457.97 237.414C1462.24 238.557 1466.62 236.025 1467.77 231.757L1503.74 97.4993Z" fill="#F7FBFF"/>
<path d="M1393.71 217.089L1392.93 219.987L1457.97 237.414L1458.75 234.516L1393.71 217.089ZM1390.17 210.965L1426.15 76.7079C1426.86 74.0406 1429.6 72.4577 1432.27 73.1723L1497.31 90.5992C1499.98 91.3139 1501.56 94.0556 1500.84 96.7229L1464.87 230.98C1464.15 233.647 1461.41 235.23 1458.75 234.516L1457.97 237.414L1458.37 237.511C1462.51 238.397 1466.66 235.891 1467.77 231.757L1503.74 97.4993C1504.88 93.2316 1502.35 88.8449 1498.08 87.7014L1433.05 70.2746L1432.65 70.1783C1428.51 69.2915 1424.36 71.7972 1423.25 75.9314L1387.27 210.189L1387.18 210.589C1386.32 214.594 1388.64 218.611 1392.54 219.87L1392.93 219.987L1393.71 217.089C1391.04 216.374 1389.46 213.632 1390.17 210.965Z" fill="#2E2F33" fill-opacity="0.88"/>
<path d="M1455.53 160.782V157.532L1465.31 142.375H1470.37V157.438H1473.34V160.782H1470.37V165H1466.5V160.782H1455.53ZM1459.69 157.438H1466.56V147H1466.31L1459.69 157.282V157.438Z" fill="black"/>
<path d="M1437.16 165V162.063L1445.16 154.344C1447.44 152.063 1448.62 150.719 1448.62 148.813C1448.62 146.719 1446.97 145.375 1444.75 145.375C1442.41 145.375 1440.91 146.844 1440.94 149.125H1437.06C1437.03 144.844 1440.25 142.063 1444.78 142.063C1449.41 142.063 1452.53 144.813 1452.53 148.625C1452.53 151.188 1451.28 153.25 1446.84 157.438L1442.81 161.438V161.594H1452.87V165H1437.16Z" fill="black"/>
<path d="M1417.87 165V162.063L1425.87 154.344C1428.16 152.063 1429.34 150.719 1429.34 148.813C1429.34 146.719 1427.69 145.375 1425.47 145.375C1423.12 145.375 1421.62 146.844 1421.66 149.125H1417.78C1417.75 144.844 1420.97 142.063 1425.5 142.063C1430.12 142.063 1433.25 144.813 1433.25 148.625C1433.25 151.188 1432 153.25 1427.56 157.438L1423.53 161.438V161.594H1433.59V165H1417.87Z" fill="black"/>
</g>
<g id="baekun_hall_223">
<path d="M1426.97 75.7571C1428.11 71.4894 1425.58 67.1027 1421.31 65.9591L1359.05 49.2746C1354.78 48.131 1350.39 50.6637 1349.25 54.9314L1313.27 189.189C1312.13 193.457 1314.66 197.843 1318.93 198.987L1381.2 215.671C1385.47 216.815 1389.85 214.282 1391 210.015L1426.97 75.7571Z" fill="#F7FBFF"/>
<path d="M1319.71 196.089L1318.93 198.987L1381.2 215.671L1381.98 212.773L1319.71 196.089ZM1316.17 189.965L1352.15 55.708C1352.86 53.0406 1355.6 51.4577 1358.27 52.1724L1420.54 68.8569C1423.21 69.5716 1424.79 72.3133 1424.07 74.9806L1388.1 209.238C1387.38 211.905 1384.64 213.488 1381.98 212.773L1381.2 215.671C1385.47 216.815 1389.85 214.282 1391 210.015L1426.97 75.7571C1428.11 71.4894 1425.58 67.1027 1421.31 65.9591L1359.05 49.2746C1354.78 48.131 1350.39 50.6637 1349.25 54.9314L1313.27 189.189C1312.13 193.457 1314.66 197.843 1318.93 198.987L1319.71 196.089C1317.04 195.374 1315.46 192.632 1316.17 189.965Z" fill="#2E2F33" fill-opacity="0.88"/>
<path d="M1389.66 143.313C1384.81 143.313 1381.38 140.688 1381.28 136.875H1385.38C1385.5 138.688 1387.31 139.875 1389.66 139.875C1392.16 139.875 1393.94 138.5 1393.94 136.5C1393.94 134.469 1392.19 133 1389.25 133H1387.22V129.875H1389.25C1391.66 129.875 1393.34 128.532 1393.31 126.563C1393.34 124.657 1391.91 123.375 1389.69 123.375C1387.56 123.375 1385.72 124.563 1385.66 126.469H1381.75C1381.84 122.657 1385.28 120.063 1389.72 120.063C1394.31 120.063 1397.28 122.875 1397.25 126.344C1397.28 128.875 1395.59 130.719 1393.13 131.219V131.407C1396.31 131.844 1398.13 133.875 1398.09 136.719C1398.13 140.532 1394.56 143.313 1389.66 143.313Z" fill="black"/>
<path d="M1362.16 143V140.063L1370.16 132.344C1372.44 130.063 1373.63 128.719 1373.63 126.813C1373.63 124.719 1371.97 123.375 1369.75 123.375C1367.41 123.375 1365.91 124.844 1365.94 127.125H1362.06C1362.03 122.844 1365.25 120.063 1369.78 120.063C1374.41 120.063 1377.53 122.813 1377.53 126.625C1377.53 129.188 1376.28 131.25 1371.84 135.438L1367.81 139.438V139.594H1377.88V143H1362.16Z" fill="black"/>
<path d="M1342.88 143V140.063L1350.88 132.344C1353.16 130.063 1354.34 128.719 1354.34 126.813C1354.34 124.719 1352.69 123.375 1350.47 123.375C1348.13 123.375 1346.63 124.844 1346.66 127.125H1342.78C1342.75 122.844 1345.97 120.063 1350.5 120.063C1355.13 120.063 1358.25 122.813 1358.25 126.625C1358.25 129.188 1357 131.25 1352.56 135.438L1348.53 139.438V139.594H1358.59V143H1342.88Z" fill="black"/>
</g>
<g id="baekun_hall_2f_stairs_main">
<path d="M921.525 54.5481C920.22 51.1361 921.389 47.3181 924.56 45.5042C938.045 37.7902 977.216 19 1038.81 19C1100.29 19 1141.95 37.7225 1156.54 45.4623C1159.95 47.2729 1161.23 51.3433 1159.75 54.9123L1146.24 87.4402C1144.6 91.3901 1140.14 93.3511 1136.12 91.8919L1086.54 73.8944C1081.32 72.0009 1075.81 75.8647 1075.81 81.4144V130C1075.81 134.418 1072.23 138 1067.81 138H1009.81C1005.39 138 1001.81 134.418 1001.81 130V81.5648C1001.81 75.9734 996.218 72.1068 990.986 74.0789L944.257 91.6922C940.137 93.2451 935.536 91.1768 933.963 87.0644L921.525 54.5481Z" fill="#D9FFE6"/>
<path d="M1067.81 135L1067.81 138H1009.81L1009.81 135H1067.81ZM1072.81 130V81.4141C1072.81 73.7834 1080.39 68.4709 1087.56 71.0742L1137.15 89.0723C1139.66 89.9841 1142.44 88.7583 1143.47 86.29L1156.98 53.7617C1157.92 51.4985 1157.07 49.1366 1155.13 48.1123C1140.85 40.5353 1099.67 22 1038.81 22C977.845 22 939.185 40.595 926.05 48.1084C924.284 49.1184 923.499 51.3107 924.327 53.4766L936.766 85.9922C937.749 88.5625 940.624 89.8554 943.199 88.8848L989.928 71.2715C997.122 68.5599 1004.81 73.8765 1004.81 81.5645V130C1004.81 132.761 1007.05 135 1009.81 135L1009.81 138C1005.39 138 1001.81 134.418 1001.81 130V81.5648C1001.81 75.9734 996.218 72.1068 990.986 74.0789L944.257 91.6922L943.869 91.8271C939.982 93.0721 935.769 91.1781 934.12 87.4443L933.963 87.0644L921.525 54.5481C920.261 51.2428 921.318 47.5559 924.269 45.6797L924.56 45.5042C938.045 37.7902 977.216 19 1038.81 19C1100.29 19 1141.95 37.7225 1156.54 45.4623C1159.95 47.2729 1161.23 51.3433 1159.75 54.9123L1146.24 87.4402L1146.08 87.8047C1144.38 91.3897 1140.29 93.1875 1136.5 92.0186L1136.12 91.8919L1086.54 73.8944C1081.32 72.0009 1075.81 75.8647 1075.81 81.4144V130C1075.81 134.418 1072.23 138 1067.81 138L1067.81 135C1070.57 135 1072.81 132.761 1072.81 130Z" fill="#2E2F33" fill-opacity="0.88"/>
<path d="M1063.94 52.6345C1062.89 52.2475 1061.73 52.7875 1061.34 53.836L1057.58 64.0555H1036.28L1039.81 55.2895C1040.22 54.2515 1039.72 53.071 1038.68 52.654C1037.64 52.237 1036.47 52.7425 1036.05 53.7775L1016.43 102.581C1016.02 103.619 1016.52 104.8 1017.56 105.217C1017.8 105.316 1018.06 105.364 1018.31 105.364C1019.11 105.364 1019.87 104.884 1020.19 104.093L1024.22 94.0705C1024.31 94.0825 1024.38 94.1215 1024.47 94.1215H1046.52L1043.39 102.64C1043 103.688 1043.54 104.854 1044.59 105.238C1044.82 105.324 1045.06 105.364 1045.29 105.364C1046.11 105.364 1046.89 104.855 1047.19 104.036L1065.14 55.2325C1065.53 54.184 1064.99 53.0185 1063.94 52.6345ZM1035.07 68.104H1056.09L1052.85 76.9105H1031.11L1034.69 68.026C1034.82 68.0515 1034.94 68.104 1035.07 68.104ZM1025.83 90.0715L1029.51 80.9035C1029.61 80.917 1029.69 80.9605 1029.79 80.9605H1051.36L1048.01 90.0715H1025.83Z" fill="#6E4944"/>
</g>
<g id="baekun_hall_2f_stairs_right">
<path d="M2037.74 242.9C2038.88 238.632 2036.35 234.246 2032.08 233.102L1969.28 216.275C1965.01 215.131 1960.62 217.664 1959.48 221.931L1929.27 334.659C1928.13 338.926 1930.66 343.313 1934.93 344.457L1997.73 361.284C2002 362.428 2006.39 359.895 2007.53 355.627L2037.74 242.9Z" fill="#D9FFE6"/>
<path d="M1935.71 341.559L1934.93 344.457L1997.73 361.284L1998.51 358.387L1935.71 341.559ZM1932.17 335.435L1962.38 222.708C1963.09 220.041 1965.83 218.458 1968.5 219.172L2031.3 236C2033.97 236.715 2035.55 239.456 2034.84 242.124L2004.63 354.851C2003.92 357.518 2001.18 359.101 1998.51 358.387L1997.73 361.284L1998.13 361.381C2002.14 362.239 2006.15 359.919 2007.41 356.022L2007.53 355.627L2037.74 242.9C2038.88 238.632 2036.35 234.246 2032.08 233.102L1969.28 216.275C1965.01 215.131 1960.62 217.664 1959.48 221.931L1929.27 334.659L1929.18 335.059C1928.32 339.064 1930.64 343.081 1934.54 344.34L1934.93 344.457L1935.71 341.559C1933.04 340.844 1931.46 338.103 1932.17 335.435Z" fill="#2E2F33" fill-opacity="0.88"/>
<path d="M2007.94 262.635C2006.89 262.248 2005.73 262.788 2005.34 263.837L2001.58 274.056H1980.28L1983.8 265.29C1984.22 264.252 1983.72 263.072 1982.68 262.655C1981.64 262.238 1980.46 262.743 1980.05 263.778L1960.43 312.582C1960.01 313.62 1960.52 314.801 1961.56 315.218C1961.8 315.317 1962.06 315.365 1962.31 315.365C1963.11 315.365 1963.87 314.885 1964.19 314.094L1968.22 304.071C1968.31 304.083 1968.38 304.122 1968.47 304.122H1990.52L1987.39 312.641C1987 313.689 1987.54 314.855 1988.59 315.239C1988.82 315.324 1989.05 315.365 1989.29 315.365C1990.11 315.365 1990.88 314.856 1991.19 314.037L2009.14 265.233C2009.53 264.185 2008.99 263.019 2007.94 262.635ZM1979.07 278.105H2000.09L1996.85 286.911H1975.11L1978.69 278.027C1978.82 278.052 1978.94 278.105 1979.07 278.105ZM1969.82 300.072L1973.51 290.904C1973.61 290.918 1973.69 290.961 1973.79 290.961H1995.36L1992.01 300.072H1969.82Z" fill="#6E4944"/>
</g>
<g id="baekun_hall_2f_stairs_left">
<path d="M9.27458 238.423C8.13104 234.155 10.6637 229.768 14.9314 228.625L83.4148 210.275C87.6825 209.131 92.0692 211.664 93.2128 215.931L123.418 328.659C124.561 332.926 122.029 337.313 117.761 338.457L49.2777 356.807C45.01 357.95 40.6233 355.418 39.4797 351.15L9.27458 238.423Z" fill="#D9FFE6"/>
<path d="M116.985 335.559L117.761 338.457L49.2777 356.807L48.5013 353.909L116.985 335.559ZM120.52 329.435L90.3152 216.708C89.6005 214.041 86.8587 212.458 84.1915 213.172L15.7079 231.522C13.0406 232.237 11.4577 234.979 12.1724 237.646L42.3776 350.374C43.0924 353.041 45.8341 354.624 48.5013 353.909L49.2777 356.807L48.8769 356.903C44.8721 357.761 40.8555 355.442 39.5966 351.544L39.4797 351.15L9.27458 238.423C8.13104 234.155 10.6637 229.768 14.9314 228.625L83.4148 210.275L83.8149 210.178C87.9534 209.291 92.1049 211.797 93.2128 215.931L123.418 328.659L123.514 329.059C124.373 333.064 122.054 337.081 118.156 338.34L117.761 338.457L116.985 335.559C119.652 334.844 121.235 332.103 120.52 329.435Z" fill="#2E2F33" fill-opacity="0.88"/>
<path d="M89.9409 256.634C88.8924 256.247 87.7284 256.787 87.3414 257.836L83.5809 268.055H62.2824L65.8059 259.289C66.2229 258.251 65.7204 257.071 64.6824 256.654C63.6444 256.237 62.4654 256.742 62.0484 257.777L42.4329 306.581C42.0159 307.619 42.5184 308.8 43.5564 309.217C43.8039 309.316 44.0589 309.364 44.3109 309.364C45.1134 309.364 45.8739 308.884 46.1904 308.093L50.2194 298.07C50.3064 298.082 50.3829 298.121 50.4729 298.121H72.5199L69.3864 306.64C69.0009 307.688 69.5379 308.854 70.5879 309.238C70.8189 309.323 71.0559 309.364 71.2869 309.364C72.1104 309.364 72.8859 308.855 73.1874 308.036L91.1424 259.232C91.5279 258.184 90.9909 257.018 89.9409 256.634ZM61.0749 272.104H82.0899L78.8499 280.91H57.1149L60.6864 272.026C60.8169 272.051 60.9369 272.104 61.0749 272.104ZM51.8259 294.071L55.5114 284.903C55.6074 284.917 55.6944 284.96 55.7949 284.96H77.3619L74.0094 294.071H51.8259Z" fill="#6E4944"/>
</g>
<g id="baekun_hall_2f_toilet_boy">
<path d="M722.275 45.4344C721.131 41.1667 723.664 36.7799 727.931 35.6364L796.459 17.2746C800.726 16.131 805.113 18.6637 806.257 22.9314L842.895 159.666C844.038 163.934 841.506 168.321 837.238 169.464L768.711 187.826C764.443 188.97 760.056 186.437 758.913 182.169L722.275 45.4344Z" fill="#FED9C4"/>
<path d="M836.461 166.567L837.238 169.464L768.711 187.826L767.934 184.929L836.461 166.567ZM839.997 160.443L803.359 23.708C802.644 21.0407 799.902 19.4577 797.235 20.1724L728.708 38.5342C726.041 39.2489 724.458 41.9906 725.172 44.6579L761.81 181.393C762.525 184.06 765.267 185.643 767.934 184.929L768.711 187.826L768.31 187.923C764.305 188.781 760.288 186.461 759.029 182.564L758.913 182.169L722.275 45.4344C721.167 41.3002 723.509 37.0546 727.536 35.7534L727.931 35.6364L796.459 17.2746C800.726 16.131 805.113 18.6637 806.257 22.9314L842.895 159.666L842.991 160.066C843.85 164.071 841.53 168.088 837.633 169.348L837.238 169.464L836.461 166.567C839.128 165.852 840.711 163.11 839.997 160.443Z" fill="#2E2F33" fill-opacity="0.88"/>
<path d="M795.751 78.2499H770.251C763.623 78.2499 758.251 83.6225 758.251 90.2499V115.75C758.251 122.377 763.623 127.75 770.251 127.75H795.751C802.378 127.75 807.751 122.377 807.751 115.75V90.2499C807.751 83.6225 802.378 78.2499 795.751 78.2499Z" fill="#3076D1"/>
<path d="M785.726 115.889L791.192 103.342C792.047 101.378 790.609 99.1809 788.467 99.1809H777.536C775.394 99.1809 773.954 101.378 774.811 103.342L780.277 115.889C781.315 118.271 784.691 118.271 785.729 115.889H785.726Z" fill="white"/>
<path d="M783.001 96.3879C785.228 96.3879 787.033 94.5827 787.033 92.3559C787.033 90.1291 785.228 88.3239 783.001 88.3239C780.774 88.3239 778.969 90.1291 778.969 92.3559C778.969 94.5827 780.774 96.3879 783.001 96.3879Z" fill="white"/>
</g>
<g id="baekun_hall_2f_toilet_girl">
<path d="M1352.15 54.5838C1353.29 50.2989 1350.74 45.8978 1346.44 44.7742L1271.93 25.2626C1267.76 24.1724 1263.48 26.5719 1262.24 30.6929L1235.34 119.926C1234.04 124.242 1236.56 128.781 1240.92 129.958L1280.64 140.695C1284.95 141.858 1287.47 146.315 1286.25 150.604L1278.18 179.018C1276.96 183.305 1279.48 187.761 1283.78 188.926L1306.22 194.999C1310.49 196.156 1314.89 193.623 1316.04 189.348L1352.15 54.5838Z" fill="#FED9C4"/>
<path d="M1316.04 189.348L1352.15 54.5838C1353.29 50.2989 1350.74 45.8978 1346.44 44.7742L1271.93 25.2626C1267.76 24.1724 1263.48 26.5719 1262.24 30.6929L1235.34 119.926C1234.04 124.242 1236.56 128.781 1240.92 129.958L1280.64 140.695C1284.95 141.858 1287.47 146.315 1286.25 150.604L1278.18 179.018C1276.96 183.305 1279.48 187.761 1283.78 188.926L1306.22 194.999L1307 192.103L1284.57 186.03C1281.88 185.301 1280.3 182.517 1281.07 179.838L1289.14 151.424C1290.81 145.527 1287.34 139.398 1281.43 137.799L1241.7 127.061C1238.98 126.326 1237.4 123.49 1238.21 120.792L1265.11 31.5588C1265.89 28.9833 1268.56 27.4839 1271.17 28.1652L1345.68 47.6764C1348.37 48.3788 1349.97 51.1294 1349.25 53.8075L1313.14 188.571C1312.42 191.243 1309.67 192.826 1307 192.103L1306.22 194.999C1310.49 196.156 1314.89 193.623 1316.04 189.348Z" fill="#2E2F33" fill-opacity="0.88"/>
<path d="M1306.75 75.2497H1281.25C1274.62 75.2497 1269.25 80.6223 1269.25 87.2497V112.75C1269.25 119.377 1274.62 124.75 1281.25 124.75H1306.75C1313.38 124.75 1318.75 119.377 1318.75 112.75V87.2497C1318.75 80.6223 1313.38 75.2497 1306.75 75.2497Z" fill="#E76D6D"/>
<path d="M1291.27 97.9762L1285.81 110.524C1284.95 112.487 1286.39 114.685 1288.53 114.685H1299.46C1301.61 114.685 1303.05 112.487 1302.19 110.524L1296.72 97.9762C1295.69 95.5942 1292.31 95.5942 1291.27 97.9762H1291.27Z" fill="white"/>
<path d="M1294 93.3802C1296.23 93.3802 1298.03 91.575 1298.03 89.3482C1298.03 87.1214 1296.23 85.3162 1294 85.3162C1291.77 85.3162 1289.97 87.1214 1289.97 89.3482C1289.97 91.575 1291.77 93.3802 1294 93.3802Z" fill="white"/>
</g>
<g id="baekun_hall_2f_elevator">
<path d="M1289.1 148.763C1290.24 144.496 1287.71 140.109 1283.44 138.965L1240.79 127.536C1236.52 126.393 1232.14 128.925 1230.99 133.193L1222.96 163.163C1221.82 167.43 1224.35 171.817 1228.62 172.961L1271.27 184.39C1275.54 185.533 1279.93 183.001 1281.07 178.733L1289.1 148.763Z" fill="#C4C4C4"/>
<path d="M1229.4 170.062L1228.62 172.961L1271.27 184.39L1272.05 181.492L1229.4 170.062ZM1225.86 163.939L1233.89 133.97C1234.6 131.302 1237.35 129.72 1240.01 130.434L1282.67 141.863C1285.34 142.578 1286.92 145.32 1286.2 147.987L1278.17 177.956C1277.46 180.623 1274.72 182.206 1272.05 181.492L1271.27 184.39L1271.67 184.487C1275.81 185.373 1279.96 182.867 1281.07 178.733L1289.1 148.763C1290.21 144.629 1287.87 140.384 1283.84 139.082L1283.44 138.965L1240.79 127.536L1240.39 127.44C1236.25 126.553 1232.1 129.059 1230.99 133.193L1222.96 163.163L1222.87 163.563C1222.01 167.568 1224.33 171.585 1228.22 172.844L1228.62 172.961L1229.4 170.062C1226.73 169.348 1225.14 166.606 1225.86 163.939Z" fill="#2E2F33" fill-opacity="0.88"/>
<path d="M1264.93 138.674H1247.08C1242.44 138.674 1238.68 142.435 1238.68 147.074V164.924C1238.68 169.563 1242.44 173.324 1247.08 173.324H1264.93C1269.56 173.324 1273.33 169.563 1273.33 164.924V147.074C1273.33 142.435 1269.56 138.674 1264.93 138.674ZM1256.86 145.443H1257.83C1257.92 145.443 1258 145.366 1258 145.269V143.126C1258 143.044 1258.07 142.978 1258.15 142.978H1259.74C1259.82 142.978 1259.89 143.044 1259.89 143.126V145.269C1259.89 145.366 1259.96 145.443 1260.06 145.443H1261.03C1261.17 145.443 1261.24 145.611 1261.14 145.71L1259.16 147.691C1259.04 147.81 1258.85 147.81 1258.73 147.691L1256.75 145.71C1256.65 145.611 1256.72 145.443 1256.86 145.443ZM1250.4 145.048L1252.38 143.067C1252.5 142.948 1252.69 142.948 1252.8 143.067L1254.79 145.048C1254.88 145.147 1254.81 145.315 1254.68 145.315H1253.71C1253.61 145.315 1253.53 145.393 1253.53 145.489V147.632C1253.53 147.714 1253.47 147.781 1253.38 147.781H1251.8C1251.71 147.781 1251.65 147.714 1251.65 147.632V145.489C1251.65 145.393 1251.57 145.315 1251.47 145.315H1250.5C1250.36 145.315 1250.3 145.147 1250.4 145.048ZM1268.84 163.844C1268.84 166.377 1266.78 168.437 1264.25 168.437H1247.75C1245.22 168.437 1243.16 166.377 1243.16 163.844V153.932C1243.16 151.4 1245.22 149.34 1247.75 149.34H1264.25C1266.78 149.34 1268.84 151.4 1268.84 153.932V163.844Z" fill="#4592FB"/>
<path d="M1264.25 150.152H1247.75C1245.66 150.152 1243.97 151.848 1243.97 153.932V163.844C1243.97 165.929 1245.66 167.626 1247.75 167.626H1264.25C1266.34 167.626 1268.03 165.93 1268.03 163.844V153.932C1268.03 151.848 1266.34 150.152 1264.25 150.152ZM1262.39 152.576C1262.93 152.576 1263.36 153.008 1263.36 153.542C1263.36 154.075 1262.93 154.508 1262.39 154.508C1261.86 154.508 1261.43 154.075 1261.43 153.542C1261.43 153.008 1261.86 152.576 1262.39 152.576ZM1255.89 152.576C1256.42 152.576 1256.85 153.008 1256.85 153.542C1256.85 154.075 1256.42 154.508 1255.89 154.508C1255.35 154.508 1254.92 154.075 1254.92 153.542C1254.92 153.008 1255.35 152.576 1255.89 152.576ZM1249.38 152.576C1249.92 152.576 1250.35 153.008 1250.35 153.542C1250.35 154.075 1249.92 154.508 1249.38 154.508C1248.85 154.508 1248.42 154.075 1248.42 153.542C1248.42 153.008 1248.85 152.576 1249.38 152.576ZM1252.18 159.427C1252.18 159.73 1251.94 159.975 1251.63 159.975C1251.33 159.975 1251.09 159.73 1251.09 159.427V156.555H1250.8V164.469C1250.8 164.8 1250.53 165.068 1250.2 165.068C1249.87 165.068 1249.6 164.8 1249.6 164.469V159.917H1249.16V164.469C1249.16 164.8 1248.89 165.068 1248.56 165.068C1248.23 165.068 1247.96 164.8 1247.96 164.469V156.555H1247.6V159.427C1247.6 159.73 1247.35 159.975 1247.05 159.975C1246.75 159.975 1246.5 159.73 1246.5 159.427V156.042C1246.5 155.436 1246.99 154.946 1247.6 154.946H1251.08C1251.69 154.946 1252.18 155.436 1252.18 156.042V159.427H1252.18ZM1258.69 159.427C1258.69 159.73 1258.44 159.975 1258.14 159.975C1257.84 159.975 1257.59 159.73 1257.59 159.427V156.555H1257.3V164.469C1257.3 164.8 1257.04 165.068 1256.71 165.068C1256.37 165.068 1256.11 164.8 1256.11 164.469V159.917H1255.67V164.469C1255.67 164.8 1255.4 165.068 1255.07 165.068C1254.74 165.068 1254.47 164.8 1254.47 164.469V156.555H1254.1V159.427C1254.1 159.73 1253.86 159.975 1253.55 159.975C1253.25 159.975 1253.01 159.73 1253.01 159.427V156.042C1253.01 155.436 1253.5 154.946 1254.1 154.946H1257.59C1258.2 154.946 1258.69 155.436 1258.69 156.042L1258.69 159.427ZM1265.19 159.427C1265.19 159.73 1264.95 159.975 1264.64 159.975C1264.34 159.975 1264.1 159.73 1264.1 159.427V156.555H1263.81V164.469C1263.81 164.8 1263.54 165.068 1263.21 165.068C1262.88 165.068 1262.61 164.8 1262.61 164.469V159.917H1262.17V164.469C1262.17 164.8 1261.9 165.068 1261.57 165.068C1261.24 165.068 1260.97 164.8 1260.97 164.469V156.555H1260.61V159.427C1260.61 159.73 1260.36 159.975 1260.06 159.975C1259.75 159.975 1259.51 159.73 1259.51 159.427V156.042C1259.51 155.436 1260 154.946 1260.61 154.946H1264.09C1264.7 154.946 1265.19 155.436 1265.19 156.042V159.427H1265.19Z" fill="#4592FB"/>
<path d="M1255.89 154.508C1256.42 154.508 1256.85 154.075 1256.85 153.542C1256.85 153.008 1256.42 152.576 1255.89 152.576C1255.35 152.576 1254.92 153.008 1254.92 153.542C1254.92 154.075 1255.35 154.508 1255.89 154.508Z" fill="white"/>
<path d="M1249.38 154.508C1249.92 154.508 1250.35 154.075 1250.35 153.542C1250.35 153.008 1249.92 152.576 1249.38 152.576C1248.85 152.576 1248.42 153.008 1248.42 153.542C1248.42 154.075 1248.85 154.508 1249.38 154.508Z" fill="white"/>
<path d="M1262.39 154.508C1262.93 154.508 1263.36 154.075 1263.36 153.542C1263.36 153.008 1262.93 152.576 1262.39 152.576C1261.86 152.576 1261.43 153.008 1261.43 153.542C1261.43 154.075 1261.86 154.508 1262.39 154.508Z" fill="white"/>
<path d="M1264.25 149.342H1247.75C1245.22 149.342 1243.16 151.4 1243.16 153.93V163.842C1243.16 166.373 1245.22 168.441 1247.75 168.441H1264.25C1266.78 168.441 1268.84 166.373 1268.84 163.842V153.93C1268.84 151.4 1266.78 149.342 1264.25 149.342ZM1268.03 163.842C1268.03 165.932 1266.33 167.622 1264.25 167.622H1247.75C1245.67 167.622 1243.97 165.932 1243.97 163.842V153.93C1243.97 151.851 1245.67 150.15 1247.75 150.15H1264.25C1266.33 150.15 1268.03 151.851 1268.03 153.93V163.842Z" fill="white"/>
<path d="M1265.19 156.041V159.422C1265.19 159.726 1264.95 159.978 1264.64 159.978C1264.34 159.978 1264.1 159.726 1264.1 159.422V156.555H1263.81V164.472C1263.81 164.798 1263.54 165.071 1263.21 165.071C1262.88 165.071 1262.61 164.798 1262.61 164.472V159.915H1262.17V164.472C1262.17 164.798 1261.9 165.071 1261.58 165.071C1261.24 165.071 1260.98 164.798 1260.98 164.472V156.555H1260.61V159.422C1260.61 159.726 1260.36 159.978 1260.06 159.978C1259.76 159.978 1259.51 159.726 1259.51 159.422V156.041C1259.51 155.432 1260 154.949 1260.61 154.949H1264.1C1264.7 154.949 1265.19 155.432 1265.19 156.041Z" fill="white"/>
<path d="M1252.18 156.041V159.422C1252.18 159.726 1251.94 159.978 1251.63 159.978C1251.33 159.978 1251.09 159.726 1251.09 159.422L1251.09 156.555H1250.8V164.472C1250.8 164.798 1250.53 165.071 1250.2 165.071C1249.87 165.071 1249.61 164.798 1249.61 164.472V159.915H1249.16V164.472C1249.16 164.798 1248.89 165.071 1248.57 165.071C1248.23 165.071 1247.97 164.798 1247.97 164.472V156.555H1247.6V159.422C1247.6 159.726 1247.35 159.978 1247.05 159.978C1246.75 159.978 1246.5 159.726 1246.5 159.422V156.041C1246.5 155.432 1246.99 154.949 1247.6 154.949H1251.09C1251.69 154.949 1252.18 155.432 1252.18 156.041Z" fill="white"/>
<path d="M1258.69 156.041V159.422C1258.69 159.726 1258.45 159.978 1258.14 159.978C1257.84 159.978 1257.6 159.726 1257.6 159.422V156.555H1257.3V164.472C1257.3 164.798 1257.04 165.071 1256.7 165.071C1256.38 165.071 1256.1 164.798 1256.1 164.472V159.915H1255.66V164.472C1255.66 164.798 1255.4 165.071 1255.07 165.071C1254.74 165.071 1254.47 164.798 1254.47 164.472V156.555H1254.1V159.422C1254.1 159.726 1253.86 159.978 1253.55 159.978C1253.25 159.978 1253.01 159.726 1253.01 159.422V156.041C1253.01 155.432 1253.5 154.949 1254.1 154.949H1257.6C1258.19 154.949 1258.69 155.432 1258.69 156.041Z" fill="white"/>
<path d="M1250.51 145.315H1251.47C1251.57 145.315 1251.65 145.393 1251.65 145.49V147.633C1251.65 147.715 1251.71 147.781 1251.8 147.781H1253.39C1253.47 147.781 1253.53 147.715 1253.53 147.633V145.49C1253.53 145.393 1253.61 145.315 1253.71 145.315H1254.68C1254.82 145.315 1254.89 145.146 1254.79 145.049L1252.81 143.067C1252.69 142.949 1252.5 142.949 1252.38 143.067L1250.4 145.049C1250.3 145.147 1250.37 145.315 1250.51 145.315Z" fill="white"/>
<path d="M1258.73 147.691C1258.85 147.81 1259.04 147.81 1259.16 147.691L1261.14 145.71C1261.24 145.611 1261.16 145.443 1261.03 145.443H1260.06C1259.96 145.443 1259.88 145.366 1259.88 145.269V143.126C1259.88 143.044 1259.82 142.978 1259.73 142.978H1258.15C1258.06 142.978 1258 143.044 1258 143.126V145.269C1258 145.366 1257.92 145.443 1257.82 145.443H1256.85C1256.72 145.443 1256.65 145.611 1256.74 145.71L1258.73 147.691Z" fill="white"/>
</g>
<g id="baekun_hall_212">
<path d="M174.275 194.862C173.131 190.594 175.664 186.207 179.931 185.064L347.086 140.275C351.354 139.131 355.741 141.664 356.884 145.931L393.265 281.705C394.408 285.973 391.876 290.36 387.608 291.503L220.453 336.292C216.185 337.436 211.799 334.903 210.655 330.635L174.275 194.862Z" fill="#F7FBFF"/>
<path d="M386.832 288.605L387.608 291.503L220.453 336.292L219.677 333.394L386.832 288.605ZM390.367 282.482L353.987 146.708C353.272 144.041 350.53 142.458 347.863 143.172L180.708 187.961C178.124 188.654 176.558 191.249 177.112 193.835L177.172 194.085L213.553 329.859C214.268 332.526 217.009 334.109 219.677 333.394L220.453 336.292L220.052 336.389C216.047 337.247 212.031 334.927 210.772 331.03L210.655 330.635L174.275 194.862C173.167 190.727 175.509 186.482 179.536 185.181L179.931 185.064L347.086 140.275L347.487 140.178C351.625 139.291 355.776 141.797 356.884 145.931L393.265 281.705L393.361 282.105C394.22 286.11 391.9 290.127 388.003 291.386L387.608 291.503L386.832 288.605C389.499 287.891 391.082 285.149 390.367 282.482Z" fill="#2E2F33" fill-opacity="0.88"/>
<path d="M291.845 248.999V246.062L299.845 238.343C302.126 236.062 303.313 234.718 303.313 232.812C303.313 230.718 301.657 229.374 299.438 229.374C297.095 229.374 295.595 230.843 295.626 233.124H291.751C291.72 228.843 294.938 226.062 299.47 226.062C304.095 226.062 307.22 228.812 307.22 232.624C307.22 235.187 305.97 237.249 301.532 241.437L297.501 245.437V245.593H307.563V248.999H291.845Z" fill="black"/>
<path d="M286.345 226.374V248.999H282.251V230.343H282.126L276.845 233.718V229.999L282.438 226.374H286.345Z" fill="black"/>
<path d="M257.876 248.999V246.062L265.876 238.343C268.157 236.062 269.345 234.718 269.345 232.812C269.345 230.718 267.688 229.374 265.47 229.374C263.126 229.374 261.626 230.843 261.657 233.124H257.782C257.751 228.843 260.97 226.062 265.501 226.062C270.126 226.062 273.251 228.812 273.251 232.624C273.251 235.187 272.001 237.249 267.563 241.437L263.532 245.437V245.593H273.595V248.999H257.876Z" fill="black"/>
</g>
<g id="baekun_hall_213">
<path d="M353.275 146.903C352.131 142.635 354.664 138.248 358.931 137.105L548.632 86.2746C552.899 85.131 557.286 87.6637 558.43 91.9314L594.81 227.705C595.954 231.973 593.421 236.36 589.153 237.503L399.453 288.333C395.185 289.477 390.799 286.944 389.655 282.676L353.275 146.903Z" fill="#F7FBFF"/>
<path d="M588.377 234.605L589.153 237.503L399.453 288.333L398.677 285.436L588.377 234.605ZM591.913 228.482L555.532 92.7078C554.818 90.0406 552.076 88.4578 549.409 89.1723L359.708 140.002C357.124 140.695 355.558 143.29 356.112 145.876L356.172 146.126L392.553 281.9C393.268 284.567 396.009 286.15 398.677 285.436L399.453 288.333L399.052 288.43C395.047 289.288 391.031 286.968 389.772 283.071L389.655 282.676L353.275 146.903C352.131 142.635 354.664 138.248 358.931 137.105L548.632 86.2746L549.032 86.1784C553.17 85.2913 557.322 87.797 558.43 91.9314L594.81 227.705L594.907 228.105C595.765 232.11 593.446 236.127 589.548 237.386L589.153 237.503L588.377 234.605C591.044 233.891 592.627 231.149 591.913 228.482Z" fill="#2E2F33" fill-opacity="0.88"/>
<path d="M491.063 198.312C486.219 198.312 482.782 195.687 482.688 191.875H486.782C486.907 193.687 488.719 194.875 491.063 194.875C493.563 194.875 495.344 193.5 495.344 191.5C495.344 189.468 493.594 188 490.657 188H488.625V184.875H490.657C493.063 184.875 494.75 183.531 494.719 181.562C494.75 179.656 493.313 178.375 491.094 178.375C488.969 178.375 487.125 179.562 487.063 181.468H483.157C483.25 177.656 486.688 175.062 491.125 175.062C495.719 175.062 498.688 177.875 498.657 181.343C498.688 183.875 497 185.718 494.532 186.218V186.406C497.719 186.843 499.532 188.875 499.5 191.718C499.532 195.531 495.969 198.312 491.063 198.312Z" fill="black"/>
<path d="M477.344 175.375V198H473.25V179.343H473.125L467.844 182.718V179L473.438 175.375H477.344Z" fill="black"/>
<path d="M448.875 198V195.062L456.875 187.343C459.157 185.062 460.344 183.718 460.344 181.812C460.344 179.718 458.688 178.375 456.469 178.375C454.125 178.375 452.625 179.843 452.657 182.125H448.782C448.75 177.843 451.969 175.062 456.5 175.062C461.125 175.062 464.25 177.812 464.25 181.625C464.25 184.187 463 186.25 458.563 190.437L454.532 194.437V194.593H464.594V198H448.875Z" fill="black"/>
</g>
</g>
</svg>
