<svg width="2048" height="852" viewBox="0 0 2048 852" fill="none" xmlns="http://www.w3.org/2000/svg">
<g id="baekun_hall_floor_1">
<g id="Vector">
<path d="M92.5029 847.502L4.00293 521.002L795.003 309.002L786.003 274.002L825.503 265.002L773.003 42.0024C773.003 42.0024 841.503 3 1040.5 3C1239.5 3 1308.5 42.0024 1308.5 42.0024L1255 264.502L1287.5 273.002L1273 315.502L2043.5 525.002L1958 843.002L1195 636.002V651.999H881.003V632.002L92.5029 847.502Z" fill="#999999"/>
<path d="M1040.5 0C1140.2 0 1207.43 9.76916 1249.8 19.5781C1270.99 24.4827 1285.97 29.3975 1295.68 33.1055C1300.54 34.9594 1304.08 36.512 1306.42 37.6104C1307.59 38.1594 1308.47 38.5953 1309.05 38.8984C1309.35 39.0499 1309.57 39.1681 1309.72 39.251C1309.8 39.2924 1309.86 39.3252 1309.9 39.3486C1309.92 39.3603 1309.94 39.3699 1309.95 39.377C1309.96 39.3804 1309.97 39.3834 1309.97 39.3857C1309.97 39.3869 1309.97 39.3881 1309.98 39.3887C1309.98 39.3919 1309.94 39.4652 1308.5 42.0024L1309.98 39.3906L1311.95 40.5039L1258.61 262.344L1291.38 270.917L1276.87 313.445L2047.18 522.893L1960.12 846.686L1198 639.924V654.999H878.003V635.932L90.3936 851.188L0.320312 518.884L791.357 306.873L782.329 271.763L821.89 262.748L769.568 40.5059L771.519 39.3955L773.003 42.0024C771.586 39.5142 771.523 39.3999 771.522 39.3936C771.523 39.393 771.526 39.3908 771.528 39.3896C771.533 39.3873 771.538 39.3843 771.544 39.3809C771.557 39.3738 771.574 39.3642 771.595 39.3525C771.637 39.3291 771.696 39.2963 771.772 39.2549C771.925 39.1718 772.146 39.0529 772.438 38.9014C773.023 38.598 773.891 38.1627 775.056 37.6133C777.386 36.5145 780.908 34.9617 785.741 33.1074C795.408 29.3988 810.322 24.4839 831.449 19.5791C873.703 9.76967 940.809 0 1040.5 0ZM1040.5 6C941.197 6 874.553 15.7321 832.807 25.4238C811.934 30.2696 797.285 35.1047 787.89 38.709C783.192 40.5111 779.807 42.0059 777.614 43.04C777.184 43.2431 776.8 43.4302 776.46 43.5967L829.115 267.256L789.676 276.242L798.648 311.132L7.68457 523.121L94.6113 843.815L884.003 628.072V648.999H1192V632.08L1955.89 839.319L2039.83 527.112L1269.13 317.559L1283.62 275.088L1251.4 266.661L1305.03 43.5977C1304.69 43.4317 1304.31 43.2452 1303.88 43.043C1301.67 42.0084 1298.26 40.5134 1293.54 38.7109C1284.1 35.106 1269.39 30.2698 1248.45 25.4238C1206.58 15.7316 1139.81 6 1040.5 6Z" fill="black"/>
</g>
<g id="Vector_2">
<path d="M1530.2 599.322C1531.35 595.054 1528.81 590.667 1524.55 589.524L1460.17 572.275C1455.9 571.131 1451.52 573.664 1450.37 577.931L1421.27 686.531C1420.13 690.799 1422.66 695.186 1426.93 696.329L1491.31 713.578C1495.57 714.722 1499.96 712.189 1501.1 707.921L1530.2 599.322Z" fill="#F7FBFF"/>
<path d="M1427.71 693.431L1426.93 696.329L1491.31 713.578L1492.08 710.68L1427.71 693.431ZM1424.17 687.308L1453.27 578.708C1453.99 576.041 1456.73 574.458 1459.4 575.172L1523.77 592.421C1526.44 593.136 1528.02 595.878 1527.3 598.545L1498.21 707.145C1497.49 709.812 1494.75 711.395 1492.08 710.68L1491.31 713.578L1491.71 713.674C1495.84 714.561 1500 712.056 1501.1 707.921L1530.2 599.322C1531.31 595.187 1528.97 590.942 1524.94 589.641L1524.55 589.524L1460.17 572.275C1455.9 571.131 1451.52 573.664 1450.37 577.931L1421.27 686.531C1420.13 690.799 1422.66 695.186 1426.93 696.329L1427.71 693.431C1425.04 692.717 1423.46 689.975 1424.17 687.308Z" fill="#2E2F33" fill-opacity="0.88"/>
</g>
<g id="Vector_3">
<path d="M668.571 444.52C667.428 440.252 669.961 435.866 674.228 434.722L738.235 417.571C742.503 416.428 746.89 418.961 748.033 423.228L761.74 474.382C762.883 478.65 760.351 483.037 756.083 484.18L692.076 501.331C687.808 502.474 683.422 499.942 682.278 495.674L668.571 444.52Z" fill="#F7FBFF"/>
<path d="M755.306 481.282L756.083 484.18L692.076 501.331L691.299 498.433L755.306 481.282ZM758.842 475.158L745.135 424.005C744.421 421.338 741.679 419.755 739.011 420.469L675.005 437.62C672.337 438.335 670.755 441.076 671.469 443.744L685.176 494.897C685.89 497.564 688.632 499.147 691.299 498.433L692.076 501.331C687.808 502.474 683.422 499.942 682.278 495.674L668.571 444.52C667.428 440.252 669.961 435.866 674.228 434.722L738.235 417.571C742.503 416.428 746.89 418.961 748.033 423.228L761.74 474.382C762.883 478.65 760.351 483.037 756.083 484.18L755.306 481.282C757.974 480.567 759.556 477.826 758.842 475.158Z" fill="#2E2F33" fill-opacity="0.88"/>
</g>
<g id="baekun_hall_111">
<path d="M90.2746 508.598C89.131 504.33 91.6637 499.943 95.9314 498.8L321.814 438.275C326.082 437.131 330.468 439.664 331.612 443.931L368.328 580.96C369.472 585.227 366.939 589.614 362.672 590.758L136.789 651.283C132.521 652.426 128.135 649.894 126.991 645.626L90.2746 508.598Z" fill="#F7FBFF"/>
<path d="M361.895 587.86L362.672 590.758L136.789 651.283L136.013 648.385L361.895 587.86ZM365.431 581.736L328.714 444.708C327.999 442.041 325.258 440.458 322.59 441.172L96.7079 501.697C94.0406 502.412 92.4577 505.154 93.1724 507.821L129.889 644.849C130.604 647.517 133.345 649.1 136.013 648.385L136.789 651.283L136.388 651.379C132.383 652.237 128.367 649.918 127.108 646.02L126.991 645.626L90.2746 508.598C89.131 504.33 91.6637 499.943 95.9314 498.8L321.814 438.275C326.082 437.131 330.468 439.664 331.612 443.931L368.328 580.96L368.425 581.36C369.283 585.364 366.964 589.381 363.067 590.641L362.672 590.758L361.895 587.86C364.562 587.145 366.145 584.403 365.431 581.736Z" fill="#2E2F33" fill-opacity="0.88"/>
<path d="M247.438 532.374V554.999H243.345V536.343H243.22L237.938 539.718V535.999L243.532 532.374H247.438Z" fill="black"/>
<path d="M232.751 532.374V554.999H228.657V536.343H228.532L223.251 539.718V535.999L228.845 532.374H232.751Z" fill="black"/>
<path d="M218.063 532.374V554.999H213.97V536.343H213.845L208.563 539.718V535.999L214.157 532.374H218.063Z" fill="black"/>
</g>
<g id="baekun_hall_115">
<path d="M329.275 446.004C328.131 441.736 330.664 437.35 334.931 436.206L480.226 397.275C484.493 396.131 488.88 398.664 490.024 402.931L526.404 538.705C527.548 542.973 525.015 547.36 520.747 548.503L375.453 587.435C371.185 588.578 366.799 586.045 365.655 581.778L329.275 446.004Z" fill="#F7FBFF"/>
<path d="M519.971 545.605L520.747 548.503L375.453 587.435L374.677 584.537L519.971 545.605ZM523.506 539.482L487.126 403.708C486.411 401.041 483.669 399.458 481.002 400.172L335.708 439.104C333.041 439.819 331.458 442.56 332.172 445.228L368.553 581.001C369.268 583.668 372.009 585.251 374.677 584.537L375.453 587.435L375.052 587.531C371.047 588.389 367.031 586.07 365.772 582.172L365.655 581.778L329.275 446.004C328.167 441.87 330.509 437.624 334.536 436.323L334.931 436.206L480.226 397.275L480.626 397.179C484.764 396.291 488.916 398.797 490.024 402.931L526.404 538.705L526.5 539.105C527.359 543.11 525.039 547.127 521.142 548.386L520.747 548.503L519.971 545.605C522.638 544.891 524.221 542.149 523.506 539.482Z" fill="#2E2F33" fill-opacity="0.88"/>
<path d="M442.282 503.312C437.751 503.312 434.438 500.624 434.313 496.874H438.282C438.407 498.718 440.126 500.031 442.282 500.031C444.813 500.031 446.626 498.187 446.626 495.687C446.626 493.093 444.751 491.249 442.157 491.249C440.407 491.218 439.126 491.843 438.407 493.187H434.626L436.001 480.374H449.376V483.781H439.345L438.657 489.781H438.876C439.751 488.781 441.407 488.062 443.251 488.062C447.47 488.062 450.563 491.218 450.563 495.562C450.563 500.093 447.157 503.312 442.282 503.312Z" fill="black"/>
<path d="M428.751 480.374V502.999H424.657V484.343H424.532L419.251 487.718V483.999L424.845 480.374H428.751Z" fill="black"/>
<path d="M414.063 480.374V502.999H409.97V484.343H409.845L404.563 487.718V483.999L410.157 480.374H414.063Z" fill="black"/>
</g>
<g id="baekun_hall_117">
<path d="M487.275 402.05C486.131 397.782 488.664 393.396 492.931 392.252L560.024 374.275C564.292 373.131 568.678 375.664 569.822 379.931L606.202 515.705C607.346 519.973 604.813 524.36 600.546 525.503L533.453 543.48C529.185 544.624 524.799 542.091 523.655 537.824L487.275 402.05Z" fill="#F7FBFF"/>
<path d="M599.769 522.606L600.546 525.503L533.453 543.48L532.677 540.583L599.769 522.606ZM603.304 516.482L566.924 380.708C566.209 378.041 563.467 376.458 560.8 377.172L493.708 395.15C491.041 395.864 489.458 398.606 490.172 401.274L526.553 537.047C527.268 539.715 530.009 541.298 532.677 540.583L533.453 543.48L533.052 543.577C529.047 544.435 525.031 542.116 523.772 538.218L523.655 537.824L487.275 402.05C486.131 397.782 488.664 393.396 492.931 392.252L560.024 374.275C564.292 373.131 568.678 375.664 569.822 379.931L606.202 515.705L606.299 516.105C607.158 520.11 604.838 524.127 600.941 525.386L600.546 525.503L599.769 522.606C602.436 521.891 604.019 519.149 603.304 516.482Z" fill="#2E2F33" fill-opacity="0.88"/>
<path d="M555.095 470L564.907 450.938V450.782H553.532V447.375H569.126V450.844L559.313 470H555.095Z" fill="black"/>
<path d="M548.751 447.375V470H544.657V451.344H544.532L539.251 454.719V451L544.845 447.375H548.751Z" fill="black"/>
<path d="M534.063 447.375V470H529.97V451.344H529.845L524.563 454.719V451L530.157 447.375H534.063Z" fill="black"/>
</g>
<g id="baekun_hall_118">
<path d="M567.275 380.337C566.131 376.069 568.664 371.682 572.931 370.539L715.735 332.275C720.002 331.131 724.389 333.664 725.533 337.931L744.903 410.223C746.047 414.491 743.514 418.877 739.246 420.021L596.443 458.285C592.175 459.429 587.789 456.896 586.645 452.628L567.275 380.337Z" fill="#F7FBFF"/>
<path d="M738.47 417.123L739.246 420.021L596.443 458.285L595.667 455.387L738.47 417.123ZM742.005 411L722.635 338.708C721.92 336.041 719.178 334.458 716.511 335.172L573.708 373.436C571.041 374.151 569.458 376.893 570.172 379.56L589.543 451.852C590.258 454.519 592.999 456.102 595.667 455.387L596.443 458.285L596.042 458.381C592.038 459.239 588.021 456.921 586.762 453.023L586.645 452.628L567.275 380.337C566.131 376.069 568.664 371.682 572.931 370.539L715.735 332.275L716.135 332.178C720.274 331.292 724.425 333.797 725.533 337.931L744.903 410.223L744.999 410.624C745.858 414.628 743.539 418.645 739.642 419.904L739.246 420.021L738.47 417.123C741.137 416.409 742.72 413.667 742.005 411Z" fill="#2E2F33" fill-opacity="0.88"/>
<path d="M670.47 406.312C665.438 406.312 661.876 403.625 661.876 399.937C661.876 397.062 664.001 394.719 666.72 394.281V394.156C664.345 393.656 662.72 391.594 662.72 389.125C662.72 385.625 666.001 383.062 670.47 383.062C674.907 383.062 678.188 385.625 678.188 389.125C678.188 391.594 676.532 393.656 674.188 394.156V394.281C676.907 394.719 679.063 397.062 679.063 399.937C679.063 403.625 675.47 406.312 670.47 406.312ZM670.47 403.094C673.126 403.094 674.876 401.656 674.876 399.562C674.876 397.437 673.001 395.875 670.47 395.875C667.907 395.875 666.032 397.437 666.063 399.562C666.032 401.656 667.782 403.094 670.47 403.094ZM670.47 392.844C672.657 392.844 674.22 391.469 674.22 389.5C674.22 387.594 672.688 386.25 670.47 386.25C668.22 386.25 666.688 387.562 666.688 389.5C666.688 391.469 668.251 392.844 670.47 392.844Z" fill="black"/>
<path d="M656.751 383.375V406H652.657V387.344H652.532L647.251 390.719V387L652.845 383.375H656.751Z" fill="black"/>
<path d="M642.063 383.375V406H637.97V387.344H637.845L632.563 390.719V387L638.157 383.375H642.063Z" fill="black"/>
</g>
<g id="baekun_hall_118-1">
<path d="M591.275 465.223C590.131 460.955 592.664 456.569 596.931 455.425L660.938 438.275C665.206 437.131 669.593 439.664 670.736 443.931L684.443 495.085C685.587 499.353 683.054 503.74 678.786 504.883L614.779 522.034C610.511 523.177 606.125 520.645 604.981 516.377L591.275 465.223Z" fill="#F7FBFF"/>
<path d="M678.009 501.985L678.786 504.883L614.779 522.034L614.003 519.136L678.009 501.985ZM681.545 495.861L667.838 444.708C667.124 442.041 664.382 440.458 661.715 441.172L597.708 458.323C595.041 459.038 593.458 461.779 594.172 464.447L607.879 515.6C608.594 518.268 611.335 519.85 614.003 519.136L614.779 522.034C610.511 523.177 606.125 520.645 604.981 516.377L591.275 465.223C590.131 460.955 592.664 456.569 596.931 455.425L660.938 438.275C665.206 437.131 669.593 439.664 670.736 443.931L684.443 495.085C685.587 499.353 683.054 503.74 678.786 504.883L678.009 501.985C680.677 501.27 682.26 498.529 681.545 495.861Z" fill="#2E2F33" fill-opacity="0.88"/>
<path d="M664.11 472.031V489H661.04V475.007H660.946L656.985 477.539V474.75L661.181 472.031H664.11Z" fill="black"/>
<path d="M654.313 479.297V481.757H646.673V479.297H654.313Z" fill="black"/>
<path d="M637.602 489.234C633.829 489.234 631.157 487.218 631.157 484.453C631.157 482.297 632.751 480.539 634.79 480.211V480.117C633.009 479.742 631.79 478.195 631.79 476.343C631.79 473.718 634.251 471.797 637.602 471.797C640.931 471.797 643.392 473.718 643.392 476.343C643.392 478.195 642.149 479.742 640.392 480.117V480.211C642.431 480.539 644.048 482.297 644.048 484.453C644.048 487.218 641.352 489.234 637.602 489.234ZM637.602 486.82C639.595 486.82 640.907 485.742 640.907 484.172C640.907 482.578 639.501 481.406 637.602 481.406C635.681 481.406 634.274 482.578 634.298 484.172C634.274 485.742 635.587 486.82 637.602 486.82ZM637.602 479.132C639.243 479.132 640.415 478.101 640.415 476.625C640.415 475.195 639.267 474.187 637.602 474.187C635.915 474.187 634.767 475.172 634.767 476.625C634.767 478.101 635.938 479.132 637.602 479.132Z" fill="black"/>
<path d="M627.313 472.031V489H624.243V475.007H624.149L620.188 477.539V474.75L624.384 472.031H627.313Z" fill="black"/>
<path d="M616.298 472.031V489H613.227V475.007H613.134L609.173 477.539V474.75L613.368 472.031H616.298Z" fill="black"/>
</g>
<g id="baekun_hall_103">
<path d="M457.275 619.414C456.131 615.147 458.664 610.76 462.931 609.616L688.13 549.275C692.398 548.131 696.785 550.664 697.928 554.931L727.027 663.531C728.171 667.799 725.638 672.186 721.371 673.329L496.172 733.671C491.904 734.815 487.517 732.282 486.374 728.014L457.275 619.414Z" fill="#F7FBFF"/>
<path d="M720.594 670.431L721.371 673.329L496.172 733.671L495.395 730.773L720.594 670.431ZM724.129 664.308L695.03 555.708C694.315 553.041 691.574 551.458 688.906 552.172L463.708 612.514C461.041 613.229 459.458 615.971 460.172 618.638L489.272 727.238C489.986 729.905 492.728 731.488 495.395 730.773L496.172 733.671C491.904 734.815 487.517 732.282 486.374 728.014L457.275 619.414C456.131 615.147 458.664 610.76 462.931 609.616L688.13 549.275C692.398 548.131 696.785 550.664 697.928 554.931L727.027 663.531C728.171 667.799 725.638 672.186 721.371 673.329L720.594 670.431C723.261 669.717 724.844 666.975 724.129 664.308Z" fill="#2E2F33" fill-opacity="0.88"/>
<path d="M609.22 653.312C604.376 653.312 600.938 650.687 600.845 646.874H604.938C605.063 648.687 606.876 649.874 609.22 649.874C611.72 649.874 613.501 648.499 613.501 646.499C613.501 644.468 611.751 642.999 608.813 642.999H606.782V639.874H608.813C611.22 639.874 612.907 638.531 612.876 636.562C612.907 634.656 611.47 633.374 609.251 633.374C607.126 633.374 605.282 634.562 605.22 636.468H601.313C601.407 632.656 604.845 630.062 609.282 630.062C613.876 630.062 616.845 632.874 616.813 636.343C616.845 638.874 615.157 640.718 612.688 641.218V641.406C615.876 641.843 617.688 643.874 617.657 646.718C617.688 650.531 614.126 653.312 609.22 653.312Z" fill="black"/>
<path d="M588.907 653.312C583.47 653.312 580.22 649.093 580.22 641.687C580.22 634.312 583.47 630.062 588.907 630.062C594.313 630.062 597.595 634.312 597.595 641.687C597.595 649.093 594.345 653.312 588.907 653.312ZM588.907 649.906C591.751 649.906 593.501 647.124 593.501 641.687C593.501 636.281 591.72 633.437 588.907 633.437C586.095 633.437 584.313 636.281 584.313 641.687C584.313 647.124 586.063 649.906 588.907 649.906Z" fill="black"/>
<path d="M575.063 630.374V652.999H570.97V634.343H570.845L565.563 637.718V633.999L571.157 630.374H575.063Z" fill="black"/>
</g>
<g id="baekun_hall_106">
<path d="M375.275 642.567C374.131 638.299 376.664 633.912 380.931 632.769L449.953 614.275C454.221 613.131 458.608 615.664 459.751 619.931L488.85 728.531C489.994 732.799 487.461 737.186 483.194 738.329L414.172 756.824C409.904 757.967 405.517 755.434 404.374 751.167L375.275 642.567Z" fill="#F7FBFF"/>
<path d="M482.417 735.431L483.194 738.329L414.172 756.824L413.395 753.926L482.417 735.431ZM485.953 729.307L456.854 620.708C456.139 618.041 453.397 616.458 450.73 617.172L381.708 635.667C379.041 636.381 377.458 639.123 378.172 641.79L407.272 750.39C407.986 753.057 410.728 754.64 413.395 753.926L414.172 756.824C409.904 757.967 405.517 755.434 404.374 751.167L375.275 642.567C374.131 638.299 376.664 633.912 380.931 632.769L449.953 614.275L450.354 614.178C454.492 613.291 458.643 615.797 459.751 619.931L488.85 728.531L488.947 728.932C489.805 732.937 487.486 736.953 483.588 738.212L483.194 738.329L482.417 735.431C485.085 734.716 486.668 731.975 485.953 729.307Z" fill="#2E2F33" fill-opacity="0.88"/>
<path d="M449.47 697.312C445.063 697.281 440.626 694.656 440.657 686.312C440.657 678.562 444.188 674.062 449.72 674.062C454.095 674.062 457.095 676.812 457.595 680.468H453.563C453.157 678.75 451.782 677.593 449.72 677.593C446.438 677.593 444.595 680.5 444.595 685.25H444.813C445.97 683.312 448.157 682.156 450.626 682.156C454.688 682.156 457.813 685.218 457.813 689.5C457.813 694 454.47 697.343 449.47 697.312ZM449.47 694.031C452.001 694.031 453.876 692.062 453.876 689.593C453.876 687.187 452.032 685.25 449.532 685.25C447.001 685.25 445.063 687.25 445.032 689.625C445.063 692 446.907 694.031 449.47 694.031Z" fill="black"/>
<path d="M428.907 697.312C423.47 697.312 420.22 693.093 420.22 685.687C420.22 678.312 423.47 674.062 428.907 674.062C434.313 674.062 437.595 678.312 437.595 685.687C437.595 693.093 434.345 697.312 428.907 697.312ZM428.907 693.906C431.751 693.906 433.501 691.125 433.501 685.687C433.501 680.281 431.72 677.437 428.907 677.437C426.095 677.437 424.313 680.281 424.313 685.687C424.313 691.125 426.063 693.906 428.907 693.906Z" fill="black"/>
<path d="M415.063 674.375V697H410.97V678.343H410.845L405.563 681.718V678L411.157 674.375H415.063Z" fill="black"/>
</g>
<g id="baekun_hall_107">
<path d="M296.275 662.536C295.131 658.268 297.664 653.881 301.931 652.738L367.106 635.275C371.373 634.131 375.76 636.664 376.903 640.931L406.003 749.531C407.146 753.799 404.614 758.186 400.346 759.329L335.172 776.793C330.904 777.936 326.517 775.403 325.374 771.136L296.275 662.536Z" fill="#F7FBFF"/>
<path d="M399.57 756.431L400.346 759.329L335.172 776.793L334.395 773.895L399.57 756.431ZM403.105 750.307L374.006 641.708C373.291 639.041 370.55 637.458 367.882 638.172L302.708 655.636C300.041 656.35 298.458 659.092 299.172 661.759L328.272 770.359C328.986 773.026 331.728 774.609 334.395 773.895L335.172 776.793C330.904 777.936 326.517 775.403 325.374 771.136L296.275 662.536C295.131 658.268 297.664 653.881 301.931 652.738L367.106 635.275L367.506 635.178C371.644 634.291 375.796 636.797 376.903 640.931L406.003 749.531L406.099 749.932C406.958 753.937 404.638 757.953 400.741 759.212L400.346 759.329L399.57 756.431C402.237 755.716 403.82 752.975 403.105 750.307Z" fill="#2E2F33" fill-opacity="0.88"/>
<path d="M362.22 717L372.032 697.937V697.781H360.657V694.375H376.251V697.844L366.438 717H362.22Z" fill="black"/>
<path d="M349.907 717.312C344.47 717.312 341.22 713.094 341.22 705.687C341.22 698.312 344.47 694.062 349.907 694.062C355.313 694.062 358.595 698.312 358.595 705.687C358.595 713.094 355.345 717.312 349.907 717.312ZM349.907 713.906C352.751 713.906 354.501 711.125 354.501 705.687C354.501 700.281 352.72 697.437 349.907 697.437C347.095 697.437 345.313 700.281 345.313 705.687C345.313 711.125 347.063 713.906 349.907 713.906Z" fill="black"/>
<path d="M336.063 694.375V717H331.97V698.344H331.845L326.563 701.719V698L332.157 694.375H336.063Z" fill="black"/>
</g>
<g id="baekun_hall_108">
<path d="M218.275 683.536C217.131 679.268 219.664 674.881 223.931 673.738L289.106 656.275C293.373 655.131 297.76 657.664 298.903 661.931L328.003 770.531C329.146 774.799 326.614 779.186 322.346 780.329L257.172 797.793C252.904 798.936 248.517 796.403 247.374 792.136L218.275 683.536Z" fill="#F7FBFF"/>
<path d="M321.57 777.431L322.346 780.329L257.172 797.793L256.395 794.895L321.57 777.431ZM325.105 771.307L296.006 662.708C295.291 660.041 292.55 658.458 289.882 659.172L224.708 676.636C222.041 677.35 220.458 680.092 221.172 682.759L250.272 791.359C250.986 794.026 253.728 795.609 256.395 794.895L257.172 797.793C252.904 798.936 248.517 796.403 247.374 792.136L218.275 683.536C217.131 679.268 219.664 674.881 223.931 673.738L289.106 656.275L289.506 656.178C293.644 655.291 297.796 657.797 298.903 661.931L328.003 770.531L328.099 770.932C328.958 774.937 326.638 778.953 322.741 780.212L322.346 780.329L321.57 777.431C324.237 776.716 325.82 773.975 325.105 771.307Z" fill="#2E2F33" fill-opacity="0.88"/>
<path d="M290.22 738.312C285.188 738.312 281.626 735.625 281.626 731.937C281.626 729.062 283.751 726.719 286.47 726.281V726.156C284.095 725.656 282.47 723.594 282.47 721.125C282.47 717.625 285.751 715.062 290.22 715.062C294.657 715.062 297.938 717.625 297.938 721.125C297.938 723.594 296.282 725.656 293.938 726.156V726.281C296.657 726.719 298.813 729.062 298.813 731.937C298.813 735.625 295.22 738.312 290.22 738.312ZM290.22 735.094C292.876 735.094 294.626 733.656 294.626 731.562C294.626 729.437 292.751 727.875 290.22 727.875C287.657 727.875 285.782 729.437 285.813 731.562C285.782 733.656 287.532 735.094 290.22 735.094ZM290.22 724.844C292.407 724.844 293.97 723.469 293.97 721.5C293.97 719.594 292.438 718.25 290.22 718.25C287.97 718.25 286.438 719.562 286.438 721.5C286.438 723.469 288.001 724.844 290.22 724.844Z" fill="black"/>
<path d="M269.907 738.312C264.47 738.312 261.22 734.094 261.22 726.687C261.22 719.312 264.47 715.062 269.907 715.062C275.313 715.062 278.595 719.312 278.595 726.687C278.595 734.094 275.345 738.312 269.907 738.312ZM269.907 734.906C272.751 734.906 274.501 732.125 274.501 726.687C274.501 721.281 272.72 718.437 269.907 718.437C267.095 718.437 265.313 721.281 265.313 726.687C265.313 732.125 267.063 734.906 269.907 734.906Z" fill="black"/>
<path d="M256.063 715.375V738H251.97V719.344H251.845L246.563 722.719V719L252.157 715.375H256.063Z" fill="black"/>
</g>
<g id="baekun_hall_109">
<path d="M140.275 705.536C139.131 701.268 141.664 696.881 145.931 695.738L211.106 678.275C215.373 677.131 219.76 679.664 220.903 683.931L250.003 792.531C251.146 796.799 248.614 801.186 244.346 802.329L179.172 819.793C174.904 820.936 170.517 818.403 169.374 814.136L140.275 705.536Z" fill="#F7FBFF"/>
<path d="M243.57 799.431L244.346 802.329L179.172 819.793L178.395 816.895L243.57 799.431ZM247.105 793.307L218.006 684.708C217.291 682.041 214.55 680.458 211.882 681.172L146.708 698.636C144.041 699.35 142.458 702.092 143.172 704.759L172.272 813.359C172.986 816.026 175.728 817.609 178.395 816.895L179.172 819.793C174.904 820.936 170.517 818.403 169.374 814.136L140.275 705.536C139.131 701.268 141.664 696.881 145.931 695.738L211.106 678.275L211.506 678.178C215.644 677.291 219.796 679.797 220.903 683.931L250.003 792.531L250.099 792.932C250.958 796.937 248.638 800.953 244.741 802.212L244.346 802.329L243.57 799.431C246.237 798.716 247.82 795.975 247.105 793.307Z" fill="#2E2F33" fill-opacity="0.88"/>
<path d="M212.032 737.062C216.47 737.094 220.845 739.719 220.876 748C220.876 755.812 217.345 760.312 211.782 760.312C207.407 760.312 204.407 757.594 203.907 753.844H207.938C208.345 755.625 209.72 756.781 211.782 756.781C215.063 756.781 216.907 753.875 216.938 749.031H216.688C215.532 751 213.376 752.156 210.876 752.156C206.845 752.156 203.72 749.094 203.688 744.812C203.688 740.375 207.001 737.031 212.032 737.062ZM212.063 740.344C209.532 740.344 207.626 742.312 207.657 744.719C207.657 747.156 209.47 749.062 212.001 749.062C214.501 749.062 216.47 747.031 216.438 744.687C216.438 742.375 214.595 740.344 212.063 740.344Z" fill="black"/>
<path d="M191.907 760.312C186.47 760.312 183.22 756.094 183.22 748.687C183.22 741.312 186.47 737.062 191.907 737.062C197.313 737.062 200.595 741.312 200.595 748.687C200.595 756.094 197.345 760.312 191.907 760.312ZM191.907 756.906C194.751 756.906 196.501 754.125 196.501 748.687C196.501 743.281 194.72 740.437 191.907 740.437C189.095 740.437 187.313 743.281 187.313 748.687C187.313 754.125 189.063 756.906 191.907 756.906Z" fill="black"/>
<path d="M178.063 737.375V760H173.97V741.344H173.845L168.563 744.719V741L174.157 737.375H178.063Z" fill="black"/>
</g>
<g id="baekun_hall_110">
<path d="M63.2746 728.536C62.131 724.268 64.6637 719.881 68.9314 718.738L134.106 701.275C138.373 700.131 142.76 702.664 143.903 706.931L173.003 815.531C174.146 819.799 171.614 824.186 167.346 825.329L102.172 842.793C97.904 843.936 93.5173 841.403 92.3738 837.136L63.2746 728.536Z" fill="#F7FBFF"/>
<path d="M166.57 822.431L167.346 825.329L102.172 842.793L101.395 839.895L166.57 822.431ZM170.105 816.307L141.006 707.708C140.291 705.041 137.55 703.458 134.882 704.172L69.7079 721.636C67.0406 722.35 65.4576 725.092 66.1724 727.759L95.2716 836.359C95.9863 839.026 98.7279 840.609 101.395 839.895L102.172 842.793C97.904 843.936 93.5173 841.403 92.3738 837.136L63.2746 728.536C62.131 724.268 64.6637 719.881 68.9314 718.738L134.106 701.275L134.506 701.178C138.644 700.291 142.796 702.797 143.903 706.931L173.003 815.531L173.099 815.932C173.958 819.937 171.638 823.953 167.741 825.212L167.346 825.329L166.57 822.431C169.237 821.716 170.82 818.975 170.105 816.307Z" fill="#2E2F33" fill-opacity="0.88"/>
<path d="M132.595 783.312C127.157 783.312 123.907 779.094 123.907 771.687C123.907 764.312 127.157 760.062 132.595 760.062C138.001 760.062 141.282 764.312 141.282 771.687C141.282 779.094 138.032 783.312 132.595 783.312ZM132.595 779.906C135.438 779.906 137.188 777.125 137.188 771.687C137.188 766.281 135.407 763.437 132.595 763.437C129.782 763.437 128.001 766.281 128.001 771.687C128.001 777.125 129.751 779.906 132.595 779.906Z" fill="black"/>
<path d="M118.751 760.375V783H114.657V764.344H114.532L109.251 767.719V764L114.845 760.375H118.751Z" fill="black"/>
<path d="M104.063 760.375V783H99.9697V764.344H99.8447L94.5634 767.719V764L100.157 760.375H104.063Z" fill="black"/>
</g>
<g id="baekun_hall_102">
<path d="M695.275 555.322C694.131 551.054 696.664 546.667 700.931 545.524L765.306 528.275C769.573 527.131 773.96 529.664 775.103 533.931L804.203 642.531C805.346 646.799 802.814 651.186 798.546 652.329L734.172 669.578C729.904 670.722 725.517 668.189 724.374 663.921L695.275 555.322Z" fill="#F7FBFF"/>
<path d="M797.769 649.431L798.546 652.329L734.172 669.578L733.395 666.68L797.769 649.431ZM801.304 643.308L772.205 534.708C771.491 532.041 768.749 530.458 766.082 531.172L701.708 548.421C699.041 549.136 697.458 551.878 698.172 554.545L727.272 663.145C727.986 665.812 730.728 667.395 733.395 666.68L734.172 669.578L733.771 669.674C729.633 670.561 725.482 668.056 724.374 663.921L695.275 555.322C694.167 551.187 696.509 546.942 700.536 545.641L700.931 545.524L765.306 528.275C769.573 527.131 773.96 529.664 775.103 533.931L804.203 642.531C805.346 646.799 802.814 651.186 798.546 652.329L797.769 649.431C800.436 648.717 802.019 645.975 801.304 643.308Z" fill="#2E2F33" fill-opacity="0.88"/>
<path d="M760.001 609V606.063L768.001 598.344C770.282 596.063 771.47 594.719 771.47 592.813C771.47 590.719 769.813 589.375 767.595 589.375C765.251 589.375 763.751 590.844 763.782 593.125H759.907C759.876 588.844 763.095 586.063 767.626 586.063C772.251 586.063 775.376 588.813 775.376 592.625C775.376 595.188 774.126 597.25 769.688 601.438L765.657 605.438V605.594H775.72V609H760.001Z" fill="black"/>
<path d="M747.907 609.313C742.47 609.313 739.22 605.094 739.22 597.688C739.22 590.313 742.47 586.063 747.907 586.063C753.313 586.063 756.595 590.313 756.595 597.688C756.595 605.094 753.345 609.313 747.907 609.313ZM747.907 605.907C750.751 605.907 752.501 603.125 752.501 597.688C752.501 592.282 750.72 589.438 747.907 589.438C745.095 589.438 743.313 592.282 743.313 597.688C743.313 603.125 745.063 605.907 747.907 605.907Z" fill="black"/>
<path d="M734.063 586.375V609H729.97V590.344H729.845L724.563 593.719V590L730.157 586.375H734.063Z" fill="black"/>
</g>
<g id="baekun_hall_101">
<path d="M772.275 533.322C771.131 529.054 773.664 524.667 777.931 523.524L842.306 506.275C846.573 505.131 850.96 507.664 852.103 511.931L881.203 620.531C882.346 624.799 879.814 629.186 875.546 630.329L811.172 647.578C806.904 648.722 802.517 646.189 801.374 641.921L772.275 533.322Z" fill="#F7FBFF"/>
<path d="M874.769 627.431L875.546 630.329L811.172 647.578L810.395 644.68L874.769 627.431ZM878.304 621.308L849.205 512.708C848.491 510.041 845.749 508.458 843.082 509.172L778.708 526.421C776.041 527.136 774.458 529.878 775.172 532.545L804.272 641.145C804.986 643.812 807.728 645.395 810.395 644.68L811.172 647.578L810.771 647.674C806.633 648.561 802.482 646.056 801.374 641.921L772.275 533.322C771.167 529.187 773.509 524.942 777.536 523.641L777.931 523.524L842.306 506.275C846.573 505.131 850.96 507.664 852.103 511.931L881.203 620.531C882.346 624.799 879.814 629.186 875.546 630.329L874.769 627.431C877.436 626.717 879.019 623.975 878.304 621.308Z" fill="#2E2F33" fill-opacity="0.88"/>
<path d="M848.188 565.375V588H844.095V569.344H843.97L838.688 572.719V569L844.282 565.375H848.188Z" fill="black"/>
<path d="M826.907 588.313C821.47 588.313 818.22 584.094 818.22 576.688C818.22 569.313 821.47 565.063 826.907 565.063C832.313 565.063 835.595 569.313 835.595 576.688C835.595 584.094 832.345 588.313 826.907 588.313ZM826.907 584.907C829.751 584.907 831.501 582.125 831.501 576.688C831.501 571.282 829.72 568.438 826.907 568.438C824.095 568.438 822.313 571.282 822.313 576.688C822.313 582.125 824.063 584.907 826.907 584.907Z" fill="black"/>
<path d="M813.063 565.375V588H808.97V569.344H808.845L803.563 572.719V569L809.157 565.375H813.063Z" fill="black"/>
</g>
<g id="baekun_hall_120">
<path d="M777.22 49.8147C776.326 46.0634 778.213 42.2397 781.805 40.836C797.896 34.5473 844.357 18.1832 905.365 12.342C965.497 6.58469 1016.02 6.80092 1034.65 7.14776C1038.95 7.22783 1042.32 10.7451 1042.32 15.0459V245.867C1042.32 250.075 1039.06 253.563 1034.87 253.849L835.933 267.382C832.034 267.647 828.514 265.057 827.608 261.255L777.22 49.8147Z" fill="#F7FBFF"/>
<path d="M1039.32 15.0459C1039.32 12.3397 1037.22 10.1963 1034.59 10.1475C1016.03 9.80188 965.63 9.58548 905.651 15.3281C845.008 21.1344 798.829 37.4038 782.897 43.6299C780.769 44.4618 779.574 46.7504 780.139 49.1191L830.526 260.56C831.093 262.936 833.293 264.554 835.729 264.389L1034.66 250.855C1037.29 250.677 1039.32 248.497 1039.32 245.867V15.0459ZM1042.32 245.867C1042.32 250.075 1039.06 253.563 1034.87 253.849L835.933 267.382L835.568 267.398C831.937 267.481 828.7 265.099 827.7 261.607L827.608 261.255L777.22 49.8147C776.326 46.0634 778.213 42.2397 781.805 40.836C797.896 34.5473 844.357 18.1832 905.365 12.342C965.497 6.58469 1016.02 6.80092 1034.65 7.14776C1038.95 7.22783 1042.32 10.7451 1042.32 15.0459V245.867Z" fill="#2E2F33" fill-opacity="0.88"/>
<path d="M938.189 148.312C932.752 148.312 929.502 144.094 929.502 136.688C929.502 129.312 932.752 125.062 938.189 125.062C943.596 125.062 946.877 129.312 946.877 136.688C946.877 144.094 943.627 148.312 938.189 148.312ZM938.189 144.906C941.033 144.906 942.783 142.125 942.783 136.688C942.783 131.281 941.002 128.438 938.189 128.438C935.377 128.438 933.596 131.281 933.596 136.688C933.596 142.125 935.346 144.906 938.189 144.906Z" fill="black"/>
<path d="M910.564 148V145.062L918.564 137.344C920.846 135.062 922.033 133.719 922.033 131.812C922.033 129.719 920.377 128.375 918.158 128.375C915.814 128.375 914.314 129.844 914.346 132.125H910.471C910.439 127.844 913.658 125.062 918.189 125.062C922.814 125.062 925.939 127.812 925.939 131.625C925.939 134.188 924.689 136.25 920.252 140.438L916.221 144.438V144.594H926.283V148H910.564Z" fill="black"/>
<path d="M905.064 125.375V148H900.971V129.344H900.846L895.564 132.719V129L901.158 125.375H905.064Z" fill="black"/>
</g>
<g id="baekun_hall_121">
<path d="M1304.1 49.8147C1305 46.0634 1303.11 42.2397 1299.52 40.836C1283.43 34.5473 1236.97 18.1832 1175.96 12.342C1115.83 6.58469 1065.3 6.80092 1046.67 7.14776C1042.37 7.22783 1039 10.7451 1039 15.0459V245.867C1039 250.075 1042.26 253.563 1046.46 253.849L1245.39 267.382C1249.29 267.647 1252.81 265.057 1253.71 261.255L1304.1 49.8147Z" fill="#F7FBFF"/>
<path d="M1042 15.0459C1042 12.3397 1044.1 10.1963 1046.73 10.1475C1065.29 9.80188 1115.69 9.58548 1175.67 15.3281C1236.31 21.1344 1282.49 37.4038 1298.42 43.6299C1300.55 44.4618 1301.75 46.7504 1301.18 49.1191L1250.8 260.56C1250.23 262.936 1248.03 264.554 1245.59 264.389L1046.66 250.855C1044.04 250.677 1042 248.497 1042 245.867V15.0459ZM1039 245.867C1039 250.075 1042.26 253.563 1046.46 253.849L1245.39 267.382L1245.75 267.398C1249.39 267.481 1252.62 265.099 1253.62 261.607L1253.71 261.255L1304.1 49.8147C1305 46.0634 1303.11 42.2397 1299.52 40.836C1283.43 34.5473 1236.97 18.1832 1175.96 12.342C1115.83 6.58469 1065.3 6.80092 1046.67 7.14776C1042.37 7.22783 1039 10.7451 1039 15.0459V245.867Z" fill="#2E2F33" fill-opacity="0.88"/>
<path d="M1175.03 125.375V148H1170.94V129.344H1170.81L1165.53 132.719V129L1171.12 125.375H1175.03Z" fill="black"/>
<path d="M1146.56 148V145.062L1154.56 137.344C1156.84 135.062 1158.03 133.719 1158.03 131.812C1158.03 129.719 1156.37 128.375 1154.16 128.375C1151.81 128.375 1150.31 129.844 1150.34 132.125H1146.47C1146.44 127.844 1149.66 125.062 1154.19 125.062C1158.81 125.062 1161.94 127.812 1161.94 131.625C1161.94 134.188 1160.69 136.25 1156.25 140.438L1152.22 144.438V144.594H1162.28V148H1146.56Z" fill="black"/>
<path d="M1141.06 125.375V148H1136.97V129.344H1136.84L1131.56 132.719V129L1137.16 125.375H1141.06Z" fill="black"/>
</g>
<g id="baekun_hall_123">
<path d="M1426.97 367.757C1428.11 363.489 1425.58 359.103 1421.31 357.959L1359.05 341.275C1354.78 340.131 1350.39 342.664 1349.25 346.931L1313.27 481.189C1312.13 485.457 1314.66 489.843 1318.93 490.987L1381.2 507.671C1385.47 508.815 1389.85 506.282 1391 502.015L1426.97 367.757Z" fill="#F7FBFF"/>
<path d="M1319.71 488.089L1318.93 490.987L1381.2 507.671L1381.98 504.773L1319.71 488.089ZM1316.17 481.965L1352.15 347.708C1352.86 345.041 1355.6 343.458 1358.27 344.172L1420.54 360.857C1423.21 361.572 1424.79 364.313 1424.07 366.981L1388.1 501.238C1387.38 503.905 1384.64 505.488 1381.98 504.773L1381.2 507.671C1385.47 508.815 1389.85 506.282 1391 502.015L1426.97 367.757C1428.11 363.489 1425.58 359.103 1421.31 357.959L1359.05 341.275C1354.78 340.131 1350.39 342.664 1349.25 346.931L1313.27 481.189C1312.13 485.457 1314.66 489.843 1318.93 490.987L1319.71 488.089C1317.04 487.374 1315.46 484.632 1316.17 481.965Z" fill="#2E2F33" fill-opacity="0.88"/>
<path d="M1387.06 436.313C1382.22 436.313 1378.78 433.688 1378.69 429.875H1382.78C1382.91 431.688 1384.72 432.875 1387.06 432.875C1389.56 432.875 1391.34 431.5 1391.34 429.5C1391.34 427.469 1389.59 426 1386.66 426H1384.62V422.875H1386.66C1389.06 422.875 1390.75 421.532 1390.72 419.563C1390.75 417.657 1389.31 416.375 1387.09 416.375C1384.97 416.375 1383.12 417.563 1383.06 419.469H1379.16C1379.25 415.657 1382.69 413.063 1387.12 413.063C1391.72 413.063 1394.69 415.875 1394.66 419.344C1394.69 421.875 1393 423.719 1390.53 424.219V424.407C1393.72 424.844 1395.53 426.875 1395.5 429.719C1395.53 433.532 1391.97 436.313 1387.06 436.313Z" fill="black"/>
<path d="M1359.56 436V433.063L1367.56 425.344C1369.84 423.063 1371.03 421.719 1371.03 419.813C1371.03 417.719 1369.37 416.375 1367.16 416.375C1364.81 416.375 1363.31 417.844 1363.34 420.125H1359.47C1359.44 415.844 1362.66 413.063 1367.19 413.063C1371.81 413.063 1374.94 415.813 1374.94 419.625C1374.94 422.188 1373.69 424.25 1369.25 428.438L1365.22 432.438V432.594H1375.28V436H1359.56Z" fill="black"/>
<path d="M1354.06 413.375V436H1349.97V417.344H1349.84L1344.56 420.719V417L1350.16 413.375H1354.06Z" fill="black"/>
</g>
<g id="baekun_hall_124">
<path d="M1503.74 389.499C1504.88 385.232 1502.35 380.845 1498.08 379.701L1433.05 362.275C1428.78 361.131 1424.39 363.664 1423.25 367.931L1387.27 502.189C1386.13 506.457 1388.66 510.843 1392.93 511.987L1457.97 529.414C1462.24 530.557 1466.62 528.025 1467.77 523.757L1503.74 389.499Z" fill="#F7FBFF"/>
<path d="M1393.71 509.089L1392.93 511.987L1457.97 529.414L1458.75 526.516L1393.71 509.089ZM1390.17 502.965L1426.15 368.708C1426.86 366.041 1429.6 364.458 1432.27 365.172L1497.31 382.599C1499.98 383.314 1501.56 386.056 1500.84 388.723L1464.87 522.98C1464.15 525.647 1461.41 527.23 1458.75 526.516L1457.97 529.414L1458.37 529.511C1462.51 530.397 1466.66 527.891 1467.77 523.757L1503.74 389.499C1504.88 385.232 1502.35 380.845 1498.08 379.701L1433.05 362.275L1432.65 362.178C1428.51 361.292 1424.36 363.797 1423.25 367.931L1387.27 502.189L1387.18 502.589C1386.32 506.594 1388.64 510.611 1392.54 511.87L1392.93 511.987L1393.71 509.089C1391.04 508.374 1389.46 505.632 1390.17 502.965Z" fill="#2E2F33" fill-opacity="0.88"/>
<path d="M1452.94 452.782V449.532L1462.72 434.375H1467.78V449.438H1470.75V452.782H1467.78V457H1463.91V452.782H1452.94ZM1457.09 449.438H1463.97V439H1463.72L1457.09 449.282V449.438Z" fill="black"/>
<path d="M1434.56 457V454.063L1442.56 446.344C1444.84 444.063 1446.03 442.719 1446.03 440.813C1446.03 438.719 1444.37 437.375 1442.16 437.375C1439.81 437.375 1438.31 438.844 1438.34 441.125H1434.47C1434.44 436.844 1437.66 434.063 1442.19 434.063C1446.81 434.063 1449.94 436.813 1449.94 440.625C1449.94 443.188 1448.69 445.25 1444.25 449.438L1440.22 453.438V453.594H1450.28V457H1434.56Z" fill="black"/>
<path d="M1429.06 434.375V457H1424.97V438.344H1424.84L1419.56 441.719V438L1425.16 434.375H1429.06Z" fill="black"/>
</g>
<g id="baekun_hall_125">
<path d="M1770.74 461.142C1771.89 456.874 1769.35 452.487 1765.08 451.344L1511.05 383.275C1506.78 382.131 1502.39 384.664 1501.25 388.931L1465.27 523.189C1464.13 527.457 1466.66 531.843 1470.93 532.987L1724.97 601.056C1729.24 602.2 1733.62 599.667 1734.77 595.399L1770.74 461.142Z" fill="#F7FBFF"/>
<path d="M1471.71 530.089L1470.93 532.987L1724.97 601.056L1725.75 598.158L1471.71 530.089ZM1468.17 523.965L1504.15 389.708C1504.86 387.041 1507.6 385.458 1510.27 386.172L1764.31 454.242C1766.98 454.956 1768.56 457.698 1767.84 460.365L1731.87 594.622C1731.16 597.29 1728.41 598.873 1725.75 598.158L1724.97 601.056L1725.37 601.153C1729.51 602.04 1733.66 599.534 1734.77 595.399L1770.74 461.142C1771.89 456.874 1769.35 452.487 1765.08 451.344L1511.05 383.275L1510.65 383.178C1506.51 382.291 1502.36 384.797 1501.25 388.931L1465.27 523.189L1465.18 523.589C1464.32 527.594 1466.64 531.612 1470.54 532.871L1470.93 532.987L1471.71 530.089C1469.04 529.374 1467.46 526.632 1468.17 523.965Z" fill="#2E2F33" fill-opacity="0.88"/>
<path d="M1634.87 503.313C1630.34 503.313 1627.03 500.625 1626.91 496.875H1630.87C1631 498.719 1632.72 500.032 1634.87 500.032C1637.41 500.032 1639.22 498.188 1639.22 495.688C1639.22 493.094 1637.34 491.25 1634.75 491.25C1633 491.219 1631.72 491.844 1631 493.188H1627.22L1628.59 480.375H1641.97V483.782H1631.94L1631.25 489.782H1631.47C1632.34 488.782 1634 488.063 1635.84 488.063C1640.06 488.063 1643.16 491.219 1643.16 495.563C1643.16 500.094 1639.75 503.313 1634.87 503.313Z" fill="black"/>
<path d="M1607.56 503V500.063L1615.56 492.344C1617.84 490.063 1619.03 488.719 1619.03 486.813C1619.03 484.719 1617.37 483.375 1615.16 483.375C1612.81 483.375 1611.31 484.844 1611.34 487.125H1607.47C1607.44 482.844 1610.66 480.063 1615.19 480.063C1619.81 480.063 1622.94 482.813 1622.94 486.625C1622.94 489.188 1621.69 491.25 1617.25 495.438L1613.22 499.438V499.594H1623.28V503H1607.56Z" fill="black"/>
<path d="M1602.06 480.375V503H1597.97V484.344H1597.84L1592.56 487.719V484L1598.16 480.375H1602.06Z" fill="black"/>
</g>
<g id="baekun_hall_127">
<path d="M1886.84 492.439C1887.98 488.172 1885.45 483.785 1881.18 482.641L1779.05 455.275C1774.78 454.131 1770.39 456.664 1769.25 460.931L1733.27 595.189C1732.13 599.457 1734.66 603.843 1738.93 604.987L1841.07 632.354C1845.33 633.497 1849.72 630.965 1850.86 626.697L1886.84 492.439Z" fill="#F7FBFF"/>
<path d="M1739.71 602.089L1738.93 604.987L1841.07 632.354L1841.84 629.456L1739.71 602.089ZM1736.17 595.965L1772.15 461.708C1772.86 459.041 1775.6 457.458 1778.27 458.172L1880.4 485.539C1883.07 486.254 1884.65 488.996 1883.94 491.663L1847.97 625.92C1847.25 628.587 1844.51 630.17 1841.84 629.456L1841.07 632.354L1841.47 632.451C1845.6 633.337 1849.76 630.831 1850.86 626.697L1886.84 492.439C1887.98 488.172 1885.45 483.785 1881.18 482.641L1779.05 455.275L1778.65 455.179C1774.51 454.291 1770.36 456.797 1769.25 460.931L1733.27 595.189L1733.18 595.589C1732.32 599.594 1734.64 603.612 1738.54 604.871L1738.93 604.987L1739.71 602.089C1737.04 601.374 1735.46 598.632 1736.17 595.965Z" fill="#2E2F33" fill-opacity="0.88"/>
<path d="M1819.69 554.999L1829.5 535.937V535.78H1818.12V532.374H1833.72V535.843L1823.9 554.999H1819.69Z" fill="black"/>
<path d="M1799.56 554.999V552.062L1807.56 544.343C1809.84 542.062 1811.03 540.718 1811.03 538.812C1811.03 536.718 1809.37 535.374 1807.15 535.374C1804.81 535.374 1803.31 536.843 1803.34 539.124H1799.47C1799.44 534.843 1802.65 532.062 1807.19 532.062C1811.81 532.062 1814.94 534.812 1814.94 538.624C1814.94 541.187 1813.69 543.249 1809.25 547.437L1805.22 551.437V551.593H1815.28V554.999H1799.56Z" fill="black"/>
<path d="M1794.06 532.374V554.999H1789.97V536.343H1789.84L1784.56 539.718V535.999L1790.15 532.374H1794.06Z" fill="black"/>
</g>
<g id="baekun_hall_129">
<path d="M1963.08 513.322C1964.22 509.054 1961.69 504.667 1957.42 503.524L1893.05 486.275C1888.78 485.131 1884.39 487.664 1883.25 491.931L1847.27 626.189C1846.13 630.457 1848.66 634.843 1852.93 635.987L1917.31 653.236C1921.57 654.379 1925.96 651.847 1927.1 647.579L1963.08 513.322Z" fill="#F7FBFF"/>
<path d="M1853.71 633.089L1852.93 635.987L1917.31 653.236L1918.08 650.338L1853.71 633.089ZM1850.17 626.965L1886.15 492.708C1886.86 490.041 1889.6 488.458 1892.27 489.172L1956.64 506.421C1959.31 507.136 1960.89 509.878 1960.18 512.545L1924.21 646.802C1923.49 649.469 1920.75 651.052 1918.08 650.338L1917.31 653.236L1917.71 653.333C1921.84 654.219 1926 651.713 1927.1 647.579L1963.08 513.322C1964.19 509.187 1961.84 504.942 1957.82 503.641L1957.42 503.524L1893.05 486.275C1888.78 485.131 1884.39 487.664 1883.25 491.931L1847.27 626.189C1846.13 630.457 1848.66 634.843 1852.93 635.987L1853.71 633.089C1851.04 632.374 1849.46 629.632 1850.17 626.965Z" fill="#2E2F33" fill-opacity="0.88"/>
<path d="M1921.87 558.063C1926.31 558.094 1930.69 560.719 1930.72 569C1930.72 576.813 1927.19 581.313 1921.62 581.313C1917.25 581.313 1914.25 578.594 1913.75 574.844H1917.78C1918.19 576.625 1919.56 577.782 1921.62 577.782C1924.91 577.782 1926.75 574.875 1926.78 570.032H1926.53C1925.37 572 1923.22 573.157 1920.72 573.157C1916.69 573.157 1913.56 570.094 1913.53 565.813C1913.53 561.375 1916.84 558.032 1921.87 558.063ZM1921.91 561.344C1919.37 561.344 1917.47 563.313 1917.5 565.719C1917.5 568.157 1919.31 570.063 1921.84 570.063C1924.34 570.063 1926.31 568.032 1926.28 565.688C1926.28 563.375 1924.44 561.344 1921.91 561.344Z" fill="black"/>
<path d="M1894.56 581V578.063L1902.56 570.344C1904.84 568.063 1906.03 566.719 1906.03 564.813C1906.03 562.719 1904.37 561.375 1902.16 561.375C1899.81 561.375 1898.31 562.844 1898.34 565.125H1894.47C1894.44 560.844 1897.66 558.063 1902.19 558.063C1906.81 558.063 1909.94 560.813 1909.94 564.625C1909.94 567.188 1908.69 569.25 1904.25 573.438L1900.22 577.438V577.594H1910.28V581H1894.56Z" fill="black"/>
<path d="M1889.06 558.375V581H1884.97V562.344H1884.84L1879.56 565.719V562L1885.16 558.375H1889.06Z" fill="black"/>
</g>
<g id="baekun_hall_130">
<path d="M1988 724.536C1989.15 720.268 1986.61 715.881 1982.35 714.738L1917.17 697.275C1912.9 696.131 1908.52 698.664 1907.37 702.931L1878.27 811.531C1877.13 815.799 1879.66 820.186 1883.93 821.329L1949.11 838.793C1953.37 839.936 1957.76 837.403 1958.9 833.136L1988 724.536Z" fill="#F7FBFF"/>
<path d="M1884.71 818.431L1883.93 821.329L1949.11 838.793L1949.88 835.895L1884.71 818.431ZM1881.17 812.307L1910.27 703.708C1910.99 701.041 1913.73 699.458 1916.39 700.172L1981.57 717.636C1984.24 718.35 1985.82 721.092 1985.11 723.759L1956.01 832.359C1955.29 835.026 1952.55 836.609 1949.88 835.895L1949.11 838.793C1953.37 839.936 1957.76 837.403 1958.9 833.136L1988 724.536C1989.15 720.268 1986.61 715.881 1982.35 714.738L1917.17 697.275L1916.77 697.178C1912.63 696.291 1908.48 698.797 1907.37 702.931L1878.27 811.531L1878.18 811.932C1877.32 815.937 1879.64 819.953 1883.54 821.212L1883.93 821.329L1884.71 818.431C1882.04 817.716 1880.46 814.975 1881.17 812.307Z" fill="#2E2F33" fill-opacity="0.88"/>
<path d="M1950.12 779.312C1944.69 779.312 1941.44 775.094 1941.44 767.687C1941.44 760.312 1944.69 756.062 1950.12 756.062C1955.53 756.062 1958.81 760.312 1958.81 767.687C1958.81 775.094 1955.56 779.312 1950.12 779.312ZM1950.12 775.906C1952.97 775.906 1954.72 773.125 1954.72 767.687C1954.72 762.281 1952.94 759.437 1950.12 759.437C1947.31 759.437 1945.53 762.281 1945.53 767.687C1945.53 773.125 1947.28 775.906 1950.12 775.906Z" fill="black"/>
<path d="M1929.78 779.312C1924.94 779.312 1921.5 776.687 1921.41 772.875H1925.5C1925.62 774.687 1927.44 775.875 1929.78 775.875C1932.28 775.875 1934.06 774.5 1934.06 772.5C1934.06 770.469 1932.31 769 1929.37 769H1927.34V765.875H1929.37C1931.78 765.875 1933.47 764.531 1933.44 762.562C1933.47 760.656 1932.03 759.375 1929.81 759.375C1927.69 759.375 1925.84 760.562 1925.78 762.469H1921.87C1921.97 758.656 1925.41 756.062 1929.84 756.062C1934.44 756.062 1937.41 758.875 1937.37 762.344C1937.41 764.875 1935.72 766.719 1933.25 767.219V767.406C1936.44 767.844 1938.25 769.875 1938.22 772.719C1938.25 776.531 1934.69 779.312 1929.78 779.312Z" fill="black"/>
<path d="M1916.06 756.375V779H1911.97V760.344H1911.84L1906.56 763.719V760L1912.16 756.375H1916.06Z" fill="black"/>
</g>
<g id="baekun_hall_131">
<path d="M1910 701.536C1911.15 697.268 1908.61 692.881 1904.35 691.738L1839.17 674.275C1834.9 673.131 1830.52 675.664 1829.37 679.931L1800.27 788.531C1799.13 792.799 1801.66 797.186 1805.93 798.329L1871.11 815.793C1875.37 816.936 1879.76 814.403 1880.9 810.136L1910 701.536Z" fill="#F7FBFF"/>
<path d="M1806.71 795.431L1805.93 798.329L1871.11 815.793L1871.88 812.895L1806.71 795.431ZM1803.17 789.307L1832.27 680.708C1832.99 678.041 1835.73 676.458 1838.39 677.172L1903.57 694.636C1906.24 695.35 1907.82 698.092 1907.11 700.759L1878.01 809.359C1877.29 812.026 1874.55 813.609 1871.88 812.895L1871.11 815.793C1875.37 816.936 1879.76 814.403 1880.9 810.136L1910 701.536C1911.15 697.268 1908.61 692.881 1904.35 691.738L1839.17 674.275L1838.77 674.178C1834.63 673.291 1830.48 675.797 1829.37 679.931L1800.27 788.531L1800.18 788.932C1799.32 792.937 1801.64 796.953 1805.54 798.212L1805.93 798.329L1806.71 795.431C1804.04 794.716 1802.46 791.975 1803.17 789.307Z" fill="#2E2F33" fill-opacity="0.88"/>
<path d="M1875.97 733.375V756H1871.87V737.344H1871.75L1866.47 740.719V737L1872.06 733.375H1875.97Z" fill="black"/>
<path d="M1854.78 756.312C1849.94 756.312 1846.5 753.687 1846.41 749.875H1850.5C1850.62 751.687 1852.44 752.875 1854.78 752.875C1857.28 752.875 1859.06 751.5 1859.06 749.5C1859.06 747.469 1857.31 746 1854.37 746H1852.34V742.875H1854.37C1856.78 742.875 1858.47 741.531 1858.44 739.562C1858.47 737.656 1857.03 736.375 1854.81 736.375C1852.69 736.375 1850.84 737.562 1850.78 739.469H1846.87C1846.97 735.656 1850.41 733.062 1854.84 733.062C1859.44 733.062 1862.41 735.875 1862.37 739.344C1862.41 741.875 1860.72 743.719 1858.25 744.219V744.406C1861.44 744.844 1863.25 746.875 1863.22 749.719C1863.25 753.531 1859.69 756.312 1854.78 756.312Z" fill="black"/>
<path d="M1841.06 733.375V756H1836.97V737.344H1836.84L1831.56 740.719V737L1837.16 733.375H1841.06Z" fill="black"/>
</g>
<g id="baekun_hall_132">
<path d="M1832 679.536C1833.15 675.268 1830.61 670.881 1826.35 669.738L1761.17 652.275C1756.9 651.131 1752.52 653.664 1751.37 657.931L1722.27 766.531C1721.13 770.799 1723.66 775.186 1727.93 776.329L1793.11 793.793C1797.37 794.936 1801.76 792.403 1802.9 788.136L1832 679.536Z" fill="#F7FBFF"/>
<path d="M1728.71 773.431L1727.93 776.329L1793.11 793.793L1793.88 790.895L1728.71 773.431ZM1725.17 767.307L1754.27 658.708C1754.99 656.041 1757.73 654.458 1760.39 655.172L1825.57 672.636C1828.24 673.35 1829.82 676.092 1829.11 678.759L1800.01 787.359C1799.29 790.026 1796.55 791.609 1793.88 790.895L1793.11 793.793C1797.37 794.936 1801.76 792.403 1802.9 788.136L1832 679.536C1833.15 675.268 1830.61 670.881 1826.35 669.738L1761.17 652.275L1760.77 652.178C1756.63 651.291 1752.48 653.797 1751.37 657.931L1722.27 766.531L1722.18 766.932C1721.32 770.937 1723.64 774.953 1727.54 776.212L1727.93 776.329L1728.71 773.431C1726.04 772.716 1724.46 769.975 1725.17 767.307Z" fill="#2E2F33" fill-opacity="0.88"/>
<path d="M1786.78 734V731.062L1794.78 723.344C1797.06 721.062 1798.25 719.719 1798.25 717.812C1798.25 715.719 1796.59 714.375 1794.37 714.375C1792.03 714.375 1790.53 715.844 1790.56 718.125H1786.69C1786.66 713.844 1789.87 711.062 1794.41 711.062C1799.03 711.062 1802.16 713.812 1802.16 717.625C1802.16 720.187 1800.91 722.25 1796.47 726.437L1792.44 730.437V730.594H1802.5V734H1786.78Z" fill="black"/>
<path d="M1774.78 734.312C1769.94 734.312 1766.5 731.687 1766.41 727.875H1770.5C1770.62 729.687 1772.44 730.875 1774.78 730.875C1777.28 730.875 1779.06 729.5 1779.06 727.5C1779.06 725.469 1777.31 724 1774.37 724H1772.34V720.875H1774.37C1776.78 720.875 1778.47 719.531 1778.44 717.562C1778.47 715.656 1777.03 714.375 1774.81 714.375C1772.69 714.375 1770.84 715.562 1770.78 717.469H1766.87C1766.97 713.656 1770.41 711.062 1774.84 711.062C1779.44 711.062 1782.41 713.875 1782.37 717.344C1782.41 719.875 1780.72 721.719 1778.25 722.219V722.406C1781.44 722.844 1783.25 724.875 1783.22 727.719C1783.25 731.531 1779.69 734.312 1774.78 734.312Z" fill="black"/>
<path d="M1761.06 711.375V734H1756.97V715.344H1756.84L1751.56 718.719V715L1757.16 711.375H1761.06Z" fill="black"/>
</g>
<g id="baekun_hall_133">
<path d="M1754 658.536C1755.15 654.268 1752.61 649.881 1748.35 648.738L1683.17 631.275C1678.9 630.131 1674.52 632.664 1673.37 636.931L1644.27 745.531C1643.13 749.799 1645.66 754.186 1649.93 755.329L1715.11 772.793C1719.37 773.936 1723.76 771.403 1724.9 767.136L1754 658.536Z" fill="#F7FBFF"/>
<path d="M1650.71 752.431L1649.93 755.329L1715.11 772.793L1715.88 769.895L1650.71 752.431ZM1647.17 746.307L1676.27 637.708C1676.99 635.041 1679.73 633.458 1682.39 634.172L1747.57 651.636C1750.24 652.35 1751.82 655.092 1751.11 657.759L1722.01 766.359C1721.29 769.026 1718.55 770.609 1715.88 769.895L1715.11 772.793C1719.37 773.936 1723.76 771.403 1724.9 767.136L1754 658.536C1755.15 654.268 1752.61 649.881 1748.35 648.738L1683.17 631.275L1682.77 631.178C1678.63 630.291 1674.48 632.797 1673.37 636.931L1644.27 745.531L1644.18 745.932C1643.32 749.937 1645.64 753.953 1649.54 755.212L1649.93 755.329L1650.71 752.431C1648.04 751.716 1646.46 748.975 1647.17 746.307Z" fill="#2E2F33" fill-opacity="0.88"/>
<path d="M1716 713.312C1711.16 713.312 1707.72 710.687 1707.62 706.875H1711.72C1711.84 708.687 1713.66 709.875 1716 709.875C1718.5 709.875 1720.28 708.5 1720.28 706.5C1720.28 704.469 1718.53 703 1715.59 703H1713.56V699.875H1715.59C1718 699.875 1719.69 698.531 1719.66 696.562C1719.69 694.656 1718.25 693.375 1716.03 693.375C1713.91 693.375 1712.06 694.562 1712 696.469H1708.09C1708.19 692.656 1711.62 690.062 1716.06 690.062C1720.66 690.062 1723.62 692.875 1723.59 696.344C1723.62 698.875 1721.94 700.719 1719.47 701.219V701.406C1722.66 701.844 1724.47 703.875 1724.44 706.719C1724.47 710.531 1720.91 713.312 1716 713.312Z" fill="black"/>
<path d="M1695.78 713.312C1690.94 713.312 1687.5 710.687 1687.41 706.875H1691.5C1691.62 708.687 1693.44 709.875 1695.78 709.875C1698.28 709.875 1700.06 708.5 1700.06 706.5C1700.06 704.469 1698.31 703 1695.37 703H1693.34V699.875H1695.37C1697.78 699.875 1699.47 698.531 1699.44 696.562C1699.47 694.656 1698.03 693.375 1695.81 693.375C1693.69 693.375 1691.84 694.562 1691.78 696.469H1687.87C1687.97 692.656 1691.41 690.062 1695.84 690.062C1700.44 690.062 1703.41 692.875 1703.37 696.344C1703.41 698.875 1701.72 700.719 1699.25 701.219V701.406C1702.44 701.844 1704.25 703.875 1704.22 706.719C1704.25 710.531 1700.69 713.312 1695.78 713.312Z" fill="black"/>
<path d="M1682.06 690.375V713H1677.97V694.344H1677.84L1672.56 697.719V694L1678.16 690.375H1682.06Z" fill="black"/>
</g>
<g id="baekun_hall_134">
<path d="M1675.25 638.921C1676.39 634.654 1673.86 630.267 1669.59 629.123L1614.17 614.275C1609.9 613.131 1605.52 615.664 1604.37 619.931L1575.27 728.531C1574.13 732.799 1576.66 737.186 1580.93 738.329L1636.35 753.178C1640.62 754.322 1645 751.789 1646.15 747.521L1675.25 638.921Z" fill="#F7FBFF"/>
<path d="M1581.71 735.431L1580.93 738.329L1636.35 753.178L1637.12 750.28L1581.71 735.431ZM1578.17 729.307L1607.27 620.708C1607.99 618.041 1610.73 616.458 1613.4 617.172L1668.81 632.021C1671.48 632.736 1673.06 635.478 1672.35 638.145L1643.25 746.745C1642.53 749.412 1639.79 750.995 1637.12 750.28L1636.35 753.178L1636.75 753.274C1640.89 754.161 1645.04 751.655 1646.15 747.521L1675.25 638.921C1676.39 634.654 1673.86 630.267 1669.59 629.123L1614.17 614.275L1613.77 614.178C1609.63 613.291 1605.48 615.797 1604.37 619.931L1575.27 728.531L1575.18 728.932C1574.32 732.937 1576.64 736.953 1580.54 738.212L1580.93 738.329L1581.71 735.431C1579.04 734.716 1577.46 731.975 1578.17 729.307Z" fill="#2E2F33" fill-opacity="0.88"/>
<path d="M1633.37 690.782V687.532L1643.16 672.376H1648.22V687.438H1651.19V690.782H1648.22V695.001H1644.34V690.782H1633.37ZM1637.53 687.438H1644.41V677.001H1644.16L1637.53 687.282V687.438Z" fill="black"/>
<path d="M1621.78 695.313C1616.94 695.313 1613.5 692.688 1613.41 688.876H1617.5C1617.62 690.688 1619.44 691.876 1621.78 691.876C1624.28 691.876 1626.06 690.501 1626.06 688.501C1626.06 686.469 1624.31 685.001 1621.37 685.001H1619.34V681.876H1621.37C1623.78 681.876 1625.47 680.532 1625.44 678.563C1625.47 676.657 1624.03 675.376 1621.81 675.376C1619.69 675.376 1617.84 676.563 1617.78 678.469H1613.87C1613.97 674.657 1617.41 672.063 1621.84 672.063C1626.44 672.063 1629.41 674.876 1629.37 678.344C1629.41 680.876 1627.72 682.719 1625.25 683.219V683.407C1628.44 683.844 1630.25 685.876 1630.22 688.719C1630.25 692.532 1626.69 695.313 1621.78 695.313Z" fill="black"/>
<path d="M1608.06 672.376V695.001H1603.97V676.344H1603.84L1598.56 679.719V676.001L1604.16 672.376H1608.06Z" fill="black"/>
</g>
<g id="baekun_hall_135">
<path d="M1607.2 620.322C1608.35 616.054 1605.81 611.667 1601.55 610.524L1537.17 593.275C1532.9 592.131 1528.52 594.664 1527.37 598.931L1498.27 707.531C1497.13 711.799 1499.66 716.186 1503.93 717.329L1568.31 734.578C1572.57 735.722 1576.96 733.189 1578.1 728.921L1607.2 620.322Z" fill="#F7FBFF"/>
<path d="M1504.71 714.431L1503.93 717.329L1568.31 734.578L1569.08 731.68L1504.71 714.431ZM1501.17 708.308L1530.27 599.708C1530.99 597.041 1533.73 595.458 1536.4 596.172L1600.77 613.421C1603.44 614.136 1605.02 616.878 1604.3 619.545L1575.21 728.145C1574.49 730.812 1571.75 732.395 1569.08 731.68L1568.31 734.578L1568.71 734.674C1572.84 735.561 1577 733.056 1578.1 728.921L1607.2 620.322C1608.31 616.187 1605.97 611.942 1601.94 610.641L1601.55 610.524L1537.17 593.275C1532.9 592.131 1528.52 594.664 1527.37 598.931L1498.27 707.531C1497.13 711.799 1499.66 716.186 1503.93 717.329L1504.71 714.431C1502.04 713.717 1500.46 710.975 1501.17 708.308Z" fill="#2E2F33" fill-opacity="0.88"/>
<path d="M1570.81 675.313C1566.28 675.313 1562.97 672.625 1562.84 668.875H1566.81C1566.94 670.719 1568.66 672.032 1570.81 672.032C1573.34 672.032 1575.16 670.188 1575.16 667.688C1575.16 665.094 1573.28 663.25 1570.69 663.25C1568.94 663.219 1567.66 663.844 1566.94 665.188H1563.16L1564.53 652.375H1577.91V655.782H1567.87L1567.19 661.782H1567.41C1568.28 660.782 1569.94 660.063 1571.78 660.063C1576 660.063 1579.09 663.219 1579.09 667.563C1579.09 672.094 1575.69 675.313 1570.81 675.313Z" fill="black"/>
<path d="M1550.78 675.313C1545.94 675.313 1542.5 672.688 1542.41 668.875H1546.5C1546.62 670.688 1548.44 671.875 1550.78 671.875C1553.28 671.875 1555.06 670.5 1555.06 668.5C1555.06 666.469 1553.31 665 1550.37 665H1548.34V661.875H1550.37C1552.78 661.875 1554.47 660.532 1554.44 658.563C1554.47 656.657 1553.03 655.375 1550.81 655.375C1548.69 655.375 1546.84 656.563 1546.78 658.469H1542.87C1542.97 654.657 1546.41 652.063 1550.84 652.063C1555.44 652.063 1558.41 654.875 1558.37 658.344C1558.41 660.875 1556.72 662.719 1554.25 663.219V663.407C1557.44 663.844 1559.25 665.875 1559.22 668.719C1559.25 672.532 1555.69 675.313 1550.78 675.313Z" fill="black"/>
<path d="M1537.06 652.375V675H1532.97V656.344H1532.84L1527.56 659.719V656L1533.16 652.375H1537.06Z" fill="black"/>
</g>
<g id="baekun_hall_137">
<path d="M1453.93 578.779C1455.07 574.512 1452.54 570.125 1448.27 568.981L1229.17 510.275C1224.9 509.131 1220.52 511.664 1219.37 515.931L1190.27 624.531C1189.13 628.799 1191.66 633.186 1195.93 634.329L1415.03 693.036C1419.3 694.18 1423.68 691.647 1424.83 687.379L1453.93 578.779Z" fill="#F7FBFF"/>
<path d="M1196.71 631.431L1195.93 634.329L1415.03 693.036L1415.8 690.138L1196.71 631.431ZM1193.17 625.308L1222.27 516.708C1222.99 514.041 1225.73 512.458 1228.4 513.172L1447.49 571.879C1450.16 572.594 1451.74 575.336 1451.03 578.003L1421.93 686.603C1421.21 689.27 1418.47 690.853 1415.8 690.138L1415.03 693.036C1419.3 694.18 1423.68 691.647 1424.83 687.379L1453.93 578.779C1455.03 574.645 1452.69 570.4 1448.66 569.098L1448.27 568.981L1229.17 510.275C1224.9 509.131 1220.52 511.664 1219.37 515.931L1190.27 624.531C1189.13 628.799 1191.66 633.186 1195.93 634.329L1196.71 631.431C1194.04 630.717 1192.46 627.975 1193.17 625.308Z" fill="#2E2F33" fill-opacity="0.88"/>
<path d="M1332.62 611.999L1342.44 592.937V592.78H1331.06V589.374H1346.66V592.843L1336.84 611.999H1332.62Z" fill="black"/>
<path d="M1319.78 612.312C1314.94 612.312 1311.5 609.687 1311.41 605.874H1315.5C1315.62 607.687 1317.44 608.874 1319.78 608.874C1322.28 608.874 1324.06 607.499 1324.06 605.499C1324.06 603.468 1322.31 601.999 1319.37 601.999H1317.34V598.874H1319.37C1321.78 598.874 1323.47 597.53 1323.44 595.562C1323.47 593.655 1322.03 592.374 1319.81 592.374C1317.69 592.374 1315.84 593.562 1315.78 595.468H1311.87C1311.97 591.655 1315.41 589.062 1319.84 589.062C1324.44 589.062 1327.41 591.874 1327.37 595.343C1327.41 597.874 1325.72 599.718 1323.25 600.218V600.405C1326.44 600.843 1328.25 602.874 1328.22 605.718C1328.25 609.53 1324.69 612.312 1319.78 612.312Z" fill="black"/>
<path d="M1306.06 589.374V611.999H1301.97V593.343H1301.84L1296.56 596.718V592.999L1302.16 589.374H1306.06Z" fill="black"/>
</g>
<g id="baekun_hall_1f_stairs_main">
<path d="M921.221 347.048C919.916 343.636 921.084 339.818 924.255 338.004C937.741 330.29 976.911 311.5 1038.5 311.5C1099.98 311.5 1141.64 330.223 1156.23 337.962C1159.65 339.773 1160.93 343.843 1159.44 347.412L1145.93 379.94C1144.29 383.89 1139.84 385.851 1135.82 384.392L1086.23 366.394C1081.02 364.501 1075.5 368.365 1075.5 373.914V422.5C1075.5 426.918 1071.92 430.5 1067.5 430.5H1009.5C1005.08 430.5 1001.5 426.918 1001.5 422.5V374.065C1001.5 368.473 995.913 364.607 990.681 366.579L943.952 384.192C939.832 385.745 935.232 383.677 933.659 379.564L921.221 347.048Z" fill="#D9FFE6"/>
<path d="M1067.5 427.5L1067.5 430.5H1009.5L1009.5 427.5H1067.5ZM1072.5 422.5V373.914C1072.5 366.283 1080.08 360.971 1087.26 363.574L1136.84 381.572C1139.35 382.484 1142.14 381.258 1143.16 378.79L1156.67 346.262C1157.61 343.998 1156.76 341.637 1154.83 340.612C1140.54 333.035 1099.37 314.5 1038.5 314.5C977.541 314.5 938.88 333.095 925.745 340.608C923.98 341.618 923.194 343.811 924.022 345.977L936.461 378.492C937.444 381.062 940.319 382.355 942.894 381.385L989.623 363.771C996.817 361.06 1004.5 366.376 1004.5 374.064V422.5C1004.5 425.261 1006.74 427.5 1009.5 427.5L1009.5 430.5C1005.08 430.5 1001.5 426.918 1001.5 422.5V374.065C1001.5 368.473 995.913 364.607 990.681 366.579L943.952 384.192L943.564 384.327C939.677 385.572 935.464 383.678 933.815 379.944L933.659 379.564L921.221 347.048C919.956 343.743 921.014 340.056 923.964 338.18L924.255 338.004C937.741 330.29 976.911 311.5 1038.5 311.5C1099.98 311.5 1141.64 330.223 1156.23 337.962C1159.65 339.773 1160.93 343.843 1159.44 347.412L1145.93 379.94L1145.77 380.305C1144.07 383.89 1139.99 385.687 1136.2 384.519L1135.82 384.392L1086.23 366.394C1081.02 364.501 1075.5 368.365 1075.5 373.914V422.5C1075.5 426.918 1071.92 430.5 1067.5 430.5L1067.5 427.5C1070.26 427.5 1072.5 425.261 1072.5 422.5Z" fill="#2E2F33" fill-opacity="0.88"/>
<path d="M1063.94 337.633C1062.89 337.246 1061.73 337.786 1061.34 338.834L1057.58 349.054H1036.28L1039.81 340.288C1040.22 339.25 1039.72 338.069 1038.68 337.652C1037.65 337.235 1036.47 337.741 1036.05 338.776L1016.43 387.58C1016.02 388.618 1016.52 389.798 1017.56 390.215C1017.81 390.314 1018.06 390.362 1018.31 390.362C1019.12 390.362 1019.88 389.882 1020.19 389.092L1024.22 379.069C1024.31 379.081 1024.38 379.12 1024.47 379.12H1046.52L1043.39 387.638C1043 388.687 1043.54 389.852 1044.59 390.236C1044.82 390.322 1045.06 390.362 1045.29 390.362C1046.11 390.362 1046.89 389.854 1047.19 389.035L1065.14 340.231C1065.53 339.182 1064.99 338.017 1063.94 337.633ZM1035.08 353.102H1056.09L1052.85 361.909H1031.12L1034.69 353.024C1034.82 353.05 1034.94 353.102 1035.08 353.102ZM1025.83 375.07L1029.51 365.902C1029.61 365.915 1029.7 365.959 1029.8 365.959H1051.36L1048.01 375.07H1025.83Z" fill="#6E4944"/>
</g>
<g id="baekun_hall_1f_stairs_right">
<path d="M2038.03 535.197C2039.18 530.929 2036.64 526.543 2032.38 525.399L1969.57 508.571C1965.31 507.428 1960.92 509.961 1959.78 514.228L1929.57 626.955C1928.43 631.223 1930.96 635.61 1935.23 636.753L1998.03 653.581C2002.3 654.725 2006.68 652.192 2007.83 647.924L2038.03 535.197Z" fill="#D9FFE6"/>
<path d="M1936 633.856L1935.23 636.753L1998.03 653.581L1998.81 650.684L1936 633.856ZM1932.47 627.732L1962.67 515.005C1963.39 512.337 1966.13 510.755 1968.8 511.469L2031.6 528.297C2034.27 529.011 2035.85 531.753 2035.13 534.421L2004.93 647.148C2004.21 649.815 2001.47 651.398 1998.81 650.684L1998.03 653.581L1998.43 653.678C2002.44 654.536 2006.45 652.216 2007.71 648.319L2007.83 647.924L2038.03 535.197C2039.18 530.929 2036.64 526.543 2032.38 525.399L1969.57 508.571C1965.31 507.428 1960.92 509.961 1959.78 514.228L1929.57 626.955L1929.48 627.356C1928.62 631.361 1930.94 635.378 1934.83 636.637L1935.23 636.753L1936 633.856C1933.34 633.141 1931.75 630.4 1932.47 627.732Z" fill="#2E2F33" fill-opacity="0.88"/>
<path d="M2007.94 554.633C2006.89 554.246 2005.73 554.786 2005.34 555.835L2001.58 566.054H1980.28L1983.81 557.288C1984.22 556.25 1983.72 555.07 1982.68 554.653C1981.65 554.236 1980.47 554.741 1980.05 555.776L1960.43 604.58C1960.02 605.618 1960.52 606.799 1961.56 607.216C1961.8 607.315 1962.06 607.363 1962.31 607.363C1963.11 607.363 1963.87 606.883 1964.19 606.092L1968.22 596.069C1968.31 596.081 1968.38 596.12 1968.47 596.12H1990.52L1987.39 604.639C1987 605.687 1987.54 606.853 1988.59 607.237C1988.82 607.322 1989.06 607.363 1989.29 607.363C1990.11 607.363 1990.89 606.854 1991.19 606.035L2009.14 557.231C2009.53 556.183 2008.99 555.017 2007.94 554.633ZM1979.08 570.103H2000.09L1996.85 578.909H1975.12L1978.69 570.025C1978.82 570.05 1978.94 570.103 1979.08 570.103ZM1969.83 592.07L1973.51 582.902C1973.61 582.916 1973.7 582.959 1973.8 582.959H1995.36L1992.01 592.07H1969.83Z" fill="#6E4944"/>
</g>
<g id="baekun_hall_1f_stairs_left">
<path d="M9.27458 530.423C8.13104 526.155 10.6637 521.768 14.9314 520.625L83.4148 502.275C87.6825 501.131 92.0692 503.664 93.2128 507.931L123.418 620.659C124.561 624.926 122.029 629.313 117.761 630.457L49.2777 648.807C45.01 649.95 40.6233 647.418 39.4797 643.15L9.27458 530.423Z" fill="#D9FFE6"/>
<path d="M116.985 627.559L117.761 630.457L49.2777 648.807L48.5013 645.909L116.985 627.559ZM120.52 621.435L90.3152 508.708C89.6005 506.041 86.8587 504.458 84.1915 505.172L15.7079 523.522C13.0406 524.237 11.4577 526.979 12.1724 529.646L42.3776 642.374C43.0924 645.041 45.8341 646.624 48.5013 645.909L49.2777 648.807L48.8769 648.903C44.8721 649.761 40.8555 647.442 39.5966 643.544L39.4797 643.15L9.27458 530.423C8.13104 526.155 10.6637 521.768 14.9314 520.625L83.4148 502.275L83.8149 502.178C87.9534 501.291 92.1049 503.797 93.2128 507.931L123.418 620.659L123.514 621.059C124.373 625.064 122.054 629.081 118.156 630.34L117.761 630.457L116.985 627.559C119.652 626.844 121.235 624.103 120.52 621.435Z" fill="#2E2F33" fill-opacity="0.88"/>
<path d="M89.9409 549.634C88.8924 549.247 87.7284 549.787 87.3414 550.836L83.5809 561.055H62.2824L65.8059 552.289C66.2229 551.251 65.7204 550.071 64.6824 549.654C63.6444 549.237 62.4654 549.742 62.0484 550.777L42.4329 599.581C42.0159 600.619 42.5184 601.8 43.5564 602.217C43.8039 602.316 44.0589 602.364 44.3109 602.364C45.1134 602.364 45.8739 601.884 46.1904 601.093L50.2194 591.07C50.3064 591.082 50.3829 591.121 50.4729 591.121H72.5199L69.3864 599.64C69.0009 600.688 69.5379 601.854 70.5879 602.238C70.8189 602.323 71.0559 602.364 71.2869 602.364C72.1104 602.364 72.8859 601.855 73.1874 601.036L91.1424 552.232C91.5279 551.184 90.9909 550.018 89.9409 549.634ZM61.0749 565.104H82.0899L78.8499 573.91H57.1149L60.6864 565.026C60.8169 565.051 60.9369 565.104 61.0749 565.104ZM51.8259 587.071L55.5114 577.903C55.6074 577.917 55.6944 577.96 55.7949 577.96H77.3619L74.0094 587.071H51.8259Z" fill="#6E4944"/>
</g>
<g id="baekun_hall_1f_toilet_girl">
<path d="M1352.15 346.779C1353.29 342.494 1350.74 338.093 1346.44 336.969L1271.93 317.458C1267.76 316.368 1263.48 318.767 1262.24 322.888L1235.34 412.121C1234.04 416.438 1236.56 420.977 1240.92 422.153L1280.64 432.89C1284.95 434.054 1287.47 438.511 1286.25 442.799L1278.18 471.213C1276.96 475.5 1279.48 479.956 1283.78 481.121L1306.22 487.194C1310.49 488.351 1314.89 485.819 1316.04 481.543L1352.15 346.779Z" fill="#FED9C4"/>
<path d="M1316.04 481.543L1352.15 346.779C1353.29 342.494 1350.74 338.093 1346.44 336.969L1271.93 317.458C1267.76 316.368 1263.48 318.767 1262.24 322.888L1235.34 412.121C1234.04 416.438 1236.56 420.977 1240.92 422.153L1280.64 432.89C1284.95 434.054 1287.47 438.511 1286.25 442.799L1278.18 471.213C1276.96 475.5 1279.48 479.956 1283.78 481.121L1306.22 487.194L1307 484.299L1284.57 478.225C1281.88 477.497 1280.3 474.712 1281.07 472.033L1289.14 443.619C1290.81 437.722 1287.34 431.594 1281.43 429.994L1241.7 419.257C1238.98 418.521 1237.4 415.685 1238.21 412.987L1265.11 323.754C1265.89 321.179 1268.56 319.679 1271.17 320.361L1345.68 339.872C1348.37 340.574 1349.97 343.325 1349.25 346.003L1313.14 480.766C1312.42 483.439 1309.67 485.021 1307 484.299L1306.22 487.194C1310.49 488.351 1314.89 485.819 1316.04 481.543Z" fill="#2E2F33" fill-opacity="0.88"/>
<path d="M1306.75 363.252H1281.25C1274.62 363.252 1269.25 368.624 1269.25 375.252V400.752C1269.25 407.379 1274.62 412.752 1281.25 412.752H1306.75C1313.38 412.752 1318.75 407.379 1318.75 400.752V375.252C1318.75 368.624 1313.38 363.252 1306.75 363.252Z" fill="#E76D6D"/>
<path d="M1291.28 385.978L1285.81 398.526C1284.96 400.489 1286.39 402.687 1288.54 402.687H1299.47C1301.61 402.687 1303.05 400.489 1302.19 398.526L1296.73 385.978C1295.69 383.596 1292.31 383.596 1291.27 385.978H1291.28Z" fill="white"/>
<path d="M1294 381.382C1296.23 381.382 1298.03 379.577 1298.03 377.35C1298.03 375.123 1296.23 373.318 1294 373.318C1291.77 373.318 1289.97 375.123 1289.97 377.35C1289.97 379.577 1291.77 381.382 1294 381.382Z" fill="white"/>
</g>
<g id="baekun_hall_1f_toilet_boy">
<path d="M722.275 338.434C721.131 334.167 723.664 329.78 727.931 328.636L796.459 310.275C800.726 309.131 805.113 311.664 806.257 315.931L842.895 452.666C844.038 456.934 841.506 461.321 837.238 462.464L768.711 480.826C764.443 481.97 760.056 479.437 758.913 475.169L722.275 338.434Z" fill="#FED9C4"/>
<path d="M836.461 459.567L837.238 462.464L768.711 480.826L767.934 477.929L836.461 459.567ZM839.997 453.443L803.359 316.708C802.644 314.041 799.902 312.458 797.235 313.172L728.708 331.534C726.041 332.249 724.458 334.991 725.172 337.658L761.81 474.393C762.525 477.06 765.267 478.643 767.934 477.929L768.711 480.826L768.31 480.923C764.305 481.781 760.288 479.461 759.029 475.564L758.913 475.169L722.275 338.434C721.167 334.3 723.509 330.055 727.536 328.753L727.931 328.636L796.459 310.275C800.726 309.131 805.113 311.664 806.257 315.931L842.895 452.666L842.991 453.066C843.85 457.071 841.53 461.088 837.633 462.348L837.238 462.464L836.461 459.567C839.128 458.852 840.711 456.11 839.997 453.443Z" fill="#2E2F33" fill-opacity="0.88"/>
<path d="M795.751 370.25H770.251C763.623 370.25 758.251 375.623 758.251 382.25V407.75C758.251 414.377 763.623 419.75 770.251 419.75H795.751C802.378 419.75 807.751 414.377 807.751 407.75V382.25C807.751 375.623 802.378 370.25 795.751 370.25Z" fill="#3076D1"/>
<path d="M785.726 407.889L791.192 395.342C792.047 393.378 790.609 391.181 788.467 391.181H777.536C775.394 391.181 773.954 393.378 774.811 395.342L780.277 407.889C781.315 410.271 784.691 410.271 785.729 407.889H785.726Z" fill="white"/>
<path d="M783.001 388.388C785.228 388.388 787.033 386.583 787.033 384.356C787.033 382.129 785.228 380.324 783.001 380.324C780.774 380.324 778.969 382.129 778.969 384.356C778.969 386.583 780.774 388.388 783.001 388.388Z" fill="white"/>
</g>
<g id="baekun_hall_1f_elevator">
<path d="M1289.1 441.263C1290.24 436.996 1287.71 432.609 1283.44 431.465L1240.79 420.036C1236.52 418.893 1232.14 421.425 1230.99 425.693L1222.96 455.663C1221.82 459.93 1224.35 464.317 1228.62 465.461L1271.27 476.89C1275.54 478.033 1279.93 475.501 1281.07 471.233L1289.1 441.263Z" fill="#C4C4C4"/>
<path d="M1229.4 462.562L1228.62 465.461L1271.27 476.89L1272.05 473.992L1229.4 462.562ZM1225.86 456.439L1233.89 426.47C1234.6 423.802 1237.35 422.22 1240.01 422.934L1282.67 434.363C1285.34 435.078 1286.92 437.82 1286.2 440.487L1278.17 470.456C1277.46 473.123 1274.72 474.706 1272.05 473.992L1271.27 476.89L1271.67 476.987C1275.81 477.873 1279.96 475.367 1281.07 471.233L1289.1 441.263C1290.21 437.129 1287.87 432.884 1283.84 431.582L1283.44 431.465L1240.79 420.036L1240.39 419.94C1236.25 419.053 1232.1 421.559 1230.99 425.693L1222.96 455.663L1222.87 456.063C1222.01 460.068 1224.33 464.085 1228.22 465.344L1228.62 465.461L1229.4 462.562C1226.73 461.848 1225.14 459.106 1225.86 456.439Z" fill="#2E2F33" fill-opacity="0.88"/>
<path d="M1264.93 430.674H1247.08C1242.44 430.674 1238.68 434.435 1238.68 439.074V456.924C1238.68 461.563 1242.44 465.324 1247.08 465.324H1264.93C1269.56 465.324 1273.33 461.563 1273.33 456.924V439.074C1273.33 434.435 1269.56 430.674 1264.93 430.674ZM1256.86 437.443H1257.83C1257.92 437.443 1258 437.366 1258 437.269V435.126C1258 435.044 1258.07 434.978 1258.15 434.978H1259.74C1259.82 434.978 1259.89 435.044 1259.89 435.126V437.269C1259.89 437.366 1259.96 437.443 1260.06 437.443H1261.03C1261.17 437.443 1261.24 437.611 1261.14 437.71L1259.16 439.691C1259.04 439.81 1258.85 439.81 1258.73 439.691L1256.75 437.71C1256.65 437.611 1256.72 437.443 1256.86 437.443ZM1250.4 437.048L1252.38 435.067C1252.5 434.948 1252.69 434.948 1252.8 435.067L1254.79 437.048C1254.88 437.147 1254.81 437.315 1254.68 437.315H1253.71C1253.61 437.315 1253.53 437.393 1253.53 437.489V439.632C1253.53 439.714 1253.47 439.781 1253.38 439.781H1251.8C1251.71 439.781 1251.65 439.714 1251.65 439.632V437.489C1251.65 437.393 1251.57 437.315 1251.47 437.315H1250.5C1250.36 437.315 1250.3 437.147 1250.4 437.048ZM1268.84 455.844C1268.84 458.377 1266.78 460.437 1264.25 460.437H1247.75C1245.22 460.437 1243.16 458.377 1243.16 455.844V445.932C1243.16 443.4 1245.22 441.34 1247.75 441.34H1264.25C1266.78 441.34 1268.84 443.4 1268.84 445.932V455.844Z" fill="#4592FB"/>
<path d="M1264.25 442.152H1247.75C1245.66 442.152 1243.97 443.848 1243.97 445.932V455.844C1243.97 457.929 1245.66 459.626 1247.75 459.626H1264.25C1266.34 459.626 1268.03 457.93 1268.03 455.844V445.932C1268.03 443.848 1266.34 442.152 1264.25 442.152ZM1262.39 444.576C1262.93 444.576 1263.36 445.008 1263.36 445.542C1263.36 446.075 1262.93 446.508 1262.39 446.508C1261.86 446.508 1261.43 446.075 1261.43 445.542C1261.43 445.008 1261.86 444.576 1262.39 444.576ZM1255.89 444.576C1256.42 444.576 1256.85 445.008 1256.85 445.542C1256.85 446.075 1256.42 446.508 1255.89 446.508C1255.35 446.508 1254.92 446.075 1254.92 445.542C1254.92 445.008 1255.35 444.576 1255.89 444.576ZM1249.38 444.576C1249.92 444.576 1250.35 445.008 1250.35 445.542C1250.35 446.075 1249.92 446.508 1249.38 446.508C1248.85 446.508 1248.42 446.075 1248.42 445.542C1248.42 445.008 1248.85 444.576 1249.38 444.576ZM1252.18 451.427C1252.18 451.73 1251.94 451.975 1251.63 451.975C1251.33 451.975 1251.09 451.73 1251.09 451.427V448.555H1250.8V456.469C1250.8 456.8 1250.53 457.068 1250.2 457.068C1249.87 457.068 1249.6 456.8 1249.6 456.469V451.917H1249.16V456.469C1249.16 456.8 1248.89 457.068 1248.56 457.068C1248.23 457.068 1247.96 456.8 1247.96 456.469V448.555H1247.6V451.427C1247.6 451.73 1247.35 451.975 1247.05 451.975C1246.75 451.975 1246.5 451.73 1246.5 451.427V448.042C1246.5 447.436 1246.99 446.946 1247.6 446.946H1251.08C1251.69 446.946 1252.18 447.436 1252.18 448.042V451.427H1252.18ZM1258.69 451.427C1258.69 451.73 1258.44 451.975 1258.14 451.975C1257.84 451.975 1257.59 451.73 1257.59 451.427V448.555H1257.3V456.469C1257.3 456.8 1257.04 457.068 1256.71 457.068C1256.37 457.068 1256.11 456.8 1256.11 456.469V451.917H1255.67V456.469C1255.67 456.8 1255.4 457.068 1255.07 457.068C1254.74 457.068 1254.47 456.8 1254.47 456.469V448.555H1254.1V451.427C1254.1 451.73 1253.86 451.975 1253.55 451.975C1253.25 451.975 1253.01 451.73 1253.01 451.427V448.042C1253.01 447.436 1253.5 446.946 1254.1 446.946H1257.59C1258.2 446.946 1258.69 447.436 1258.69 448.042L1258.69 451.427ZM1265.19 451.427C1265.19 451.73 1264.95 451.975 1264.64 451.975C1264.34 451.975 1264.1 451.73 1264.1 451.427V448.555H1263.81V456.469C1263.81 456.8 1263.54 457.068 1263.21 457.068C1262.88 457.068 1262.61 456.8 1262.61 456.469V451.917H1262.17V456.469C1262.17 456.8 1261.9 457.068 1261.57 457.068C1261.24 457.068 1260.97 456.8 1260.97 456.469V448.555H1260.61V451.427C1260.61 451.73 1260.36 451.975 1260.06 451.975C1259.75 451.975 1259.51 451.73 1259.51 451.427V448.042C1259.51 447.436 1260 446.946 1260.61 446.946H1264.09C1264.7 446.946 1265.19 447.436 1265.19 448.042V451.427H1265.19Z" fill="#4592FB"/>
<path d="M1255.89 446.508C1256.42 446.508 1256.85 446.075 1256.85 445.542C1256.85 445.008 1256.42 444.576 1255.89 444.576C1255.35 444.576 1254.92 445.008 1254.92 445.542C1254.92 446.075 1255.35 446.508 1255.89 446.508Z" fill="white"/>
<path d="M1249.38 446.508C1249.92 446.508 1250.35 446.075 1250.35 445.542C1250.35 445.008 1249.92 444.576 1249.38 444.576C1248.85 444.576 1248.42 445.008 1248.42 445.542C1248.42 446.075 1248.85 446.508 1249.38 446.508Z" fill="white"/>
<path d="M1262.39 446.508C1262.93 446.508 1263.36 446.075 1263.36 445.542C1263.36 445.008 1262.93 444.576 1262.39 444.576C1261.86 444.576 1261.43 445.008 1261.43 445.542C1261.43 446.075 1261.86 446.508 1262.39 446.508Z" fill="white"/>
<path d="M1264.25 441.342H1247.75C1245.22 441.342 1243.16 443.4 1243.16 445.93V455.842C1243.16 458.373 1245.22 460.441 1247.75 460.441H1264.25C1266.78 460.441 1268.84 458.373 1268.84 455.842V445.93C1268.84 443.4 1266.78 441.342 1264.25 441.342ZM1268.03 455.842C1268.03 457.932 1266.33 459.622 1264.25 459.622H1247.75C1245.67 459.622 1243.97 457.932 1243.97 455.842V445.93C1243.97 443.851 1245.67 442.15 1247.75 442.15H1264.25C1266.33 442.15 1268.03 443.851 1268.03 445.93V455.842Z" fill="white"/>
<path d="M1265.19 448.041V451.422C1265.19 451.726 1264.95 451.978 1264.64 451.978C1264.34 451.978 1264.1 451.726 1264.1 451.422V448.555H1263.81V456.472C1263.81 456.798 1263.54 457.071 1263.21 457.071C1262.88 457.071 1262.61 456.798 1262.61 456.472V451.915H1262.17V456.472C1262.17 456.798 1261.9 457.071 1261.58 457.071C1261.24 457.071 1260.98 456.798 1260.98 456.472V448.555H1260.61V451.422C1260.61 451.726 1260.36 451.978 1260.06 451.978C1259.76 451.978 1259.51 451.726 1259.51 451.422V448.041C1259.51 447.432 1260 446.949 1260.61 446.949H1264.1C1264.7 446.949 1265.19 447.432 1265.19 448.041Z" fill="white"/>
<path d="M1252.18 448.041V451.422C1252.18 451.726 1251.94 451.978 1251.63 451.978C1251.33 451.978 1251.09 451.726 1251.09 451.422L1251.09 448.555H1250.8V456.472C1250.8 456.798 1250.53 457.071 1250.2 457.071C1249.87 457.071 1249.61 456.798 1249.61 456.472V451.915H1249.16V456.472C1249.16 456.798 1248.89 457.071 1248.57 457.071C1248.23 457.071 1247.97 456.798 1247.97 456.472V448.555H1247.6V451.422C1247.6 451.726 1247.35 451.978 1247.05 451.978C1246.75 451.978 1246.5 451.726 1246.5 451.422V448.041C1246.5 447.432 1246.99 446.949 1247.6 446.949H1251.09C1251.69 446.949 1252.18 447.432 1252.18 448.041Z" fill="white"/>
<path d="M1258.69 448.041V451.422C1258.69 451.726 1258.45 451.978 1258.14 451.978C1257.84 451.978 1257.6 451.726 1257.6 451.422V448.555H1257.3V456.472C1257.3 456.798 1257.04 457.071 1256.7 457.071C1256.38 457.071 1256.1 456.798 1256.1 456.472V451.915H1255.66V456.472C1255.66 456.798 1255.4 457.071 1255.07 457.071C1254.74 457.071 1254.47 456.798 1254.47 456.472V448.555H1254.1V451.422C1254.1 451.726 1253.86 451.978 1253.55 451.978C1253.25 451.978 1253.01 451.726 1253.01 451.422V448.041C1253.01 447.432 1253.5 446.949 1254.1 446.949H1257.6C1258.19 446.949 1258.69 447.432 1258.69 448.041Z" fill="white"/>
<path d="M1250.51 437.315H1251.47C1251.57 437.315 1251.65 437.393 1251.65 437.49V439.633C1251.65 439.715 1251.71 439.781 1251.8 439.781H1253.39C1253.47 439.781 1253.53 439.715 1253.53 439.633V437.49C1253.53 437.393 1253.61 437.315 1253.71 437.315H1254.68C1254.82 437.315 1254.89 437.146 1254.79 437.049L1252.81 435.067C1252.69 434.949 1252.5 434.949 1252.38 435.067L1250.4 437.049C1250.3 437.147 1250.37 437.315 1250.51 437.315Z" fill="white"/>
<path d="M1258.73 439.691C1258.85 439.81 1259.04 439.81 1259.16 439.691L1261.14 437.71C1261.24 437.611 1261.16 437.443 1261.03 437.443H1260.06C1259.96 437.443 1259.88 437.366 1259.88 437.269V435.126C1259.88 435.044 1259.82 434.978 1259.73 434.978H1258.15C1258.06 434.978 1258 435.044 1258 435.126V437.269C1258 437.366 1257.92 437.443 1257.82 437.443H1256.85C1256.72 437.443 1256.65 437.611 1256.74 437.71L1258.73 439.691Z" fill="white"/>
</g>
<g id="baekun_hall_1f_gate">
<path d="M1109 648C1109 688.317 1076.32 721 1036 721C995.683 721 963 688.317 963 648C963 607.683 995.683 575 1036 575C1076.32 575 1109 607.683 1109 648Z" fill="#FAA4FF"/>
<path d="M1106 648C1106 609.34 1074.66 578 1036 578C997.34 578 966 609.34 966 648C966 686.66 997.34 718 1036 718V721C995.683 721 963 688.317 963 648C963 607.683 995.683 575 1036 575C1076.32 575 1109 607.683 1109 648C1109 688.317 1076.32 721 1036 721V718C1074.66 718 1106 686.66 1106 648Z" fill="#2E2F33" fill-opacity="0.88"/>
<path d="M1052.02 611.248H1019.98C1015.57 611.248 1012 614.822 1012 619.23V676.772C1012 681.18 1015.57 684.754 1019.98 684.754H1052.02C1056.43 684.754 1060 681.18 1060 676.772V619.23C1060 614.822 1056.43 611.248 1052.02 611.248Z" fill="#5E403B"/>
<path d="M1049.01 653.704C1052.16 653.704 1054.71 651.15 1054.71 648C1054.71 644.85 1052.16 642.296 1049.01 642.296C1045.86 642.296 1043.31 644.85 1043.31 648C1043.31 651.15 1045.86 653.704 1049.01 653.704Z" fill="#FFDE57"/>
<path d="M1049.01 650.236C1050.24 650.236 1051.25 649.235 1051.25 648C1051.25 646.765 1050.24 645.764 1049.01 645.764C1047.78 645.764 1046.77 646.765 1046.77 648C1046.77 649.235 1047.78 650.236 1049.01 650.236Z" fill="#CB8C00"/>
<path d="M1049.01 645.772H1039.52C1038.29 645.772 1037.29 646.771 1037.29 648.004C1037.29 649.237 1038.29 650.236 1039.52 650.236H1049.01C1050.25 650.236 1051.25 649.237 1051.25 648.004C1051.25 646.771 1050.25 645.772 1049.01 645.772Z" fill="#CB8C00"/>
</g>
<g id="baekun_hall_1f_gate_left">
<path d="M83 689C83 709.435 66.4345 726 46 726C25.5655 726 9 709.435 9 689C9 668.565 25.5655 652 46 652C66.4345 652 83 668.565 83 689Z" fill="#B1A4FF"/>
<path d="M80 689C80 670.222 64.7777 655 46 655C27.2223 655 12 670.222 12 689C12 707.778 27.2223 723 46 723V726C25.5655 726 9 709.435 9 689C9 668.565 25.5655 652 46 652C66.4345 652 83 668.565 83 689C83 709.435 66.4345 726 46 726V723C64.7777 723 80 707.778 80 689Z" fill="#2E2F33" fill-opacity="0.88"/>
<path d="M54.1251 670.375H37.8877C35.6533 670.375 33.842 672.186 33.842 674.42V703.586C33.842 705.82 35.6533 707.631 37.8877 707.631H54.1251C56.3595 707.631 58.1708 705.82 58.1708 703.586V674.42C58.1708 672.186 56.3595 670.375 54.1251 670.375Z" fill="#5E403B"/>
<path d="M52.6005 691.894C54.1972 691.894 55.4916 690.599 55.4916 689.002C55.4916 687.406 54.1972 686.111 52.6005 686.111C51.0038 686.111 49.7094 687.406 49.7094 689.002C49.7094 690.599 51.0038 691.894 52.6005 691.894Z" fill="#FFDE57"/>
<path d="M52.6005 690.136C53.2264 690.136 53.7338 689.628 53.7338 689.002C53.7338 688.377 53.2264 687.869 52.6005 687.869C51.9746 687.869 51.4672 688.377 51.4672 689.002C51.4672 689.628 51.9746 690.136 52.6005 690.136Z" fill="#CB8C00"/>
<path d="M52.6025 687.873H47.7895C47.1647 687.873 46.6582 688.38 46.6582 689.005C46.6582 689.629 47.1647 690.136 47.7895 690.136H52.6025C53.2273 690.136 53.7338 689.629 53.7338 689.005C53.7338 688.38 53.2273 687.873 52.6025 687.873Z" fill="#CB8C00"/>
</g>
<g id="baekun_hall_1f_gate_right">
<path d="M2037 687C2037 707.435 2020.43 724 2000 724C1979.57 724 1963 707.435 1963 687C1963 666.565 1979.57 650 2000 650C2020.43 650 2037 666.565 2037 687Z" fill="#B1A4FF"/>
<path d="M2034 687C2034 668.222 2018.78 653 2000 653C1981.22 653 1966 668.222 1966 687C1966 705.778 1981.22 721 2000 721V724C1979.57 724 1963 707.435 1963 687C1963 666.565 1979.57 650 2000 650C2020.43 650 2037 666.565 2037 687C2037 707.435 2020.43 724 2000 724V721C2018.78 721 2034 705.778 2034 687Z" fill="#2E2F33" fill-opacity="0.88"/>
<path d="M2008.13 668.375H1991.89C1989.65 668.375 1987.84 670.186 1987.84 672.42V701.586C1987.84 703.82 1989.65 705.631 1991.89 705.631H2008.13C2010.36 705.631 2012.17 703.82 2012.17 701.586V672.42C2012.17 670.186 2010.36 668.375 2008.13 668.375Z" fill="#5E403B"/>
<path d="M2006.6 689.894C2008.2 689.894 2009.49 688.599 2009.49 687.002C2009.49 685.406 2008.2 684.111 2006.6 684.111C2005 684.111 2003.71 685.406 2003.71 687.002C2003.71 688.599 2005 689.894 2006.6 689.894Z" fill="#FFDE57"/>
<path d="M2006.6 688.136C2007.23 688.136 2007.73 687.628 2007.73 687.002C2007.73 686.377 2007.23 685.869 2006.6 685.869C2005.97 685.869 2005.47 686.377 2005.47 687.002C2005.47 687.628 2005.97 688.136 2006.6 688.136Z" fill="#CB8C00"/>
<path d="M2006.6 685.873H2001.79C2001.16 685.873 2000.66 686.38 2000.66 687.005C2000.66 687.629 2001.16 688.136 2001.79 688.136H2006.6C2007.23 688.136 2007.73 687.629 2007.73 687.005C2007.73 686.38 2007.23 685.873 2006.6 685.873Z" fill="#CB8C00"/>
</g>
</g>
</svg>
