<svg width="2118" height="1436" viewBox="0 0 2118 1436" fill="none" xmlns="http://www.w3.org/2000/svg">
<g id="convergence_hall_floor_3">
<g id="Vector">
<path d="M3 260.5H322V481H767V3H1418.5V392.5H1517.5V257H2115V798H1746.5V1056H2001V1432.5H1252.5V812H560.5V1318.5H71V974.5H3V260.5Z" fill="#999999"/>
<path d="M1421.5 0V389.5H1514.5V254H2118V801H1749.5V1053H2004V1435.5H1249.5V815H563.5V1321.5H68V977.5H0V257.5H325V478H764V0H1421.5ZM770 484H319V263.5H6V971.5H74V1315.5H557.5V809H1255.5V1429.5H1998V1059H1743.5V795H2112V260H1520.5V395.5H1415.5V6H770V484Z" fill="black"/>
</g>
<g id="Vector_2">
<path d="M1394 741C1394 736.582 1397.58 733 1402 733H1512C1516.42 733 1520 736.582 1520 741V784C1520 788.418 1523.58 792 1528 792H1736C1740.42 792 1744 795.582 1744 800V1054C1744 1058.42 1740.42 1062 1736 1062H1402C1397.58 1062 1394 1058.42 1394 1054V741Z" fill="#F7FBFF"/>
<path d="M1736 1059V1062H1402L1402 1059H1736ZM1741 1054V800C1741 797.239 1738.76 795 1736 795H1528C1521.92 795 1517 790.075 1517 784V741C1517 738.239 1514.76 736 1512 736H1402C1399.24 736 1397 738.239 1397 741V1054C1397 1056.76 1399.24 1059 1402 1059L1402 1062L1401.59 1061.99C1397.5 1061.78 1394.22 1058.5 1394.01 1054.41L1394 1054V741C1394 736.582 1397.58 733 1402 733H1512C1516.42 733 1520 736.582 1520 741V784L1520.01 784.412C1520.23 788.639 1523.72 792 1528 792H1736C1740.42 792 1744 795.582 1744 800V1054L1743.99 1054.41C1743.77 1058.64 1740.28 1062 1736 1062V1059C1738.76 1059 1741 1056.76 1741 1054Z" fill="#2E2F33" fill-opacity="0.88"/>
</g>
<g id="convergence_hall_3f_stairs_left_to_2f_1">
<path d="M402 615C402 610.582 405.582 607 410 607H486C490.418 607 494 610.582 494 615V668C494 672.418 490.418 676 486 676H410C405.582 676 402 672.418 402 668V615Z" fill="#D9FFE6"/>
<path d="M486 673V676H410L410 673H486ZM491 668V615C491 612.239 488.761 610 486 610H410C407.239 610 405 612.239 405 615V668C405 670.761 407.239 673 410 673L410 676L409.588 675.989C405.498 675.782 402.218 672.502 402.011 668.412L402 668V615C402 610.582 405.582 607 410 607H486C490.418 607 494 610.582 494 615V668C494 672.28 490.639 675.775 486.412 675.989L486 676V673C488.761 673 491 670.761 491 668Z" fill="#2E2F33" fill-opacity="0.88"/>
</g>
<g id="void">
<path d="M74 1143C74 1138.58 77.5817 1135 82 1135H185C189.418 1135 193 1138.58 193 1143V1193C193 1197.42 189.418 1201 185 1201H82C77.5817 1201 74 1197.42 74 1193V1143Z" fill="#474747"/>
<path d="M185 1198V1201H82L82 1198H185ZM190 1193V1143C190 1140.24 187.761 1138 185 1138H82C79.2386 1138 77 1140.24 77 1143V1193C77 1195.76 79.2386 1198 82 1198L82 1201L81.5879 1200.99C77.4976 1200.78 74.2183 1197.5 74.0107 1193.41L74 1193V1143C74 1138.58 77.5817 1135 82 1135H185C189.418 1135 193 1138.58 193 1143V1193L192.989 1193.41C192.782 1197.5 189.502 1200.78 185.412 1200.99L185 1201V1198C187.761 1198 190 1195.76 190 1193Z" fill="#2E2F33" fill-opacity="0.88"/>
</g>
<g id="void_2">
<path d="M1389 1194C1389 1189.58 1392.58 1186 1397 1186H1561C1565.42 1186 1569 1189.58 1569 1194V1255C1569 1259.42 1565.42 1263 1561 1263H1397C1392.58 1263 1389 1259.42 1389 1255V1194Z" fill="#474747"/>
<path d="M1561 1260V1263H1397L1397 1260H1561ZM1566 1255V1194C1566 1191.24 1563.76 1189 1561 1189H1397C1394.24 1189 1392 1191.24 1392 1194V1255C1392 1257.76 1394.24 1260 1397 1260L1397 1263L1396.59 1262.99C1392.36 1262.77 1389 1259.28 1389 1255V1194C1389 1189.58 1392.58 1186 1397 1186H1561C1565.42 1186 1569 1189.58 1569 1194V1255C1569 1259.28 1565.64 1262.77 1561.41 1262.99L1561 1263V1260C1563.76 1260 1566 1257.76 1566 1255Z" fill="#2E2F33" fill-opacity="0.88"/>
</g>
<g id="void_3">
<path d="M532 617C532 612.582 535.582 609 540 609H550C554.418 609 558 612.582 558 617V733C558 737.418 554.418 741 550 741H540C535.582 741 532 737.418 532 733V617Z" fill="#474747"/>
<path d="M550 738V741H540L540 738H550ZM555 733V617C555 614.239 552.761 612 550 612H540C537.239 612 535 614.239 535 617V733C535 735.761 537.239 738 540 738L540 741L539.588 740.989C535.498 740.782 532.218 737.502 532.011 733.412L532 733V617C532 612.582 535.582 609 540 609H550C554.418 609 558 612.582 558 617V733L557.989 733.412C557.782 737.502 554.502 740.782 550.412 740.989L550 741V738C552.761 738 555 735.761 555 733Z" fill="#2E2F33" fill-opacity="0.88"/>
</g>
<g id="void_4">
<path d="M74 1076C74 1071.58 77.5817 1068 82 1068H149C153.418 1068 157 1071.58 157 1076V1130C157 1134.42 153.418 1138 149 1138H82C77.5817 1138 74 1134.42 74 1130V1076Z" fill="#474747"/>
<path d="M149 1135V1138H82L82 1135H149ZM154 1130V1076C154 1073.24 151.761 1071 149 1071H82C79.2386 1071 77 1073.24 77 1076V1130C77 1132.76 79.2386 1135 82 1135L82 1138L81.5879 1137.99C77.4976 1137.78 74.2183 1134.5 74.0107 1130.41L74 1130V1076C74 1071.72 77.3611 1068.23 81.5879 1068.01L82 1068H149C153.418 1068 157 1071.58 157 1076V1130C157 1134.42 153.418 1138 149 1138V1135C151.761 1135 154 1132.76 154 1130Z" fill="#2E2F33" fill-opacity="0.88"/>
</g>
<g id="convergence_hall_316">
<path d="M5 272C5 267.582 8.58172 264 13 264H312C316.418 264 320 267.582 320 272V491C320 495.418 316.418 499 312 499H13C8.58172 499 5 495.418 5 491V272Z" fill="#F7FBFF"/>
<path d="M312 496V499H13L13 496H312ZM317 491V272C317 269.239 314.761 267 312 267H13C10.2386 267 8 269.239 8 272V491C8 493.761 10.2386 496 13 496L13 499L12.5879 498.989C8.36114 498.775 5 495.28 5 491V272C5 267.582 8.58172 264 13 264H312C316.418 264 320 267.582 320 272V491C320 495.28 316.639 498.775 312.412 498.989L312 499V496C314.761 496 317 493.761 317 491Z" fill="#2E2F33" fill-opacity="0.88"/>
<path d="M179.25 392.312C174.844 392.281 170.406 389.656 170.438 381.312C170.438 373.562 173.969 369.062 179.5 369.062C183.875 369.062 186.875 371.812 187.375 375.469H183.344C182.938 373.75 181.562 372.594 179.5 372.594C176.219 372.594 174.375 375.5 174.375 380.25H174.594C175.75 378.312 177.938 377.156 180.406 377.156C184.469 377.156 187.594 380.219 187.594 384.5C187.594 389 184.25 392.344 179.25 392.312ZM179.25 389.031C181.781 389.031 183.656 387.062 183.656 384.594C183.656 382.188 181.812 380.25 179.312 380.25C176.781 380.25 174.844 382.25 174.812 384.625C174.844 387 176.688 389.031 179.25 389.031Z" fill="black"/>
<path d="M165.281 369.375V392H161.188V373.344H161.062L155.781 376.719V373L161.375 369.375H165.281Z" fill="black"/>
<path d="M144.094 392.312C139.25 392.312 135.812 389.688 135.719 385.875H139.812C139.938 387.688 141.75 388.875 144.094 388.875C146.594 388.875 148.375 387.5 148.375 385.5C148.375 383.469 146.625 382 143.688 382H141.656V378.875H143.688C146.094 378.875 147.781 377.531 147.75 375.562C147.781 373.656 146.344 372.375 144.125 372.375C142 372.375 140.156 373.562 140.094 375.469H136.188C136.281 371.656 139.719 369.062 144.156 369.062C148.75 369.062 151.719 371.875 151.688 375.344C151.719 377.875 150.031 379.719 147.562 380.219V380.406C150.75 380.844 152.562 382.875 152.531 385.719C152.562 389.531 149 392.312 144.094 392.312Z" fill="black"/>
</g>
<g id="convergence_hall_315">
<path d="M5 504C5 499.582 8.58172 496 13 496H234C238.418 496 242 499.582 242 504V732C242 736.418 238.418 740 234 740H13C8.58173 740 5 736.418 5 732V504Z" fill="#F7FBFF"/>
<path d="M234 737V740H13L13 737H234ZM239 732V504C239 501.239 236.761 499 234 499H13C10.2386 499 8 501.239 8 504V732C8 734.761 10.2386 737 13 737L13 740C8.58173 740 5 736.418 5 732V504C5 499.72 8.36114 496.225 12.5879 496.011L13 496H234L234.412 496.011C238.639 496.225 242 499.72 242 504V732L241.989 732.412C241.775 736.639 238.28 740 234 740V737C236.761 737 239 734.761 239 732Z" fill="#2E2F33" fill-opacity="0.88"/>
<path d="M140.812 629.312C136.281 629.312 132.969 626.625 132.844 622.875H136.812C136.938 624.719 138.656 626.031 140.812 626.031C143.344 626.031 145.156 624.188 145.156 621.688C145.156 619.094 143.281 617.25 140.688 617.25C138.938 617.219 137.656 617.844 136.938 619.188H133.156L134.531 606.375H147.906V609.781H137.875L137.188 615.781H137.406C138.281 614.781 139.938 614.062 141.781 614.062C146 614.062 149.094 617.219 149.094 621.562C149.094 626.094 145.688 629.312 140.812 629.312Z" fill="black"/>
<path d="M127.281 606.375V629H123.188V610.344H123.062L117.781 613.719V610L123.375 606.375H127.281Z" fill="black"/>
<path d="M106.094 629.312C101.25 629.312 97.8125 626.688 97.7188 622.875H101.812C101.938 624.688 103.75 625.875 106.094 625.875C108.594 625.875 110.375 624.5 110.375 622.5C110.375 620.469 108.625 619 105.688 619H103.656V615.875H105.688C108.094 615.875 109.781 614.531 109.75 612.562C109.781 610.656 108.344 609.375 106.125 609.375C104 609.375 102.156 610.562 102.094 612.469H98.1875C98.2812 608.656 101.719 606.062 106.156 606.062C110.75 606.062 113.719 608.875 113.688 612.344C113.719 614.875 112.031 616.719 109.562 617.219V617.406C112.75 617.844 114.562 619.875 114.531 622.719C114.562 626.531 111 629.312 106.094 629.312Z" fill="black"/>
</g>
<g id="convergence_hall_314">
<path d="M5 745C5 740.582 8.58172 737 13 737H317C321.418 737 325 740.582 325 745V964C325 968.418 321.418 972 317 972H13C8.58171 972 5 968.418 5 964V745Z" fill="#F7FBFF"/>
<path d="M317 969V972H13L13 969H317ZM322 964V745C322 742.239 319.761 740 317 740H13C10.2386 740 8 742.239 8 745V964C8 966.761 10.2386 969 13 969L13 972L12.5879 971.989C8.36114 971.775 5 968.28 5 964V745C5 740.582 8.58172 737 13 737H317C321.418 737 325 740.582 325 745V964C325 968.28 321.639 971.775 317.412 971.989L317 972V969C319.761 969 322 966.761 322 964Z" fill="#2E2F33" fill-opacity="0.88"/>
<path d="M173.375 860.781V857.531L183.156 842.375H188.219V857.438H191.188V860.781H188.219V865H184.344V860.781H173.375ZM177.531 857.438H184.406V847H184.156L177.531 857.281V857.438Z" fill="black"/>
<path d="M168.281 842.375V865H164.188V846.344H164.062L158.781 849.719V846L164.375 842.375H168.281Z" fill="black"/>
<path d="M147.094 865.312C142.25 865.312 138.812 862.688 138.719 858.875H142.812C142.938 860.688 144.75 861.875 147.094 861.875C149.594 861.875 151.375 860.5 151.375 858.5C151.375 856.469 149.625 855 146.688 855H144.656V851.875H146.688C149.094 851.875 150.781 850.531 150.75 848.562C150.781 846.656 149.344 845.375 147.125 845.375C145 845.375 143.156 846.562 143.094 848.469H139.188C139.281 844.656 142.719 842.062 147.156 842.062C151.75 842.062 154.719 844.875 154.688 848.344C154.719 850.875 153.031 852.719 150.562 853.219V853.406C153.75 853.844 155.562 855.875 155.531 858.719C155.562 862.531 152 865.312 147.094 865.312Z" fill="black"/>
</g>
<g id="convergence_hall_310">
<path d="M402 1092C402 1087.58 405.582 1084 410 1084H550C554.418 1084 558 1087.58 558 1092V1157C558 1161.42 554.418 1165 550 1165H410C405.582 1165 402 1161.42 402 1157V1092Z" fill="#F7FBFF"/>
<path d="M550 1162V1165H410L410 1162H550ZM555 1157V1092C555 1089.24 552.761 1087 550 1087H410C407.239 1087 405 1089.24 405 1092V1157C405 1159.76 407.239 1162 410 1162L410 1165L409.588 1164.99C405.498 1164.78 402.218 1161.5 402.011 1157.41L402 1157V1092C402 1087.58 405.582 1084 410 1084H550C554.418 1084 558 1087.58 558 1092V1157L557.989 1157.41C557.782 1161.5 554.502 1164.78 550.412 1164.99L550 1165V1162C552.761 1162 555 1159.76 555 1157Z" fill="#2E2F33" fill-opacity="0.88"/>
<path d="M497.125 1135.31C491.688 1135.31 488.438 1131.09 488.438 1123.69C488.438 1116.31 491.688 1112.06 497.125 1112.06C502.531 1112.06 505.812 1116.31 505.812 1123.69C505.812 1131.09 502.562 1135.31 497.125 1135.31ZM497.125 1131.91C499.969 1131.91 501.719 1129.12 501.719 1123.69C501.719 1118.28 499.938 1115.44 497.125 1115.44C494.312 1115.44 492.531 1118.28 492.531 1123.69C492.531 1129.12 494.281 1131.91 497.125 1131.91Z" fill="black"/>
<path d="M483.281 1112.38V1135H479.188V1116.34H479.062L473.781 1119.72V1116L479.375 1112.38H483.281Z" fill="black"/>
<path d="M462.094 1135.31C457.25 1135.31 453.812 1132.69 453.719 1128.88H457.812C457.938 1130.69 459.75 1131.88 462.094 1131.88C464.594 1131.88 466.375 1130.5 466.375 1128.5C466.375 1126.47 464.625 1125 461.688 1125H459.656V1121.88H461.688C464.094 1121.88 465.781 1120.53 465.75 1118.56C465.781 1116.66 464.344 1115.38 462.125 1115.38C460 1115.38 458.156 1116.56 458.094 1118.47H454.188C454.281 1114.66 457.719 1112.06 462.156 1112.06C466.75 1112.06 469.719 1114.88 469.688 1118.34C469.719 1120.88 468.031 1122.72 465.562 1123.22V1123.41C468.75 1123.84 470.562 1125.88 470.531 1128.72C470.562 1132.53 467 1135.31 462.094 1135.31Z" fill="black"/>
</g>
<g id="convergence_hall_311">
<path d="M402 1170C402 1165.58 405.582 1162 410 1162H550C554.418 1162 558 1165.58 558 1170V1235C558 1239.42 554.418 1243 550 1243H410C405.582 1243 402 1239.42 402 1235V1170Z" fill="#F7FBFF"/>
<path d="M550 1240V1243H410L410 1240H550ZM555 1235V1170C555 1167.24 552.761 1165 550 1165H410C407.239 1165 405 1167.24 405 1170V1235C405 1237.76 407.239 1240 410 1240L410 1243L409.588 1242.99C405.498 1242.78 402.218 1239.5 402.011 1235.41L402 1235V1170C402 1165.58 405.582 1162 410 1162H550C554.418 1162 558 1165.58 558 1170V1235L557.989 1235.41C557.782 1239.5 554.502 1242.78 550.412 1242.99L550 1243V1240C552.761 1240 555 1237.76 555 1235Z" fill="#2E2F33" fill-opacity="0.88"/>
<path d="M500.969 1190.38V1213H496.875V1194.34H496.75L491.469 1197.72V1194L497.062 1190.38H500.969Z" fill="black"/>
<path d="M486.281 1190.38V1213H482.188V1194.34H482.062L476.781 1197.72V1194L482.375 1190.38H486.281Z" fill="black"/>
<path d="M465.094 1213.31C460.25 1213.31 456.812 1210.69 456.719 1206.88H460.812C460.938 1208.69 462.75 1209.88 465.094 1209.88C467.594 1209.88 469.375 1208.5 469.375 1206.5C469.375 1204.47 467.625 1203 464.688 1203H462.656V1199.88H464.688C467.094 1199.88 468.781 1198.53 468.75 1196.56C468.781 1194.66 467.344 1193.38 465.125 1193.38C463 1193.38 461.156 1194.56 461.094 1196.47H457.188C457.281 1192.66 460.719 1190.06 465.156 1190.06C469.75 1190.06 472.719 1192.88 472.688 1196.34C472.719 1198.88 471.031 1200.72 468.562 1201.22V1201.41C471.75 1201.84 473.562 1203.88 473.531 1206.72C473.562 1210.53 470 1213.31 465.094 1213.31Z" fill="black"/>
</g>
<g id="convergence_hall_312">
<path d="M402 1248C402 1243.58 405.582 1240 410 1240H550C554.418 1240 558 1243.58 558 1248V1308C558 1312.42 554.418 1316 550 1316H410C405.582 1316 402 1312.42 402 1308V1248Z" fill="#F7FBFF"/>
<path d="M550 1313V1316H410L410 1313H550ZM555 1308V1248C555 1245.24 552.761 1243 550 1243H410C407.239 1243 405 1245.24 405 1248V1308C405 1310.76 407.239 1313 410 1313L410 1316L409.588 1315.99C405.498 1315.78 402.218 1312.5 402.011 1308.41L402 1308V1248C402 1243.58 405.582 1240 410 1240H550C554.418 1240 558 1243.58 558 1248V1308L557.989 1308.41C557.782 1312.5 554.502 1315.78 550.412 1315.99L550 1316V1313C552.761 1313 555 1310.76 555 1308Z" fill="#2E2F33" fill-opacity="0.88"/>
<path d="M488.781 1289V1286.06L496.781 1278.34C499.063 1276.06 500.25 1274.72 500.25 1272.81C500.25 1270.72 498.594 1269.38 496.375 1269.38C494.031 1269.38 492.531 1270.84 492.563 1273.12H488.688C488.656 1268.84 491.875 1266.06 496.406 1266.06C501.031 1266.06 504.156 1268.81 504.156 1272.62C504.156 1275.19 502.906 1277.25 498.469 1281.44L494.438 1285.44V1285.59H504.5V1289H488.781Z" fill="black"/>
<path d="M483.281 1266.38V1289H479.188V1270.34H479.062L473.781 1273.72V1270L479.375 1266.38H483.281Z" fill="black"/>
<path d="M462.094 1289.31C457.25 1289.31 453.812 1286.69 453.719 1282.88H457.812C457.938 1284.69 459.75 1285.88 462.094 1285.88C464.594 1285.88 466.375 1284.5 466.375 1282.5C466.375 1280.47 464.625 1279 461.688 1279H459.656V1275.88H461.688C464.094 1275.88 465.781 1274.53 465.75 1272.56C465.781 1270.66 464.344 1269.38 462.125 1269.38C460 1269.38 458.156 1270.56 458.094 1272.47H454.188C454.281 1268.66 457.719 1266.06 462.156 1266.06C466.75 1266.06 469.719 1268.88 469.688 1272.34C469.719 1274.88 468.031 1276.72 465.562 1277.22V1277.41C468.75 1277.84 470.562 1279.88 470.531 1282.72C470.562 1286.53 467 1289.31 462.094 1289.31Z" fill="black"/>
</g>
<g id="convergence_hall_309">
<path d="M402 1014C402 1009.58 405.582 1006 410 1006H550C554.418 1006 558 1009.58 558 1014V1079C558 1083.42 554.418 1087 550 1087H410C405.582 1087 402 1083.42 402 1079V1014Z" fill="#F7FBFF"/>
<path d="M550 1084V1087H410L410 1084H550ZM555 1079V1014C555 1011.24 552.761 1009 550 1009H410C407.239 1009 405 1011.24 405 1014V1079C405 1081.76 407.239 1084 410 1084L410 1087L409.588 1086.99C405.498 1086.78 402.218 1083.5 402.011 1079.41L402 1079V1014C402 1009.58 405.582 1006 410 1006H550C554.418 1006 558 1009.58 558 1014V1079L557.989 1079.41C557.782 1083.5 554.502 1086.78 550.412 1086.99L550 1087V1084C552.761 1084 555 1081.76 555 1079Z" fill="#2E2F33" fill-opacity="0.88"/>
<path d="M499.562 1034.06C504 1034.09 508.375 1036.72 508.406 1045C508.406 1052.81 504.875 1057.31 499.312 1057.31C494.938 1057.31 491.938 1054.59 491.438 1050.84H495.469C495.875 1052.62 497.25 1053.78 499.312 1053.78C502.594 1053.78 504.438 1050.87 504.469 1046.03H504.219C503.062 1048 500.906 1049.16 498.406 1049.16C494.375 1049.16 491.25 1046.09 491.219 1041.81C491.219 1037.37 494.531 1034.03 499.562 1034.06ZM499.594 1037.34C497.062 1037.34 495.156 1039.31 495.188 1041.72C495.188 1044.16 497 1046.06 499.531 1046.06C502.031 1046.06 504 1044.03 503.969 1041.69C503.969 1039.37 502.125 1037.34 499.594 1037.34Z" fill="black"/>
<path d="M479.438 1057.31C474 1057.31 470.75 1053.09 470.75 1045.69C470.75 1038.31 474 1034.06 479.438 1034.06C484.844 1034.06 488.125 1038.31 488.125 1045.69C488.125 1053.09 484.875 1057.31 479.438 1057.31ZM479.438 1053.91C482.281 1053.91 484.031 1051.12 484.031 1045.69C484.031 1040.28 482.25 1037.44 479.438 1037.44C476.625 1037.44 474.844 1040.28 474.844 1045.69C474.844 1051.12 476.594 1053.91 479.438 1053.91Z" fill="black"/>
<path d="M459.094 1057.31C454.25 1057.31 450.812 1054.69 450.719 1050.88H454.812C454.938 1052.69 456.75 1053.88 459.094 1053.88C461.594 1053.88 463.375 1052.5 463.375 1050.5C463.375 1048.47 461.625 1047 458.688 1047H456.656V1043.88H458.688C461.094 1043.88 462.781 1042.53 462.75 1040.56C462.781 1038.66 461.344 1037.38 459.125 1037.38C457 1037.38 455.156 1038.56 455.094 1040.47H451.188C451.281 1036.66 454.719 1034.06 459.156 1034.06C463.75 1034.06 466.719 1036.88 466.688 1040.34C466.719 1042.88 465.031 1044.72 462.562 1045.22V1045.41C465.75 1045.84 467.562 1047.88 467.531 1050.72C467.562 1054.53 464 1057.31 459.094 1057.31Z" fill="black"/>
</g>
<g id="convergence_hall_308">
<path d="M402 936C402 931.582 405.582 928 410 928H550C554.418 928 558 931.582 558 936V1001C558 1005.42 554.418 1009 550 1009H410C405.582 1009 402 1005.42 402 1001V936Z" fill="#F7FBFF"/>
<path d="M550 1006V1009H410L410 1006H550ZM555 1001V936C555 933.239 552.761 931 550 931H410C407.239 931 405 933.239 405 936V1001C405 1003.76 407.239 1006 410 1006L410 1009L409.588 1008.99C405.498 1008.78 402.218 1005.5 402.011 1001.41L402 1001V936C402 931.582 405.582 928 410 928H550C554.418 928 558 931.582 558 936V1001L557.989 1001.41C557.782 1005.5 554.502 1008.78 550.412 1008.99L550 1009V1006C552.761 1006 555 1003.76 555 1001Z" fill="#2E2F33" fill-opacity="0.88"/>
<path d="M499.75 979.312C494.719 979.312 491.156 976.625 491.156 972.938C491.156 970.062 493.281 967.719 496 967.281V967.156C493.625 966.656 492 964.594 492 962.125C492 958.625 495.281 956.062 499.75 956.062C504.188 956.062 507.469 958.625 507.469 962.125C507.469 964.594 505.812 966.656 503.469 967.156V967.281C506.188 967.719 508.344 970.062 508.344 972.938C508.344 976.625 504.75 979.312 499.75 979.312ZM499.75 976.094C502.406 976.094 504.156 974.656 504.156 972.562C504.156 970.438 502.281 968.875 499.75 968.875C497.188 968.875 495.312 970.438 495.344 972.562C495.312 974.656 497.062 976.094 499.75 976.094ZM499.75 965.844C501.938 965.844 503.5 964.469 503.5 962.5C503.5 960.594 501.969 959.25 499.75 959.25C497.5 959.25 495.969 960.562 495.969 962.5C495.969 964.469 497.531 965.844 499.75 965.844Z" fill="black"/>
<path d="M479.438 979.312C474 979.312 470.75 975.094 470.75 967.688C470.75 960.312 474 956.062 479.438 956.062C484.844 956.062 488.125 960.312 488.125 967.688C488.125 975.094 484.875 979.312 479.438 979.312ZM479.438 975.906C482.281 975.906 484.031 973.125 484.031 967.688C484.031 962.281 482.25 959.438 479.438 959.438C476.625 959.438 474.844 962.281 474.844 967.688C474.844 973.125 476.594 975.906 479.438 975.906Z" fill="black"/>
<path d="M459.094 979.312C454.25 979.312 450.812 976.688 450.719 972.875H454.812C454.938 974.688 456.75 975.875 459.094 975.875C461.594 975.875 463.375 974.5 463.375 972.5C463.375 970.469 461.625 969 458.688 969H456.656V965.875H458.688C461.094 965.875 462.781 964.531 462.75 962.562C462.781 960.656 461.344 959.375 459.125 959.375C457 959.375 455.156 960.562 455.094 962.469H451.188C451.281 958.656 454.719 956.062 459.156 956.062C463.75 956.062 466.719 958.875 466.688 962.344C466.719 964.875 465.031 966.719 462.562 967.219V967.406C465.75 967.844 467.562 969.875 467.531 972.719C467.562 976.531 464 979.312 459.094 979.312Z" fill="black"/>
</g>
<g id="convergence_hall_307">
<path d="M402 858C402 853.582 405.582 850 410 850H550C554.418 850 558 853.582 558 858V923C558 927.418 554.418 931 550 931H410C405.582 931 402 927.418 402 923V858Z" fill="#F7FBFF"/>
<path d="M550 928V931H410L410 928H550ZM555 923V858C555 855.239 552.761 853 550 853H410C407.239 853 405 855.239 405 858V923C405 925.761 407.239 928 410 928L410 931L409.588 930.989C405.498 930.782 402.218 927.502 402.011 923.412L402 923V858C402 853.582 405.582 850 410 850H550C554.418 850 558 853.582 558 858V923L557.989 923.412C557.782 927.502 554.502 930.782 550.412 930.989L550 931V928C552.761 928 555 925.761 555 923Z" fill="#2E2F33" fill-opacity="0.88"/>
<path d="M492.75 901L502.562 881.938V881.781H491.188V878.375H506.781V881.844L496.969 901H492.75Z" fill="black"/>
<path d="M480.438 901.312C475 901.312 471.75 897.094 471.75 889.688C471.75 882.312 475 878.062 480.438 878.062C485.844 878.062 489.125 882.312 489.125 889.688C489.125 897.094 485.875 901.312 480.438 901.312ZM480.438 897.906C483.281 897.906 485.031 895.125 485.031 889.688C485.031 884.281 483.25 881.438 480.438 881.438C477.625 881.438 475.844 884.281 475.844 889.688C475.844 895.125 477.594 897.906 480.438 897.906Z" fill="black"/>
<path d="M460.094 901.312C455.25 901.312 451.812 898.688 451.719 894.875H455.812C455.938 896.688 457.75 897.875 460.094 897.875C462.594 897.875 464.375 896.5 464.375 894.5C464.375 892.469 462.625 891 459.688 891H457.656V887.875H459.688C462.094 887.875 463.781 886.531 463.75 884.562C463.781 882.656 462.344 881.375 460.125 881.375C458 881.375 456.156 882.562 456.094 884.469H452.188C452.281 880.656 455.719 878.062 460.156 878.062C464.75 878.062 467.719 880.875 467.688 884.344C467.719 886.875 466.031 888.719 463.562 889.219V889.406C466.75 889.844 468.562 891.875 468.531 894.719C468.562 898.531 465 901.312 460.094 901.312Z" fill="black"/>
</g>
<g id="convergence_hall_306">
<path d="M402 746C402 741.582 405.582 738 410 738H550C554.418 738 558 741.582 558 746V845C558 849.418 554.418 853 550 853H410C405.582 853 402 849.418 402 845V746Z" fill="#F7FBFF"/>
<path d="M550 850V853H410L410 850H550ZM555 845V746C555 743.239 552.761 741 550 741H410C407.239 741 405 743.239 405 746V845C405 847.761 407.239 850 410 850L410 853L409.588 852.989C405.361 852.775 402 849.28 402 845V746C402 741.582 405.582 738 410 738H550C554.418 738 558 741.582 558 746V845L557.989 845.412C557.782 849.502 554.502 852.782 550.412 852.989L550 853V850C552.761 850 555 847.761 555 845Z" fill="#2E2F33" fill-opacity="0.88"/>
<path d="M500 806.312C495.594 806.281 491.156 803.656 491.188 795.312C491.188 787.562 494.719 783.062 500.25 783.062C504.625 783.062 507.625 785.812 508.125 789.469H504.094C503.688 787.75 502.313 786.594 500.25 786.594C496.969 786.594 495.125 789.5 495.125 794.25H495.344C496.5 792.312 498.688 791.156 501.156 791.156C505.219 791.156 508.344 794.219 508.344 798.5C508.344 803 505 806.344 500 806.312ZM500 803.031C502.531 803.031 504.406 801.062 504.406 798.594C504.406 796.188 502.563 794.25 500.063 794.25C497.531 794.25 495.594 796.25 495.563 798.625C495.594 801 497.438 803.031 500 803.031Z" fill="black"/>
<path d="M479.438 806.312C474 806.312 470.75 802.094 470.75 794.688C470.75 787.312 474 783.062 479.438 783.062C484.844 783.062 488.125 787.312 488.125 794.688C488.125 802.094 484.875 806.312 479.438 806.312ZM479.438 802.906C482.281 802.906 484.031 800.125 484.031 794.688C484.031 789.281 482.25 786.438 479.438 786.438C476.625 786.438 474.844 789.281 474.844 794.688C474.844 800.125 476.594 802.906 479.438 802.906Z" fill="black"/>
<path d="M459.094 806.312C454.25 806.312 450.812 803.688 450.719 799.875H454.812C454.938 801.688 456.75 802.875 459.094 802.875C461.594 802.875 463.375 801.5 463.375 799.5C463.375 797.469 461.625 796 458.688 796H456.656V792.875H458.688C461.094 792.875 462.781 791.531 462.75 789.562C462.781 787.656 461.344 786.375 459.125 786.375C457 786.375 455.156 787.562 455.094 789.469H451.188C451.281 785.656 454.719 783.062 459.156 783.062C463.75 783.062 466.719 785.875 466.688 789.344C466.719 791.875 465.031 793.719 462.562 794.219V794.406C465.75 794.844 467.562 796.875 467.531 799.719C467.562 803.531 464 806.312 459.094 806.312Z" fill="black"/>
</g>
<g id="convergence_hall_305">
<path d="M555 615C555 610.582 558.582 607 563 607H636C640.418 607 644 610.582 644 615V802C644 806.418 640.418 810 636 810H563C558.582 810 555 806.418 555 802V615Z" fill="#F7FBFF"/>
<path d="M636 807V810H563L563 807H636ZM641 802V615C641 612.239 638.761 610 636 610H563C560.239 610 558 612.239 558 615V802C558 804.761 560.239 807 563 807L563 810L562.588 809.989C558.361 809.775 555 806.28 555 802V615C555 610.582 558.582 607 563 607H636C640.418 607 644 610.582 644 615V802C644 806.28 640.639 809.775 636.412 809.989L636 810V807C638.761 807 641 804.761 641 802Z" fill="#2E2F33" fill-opacity="0.88"/>
<path d="M619.562 719.312C615.031 719.312 611.719 716.625 611.594 712.875H615.562C615.688 714.719 617.406 716.031 619.562 716.031C622.094 716.031 623.906 714.188 623.906 711.688C623.906 709.094 622.031 707.25 619.438 707.25C617.688 707.219 616.406 707.844 615.688 709.188H611.906L613.281 696.375H626.656V699.781H616.625L615.938 705.781H616.156C617.031 704.781 618.688 704.062 620.531 704.062C624.75 704.062 627.844 707.219 627.844 711.562C627.844 716.094 624.438 719.312 619.562 719.312Z" fill="black"/>
<path d="M599.438 719.312C594 719.312 590.75 715.094 590.75 707.688C590.75 700.312 594 696.062 599.438 696.062C604.844 696.062 608.125 700.312 608.125 707.688C608.125 715.094 604.875 719.312 599.438 719.312ZM599.438 715.906C602.281 715.906 604.031 713.125 604.031 707.688C604.031 702.281 602.25 699.438 599.438 699.438C596.625 699.438 594.844 702.281 594.844 707.688C594.844 713.125 596.594 715.906 599.438 715.906Z" fill="black"/>
<path d="M579.094 719.312C574.25 719.312 570.812 716.688 570.719 712.875H574.812C574.938 714.688 576.75 715.875 579.094 715.875C581.594 715.875 583.375 714.5 583.375 712.5C583.375 710.469 581.625 709 578.688 709H576.656V705.875H578.688C581.094 705.875 582.781 704.531 582.75 702.562C582.781 700.656 581.344 699.375 579.125 699.375C577 699.375 575.156 700.562 575.094 702.469H571.188C571.281 698.656 574.719 696.062 579.156 696.062C583.75 696.062 586.719 698.875 586.688 702.344C586.719 704.875 585.031 706.719 582.562 707.219V707.406C585.75 707.844 587.562 709.875 587.531 712.719C587.562 716.531 584 719.312 579.094 719.312Z" fill="black"/>
</g>
<g id="convergence_hall_304">
<path d="M641 615C641 610.582 644.582 607 649 607H771C775.418 607 779 610.582 779 615V802C779 806.418 775.418 810 771 810H649C644.582 810 641 806.418 641 802V615Z" fill="#F7FBFF"/>
<path d="M771 807V810H649L649 807H771ZM776 802V615C776 612.239 773.761 610 771 610H649C646.239 610 644 612.239 644 615V802C644 804.761 646.239 807 649 807L649 810L648.588 809.989C644.361 809.775 641 806.28 641 802V615C641 610.582 644.582 607 649 607H771C775.418 607 779 610.582 779 615V802C779 806.28 775.639 809.775 771.412 809.989L771 810V807C773.761 807 776 804.761 776 802Z" fill="#2E2F33" fill-opacity="0.88"/>
<path d="M721.125 714.781V711.531L730.906 696.375H735.969V711.438H738.938V714.781H735.969V719H732.094V714.781H721.125ZM725.281 711.438H732.156V701H731.906L725.281 711.281V711.438Z" fill="black"/>
<path d="M709.438 719.312C704 719.312 700.75 715.094 700.75 707.688C700.75 700.312 704 696.062 709.438 696.062C714.844 696.062 718.125 700.312 718.125 707.688C718.125 715.094 714.875 719.312 709.438 719.312ZM709.438 715.906C712.281 715.906 714.031 713.125 714.031 707.688C714.031 702.281 712.25 699.438 709.438 699.438C706.625 699.438 704.844 702.281 704.844 707.688C704.844 713.125 706.594 715.906 709.438 715.906Z" fill="black"/>
<path d="M689.094 719.312C684.25 719.312 680.812 716.688 680.719 712.875H684.812C684.938 714.688 686.75 715.875 689.094 715.875C691.594 715.875 693.375 714.5 693.375 712.5C693.375 710.469 691.625 709 688.688 709H686.656V705.875H688.688C691.094 705.875 692.781 704.531 692.75 702.562C692.781 700.656 691.344 699.375 689.125 699.375C687 699.375 685.156 700.562 685.094 702.469H681.188C681.281 698.656 684.719 696.062 689.156 696.062C693.75 696.062 696.719 698.875 696.688 702.344C696.719 704.875 695.031 706.719 692.562 707.219V707.406C695.75 707.844 697.562 709.875 697.531 712.719C697.562 716.531 694 719.312 689.094 719.312Z" fill="black"/>
</g>
<g id="convergence_hall_303">
<path d="M776 615C776 610.582 779.582 607 784 607H943C947.418 607 951 610.582 951 615V802C951 806.418 947.418 810 943 810H784C779.582 810 776 806.418 776 802V615Z" fill="#F7FBFF"/>
<path d="M943 807V810H784L784 807H943ZM948 802V615C948 612.239 945.761 610 943 610H784C781.239 610 779 612.239 779 615V802C779 804.761 781.239 807 784 807L784 810L783.588 809.989C779.361 809.775 776 806.28 776 802V615C776 610.72 779.361 607.225 783.588 607.011L784 607H943C947.418 607 951 610.582 951 615V802C951 806.418 947.418 810 943 810V807C945.761 807 948 804.761 948 802Z" fill="#2E2F33" fill-opacity="0.88"/>
<path d="M883.75 719.312C878.906 719.312 875.469 716.688 875.375 712.875H879.469C879.594 714.688 881.406 715.875 883.75 715.875C886.25 715.875 888.031 714.5 888.031 712.5C888.031 710.469 886.281 709 883.344 709H881.312V705.875H883.344C885.75 705.875 887.438 704.531 887.406 702.562C887.438 700.656 886 699.375 883.781 699.375C881.656 699.375 879.812 700.562 879.75 702.469H875.844C875.938 698.656 879.375 696.062 883.812 696.062C888.406 696.062 891.375 698.875 891.344 702.344C891.375 704.875 889.688 706.719 887.219 707.219V707.406C890.406 707.844 892.219 709.875 892.188 712.719C892.219 716.531 888.656 719.312 883.75 719.312Z" fill="black"/>
<path d="M863.438 719.312C858 719.312 854.75 715.094 854.75 707.688C854.75 700.312 858 696.062 863.438 696.062C868.844 696.062 872.125 700.312 872.125 707.688C872.125 715.094 868.875 719.312 863.438 719.312ZM863.438 715.906C866.281 715.906 868.031 713.125 868.031 707.688C868.031 702.281 866.25 699.438 863.438 699.438C860.625 699.438 858.844 702.281 858.844 707.688C858.844 713.125 860.594 715.906 863.438 715.906Z" fill="black"/>
<path d="M843.094 719.312C838.25 719.312 834.812 716.688 834.719 712.875H838.812C838.938 714.688 840.75 715.875 843.094 715.875C845.594 715.875 847.375 714.5 847.375 712.5C847.375 710.469 845.625 709 842.688 709H840.656V705.875H842.688C845.094 705.875 846.781 704.531 846.75 702.562C846.781 700.656 845.344 699.375 843.125 699.375C841 699.375 839.156 700.562 839.094 702.469H835.188C835.281 698.656 838.719 696.062 843.156 696.062C847.75 696.062 850.719 698.875 850.688 702.344C850.719 704.875 849.031 706.719 846.562 707.219V707.406C849.75 707.844 851.562 709.875 851.531 712.719C851.562 716.531 848 719.312 843.094 719.312Z" fill="black"/>
</g>
<g id="convergence_hall_302">
<path d="M948 615C948 610.582 951.582 607 956 607H1183C1187.42 607 1191 610.582 1191 615V802C1191 806.418 1187.42 810 1183 810H956C951.582 810 948 806.418 948 802V615Z" fill="#F7FBFF"/>
<path d="M1183 807V810H956L956 807H1183ZM1188 802V615C1188 612.239 1185.76 610 1183 610H956C953.239 610 951 612.239 951 615V802C951 804.761 953.239 807 956 807L956 810L955.588 809.989C951.361 809.775 948 806.28 948 802V615C948 610.72 951.361 607.225 955.588 607.011L956 607H1183C1187.42 607 1191 610.582 1191 615V802C1191 806.418 1187.42 810 1183 810V807C1185.76 807 1188 804.761 1188 802Z" fill="#2E2F33" fill-opacity="0.88"/>
<path d="M1081.53 719V716.062L1089.53 708.344C1091.81 706.062 1093 704.719 1093 702.812C1093 700.719 1091.34 699.375 1089.12 699.375C1086.78 699.375 1085.28 700.844 1085.31 703.125H1081.44C1081.41 698.844 1084.62 696.062 1089.16 696.062C1093.78 696.062 1096.91 698.812 1096.91 702.625C1096.91 705.188 1095.66 707.25 1091.22 711.438L1087.19 715.438V715.594H1097.25V719H1081.53Z" fill="black"/>
<path d="M1069.44 719.312C1064 719.312 1060.75 715.094 1060.75 707.688C1060.75 700.312 1064 696.062 1069.44 696.062C1074.84 696.062 1078.12 700.312 1078.12 707.688C1078.12 715.094 1074.88 719.312 1069.44 719.312ZM1069.44 715.906C1072.28 715.906 1074.03 713.125 1074.03 707.688C1074.03 702.281 1072.25 699.438 1069.44 699.438C1066.62 699.438 1064.84 702.281 1064.84 707.688C1064.84 713.125 1066.59 715.906 1069.44 715.906Z" fill="black"/>
<path d="M1049.09 719.312C1044.25 719.312 1040.81 716.688 1040.72 712.875H1044.81C1044.94 714.688 1046.75 715.875 1049.09 715.875C1051.59 715.875 1053.38 714.5 1053.38 712.5C1053.38 710.469 1051.62 709 1048.69 709H1046.66V705.875H1048.69C1051.09 705.875 1052.78 704.531 1052.75 702.562C1052.78 700.656 1051.34 699.375 1049.12 699.375C1047 699.375 1045.16 700.562 1045.09 702.469H1041.19C1041.28 698.656 1044.72 696.062 1049.16 696.062C1053.75 696.062 1056.72 698.875 1056.69 702.344C1056.72 704.875 1055.03 706.719 1052.56 707.219V707.406C1055.75 707.844 1057.56 709.875 1057.53 712.719C1057.56 716.531 1054 719.312 1049.09 719.312Z" fill="black"/>
</g>
<g id="convergence_hall_301">
<path d="M1188 615C1188 610.582 1191.58 607 1196 607H1247C1251.42 607 1255 610.582 1255 615V802C1255 806.418 1251.42 810 1247 810H1196C1191.58 810 1188 806.418 1188 802V615Z" fill="#F7FBFF"/>
<path d="M1247 807V810H1196L1196 807H1247ZM1252 802V615C1252 612.239 1249.76 610 1247 610H1196C1193.24 610 1191 612.239 1191 615V802C1191 804.761 1193.24 807 1196 807L1196 810C1191.58 810 1188 806.418 1188 802V615C1188 610.72 1191.36 607.225 1195.59 607.011L1196 607H1247L1247.41 607.011C1251.64 607.225 1255 610.72 1255 615V802C1255 806.418 1251.42 810 1247 810V807C1249.76 807 1252 804.761 1252 802Z" fill="#2E2F33" fill-opacity="0.88"/>
<path d="M1245.72 696.375V719H1241.62V700.344H1241.5L1236.22 703.719V700L1241.81 696.375H1245.72Z" fill="black"/>
<path d="M1224.44 719.312C1219 719.312 1215.75 715.094 1215.75 707.688C1215.75 700.312 1219 696.062 1224.44 696.062C1229.84 696.062 1233.12 700.312 1233.12 707.688C1233.12 715.094 1229.88 719.312 1224.44 719.312ZM1224.44 715.906C1227.28 715.906 1229.03 713.125 1229.03 707.688C1229.03 702.281 1227.25 699.438 1224.44 699.438C1221.62 699.438 1219.84 702.281 1219.84 707.688C1219.84 713.125 1221.59 715.906 1224.44 715.906Z" fill="black"/>
<path d="M1204.09 719.312C1199.25 719.312 1195.81 716.688 1195.72 712.875H1199.81C1199.94 714.688 1201.75 715.875 1204.09 715.875C1206.59 715.875 1208.38 714.5 1208.38 712.5C1208.38 710.469 1206.62 709 1203.69 709H1201.66V705.875H1203.69C1206.09 705.875 1207.78 704.531 1207.75 702.562C1207.78 700.656 1206.34 699.375 1204.12 699.375C1202 699.375 1200.16 700.562 1200.09 702.469H1196.19C1196.28 698.656 1199.72 696.062 1204.16 696.062C1208.75 696.062 1211.72 698.875 1211.69 702.344C1211.72 704.875 1210.03 706.719 1207.56 707.219V707.406C1210.75 707.844 1212.56 709.875 1212.53 712.719C1212.56 716.531 1209 719.312 1204.09 719.312Z" fill="black"/>
</g>
<g id="convergence_hall_319">
<path d="M1636 270C1636 265.582 1639.58 262 1644 262H1869C1873.42 262 1877 265.582 1877 270V503C1877 507.418 1873.42 511 1869 511H1644C1639.58 511 1636 507.418 1636 503V270Z" fill="#F7FBFF"/>
<path d="M1869 508V511H1644L1644 508H1869ZM1874 503V270C1874 267.239 1871.76 265 1869 265H1644C1641.24 265 1639 267.239 1639 270V503C1639 505.761 1641.24 508 1644 508L1644 511L1643.59 510.989C1639.36 510.775 1636 507.28 1636 503V270C1636 265.582 1639.58 262 1644 262H1869C1873.42 262 1877 265.582 1877 270V503C1877 507.28 1873.64 510.775 1869.41 510.989L1869 511V508C1871.76 508 1874 505.761 1874 503Z" fill="#2E2F33" fill-opacity="0.88"/>
<path d="M1772.81 374.062C1777.25 374.094 1781.62 376.719 1781.66 385C1781.66 392.812 1778.12 397.312 1772.56 397.312C1768.19 397.312 1765.19 394.594 1764.69 390.844H1768.72C1769.12 392.625 1770.5 393.781 1772.56 393.781C1775.84 393.781 1777.69 390.875 1777.72 386.031H1777.47C1776.31 388 1774.16 389.156 1771.66 389.156C1767.62 389.156 1764.5 386.094 1764.47 381.812C1764.47 377.375 1767.78 374.031 1772.81 374.062ZM1772.84 377.344C1770.31 377.344 1768.41 379.312 1768.44 381.719C1768.44 384.156 1770.25 386.062 1772.78 386.062C1775.28 386.062 1777.25 384.031 1777.22 381.688C1777.22 379.375 1775.38 377.344 1772.84 377.344Z" fill="black"/>
<path d="M1759.28 374.375V397H1755.19V378.344H1755.06L1749.78 381.719V378L1755.38 374.375H1759.28Z" fill="black"/>
<path d="M1738.09 397.312C1733.25 397.312 1729.81 394.688 1729.72 390.875H1733.81C1733.94 392.688 1735.75 393.875 1738.09 393.875C1740.59 393.875 1742.38 392.5 1742.38 390.5C1742.38 388.469 1740.62 387 1737.69 387H1735.66V383.875H1737.69C1740.09 383.875 1741.78 382.531 1741.75 380.562C1741.78 378.656 1740.34 377.375 1738.12 377.375C1736 377.375 1734.16 378.562 1734.09 380.469H1730.19C1730.28 376.656 1733.72 374.062 1738.16 374.062C1742.75 374.062 1745.72 376.875 1745.69 380.344C1745.72 382.875 1744.03 384.719 1741.56 385.219V385.406C1744.75 385.844 1746.56 387.875 1746.53 390.719C1746.56 394.531 1743 397.312 1738.09 397.312Z" fill="black"/>
</g>
<g id="convergence_hall_320">
<path d="M1874 270C1874 265.582 1877.58 262 1882 262H2104C2108.42 262 2112 265.582 2112 270V503C2112 507.418 2108.42 511 2104 511H1882C1877.58 511 1874 507.418 1874 503V270Z" fill="#F7FBFF"/>
<path d="M2104 508V511H1882L1882 508H2104ZM2109 503V270C2109 267.239 2106.76 265 2104 265H1882C1879.24 265 1877 267.239 1877 270V503C1877 505.761 1879.24 508 1882 508L1882 511L1881.59 510.989C1877.36 510.775 1874 507.28 1874 503V270C1874 265.582 1877.58 262 1882 262H2104C2108.42 262 2112 265.582 2112 270V503C2112 507.28 2108.64 510.775 2104.41 510.989L2104 511V508C2106.76 508 2109 505.761 2109 503Z" fill="#2E2F33" fill-opacity="0.88"/>
<path d="M2012.72 397.312C2007.28 397.312 2004.03 393.094 2004.03 385.688C2004.03 378.312 2007.28 374.062 2012.72 374.062C2018.12 374.062 2021.41 378.312 2021.41 385.688C2021.41 393.094 2018.16 397.312 2012.72 397.312ZM2012.72 393.906C2015.56 393.906 2017.31 391.125 2017.31 385.688C2017.31 380.281 2015.53 377.438 2012.72 377.438C2009.91 377.438 2008.12 380.281 2008.12 385.688C2008.12 391.125 2009.88 393.906 2012.72 393.906Z" fill="black"/>
<path d="M1985.09 397V394.062L1993.09 386.344C1995.37 384.062 1996.56 382.719 1996.56 380.812C1996.56 378.719 1994.91 377.375 1992.69 377.375C1990.34 377.375 1988.84 378.844 1988.87 381.125H1985C1984.97 376.844 1988.19 374.062 1992.72 374.062C1997.34 374.062 2000.47 376.812 2000.47 380.625C2000.47 383.188 1999.22 385.25 1994.78 389.438L1990.75 393.438V393.594H2000.81V397H1985.09Z" fill="black"/>
<path d="M1973.09 397.312C1968.25 397.312 1964.81 394.688 1964.72 390.875H1968.81C1968.94 392.688 1970.75 393.875 1973.09 393.875C1975.59 393.875 1977.38 392.5 1977.38 390.5C1977.38 388.469 1975.62 387 1972.69 387H1970.66V383.875H1972.69C1975.09 383.875 1976.78 382.531 1976.75 380.562C1976.78 378.656 1975.34 377.375 1973.12 377.375C1971 377.375 1969.16 378.562 1969.09 380.469H1965.19C1965.28 376.656 1968.72 374.062 1973.16 374.062C1977.75 374.062 1980.72 376.875 1980.69 380.344C1980.72 382.875 1979.03 384.719 1976.56 385.219V385.406C1979.75 385.844 1981.56 387.875 1981.53 390.719C1981.56 394.531 1978 397.312 1973.09 397.312Z" fill="black"/>
</g>
<g id="convergence_hall_322">
<path d="M1874 574C1874 569.582 1877.58 566 1882 566H2104C2108.42 566 2112 569.582 2112 574V787C2112 791.418 2108.42 795 2104 795H1882C1877.58 795 1874 791.418 1874 787V574Z" fill="#F7FBFF"/>
<path d="M2104 792V795H1882L1882 792H2104ZM2109 787V574C2109 571.239 2106.76 569 2104 569H1882C1879.24 569 1877 571.239 1877 574V787C1877 789.761 1879.24 792 1882 792L1882 795L1881.59 794.989C1877.5 794.782 1874.22 791.502 1874.01 787.412L1874 787V574C1874 569.582 1877.58 566 1882 566H2104C2108.42 566 2112 569.582 2112 574V787L2111.99 787.412C2111.78 791.502 2108.5 794.782 2104.41 794.989L2104 795V792C2106.76 792 2109 789.761 2109 787Z" fill="#2E2F33" fill-opacity="0.88"/>
<path d="M2004.37 691V688.062L2012.37 680.344C2014.66 678.062 2015.84 676.719 2015.84 674.812C2015.84 672.719 2014.19 671.375 2011.97 671.375C2009.62 671.375 2008.12 672.844 2008.16 675.125H2004.28C2004.25 670.844 2007.47 668.062 2012 668.062C2016.62 668.062 2019.75 670.812 2019.75 674.625C2019.75 677.188 2018.5 679.25 2014.06 683.438L2010.03 687.438V687.594H2020.09V691H2004.37Z" fill="black"/>
<path d="M1985.09 691V688.062L1993.09 680.344C1995.37 678.062 1996.56 676.719 1996.56 674.812C1996.56 672.719 1994.91 671.375 1992.69 671.375C1990.34 671.375 1988.84 672.844 1988.87 675.125H1985C1984.97 670.844 1988.19 668.062 1992.72 668.062C1997.34 668.062 2000.47 670.812 2000.47 674.625C2000.47 677.188 1999.22 679.25 1994.78 683.438L1990.75 687.438V687.594H2000.81V691H1985.09Z" fill="black"/>
<path d="M1973.09 691.312C1968.25 691.312 1964.81 688.688 1964.72 684.875H1968.81C1968.94 686.688 1970.75 687.875 1973.09 687.875C1975.59 687.875 1977.38 686.5 1977.38 684.5C1977.38 682.469 1975.62 681 1972.69 681H1970.66V677.875H1972.69C1975.09 677.875 1976.78 676.531 1976.75 674.562C1976.78 672.656 1975.34 671.375 1973.12 671.375C1971 671.375 1969.16 672.562 1969.09 674.469H1965.19C1965.28 670.656 1968.72 668.062 1973.16 668.062C1977.75 668.062 1980.72 670.875 1980.69 674.344C1980.72 676.875 1979.03 678.719 1976.56 679.219V679.406C1979.75 679.844 1981.56 681.875 1981.53 684.719C1981.56 688.531 1978 691.312 1973.09 691.312Z" fill="black"/>
</g>
<g id="convergence_hall_321">
<path d="M1636 574C1636 569.582 1639.58 566 1644 566H1869C1873.42 566 1877 569.582 1877 574V787C1877 791.418 1873.42 795 1869 795H1644C1639.58 795 1636 791.418 1636 787V574Z" fill="#F7FBFF"/>
<path d="M1869 792V795H1644L1644 792H1869ZM1874 787V574C1874 571.239 1871.76 569 1869 569H1644C1641.24 569 1639 571.239 1639 574V787C1639 789.761 1641.24 792 1644 792L1644 795L1643.59 794.989C1639.5 794.782 1636.22 791.502 1636.01 787.412L1636 787V574C1636 569.582 1639.58 566 1644 566H1869C1873.42 566 1877 569.582 1877 574V787L1876.99 787.412C1876.78 791.502 1873.5 794.782 1869.41 794.989L1869 795V792C1871.76 792 1874 789.761 1874 787Z" fill="#2E2F33" fill-opacity="0.88"/>
<path d="M1779.56 668.375V691H1775.47V672.344H1775.34L1770.06 675.719V672L1775.66 668.375H1779.56Z" fill="black"/>
<path d="M1751.09 691V688.062L1759.09 680.344C1761.37 678.062 1762.56 676.719 1762.56 674.812C1762.56 672.719 1760.91 671.375 1758.69 671.375C1756.34 671.375 1754.84 672.844 1754.87 675.125H1751C1750.97 670.844 1754.19 668.062 1758.72 668.062C1763.34 668.062 1766.47 670.812 1766.47 674.625C1766.47 677.188 1765.22 679.25 1760.78 683.438L1756.75 687.438V687.594H1766.81V691H1751.09Z" fill="black"/>
<path d="M1739.09 691.312C1734.25 691.312 1730.81 688.688 1730.72 684.875H1734.81C1734.94 686.688 1736.75 687.875 1739.09 687.875C1741.59 687.875 1743.38 686.5 1743.38 684.5C1743.38 682.469 1741.62 681 1738.69 681H1736.66V677.875H1738.69C1741.09 677.875 1742.78 676.531 1742.75 674.562C1742.78 672.656 1741.34 671.375 1739.12 671.375C1737 671.375 1735.16 672.562 1735.09 674.469H1731.19C1731.28 670.656 1734.72 668.062 1739.16 668.062C1743.75 668.062 1746.72 670.875 1746.69 674.344C1746.72 676.875 1745.03 678.719 1742.56 679.219V679.406C1745.75 679.844 1747.56 681.875 1747.53 684.719C1747.56 688.531 1744 691.312 1739.09 691.312Z" fill="black"/>
</g>
<g id="convergence_hall_323">
<path d="M1404 1067C1404 1062.58 1407.58 1059 1412 1059H1989.5C1993.92 1059 1997.5 1062.58 1997.5 1067V1422C1997.5 1426.42 1993.92 1430 1989.5 1430H1573.5C1569.08 1430 1565.5 1426.42 1565.5 1422V1196C1565.5 1191.58 1561.92 1188 1557.5 1188H1412C1407.58 1188 1404 1184.42 1404 1180V1067Z" fill="#F7FBFF"/>
<path d="M1565.5 1422V1196C1565.5 1191.58 1561.92 1188 1557.5 1188V1185C1563.58 1185 1568.5 1189.92 1568.5 1196V1422C1568.5 1424.76 1570.74 1427 1573.5 1427V1430L1573.09 1429.99C1568.86 1429.77 1565.5 1426.28 1565.5 1422ZM1989.5 1427V1430H1573.5V1427H1989.5ZM1994.5 1422V1067C1994.5 1064.24 1992.26 1062 1989.5 1062H1412C1409.24 1062 1407 1064.24 1407 1067V1180C1407 1182.76 1409.24 1185 1412 1185L1412 1188C1407.58 1188 1404 1184.42 1404 1180V1067C1404 1062.72 1407.36 1059.23 1411.59 1059.01L1412 1059H1989.5C1993.92 1059 1997.5 1062.58 1997.5 1067V1422L1997.49 1422.41C1997.28 1426.5 1994 1429.78 1989.91 1429.99L1989.5 1430V1427C1992.26 1427 1994.5 1424.76 1994.5 1422ZM1557.5 1185V1188H1412L1412 1185H1557.5Z" fill="#2E2F33" fill-opacity="0.88"/>
<path d="M1774.59 1255.31C1769.75 1255.31 1766.31 1252.69 1766.22 1248.88H1770.31C1770.44 1250.69 1772.25 1251.88 1774.59 1251.88C1777.09 1251.88 1778.88 1250.5 1778.88 1248.5C1778.88 1246.47 1777.12 1245 1774.19 1245H1772.16V1241.88H1774.19C1776.59 1241.88 1778.28 1240.53 1778.25 1238.56C1778.28 1236.66 1776.84 1235.38 1774.62 1235.38C1772.5 1235.38 1770.66 1236.56 1770.59 1238.47H1766.69C1766.78 1234.66 1770.22 1232.06 1774.66 1232.06C1779.25 1232.06 1782.22 1234.88 1782.19 1238.34C1782.22 1240.88 1780.53 1242.72 1778.06 1243.22V1243.41C1781.25 1243.84 1783.06 1245.88 1783.03 1248.72C1783.06 1252.53 1779.5 1255.31 1774.59 1255.31Z" fill="black"/>
<path d="M1747.09 1255V1252.06L1755.09 1244.34C1757.37 1242.06 1758.56 1240.72 1758.56 1238.81C1758.56 1236.72 1756.91 1235.38 1754.69 1235.38C1752.34 1235.38 1750.84 1236.84 1750.87 1239.12H1747C1746.97 1234.84 1750.19 1232.06 1754.72 1232.06C1759.34 1232.06 1762.47 1234.81 1762.47 1238.62C1762.47 1241.19 1761.22 1243.25 1756.78 1247.44L1752.75 1251.44V1251.59H1762.81V1255H1747.09Z" fill="black"/>
<path d="M1735.09 1255.31C1730.25 1255.31 1726.81 1252.69 1726.72 1248.88H1730.81C1730.94 1250.69 1732.75 1251.88 1735.09 1251.88C1737.59 1251.88 1739.38 1250.5 1739.38 1248.5C1739.38 1246.47 1737.62 1245 1734.69 1245H1732.66V1241.88H1734.69C1737.09 1241.88 1738.78 1240.53 1738.75 1238.56C1738.78 1236.66 1737.34 1235.38 1735.12 1235.38C1733 1235.38 1731.16 1236.56 1731.09 1238.47H1727.19C1727.28 1234.66 1730.72 1232.06 1735.16 1232.06C1739.75 1232.06 1742.72 1234.88 1742.69 1238.34C1742.72 1240.88 1741.03 1242.72 1738.56 1243.22V1243.41C1741.75 1243.84 1743.56 1245.88 1743.53 1248.72C1743.56 1252.53 1740 1255.31 1735.09 1255.31Z" fill="black"/>
</g>
<g id="convergence_hall_313">
<path d="M259 977C259 972.582 262.582 969 267 969H317C321.418 969 325 972.582 325 977V1063C325 1067.42 321.418 1071 317 1071H267C262.582 1071 259 1067.42 259 1063V977Z" fill="#F7FBFF"/>
<path d="M317 1068V1071H267V1068H317ZM322 1063V977C322 974.239 319.761 972 317 972H267C264.239 972 262 974.239 262 977V1063C262 1065.76 264.239 1068 267 1068V1071C262.72 1071 259.225 1067.64 259.011 1063.41L259 1063V977C259 972.582 262.582 969 267 969H317L317.412 969.011C321.639 969.225 325 972.72 325 977V1063C325 1067.28 321.639 1070.77 317.412 1070.99L317 1071V1068C319.761 1068 322 1065.76 322 1063Z" fill="#2E2F33" fill-opacity="0.88"/>
<path d="M309 1031.31C304.156 1031.31 300.719 1028.69 300.625 1024.88H304.719C304.844 1026.69 306.656 1027.88 309 1027.88C311.5 1027.88 313.281 1026.5 313.281 1024.5C313.281 1022.47 311.531 1021 308.594 1021H306.562V1017.88H308.594C311 1017.88 312.688 1016.53 312.656 1014.56C312.688 1012.66 311.25 1011.38 309.031 1011.38C306.906 1011.38 305.062 1012.56 305 1014.47H301.094C301.188 1010.66 304.625 1008.06 309.062 1008.06C313.656 1008.06 316.625 1010.88 316.594 1014.34C316.625 1016.88 314.938 1018.72 312.469 1019.22V1019.41C315.656 1019.84 317.469 1021.88 317.438 1024.72C317.469 1028.53 313.906 1031.31 309 1031.31Z" fill="black"/>
<path d="M295.281 1008.38V1031H291.188V1012.34H291.062L285.781 1015.72V1012L291.375 1008.38H295.281Z" fill="black"/>
<path d="M274.094 1031.31C269.25 1031.31 265.812 1028.69 265.719 1024.88H269.812C269.938 1026.69 271.75 1027.88 274.094 1027.88C276.594 1027.88 278.375 1026.5 278.375 1024.5C278.375 1022.47 276.625 1021 273.688 1021H271.656V1017.88H273.688C276.094 1017.88 277.781 1016.53 277.75 1014.56C277.781 1012.66 276.344 1011.38 274.125 1011.38C272 1011.38 270.156 1012.56 270.094 1014.47H266.188C266.281 1010.66 269.719 1008.06 274.156 1008.06C278.75 1008.06 281.719 1010.88 281.688 1014.34C281.719 1016.88 280.031 1018.72 277.562 1019.22V1019.41C280.75 1019.84 282.562 1021.88 282.531 1024.72C282.562 1028.53 279 1031.31 274.094 1031.31Z" fill="black"/>
</g>
<g id="convergence_hall_3f_elevator_right">
<path d="M1499 1268C1499 1263.58 1502.58 1260 1507 1260H1561C1565.42 1260 1569 1263.58 1569 1268V1322C1569 1326.42 1565.42 1330 1561 1330H1507C1502.58 1330 1499 1326.42 1499 1322V1268Z" fill="#C4C4C4"/>
<path d="M1561 1327V1330H1507L1507 1327H1561ZM1566 1322V1268C1566 1265.24 1563.76 1263 1561 1263H1507C1504.24 1263 1502 1265.24 1502 1268V1322C1502 1324.76 1504.24 1327 1507 1327L1507 1330L1506.59 1329.99C1502.5 1329.78 1499.22 1326.5 1499.01 1322.41L1499 1322V1268C1499 1263.58 1502.58 1260 1507 1260H1561C1565.42 1260 1569 1263.58 1569 1268V1322C1569 1326.28 1565.64 1329.77 1561.41 1329.99L1561 1330V1327C1563.76 1327 1566 1324.76 1566 1322Z" fill="#2E2F33" fill-opacity="0.88"/>
<path d="M1544.62 1274.38H1523.38C1517.85 1274.38 1513.38 1278.85 1513.38 1284.38V1305.62C1513.38 1311.15 1517.85 1315.62 1523.38 1315.62H1544.62C1550.15 1315.62 1554.62 1311.15 1554.62 1305.62V1284.38C1554.62 1278.85 1550.15 1274.38 1544.62 1274.38ZM1535.02 1282.43H1536.17C1536.29 1282.43 1536.38 1282.34 1536.38 1282.23V1279.67C1536.38 1279.58 1536.46 1279.5 1536.56 1279.5H1538.45C1538.55 1279.5 1538.62 1279.58 1538.62 1279.67V1282.23C1538.62 1282.34 1538.72 1282.43 1538.83 1282.43H1539.99C1540.15 1282.43 1540.24 1282.63 1540.12 1282.75L1537.76 1285.11C1537.62 1285.25 1537.39 1285.25 1537.25 1285.11L1534.89 1282.75C1534.77 1282.63 1534.85 1282.43 1535.02 1282.43ZM1527.33 1281.96L1529.69 1279.6C1529.83 1279.46 1530.06 1279.46 1530.2 1279.6L1532.56 1281.96C1532.67 1282.08 1532.59 1282.28 1532.42 1282.28H1531.27C1531.15 1282.28 1531.06 1282.37 1531.06 1282.49V1285.04C1531.06 1285.14 1530.98 1285.22 1530.89 1285.22H1529C1528.9 1285.22 1528.82 1285.14 1528.82 1285.04V1282.49C1528.82 1282.37 1528.73 1282.28 1528.61 1282.28H1527.46C1527.29 1282.28 1527.21 1282.08 1527.33 1281.96ZM1549.29 1304.34C1549.29 1307.35 1546.84 1309.81 1543.82 1309.81H1524.18C1521.16 1309.81 1518.71 1307.35 1518.71 1304.34V1292.54C1518.71 1289.53 1521.16 1287.07 1524.18 1287.07H1543.82C1546.84 1287.07 1549.29 1289.53 1549.29 1292.54V1304.34Z" fill="#4592FB"/>
<path d="M1543.82 1288.04H1524.18C1521.69 1288.04 1519.68 1290.06 1519.68 1292.54V1304.34C1519.68 1306.82 1521.69 1308.84 1524.18 1308.84H1543.82C1546.3 1308.84 1548.32 1306.82 1548.32 1304.34V1292.54C1548.32 1290.06 1546.3 1288.04 1543.82 1288.04ZM1541.61 1290.93C1542.24 1290.93 1542.76 1291.44 1542.76 1292.08C1542.76 1292.71 1542.24 1293.22 1541.61 1293.22C1540.98 1293.22 1540.46 1292.71 1540.46 1292.08C1540.46 1291.44 1540.98 1290.93 1541.61 1290.93ZM1533.87 1290.93C1534.5 1290.93 1535.02 1291.44 1535.02 1292.08C1535.02 1292.71 1534.5 1293.22 1533.87 1293.22C1533.23 1293.22 1532.72 1292.71 1532.72 1292.08C1532.72 1291.44 1533.23 1290.93 1533.87 1290.93ZM1526.12 1290.93C1526.76 1290.93 1527.27 1291.44 1527.27 1292.08C1527.27 1292.71 1526.76 1293.22 1526.12 1293.22C1525.49 1293.22 1524.97 1292.71 1524.97 1292.08C1524.97 1291.44 1525.49 1290.93 1526.12 1290.93ZM1529.45 1299.08C1529.45 1299.44 1529.16 1299.73 1528.8 1299.73C1528.44 1299.73 1528.15 1299.44 1528.15 1299.08V1295.66H1527.81V1305.08C1527.81 1305.48 1527.49 1305.8 1527.1 1305.8C1526.7 1305.8 1526.38 1305.48 1526.38 1305.08V1299.67H1525.86V1305.08C1525.86 1305.48 1525.54 1305.8 1525.15 1305.8C1524.75 1305.8 1524.43 1305.48 1524.43 1305.08V1295.66H1524V1299.08C1524 1299.44 1523.7 1299.73 1523.34 1299.73C1522.98 1299.73 1522.69 1299.44 1522.69 1299.08V1295.05C1522.69 1294.33 1523.27 1293.75 1524 1293.75H1528.15C1528.87 1293.75 1529.45 1294.33 1529.45 1295.05V1299.08H1529.45ZM1537.2 1299.08C1537.2 1299.44 1536.91 1299.73 1536.55 1299.73C1536.19 1299.73 1535.89 1299.44 1535.89 1299.08V1295.66H1535.55V1305.08C1535.55 1305.48 1535.23 1305.8 1534.84 1305.8C1534.45 1305.8 1534.13 1305.48 1534.13 1305.08V1299.67H1533.6V1305.08C1533.6 1305.48 1533.28 1305.8 1532.89 1305.8C1532.5 1305.8 1532.18 1305.48 1532.18 1305.08V1295.66H1531.74V1299.08C1531.74 1299.44 1531.45 1299.73 1531.09 1299.73C1530.73 1299.73 1530.44 1299.44 1530.44 1299.08V1295.05C1530.44 1294.33 1531.02 1293.75 1531.74 1293.75H1535.89C1536.61 1293.75 1537.2 1294.33 1537.2 1295.05L1537.2 1299.08ZM1544.94 1299.08C1544.94 1299.44 1544.65 1299.73 1544.29 1299.73C1543.93 1299.73 1543.64 1299.44 1543.64 1299.08V1295.66H1543.3V1305.08C1543.3 1305.48 1542.98 1305.8 1542.58 1305.8C1542.19 1305.8 1541.87 1305.48 1541.87 1305.08V1299.67H1541.35V1305.08C1541.35 1305.48 1541.03 1305.8 1540.63 1305.8C1540.24 1305.8 1539.92 1305.48 1539.92 1305.08V1295.66H1539.48V1299.08C1539.48 1299.44 1539.19 1299.73 1538.83 1299.73C1538.47 1299.73 1538.18 1299.44 1538.18 1299.08V1295.05C1538.18 1294.33 1538.76 1293.75 1539.48 1293.75H1543.64C1544.36 1293.75 1544.94 1294.33 1544.94 1295.05V1299.08H1544.94Z" fill="#4592FB"/>
<path d="M1533.87 1293.22C1534.5 1293.22 1535.02 1292.71 1535.02 1292.08C1535.02 1291.44 1534.5 1290.93 1533.87 1290.93C1533.23 1290.93 1532.72 1291.44 1532.72 1292.08C1532.72 1292.71 1533.23 1293.22 1533.87 1293.22Z" fill="white"/>
<path d="M1526.12 1293.22C1526.76 1293.22 1527.27 1292.71 1527.27 1292.08C1527.27 1291.44 1526.76 1290.93 1526.12 1290.93C1525.49 1290.93 1524.97 1291.44 1524.97 1292.08C1524.97 1292.71 1525.49 1293.22 1526.12 1293.22Z" fill="white"/>
<path d="M1541.61 1293.22C1542.24 1293.22 1542.76 1292.71 1542.76 1292.08C1542.76 1291.44 1542.24 1290.93 1541.61 1290.93C1540.98 1290.93 1540.46 1291.44 1540.46 1292.08C1540.46 1292.71 1540.98 1293.22 1541.61 1293.22Z" fill="white"/>
<path d="M1543.83 1287.08H1524.18C1521.16 1287.08 1518.71 1289.53 1518.71 1292.54V1304.34C1518.71 1307.35 1521.16 1309.81 1524.18 1309.81H1543.83C1546.84 1309.81 1549.29 1307.35 1549.29 1304.34V1292.54C1549.29 1289.53 1546.84 1287.08 1543.83 1287.08ZM1548.33 1304.34C1548.33 1306.82 1546.3 1308.84 1543.83 1308.84H1524.18C1521.7 1308.84 1519.67 1306.82 1519.67 1304.34V1292.54C1519.67 1290.06 1521.7 1288.04 1524.18 1288.04H1543.83C1546.3 1288.04 1548.33 1290.06 1548.33 1292.54V1304.34Z" fill="white"/>
<path d="M1544.94 1295.05V1299.08C1544.94 1299.44 1544.65 1299.74 1544.29 1299.74C1543.92 1299.74 1543.64 1299.44 1543.64 1299.08V1295.66L1543.3 1295.66V1305.09C1543.3 1305.47 1542.98 1305.8 1542.59 1305.8C1542.19 1305.8 1541.88 1305.47 1541.88 1305.09V1299.66H1541.35V1305.09C1541.35 1305.47 1541.02 1305.8 1540.64 1305.8C1540.24 1305.8 1539.92 1305.47 1539.92 1305.09V1295.66H1539.49V1299.08C1539.49 1299.44 1539.19 1299.74 1538.84 1299.74C1538.48 1299.74 1538.17 1299.44 1538.17 1299.08V1295.05C1538.17 1294.33 1538.76 1293.75 1539.49 1293.75H1543.64C1544.36 1293.75 1544.94 1294.33 1544.94 1295.05Z" fill="white"/>
<path d="M1529.45 1295.05V1299.08C1529.45 1299.44 1529.16 1299.74 1528.8 1299.74C1528.44 1299.74 1528.15 1299.44 1528.15 1299.08V1295.66L1527.81 1295.66V1305.09C1527.81 1305.47 1527.49 1305.8 1527.1 1305.8C1526.7 1305.8 1526.39 1305.47 1526.39 1305.09V1299.66H1525.86V1305.09C1525.86 1305.47 1525.54 1305.8 1525.15 1305.8C1524.75 1305.8 1524.44 1305.47 1524.44 1305.09V1295.66H1524V1299.08C1524 1299.44 1523.7 1299.74 1523.35 1299.74C1522.99 1299.74 1522.69 1299.44 1522.69 1299.08V1295.05C1522.69 1294.33 1523.27 1293.75 1524 1293.75H1528.15C1528.88 1293.75 1529.45 1294.33 1529.45 1295.05Z" fill="white"/>
<path d="M1537.2 1295.05V1299.08C1537.2 1299.44 1536.91 1299.74 1536.55 1299.74C1536.19 1299.74 1535.9 1299.44 1535.9 1299.08V1295.66H1535.55V1305.09C1535.55 1305.47 1535.24 1305.8 1534.84 1305.8C1534.45 1305.8 1534.12 1305.47 1534.12 1305.09V1299.66H1533.6V1305.09C1533.6 1305.47 1533.29 1305.8 1532.89 1305.8C1532.5 1305.8 1532.17 1305.47 1532.17 1305.09V1295.66H1531.74V1299.08C1531.74 1299.44 1531.45 1299.74 1531.09 1299.74C1530.72 1299.74 1530.44 1299.44 1530.44 1299.08V1295.05C1530.44 1294.33 1531.02 1293.75 1531.74 1293.75H1535.9C1536.61 1293.75 1537.2 1294.33 1537.2 1295.05Z" fill="white"/>
<path d="M1527.46 1282.28H1528.61C1528.73 1282.28 1528.82 1282.37 1528.82 1282.49V1285.04C1528.82 1285.14 1528.9 1285.22 1529 1285.22H1530.89C1530.99 1285.22 1531.06 1285.14 1531.06 1285.04V1282.49C1531.06 1282.37 1531.16 1282.28 1531.27 1282.28H1532.42C1532.59 1282.28 1532.67 1282.08 1532.56 1281.96L1530.2 1279.61C1530.06 1279.46 1529.83 1279.46 1529.69 1279.61L1527.33 1281.96C1527.21 1282.08 1527.29 1282.28 1527.46 1282.28Z" fill="white"/>
<path d="M1537.25 1285.11C1537.39 1285.25 1537.62 1285.25 1537.76 1285.11L1540.11 1282.75C1540.23 1282.63 1540.15 1282.43 1539.98 1282.43H1538.83C1538.71 1282.43 1538.62 1282.34 1538.62 1282.23V1279.67C1538.62 1279.58 1538.54 1279.5 1538.45 1279.5H1536.56C1536.46 1279.5 1536.38 1279.58 1536.38 1279.67V1282.23C1536.38 1282.34 1536.29 1282.43 1536.17 1282.43H1535.02C1534.85 1282.43 1534.77 1282.63 1534.89 1282.75L1537.25 1285.11Z" fill="white"/>
</g>
<g id="convergence_hall_3f_elevator_left">
<path d="M190 1143C190 1138.58 193.582 1135 198 1135H258C262.418 1135 266 1138.58 266 1143V1193C266 1197.42 262.418 1201 258 1201H198C193.582 1201 190 1197.42 190 1193V1143Z" fill="#C4C4C4"/>
<path d="M258 1198V1201H198L198 1198H258ZM263 1193V1143C263 1140.24 260.761 1138 258 1138H198C195.239 1138 193 1140.24 193 1143V1193C193 1195.76 195.239 1198 198 1198L198 1201C193.72 1201 190.225 1197.64 190.011 1193.41L190 1193V1143C190 1138.58 193.582 1135 198 1135H258L258.412 1135.01C262.639 1135.23 266 1138.72 266 1143V1193L265.989 1193.41C265.782 1197.5 262.502 1200.78 258.412 1200.99L258 1201V1198C260.761 1198 263 1195.76 263 1193Z" fill="#2E2F33" fill-opacity="0.88"/>
<path d="M238.625 1147.38H217.375C211.853 1147.38 207.375 1151.85 207.375 1157.38V1178.62C207.375 1184.15 211.853 1188.62 217.375 1188.62H238.625C244.147 1188.62 248.625 1184.15 248.625 1178.62V1157.38C248.625 1151.85 244.147 1147.38 238.625 1147.38ZM229.02 1155.43H230.174C230.289 1155.43 230.381 1155.34 230.381 1155.23V1152.67C230.381 1152.58 230.46 1152.5 230.557 1152.5H232.449C232.546 1152.5 232.625 1152.58 232.625 1152.67V1155.23C232.625 1155.34 232.717 1155.43 232.832 1155.43H233.986C234.153 1155.43 234.235 1155.63 234.118 1155.75L231.759 1158.11C231.618 1158.25 231.389 1158.25 231.249 1158.11L228.89 1155.75C228.772 1155.63 228.855 1155.43 229.02 1155.43ZM221.327 1154.96L223.686 1152.6C223.827 1152.46 224.056 1152.46 224.196 1152.6L226.555 1154.96C226.673 1155.08 226.589 1155.28 226.424 1155.28H225.27C225.155 1155.28 225.062 1155.37 225.062 1155.49V1158.04C225.062 1158.14 224.984 1158.22 224.886 1158.22H222.995C222.898 1158.22 222.819 1158.14 222.819 1158.04V1155.49C222.819 1155.37 222.726 1155.28 222.611 1155.28H221.458C221.291 1155.28 221.21 1155.08 221.327 1154.96ZM243.29 1177.34C243.29 1180.35 240.838 1182.81 237.823 1182.81H218.176C215.161 1182.81 212.709 1180.35 212.709 1177.34V1165.54C212.709 1162.52 215.161 1160.07 218.176 1160.07H237.823C240.838 1160.07 243.29 1162.52 243.29 1165.54V1177.34Z" fill="#4592FB"/>
<path d="M237.823 1161.04H218.176C215.695 1161.04 213.676 1163.06 213.676 1165.54V1177.34C213.676 1179.82 215.695 1181.84 218.176 1181.84H237.823C240.304 1181.84 242.323 1179.82 242.323 1177.34V1165.54C242.323 1163.06 240.304 1161.04 237.823 1161.04ZM235.61 1163.93C236.245 1163.93 236.76 1164.44 236.76 1165.08C236.76 1165.71 236.245 1166.23 235.61 1166.23C234.975 1166.23 234.46 1165.71 234.46 1165.08C234.46 1164.44 234.975 1163.93 235.61 1163.93ZM227.866 1163.93C228.501 1163.93 229.016 1164.44 229.016 1165.08C229.016 1165.71 228.501 1166.23 227.866 1166.23C227.231 1166.23 226.716 1165.71 226.716 1165.08C226.716 1164.44 227.231 1163.93 227.866 1163.93ZM220.122 1163.93C220.757 1163.93 221.272 1164.44 221.272 1165.08C221.272 1165.71 220.757 1166.23 220.122 1166.23C219.487 1166.23 218.972 1165.71 218.972 1165.08C218.972 1164.44 219.487 1163.93 220.122 1163.93ZM223.455 1172.08C223.455 1172.44 223.162 1172.73 222.802 1172.73C222.442 1172.73 222.15 1172.44 222.15 1172.08V1168.66H221.809V1178.08C221.809 1178.48 221.49 1178.8 221.096 1178.8C220.703 1178.8 220.384 1178.48 220.384 1178.08V1172.67H219.859V1178.08C219.859 1178.48 219.54 1178.8 219.146 1178.8C218.753 1178.8 218.434 1178.48 218.434 1178.08V1168.66H217.995V1172.08C217.995 1172.44 217.703 1172.73 217.343 1172.73C216.983 1172.73 216.69 1172.44 216.69 1172.08V1168.05C216.69 1167.33 217.274 1166.75 217.995 1166.75H222.147C222.868 1166.75 223.452 1167.33 223.452 1168.05V1172.08H223.455ZM231.199 1172.08C231.199 1172.44 230.906 1172.73 230.546 1172.73C230.186 1172.73 229.894 1172.44 229.894 1172.08V1168.66H229.553V1178.08C229.553 1178.48 229.234 1178.8 228.84 1178.8C228.446 1178.8 228.127 1178.48 228.127 1178.08V1172.67H227.604V1178.08C227.604 1178.48 227.285 1178.8 226.891 1178.8C226.498 1178.8 226.179 1178.48 226.179 1178.08V1168.66H225.74V1172.08C225.74 1172.44 225.448 1172.73 225.088 1172.73C224.728 1172.73 224.435 1172.44 224.435 1172.08V1168.05C224.435 1167.33 225.019 1166.75 225.74 1166.75H229.893C230.614 1166.75 231.198 1167.33 231.198 1168.05L231.199 1172.08ZM238.942 1172.08C238.942 1172.44 238.65 1172.73 238.29 1172.73C237.93 1172.73 237.637 1172.44 237.637 1172.08V1168.66H237.296V1178.08C237.296 1178.48 236.978 1178.8 236.584 1178.8C236.19 1178.8 235.871 1178.48 235.871 1178.08V1172.67H235.346V1178.08C235.346 1178.48 235.028 1178.8 234.634 1178.8C234.24 1178.8 233.921 1178.48 233.921 1178.08V1168.66H233.482V1172.08C233.482 1172.44 233.19 1172.73 232.83 1172.73C232.47 1172.73 232.177 1172.44 232.177 1172.08V1168.05C232.177 1167.33 232.761 1166.75 233.482 1166.75H237.635C238.356 1166.75 238.94 1167.33 238.94 1168.05V1172.08H238.942Z" fill="#4592FB"/>
<path d="M227.866 1166.23C228.501 1166.23 229.016 1165.71 229.016 1165.08C229.016 1164.44 228.501 1163.93 227.866 1163.93C227.231 1163.93 226.716 1164.44 226.716 1165.08C226.716 1165.71 227.231 1166.23 227.866 1166.23Z" fill="white"/>
<path d="M220.122 1166.23C220.757 1166.23 221.272 1165.71 221.272 1165.08C221.272 1164.44 220.757 1163.93 220.122 1163.93C219.487 1163.93 218.972 1164.44 218.972 1165.08C218.972 1165.71 219.487 1166.23 220.122 1166.23Z" fill="white"/>
<path d="M235.61 1166.23C236.245 1166.23 236.76 1165.71 236.76 1165.08C236.76 1164.44 236.245 1163.93 235.61 1163.93C234.975 1163.93 234.46 1164.44 234.46 1165.08C234.46 1165.71 234.975 1166.23 235.61 1166.23Z" fill="white"/>
<path d="M237.825 1160.08H218.175C215.163 1160.08 212.712 1162.53 212.712 1165.54V1177.34C212.712 1180.35 215.163 1182.81 218.175 1182.81H237.825C240.838 1182.81 243.287 1180.35 243.287 1177.34V1165.54C243.287 1162.53 240.838 1160.08 237.825 1160.08ZM242.325 1177.34C242.325 1179.82 240.3 1181.84 237.825 1181.84H218.175C215.7 1181.84 213.675 1179.82 213.675 1177.34V1165.54C213.675 1163.06 215.7 1161.04 218.175 1161.04H237.825C240.3 1161.04 242.325 1163.06 242.325 1165.54V1177.34Z" fill="white"/>
<path d="M238.938 1168.05V1172.08C238.938 1172.44 238.65 1172.74 238.287 1172.74C237.925 1172.74 237.637 1172.44 237.637 1172.08V1168.66L237.3 1168.66V1178.09C237.3 1178.47 236.975 1178.8 236.588 1178.8C236.188 1178.8 235.875 1178.47 235.875 1178.09V1172.66H235.35V1178.09C235.35 1178.47 235.025 1178.8 234.637 1178.8C234.237 1178.8 233.925 1178.47 233.925 1178.09V1168.66H233.487V1172.08C233.487 1172.44 233.188 1172.74 232.838 1172.74C232.475 1172.74 232.175 1172.44 232.175 1172.08V1168.05C232.175 1167.33 232.763 1166.75 233.487 1166.75H237.637C238.362 1166.75 238.938 1167.33 238.938 1168.05Z" fill="white"/>
<path d="M223.45 1168.05V1172.08C223.45 1172.44 223.162 1172.74 222.8 1172.74C222.438 1172.74 222.15 1172.44 222.15 1172.08L222.15 1168.66L221.812 1168.66V1178.09C221.812 1178.47 221.487 1178.8 221.1 1178.8C220.7 1178.8 220.388 1178.47 220.388 1178.09V1172.66H219.862V1178.09C219.862 1178.47 219.538 1178.8 219.15 1178.8C218.75 1178.8 218.438 1178.47 218.438 1178.09V1168.66H218V1172.08C218 1172.44 217.7 1172.74 217.35 1172.74C216.988 1172.74 216.688 1172.44 216.688 1172.08V1168.05C216.688 1167.33 217.275 1166.75 218 1166.75H222.15C222.875 1166.75 223.45 1167.33 223.45 1168.05Z" fill="white"/>
<path d="M231.2 1168.05V1172.08C231.2 1172.44 230.912 1172.74 230.55 1172.74C230.188 1172.74 229.9 1172.44 229.9 1172.08V1168.66H229.55V1178.09C229.55 1178.47 229.237 1178.8 228.837 1178.8C228.45 1178.8 228.125 1178.47 228.125 1178.09V1172.66H227.6V1178.09C227.6 1178.47 227.288 1178.8 226.888 1178.8C226.5 1178.8 226.175 1178.47 226.175 1178.09V1168.66H225.737V1172.08C225.737 1172.44 225.45 1172.74 225.087 1172.74C224.725 1172.74 224.438 1172.44 224.438 1172.08V1168.05C224.438 1167.33 225.025 1166.75 225.737 1166.75H229.9C230.612 1166.75 231.2 1167.33 231.2 1168.05Z" fill="white"/>
<path d="M221.459 1155.28H222.612C222.728 1155.28 222.82 1155.37 222.82 1155.49V1158.04C222.82 1158.14 222.899 1158.22 222.996 1158.22H224.888C224.985 1158.22 225.064 1158.14 225.064 1158.04V1155.49C225.064 1155.37 225.156 1155.28 225.271 1155.28H226.425C226.591 1155.28 226.674 1155.08 226.556 1154.96L224.198 1152.61C224.056 1152.46 223.827 1152.46 223.688 1152.61L221.329 1154.96C221.211 1155.08 221.294 1155.28 221.459 1155.28Z" fill="white"/>
<path d="M231.246 1158.11C231.388 1158.25 231.616 1158.25 231.756 1158.11L234.115 1155.75C234.232 1155.63 234.149 1155.43 233.984 1155.43H232.83C232.715 1155.43 232.622 1155.34 232.622 1155.23V1152.67C232.622 1152.58 232.544 1152.5 232.446 1152.5H230.555C230.458 1152.5 230.379 1152.58 230.379 1152.67V1155.23C230.379 1155.34 230.286 1155.43 230.171 1155.43H229.017C228.851 1155.43 228.769 1155.63 228.886 1155.75L231.246 1158.11Z" fill="white"/>
</g>
<g id="convergence_hall_3f_toilet_girl_right">
<path d="M1517 270C1517 265.582 1520.58 262 1525 262H1631C1635.42 262 1639 265.582 1639 270V503C1639 507.418 1635.42 511 1631 511H1525C1520.58 511 1517 507.418 1517 503V270Z" fill="#FED9C4"/>
<path d="M1631 508V511H1525L1525 508H1631ZM1636 503V270C1636 267.239 1633.76 265 1631 265H1525C1522.24 265 1520 267.239 1520 270V503C1520 505.761 1522.24 508 1525 508L1525 511L1524.59 510.989C1520.36 510.775 1517 507.28 1517 503V270C1517 265.72 1520.36 262.225 1524.59 262.011L1525 262H1631C1635.42 262 1639 265.582 1639 270V503C1639 507.418 1635.42 511 1631 511V508C1633.76 508 1636 505.761 1636 503Z" fill="#2E2F33" fill-opacity="0.88"/>
<path d="M1590.75 361.25H1565.25C1558.62 361.25 1553.25 366.623 1553.25 373.25V398.75C1553.25 405.377 1558.62 410.75 1565.25 410.75H1590.75C1597.38 410.75 1602.75 405.377 1602.75 398.75V373.25C1602.75 366.623 1597.38 361.25 1590.75 361.25Z" fill="#E76D6D"/>
<path d="M1575.27 383.977L1569.81 396.524C1568.95 398.488 1570.39 400.685 1572.53 400.685H1583.46C1585.61 400.685 1587.05 398.488 1586.19 396.524L1580.72 383.977C1579.69 381.594 1576.31 381.594 1575.27 383.977H1575.27Z" fill="white"/>
<path d="M1578 379.381C1580.23 379.381 1582.03 377.575 1582.03 375.349C1582.03 373.122 1580.23 371.316 1578 371.316C1575.77 371.316 1573.97 373.122 1573.97 375.349C1573.97 377.575 1575.77 379.381 1578 379.381Z" fill="white"/>
</g>
<g id="convergence_hall_3f_toilet_girl_left">
<path d="M74 1206C74 1201.58 77.5817 1198 82 1198H225.5C229.918 1198 233.5 1201.58 233.5 1206V1239.5C233.5 1243.92 237.082 1247.5 241.5 1247.5H318C322.418 1247.5 326 1251.08 326 1255.5V1308C326 1312.42 322.418 1316 318 1316H82C77.5817 1316 74 1312.42 74 1308V1206Z" fill="#FED9C4"/>
<path d="M318 1313V1316H82L82 1313H318ZM323 1308V1255.5C323 1252.74 320.761 1250.5 318 1250.5H241.5C235.425 1250.5 230.5 1245.58 230.5 1239.5V1206C230.5 1203.24 228.261 1201 225.5 1201H82C79.2386 1201 77 1203.24 77 1206V1308C77 1310.76 79.2386 1313 82 1313L82 1316L81.5879 1315.99C77.4976 1315.78 74.2183 1312.5 74.0107 1308.41L74 1308V1206C74 1201.58 77.5817 1198 82 1198H225.5C229.918 1198 233.5 1201.58 233.5 1206V1239.5C233.5 1243.92 237.082 1247.5 241.5 1247.5H318C322.418 1247.5 326 1251.08 326 1255.5V1308L325.989 1308.41C325.782 1312.5 322.502 1315.78 318.412 1315.99L318 1316V1313C320.761 1313 323 1310.76 323 1308Z" fill="#2E2F33" fill-opacity="0.88"/>
<path d="M189.75 1232.25H164.25C157.623 1232.25 152.25 1237.62 152.25 1244.25V1269.75C152.25 1276.38 157.623 1281.75 164.25 1281.75H189.75C196.377 1281.75 201.75 1276.38 201.75 1269.75V1244.25C201.75 1237.62 196.377 1232.25 189.75 1232.25Z" fill="#E76D6D"/>
<path d="M174.274 1254.98L168.809 1267.52C167.953 1269.49 169.392 1271.68 171.534 1271.68H182.465C184.606 1271.68 186.046 1269.49 185.19 1267.52L179.724 1254.98C178.686 1252.59 175.31 1252.59 174.271 1254.98H174.274Z" fill="white"/>
<path d="M177 1250.38C179.227 1250.38 181.032 1248.58 181.032 1246.35C181.032 1244.12 179.227 1242.32 177 1242.32C174.773 1242.32 172.968 1244.12 172.968 1246.35C172.968 1248.58 174.773 1250.38 177 1250.38Z" fill="white"/>
</g>
<g id="convergence_hall_3f_toilet_boy_right">
<path d="M1517 574C1517 569.582 1520.58 566 1525 566H1631C1635.42 566 1639 569.582 1639 574V787C1639 791.418 1635.42 795 1631 795H1525C1520.58 795 1517 791.418 1517 787V574Z" fill="#FED9C4"/>
<path d="M1631 792V795H1525L1525 792H1631ZM1636 787V574C1636 571.239 1633.76 569 1631 569H1525C1522.24 569 1520 571.239 1520 574V787C1520 789.761 1522.24 792 1525 792L1525 795L1524.59 794.989C1520.5 794.782 1517.22 791.502 1517.01 787.412L1517 787V574C1517 569.72 1520.36 566.225 1524.59 566.011L1525 566H1631C1635.42 566 1639 569.582 1639 574V787L1638.99 787.412C1638.77 791.639 1635.28 795 1631 795V792C1633.76 792 1636 789.761 1636 787Z" fill="#2E2F33" fill-opacity="0.88"/>
<path d="M1590.75 655.25H1565.25C1558.62 655.25 1553.25 660.623 1553.25 667.25V692.75C1553.25 699.377 1558.62 704.75 1565.25 704.75H1590.75C1597.38 704.75 1602.75 699.377 1602.75 692.75V667.25C1602.75 660.623 1597.38 655.25 1590.75 655.25Z" fill="#3076D1"/>
<path d="M1580.73 692.889L1586.19 680.342C1587.05 678.379 1585.61 676.181 1583.47 676.181H1572.54C1570.39 676.181 1568.95 678.379 1569.81 680.342L1575.28 692.889C1576.31 695.271 1579.69 695.271 1580.73 692.889H1580.73Z" fill="white"/>
<path d="M1578 673.388C1580.23 673.388 1582.03 671.583 1582.03 669.356C1582.03 667.129 1580.23 665.324 1578 665.324C1575.77 665.324 1573.97 667.129 1573.97 669.356C1573.97 671.583 1575.77 673.388 1578 673.388Z" fill="white"/>
</g>
<g id="convergence_hall_3f_toilet_boy_left">
<path d="M262.33 1143C262.33 1138.58 265.912 1135 270.33 1135H318C322.418 1135 326 1138.58 326 1143V1242C326 1246.42 322.418 1250 318 1250H239C234.582 1250 231 1246.42 231 1242V1206C231 1201.58 234.582 1198 239 1198H254.33C258.748 1198 262.33 1194.42 262.33 1190V1143Z" fill="#FED9C4"/>
<path d="M318 1247V1250H239L239 1247H318ZM323 1242V1143C323 1140.24 320.761 1138 318 1138H270.33C267.569 1138 265.33 1140.24 265.33 1143V1190C265.33 1196.08 260.405 1201 254.33 1201H239C236.239 1201 234 1203.24 234 1206V1242C234 1244.76 236.239 1247 239 1247L239 1250L238.588 1249.99C234.498 1249.78 231.218 1246.5 231.011 1242.41L231 1242V1206C231 1201.58 234.582 1198 239 1198H254.33L254.741 1197.99C258.832 1197.78 262.112 1194.5 262.319 1190.41L262.33 1190V1143C262.33 1138.72 265.691 1135.23 269.918 1135.01L270.33 1135H318L318.412 1135.01C322.639 1135.23 326 1138.72 326 1143V1242L325.989 1242.41C325.782 1246.5 322.502 1249.78 318.412 1249.99L318 1250V1247C320.761 1247 323 1244.76 323 1242Z" fill="#2E2F33" fill-opacity="0.88"/>
<path d="M305.75 1176.25H280.25C273.623 1176.25 268.25 1181.62 268.25 1188.25V1213.75C268.25 1220.38 273.623 1225.75 280.25 1225.75H305.75C312.377 1225.75 317.75 1220.38 317.75 1213.75V1188.25C317.75 1181.62 312.377 1176.25 305.75 1176.25Z" fill="#3076D1"/>
<path d="M295.725 1213.89L301.191 1201.34C302.047 1199.38 300.608 1197.18 298.466 1197.18H287.535C285.394 1197.18 283.953 1199.38 284.81 1201.34L290.276 1213.89C291.314 1216.27 294.691 1216.27 295.729 1213.89H295.725Z" fill="white"/>
<path d="M293 1194.39C295.227 1194.39 297.032 1192.58 297.032 1190.36C297.032 1188.13 295.227 1186.32 293 1186.32C290.773 1186.32 288.968 1188.13 288.968 1190.36C288.968 1192.58 290.773 1194.39 293 1194.39Z" fill="white"/>
</g>
<g id="convergence_hall_3f_stairs_right_to_2f">
<path d="M1324 776C1324 771.582 1327.58 768 1332 768H1380C1384.42 768 1388 771.582 1388 776V950C1388 954.418 1384.42 958 1380 958H1332C1327.58 958 1324 954.418 1324 950V776Z" fill="#D9FFE6"/>
<path d="M1380 955V958H1332V955H1380ZM1385 950V776C1385 773.239 1382.76 771 1380 771H1332C1329.24 771 1327 773.239 1327 776V950C1327 952.761 1329.24 955 1332 955V958C1327.72 958 1324.23 954.639 1324.01 950.412L1324 950V776C1324 771.582 1327.58 768 1332 768H1380C1384.42 768 1388 771.582 1388 776V950C1388 954.418 1384.42 958 1380 958V955C1382.76 955 1385 952.761 1385 950Z" fill="#2E2F33" fill-opacity="0.88"/>
<path d="M1379.94 836.634C1378.89 836.247 1377.73 836.787 1377.34 837.836L1373.58 848.055H1352.28L1355.81 839.289C1356.22 838.251 1355.72 837.071 1354.68 836.654C1353.64 836.237 1352.46 836.742 1352.05 837.777L1332.43 886.581C1332.02 887.619 1332.52 888.8 1333.56 889.217C1333.8 889.316 1334.06 889.364 1334.31 889.364C1335.11 889.364 1335.87 888.884 1336.19 888.093L1340.22 878.071C1340.31 878.083 1340.38 878.121 1340.47 878.121H1362.52L1359.39 886.64C1359 887.688 1359.54 888.854 1360.59 889.238C1360.82 889.324 1361.06 889.364 1361.29 889.364C1362.11 889.364 1362.89 888.855 1363.19 888.036L1381.14 839.232C1381.53 838.184 1380.99 837.019 1379.94 836.634ZM1351.07 852.104H1372.09L1368.85 860.91H1347.11L1350.69 852.026C1350.82 852.051 1350.94 852.104 1351.07 852.104ZM1341.83 874.072L1345.51 864.903C1345.61 864.917 1345.69 864.961 1345.79 864.961H1367.36L1364.01 874.072H1341.83Z" fill="#6E4944"/>
</g>
<g id="convergence_hall_3f_stairs_left_to_2f">
<path d="M402 681C402 676.582 405.582 673 410 673H526C530.418 673 534 676.582 534 681V733C534 737.418 530.418 741 526 741H410C405.582 741 402 737.418 402 733V681Z" fill="#D9FFE6"/>
<path d="M526 738V741H410V738H526ZM531 733V681C531 678.239 528.761 676 526 676H410C407.239 676 405 678.239 405 681V733C405 735.761 407.239 738 410 738V741C405.72 741 402.225 737.639 402.011 733.412L402 733V681C402 676.582 405.582 673 410 673H526L526.412 673.011C530.639 673.225 534 676.72 534 681V733C534 737.28 530.639 740.775 526.412 740.989L526 741V738C528.761 738 531 735.761 531 733Z" fill="#2E2F33" fill-opacity="0.88"/>
<path d="M491.94 680.635C490.892 680.247 489.728 680.788 489.341 681.836L485.58 692.056H464.281L467.805 683.289C468.222 682.251 467.72 681.071 466.682 680.654C465.644 680.237 464.465 680.743 464.048 681.778L444.432 730.581C444.015 731.619 444.518 732.8 445.556 733.217C445.803 733.316 446.058 733.364 446.31 733.364C447.113 733.364 447.873 732.884 448.189 732.093L452.218 722.07C452.306 722.083 452.382 722.121 452.472 722.121H474.519L471.385 730.64C471 731.688 471.537 732.854 472.587 733.238C472.818 733.323 473.055 733.364 473.286 733.364C474.11 733.364 474.885 732.855 475.187 732.036L493.142 683.233C493.527 682.184 492.99 681.019 491.94 680.635ZM463.074 696.104H484.089L480.849 704.911H459.114L462.686 696.026C462.816 696.052 462.936 696.104 463.074 696.104ZM453.825 718.071L457.51 708.903C457.606 708.917 457.694 708.96 457.794 708.96H479.361L476.008 718.071H453.825Z" fill="#6E4944"/>
</g>
<g id="convergence_hall_3f_stairs_left">
<path d="M73 977C73 972.582 76.5817 969 81 969H254C258.418 969 262 972.582 262 977V1063C262 1067.42 258.418 1071 254 1071H81C76.5817 1071 73 1067.42 73 1063V977Z" fill="#D9FFE6"/>
<path d="M254 1068V1071H81L81 1068H254ZM259 1063V977C259 974.239 256.761 972 254 972H81C78.2386 972 76 974.239 76 977V1063C76 1065.76 78.2386 1068 81 1068L81 1071C76.7199 1071 73.2252 1067.64 73.0107 1063.41L73 1063V977C73 972.72 76.3611 969.225 80.5879 969.011L81 969H254L254.412 969.011C258.639 969.225 262 972.72 262 977V1063C262 1067.42 258.418 1071 254 1071V1068C256.761 1068 259 1065.76 259 1063Z" fill="#2E2F33" fill-opacity="0.88"/>
<path d="M190.94 993.635C189.892 993.248 188.728 993.788 188.341 994.836L184.58 1005.06H163.282L166.805 996.289C167.222 995.251 166.72 994.071 165.682 993.654C164.644 993.237 163.465 993.743 163.048 994.778L143.432 1043.58C143.015 1044.62 143.518 1045.8 144.556 1046.22C144.803 1046.32 145.058 1046.36 145.31 1046.36C146.112 1046.36 146.873 1045.88 147.189 1045.09L151.218 1035.07C151.305 1035.08 151.382 1035.12 151.472 1035.12H173.519L170.385 1043.64C170 1044.69 170.537 1045.85 171.587 1046.24C171.818 1046.32 172.055 1046.36 172.286 1046.36C173.11 1046.36 173.885 1045.86 174.187 1045.04L192.142 996.233C192.527 995.184 191.99 994.019 190.94 993.635ZM162.074 1009.1H183.089L179.849 1017.91H158.114L161.686 1009.03C161.816 1009.05 161.936 1009.1 162.074 1009.1ZM152.825 1031.07L156.51 1021.9C156.606 1021.92 156.693 1021.96 156.794 1021.96H178.361L175.008 1031.07H152.825Z" fill="#6E4944"/>
</g>
<g id="convergence_hall_3f_stairs_right">
<path d="M1388 1335C1388 1330.58 1391.58 1327 1396 1327H1561C1565.42 1327 1569 1330.58 1569 1335V1422C1569 1426.42 1565.42 1430 1561 1430H1396C1391.58 1430 1388 1426.42 1388 1422V1335Z" fill="#D9FFE6"/>
<path d="M1561 1427V1430H1396L1396 1427H1561ZM1566 1422V1335C1566 1332.24 1563.76 1330 1561 1330H1396C1393.24 1330 1391 1332.24 1391 1335V1422C1391 1424.76 1393.24 1427 1396 1427L1396 1430L1395.59 1429.99C1391.5 1429.78 1388.22 1426.5 1388.01 1422.41L1388 1422V1335C1388 1330.72 1391.36 1327.23 1395.59 1327.01L1396 1327H1561C1565.42 1327 1569 1330.58 1569 1335V1422L1568.99 1422.41C1568.77 1426.64 1565.28 1430 1561 1430V1427C1563.76 1427 1566 1424.76 1566 1422Z" fill="#2E2F33" fill-opacity="0.88"/>
<path d="M1501.94 1351.63C1500.89 1351.25 1499.73 1351.79 1499.34 1352.84L1495.58 1363.06H1474.28L1477.81 1354.29C1478.22 1353.25 1477.72 1352.07 1476.68 1351.65C1475.64 1351.24 1474.46 1351.74 1474.05 1352.78L1454.43 1401.58C1454.01 1402.62 1454.52 1403.8 1455.56 1404.22C1455.8 1404.32 1456.06 1404.36 1456.31 1404.36C1457.11 1404.36 1457.87 1403.88 1458.19 1403.09L1462.22 1393.07C1462.31 1393.08 1462.38 1393.12 1462.47 1393.12H1484.52L1481.39 1401.64C1481 1402.69 1481.54 1403.85 1482.59 1404.24C1482.82 1404.32 1483.06 1404.36 1483.29 1404.36C1484.11 1404.36 1484.89 1403.86 1485.19 1403.04L1503.14 1354.23C1503.53 1353.18 1502.99 1352.02 1501.94 1351.63ZM1473.07 1367.1H1494.09L1490.85 1375.91H1469.11L1472.69 1367.03C1472.82 1367.05 1472.94 1367.1 1473.07 1367.1ZM1463.82 1389.07L1467.51 1379.9C1467.61 1379.92 1467.69 1379.96 1467.79 1379.96H1489.36L1486.01 1389.07H1463.82Z" fill="#6E4944"/>
</g>
<g id="convergence_hall_3f_gate_cheongsong">
<path d="M437 478C437 498.435 420.435 515 400 515C379.565 515 363 498.435 363 478C363 457.565 379.565 441 400 441C420.435 441 437 457.565 437 478Z" fill="#B1A4FF"/>
<path d="M434 478C434 459.222 418.778 444 400 444C381.222 444 366 459.222 366 478C366 496.778 381.222 512 400 512V515C379.565 515 363 498.435 363 478C363 457.565 379.565 441 400 441C420.435 441 437 457.565 437 478C437 498.435 420.435 515 400 515V512C418.778 512 434 496.778 434 478Z" fill="#2E2F33" fill-opacity="0.88"/>
<path d="M408.125 459.375H391.888C389.653 459.375 387.842 461.186 387.842 463.42V492.586C387.842 494.82 389.653 496.631 391.888 496.631H408.125C410.359 496.631 412.171 494.82 412.171 492.586V463.42C412.171 461.186 410.359 459.375 408.125 459.375Z" fill="#5E403B"/>
<path d="M406.601 480.894C408.197 480.894 409.492 479.599 409.492 478.002C409.492 476.406 408.197 475.111 406.601 475.111C405.004 475.111 403.709 476.406 403.709 478.002C403.709 479.599 405.004 480.894 406.601 480.894Z" fill="#FFDE57"/>
<path d="M406.601 479.136C407.226 479.136 407.734 478.628 407.734 478.002C407.734 477.377 407.226 476.869 406.601 476.869C405.975 476.869 405.467 477.377 405.467 478.002C405.467 478.628 405.975 479.136 406.601 479.136Z" fill="#CB8C00"/>
<path d="M406.603 476.873H401.789C401.165 476.873 400.658 477.38 400.658 478.005C400.658 478.629 401.165 479.136 401.789 479.136H406.603C407.227 479.136 407.734 478.629 407.734 478.005C407.734 477.38 407.227 476.873 406.603 476.873Z" fill="#CB8C00"/>
</g>
<g id="convergence_hall_3f_gate_changjo">
<path d="M1503 392C1503 412.435 1486.43 429 1466 429C1445.57 429 1429 412.435 1429 392C1429 371.565 1445.57 355 1466 355C1486.43 355 1503 371.565 1503 392Z" fill="#B1A4FF"/>
<path d="M1500 392C1500 373.222 1484.78 358 1466 358C1447.22 358 1432 373.222 1432 392C1432 410.778 1447.22 426 1466 426V429C1445.57 429 1429 412.435 1429 392C1429 371.565 1445.57 355 1466 355C1486.43 355 1503 371.565 1503 392C1503 412.435 1486.43 429 1466 429V426C1484.78 426 1500 410.778 1500 392Z" fill="#2E2F33" fill-opacity="0.88"/>
<path d="M1474.13 373.375H1457.89C1455.65 373.375 1453.84 375.186 1453.84 377.42V406.586C1453.84 408.82 1455.65 410.631 1457.89 410.631H1474.13C1476.36 410.631 1478.17 408.82 1478.17 406.586V377.42C1478.17 375.186 1476.36 373.375 1474.13 373.375Z" fill="#5E403B"/>
<path d="M1472.6 394.894C1474.2 394.894 1475.49 393.599 1475.49 392.002C1475.49 390.406 1474.2 389.111 1472.6 389.111C1471 389.111 1469.71 390.406 1469.71 392.002C1469.71 393.599 1471 394.894 1472.6 394.894Z" fill="#FFDE57"/>
<path d="M1472.6 393.136C1473.23 393.136 1473.73 392.628 1473.73 392.002C1473.73 391.377 1473.23 390.869 1472.6 390.869C1471.97 390.869 1471.47 391.377 1471.47 392.002C1471.47 392.628 1471.97 393.136 1472.6 393.136Z" fill="#CB8C00"/>
<path d="M1472.6 390.873H1467.79C1467.16 390.873 1466.66 391.38 1466.66 392.005C1466.66 392.629 1467.16 393.136 1467.79 393.136H1472.6C1473.23 393.136 1473.73 392.629 1473.73 392.005C1473.73 391.38 1473.23 390.873 1472.6 390.873Z" fill="#CB8C00"/>
</g>
<g id="convergence_hall_3f_terrace">
<path d="M401 1316C401 1336.43 384.435 1353 364 1353C343.565 1353 327 1336.43 327 1316C327 1295.57 343.565 1279 364 1279C384.435 1279 401 1295.57 401 1316Z" fill="#B1A4FF"/>
<path d="M398 1316C398 1297.22 382.778 1282 364 1282C345.222 1282 330 1297.22 330 1316C330 1334.78 345.222 1350 364 1350V1353C343.565 1353 327 1336.43 327 1316C327 1295.57 343.565 1279 364 1279C384.435 1279 401 1295.57 401 1316C401 1336.43 384.435 1353 364 1353V1350C382.778 1350 398 1334.78 398 1316Z" fill="#2E2F33" fill-opacity="0.88"/>
<path d="M372.125 1297.37H355.888C353.653 1297.37 351.842 1299.19 351.842 1301.42V1330.59C351.842 1332.82 353.653 1334.63 355.888 1334.63H372.125C374.359 1334.63 376.171 1332.82 376.171 1330.59V1301.42C376.171 1299.19 374.359 1297.37 372.125 1297.37Z" fill="#5E403B"/>
<path d="M370.601 1318.89C372.197 1318.89 373.492 1317.6 373.492 1316C373.492 1314.41 372.197 1313.11 370.601 1313.11C369.004 1313.11 367.709 1314.41 367.709 1316C367.709 1317.6 369.004 1318.89 370.601 1318.89Z" fill="#FFDE57"/>
<path d="M370.601 1317.14C371.226 1317.14 371.734 1316.63 371.734 1316C371.734 1315.38 371.226 1314.87 370.601 1314.87C369.975 1314.87 369.467 1315.38 369.467 1316C369.467 1316.63 369.975 1317.14 370.601 1317.14Z" fill="#CB8C00"/>
<path d="M370.603 1314.87H365.789C365.165 1314.87 364.658 1315.38 364.658 1316C364.658 1316.63 365.165 1317.14 365.789 1317.14H370.603C371.227 1317.14 371.734 1316.63 371.734 1316C371.734 1315.38 371.227 1314.87 370.603 1314.87Z" fill="#CB8C00"/>
</g>
<g id="convergence_hall_318-2">
<path d="M770 14C770 9.58172 773.582 6 778 6H1089C1093.42 6 1097 9.58172 1097 14V500C1097 504.418 1093.42 508 1089 508H778C773.582 508 770 504.418 770 500V14Z" fill="#F7FBFF"/>
<path d="M1089 505V508H778L778 505H1089ZM1094 500V14C1094 11.2386 1091.76 9 1089 9H778C775.239 9 773 11.2386 773 14V500C773 502.761 775.239 505 778 505L778 508C773.72 508 770.225 504.639 770.011 500.412L770 500V14C770 9.58172 773.582 6 778 6H1089L1089.41 6.01074C1093.64 6.22523 1097 9.71995 1097 14V500L1096.99 500.412C1096.78 504.502 1093.5 507.782 1089.41 507.989L1089 508V505C1091.76 505 1094 502.761 1094 500Z" fill="#2E2F33" fill-opacity="0.88"/>
<path d="M959.375 268V265.062L967.375 257.344C969.656 255.062 970.844 253.719 970.844 251.812C970.844 249.719 969.187 248.375 966.969 248.375C964.625 248.375 963.125 249.844 963.156 252.125H959.281C959.25 247.844 962.469 245.062 967 245.062C971.625 245.062 974.75 247.812 974.75 251.625C974.75 254.188 973.5 256.25 969.062 260.438L965.031 264.438V264.594H975.094V268H959.375Z" fill="black"/>
<path d="M956.281 255.062V258.344H946.094V255.062H956.281Z" fill="black"/>
<path d="M934 268.312C928.969 268.312 925.406 265.625 925.406 261.938C925.406 259.062 927.531 256.719 930.25 256.281V256.156C927.875 255.656 926.25 253.594 926.25 251.125C926.25 247.625 929.531 245.062 934 245.062C938.438 245.062 941.719 247.625 941.719 251.125C941.719 253.594 940.062 255.656 937.719 256.156V256.281C940.438 256.719 942.594 259.062 942.594 261.938C942.594 265.625 939 268.312 934 268.312ZM934 265.094C936.656 265.094 938.406 263.656 938.406 261.562C938.406 259.438 936.531 257.875 934 257.875C931.438 257.875 929.562 259.438 929.594 261.562C929.562 263.656 931.312 265.094 934 265.094ZM934 254.844C936.188 254.844 937.75 253.469 937.75 251.5C937.75 249.594 936.219 248.25 934 248.25C931.75 248.25 930.219 249.562 930.219 251.5C930.219 253.469 931.781 254.844 934 254.844Z" fill="black"/>
<path d="M920.281 245.375V268H916.188V249.344H916.062L910.781 252.719V249L916.375 245.375H920.281Z" fill="black"/>
<path d="M899.094 268.312C894.25 268.312 890.812 265.688 890.719 261.875H894.812C894.938 263.688 896.75 264.875 899.094 264.875C901.594 264.875 903.375 263.5 903.375 261.5C903.375 259.469 901.625 258 898.688 258H896.656V254.875H898.688C901.094 254.875 902.781 253.531 902.75 251.562C902.781 249.656 901.344 248.375 899.125 248.375C897 248.375 895.156 249.562 895.094 251.469H891.188C891.281 247.656 894.719 245.062 899.156 245.062C903.75 245.062 906.719 247.875 906.688 251.344C906.719 253.875 905.031 255.719 902.562 256.219V256.406C905.75 256.844 907.562 258.875 907.531 261.719C907.562 265.531 904 268.312 899.094 268.312Z" fill="black"/>
</g>
<g id="convergence_hall_318-1">
<path d="M1094 14C1094 9.58172 1097.58 6 1102 6H1408C1412.42 6 1416 9.58172 1416 14V500C1416 504.418 1412.42 508 1408 508H1102C1097.58 508 1094 504.418 1094 500V14Z" fill="#F7FBFF"/>
<path d="M1408 505V508H1102L1102 505H1408ZM1413 500V14C1413 11.2386 1410.76 9 1408 9H1102C1099.24 9 1097 11.2386 1097 14V500C1097 502.761 1099.24 505 1102 505L1102 508L1101.59 507.989C1097.5 507.782 1094.22 504.502 1094.01 500.412L1094 500V14C1094 9.58172 1097.58 6 1102 6H1408C1412.42 6 1416 9.58172 1416 14V500L1415.99 500.412C1415.78 504.502 1412.5 507.782 1408.41 507.989L1408 508V505C1410.76 505 1413 502.761 1413 500Z" fill="#2E2F33" fill-opacity="0.88"/>
<path d="M1293.34 245.375V268H1289.25V249.344H1289.12L1283.84 252.719V249L1289.44 245.375H1293.34Z" fill="black"/>
<path d="M1280.28 255.062V258.344H1270.09V255.062H1280.28Z" fill="black"/>
<path d="M1258 268.312C1252.97 268.312 1249.41 265.625 1249.41 261.938C1249.41 259.062 1251.53 256.719 1254.25 256.281V256.156C1251.88 255.656 1250.25 253.594 1250.25 251.125C1250.25 247.625 1253.53 245.062 1258 245.062C1262.44 245.062 1265.72 247.625 1265.72 251.125C1265.72 253.594 1264.06 255.656 1261.72 256.156V256.281C1264.44 256.719 1266.59 259.062 1266.59 261.938C1266.59 265.625 1263 268.312 1258 268.312ZM1258 265.094C1260.66 265.094 1262.41 263.656 1262.41 261.562C1262.41 259.438 1260.53 257.875 1258 257.875C1255.44 257.875 1253.56 259.438 1253.59 261.562C1253.56 263.656 1255.31 265.094 1258 265.094ZM1258 254.844C1260.19 254.844 1261.75 253.469 1261.75 251.5C1261.75 249.594 1260.22 248.25 1258 248.25C1255.75 248.25 1254.22 249.562 1254.22 251.5C1254.22 253.469 1255.78 254.844 1258 254.844Z" fill="black"/>
<path d="M1244.28 245.375V268H1240.19V249.344H1240.06L1234.78 252.719V249L1240.38 245.375H1244.28Z" fill="black"/>
<path d="M1223.09 268.312C1218.25 268.312 1214.81 265.688 1214.72 261.875H1218.81C1218.94 263.688 1220.75 264.875 1223.09 264.875C1225.59 264.875 1227.38 263.5 1227.38 261.5C1227.38 259.469 1225.62 258 1222.69 258H1220.66V254.875H1222.69C1225.09 254.875 1226.78 253.531 1226.75 251.562C1226.78 249.656 1225.34 248.375 1223.12 248.375C1221 248.375 1219.16 249.562 1219.09 251.469H1215.19C1215.28 247.656 1218.72 245.062 1223.16 245.062C1227.75 245.062 1230.72 247.875 1230.69 251.344C1230.72 253.875 1229.03 255.719 1226.56 256.219V256.406C1229.75 256.844 1231.56 258.875 1231.53 261.719C1231.56 265.531 1228 268.312 1223.09 268.312Z" fill="black"/>
</g>
</g>
</svg>
