<svg width="1915" height="1573" viewBox="0 0 1915 1573" fill="none" xmlns="http://www.w3.org/2000/svg">
<g id="convergence_hall_floor_2">
<g id="Vector">
<path d="M480.504 1388H5.00391L3.00391 3H371.004L470.004 458H684.004V3H1017.5V751.5H1632V1016H1911.5V1538.5H1012V1157H480.504V1388Z" fill="#999999"/>
<path d="M373.421 0L472.421 455H681.004V0H1020.5V748.5H1635V1013H1914.5V1541.5H1009V1160H483.504V1391H2.00781L0 0H373.421ZM7.99902 1385H477.504V1154H1015V1535.5H1908.5V1019H1629V754.5H1014.5V6H687.004V461H467.587L368.586 6H6.00781L7.99902 1385Z" fill="black"/>
</g>
<g id="Vector_2">
<path d="M687 533C687 528.582 690.582 525 695 525H838C842.418 525 846 528.582 846 533V748C846 752.418 842.418 756 838 756H695C690.582 756 687 752.418 687 748V533Z" fill="#F7FBFF"/>
<path d="M838 753V756H695L695 753H838ZM843 748V533C843 530.239 840.761 528 838 528H695C692.239 528 690 530.239 690 533V748C690 750.761 692.239 753 695 753L695 756C690.582 756 687 752.418 687 748V533C687 528.72 690.361 525.225 694.588 525.011L695 525H838L838.412 525.011C842.639 525.225 846 528.72 846 533V748C846 752.418 842.418 756 838 756V753C840.761 753 843 750.761 843 748Z" fill="#2E2F33" fill-opacity="0.88"/>
</g>
<g id="convergence_hall_2f_stairs_main3">
<path d="M1109 1491C1109 1486.58 1112.58 1483 1117 1483H1167C1171.42 1483 1175 1486.58 1175 1491V1528C1175 1532.42 1171.42 1536 1167 1536H1117C1112.58 1536 1109 1532.42 1109 1528V1491Z" fill="#D9FFE6"/>
<path d="M1167 1533V1536H1117V1533H1167ZM1172 1528V1491C1172 1488.24 1169.76 1486 1167 1486H1117C1114.32 1486 1112.14 1488.1 1112.01 1490.74L1112 1491V1528C1112 1530.76 1114.24 1533 1117 1533V1536C1112.72 1536 1109.23 1532.64 1109.01 1528.41L1109 1528V1491C1109 1486.58 1112.58 1483 1117 1483H1167L1167.41 1483.01C1171.64 1483.23 1175 1486.72 1175 1491V1528L1174.99 1528.41C1174.78 1532.5 1171.5 1535.78 1167.41 1535.99L1167 1536V1533C1169.76 1533 1172 1530.76 1172 1528Z" fill="#2E2F33" fill-opacity="0.88"/>
</g>
<g id="void">
<path d="M7 1097C7 1092.58 10.5817 1089 15 1089H116C120.418 1089 124 1092.58 124 1097V1151C124 1155.42 120.418 1159 116 1159H15C10.5817 1159 7 1155.42 7 1151V1097Z" fill="#474747"/>
<path d="M116 1156V1159H15L15 1156H116ZM121 1151V1097C121 1094.24 118.761 1092 116 1092H15C12.2386 1092 10 1094.24 10 1097V1151C10 1153.76 12.2386 1156 15 1156L15 1159L14.5879 1158.99C10.4976 1158.78 7.2183 1155.5 7.01074 1151.41L7 1151V1097C7 1092.58 10.5817 1089 15 1089H116C120.418 1089 124 1092.58 124 1097V1151C124 1155.28 120.639 1158.77 116.412 1158.99L116 1159V1156C118.761 1156 121 1153.76 121 1151Z" fill="#2E2F33" fill-opacity="0.88"/>
</g>
<g id="void_2">
<path d="M1305 1149C1305 1144.58 1308.58 1141 1313 1141H1477C1481.42 1141 1485 1144.58 1485 1149V1210C1485 1214.42 1481.42 1218 1477 1218H1313C1308.58 1218 1305 1214.42 1305 1210V1149Z" fill="#474747"/>
<path d="M1477 1215V1218H1313L1313 1215H1477ZM1482 1210V1149C1482 1146.24 1479.76 1144 1477 1144H1313C1310.24 1144 1308 1146.24 1308 1149V1210C1308 1212.76 1310.24 1215 1313 1215L1313 1218L1312.59 1217.99C1308.36 1217.77 1305 1214.28 1305 1210V1149C1305 1144.58 1308.58 1141 1313 1141H1477C1481.42 1141 1485 1144.58 1485 1149V1210C1485 1214.28 1481.64 1217.77 1477.41 1217.99L1477 1218V1215C1479.76 1215 1482 1212.76 1482 1210Z" fill="#2E2F33" fill-opacity="0.88"/>
</g>
<g id="void_3">
<path d="M1172 1157C1172 1152.58 1175.58 1149 1180 1149H1191C1195.42 1149 1199 1152.58 1199 1157V1528C1199 1532.42 1195.42 1536 1191 1536H1180C1175.58 1536 1172 1532.42 1172 1528V1157Z" fill="#474747"/>
<path d="M1191 1533V1536H1180V1533H1191ZM1196 1528V1157C1196 1154.24 1193.76 1152 1191 1152H1180C1177.24 1152 1175 1154.24 1175 1157V1528C1175 1530.76 1177.24 1533 1180 1533V1536C1175.72 1536 1172.23 1532.64 1172.01 1528.41L1172 1528V1157C1172 1152.58 1175.58 1149 1180 1149H1191L1191.41 1149.01C1195.64 1149.23 1199 1152.72 1199 1157V1528L1198.99 1528.41C1198.78 1532.5 1195.5 1535.78 1191.41 1535.99L1191 1536V1533C1193.76 1533 1196 1530.76 1196 1528Z" fill="#2E2F33" fill-opacity="0.88"/>
</g>
<g id="void_4">
<path d="M7 1033C7 1028.58 10.5817 1025 15 1025H79C83.4183 1025 87 1028.58 87 1033V1084C87 1088.42 83.4183 1092 79 1092H15C10.5817 1092 7 1088.42 7 1084V1033Z" fill="#474747"/>
<path d="M79 1089V1092H15L15 1089H79ZM84 1084V1033C84 1030.24 81.7614 1028 79 1028H15C12.2386 1028 10 1030.24 10 1033V1084C10 1086.76 12.2386 1089 15 1089L15 1092C10.5817 1092 7 1088.42 7 1084V1033C7 1028.58 10.5817 1025 15 1025H79L79.4121 1025.01C83.6389 1025.23 87 1028.72 87 1033V1084L86.9893 1084.41C86.7817 1088.5 83.5024 1091.78 79.4121 1091.99L79 1092V1089C81.7614 1089 84 1086.76 84 1084Z" fill="#2E2F33" fill-opacity="0.88"/>
</g>
<g id="convergence_hall_203">
<path d="M3 1164C3 1159.58 6.58172 1156 11 1156H235C239.418 1156 243 1159.58 243 1164V1377C243 1381.42 239.418 1385 235 1385H11C6.58173 1385 3 1381.42 3 1377V1164Z" fill="#F7FBFF"/>
<path d="M235 1382V1385H11L11 1382H235ZM240 1377V1164C240 1161.24 237.761 1159 235 1159H11C8.23858 1159 6 1161.24 6 1164V1377C6 1379.76 8.23858 1382 11 1382L11 1385C6.71995 1385 3.22523 1381.64 3.01074 1377.41L3 1377V1164C3 1159.58 6.58172 1156 11 1156H235L235.412 1156.01C239.639 1156.23 243 1159.72 243 1164V1377L242.989 1377.41C242.782 1381.5 239.502 1384.78 235.412 1384.99L235 1385V1382C237.761 1382 240 1379.76 240 1377Z" fill="#2E2F33" fill-opacity="0.88"/>
<path d="M144.812 1281.31C139.969 1281.31 136.531 1278.69 136.438 1274.88H140.531C140.656 1276.69 142.469 1277.88 144.812 1277.88C147.312 1277.88 149.094 1276.5 149.094 1274.5C149.094 1272.47 147.344 1271 144.406 1271H142.375V1267.88H144.406C146.812 1267.88 148.5 1266.53 148.469 1264.56C148.5 1262.66 147.062 1261.38 144.844 1261.38C142.719 1261.38 140.875 1262.56 140.812 1264.47H136.906C137 1260.66 140.438 1258.06 144.875 1258.06C149.469 1258.06 152.438 1260.88 152.406 1264.34C152.438 1266.88 150.75 1268.72 148.281 1269.22V1269.41C151.469 1269.84 153.281 1271.88 153.25 1274.72C153.281 1278.53 149.719 1281.31 144.812 1281.31Z" fill="black"/>
<path d="M124.5 1281.31C119.062 1281.31 115.812 1277.09 115.812 1269.69C115.812 1262.31 119.062 1258.06 124.5 1258.06C129.906 1258.06 133.188 1262.31 133.188 1269.69C133.188 1277.09 129.938 1281.31 124.5 1281.31ZM124.5 1277.91C127.344 1277.91 129.094 1275.12 129.094 1269.69C129.094 1264.28 127.312 1261.44 124.5 1261.44C121.688 1261.44 119.906 1264.28 119.906 1269.69C119.906 1275.12 121.656 1277.91 124.5 1277.91Z" fill="black"/>
<path d="M96.875 1281V1278.06L104.875 1270.34C107.156 1268.06 108.344 1266.72 108.344 1264.81C108.344 1262.72 106.688 1261.38 104.469 1261.38C102.125 1261.38 100.625 1262.84 100.656 1265.12H96.7812C96.75 1260.84 99.9688 1258.06 104.5 1258.06C109.125 1258.06 112.25 1260.81 112.25 1264.62C112.25 1267.19 111 1269.25 106.562 1273.44L102.531 1277.44V1277.59H112.594V1281H96.875Z" fill="black"/>
</g>
<g id="convergence_hall_202">
<path d="M303 1240C303 1235.58 306.582 1232 311 1232H469C473.418 1232 477 1235.58 477 1240V1377C477 1381.42 473.418 1385 469 1385H311C306.582 1385 303 1381.42 303 1377V1240Z" fill="#F7FBFF"/>
<path d="M469 1382V1385H311L311 1382H469ZM474 1377V1240C474 1237.24 471.761 1235 469 1235H311C308.239 1235 306 1237.24 306 1240V1377C306 1379.76 308.239 1382 311 1382L311 1385L310.588 1384.99C306.498 1384.78 303.218 1381.5 303.011 1377.41L303 1377V1240C303 1235.72 306.361 1232.23 310.588 1232.01L311 1232H469C473.418 1232 477 1235.58 477 1240V1377C477 1381.42 473.418 1385 469 1385V1382C471.761 1382 474 1379.76 474 1377Z" fill="#2E2F33" fill-opacity="0.88"/>
<path d="M404.594 1319V1316.06L412.594 1308.34C414.875 1306.06 416.063 1304.72 416.063 1302.81C416.063 1300.72 414.406 1299.38 412.188 1299.38C409.844 1299.38 408.344 1300.84 408.375 1303.12H404.5C404.469 1298.84 407.688 1296.06 412.219 1296.06C416.844 1296.06 419.969 1298.81 419.969 1302.62C419.969 1305.19 418.719 1307.25 414.281 1311.44L410.25 1315.44V1315.59H420.313V1319H404.594Z" fill="black"/>
<path d="M392.5 1319.31C387.062 1319.31 383.812 1315.09 383.812 1307.69C383.812 1300.31 387.062 1296.06 392.5 1296.06C397.906 1296.06 401.188 1300.31 401.188 1307.69C401.188 1315.09 397.938 1319.31 392.5 1319.31ZM392.5 1315.91C395.344 1315.91 397.094 1313.12 397.094 1307.69C397.094 1302.28 395.312 1299.44 392.5 1299.44C389.688 1299.44 387.906 1302.28 387.906 1307.69C387.906 1313.12 389.656 1315.91 392.5 1315.91Z" fill="black"/>
<path d="M364.875 1319V1316.06L372.875 1308.34C375.156 1306.06 376.344 1304.72 376.344 1302.81C376.344 1300.72 374.688 1299.38 372.469 1299.38C370.125 1299.38 368.625 1300.84 368.656 1303.12H364.781C364.75 1298.84 367.969 1296.06 372.5 1296.06C377.125 1296.06 380.25 1298.81 380.25 1302.62C380.25 1305.19 379 1307.25 374.563 1311.44L370.531 1315.44V1315.59H380.594V1319H364.875Z" fill="black"/>
</g>
<g id="convergence_hall_201">
<path d="M303 1069C303 1064.58 306.582 1061 311 1061H359.5C363.918 1061 367.5 1057.42 367.5 1053V1012C367.5 1007.58 371.082 1004 375.5 1004H941.5C945.918 1004 949.5 1007.58 949.5 1012V1053C949.5 1057.42 953.082 1061 957.5 1061H1006C1010.42 1061 1014 1064.58 1014 1069V1147C1014 1151.42 1010.42 1155 1006 1155H658.5H485.5C481.082 1155 477.5 1158.58 477.5 1163V1227C477.5 1231.42 473.918 1235 469.5 1235H311C306.582 1235 303 1231.42 303 1227V1069Z" fill="#F7FBFF"/>
<path d="M469.5 1232V1235H311L311 1232H469.5ZM474.5 1227V1163C474.5 1156.92 479.425 1152 485.5 1152V1155L485.088 1155.01C480.861 1155.23 477.5 1158.72 477.5 1163V1227L477.489 1227.41C477.275 1231.64 473.78 1235 469.5 1235V1232C472.261 1232 474.5 1229.76 474.5 1227ZM658.5 1152V1155H485.5V1152H658.5ZM1006 1152V1155H658.5V1152H1006ZM1011 1147V1069C1011 1066.24 1008.76 1064 1006 1064H957.5C951.425 1064 946.5 1059.08 946.5 1053V1012C946.5 1009.32 944.399 1007.14 941.757 1007.01L941.5 1007H375.5C372.739 1007 370.5 1009.24 370.5 1012V1053C370.5 1059.08 365.575 1064 359.5 1064H311C308.239 1064 306 1066.24 306 1069V1227C306 1229.76 308.239 1232 311 1232L311 1235L310.588 1234.99C306.361 1234.77 303 1231.28 303 1227V1069C303 1064.72 306.361 1061.23 310.588 1061.01L311 1061H359.5C363.78 1061 367.275 1057.64 367.489 1053.41L367.5 1053V1012C367.5 1007.72 370.861 1004.23 375.088 1004.01L375.5 1004H941.5C945.918 1004 949.5 1007.58 949.5 1012V1053L949.511 1053.41C949.718 1057.5 952.998 1060.78 957.088 1060.99L957.5 1061H1006C1010.42 1061 1014 1064.58 1014 1069V1147C1014 1151.42 1010.42 1155 1006 1155V1152C1008.76 1152 1011 1149.76 1011 1147Z" fill="#2E2F33" fill-opacity="0.88"/>
<path d="M681.781 1069.38V1092H677.688V1073.34H677.562L672.281 1076.72V1073L677.875 1069.38H681.781Z" fill="black"/>
<path d="M660.5 1092.31C655.062 1092.31 651.812 1088.09 651.812 1080.69C651.812 1073.31 655.062 1069.06 660.5 1069.06C665.906 1069.06 669.188 1073.31 669.188 1080.69C669.188 1088.09 665.938 1092.31 660.5 1092.31ZM660.5 1088.91C663.344 1088.91 665.094 1086.12 665.094 1080.69C665.094 1075.28 663.312 1072.44 660.5 1072.44C657.688 1072.44 655.906 1075.28 655.906 1080.69C655.906 1086.12 657.656 1088.91 660.5 1088.91Z" fill="black"/>
<path d="M632.875 1092V1089.06L640.875 1081.34C643.156 1079.06 644.344 1077.72 644.344 1075.81C644.344 1073.72 642.687 1072.38 640.469 1072.38C638.125 1072.38 636.625 1073.84 636.656 1076.12H632.781C632.75 1071.84 635.969 1069.06 640.5 1069.06C645.125 1069.06 648.25 1071.81 648.25 1075.62C648.25 1078.19 647 1080.25 642.562 1084.44L638.531 1088.44V1088.59H648.594V1092H632.875Z" fill="black"/>
</g>
<g id="convergence_hall_203-1">
<path d="M6 702C6 697.582 9.58172 694 14 694H236C240.418 694 244 697.582 244 702V912C244 916.418 240.418 920 236 920H14C9.58172 920 6 916.418 6 912V702Z" fill="#F7FBFF"/>
<path d="M236 917V920H14L14 917H236ZM241 912V702C241 699.239 238.761 697 236 697H14C11.2386 697 9 699.239 9 702V912C9 914.761 11.2386 917 14 917L14 920L13.5879 919.989C9.36114 919.775 6 916.28 6 912V702C6 697.582 9.58172 694 14 694H236C240.418 694 244 697.582 244 702V912L243.989 912.412C243.782 916.502 240.502 919.782 236.412 919.989L236 920V917C238.761 917 241 914.761 241 912Z" fill="#2E2F33" fill-opacity="0.88"/>
<path d="M165.188 795.375V818H161.094V799.344H160.969L155.688 802.719V799L161.281 795.375H165.188Z" fill="black"/>
<path d="M152.125 805.062V808.344H141.938V805.062H152.125Z" fill="black"/>
<path d="M129.812 818.312C124.969 818.312 121.531 815.688 121.438 811.875H125.531C125.656 813.688 127.469 814.875 129.812 814.875C132.312 814.875 134.094 813.5 134.094 811.5C134.094 809.469 132.344 808 129.406 808H127.375V804.875H129.406C131.812 804.875 133.5 803.531 133.469 801.562C133.5 799.656 132.062 798.375 129.844 798.375C127.719 798.375 125.875 799.562 125.812 801.469H121.906C122 797.656 125.438 795.062 129.875 795.062C134.469 795.062 137.438 797.875 137.406 801.344C137.438 803.875 135.75 805.719 133.281 806.219V806.406C136.469 806.844 138.281 808.875 138.25 811.719C138.281 815.531 134.719 818.312 129.812 818.312Z" fill="black"/>
<path d="M109.5 818.312C104.062 818.312 100.812 814.094 100.812 806.688C100.812 799.312 104.062 795.062 109.5 795.062C114.906 795.062 118.188 799.312 118.188 806.688C118.188 814.094 114.938 818.312 109.5 818.312ZM109.5 814.906C112.344 814.906 114.094 812.125 114.094 806.688C114.094 801.281 112.312 798.438 109.5 798.438C106.688 798.438 104.906 801.281 104.906 806.688C104.906 812.125 106.656 814.906 109.5 814.906Z" fill="black"/>
<path d="M81.875 818V815.062L89.875 807.344C92.1562 805.062 93.3438 803.719 93.3438 801.812C93.3438 799.719 91.6875 798.375 89.4688 798.375C87.125 798.375 85.625 799.844 85.6562 802.125H81.7812C81.75 797.844 84.9688 795.062 89.5 795.062C94.125 795.062 97.25 797.812 97.25 801.625C97.25 804.188 96 806.25 91.5625 810.438L87.5312 814.438V814.594H97.5938V818H81.875Z" fill="black"/>
</g>
<g id="convergence_hall_2f_electric_room">
<path d="M6 242C6 237.582 9.58172 234 14 234H236C240.418 234 244 237.582 244 242V689C244 693.418 240.418 697 236 697H14C9.58172 697 6 693.418 6 689V242Z" fill="#F7FBFF"/>
<path d="M236 694V697H14L14 694H236ZM241 689V242C241 239.239 238.761 237 236 237H14C11.2386 237 9 239.239 9 242V689C9 691.761 11.2386 694 14 694L14 697L13.5879 696.989C9.36114 696.775 6 693.28 6 689V242C6 237.582 9.58172 234 14 234H236C240.418 234 244 237.582 244 242V689C244 693.28 240.639 696.775 236.412 696.989L236 697V694C238.761 694 241 691.761 241 689Z" fill="#2E2F33" fill-opacity="0.88"/>
<path d="M162.719 450.531V464.938H159.281V450.531H162.719ZM162.781 466.25V473.594H147.5V475.781H163.625V478.531H144.094V471H159.312V468.938H144.031V466.25H162.781ZM149.781 453.406C149.781 457 152.156 460.375 156.625 461.719L154.938 464.406C151.656 463.406 149.312 461.297 148.031 458.594C146.75 461.531 144.344 463.828 140.969 464.906L139.219 462.188C143.781 460.719 146.188 457.094 146.188 453.406V451.219H149.781V453.406Z" fill="black"/>
<path d="M135.188 450.531V478.781H131.688V450.531H135.188ZM126.75 453.531C126.75 461.938 123.5 469.094 113.594 473.781L111.781 471C119.172 467.484 122.609 462.703 123.219 456.281H113.219V453.531H126.75Z" fill="black"/>
<path d="M107.594 450.562V471.188H104.125V460.844H99.125V458.031H104.125V450.562H107.594ZM108.312 475.406V478.219H89.0625V469.375H92.5312V475.406H108.312ZM94.3125 456.188C94.3125 459.594 96.5938 463.094 100.969 464.531L99.2188 467.312C96.0625 466.234 93.8281 464.094 92.5938 461.406C91.3438 464.391 88.9844 466.75 85.6562 467.906L83.875 465.094C88.375 463.625 90.7812 459.906 90.7812 456.156V455.406H84.9062V452.594H100.156V455.406H94.3125V456.188Z" fill="black"/>
</g>
<g id="convergence_hall_205">
<path d="M241 555C241 550.582 244.582 547 249 547H363C367.418 547 371 550.582 371 555V689C371 693.418 367.418 697 363 697H249C244.582 697 241 693.418 241 689V555Z" fill="#F7FBFF"/>
<path d="M363 694V697H249L249 694H363ZM368 689V555C368 552.239 365.761 550 363 550H249C246.239 550 244 552.239 244 555V689C244 691.761 246.239 694 249 694L249 697L248.588 696.989C244.498 696.782 241.218 693.502 241.011 689.412L241 689V555C241 550.582 244.582 547 249 547H363C367.418 547 371 550.582 371 555V689L370.989 689.412C370.782 693.502 367.502 696.782 363.412 696.989L363 697V694C365.761 694 368 691.761 368 689Z" fill="#2E2F33" fill-opacity="0.88"/>
<path d="M328.625 633.312C324.094 633.312 320.781 630.625 320.656 626.875H324.625C324.75 628.719 326.469 630.031 328.625 630.031C331.156 630.031 332.969 628.188 332.969 625.688C332.969 623.094 331.094 621.25 328.5 621.25C326.75 621.219 325.469 621.844 324.75 623.188H320.969L322.344 610.375H335.719V613.781H325.688L325 619.781H325.219C326.094 618.781 327.75 618.062 329.594 618.062C333.812 618.062 336.906 621.219 336.906 625.562C336.906 630.094 333.5 633.312 328.625 633.312Z" fill="black"/>
<path d="M308.5 633.312C303.062 633.312 299.812 629.094 299.812 621.688C299.812 614.312 303.062 610.062 308.5 610.062C313.906 610.062 317.188 614.312 317.188 621.688C317.188 629.094 313.938 633.312 308.5 633.312ZM308.5 629.906C311.344 629.906 313.094 627.125 313.094 621.688C313.094 616.281 311.312 613.438 308.5 613.438C305.688 613.438 303.906 616.281 303.906 621.688C303.906 627.125 305.656 629.906 308.5 629.906Z" fill="black"/>
<path d="M280.875 633V630.062L288.875 622.344C291.156 620.062 292.344 618.719 292.344 616.812C292.344 614.719 290.688 613.375 288.469 613.375C286.125 613.375 284.625 614.844 284.656 617.125H280.781C280.75 612.844 283.969 610.062 288.5 610.062C293.125 610.062 296.25 612.812 296.25 616.625C296.25 619.188 295 621.25 290.563 625.438L286.531 629.438V629.594H296.594V633H280.875Z" fill="black"/>
</g>
<g id="convergence_hall_2f_disaster_prevention_room">
<path d="M86 14C86 9.58172 89.5817 6 94 6H236C240.418 6 244 9.58172 244 14V229C244 233.418 240.418 237 236 237H94C89.5817 237 86 233.418 86 229V14Z" fill="#F7FBFF"/>
<path d="M236 234V237H94L94 234H236ZM241 229V14C241 11.2386 238.761 9 236 9H94C91.2386 9 89 11.2386 89 14V229C89 231.761 91.2386 234 94 234L94 237L93.5879 236.989C89.3611 236.775 86 233.28 86 229V14C86 9.71994 89.3611 6.22523 93.5879 6.01074L94 6H236C240.418 6 244 9.58172 244 14V229C244 233.418 240.418 237 236 237V234C238.761 234 241 231.761 241 229Z" fill="#2E2F33" fill-opacity="0.88"/>
<path d="M202.719 106.531V120.938H199.281V106.531H202.719ZM202.781 122.25V129.594H187.5V131.781H203.625V134.531H184.094V127H199.312V124.938H184.031V122.25H202.781ZM189.781 109.406C189.781 113 192.156 116.375 196.625 117.719L194.938 120.406C191.656 119.406 189.312 117.297 188.031 114.594C186.75 117.531 184.344 119.828 180.969 120.906L179.219 118.188C183.781 116.719 186.188 113.094 186.188 109.406V107.219H189.781V109.406Z" fill="black"/>
<path d="M176.094 106.531V134.781H172.781V120.469H169.875V133.406H166.594V107.031H169.875V117.594H172.781V106.531H176.094ZM160.375 113.75C160.375 118.781 162.062 123.406 166.25 125.562L164.219 128.219C161.531 126.781 159.766 124.297 158.781 121.219C157.812 124.734 156.047 127.562 153.25 129.219L151.125 126.562C155.312 124.188 157 119.25 157 113.75V112.406H151.969V109.625H165V112.406H160.375V113.75Z" fill="black"/>
<path d="M137.031 123.969C142.875 123.969 146.469 125.938 146.5 129.344C146.469 132.781 142.875 134.781 137.031 134.781C131.125 134.781 127.469 132.781 127.469 129.344C127.469 125.938 131.125 123.969 137.031 123.969ZM137.031 126.688C133.156 126.688 130.938 127.594 130.938 129.344C130.938 131.094 133.156 132.031 137.031 132.031C140.906 132.031 143.062 131.094 143.062 129.344C143.062 127.594 140.906 126.688 137.031 126.688ZM146.219 106.531V113.281H150.156V116.188H146.219V123.281H142.75V106.531H146.219ZM128.344 108.312V112.125H134.938V108.312H138.375V121.5H124.906V108.312H128.344ZM128.344 118.75H134.938V114.844H128.344V118.75Z" fill="black"/>
</g>
<g id="convergence_hall_208">
<path d="M241 14C241 9.58172 244.582 6 249 6H363.064C366.822 6 370.074 8.6158 370.878 12.2867L408.37 183.287C409.464 188.277 405.665 193 400.556 193H249C244.582 193 241 189.418 241 185V14Z" fill="#F7FBFF"/>
<path d="M241 185V14C241 9.71995 244.361 6.22523 248.588 6.01074L249 6H363.064L363.415 6.00781C367.023 6.16484 370.099 8.73062 370.878 12.2867L408.37 183.287C409.464 188.277 405.665 193 400.556 193L400.556 190C403.749 190 406.124 187.048 405.44 183.929L367.948 12.9287C367.445 10.6348 365.413 9.00022 363.064 9H249C246.239 9 244 11.2386 244 14V185C244 187.761 246.239 190 249 190V193L248.588 192.989C244.498 192.782 241.218 189.502 241.011 185.412L241 185ZM400.556 190L400.556 193H249V190H400.556Z" fill="#2E2F33" fill-opacity="0.88"/>
<path d="M336.812 110.312C331.781 110.312 328.219 107.625 328.219 103.938C328.219 101.062 330.344 98.7188 333.062 98.2812V98.1562C330.688 97.6562 329.062 95.5938 329.062 93.125C329.062 89.625 332.344 87.0625 336.812 87.0625C341.25 87.0625 344.531 89.625 344.531 93.125C344.531 95.5938 342.875 97.6562 340.531 98.1562V98.2812C343.25 98.7188 345.406 101.062 345.406 103.938C345.406 107.625 341.812 110.312 336.812 110.312ZM336.812 107.094C339.469 107.094 341.219 105.656 341.219 103.562C341.219 101.438 339.344 99.875 336.812 99.875C334.25 99.875 332.375 101.438 332.406 103.562C332.375 105.656 334.125 107.094 336.812 107.094ZM336.812 96.8438C339 96.8438 340.562 95.4688 340.562 93.5C340.562 91.5938 339.031 90.25 336.812 90.25C334.562 90.25 333.031 91.5625 333.031 93.5C333.031 95.4688 334.594 96.8438 336.812 96.8438Z" fill="black"/>
<path d="M316.5 110.312C311.062 110.312 307.812 106.094 307.812 98.6875C307.812 91.3125 311.062 87.0625 316.5 87.0625C321.906 87.0625 325.188 91.3125 325.188 98.6875C325.188 106.094 321.938 110.312 316.5 110.312ZM316.5 106.906C319.344 106.906 321.094 104.125 321.094 98.6875C321.094 93.2812 319.312 90.4375 316.5 90.4375C313.688 90.4375 311.906 93.2812 311.906 98.6875C311.906 104.125 313.656 106.906 316.5 106.906Z" fill="black"/>
<path d="M288.875 110V107.062L296.875 99.3438C299.156 97.0625 300.344 95.7188 300.344 93.8125C300.344 91.7188 298.688 90.375 296.469 90.375C294.125 90.375 292.625 91.8438 292.656 94.125H288.781C288.75 89.8438 291.969 87.0625 296.5 87.0625C301.125 87.0625 304.25 89.8125 304.25 93.625C304.25 96.1875 303 98.25 298.563 102.438L294.531 106.438V106.594H304.594V110H288.875Z" fill="black"/>
</g>
<g id="convergence_hall_207">
<path d="M293 198C293 193.582 296.582 190 301 190H403.506C407.291 190 410.557 192.651 411.335 196.355L436.973 318.355C438.018 323.326 434.224 328 429.144 328H301C296.582 328 293 324.418 293 320V198Z" fill="#F7FBFF"/>
<path d="M293 320V198C293 193.582 296.582 190 301 190H403.506L403.859 190.008C407.492 190.167 410.581 192.767 411.335 196.355L436.973 318.355C437.985 323.171 434.457 327.708 429.616 327.986L429.144 328L429.145 325C432.319 325 434.69 322.079 434.037 318.972L408.399 196.972C407.913 194.657 405.872 193 403.507 193H301C298.239 193 296 195.239 296 198V320C296 322.761 298.239 325 301 325L301 328C296.72 328 293.225 324.639 293.011 320.412L293 320ZM429.145 325L429.144 328H301L301 325H429.145Z" fill="#2E2F33" fill-opacity="0.88"/>
<path d="M379.812 270L389.625 250.938V250.781H378.25V247.375H393.844V250.844L384.031 270H379.812Z" fill="black"/>
<path d="M367.5 270.312C362.062 270.312 358.812 266.094 358.812 258.688C358.812 251.312 362.062 247.062 367.5 247.062C372.906 247.062 376.188 251.312 376.188 258.688C376.188 266.094 372.938 270.312 367.5 270.312ZM367.5 266.906C370.344 266.906 372.094 264.125 372.094 258.688C372.094 253.281 370.312 250.438 367.5 250.438C364.688 250.438 362.906 253.281 362.906 258.688C362.906 264.125 364.656 266.906 367.5 266.906Z" fill="black"/>
<path d="M339.875 270V267.062L347.875 259.344C350.156 257.062 351.344 255.719 351.344 253.812C351.344 251.719 349.688 250.375 347.469 250.375C345.125 250.375 343.625 251.844 343.656 254.125H339.781C339.75 249.844 342.969 247.062 347.5 247.062C352.125 247.062 355.25 249.812 355.25 253.625C355.25 256.188 354 258.25 349.563 262.438L345.531 266.438V266.594H355.594V270H339.875Z" fill="black"/>
</g>
<g id="convergence_hall_206">
<path d="M293 333C293 328.582 296.582 325 301 325H432.552C436.316 325 439.57 327.623 440.37 331.301L466.891 453.301C467.975 458.287 464.177 463 459.074 463H301C296.582 463 293 459.418 293 455V333Z" fill="#F7FBFF"/>
<path d="M293 455V333C293 328.72 296.361 325.225 300.588 325.011L301 325H432.552L432.903 325.008C436.517 325.165 439.595 327.738 440.37 331.301L466.891 453.301C467.941 458.131 464.41 462.705 459.549 462.986L459.074 463L459.074 460C462.263 460 464.637 457.054 463.96 453.938L437.438 331.938C436.939 329.639 434.905 328 432.553 328H301C298.239 328 296 330.239 296 333V455C296 457.761 298.239 460 301 460L301 463C296.72 463 293.225 459.639 293.011 455.412L293 455ZM459.074 460L459.074 463H301L301 460H459.074Z" fill="#2E2F33" fill-opacity="0.88"/>
<path d="M394.063 405.312C389.656 405.281 385.219 402.656 385.25 394.312C385.25 386.562 388.781 382.062 394.313 382.062C398.688 382.062 401.688 384.812 402.188 388.469H398.156C397.75 386.75 396.375 385.594 394.313 385.594C391.031 385.594 389.188 388.5 389.188 393.25H389.406C390.563 391.312 392.75 390.156 395.219 390.156C399.281 390.156 402.406 393.219 402.406 397.5C402.406 402 399.063 405.344 394.063 405.312ZM394.063 402.031C396.594 402.031 398.469 400.062 398.469 397.594C398.469 395.188 396.625 393.25 394.125 393.25C391.594 393.25 389.656 395.25 389.625 397.625C389.656 400 391.5 402.031 394.063 402.031Z" fill="black"/>
<path d="M373.5 405.312C368.062 405.312 364.812 401.094 364.812 393.688C364.812 386.312 368.062 382.062 373.5 382.062C378.906 382.062 382.188 386.312 382.188 393.688C382.188 401.094 378.938 405.312 373.5 405.312ZM373.5 401.906C376.344 401.906 378.094 399.125 378.094 393.688C378.094 388.281 376.312 385.438 373.5 385.438C370.688 385.438 368.906 388.281 368.906 393.688C368.906 399.125 370.656 401.906 373.5 401.906Z" fill="black"/>
<path d="M345.875 405V402.062L353.875 394.344C356.156 392.062 357.344 390.719 357.344 388.812C357.344 386.719 355.688 385.375 353.469 385.375C351.125 385.375 349.625 386.844 349.656 389.125H345.781C345.75 384.844 348.969 382.062 353.5 382.062C358.125 382.062 361.25 384.812 361.25 388.625C361.25 391.188 360 393.25 355.563 397.438L351.531 401.438V401.594H361.594V405H345.875Z" fill="black"/>
</g>
<g id="convergence_hall_2f_machine_room">
<path d="M687 14C687 9.58172 690.582 6 695 6H802C806.418 6 810 9.58172 810 14V520C810 524.418 806.418 528 802 528H695C690.582 528 687 524.418 687 520V14Z" fill="#F7FBFF"/>
<path d="M802 525V528H695L695 525H802ZM807 520V14C807 11.2386 804.761 9 802 9H695C692.239 9 690 11.2386 690 14V520C690 522.761 692.239 525 695 525L695 528L694.588 527.989C690.361 527.775 687 524.28 687 520V14C687 9.71994 690.361 6.22523 694.588 6.01074L695 6H802C806.418 6 810 9.58172 810 14V520C810 524.418 806.418 528 802 528V525C804.761 525 807 522.761 807 520Z" fill="#2E2F33" fill-opacity="0.88"/>
<path d="M786.719 252.531V266.938H783.281V252.531H786.719ZM786.781 268.25V275.594H771.5V277.781H787.625V280.531H768.094V273H783.312V270.938H768.031V268.25H786.781ZM773.781 255.406C773.781 259 776.156 262.375 780.625 263.719L778.938 266.406C775.656 265.406 773.312 263.297 772.031 260.594C770.75 263.531 768.344 265.828 764.969 266.906L763.219 264.188C767.781 262.719 770.188 259.094 770.188 255.406V253.219H773.781V255.406Z" fill="black"/>
<path d="M759.969 252.531V280.781H756.656V252.531H759.969ZM754.125 253.219V279.438H750.812V270H746.406V267.156H750.812V262.969H746.906C745.578 267.656 742.625 271.688 737.344 274.812L735.312 272.344C741.172 268.891 743.859 264.469 744.375 258.781H736.812V255.969H747.812C747.812 257.391 747.719 258.781 747.531 260.125H750.812V253.219H754.125Z" fill="black"/>
<path d="M731.531 252.531V280.781H728.031V252.531H731.531ZM723.094 255.531C723.094 263.938 719.844 271.094 709.938 275.781L708.125 273C715.516 269.484 718.953 264.703 719.562 258.281H709.562V255.531H723.094Z" fill="black"/>
</g>
<g id="convergence_hall_2f_water_tank_room">
<path d="M807 14C807 9.58172 810.582 6 815 6H1006C1010.42 6 1014 9.58172 1014 14V520C1014 524.418 1010.42 528 1006 528H815C810.582 528 807 524.418 807 520V14Z" fill="#F7FBFF"/>
<path d="M1006 525V528H815L815 525H1006ZM1011 520V14C1011 11.2386 1008.76 9 1006 9H815C812.239 9 810 11.2386 810 14V520C810 522.761 812.239 525 815 525L815 528C810.582 528 807 524.418 807 520V14C807 9.71994 810.361 6.22523 814.588 6.01074L815 6H1006L1006.41 6.01074C1010.64 6.22523 1014 9.71994 1014 14V520C1014 524.418 1010.42 528 1006 528V525C1008.76 525 1011 522.761 1011 520Z" fill="#2E2F33" fill-opacity="0.88"/>
<path d="M962.375 252.531V266.938H958.938V252.531H962.375ZM962.438 268.25V275.594H947.156V277.781H963.281V280.531H943.75V273H958.969V270.938H943.688V268.25H962.438ZM949.438 255.406C949.438 259 951.812 262.375 956.281 263.719L954.594 266.406C951.312 265.406 948.969 263.297 947.688 260.594C946.406 263.531 944 265.828 940.625 266.906L938.875 264.188C943.438 262.719 945.844 259.094 945.844 255.406V253.219H949.438V255.406Z" fill="black"/>
<path d="M934.156 255.156V258.531C934.156 262.625 934.156 266.531 932.906 272.5L929.438 272.188C930.016 269.719 930.344 267.547 930.531 265.531L913.875 266.406L913.406 263.594L930.688 262.938C930.75 261.422 930.75 259.969 930.75 258.531V257.969H914.25V255.156H934.156ZM937 274.344V277.188H911.25V274.344H937Z" fill="black"/>
<path d="M895.75 254.562V257.312H888V259.969H895.469V262.688H888V265.438C891.453 265.406 893.844 265.281 896.594 264.844L896.969 267.594C893.656 268.188 890.906 268.281 886.531 268.281H884.656V254.562H895.75ZM907.75 252.562V270.062H904.438V262.469H901.719V269.094H898.438V253.094H901.719V259.656H904.438V252.562H907.75ZM898.219 270.375C904.25 270.344 907.875 272.25 907.906 275.531C907.875 278.844 904.25 280.75 898.219 280.75C892.188 280.75 888.531 278.844 888.531 275.531C888.531 272.25 892.188 270.344 898.219 270.375ZM898.219 273.031C894.188 273.031 892 273.875 892 275.531C892 277.219 894.188 278.062 898.219 278.062C902.188 278.062 904.406 277.219 904.406 275.531C904.406 273.875 902.188 273.031 898.219 273.031Z" fill="black"/>
<path d="M881.688 264V266.75H870.5V268.875H878.469V275.812H862.406V277.875H879.25V280.531H859V273.312H875.062V271.5H858.969V268.875H867.031V266.75H855.938V264H881.688ZM878.375 253.406V262.219H859.188V253.406H878.375ZM862.594 256.125V259.5H874.906V256.125H862.594Z" fill="black"/>
</g>
<g id="convergence_hall_2f_fire_extinguishing_water">
<path d="M843 533C843 528.582 846.582 525 851 525H1006C1010.42 525 1014 528.582 1014 533V748C1014 752.418 1010.42 756 1006 756H851C846.582 756 843 752.418 843 748V533Z" fill="#F7FBFF"/>
<path d="M1006 753V756H851V753H1006ZM1011 748V533C1011 530.239 1008.76 528 1006 528H851C848.239 528 846 530.239 846 533V748C846 750.761 848.239 753 851 753V756C846.582 756 843 752.418 843 748V533C843 528.582 846.582 525 851 525H1006L1006.41 525.011C1010.64 525.225 1014 528.72 1014 533V748C1014 752.28 1010.64 755.775 1006.41 755.989L1006 756V753C1008.76 753 1011 750.761 1011 748Z" fill="#2E2F33" fill-opacity="0.88"/>
<path d="M971.625 627.875C971.625 631.438 975.594 635.031 981.625 635.812L980.25 638.625C975.453 637.906 971.641 635.547 969.812 632.344C967.953 635.547 964.156 637.906 959.406 638.625L958.031 635.812C964 635.031 967.969 631.438 967.969 627.875V626.438H971.625V627.875ZM982.656 641.062V643.938H971.438V653.781H968V643.938H956.906V641.062H982.656Z" fill="black"/>
<path d="M955 639.125V641.906H929.25V639.125H935.25V635.531C933.125 634.641 931.906 633.219 931.906 631.375C931.906 628 935.875 626 942.094 626C948.312 626 952.25 628 952.281 631.375C952.266 633.234 951.047 634.656 948.906 635.531V639.125H955ZM942.094 643.625C948.188 643.594 951.844 645.406 951.875 648.656C951.844 651.938 948.188 653.719 942.094 653.719C935.938 653.719 932.25 651.938 932.25 648.656C932.25 645.406 935.938 643.594 942.094 643.625ZM942.094 646.25C937.969 646.25 935.75 647.062 935.781 648.656C935.75 650.25 937.969 651.094 942.094 651.094C946.125 651.094 948.375 650.25 948.406 648.656C948.375 647.062 946.125 646.25 942.094 646.25ZM942.094 628.688C937.906 628.688 935.5 629.625 935.531 631.375C935.5 633.094 937.906 634 942.094 634C946.25 634 948.688 633.094 948.688 631.375C948.688 629.625 946.25 628.688 942.094 628.688ZM938.75 639.125H945.438V636.438C944.422 636.578 943.297 636.656 942.094 636.656C940.891 636.656 939.766 636.578 938.75 636.438V639.125Z" fill="black"/>
<path d="M923.938 625.531V637.188H927.906V640.094H923.938V653.781H920.438V625.531H923.938ZM901.25 645.938C903.391 645.938 905.875 645.938 908.469 645.875V643.219C905.391 642.703 903.375 640.766 903.406 638.125C903.375 634.938 906.188 632.812 910.25 632.812C914.25 632.812 917.094 634.938 917.125 638.125C917.094 640.781 915.047 642.719 911.969 643.219V645.75C914.344 645.625 916.719 645.438 918.938 645.125L919.156 647.656C913.094 648.75 906.562 648.812 901.75 648.812L901.25 645.938ZM918.625 628.781V631.531H901.781V628.781H908.469V625.656H911.969V628.781H918.625ZM910.25 635.469C908.094 635.5 906.688 636.469 906.688 638.125C906.688 639.75 908.094 640.719 910.25 640.688C912.375 640.719 913.781 639.75 913.781 638.125C913.781 636.469 912.375 635.5 910.25 635.469Z" fill="black"/>
<path d="M899.75 647.469V650.281H873.938V647.469H885V640.938H888.438V647.469H899.75ZM888.531 629.312C888.531 633.594 892.812 637.812 898.75 638.75L897.25 641.625C892.469 640.719 888.562 637.984 886.688 634.281C884.812 637.969 880.938 640.75 876.188 641.625L874.688 638.75C880.594 637.812 884.812 633.562 884.844 629.312V627.25H888.531V629.312Z" fill="black"/>
</g>
<g id="convergence_hall_209">
<path d="M687 761C687 756.582 690.582 753 695 753H1233C1237.42 753 1241 756.582 1241 761V927C1241 931.418 1237.42 935 1233 935H695C690.582 935 687 931.418 687 927V761Z" fill="#F7FBFF"/>
<path d="M1233 932V935H695L695 932H1233ZM1238 927V761C1238 758.239 1235.76 756 1233 756H695C692.239 756 690 758.239 690 761V927C690 929.761 692.239 932 695 932L695 935L694.588 934.989C690.498 934.782 687.218 931.502 687.011 927.412L687 927V761C687 756.72 690.361 753.225 694.588 753.011L695 753H1233C1237.42 753 1241 756.582 1241 761V927C1241 931.418 1237.42 935 1233 935V932C1235.76 932 1238 929.761 1238 927Z" fill="#2E2F33" fill-opacity="0.88"/>
<path d="M986.625 832.062C991.062 832.094 995.438 834.719 995.469 843C995.469 850.812 991.938 855.312 986.375 855.312C982 855.312 979 852.594 978.5 848.844H982.531C982.938 850.625 984.312 851.781 986.375 851.781C989.656 851.781 991.5 848.875 991.531 844.031H991.281C990.125 846 987.969 847.156 985.469 847.156C981.438 847.156 978.312 844.094 978.281 839.812C978.281 835.375 981.594 832.031 986.625 832.062ZM986.656 835.344C984.125 835.344 982.219 837.312 982.25 839.719C982.25 842.156 984.062 844.062 986.594 844.062C989.094 844.062 991.062 842.031 991.031 839.687C991.031 837.375 989.188 835.344 986.656 835.344Z" fill="black"/>
<path d="M966.5 855.312C961.062 855.312 957.812 851.094 957.812 843.688C957.812 836.312 961.062 832.062 966.5 832.062C971.906 832.062 975.188 836.312 975.188 843.688C975.188 851.094 971.938 855.312 966.5 855.312ZM966.5 851.906C969.344 851.906 971.094 849.125 971.094 843.688C971.094 838.281 969.312 835.438 966.5 835.438C963.688 835.438 961.906 838.281 961.906 843.688C961.906 849.125 963.656 851.906 966.5 851.906Z" fill="black"/>
<path d="M938.875 855V852.062L946.875 844.344C949.156 842.062 950.344 840.719 950.344 838.812C950.344 836.719 948.687 835.375 946.469 835.375C944.125 835.375 942.625 836.844 942.656 839.125H938.781C938.75 834.844 941.969 832.062 946.5 832.062C951.125 832.062 954.25 834.812 954.25 838.625C954.25 841.188 953 843.25 948.562 847.438L944.531 851.438V851.594H954.594V855H938.875Z" fill="black"/>
</g>
<g id="convergence_hall_210">
<path d="M1504 761C1504 756.582 1507.58 753 1512 753H1622C1626.42 753 1630 756.582 1630 761V927C1630 931.418 1626.42 935 1622 935H1512C1507.58 935 1504 931.418 1504 927V761Z" fill="#F7FBFF"/>
<path d="M1622 932V935H1512L1512 932H1622ZM1627 927V761C1627 758.239 1624.76 756 1622 756H1512C1509.24 756 1507 758.239 1507 761V927C1507 929.761 1509.24 932 1512 932L1512 935L1511.59 934.989C1507.5 934.782 1504.22 931.502 1504.01 927.412L1504 927V761C1504 756.582 1507.58 753 1512 753H1622C1626.42 753 1630 756.582 1630 761V927C1630 931.28 1626.64 934.775 1622.41 934.989L1622 935V932C1624.76 932 1627 929.761 1627 927Z" fill="#2E2F33" fill-opacity="0.88"/>
<path d="M1584.19 855.312C1578.75 855.312 1575.5 851.094 1575.5 843.688C1575.5 836.312 1578.75 832.062 1584.19 832.062C1589.59 832.062 1592.88 836.312 1592.88 843.688C1592.88 851.094 1589.62 855.312 1584.19 855.312ZM1584.19 851.906C1587.03 851.906 1588.78 849.125 1588.78 843.688C1588.78 838.281 1587 835.438 1584.19 835.438C1581.38 835.438 1579.59 838.281 1579.59 843.688C1579.59 849.125 1581.34 851.906 1584.19 851.906Z" fill="black"/>
<path d="M1570.34 832.375V855H1566.25V836.344H1566.12L1560.84 839.719V836L1566.44 832.375H1570.34Z" fill="black"/>
<path d="M1541.87 855V852.062L1549.87 844.344C1552.16 842.062 1553.34 840.719 1553.34 838.812C1553.34 836.719 1551.69 835.375 1549.47 835.375C1547.12 835.375 1545.62 836.844 1545.66 839.125H1541.78C1541.75 834.844 1544.97 832.062 1549.5 832.062C1554.12 832.062 1557.25 834.812 1557.25 838.625C1557.25 841.188 1556 843.25 1551.56 847.438L1547.53 851.438V851.594H1557.59V855H1541.87Z" fill="black"/>
</g>
<g id="convergence_hall_212">
<path d="M1542 1026C1542 1021.58 1545.58 1018 1550 1018H1651C1655.42 1018 1659 1021.58 1659 1026V1154C1659 1158.42 1655.42 1162 1651 1162H1550C1545.58 1162 1542 1158.42 1542 1154V1026Z" fill="#F7FBFF"/>
<path d="M1651 1159V1162H1550L1550 1159H1651ZM1656 1154V1026C1656 1023.24 1653.76 1021 1651 1021H1550C1547.24 1021 1545 1023.24 1545 1026V1154C1545 1156.76 1547.24 1159 1550 1159L1550 1162L1549.59 1161.99C1545.5 1161.78 1542.22 1158.5 1542.01 1154.41L1542 1154V1026C1542 1021.58 1545.58 1018 1550 1018H1651C1655.42 1018 1659 1021.58 1659 1026V1154L1658.99 1154.41C1658.78 1158.5 1655.5 1161.78 1651.41 1161.99L1651 1162V1159C1653.76 1159 1656 1156.76 1656 1154Z" fill="#2E2F33" fill-opacity="0.88"/>
<path d="M1608.84 1101V1098.06L1616.84 1090.34C1619.12 1088.06 1620.31 1086.72 1620.31 1084.81C1620.31 1082.72 1618.66 1081.38 1616.44 1081.38C1614.09 1081.38 1612.59 1082.84 1612.62 1085.12H1608.75C1608.72 1080.84 1611.94 1078.06 1616.47 1078.06C1621.09 1078.06 1624.22 1080.81 1624.22 1084.62C1624.22 1087.19 1622.97 1089.25 1618.53 1093.44L1614.5 1097.44V1097.59H1624.56V1101H1608.84Z" fill="black"/>
<path d="M1603.34 1078.38V1101H1599.25V1082.34H1599.12L1593.84 1085.72V1082L1599.44 1078.38H1603.34Z" fill="black"/>
<path d="M1574.87 1101V1098.06L1582.87 1090.34C1585.16 1088.06 1586.34 1086.72 1586.34 1084.81C1586.34 1082.72 1584.69 1081.38 1582.47 1081.38C1580.12 1081.38 1578.62 1082.84 1578.66 1085.12H1574.78C1574.75 1080.84 1577.97 1078.06 1582.5 1078.06C1587.12 1078.06 1590.25 1080.81 1590.25 1084.62C1590.25 1087.19 1589 1089.25 1584.56 1093.44L1580.53 1097.44V1097.59H1590.59V1101H1574.87Z" fill="black"/>
</g>
<g id="convergence_hall_213">
<path d="M1656 1026C1656 1021.58 1659.58 1018 1664 1018H1765C1769.42 1018 1773 1021.58 1773 1026V1154C1773 1158.42 1769.42 1162 1765 1162H1664C1659.58 1162 1656 1158.42 1656 1154V1026Z" fill="#F7FBFF"/>
<path d="M1765 1159V1162H1664L1664 1159H1765ZM1770 1154V1026C1770 1023.24 1767.76 1021 1765 1021H1664C1661.24 1021 1659 1023.24 1659 1026V1154C1659 1156.76 1661.24 1159 1664 1159L1664 1162L1663.59 1161.99C1659.5 1161.78 1656.22 1158.5 1656.01 1154.41L1656 1154V1026C1656 1021.58 1659.58 1018 1664 1018H1765C1769.42 1018 1773 1021.58 1773 1026V1154L1772.99 1154.41C1772.78 1158.5 1769.5 1161.78 1765.41 1161.99L1765 1162V1159C1767.76 1159 1770 1156.76 1770 1154Z" fill="#2E2F33" fill-opacity="0.88"/>
<path d="M1731.06 1101.31C1726.22 1101.31 1722.78 1098.69 1722.69 1094.88H1726.78C1726.91 1096.69 1728.72 1097.88 1731.06 1097.88C1733.56 1097.88 1735.34 1096.5 1735.34 1094.5C1735.34 1092.47 1733.59 1091 1730.66 1091H1728.62V1087.88H1730.66C1733.06 1087.88 1734.75 1086.53 1734.72 1084.56C1734.75 1082.66 1733.31 1081.38 1731.09 1081.38C1728.97 1081.38 1727.12 1082.56 1727.06 1084.47H1723.16C1723.25 1080.66 1726.69 1078.06 1731.12 1078.06C1735.72 1078.06 1738.69 1080.88 1738.66 1084.34C1738.69 1086.88 1737 1088.72 1734.53 1089.22V1089.41C1737.72 1089.84 1739.53 1091.88 1739.5 1094.72C1739.53 1098.53 1735.97 1101.31 1731.06 1101.31Z" fill="black"/>
<path d="M1717.34 1078.38V1101H1713.25V1082.34H1713.12L1707.84 1085.72V1082L1713.44 1078.38H1717.34Z" fill="black"/>
<path d="M1688.87 1101V1098.06L1696.87 1090.34C1699.16 1088.06 1700.34 1086.72 1700.34 1084.81C1700.34 1082.72 1698.69 1081.38 1696.47 1081.38C1694.12 1081.38 1692.62 1082.84 1692.66 1085.12H1688.78C1688.75 1080.84 1691.97 1078.06 1696.5 1078.06C1701.12 1078.06 1704.25 1080.81 1704.25 1084.62C1704.25 1087.19 1703 1089.25 1698.56 1093.44L1694.53 1097.44V1097.59H1704.59V1101H1688.87Z" fill="black"/>
</g>
<g id="convergence_hall_214">
<path d="M1770 1026C1770 1021.58 1773.58 1018 1778 1018H1901C1905.42 1018 1909 1021.58 1909 1026V1154C1909 1158.42 1905.42 1162 1901 1162H1778C1773.58 1162 1770 1158.42 1770 1154V1026Z" fill="#F7FBFF"/>
<path d="M1901 1159V1162H1778L1778 1159H1901ZM1906 1154V1026C1906 1023.24 1903.76 1021 1901 1021H1778C1775.24 1021 1773 1023.24 1773 1026V1154C1773 1156.76 1775.24 1159 1778 1159L1778 1162L1777.59 1161.99C1773.5 1161.78 1770.22 1158.5 1770.01 1154.41L1770 1154V1026C1770 1021.72 1773.36 1018.23 1777.59 1018.01L1778 1018H1901C1905.42 1018 1909 1021.58 1909 1026V1154L1908.99 1154.41C1908.77 1158.64 1905.28 1162 1901 1162V1159C1903.76 1159 1906 1156.76 1906 1154Z" fill="#2E2F33" fill-opacity="0.88"/>
<path d="M1847.44 1096.78V1093.53L1857.22 1078.38H1862.28V1093.44H1865.25V1096.78H1862.28V1101H1858.41V1096.78H1847.44ZM1851.59 1093.44H1858.47V1083H1858.22L1851.59 1093.28V1093.44Z" fill="black"/>
<path d="M1842.34 1078.38V1101H1838.25V1082.34H1838.12L1832.84 1085.72V1082L1838.44 1078.38H1842.34Z" fill="black"/>
<path d="M1813.87 1101V1098.06L1821.87 1090.34C1824.16 1088.06 1825.34 1086.72 1825.34 1084.81C1825.34 1082.72 1823.69 1081.38 1821.47 1081.38C1819.12 1081.38 1817.62 1082.84 1817.66 1085.12H1813.78C1813.75 1080.84 1816.97 1078.06 1821.5 1078.06C1826.12 1078.06 1829.25 1080.81 1829.25 1084.62C1829.25 1087.19 1828 1089.25 1823.56 1093.44L1819.53 1097.44V1097.59H1829.59V1101H1813.87Z" fill="black"/>
</g>
<g id="convergence_hall_215">
<path d="M1482 1167C1482 1162.58 1485.58 1159 1490 1159H1901C1905.42 1159 1909 1162.58 1909 1167V1365C1909 1369.42 1905.42 1373 1901 1373H1490C1485.58 1373 1482 1369.42 1482 1365V1167Z" fill="#F7FBFF"/>
<path d="M1901 1370V1373H1490L1490 1370H1901ZM1906 1365V1167C1906 1164.24 1903.76 1162 1901 1162H1490C1487.24 1162 1485 1164.24 1485 1167V1365C1485 1367.76 1487.24 1370 1490 1370L1490 1373L1489.59 1372.99C1485.36 1372.77 1482 1369.28 1482 1365V1167C1482 1162.72 1485.36 1159.23 1489.59 1159.01L1490 1159H1901C1905.42 1159 1909 1162.58 1909 1167V1365L1908.99 1365.41C1908.77 1369.64 1905.28 1373 1901 1373V1370C1903.76 1370 1906 1367.76 1906 1365Z" fill="#2E2F33" fill-opacity="0.88"/>
<path d="M1711.88 1277.31C1707.34 1277.31 1704.03 1274.62 1703.91 1270.88H1707.88C1708 1272.72 1709.72 1274.03 1711.88 1274.03C1714.41 1274.03 1716.22 1272.19 1716.22 1269.69C1716.22 1267.09 1714.34 1265.25 1711.75 1265.25C1710 1265.22 1708.72 1265.84 1708 1267.19H1704.22L1705.59 1254.38H1718.97V1257.78H1708.94L1708.25 1263.78H1708.47C1709.34 1262.78 1711 1262.06 1712.84 1262.06C1717.06 1262.06 1720.16 1265.22 1720.16 1269.56C1720.16 1274.09 1716.75 1277.31 1711.88 1277.31Z" fill="black"/>
<path d="M1698.34 1254.38V1277H1694.25V1258.34H1694.12L1688.84 1261.72V1258L1694.44 1254.38H1698.34Z" fill="black"/>
<path d="M1669.87 1277V1274.06L1677.87 1266.34C1680.16 1264.06 1681.34 1262.72 1681.34 1260.81C1681.34 1258.72 1679.69 1257.38 1677.47 1257.38C1675.12 1257.38 1673.62 1258.84 1673.66 1261.12H1669.78C1669.75 1256.84 1672.97 1254.06 1677.5 1254.06C1682.12 1254.06 1685.25 1256.81 1685.25 1260.62C1685.25 1263.19 1684 1265.25 1679.56 1269.44L1675.53 1273.44V1273.59H1685.59V1277H1669.87Z" fill="black"/>
</g>
<g id="convergence_hall_219">
<path d="M1783 1378C1783 1373.58 1786.58 1370 1791 1370H1901C1905.42 1370 1909 1373.58 1909 1378V1528C1909 1532.42 1905.42 1536 1901 1536H1791C1786.58 1536 1783 1532.42 1783 1528V1378Z" fill="#F7FBFF"/>
<path d="M1901 1533V1536H1791L1791 1533H1901ZM1906 1528V1378C1906 1375.24 1903.76 1373 1901 1373H1791C1788.24 1373 1786 1375.24 1786 1378V1528C1786 1530.76 1788.24 1533 1791 1533L1791 1536L1790.59 1535.99C1786.36 1535.77 1783 1532.28 1783 1528V1378C1783 1373.58 1786.58 1370 1791 1370H1901C1905.42 1370 1909 1373.58 1909 1378V1528L1908.99 1528.41C1908.78 1532.5 1905.5 1535.78 1901.41 1535.99L1901 1536V1533C1903.76 1533 1906 1530.76 1906 1528Z" fill="#2E2F33" fill-opacity="0.88"/>
<path d="M1862.88 1441.06C1867.31 1441.09 1871.69 1443.72 1871.72 1452C1871.72 1459.81 1868.19 1464.31 1862.62 1464.31C1858.25 1464.31 1855.25 1461.59 1854.75 1457.84H1858.78C1859.19 1459.62 1860.56 1460.78 1862.62 1460.78C1865.91 1460.78 1867.75 1457.87 1867.78 1453.03H1867.53C1866.38 1455 1864.22 1456.16 1861.72 1456.16C1857.69 1456.16 1854.56 1453.09 1854.53 1448.81C1854.53 1444.37 1857.84 1441.03 1862.88 1441.06ZM1862.91 1444.34C1860.38 1444.34 1858.47 1446.31 1858.5 1448.72C1858.5 1451.16 1860.31 1453.06 1862.84 1453.06C1865.34 1453.06 1867.31 1451.03 1867.28 1448.69C1867.28 1446.37 1865.44 1444.34 1862.91 1444.34Z" fill="black"/>
<path d="M1849.34 1441.38V1464H1845.25V1445.34H1845.12L1839.84 1448.72V1445L1845.44 1441.38H1849.34Z" fill="black"/>
<path d="M1820.87 1464V1461.06L1828.87 1453.34C1831.16 1451.06 1832.34 1449.72 1832.34 1447.81C1832.34 1445.72 1830.69 1444.38 1828.47 1444.38C1826.12 1444.38 1824.62 1445.84 1824.66 1448.12H1820.78C1820.75 1443.84 1823.97 1441.06 1828.5 1441.06C1833.12 1441.06 1836.25 1443.81 1836.25 1447.62C1836.25 1450.19 1835 1452.25 1830.56 1456.44L1826.53 1460.44V1460.59H1836.59V1464H1820.87Z" fill="black"/>
</g>
<g id="convergence_hall_218">
<path d="M1644 1378C1644 1373.58 1647.58 1370 1652 1370H1778C1782.42 1370 1786 1373.58 1786 1378V1528C1786 1532.42 1782.42 1536 1778 1536H1652C1647.58 1536 1644 1532.42 1644 1528V1378Z" fill="#F7FBFF"/>
<path d="M1778 1533V1536H1652L1652 1533H1778ZM1783 1528V1378C1783 1375.24 1780.76 1373 1778 1373H1652C1649.24 1373 1647 1375.24 1647 1378V1528C1647 1530.76 1649.24 1533 1652 1533L1652 1536L1651.59 1535.99C1647.36 1535.77 1644 1532.28 1644 1528V1378C1644 1373.72 1647.36 1370.23 1651.59 1370.01L1652 1370H1778C1782.42 1370 1786 1373.58 1786 1378V1528L1785.99 1528.41C1785.77 1532.64 1782.28 1536 1778 1536V1533C1780.76 1533 1783 1530.76 1783 1528Z" fill="#2E2F33" fill-opacity="0.88"/>
<path d="M1732.06 1464.31C1727.03 1464.31 1723.47 1461.62 1723.47 1457.94C1723.47 1455.06 1725.59 1452.72 1728.31 1452.28V1452.16C1725.94 1451.66 1724.31 1449.59 1724.31 1447.12C1724.31 1443.62 1727.59 1441.06 1732.06 1441.06C1736.5 1441.06 1739.78 1443.62 1739.78 1447.12C1739.78 1449.59 1738.12 1451.66 1735.78 1452.16V1452.28C1738.5 1452.72 1740.66 1455.06 1740.66 1457.94C1740.66 1461.62 1737.06 1464.31 1732.06 1464.31ZM1732.06 1461.09C1734.72 1461.09 1736.47 1459.66 1736.47 1457.56C1736.47 1455.44 1734.59 1453.88 1732.06 1453.88C1729.5 1453.88 1727.62 1455.44 1727.66 1457.56C1727.62 1459.66 1729.38 1461.09 1732.06 1461.09ZM1732.06 1450.84C1734.25 1450.84 1735.81 1449.47 1735.81 1447.5C1735.81 1445.59 1734.28 1444.25 1732.06 1444.25C1729.81 1444.25 1728.28 1445.56 1728.28 1447.5C1728.28 1449.47 1729.84 1450.84 1732.06 1450.84Z" fill="black"/>
<path d="M1718.34 1441.38V1464H1714.25V1445.34H1714.12L1708.84 1448.72V1445L1714.44 1441.38H1718.34Z" fill="black"/>
<path d="M1689.87 1464V1461.06L1697.87 1453.34C1700.16 1451.06 1701.34 1449.72 1701.34 1447.81C1701.34 1445.72 1699.69 1444.38 1697.47 1444.38C1695.12 1444.38 1693.62 1445.84 1693.66 1448.12H1689.78C1689.75 1443.84 1692.97 1441.06 1697.5 1441.06C1702.12 1441.06 1705.25 1443.81 1705.25 1447.62C1705.25 1450.19 1704 1452.25 1699.56 1456.44L1695.53 1460.44V1460.59H1705.59V1464H1689.87Z" fill="black"/>
</g>
<g id="convergence_hall_217">
<path d="M1479 1378C1479 1373.58 1482.58 1370 1487 1370H1639C1643.42 1370 1647 1373.58 1647 1378V1528C1647 1532.42 1643.42 1536 1639 1536H1487C1482.58 1536 1479 1532.42 1479 1528V1378Z" fill="#F7FBFF"/>
<path d="M1639 1533V1536H1487L1487 1533H1639ZM1644 1528V1378C1644 1375.24 1641.76 1373 1639 1373H1487C1484.24 1373 1482 1375.24 1482 1378V1528C1482 1530.76 1484.24 1533 1487 1533L1487 1536L1486.59 1535.99C1482.36 1535.77 1479 1532.28 1479 1528V1378C1479 1373.58 1482.58 1370 1487 1370H1639C1643.42 1370 1647 1373.58 1647 1378V1528L1646.99 1528.41C1646.78 1532.5 1643.5 1535.78 1639.41 1535.99L1639 1536V1533C1641.76 1533 1644 1530.76 1644 1528Z" fill="#2E2F33" fill-opacity="0.88"/>
<path d="M1572.69 1464L1582.5 1444.94V1444.78H1571.12V1441.38H1586.72V1444.84L1576.91 1464H1572.69Z" fill="black"/>
<path d="M1566.34 1441.38V1464H1562.25V1445.34H1562.12L1556.84 1448.72V1445L1562.44 1441.38H1566.34Z" fill="black"/>
<path d="M1537.87 1464V1461.06L1545.87 1453.34C1548.16 1451.06 1549.34 1449.72 1549.34 1447.81C1549.34 1445.72 1547.69 1444.38 1545.47 1444.38C1543.12 1444.38 1541.62 1445.84 1541.66 1448.12H1537.78C1537.75 1443.84 1540.97 1441.06 1545.5 1441.06C1550.12 1441.06 1553.25 1443.81 1553.25 1447.62C1553.25 1450.19 1552 1452.25 1547.56 1456.44L1543.53 1460.44V1460.59H1553.59V1464H1537.87Z" fill="black"/>
</g>
<g id="convergence_hall_216">
<path d="M1305 1390C1305 1385.58 1308.58 1382 1313 1382H1474C1478.42 1382 1482 1385.58 1482 1390V1528C1482 1532.42 1478.42 1536 1474 1536H1313C1308.58 1536 1305 1532.42 1305 1528V1390Z" fill="#F7FBFF"/>
<path d="M1474 1533V1536H1313L1313 1533H1474ZM1479 1528V1390C1479 1387.24 1476.76 1385 1474 1385H1313C1310.24 1385 1308 1387.24 1308 1390V1528C1308 1530.76 1310.24 1533 1313 1533L1313 1536L1312.59 1535.99C1308.36 1535.77 1305 1532.28 1305 1528V1390C1305 1385.58 1308.58 1382 1313 1382H1474C1478.42 1382 1482 1385.58 1482 1390V1528L1481.99 1528.41C1481.78 1532.5 1478.5 1535.78 1474.41 1535.99L1474 1536V1533C1476.76 1533 1479 1530.76 1479 1528Z" fill="#2E2F33" fill-opacity="0.88"/>
<path d="M1410.31 1470.31C1405.91 1470.28 1401.47 1467.66 1401.5 1459.31C1401.5 1451.56 1405.03 1447.06 1410.56 1447.06C1414.94 1447.06 1417.94 1449.81 1418.44 1453.47H1414.41C1414 1451.75 1412.63 1450.59 1410.56 1450.59C1407.28 1450.59 1405.44 1453.5 1405.44 1458.25H1405.66C1406.81 1456.31 1409 1455.16 1411.47 1455.16C1415.53 1455.16 1418.66 1458.22 1418.66 1462.5C1418.66 1467 1415.31 1470.34 1410.31 1470.31ZM1410.31 1467.03C1412.84 1467.03 1414.72 1465.06 1414.72 1462.59C1414.72 1460.19 1412.88 1458.25 1410.38 1458.25C1407.84 1458.25 1405.91 1460.25 1405.88 1462.62C1405.91 1465 1407.75 1467.03 1410.31 1467.03Z" fill="black"/>
<path d="M1396.34 1447.38V1470H1392.25V1451.34H1392.12L1386.84 1454.72V1451L1392.44 1447.38H1396.34Z" fill="black"/>
<path d="M1367.87 1470V1467.06L1375.87 1459.34C1378.16 1457.06 1379.34 1455.72 1379.34 1453.81C1379.34 1451.72 1377.69 1450.38 1375.47 1450.38C1373.12 1450.38 1371.62 1451.84 1371.66 1454.12H1367.78C1367.75 1449.84 1370.97 1447.06 1375.5 1447.06C1380.12 1447.06 1383.25 1449.81 1383.25 1453.62C1383.25 1456.19 1382 1458.25 1377.56 1462.44L1373.53 1466.44V1466.59H1383.59V1470H1367.87Z" fill="black"/>
</g>
<g id="convergence_hall_2f_bluebellis_stand">
<path d="M1014 1166C1014 1161.58 1017.58 1158 1022 1158H1104C1108.42 1158 1112 1161.58 1112 1166V1528C1112 1532.42 1108.42 1536 1104 1536H1022C1017.58 1536 1014 1532.42 1014 1528V1166Z" fill="#D9FFE6"/>
<path d="M1104 1533V1536H1022L1022 1533H1104ZM1109 1528V1166C1109 1163.24 1106.76 1161 1104 1161H1022C1019.24 1161 1017 1163.24 1017 1166V1528C1017 1530.76 1019.24 1533 1022 1533L1022 1536C1017.58 1536 1014 1532.42 1014 1528V1166C1014 1161.72 1017.36 1158.23 1021.59 1158.01L1022 1158H1104L1104.41 1158.01C1108.64 1158.23 1112 1161.72 1112 1166V1528C1112 1532.42 1108.42 1536 1104 1536V1533C1106.76 1533 1109 1530.76 1109 1528Z" fill="#2E2F33" fill-opacity="0.88"/>
<path d="M1100.2 1383.78V1386.56H1080.39V1373H1099.98V1375.81H1083.83V1383.78H1100.2ZM1103.08 1392.31V1395.19H1077.27V1392.31H1103.08Z" fill="black"/>
<path d="M1061.77 1372.88V1375.62H1054.02V1378.59H1061.48V1381.31H1054.02V1384.44C1057.47 1384.41 1059.86 1384.28 1062.61 1383.78L1062.98 1386.56C1059.67 1387.16 1056.92 1387.25 1052.55 1387.25H1050.67V1372.88H1061.77ZM1073.77 1370.56V1391.66H1070.45V1381.34H1067.52V1390.97H1064.27V1371.09H1067.52V1378.53H1070.45V1370.56H1073.77ZM1074.55 1395.41V1398.22H1054.86V1389.19H1058.33V1395.41H1074.55Z" fill="black"/>
<path d="M1036.55 1374.41C1036.55 1378.78 1040.83 1383.16 1046.73 1384.19L1045.17 1387.09C1040.44 1386.09 1036.56 1383.23 1034.73 1379.44C1032.86 1383.2 1028.98 1386.08 1024.27 1387.09L1022.73 1384.19C1028.58 1383.12 1032.83 1378.75 1032.86 1374.41V1372.31H1036.55V1374.41ZM1047.77 1392.31V1395.19H1021.95V1392.31H1047.77Z" fill="black"/>
<path d="M1086.97 1332.53V1360.81H1083.53V1332.53H1086.97ZM1078.28 1335V1345.59H1068.56V1351.28C1073.02 1351.25 1076.86 1351.03 1081.25 1350.28L1081.56 1353.12C1076.75 1353.97 1072.53 1354.12 1067.47 1354.12H1065V1342.84H1074.75V1337.81H1064.97V1335H1078.28Z" fill="black"/>
<path d="M1059.94 1332.56V1347.25H1056.62V1332.56H1059.94ZM1054.19 1333.09V1347.09H1050.94V1341.44H1048.03V1346.16H1036.88V1334.16H1040.16V1337.47H1044.81V1334.16H1048.03V1338.62H1050.94V1333.09H1054.19ZM1059.94 1348.41V1355.62H1044.34V1357.84H1060.94V1360.53H1040.84V1353.06H1056.47V1351.09H1040.81V1348.41H1059.94ZM1040.16 1343.47H1044.81V1340.06H1040.16V1343.47Z" fill="black"/>
<path d="M1086.22 1295.5V1303.53H1070V1306.34H1086.84V1309.12H1066.5V1300.91H1082.66V1298.31H1066.44V1295.5H1086.22ZM1089.22 1311.53V1314.31H1078V1322.81H1074.53V1314.31H1063.41V1311.53H1089.22Z" fill="black"/>
<path d="M1042.56 1295.03V1297.25H1054.75V1295.03H1058.19V1304.47H1039.12V1295.03H1042.56ZM1042.56 1301.84H1054.75V1299.78H1042.56V1301.84ZM1061.53 1306.28V1309H1035.78V1306.28H1061.53ZM1058.31 1311V1317.81H1042.25V1319.88H1059.09V1322.53H1038.84V1315.38H1054.91V1313.56H1038.81V1311H1058.31Z" fill="black"/>
</g>
<g id="convergence_hall_211">
<path d="M1309 1062C1309 1057.58 1312.58 1054 1317 1054H1468C1472.42 1054 1476 1057.58 1476 1062V1136C1476 1140.42 1472.42 1144 1468 1144H1317C1312.58 1144 1309 1140.42 1309 1136V1062Z" fill="#F7FBFF"/>
<path d="M1468 1141V1144H1317V1141H1468ZM1473 1136V1062C1473 1059.24 1470.76 1057 1468 1057H1317C1314.24 1057 1312 1059.24 1312 1062V1136C1312 1138.76 1314.24 1141 1317 1141V1144C1312.72 1144 1309.23 1140.64 1309.01 1136.41L1309 1136V1062C1309 1057.58 1312.58 1054 1317 1054H1468L1468.41 1054.01C1472.64 1054.23 1476 1057.72 1476 1062V1136C1476 1140.28 1472.64 1143.77 1468.41 1143.99L1468 1144V1141C1470.76 1141 1473 1138.76 1473 1136Z" fill="#2E2F33" fill-opacity="0.88"/>
<path d="M1410.03 1087.38V1110H1405.94V1091.34H1405.81L1400.53 1094.72V1091L1406.12 1087.38H1410.03Z" fill="black"/>
<path d="M1395.34 1087.38V1110H1391.25V1091.34H1391.12L1385.84 1094.72V1091L1391.44 1087.38H1395.34Z" fill="black"/>
<path d="M1366.87 1110V1107.06L1374.87 1099.34C1377.16 1097.06 1378.34 1095.72 1378.34 1093.81C1378.34 1091.72 1376.69 1090.38 1374.47 1090.38C1372.12 1090.38 1370.62 1091.84 1370.66 1094.12H1366.78C1366.75 1089.84 1369.97 1087.06 1374.5 1087.06C1379.12 1087.06 1382.25 1089.81 1382.25 1093.62C1382.25 1096.19 1381 1098.25 1376.56 1102.44L1372.53 1106.44V1106.59H1382.59V1110H1366.87Z" fill="black"/>
</g>
<g id="convergence_hall_2f_mdf_room">
<path d="M6 14C6 9.58172 9.58172 6 14 6H80C84.4183 6 88 9.58172 88 14V229C88 233.418 84.4183 237 80 237H14C9.58172 237 6 233.418 6 229V14Z" fill="#F7FBFF"/>
<path d="M80 234V237H14L14 234H80ZM85 229V14C85 11.2386 82.7614 9 80 9H14C11.2386 9 9 11.2386 9 14V229C9 231.761 11.2386 234 14 234L14 237C9.58172 237 6 233.418 6 229V14C6 9.71994 9.36114 6.22523 13.5879 6.01074L14 6H80L80.4121 6.01074C84.6389 6.22523 88 9.71994 88 14V229C88 233.418 84.4183 237 80 237V234C82.7614 234 85 231.761 85 229Z" fill="#2E2F33" fill-opacity="0.88"/>
<path d="M58.0781 125.531V139.938H54.6406V125.531H58.0781ZM58.1406 141.25V148.594H42.8594V150.781H58.9844V153.531H39.4531V146H54.6719V143.938H39.3906V141.25H58.1406ZM45.1406 128.406C45.1406 132 47.5156 135.375 51.9844 136.719L50.2969 139.406C47.0156 138.406 44.6719 136.297 43.3906 133.594C42.1094 136.531 39.7031 138.828 36.3281 139.906L34.5781 137.188C39.1406 135.719 41.5469 132.094 41.5469 128.406V126.219H45.1406V128.406Z" fill="black"/>
<path d="M65.7031 113V90.375H80.2031V93.7812H69.7656V99.9688H79.2031V103.375H69.7656V113H65.7031Z" fill="black"/>
<path d="M51.1406 113H43.4531V90.375H51.2656C58.0156 90.375 62.1094 94.625 62.1094 101.656C62.1094 108.719 58.0156 113 51.1406 113ZM47.5156 109.469H50.9219C55.6406 109.469 58.0469 106.875 58.0469 101.656C58.0469 96.4688 55.6406 93.9062 51.0469 93.9062H47.5156V109.469Z" fill="black"/>
<path d="M15.5469 90.375H20.5469L27.2656 106.812H27.5469L34.2656 90.375H39.2656V113H35.3594V97.4375H35.1406L28.8594 112.938H25.9531L19.6719 97.375H19.4844V113H15.5469V90.375Z" fill="black"/>
</g>
<g id="convergence_hall_2f_toilet_girl_left">
<path d="M354 702C354 697.582 357.582 694 362 694H463C467.418 694 471 697.582 471 702V922C471 926.418 467.418 930 463 930H362C357.582 930 354 926.418 354 922V702Z" fill="#FED9C4"/>
<path d="M463 927V930H362L362 927H463ZM468 922V702C468 699.239 465.761 697 463 697H362C359.239 697 357 699.239 357 702V922C357 924.761 359.239 927 362 927L362 930L361.588 929.989C357.498 929.782 354.218 926.502 354.011 922.412L354 922V702C354 697.582 357.582 694 362 694H463C467.418 694 471 697.582 471 702V922C471 926.28 467.639 929.775 463.412 929.989L463 930V927C465.761 927 468 924.761 468 922Z" fill="#2E2F33" fill-opacity="0.88"/>
<path d="M424.75 787.25H399.25C392.623 787.25 387.25 792.623 387.25 799.25V824.75C387.25 831.377 392.623 836.75 399.25 836.75H424.75C431.377 836.75 436.75 831.377 436.75 824.75V799.25C436.75 792.623 431.377 787.25 424.75 787.25Z" fill="#E76D6D"/>
<path d="M409.275 809.977L403.808 822.524C402.953 824.488 404.392 826.685 406.534 826.685H417.465C419.606 826.685 421.047 824.488 420.19 822.524L414.724 809.977C413.686 807.594 410.309 807.594 409.271 809.977H409.275Z" fill="white"/>
<path d="M412 805.381C414.227 805.381 416.032 803.575 416.032 801.349C416.032 799.122 414.227 797.316 412 797.316C409.773 797.316 407.968 799.122 407.968 801.349C407.968 803.575 409.773 805.381 412 805.381Z" fill="white"/>
</g>
<g id="convergence_hall_2f_toilet_girl_right">
<path d="M1304 761C1304 756.582 1307.58 753 1312 753H1398C1402.42 753 1406 756.582 1406 761V927C1406 931.418 1402.42 935 1398 935H1312C1307.58 935 1304 931.418 1304 927V761Z" fill="#FED9C4"/>
<path d="M1398 932V935H1312L1312 932H1398ZM1403 927V761C1403 758.239 1400.76 756 1398 756H1312C1309.24 756 1307 758.239 1307 761V927C1307 929.761 1309.24 932 1312 932L1312 935L1311.59 934.989C1307.5 934.782 1304.22 931.502 1304.01 927.412L1304 927V761C1304 756.582 1307.58 753 1312 753H1398C1402.42 753 1406 756.582 1406 761V927C1406 931.28 1402.64 934.775 1398.41 934.989L1398 935V932C1400.76 932 1403 929.761 1403 927Z" fill="#2E2F33" fill-opacity="0.88"/>
<path d="M1367.75 819.25H1342.25C1335.62 819.25 1330.25 824.623 1330.25 831.25V856.75C1330.25 863.377 1335.62 868.75 1342.25 868.75H1367.75C1374.38 868.75 1379.75 863.377 1379.75 856.75V831.25C1379.75 824.623 1374.38 819.25 1367.75 819.25Z" fill="#E76D6D"/>
<path d="M1352.27 841.977L1346.81 854.524C1345.95 856.488 1347.39 858.685 1349.53 858.685H1360.46C1362.61 858.685 1364.05 856.488 1363.19 854.524L1357.72 841.977C1356.69 839.594 1353.31 839.594 1352.27 841.977H1352.27Z" fill="white"/>
<path d="M1355 837.381C1357.23 837.381 1359.03 835.575 1359.03 833.349C1359.03 831.122 1357.23 829.316 1355 829.316C1352.77 829.316 1350.97 831.122 1350.97 833.349C1350.97 835.575 1352.77 837.381 1355 837.381Z" fill="white"/>
</g>
<g id="convergence_hall_2f_toilet_boy_left">
<path d="M241 702C241 697.582 244.582 694 249 694H349C353.418 694 357 697.582 357 702V922C357 926.418 353.418 930 349 930H249C244.582 930 241 926.418 241 922V702Z" fill="#FED9C4"/>
<path d="M349 927V930H249L249 927H349ZM354 922V702C354 699.239 351.761 697 349 697H249C246.239 697 244 699.239 244 702V922C244 924.761 246.239 927 249 927L249 930L248.588 929.989C244.498 929.782 241.218 926.502 241.011 922.412L241 922V702C241 697.72 244.361 694.225 248.588 694.011L249 694H349C353.418 694 357 697.582 357 702V922C357 926.418 353.418 930 349 930V927C351.761 927 354 924.761 354 922Z" fill="#2E2F33" fill-opacity="0.88"/>
<path d="M311.75 787.25H286.25C279.623 787.25 274.25 792.623 274.25 799.25V824.75C274.25 831.377 279.623 836.75 286.25 836.75H311.75C318.377 836.75 323.75 831.377 323.75 824.75V799.25C323.75 792.623 318.377 787.25 311.75 787.25Z" fill="#3076D1"/>
<path d="M301.725 824.889L307.191 812.342C308.046 810.379 306.608 808.181 304.466 808.181H293.535C291.394 808.181 289.953 810.379 290.81 812.342L296.276 824.889C297.314 827.271 300.69 827.271 301.729 824.889H301.725Z" fill="white"/>
<path d="M299 805.388C301.227 805.388 303.032 803.583 303.032 801.356C303.032 799.129 301.227 797.324 299 797.324C296.773 797.324 294.968 799.129 294.968 801.356C294.968 803.583 296.773 805.388 299 805.388Z" fill="white"/>
</g>
<g id="convergence_hall_2f_toilet_boy_right">
<path d="M1403 761C1403 756.582 1406.58 753 1411 753H1499C1503.42 753 1507 756.582 1507 761V927C1507 931.418 1503.42 935 1499 935H1411C1406.58 935 1403 931.418 1403 927V761Z" fill="#FED9C4"/>
<path d="M1499 932V935H1411L1411 932H1499ZM1504 927V761C1504 758.239 1501.76 756 1499 756H1411C1408.24 756 1406 758.239 1406 761V927C1406 929.761 1408.24 932 1411 932L1411 935L1410.59 934.989C1406.5 934.782 1403.22 931.502 1403.01 927.412L1403 927V761C1403 756.582 1406.58 753 1411 753H1499C1503.42 753 1507 756.582 1507 761V927C1507 931.28 1503.64 934.775 1499.41 934.989L1499 935V932C1501.76 932 1504 929.761 1504 927Z" fill="#2E2F33" fill-opacity="0.88"/>
<path d="M1467.75 819.25H1442.25C1435.62 819.25 1430.25 824.623 1430.25 831.25V856.75C1430.25 863.377 1435.62 868.75 1442.25 868.75H1467.75C1474.38 868.75 1479.75 863.377 1479.75 856.75V831.25C1479.75 824.623 1474.38 819.25 1467.75 819.25Z" fill="#3076D1"/>
<path d="M1457.73 856.889L1463.19 844.342C1464.05 842.379 1462.61 840.181 1460.47 840.181H1449.54C1447.39 840.181 1445.95 842.379 1446.81 844.342L1452.28 856.889C1453.31 859.271 1456.69 859.271 1457.73 856.889H1457.73Z" fill="white"/>
<path d="M1455 837.388C1457.23 837.388 1459.03 835.583 1459.03 833.356C1459.03 831.129 1457.23 829.324 1455 829.324C1452.77 829.324 1450.97 831.129 1450.97 833.356C1450.97 835.583 1452.77 837.388 1455 837.388Z" fill="white"/>
</g>
<g id="convergence_hall_2f_stairs_right_to_3f">
<path d="M1238 840C1238 835.582 1241.58 832 1246 832H1299C1303.42 832 1307 835.582 1307 840V927C1307 931.418 1303.42 935 1299 935H1246C1241.58 935 1238 931.418 1238 927V840Z" fill="#D9FFE6"/>
<path d="M1299 932V935H1246L1246 932H1299ZM1304 927V840C1304 837.239 1301.76 835 1299 835H1246C1243.24 835 1241 837.239 1241 840V927C1241 929.761 1243.24 932 1246 932L1246 935L1245.59 934.989C1241.5 934.782 1238.22 931.502 1238.01 927.412L1238 927V840C1238 835.582 1241.58 832 1246 832H1299C1303.42 832 1307 835.582 1307 840V927L1306.99 927.412C1306.78 931.502 1303.5 934.782 1299.41 934.989L1299 935V932C1301.76 932 1304 929.761 1304 927Z" fill="#2E2F33" fill-opacity="0.88"/>
<path d="M1295.94 856.635C1294.89 856.248 1293.73 856.788 1293.34 857.836L1289.58 868.056H1268.28L1271.81 859.289C1272.22 858.251 1271.72 857.071 1270.68 856.654C1269.64 856.237 1268.46 856.743 1268.05 857.778L1248.43 906.581C1248.02 907.619 1248.52 908.8 1249.56 909.217C1249.8 909.316 1250.06 909.364 1250.31 909.364C1251.11 909.364 1251.87 908.884 1252.19 908.093L1256.22 898.071C1256.31 898.083 1256.38 898.121 1256.47 898.121H1278.52L1275.39 906.64C1275 907.688 1275.54 908.854 1276.59 909.238C1276.82 909.324 1277.06 909.364 1277.29 909.364C1278.11 909.364 1278.89 908.855 1279.19 908.036L1297.14 859.233C1297.53 858.184 1296.99 857.019 1295.94 856.635ZM1267.07 872.104H1288.09L1284.85 880.91H1263.11L1266.69 872.026C1266.82 872.052 1266.94 872.104 1267.07 872.104ZM1257.83 894.071L1261.51 884.903C1261.61 884.917 1261.69 884.96 1261.79 884.96H1283.36L1280.01 894.071H1257.83Z" fill="#6E4944"/>
</g>
<g id="convergence_hall_2f_stairs_main2">
<path d="M1109 1166C1109 1161.58 1112.58 1158 1117 1158H1167C1171.42 1158 1175 1161.58 1175 1166V1241C1175 1245.42 1171.42 1249 1167 1249H1117C1112.58 1249 1109 1245.42 1109 1241V1166Z" fill="#D9FFE6"/>
<path d="M1167 1246V1249H1117V1246H1167ZM1172 1241V1166C1172 1163.24 1169.76 1161 1167 1161H1117C1114.24 1161 1112 1163.24 1112 1166V1241C1112 1243.76 1114.24 1246 1117 1246V1249C1112.72 1249 1109.23 1245.64 1109.01 1241.41L1109 1241V1166C1109 1161.58 1112.58 1158 1117 1158H1167L1167.41 1158.01C1171.64 1158.23 1175 1161.72 1175 1166V1241C1175 1245.28 1171.64 1248.77 1167.41 1248.99L1167 1249V1246C1169.76 1246 1172 1243.76 1172 1241Z" fill="#2E2F33" fill-opacity="0.88"/>
<path d="M1165.94 1176.63C1164.89 1176.25 1163.73 1176.79 1163.34 1177.84L1159.58 1188.06H1138.28L1141.81 1179.29C1142.22 1178.25 1141.72 1177.07 1140.68 1176.65C1139.64 1176.24 1138.46 1176.74 1138.05 1177.78L1118.43 1226.58C1118.02 1227.62 1118.52 1228.8 1119.56 1229.22C1119.8 1229.32 1120.06 1229.36 1120.31 1229.36C1121.11 1229.36 1121.87 1228.88 1122.19 1228.09L1126.22 1218.07C1126.31 1218.08 1126.38 1218.12 1126.47 1218.12H1148.52L1145.39 1226.64C1145 1227.69 1145.54 1228.85 1146.59 1229.24C1146.82 1229.32 1147.06 1229.36 1147.29 1229.36C1148.11 1229.36 1148.89 1228.86 1149.19 1228.04L1167.14 1179.23C1167.53 1178.18 1166.99 1177.02 1165.94 1176.63ZM1137.07 1192.1H1158.09L1154.85 1200.91H1133.11L1136.69 1192.03C1136.82 1192.05 1136.94 1192.1 1137.07 1192.1ZM1127.83 1214.07L1131.51 1204.9C1131.61 1204.92 1131.69 1204.96 1131.79 1204.96H1153.36L1150.01 1214.07H1127.83Z" fill="#6E4944"/>
</g>
<g id="convergence_hall_2f_stairs_main">
<path d="M1109 1292C1109 1287.58 1112.58 1284 1117 1284H1167C1171.42 1284 1175 1287.58 1175 1292V1412C1175 1416.42 1171.42 1420 1167 1420H1117C1112.58 1420 1109 1416.42 1109 1412V1292Z" fill="#D9FFE6"/>
<path d="M1167 1417V1420H1117V1417H1167ZM1172 1412V1292C1172 1289.24 1169.76 1287 1167 1287H1117C1114.24 1287 1112 1289.24 1112 1292V1412C1112 1414.76 1114.24 1417 1117 1417V1420C1112.72 1420 1109.23 1416.64 1109.01 1412.41L1109 1412V1292C1109 1287.58 1112.58 1284 1117 1284H1167L1167.41 1284.01C1171.64 1284.23 1175 1287.72 1175 1292V1412C1175 1416.28 1171.64 1419.77 1167.41 1419.99L1167 1420V1417C1169.76 1417 1172 1414.76 1172 1412Z" fill="#2E2F33" fill-opacity="0.88"/>
<path d="M1165.94 1325.63C1164.89 1325.25 1163.73 1325.79 1163.34 1326.84L1159.58 1337.06H1138.28L1141.81 1328.29C1142.22 1327.25 1141.72 1326.07 1140.68 1325.65C1139.64 1325.24 1138.46 1325.74 1138.05 1326.78L1118.43 1375.58C1118.02 1376.62 1118.52 1377.8 1119.56 1378.22C1119.8 1378.32 1120.06 1378.36 1120.31 1378.36C1121.11 1378.36 1121.87 1377.88 1122.19 1377.09L1126.22 1367.07C1126.31 1367.08 1126.38 1367.12 1126.47 1367.12H1148.52L1145.39 1375.64C1145 1376.69 1145.54 1377.85 1146.59 1378.24C1146.82 1378.32 1147.06 1378.36 1147.29 1378.36C1148.11 1378.36 1148.89 1377.86 1149.19 1377.04L1167.14 1328.23C1167.53 1327.18 1166.99 1326.02 1165.94 1325.63ZM1137.07 1341.1H1158.09L1154.85 1349.91H1133.11L1136.69 1341.03C1136.82 1341.05 1136.94 1341.1 1137.07 1341.1ZM1127.83 1363.07L1131.51 1353.9C1131.61 1353.92 1131.69 1353.96 1131.79 1353.96H1153.36L1150.01 1363.07H1127.83Z" fill="#6E4944"/>
</g>
<g id="convergence_hall_2f_stairs_left">
<path d="M6 925C6 920.582 9.58172 917 14 917H183C187.418 917 191 920.582 191 925V1020C191 1024.42 187.418 1028 183 1028H14C9.58172 1028 6 1024.42 6 1020V925Z" fill="#D9FFE6"/>
<path d="M183 1025V1028H14L14 1025H183ZM188 1020V925C188 922.239 185.761 920 183 920H14C11.2386 920 9 922.239 9 925V1020C9 1022.76 11.2386 1025 14 1025L14 1028L13.5879 1027.99C9.49764 1027.78 6.2183 1024.5 6.01074 1020.41L6 1020V925C6 920.582 9.58172 917 14 917H183C187.418 917 191 920.582 191 925V1020L190.989 1020.41C190.782 1024.5 187.502 1027.78 183.412 1027.99L183 1028V1025C185.761 1025 188 1022.76 188 1020Z" fill="#2E2F33" fill-opacity="0.88"/>
<path d="M121.94 945.635C120.892 945.248 119.728 945.788 119.341 946.836L115.58 957.056H94.2815L97.805 948.289C98.222 947.251 97.7195 946.071 96.6815 945.654C95.6435 945.237 94.4645 945.743 94.0475 946.778L74.432 995.581C74.015 996.619 74.5175 997.8 75.5555 998.217C75.803 998.316 76.058 998.364 76.31 998.364C77.1125 998.364 77.873 997.884 78.1895 997.093L82.2185 987.071C82.3055 987.083 82.382 987.121 82.472 987.121H104.519L101.385 995.64C101 996.688 101.537 997.854 102.587 998.238C102.818 998.324 103.055 998.364 103.286 998.364C104.11 998.364 104.885 997.855 105.187 997.036L123.142 948.233C123.527 947.184 122.99 946.019 121.94 945.635ZM93.074 961.104H114.089L110.849 969.91H89.114L92.6855 961.026C92.816 961.052 92.936 961.104 93.074 961.104ZM83.825 983.072L87.5105 973.903C87.6065 973.917 87.6935 973.96 87.794 973.96H109.361L106.008 983.072H83.825Z" fill="#6E4944"/>
</g>
<g id="convergence_hall_2f_stairs_left_to_3f">
<path d="M368 640C368 635.582 371.582 632 376 632H502C506.418 632 510 635.582 510 640V689C510 693.418 506.418 697 502 697H376C371.582 697 368 693.418 368 689V640Z" fill="#D9FFE6"/>
<path d="M502 694V697H376L376 694H502ZM507 689V640C507 637.239 504.761 635 502 635H376C373.239 635 371 637.239 371 640V689C371 691.761 373.239 694 376 694L376 697L375.588 696.989C371.498 696.782 368.218 693.502 368.011 689.412L368 689V640C368 635.72 371.361 632.225 375.588 632.011L376 632H502C506.418 632 510 635.582 510 640V689C510 693.418 506.418 697 502 697V694C504.761 694 507 691.761 507 689Z" fill="#2E2F33" fill-opacity="0.88"/>
<path d="M462.94 637.635C461.892 637.247 460.728 637.787 460.341 638.836L456.58 649.056H435.282L438.805 640.289C439.222 639.251 438.72 638.071 437.682 637.654C436.644 637.237 435.465 637.743 435.048 638.778L415.432 687.581C415.015 688.619 415.518 689.8 416.556 690.217C416.803 690.316 417.058 690.364 417.31 690.364C418.113 690.364 418.873 689.884 419.189 689.093L423.218 679.07C423.306 679.083 423.382 679.121 423.472 679.121H445.519L442.385 687.64C442 688.688 442.537 689.854 443.587 690.238C443.818 690.323 444.055 690.364 444.286 690.364C445.11 690.364 445.885 689.855 446.187 689.036L464.142 640.233C464.527 639.184 463.99 638.018 462.94 637.635ZM434.074 653.104H455.089L451.849 661.911H430.114L433.686 653.026C433.816 653.052 433.936 653.104 434.074 653.104ZM424.825 675.071L428.51 665.903C428.606 665.917 428.693 665.96 428.794 665.96H450.361L447.008 675.071H424.825Z" fill="#6E4944"/>
</g>
<g id="convergence_hall_2f_stairs_right">
<path d="M1305 1290C1305 1285.58 1308.58 1282 1313 1282H1474C1478.42 1282 1482 1285.58 1482 1290V1377C1482 1381.42 1478.42 1385 1474 1385H1313C1308.58 1385 1305 1381.42 1305 1377V1290Z" fill="#D9FFE6"/>
<path d="M1474 1382V1385H1313L1313 1382H1474ZM1479 1377V1290C1479 1287.24 1476.76 1285 1474 1285H1313C1310.24 1285 1308 1287.24 1308 1290V1377C1308 1379.76 1310.24 1382 1313 1382L1313 1385L1312.59 1384.99C1308.5 1384.78 1305.22 1381.5 1305.01 1377.41L1305 1377V1290C1305 1285.58 1308.58 1282 1313 1282H1474C1478.42 1282 1482 1285.58 1482 1290V1377L1481.99 1377.41C1481.78 1381.5 1478.5 1384.78 1474.41 1384.99L1474 1385V1382C1476.76 1382 1479 1379.76 1479 1377Z" fill="#2E2F33" fill-opacity="0.88"/>
<path d="M1416.94 1306.63C1415.89 1306.25 1414.73 1306.79 1414.34 1307.84L1410.58 1318.06H1389.28L1392.81 1309.29C1393.22 1308.25 1392.72 1307.07 1391.68 1306.65C1390.64 1306.24 1389.46 1306.74 1389.05 1307.78L1369.43 1356.58C1369.01 1357.62 1369.52 1358.8 1370.56 1359.22C1370.8 1359.32 1371.06 1359.36 1371.31 1359.36C1372.11 1359.36 1372.87 1358.88 1373.19 1358.09L1377.22 1348.07C1377.31 1348.08 1377.38 1348.12 1377.47 1348.12H1399.52L1396.39 1356.64C1396 1357.69 1396.54 1358.85 1397.59 1359.24C1397.82 1359.32 1398.06 1359.36 1398.29 1359.36C1399.11 1359.36 1399.89 1358.86 1400.19 1358.04L1418.14 1309.23C1418.53 1308.18 1417.99 1307.02 1416.94 1306.63ZM1388.07 1322.1H1409.09L1405.85 1330.91H1384.11L1387.69 1322.03C1387.82 1322.05 1387.94 1322.1 1388.07 1322.1ZM1378.82 1344.07L1382.51 1334.9C1382.61 1334.92 1382.69 1334.96 1382.79 1334.96H1404.36L1401.01 1344.07H1378.82Z" fill="#6E4944"/>
</g>
<g id="convergence_hall_2f_elevator_left">
<path d="M121 1097C121 1092.58 124.582 1089 129 1089H183C187.418 1089 191 1092.58 191 1097V1151C191 1155.42 187.418 1159 183 1159H129C124.582 1159 121 1155.42 121 1151V1097Z" fill="#C4C4C4"/>
<path d="M183 1156V1159H129L129 1156H183ZM188 1151V1097C188 1094.24 185.761 1092 183 1092H129C126.239 1092 124 1094.24 124 1097V1151C124 1153.76 126.239 1156 129 1156L129 1159L128.588 1158.99C124.498 1158.78 121.218 1155.5 121.011 1151.41L121 1151V1097C121 1092.58 124.582 1089 129 1089H183C187.418 1089 191 1092.58 191 1097V1151C191 1155.28 187.639 1158.77 183.412 1158.99L183 1159V1156C185.761 1156 188 1153.76 188 1151Z" fill="#2E2F33" fill-opacity="0.88"/>
<path d="M166.625 1103.38H145.375C139.853 1103.38 135.375 1107.85 135.375 1113.38V1134.62C135.375 1140.15 139.853 1144.62 145.375 1144.62H166.625C172.147 1144.62 176.625 1140.15 176.625 1134.62V1113.38C176.625 1107.85 172.147 1103.38 166.625 1103.38ZM157.02 1111.43H158.174C158.289 1111.43 158.381 1111.34 158.381 1111.23V1108.67C158.381 1108.58 158.46 1108.5 158.557 1108.5H160.449C160.546 1108.5 160.625 1108.58 160.625 1108.67V1111.23C160.625 1111.34 160.717 1111.43 160.832 1111.43H161.986C162.153 1111.43 162.235 1111.63 162.118 1111.75L159.759 1114.11C159.618 1114.25 159.389 1114.25 159.249 1114.11L156.89 1111.75C156.772 1111.63 156.855 1111.43 157.02 1111.43ZM149.327 1110.96L151.686 1108.6C151.827 1108.46 152.056 1108.46 152.196 1108.6L154.555 1110.96C154.673 1111.08 154.589 1111.28 154.424 1111.28H153.27C153.155 1111.28 153.062 1111.37 153.062 1111.49V1114.04C153.062 1114.14 152.984 1114.22 152.886 1114.22H150.995C150.897 1114.22 150.819 1114.14 150.819 1114.04V1111.49C150.819 1111.37 150.726 1111.28 150.611 1111.28H149.458C149.291 1111.28 149.21 1111.08 149.327 1110.96ZM171.29 1133.34C171.29 1136.35 168.838 1138.81 165.823 1138.81H146.176C143.161 1138.81 140.709 1136.35 140.709 1133.34V1121.54C140.709 1118.53 143.161 1116.07 146.176 1116.07H165.823C168.838 1116.07 171.29 1118.53 171.29 1121.54V1133.34Z" fill="#4592FB"/>
<path d="M165.823 1117.04H146.176C143.695 1117.04 141.676 1119.06 141.676 1121.54V1133.34C141.676 1135.82 143.695 1137.84 146.176 1137.84H165.823C168.304 1137.84 170.323 1135.82 170.323 1133.34V1121.54C170.323 1119.06 168.304 1117.04 165.823 1117.04ZM163.61 1119.93C164.245 1119.93 164.76 1120.44 164.76 1121.08C164.76 1121.71 164.245 1122.22 163.61 1122.22C162.975 1122.22 162.46 1121.71 162.46 1121.08C162.46 1120.44 162.975 1119.93 163.61 1119.93ZM155.866 1119.93C156.501 1119.93 157.016 1120.44 157.016 1121.08C157.016 1121.71 156.501 1122.22 155.866 1122.22C155.231 1122.22 154.716 1121.71 154.716 1121.08C154.716 1120.44 155.231 1119.93 155.866 1119.93ZM148.122 1119.93C148.757 1119.93 149.272 1120.44 149.272 1121.08C149.272 1121.71 148.757 1122.22 148.122 1122.22C147.487 1122.22 146.972 1121.71 146.972 1121.08C146.972 1120.44 147.487 1119.93 148.122 1119.93ZM151.455 1128.08C151.455 1128.44 151.163 1128.73 150.802 1128.73C150.443 1128.73 150.15 1128.44 150.15 1128.08V1124.66H149.809V1134.08C149.809 1134.48 149.49 1134.8 149.096 1134.8C148.702 1134.8 148.384 1134.48 148.384 1134.08V1128.67H147.859V1134.08C147.859 1134.48 147.54 1134.8 147.146 1134.8C146.752 1134.8 146.434 1134.48 146.434 1134.08V1124.66H145.995V1128.08C145.995 1128.44 145.703 1128.73 145.343 1128.73C144.983 1128.73 144.69 1128.44 144.69 1128.08V1124.05C144.69 1123.33 145.274 1122.75 145.995 1122.75H150.147C150.867 1122.75 151.452 1123.33 151.452 1124.05V1128.08H151.455ZM159.199 1128.08C159.199 1128.44 158.906 1128.73 158.546 1128.73C158.186 1128.73 157.894 1128.44 157.894 1128.08V1124.66H157.553V1134.08C157.553 1134.48 157.234 1134.8 156.84 1134.8C156.446 1134.8 156.127 1134.48 156.127 1134.08V1128.67H155.604V1134.08C155.604 1134.48 155.285 1134.8 154.891 1134.8C154.498 1134.8 154.179 1134.48 154.179 1134.08V1124.66H153.74V1128.08C153.74 1128.44 153.448 1128.73 153.088 1128.73C152.728 1128.73 152.435 1128.44 152.435 1128.08V1124.05C152.435 1123.33 153.019 1122.75 153.74 1122.75H157.893C158.614 1122.75 159.198 1123.33 159.198 1124.05L159.199 1128.08ZM166.942 1128.08C166.942 1128.44 166.65 1128.73 166.29 1128.73C165.93 1128.73 165.637 1128.44 165.637 1128.08V1124.66H165.296V1134.08C165.296 1134.48 164.978 1134.8 164.584 1134.8C164.19 1134.8 163.871 1134.48 163.871 1134.08V1128.67H163.346V1134.08C163.346 1134.48 163.028 1134.8 162.634 1134.8C162.24 1134.8 161.921 1134.48 161.921 1134.08V1124.66H161.482V1128.08C161.482 1128.44 161.19 1128.73 160.83 1128.73C160.47 1128.73 160.177 1128.44 160.177 1128.08V1124.05C160.177 1123.33 160.761 1122.75 161.482 1122.75H165.635C166.356 1122.75 166.94 1123.33 166.94 1124.05V1128.08H166.942Z" fill="#4592FB"/>
<path d="M155.866 1122.22C156.501 1122.22 157.016 1121.71 157.016 1121.08C157.016 1120.44 156.501 1119.93 155.866 1119.93C155.231 1119.93 154.716 1120.44 154.716 1121.08C154.716 1121.71 155.231 1122.22 155.866 1122.22Z" fill="white"/>
<path d="M148.122 1122.22C148.757 1122.22 149.272 1121.71 149.272 1121.08C149.272 1120.44 148.757 1119.93 148.122 1119.93C147.487 1119.93 146.972 1120.44 146.972 1121.08C146.972 1121.71 147.487 1122.22 148.122 1122.22Z" fill="white"/>
<path d="M163.61 1122.22C164.245 1122.22 164.76 1121.71 164.76 1121.08C164.76 1120.44 164.245 1119.93 163.61 1119.93C162.975 1119.93 162.46 1120.44 162.46 1121.08C162.46 1121.71 162.975 1122.22 163.61 1122.22Z" fill="white"/>
<path d="M165.825 1116.08H146.175C143.163 1116.08 140.712 1118.53 140.712 1121.54V1133.34C140.712 1136.35 143.163 1138.81 146.175 1138.81H165.825C168.838 1138.81 171.287 1136.35 171.287 1133.34V1121.54C171.287 1118.53 168.838 1116.08 165.825 1116.08ZM170.325 1133.34C170.325 1135.82 168.3 1137.84 165.825 1137.84H146.175C143.7 1137.84 141.675 1135.82 141.675 1133.34V1121.54C141.675 1119.06 143.7 1117.04 146.175 1117.04H165.825C168.3 1117.04 170.325 1119.06 170.325 1121.54V1133.34Z" fill="white"/>
<path d="M166.938 1124.05V1128.08C166.938 1128.44 166.65 1128.74 166.287 1128.74C165.925 1128.74 165.637 1128.44 165.637 1128.08V1124.66L165.3 1124.66V1134.09C165.3 1134.47 164.975 1134.8 164.588 1134.8C164.188 1134.8 163.875 1134.47 163.875 1134.09V1128.66H163.35V1134.09C163.35 1134.47 163.025 1134.8 162.637 1134.8C162.237 1134.8 161.925 1134.47 161.925 1134.09V1124.66H161.487V1128.08C161.487 1128.44 161.188 1128.74 160.838 1128.74C160.475 1128.74 160.175 1128.44 160.175 1128.08V1124.05C160.175 1123.33 160.763 1122.75 161.487 1122.75H165.637C166.362 1122.75 166.938 1123.33 166.938 1124.05Z" fill="white"/>
<path d="M151.45 1124.05V1128.08C151.45 1128.44 151.162 1128.74 150.8 1128.74C150.438 1128.74 150.15 1128.44 150.15 1128.08V1124.66L149.812 1124.66V1134.09C149.812 1134.47 149.487 1134.8 149.1 1134.8C148.7 1134.8 148.388 1134.47 148.388 1134.09V1128.66H147.862V1134.09C147.862 1134.47 147.538 1134.8 147.15 1134.8C146.75 1134.8 146.438 1134.47 146.438 1134.09V1124.66H146V1128.08C146 1128.44 145.7 1128.74 145.35 1128.74C144.988 1128.74 144.688 1128.44 144.688 1128.08V1124.05C144.688 1123.33 145.275 1122.75 146 1122.75H150.15C150.875 1122.75 151.45 1123.33 151.45 1124.05Z" fill="white"/>
<path d="M159.2 1124.05V1128.08C159.2 1128.44 158.912 1128.74 158.55 1128.74C158.188 1128.74 157.9 1128.44 157.9 1128.08V1124.66H157.55V1134.09C157.55 1134.47 157.237 1134.8 156.837 1134.8C156.45 1134.8 156.125 1134.47 156.125 1134.09V1128.66H155.6V1134.09C155.6 1134.47 155.288 1134.8 154.888 1134.8C154.5 1134.8 154.175 1134.47 154.175 1134.09V1124.66H153.737V1128.08C153.737 1128.44 153.45 1128.74 153.087 1128.74C152.725 1128.74 152.437 1128.44 152.437 1128.08V1124.05C152.437 1123.33 153.025 1122.75 153.737 1122.75H157.9C158.612 1122.75 159.2 1123.33 159.2 1124.05Z" fill="white"/>
<path d="M149.459 1111.28H150.612C150.727 1111.28 150.82 1111.37 150.82 1111.49V1114.04C150.82 1114.14 150.899 1114.22 150.996 1114.22H152.888C152.985 1114.22 153.064 1114.14 153.064 1114.04V1111.49C153.064 1111.37 153.156 1111.28 153.271 1111.28H154.425C154.591 1111.28 154.674 1111.08 154.556 1110.96L152.198 1108.61C152.056 1108.46 151.827 1108.46 151.688 1108.61L149.329 1110.96C149.211 1111.08 149.294 1111.28 149.459 1111.28Z" fill="white"/>
<path d="M159.246 1114.11C159.388 1114.25 159.616 1114.25 159.756 1114.11L162.115 1111.75C162.232 1111.63 162.149 1111.43 161.984 1111.43H160.83C160.715 1111.43 160.622 1111.34 160.622 1111.23V1108.67C160.622 1108.58 160.544 1108.5 160.446 1108.5H158.555C158.458 1108.5 158.379 1108.58 158.379 1108.67V1111.23C158.379 1111.34 158.286 1111.43 158.171 1111.43H157.017C156.851 1111.43 156.769 1111.63 156.886 1111.75L159.246 1114.11Z" fill="white"/>
</g>
<g id="convergence_hall_2f_elevator_right">
<path d="M1415 1223C1415 1218.58 1418.58 1215 1423 1215H1477C1481.42 1215 1485 1218.58 1485 1223V1277C1485 1281.42 1481.42 1285 1477 1285H1423C1418.58 1285 1415 1281.42 1415 1277V1223Z" fill="#C4C4C4"/>
<path d="M1477 1282V1285H1423L1423 1282H1477ZM1482 1277V1223C1482 1220.24 1479.76 1218 1477 1218H1423C1420.24 1218 1418 1220.24 1418 1223V1277C1418 1279.76 1420.24 1282 1423 1282L1423 1285L1422.59 1284.99C1418.5 1284.78 1415.22 1281.5 1415.01 1277.41L1415 1277V1223C1415 1218.58 1418.58 1215 1423 1215H1477C1481.42 1215 1485 1218.58 1485 1223V1277C1485 1281.28 1481.64 1284.77 1477.41 1284.99L1477 1285V1282C1479.76 1282 1482 1279.76 1482 1277Z" fill="#2E2F33" fill-opacity="0.88"/>
<path d="M1460.62 1229.38H1439.38C1433.85 1229.38 1429.38 1233.85 1429.38 1239.38V1260.62C1429.38 1266.15 1433.85 1270.62 1439.38 1270.62H1460.62C1466.15 1270.62 1470.62 1266.15 1470.62 1260.62V1239.38C1470.62 1233.85 1466.15 1229.38 1460.62 1229.38ZM1451.02 1237.43H1452.17C1452.29 1237.43 1452.38 1237.34 1452.38 1237.23V1234.67C1452.38 1234.58 1452.46 1234.5 1452.56 1234.5H1454.45C1454.55 1234.5 1454.62 1234.58 1454.62 1234.67V1237.23C1454.62 1237.34 1454.72 1237.43 1454.83 1237.43H1455.99C1456.15 1237.43 1456.24 1237.63 1456.12 1237.75L1453.76 1240.11C1453.62 1240.25 1453.39 1240.25 1453.25 1240.11L1450.89 1237.75C1450.77 1237.63 1450.85 1237.43 1451.02 1237.43ZM1443.33 1236.96L1445.69 1234.6C1445.83 1234.46 1446.06 1234.46 1446.2 1234.6L1448.56 1236.96C1448.67 1237.08 1448.59 1237.28 1448.42 1237.28H1447.27C1447.15 1237.28 1447.06 1237.37 1447.06 1237.49V1240.04C1447.06 1240.14 1446.98 1240.22 1446.89 1240.22H1445C1444.9 1240.22 1444.82 1240.14 1444.82 1240.04V1237.49C1444.82 1237.37 1444.73 1237.28 1444.61 1237.28H1443.46C1443.29 1237.28 1443.21 1237.08 1443.33 1236.96ZM1465.29 1259.34C1465.29 1262.35 1462.84 1264.81 1459.82 1264.81H1440.18C1437.16 1264.81 1434.71 1262.35 1434.71 1259.34V1247.54C1434.71 1244.53 1437.16 1242.07 1440.18 1242.07H1459.82C1462.84 1242.07 1465.29 1244.53 1465.29 1247.54V1259.34Z" fill="#4592FB"/>
<path d="M1459.82 1243.04H1440.18C1437.69 1243.04 1435.68 1245.06 1435.68 1247.54V1259.34C1435.68 1261.82 1437.69 1263.84 1440.18 1263.84H1459.82C1462.3 1263.84 1464.32 1261.82 1464.32 1259.34V1247.54C1464.32 1245.06 1462.3 1243.04 1459.82 1243.04ZM1457.61 1245.93C1458.25 1245.93 1458.76 1246.44 1458.76 1247.08C1458.76 1247.71 1458.25 1248.22 1457.61 1248.22C1456.97 1248.22 1456.46 1247.71 1456.46 1247.08C1456.46 1246.44 1456.97 1245.93 1457.61 1245.93ZM1449.87 1245.93C1450.5 1245.93 1451.02 1246.44 1451.02 1247.08C1451.02 1247.71 1450.5 1248.22 1449.87 1248.22C1449.23 1248.22 1448.72 1247.71 1448.72 1247.08C1448.72 1246.44 1449.23 1245.93 1449.87 1245.93ZM1442.12 1245.93C1442.76 1245.93 1443.27 1246.44 1443.27 1247.08C1443.27 1247.71 1442.76 1248.22 1442.12 1248.22C1441.49 1248.22 1440.97 1247.71 1440.97 1247.08C1440.97 1246.44 1441.49 1245.93 1442.12 1245.93ZM1445.45 1254.08C1445.45 1254.44 1445.16 1254.73 1444.8 1254.73C1444.44 1254.73 1444.15 1254.44 1444.15 1254.08V1250.66H1443.81V1260.08C1443.81 1260.48 1443.49 1260.8 1443.1 1260.8C1442.7 1260.8 1442.38 1260.48 1442.38 1260.08V1254.67H1441.86V1260.08C1441.86 1260.48 1441.54 1260.8 1441.15 1260.8C1440.75 1260.8 1440.43 1260.48 1440.43 1260.08V1250.66H1440V1254.08C1440 1254.44 1439.7 1254.73 1439.34 1254.73C1438.98 1254.73 1438.69 1254.44 1438.69 1254.08V1250.05C1438.69 1249.33 1439.27 1248.75 1440 1248.75H1444.15C1444.87 1248.75 1445.45 1249.33 1445.45 1250.05V1254.08H1445.45ZM1453.2 1254.08C1453.2 1254.44 1452.91 1254.73 1452.55 1254.73C1452.19 1254.73 1451.89 1254.44 1451.89 1254.08V1250.66H1451.55V1260.08C1451.55 1260.48 1451.23 1260.8 1450.84 1260.8C1450.45 1260.8 1450.13 1260.48 1450.13 1260.08V1254.67H1449.6V1260.08C1449.6 1260.48 1449.28 1260.8 1448.89 1260.8C1448.5 1260.8 1448.18 1260.48 1448.18 1260.08V1250.66H1447.74V1254.08C1447.74 1254.44 1447.45 1254.73 1447.09 1254.73C1446.73 1254.73 1446.44 1254.44 1446.44 1254.08V1250.05C1446.44 1249.33 1447.02 1248.75 1447.74 1248.75H1451.89C1452.61 1248.75 1453.2 1249.33 1453.2 1250.05L1453.2 1254.08ZM1460.94 1254.08C1460.94 1254.44 1460.65 1254.73 1460.29 1254.73C1459.93 1254.73 1459.64 1254.44 1459.64 1254.08V1250.66H1459.3V1260.08C1459.3 1260.48 1458.98 1260.8 1458.58 1260.8C1458.19 1260.8 1457.87 1260.48 1457.87 1260.08V1254.67H1457.35V1260.08C1457.35 1260.48 1457.03 1260.8 1456.63 1260.8C1456.24 1260.8 1455.92 1260.48 1455.92 1260.08V1250.66H1455.48V1254.08C1455.48 1254.44 1455.19 1254.73 1454.83 1254.73C1454.47 1254.73 1454.18 1254.44 1454.18 1254.08V1250.05C1454.18 1249.33 1454.76 1248.75 1455.48 1248.75H1459.64C1460.36 1248.75 1460.94 1249.33 1460.94 1250.05V1254.08H1460.94Z" fill="#4592FB"/>
<path d="M1449.87 1248.22C1450.5 1248.22 1451.02 1247.71 1451.02 1247.08C1451.02 1246.44 1450.5 1245.93 1449.87 1245.93C1449.23 1245.93 1448.72 1246.44 1448.72 1247.08C1448.72 1247.71 1449.23 1248.22 1449.87 1248.22Z" fill="white"/>
<path d="M1442.12 1248.22C1442.76 1248.22 1443.27 1247.71 1443.27 1247.08C1443.27 1246.44 1442.76 1245.93 1442.12 1245.93C1441.49 1245.93 1440.97 1246.44 1440.97 1247.08C1440.97 1247.71 1441.49 1248.22 1442.12 1248.22Z" fill="white"/>
<path d="M1457.61 1248.22C1458.25 1248.22 1458.76 1247.71 1458.76 1247.08C1458.76 1246.44 1458.25 1245.93 1457.61 1245.93C1456.97 1245.93 1456.46 1246.44 1456.46 1247.08C1456.46 1247.71 1456.97 1248.22 1457.61 1248.22Z" fill="white"/>
<path d="M1459.83 1242.08H1440.18C1437.16 1242.08 1434.71 1244.53 1434.71 1247.54V1259.34C1434.71 1262.35 1437.16 1264.81 1440.18 1264.81H1459.83C1462.84 1264.81 1465.29 1262.35 1465.29 1259.34V1247.54C1465.29 1244.53 1462.84 1242.08 1459.83 1242.08ZM1464.33 1259.34C1464.33 1261.82 1462.3 1263.84 1459.83 1263.84H1440.18C1437.7 1263.84 1435.67 1261.82 1435.67 1259.34V1247.54C1435.67 1245.06 1437.7 1243.04 1440.18 1243.04H1459.83C1462.3 1243.04 1464.33 1245.06 1464.33 1247.54V1259.34Z" fill="white"/>
<path d="M1460.94 1250.05V1254.08C1460.94 1254.44 1460.65 1254.74 1460.29 1254.74C1459.92 1254.74 1459.64 1254.44 1459.64 1254.08V1250.66L1459.3 1250.66V1260.09C1459.3 1260.47 1458.98 1260.8 1458.59 1260.8C1458.19 1260.8 1457.88 1260.47 1457.88 1260.09V1254.66H1457.35V1260.09C1457.35 1260.47 1457.02 1260.8 1456.64 1260.8C1456.24 1260.8 1455.92 1260.47 1455.92 1260.09V1250.66H1455.49V1254.08C1455.49 1254.44 1455.19 1254.74 1454.84 1254.74C1454.48 1254.74 1454.17 1254.44 1454.17 1254.08V1250.05C1454.17 1249.33 1454.76 1248.75 1455.49 1248.75H1459.64C1460.36 1248.75 1460.94 1249.33 1460.94 1250.05Z" fill="white"/>
<path d="M1445.45 1250.05V1254.08C1445.45 1254.44 1445.16 1254.74 1444.8 1254.74C1444.44 1254.74 1444.15 1254.44 1444.15 1254.08V1250.66L1443.81 1250.66V1260.09C1443.81 1260.47 1443.49 1260.8 1443.1 1260.8C1442.7 1260.8 1442.39 1260.47 1442.39 1260.09V1254.66H1441.86V1260.09C1441.86 1260.47 1441.54 1260.8 1441.15 1260.8C1440.75 1260.8 1440.44 1260.47 1440.44 1260.09V1250.66H1440V1254.08C1440 1254.44 1439.7 1254.74 1439.35 1254.74C1438.99 1254.74 1438.69 1254.44 1438.69 1254.08V1250.05C1438.69 1249.33 1439.27 1248.75 1440 1248.75H1444.15C1444.88 1248.75 1445.45 1249.33 1445.45 1250.05Z" fill="white"/>
<path d="M1453.2 1250.05V1254.08C1453.2 1254.44 1452.91 1254.74 1452.55 1254.74C1452.19 1254.74 1451.9 1254.44 1451.9 1254.08V1250.66H1451.55V1260.09C1451.55 1260.47 1451.24 1260.8 1450.84 1260.8C1450.45 1260.8 1450.12 1260.47 1450.12 1260.09V1254.66H1449.6V1260.09C1449.6 1260.47 1449.29 1260.8 1448.89 1260.8C1448.5 1260.8 1448.17 1260.47 1448.17 1260.09V1250.66H1447.74V1254.08C1447.74 1254.44 1447.45 1254.74 1447.09 1254.74C1446.72 1254.74 1446.44 1254.44 1446.44 1254.08V1250.05C1446.44 1249.33 1447.02 1248.75 1447.74 1248.75H1451.9C1452.61 1248.75 1453.2 1249.33 1453.2 1250.05Z" fill="white"/>
<path d="M1443.46 1237.28H1444.61C1444.73 1237.28 1444.82 1237.37 1444.82 1237.49V1240.04C1444.82 1240.14 1444.9 1240.22 1445 1240.22H1446.89C1446.99 1240.22 1447.06 1240.14 1447.06 1240.04V1237.49C1447.06 1237.37 1447.16 1237.28 1447.27 1237.28H1448.42C1448.59 1237.28 1448.67 1237.08 1448.56 1236.96L1446.2 1234.61C1446.06 1234.46 1445.83 1234.46 1445.69 1234.61L1443.33 1236.96C1443.21 1237.08 1443.29 1237.28 1443.46 1237.28Z" fill="white"/>
<path d="M1453.25 1240.11C1453.39 1240.25 1453.62 1240.25 1453.76 1240.11L1456.11 1237.75C1456.23 1237.63 1456.15 1237.43 1455.98 1237.43H1454.83C1454.71 1237.43 1454.62 1237.34 1454.62 1237.23V1234.67C1454.62 1234.58 1454.54 1234.5 1454.45 1234.5H1452.56C1452.46 1234.5 1452.38 1234.58 1452.38 1234.67V1237.23C1452.38 1237.34 1452.29 1237.43 1452.17 1237.43H1451.02C1450.85 1237.43 1450.77 1237.63 1450.89 1237.75L1453.25 1240.11Z" fill="white"/>
</g>
<g id="convergence_hall_2f_gate_terrace">
<path d="M1289 1536C1289 1556.43 1272.43 1573 1252 1573C1231.57 1573 1215 1556.43 1215 1536C1215 1515.57 1231.57 1499 1252 1499C1272.43 1499 1289 1515.57 1289 1536Z" fill="#B1A4FF"/>
<path d="M1286 1536C1286 1517.22 1270.78 1502 1252 1502C1233.22 1502 1218 1517.22 1218 1536C1218 1554.78 1233.22 1570 1252 1570V1573C1231.57 1573 1215 1556.43 1215 1536C1215 1515.57 1231.57 1499 1252 1499C1272.43 1499 1289 1515.57 1289 1536C1289 1556.43 1272.43 1573 1252 1573V1570C1270.78 1570 1286 1554.78 1286 1536Z" fill="#2E2F33" fill-opacity="0.88"/>
<path d="M1260.13 1517.37H1243.89C1241.65 1517.37 1239.84 1519.19 1239.84 1521.42V1550.59C1239.84 1552.82 1241.65 1554.63 1243.89 1554.63H1260.13C1262.36 1554.63 1264.17 1552.82 1264.17 1550.59V1521.42C1264.17 1519.19 1262.36 1517.37 1260.13 1517.37Z" fill="#5E403B"/>
<path d="M1258.6 1538.89C1260.2 1538.89 1261.49 1537.6 1261.49 1536C1261.49 1534.41 1260.2 1533.11 1258.6 1533.11C1257 1533.11 1255.71 1534.41 1255.71 1536C1255.71 1537.6 1257 1538.89 1258.6 1538.89Z" fill="#FFDE57"/>
<path d="M1258.6 1537.14C1259.23 1537.14 1259.73 1536.63 1259.73 1536C1259.73 1535.38 1259.23 1534.87 1258.6 1534.87C1257.97 1534.87 1257.47 1535.38 1257.47 1536C1257.47 1536.63 1257.97 1537.14 1258.6 1537.14Z" fill="#CB8C00"/>
<path d="M1258.6 1534.87H1253.79C1253.16 1534.87 1252.66 1535.38 1252.66 1536C1252.66 1536.63 1253.16 1537.14 1253.79 1537.14H1258.6C1259.23 1537.14 1259.73 1536.63 1259.73 1536C1259.73 1535.38 1259.23 1534.87 1258.6 1534.87Z" fill="#CB8C00"/>
</g>
<g id="convergence_hall_2f_gate_changjo">
<path d="M1667 977C1667 997.435 1650.43 1014 1630 1014C1609.57 1014 1593 997.435 1593 977C1593 956.565 1609.57 940 1630 940C1650.43 940 1667 956.565 1667 977Z" fill="#B1A4FF"/>
<path d="M1664 977C1664 958.222 1648.78 943 1630 943C1611.22 943 1596 958.222 1596 977C1596 995.778 1611.22 1011 1630 1011V1014C1609.57 1014 1593 997.435 1593 977C1593 956.565 1609.57 940 1630 940C1650.43 940 1667 956.565 1667 977C1667 997.435 1650.43 1014 1630 1014V1011C1648.78 1011 1664 995.778 1664 977Z" fill="#2E2F33" fill-opacity="0.88"/>
<path d="M1638.13 958.375H1621.89C1619.65 958.375 1617.84 960.186 1617.84 962.42V991.586C1617.84 993.82 1619.65 995.631 1621.89 995.631H1638.13C1640.36 995.631 1642.17 993.82 1642.17 991.586V962.42C1642.17 960.186 1640.36 958.375 1638.13 958.375Z" fill="#5E403B"/>
<path d="M1636.6 979.894C1638.2 979.894 1639.49 978.599 1639.49 977.002C1639.49 975.406 1638.2 974.111 1636.6 974.111C1635 974.111 1633.71 975.406 1633.71 977.002C1633.71 978.599 1635 979.894 1636.6 979.894Z" fill="#FFDE57"/>
<path d="M1636.6 978.136C1637.23 978.136 1637.73 977.628 1637.73 977.002C1637.73 976.377 1637.23 975.869 1636.6 975.869C1635.97 975.869 1635.47 976.377 1635.47 977.002C1635.47 977.628 1635.97 978.136 1636.6 978.136Z" fill="#CB8C00"/>
<path d="M1636.6 975.873H1631.79C1631.16 975.873 1630.66 976.38 1630.66 977.005C1630.66 977.629 1631.16 978.136 1631.79 978.136H1636.6C1637.23 978.136 1637.73 977.629 1637.73 977.005C1637.73 976.38 1637.23 975.873 1636.6 975.873Z" fill="#CB8C00"/>
</g>
<g id="convergence_hall_2f_gate_cheongsong">
<path d="M686 456C686 476.435 669.435 493 649 493C628.565 493 612 476.435 612 456C612 435.565 628.565 419 649 419C669.435 419 686 435.565 686 456Z" fill="#B1A4FF"/>
<path d="M683 456C683 437.222 667.778 422 649 422C630.222 422 615 437.222 615 456C615 474.778 630.222 490 649 490V493C628.565 493 612 476.435 612 456C612 435.565 628.565 419 649 419C669.435 419 686 435.565 686 456C686 476.435 669.435 493 649 493V490C667.778 490 683 474.778 683 456Z" fill="#2E2F33" fill-opacity="0.88"/>
<path d="M657.125 437.375H640.888C638.653 437.375 636.842 439.186 636.842 441.42V470.586C636.842 472.82 638.653 474.631 640.888 474.631H657.125C659.359 474.631 661.171 472.82 661.171 470.586V441.42C661.171 439.186 659.359 437.375 657.125 437.375Z" fill="#5E403B"/>
<path d="M655.601 458.894C657.197 458.894 658.492 457.599 658.492 456.002C658.492 454.406 657.197 453.111 655.601 453.111C654.004 453.111 652.709 454.406 652.709 456.002C652.709 457.599 654.004 458.894 655.601 458.894Z" fill="#FFDE57"/>
<path d="M655.601 457.136C656.226 457.136 656.734 456.628 656.734 456.002C656.734 455.377 656.226 454.869 655.601 454.869C654.975 454.869 654.467 455.377 654.467 456.002C654.467 456.628 654.975 457.136 655.601 457.136Z" fill="#CB8C00"/>
<path d="M655.603 454.873H650.789C650.165 454.873 649.658 455.38 649.658 456.005C649.658 456.629 650.165 457.136 650.789 457.136H655.603C656.227 457.136 656.734 456.629 656.734 456.005C656.734 455.38 656.227 454.873 655.603 454.873Z" fill="#CB8C00"/>
</g>
<g id="convergence_hall_204">
<path d="M468 702C468 697.582 471.582 694 476 694H601C605.418 694 609 697.582 609 702V922C609 926.418 605.418 930 601 930H476C471.582 930 468 926.418 468 922V702Z" fill="#F7FBFF"/>
<path d="M601 927V930H476L476 927H601ZM606 922V702C606 699.239 603.761 697 601 697H476C473.239 697 471 699.239 471 702V922C471 924.761 473.239 927 476 927L476 930C471.72 930 468.225 926.639 468.011 922.412L468 922V702C468 697.72 471.361 694.225 475.588 694.011L476 694H601L601.412 694.011C605.639 694.225 609 697.72 609 702V922C609 926.418 605.418 930 601 930V927C603.761 927 606 924.761 606 922Z" fill="#2E2F33" fill-opacity="0.88"/>
<path d="M549.188 818.781V815.531L558.969 800.375H564.031V815.438H567V818.781H564.031V823H560.156V818.781H549.188ZM553.344 815.438H560.219V805H559.969L553.344 815.281V815.438Z" fill="black"/>
<path d="M537.5 823.312C532.062 823.312 528.812 819.094 528.812 811.688C528.812 804.312 532.062 800.062 537.5 800.062C542.906 800.062 546.188 804.312 546.188 811.688C546.188 819.094 542.938 823.312 537.5 823.312ZM537.5 819.906C540.344 819.906 542.094 817.125 542.094 811.688C542.094 806.281 540.312 803.438 537.5 803.438C534.688 803.438 532.906 806.281 532.906 811.688C532.906 817.125 534.656 819.906 537.5 819.906Z" fill="black"/>
<path d="M509.875 823V820.062L517.875 812.344C520.156 810.062 521.344 808.719 521.344 806.812C521.344 804.719 519.688 803.375 517.469 803.375C515.125 803.375 513.625 804.844 513.656 807.125H509.781C509.75 802.844 512.969 800.062 517.5 800.062C522.125 800.062 525.25 802.812 525.25 806.625C525.25 809.188 524 811.25 519.563 815.438L515.531 819.438V819.594H525.594V823H509.875Z" fill="black"/>
</g>
</g>
</svg>
