<svg width="2520" height="1145" viewBox="0 0 2520 1145" fill="none" xmlns="http://www.w3.org/2000/svg">
<g id="mirae_hall_floor_2">
<g id="Vector">
<path d="M1098 434.5V483H989.5V713H1098V818H1327V634H1340.5V293.5H1098V434.5Z" fill="#474747"/>
<path d="M1327 818H1098H989.5V1058.5H1865V949.5H2012.5V1141.5H2299.5V889H2517V706H2434V209.5H2011.5V634H1340.5H1327V818Z" fill="#999999"/>
<path d="M1098 293.5H1340.5V3H3V434.5H1098V293.5Z" fill="#999999"/>
<path d="M2437 206.5V703H2520V892H2302.5V1144.5H2009.5V952.5H1868V1061.5H986.5V815H1095V716H986.5V480H1095V437.5H0V0H1343.5V631H2008.5V206.5H2437ZM1101 486H992.5V710H1101V815H1324V631H1337.5V296.5H1101V486ZM2014.5 637H1330V821H992.5V1055.5H1862V946.5H2015.5V1138.5H2296.5V886H2514V709H2431V212.5H2014.5V637ZM6 431.5H1095V290.5H1337.5V6H6V431.5Z" fill="black"/>
</g>
<g id="Vector_2">
<path d="M1267 14C1267 9.58172 1270.58 6 1275 6H1330C1334.42 6 1338 9.58172 1338 14V125C1338 129.418 1334.42 133 1330 133H1275C1270.58 133 1267 129.418 1267 125V14Z" fill="#474747"/>
<path d="M1330 130V133H1275L1275 130H1330ZM1335 125V14C1335 11.2386 1332.76 9 1330 9H1275C1272.24 9 1270 11.2386 1270 14V125C1270 127.761 1272.24 130 1275 130L1275 133C1270.58 133 1267 129.418 1267 125V14C1267 9.58172 1270.58 6 1275 6H1330L1330.41 6.01074C1334.64 6.22523 1338 9.71994 1338 14V125C1338 129.418 1334.42 133 1330 133V130C1332.76 130 1335 127.761 1335 125Z" fill="#2E2F33" fill-opacity="0.88"/>
</g>
<g id="Vector_3">
<path d="M1204 244C1204 239.582 1207.58 236 1212 236H1330C1334.42 236 1338 239.582 1338 244V252C1338 256.418 1334.42 260 1330 260H1212C1207.58 260 1204 256.418 1204 252V244Z" fill="#474747"/>
<path d="M1330 257V260H1212L1212 257H1330ZM1335 252V244C1335 241.239 1332.76 239 1330 239H1212C1209.24 239 1207 241.239 1207 244V252C1207 254.761 1209.24 257 1212 257L1212 260C1207.58 260 1204 256.418 1204 252V244C1204 239.582 1207.58 236 1212 236H1330C1334.42 236 1338 239.582 1338 244V252C1338 256.418 1334.42 260 1330 260V257C1332.76 257 1335 254.761 1335 252Z" fill="#2E2F33" fill-opacity="0.88"/>
</g>
<g id="Vector_4">
<path d="M1204 14C1204 9.58172 1207.58 6 1212 6H1262C1266.42 6 1270 9.58172 1270 14V62C1270 66.4183 1266.42 70 1262 70H1212C1207.58 70 1204 66.4183 1204 62V14Z" fill="#474747"/>
<path d="M1262 67V70H1212V67H1262ZM1267 62V14C1267 11.2386 1264.76 9 1262 9H1212C1209.24 9 1207 11.2386 1207 14V62C1207 64.7614 1209.24 67 1212 67V70C1207.58 70 1204 66.4183 1204 62V14C1204 9.58172 1207.58 6 1212 6H1262C1266.42 6 1270 9.58172 1270 14V62C1270 66.4183 1266.42 70 1262 70V67C1264.76 67 1267 64.7614 1267 62Z" fill="#2E2F33" fill-opacity="0.88"/>
</g>
<g id="Vector_5">
<path d="M992 983C992 978.582 995.582 975 1000 975H1026C1030.42 975 1034 978.582 1034 983V1047C1034 1051.42 1030.42 1055 1026 1055H1000C995.582 1055 992 1051.42 992 1047V983Z" fill="#474747"/>
<path d="M1026 1052V1055H1000L1000 1052H1026ZM1031 1047V983C1031 980.239 1028.76 978 1026 978H1000C997.239 978 995 980.239 995 983V1047C995 1049.76 997.239 1052 1000 1052L1000 1055L999.588 1054.99C995.361 1054.77 992 1051.28 992 1047V983C992 978.582 995.582 975 1000 975H1026C1030.42 975 1034 978.582 1034 983V1047C1034 1051.42 1030.42 1055 1026 1055V1052C1028.76 1052 1031 1049.76 1031 1047Z" fill="#2E2F33" fill-opacity="0.88"/>
</g>
<g id="mirae_hall_2f_stairs_left">
<path d="M6 299C6 294.582 9.58172 291 14 291H93C97.4183 291 101 294.582 101 299V424C101 428.418 97.4183 432 93 432H14C9.58172 432 6 428.418 6 424V299Z" fill="#D9FFE6"/>
<path d="M93 429V432H14L14 429H93ZM98 424V299C98 296.239 95.7614 294 93 294H14C11.2386 294 9 296.239 9 299V424C9 426.761 11.2386 429 14 429L14 432L13.5879 431.989C9.36114 431.775 6 428.28 6 424V299C6 294.582 9.58172 291 14 291H93C97.4183 291 101 294.582 101 299V424C101 428.418 97.4183 432 93 432V429C95.7614 429 98 426.761 98 424Z" fill="#2E2F33" fill-opacity="0.88"/>
<path d="M76.94 334.634C75.8915 334.247 74.7275 334.787 74.3405 335.836L70.58 346.056H49.2815L52.805 337.29C53.222 336.252 52.7195 335.071 51.6815 334.654C50.6435 334.237 49.4645 334.743 49.0475 335.778L29.432 384.581C29.015 385.619 29.5175 386.8 30.5555 387.217C30.803 387.316 31.058 387.364 31.31 387.364C32.1125 387.364 32.873 386.884 33.1895 386.093L37.2185 376.071C37.3055 376.083 37.382 376.121 37.472 376.121H59.519L56.3855 384.64C56 385.688 56.537 386.854 57.587 387.238C57.818 387.324 58.055 387.364 58.286 387.364C59.1095 387.364 59.885 386.855 60.1865 386.036L78.1415 337.233C78.527 336.184 77.99 335.018 76.94 334.634ZM48.074 350.104H69.089L65.849 358.91H44.114L47.6855 350.026C47.816 350.052 47.936 350.104 48.074 350.104ZM38.825 372.072L42.5105 362.903C42.6065 362.917 42.6935 362.961 42.794 362.961H64.361L61.0085 372.072H38.825Z" fill="#6E4944"/>
</g>
<g id="mirae_hall_2f_stairs_left_main">
<path d="M1204 138C1204 133.582 1207.58 130 1212 130H1330C1334.42 130 1338 133.582 1338 138V231C1338 235.418 1334.42 239 1330 239H1212C1207.58 239 1204 235.418 1204 231V138Z" fill="#D9FFE6"/>
<path d="M1330 236V239H1212L1212 236H1330ZM1335 231V138C1335 135.239 1332.76 133 1330 133H1212C1209.24 133 1207 135.239 1207 138V231C1207 233.761 1209.24 236 1212 236L1212 239C1207.58 239 1204 235.418 1204 231V138C1204 133.582 1207.58 130 1212 130H1330C1334.42 130 1338 133.582 1338 138V231C1338 235.418 1334.42 239 1330 239V236C1332.76 236 1335 233.761 1335 231Z" fill="#2E2F33" fill-opacity="0.88"/>
<path d="M1294.94 157.635C1293.89 157.248 1292.73 157.788 1292.34 158.836L1288.58 169.056H1267.28L1270.81 160.289C1271.22 159.251 1270.72 158.071 1269.68 157.654C1268.64 157.237 1267.46 157.743 1267.05 158.778L1247.43 207.581C1247.01 208.619 1247.52 209.8 1248.56 210.217C1248.8 210.316 1249.06 210.364 1249.31 210.364C1250.11 210.364 1250.87 209.884 1251.19 209.093L1255.22 199.071C1255.31 199.083 1255.38 199.121 1255.47 199.121H1277.52L1274.39 207.64C1274 208.688 1274.54 209.854 1275.59 210.238C1275.82 210.324 1276.06 210.364 1276.29 210.364C1277.11 210.364 1277.89 209.855 1278.19 209.036L1296.14 160.233C1296.53 159.184 1295.99 158.019 1294.94 157.635ZM1266.07 173.104H1287.09L1283.85 181.91H1262.11L1265.69 173.026C1265.82 173.052 1265.94 173.104 1266.07 173.104ZM1256.83 195.072L1260.51 185.903C1260.61 185.917 1260.69 185.96 1260.79 185.96H1282.36L1279.01 195.072H1256.83Z" fill="#6E4944"/>
</g>
<g id="mirae_hall_2f_stairs_right_main">
<path d="M992 829C992 824.582 995.582 821 1000 821H1095C1099.42 821 1103 824.582 1103 829V970C1103 974.418 1099.42 978 1095 978H1000C995.582 978 992 974.418 992 970V829Z" fill="#D9FFE6"/>
<path d="M1095 975V978H1000L1000 975H1095ZM1100 970V829C1100 826.239 1097.76 824 1095 824H1000C997.239 824 995 826.239 995 829V970C995 972.761 997.239 975 1000 975L1000 978C995.582 978 992 974.418 992 970V829C992 824.582 995.582 821 1000 821H1095C1099.42 821 1103 824.582 1103 829V970C1103 974.418 1099.42 978 1095 978V975C1097.76 975 1100 972.761 1100 970Z" fill="#2E2F33" fill-opacity="0.88"/>
<path d="M1070.94 872.634C1069.89 872.247 1068.73 872.787 1068.34 873.836L1064.58 884.056H1043.28L1046.81 875.29C1047.22 874.252 1046.72 873.071 1045.68 872.654C1044.64 872.237 1043.46 872.743 1043.05 873.778L1023.43 922.581C1023.02 923.619 1023.52 924.8 1024.56 925.217C1024.8 925.316 1025.06 925.364 1025.31 925.364C1026.11 925.364 1026.87 924.884 1027.19 924.093L1031.22 914.071C1031.31 914.083 1031.38 914.121 1031.47 914.121H1053.52L1050.39 922.64C1050 923.688 1050.54 924.854 1051.59 925.238C1051.82 925.324 1052.06 925.364 1052.29 925.364C1053.11 925.364 1053.89 924.855 1054.19 924.036L1072.14 875.233C1072.53 874.184 1071.99 873.018 1070.94 872.634ZM1042.07 888.104H1063.09L1059.85 896.91H1038.11L1041.69 888.026C1041.82 888.051 1041.94 888.104 1042.07 888.104ZM1032.83 910.072L1036.51 900.903C1036.61 900.917 1036.69 900.961 1036.79 900.961H1058.36L1055.01 910.072H1032.83Z" fill="#6E4944"/>
</g>
<g id="mirae_hall_2f_stairs">
<path d="M2428 717C2428 712.582 2431.58 709 2436 709H2506C2510.42 709 2514 712.582 2514 717V878C2514 882.418 2510.42 886 2506 886H2436C2431.58 886 2428 882.418 2428 878V717Z" fill="#D9FFE6"/>
<path d="M2506 883V886H2436L2436 883H2506ZM2511 878V717C2511 714.239 2508.76 712 2506 712H2436C2433.24 712 2431 714.239 2431 717V878C2431 880.761 2433.24 883 2436 883L2436 886L2435.59 885.989C2431.36 885.775 2428 882.28 2428 878V717C2428 712.582 2431.58 709 2436 709H2506C2510.42 709 2514 712.582 2514 717V878C2514 882.418 2510.42 886 2506 886V883C2508.76 883 2511 880.761 2511 878Z" fill="#2E2F33" fill-opacity="0.88"/>
<path d="M2494.94 770.634C2493.89 770.247 2492.73 770.787 2492.34 771.836L2488.58 782.055H2467.28L2470.81 773.289C2471.22 772.251 2470.72 771.071 2469.68 770.654C2468.64 770.237 2467.46 770.743 2467.05 771.778L2447.43 820.581C2447.02 821.619 2447.52 822.8 2448.56 823.217C2448.8 823.316 2449.06 823.364 2449.31 823.364C2450.11 823.364 2450.87 822.884 2451.19 822.093L2455.22 812.071C2455.31 812.083 2455.38 812.121 2455.47 812.121H2477.52L2474.39 820.64C2474 821.688 2474.54 822.854 2475.59 823.238C2475.82 823.324 2476.06 823.364 2476.29 823.364C2477.11 823.364 2477.89 822.855 2478.19 822.036L2496.14 773.232C2496.53 772.184 2495.99 771.018 2494.94 770.634ZM2466.07 786.104H2487.09L2483.85 794.91H2462.11L2465.69 786.026C2465.82 786.051 2465.94 786.104 2466.07 786.104ZM2456.83 808.072L2460.51 798.903C2460.61 798.917 2460.69 798.961 2460.79 798.961H2482.36L2479.01 808.072H2456.83Z" fill="#6E4944"/>
</g>
<g id="mirae_hall_2f_toilet_left_girl">
<path d="M902 14C902 9.58172 905.582 6 910 6H1096C1100.42 6 1104 9.58172 1104 14V122C1104 126.418 1100.42 130 1096 130H910C905.582 130 902 126.418 902 122V14Z" fill="#FED9C4"/>
<path d="M1096 127V130H910L910 127H1096ZM1101 122V14C1101 11.2386 1098.76 9 1096 9H910C907.239 9 905 11.2386 905 14V122C905 124.761 907.239 127 910 127L910 130L909.588 129.989C905.361 129.775 902 126.28 902 122V14C902 9.58172 905.582 6 910 6H1096C1100.42 6 1104 9.58172 1104 14V122C1104 126.418 1100.42 130 1096 130V127C1098.76 127 1101 124.761 1101 122Z" fill="#2E2F33" fill-opacity="0.88"/>
<path d="M1015.75 43.25H990.25C983.623 43.25 978.25 48.6226 978.25 55.25V80.75C978.25 87.3774 983.623 92.75 990.25 92.75H1015.75C1022.38 92.75 1027.75 87.3774 1027.75 80.75V55.25C1027.75 48.6226 1022.38 43.25 1015.75 43.25Z" fill="#E76D6D"/>
<path d="M1000.27 65.9765L994.809 78.524C993.953 80.4875 995.392 82.685 997.534 82.685H1008.46C1010.61 82.685 1012.05 80.4875 1011.19 78.524L1005.72 65.9765C1004.69 63.5945 1001.31 63.5945 1000.27 65.9765H1000.27Z" fill="white"/>
<path d="M1003 61.3805C1005.23 61.3805 1007.03 59.5753 1007.03 57.3485C1007.03 55.1217 1005.23 53.3165 1003 53.3165C1000.77 53.3165 998.968 55.1217 998.968 57.3485C998.968 59.5753 1000.77 61.3805 1003 61.3805Z" fill="white"/>
</g>
<g id="mirae_hall_2f_toilet_right_girl">
<path d="M1155 887C1155 882.582 1158.58 879 1163 879H1333C1337.42 879 1341 882.582 1341 887V963C1341 967.418 1337.42 971 1333 971H1163C1158.58 971 1155 967.418 1155 963V887Z" fill="#FED9C4"/>
<path d="M1333 968V971H1163L1163 968H1333ZM1338 963V887C1338 884.239 1335.76 882 1333 882H1163C1160.24 882 1158 884.239 1158 887V963C1158 965.761 1160.24 968 1163 968L1163 971C1158.58 971 1155 967.418 1155 963V887C1155 882.582 1158.58 879 1163 879H1333C1337.42 879 1341 882.582 1341 887V963C1341 967.418 1337.42 971 1333 971V968C1335.76 968 1338 965.761 1338 963Z" fill="#2E2F33" fill-opacity="0.88"/>
<path d="M1260.75 900.25H1235.25C1228.62 900.25 1223.25 905.623 1223.25 912.25V937.75C1223.25 944.377 1228.62 949.75 1235.25 949.75H1260.75C1267.38 949.75 1272.75 944.377 1272.75 937.75V912.25C1272.75 905.623 1267.38 900.25 1260.75 900.25Z" fill="#E76D6D"/>
<path d="M1245.27 922.976L1239.81 935.524C1238.95 937.488 1240.39 939.685 1242.53 939.685H1253.46C1255.61 939.685 1257.05 937.488 1256.19 935.524L1250.72 922.976C1249.69 920.594 1246.31 920.594 1245.27 922.976H1245.27Z" fill="white"/>
<path d="M1248 918.381C1250.23 918.381 1252.03 916.575 1252.03 914.348C1252.03 912.122 1250.23 910.317 1248 910.317C1245.77 910.317 1243.97 912.122 1243.97 914.348C1243.97 916.575 1245.77 918.381 1248 918.381Z" fill="white"/>
</g>
<g id="mirae_hall_2f_toilet_left_boy">
<path d="M902 135C902 130.582 905.582 127 910 127H1096C1100.42 127 1104 130.582 1104 135V235C1104 239.418 1100.42 243 1096 243H910C905.582 243 902 239.418 902 235V135Z" fill="#FED9C4"/>
<path d="M1096 240V243H910L910 240H1096ZM1101 235V135C1101 132.239 1098.76 130 1096 130H910C907.239 130 905 132.239 905 135V235C905 237.761 907.239 240 910 240L910 243L909.588 242.989C905.361 242.775 902 239.28 902 235V135C902 130.582 905.582 127 910 127H1096C1100.42 127 1104 130.582 1104 135V235C1104 239.418 1100.42 243 1096 243V240C1098.76 240 1101 237.761 1101 235Z" fill="#2E2F33" fill-opacity="0.88"/>
<path d="M1015.75 160.25H990.25C983.623 160.25 978.25 165.623 978.25 172.25V197.75C978.25 204.377 983.623 209.75 990.25 209.75H1015.75C1022.38 209.75 1027.75 204.377 1027.75 197.75V172.25C1027.75 165.623 1022.38 160.25 1015.75 160.25Z" fill="#3076D1"/>
<path d="M1005.73 197.889L1011.19 185.342C1012.05 183.378 1010.61 181.181 1008.47 181.181H997.535C995.394 181.181 993.953 183.378 994.81 185.342L1000.28 197.889C1001.31 200.271 1004.69 200.271 1005.73 197.889H1005.73Z" fill="white"/>
<path d="M1003 178.388C1005.23 178.388 1007.03 176.583 1007.03 174.356C1007.03 172.129 1005.23 170.324 1003 170.324C1000.77 170.324 998.968 172.129 998.968 174.356C998.968 176.583 1000.77 178.388 1003 178.388Z" fill="white"/>
</g>
<g id="mirae_hall_2f_toilet_right_boy">
<path d="M1155 976C1155 971.582 1158.58 968 1163 968H1333C1337.42 968 1341 971.582 1341 976V1047C1341 1051.42 1337.42 1055 1333 1055H1163C1158.58 1055 1155 1051.42 1155 1047V976Z" fill="#FED9C4"/>
<path d="M1333 1052V1055H1163L1163 1052H1333ZM1338 1047V976C1338 973.239 1335.76 971 1333 971H1163C1160.24 971 1158 973.239 1158 976V1047C1158 1049.76 1160.24 1052 1163 1052L1163 1055C1158.58 1055 1155 1051.42 1155 1047V976C1155 971.582 1158.58 968 1163 968H1333C1337.42 968 1341 971.582 1341 976V1047C1341 1051.42 1337.42 1055 1333 1055V1052C1335.76 1052 1338 1049.76 1338 1047Z" fill="#2E2F33" fill-opacity="0.88"/>
<path d="M1260.75 986.25H1235.25C1228.62 986.25 1223.25 991.623 1223.25 998.25V1023.75C1223.25 1030.38 1228.62 1035.75 1235.25 1035.75H1260.75C1267.38 1035.75 1272.75 1030.38 1272.75 1023.75V998.25C1272.75 991.623 1267.38 986.25 1260.75 986.25Z" fill="#3076D1"/>
<path d="M1250.73 1023.89L1256.19 1011.34C1257.05 1009.38 1255.61 1007.18 1253.47 1007.18H1242.54C1240.39 1007.18 1238.95 1009.38 1239.81 1011.34L1245.28 1023.89C1246.31 1026.27 1249.69 1026.27 1250.73 1023.89H1250.73Z" fill="white"/>
<path d="M1248 1004.39C1250.23 1004.39 1252.03 1002.58 1252.03 1000.36C1252.03 998.129 1250.23 996.324 1248 996.324C1245.77 996.324 1243.97 998.129 1243.97 1000.36C1243.97 1002.58 1245.77 1004.39 1248 1004.39Z" fill="white"/>
</g>
<g id="mirae_hall_211">
<path d="M6 14C6 9.58173 9.58172 6 14 6H154C158.418 6 162 9.58172 162 14V235C162 239.418 158.418 243 154 243H14C9.58172 243 6 239.418 6 235V14Z" fill="#F7FBFF"/>
<path d="M154 240V243H14L14 240H154ZM159 235V14C159 11.2386 156.761 9 154 9H14C11.2386 9 9 11.2386 9 14V235C9 237.761 11.2386 240 14 240L14 243L13.5879 242.989C9.36114 242.775 6 239.28 6 235V14C6 9.58173 9.58172 6 14 6H154C158.418 6 162 9.58172 162 14V235C162 239.418 158.418 243 154 243V240C156.761 240 159 237.761 159 235Z" fill="#2E2F33" fill-opacity="0.88"/>
<path d="M104.031 112.375V135H99.9375V116.344H99.8125L94.5312 119.719V116L100.125 112.375H104.031Z" fill="black"/>
<path d="M89.3438 112.375V135H85.25V116.344H85.125L79.8438 119.719V116L85.4375 112.375H89.3438Z" fill="black"/>
<path d="M60.875 135V132.062L68.875 124.344C71.1562 122.062 72.3438 120.719 72.3438 118.812C72.3438 116.719 70.6875 115.375 68.4688 115.375C66.125 115.375 64.625 116.844 64.6562 119.125H60.7812C60.75 114.844 63.9688 112.062 68.5 112.062C73.125 112.062 76.25 114.812 76.25 118.625C76.25 121.188 75 123.25 70.5625 127.438L66.5312 131.438V131.594H76.5938V135H60.875Z" fill="black"/>
</g>
<g id="mirae_hall_212">
<path d="M159 14C159 9.58173 162.582 6 167 6H324C328.418 6 332 9.58172 332 14V235C332 239.418 328.418 243 324 243H167C162.582 243 159 239.418 159 235V14Z" fill="#F7FBFF"/>
<path d="M324 240V243H167V240H324ZM329 235V14C329 11.2386 326.761 9 324 9H167C164.239 9 162 11.2386 162 14V235C162 237.761 164.239 240 167 240V243C162.582 243 159 239.418 159 235V14C159 9.58173 162.582 6 167 6H324C328.418 6 332 9.58172 332 14V235C332 239.418 328.418 243 324 243V240C326.761 240 329 237.761 329 235Z" fill="#2E2F33" fill-opacity="0.88"/>
<path d="M253.844 135V132.062L261.844 124.344C264.125 122.062 265.312 120.719 265.312 118.812C265.312 116.719 263.656 115.375 261.438 115.375C259.094 115.375 257.594 116.844 257.625 119.125H253.75C253.719 114.844 256.938 112.062 261.469 112.062C266.094 112.062 269.219 114.812 269.219 118.625C269.219 121.188 267.969 123.25 263.531 127.438L259.5 131.438V131.594H269.562V135H253.844Z" fill="black"/>
<path d="M248.344 112.375V135H244.25V116.344H244.125L238.844 119.719V116L244.438 112.375H248.344Z" fill="black"/>
<path d="M219.875 135V132.062L227.875 124.344C230.156 122.062 231.344 120.719 231.344 118.812C231.344 116.719 229.688 115.375 227.469 115.375C225.125 115.375 223.625 116.844 223.656 119.125H219.781C219.75 114.844 222.969 112.062 227.5 112.062C232.125 112.062 235.25 114.812 235.25 118.625C235.25 121.188 234 123.25 229.562 127.438L225.531 131.438V131.594H235.594V135H219.875Z" fill="black"/>
</g>
<g id="mirae_hall_214">
<path d="M329 14C329 9.58173 332.582 6 337 6H422C426.418 6 430 9.58172 430 14V235C430 239.418 426.418 243 422 243H337C332.582 243 329 239.418 329 235V14Z" fill="#F7FBFF"/>
<path d="M422 240V243H337L337 240H422ZM427 235V14C427 11.2386 424.761 9 422 9H337C334.239 9 332 11.2386 332 14V235C332 237.761 334.239 240 337 240L337 243L336.588 242.989C332.361 242.775 329 239.28 329 235V14C329 9.58173 332.582 6 337 6H422C426.418 6 430 9.58172 430 14V235C430 239.418 426.418 243 422 243V240C424.761 240 427 237.761 427 235Z" fill="#2E2F33" fill-opacity="0.88"/>
<path d="M387.438 130.781V127.531L397.219 112.375H402.281V127.438H405.25V130.781H402.281V135H398.406V130.781H387.438ZM391.594 127.438H398.469V117H398.219L391.594 127.281V127.438Z" fill="black"/>
<path d="M382.344 112.375V135H378.25V116.344H378.125L372.844 119.719V116L378.438 112.375H382.344Z" fill="black"/>
<path d="M353.875 135V132.062L361.875 124.344C364.156 122.062 365.344 120.719 365.344 118.812C365.344 116.719 363.688 115.375 361.469 115.375C359.125 115.375 357.625 116.844 357.656 119.125H353.781C353.75 114.844 356.969 112.062 361.5 112.062C366.125 112.062 369.25 114.812 369.25 118.625C369.25 121.188 368 123.25 363.563 127.438L359.531 131.438V131.594H369.594V135H353.875Z" fill="black"/>
</g>
<g id="mirae_hall_215">
<path d="M427 14C427 9.58173 430.582 6 435 6H516C520.418 6 524 9.58172 524 14V235C524 239.418 520.418 243 516 243H435C430.582 243 427 239.418 427 235V14Z" fill="#F7FBFF"/>
<path d="M516 240V243H435L435 240H516ZM521 235V14C521 11.2386 518.761 9 516 9H435C432.239 9 430 11.2386 430 14V235C430 237.761 432.239 240 435 240L435 243C430.582 243 427 239.418 427 235V14C427 9.71995 430.361 6.22523 434.588 6.01074L435 6H516C520.418 6 524 9.58172 524 14V235C524 239.418 520.418 243 516 243V240C518.761 240 521 237.761 521 235Z" fill="#2E2F33" fill-opacity="0.88"/>
<path d="M491.875 135.312C487.344 135.312 484.031 132.625 483.906 128.875H487.875C488 130.719 489.719 132.031 491.875 132.031C494.406 132.031 496.219 130.188 496.219 127.688C496.219 125.094 494.344 123.25 491.75 123.25C490 123.219 488.719 123.844 488 125.188H484.219L485.594 112.375H498.969V115.781H488.938L488.25 121.781H488.469C489.344 120.781 491 120.062 492.844 120.062C497.062 120.062 500.156 123.219 500.156 127.562C500.156 132.094 496.75 135.312 491.875 135.312Z" fill="black"/>
<path d="M478.344 112.375V135H474.25V116.344H474.125L468.844 119.719V116L474.438 112.375H478.344Z" fill="black"/>
<path d="M449.875 135V132.062L457.875 124.344C460.156 122.062 461.344 120.719 461.344 118.812C461.344 116.719 459.688 115.375 457.469 115.375C455.125 115.375 453.625 116.844 453.656 119.125H449.781C449.75 114.844 452.969 112.062 457.5 112.062C462.125 112.062 465.25 114.812 465.25 118.625C465.25 121.188 464 123.25 459.563 127.438L455.531 131.438V131.594H465.594V135H449.875Z" fill="black"/>
</g>
<g id="mirae_hall_216">
<path d="M521 14C521 9.58173 524.582 6 529 6H613C617.418 6 621 9.58172 621 14V235C621 239.418 617.418 243 613 243H529C524.582 243 521 239.418 521 235V14Z" fill="#F7FBFF"/>
<path d="M613 240V243H529L529 240H613ZM618 235V14C618 11.2386 615.761 9 613 9H529C526.239 9 524 11.2386 524 14V235C524 237.761 526.239 240 529 240L529 243L528.588 242.989C524.361 242.775 521 239.28 521 235V14C521 9.58173 524.582 6 529 6H613C617.418 6 621 9.58172 621 14V235C621 239.418 617.418 243 613 243V240C615.761 240 618 237.761 618 235Z" fill="#2E2F33" fill-opacity="0.88"/>
<path d="M587.312 135.312C582.906 135.281 578.469 132.656 578.5 124.312C578.5 116.562 582.031 112.062 587.562 112.062C591.937 112.062 594.937 114.812 595.437 118.469H591.406C591 116.75 589.625 115.594 587.562 115.594C584.281 115.594 582.437 118.5 582.437 123.25H582.656C583.812 121.312 586 120.156 588.469 120.156C592.531 120.156 595.656 123.219 595.656 127.5C595.656 132 592.312 135.344 587.312 135.312ZM587.312 132.031C589.844 132.031 591.719 130.062 591.719 127.594C591.719 125.188 589.875 123.25 587.375 123.25C584.844 123.25 582.906 125.25 582.875 127.625C582.906 130 584.75 132.031 587.312 132.031Z" fill="black"/>
<path d="M573.344 112.375V135H569.25V116.344H569.125L563.844 119.719V116L569.438 112.375H573.344Z" fill="black"/>
<path d="M544.875 135V132.062L552.875 124.344C555.156 122.062 556.344 120.719 556.344 118.812C556.344 116.719 554.687 115.375 552.469 115.375C550.125 115.375 548.625 116.844 548.656 119.125H544.781C544.75 114.844 547.969 112.062 552.5 112.062C557.125 112.062 560.25 114.812 560.25 118.625C560.25 121.188 559 123.25 554.562 127.438L550.531 131.438V131.594H560.594V135H544.875Z" fill="black"/>
</g>
<g id="mirae_hall_217">
<path d="M618 14C618 9.58173 621.582 6 626 6H708C712.418 6 716 9.58172 716 14V235C716 239.418 712.418 243 708 243H626C621.582 243 618 239.418 618 235V14Z" fill="#F7FBFF"/>
<path d="M708 240V243H626L626 240H708ZM713 235V14C713 11.2386 710.761 9 708 9H626C623.239 9 621 11.2386 621 14V235C621 237.761 623.239 240 626 240L626 243C621.582 243 618 239.418 618 235V14C618 9.58173 621.582 6 626 6H708C712.418 6 716 9.58172 716 14V235C716 239.418 712.418 243 708 243V240C710.761 240 713 237.761 713 235Z" fill="#2E2F33" fill-opacity="0.88"/>
<path d="M676.688 135L686.5 115.938V115.781H675.125V112.375H690.719V115.844L680.906 135H676.688Z" fill="black"/>
<path d="M670.344 112.375V135H666.25V116.344H666.125L660.844 119.719V116L666.438 112.375H670.344Z" fill="black"/>
<path d="M641.875 135V132.062L649.875 124.344C652.156 122.062 653.344 120.719 653.344 118.812C653.344 116.719 651.687 115.375 649.469 115.375C647.125 115.375 645.625 116.844 645.656 119.125H641.781C641.75 114.844 644.969 112.062 649.5 112.062C654.125 112.062 657.25 114.812 657.25 118.625C657.25 121.188 656 123.25 651.562 127.438L647.531 131.438V131.594H657.594V135H641.875Z" fill="black"/>
</g>
<g id="mirae_hall_218">
<path d="M713 14C713 9.58173 716.582 6 721 6H805C809.418 6 813 9.58172 813 14V235C813 239.418 809.418 243 805 243H721C716.582 243 713 239.418 713 235V14Z" fill="#F7FBFF"/>
<path d="M805 240V243H721L721 240H805ZM810 235V14C810 11.2386 807.761 9 805 9H721C718.239 9 716 11.2386 716 14V235C716 237.761 718.239 240 721 240L721 243L720.588 242.989C716.361 242.775 713 239.28 713 235V14C713 9.58173 716.582 6 721 6H805C809.418 6 813 9.58172 813 14V235C813 239.418 809.418 243 805 243V240C807.761 240 810 237.761 810 235Z" fill="#2E2F33" fill-opacity="0.88"/>
<path d="M779.062 135.312C774.031 135.312 770.469 132.625 770.469 128.938C770.469 126.062 772.594 123.719 775.312 123.281V123.156C772.938 122.656 771.312 120.594 771.312 118.125C771.312 114.625 774.594 112.062 779.062 112.062C783.5 112.062 786.781 114.625 786.781 118.125C786.781 120.594 785.125 122.656 782.781 123.156V123.281C785.5 123.719 787.656 126.062 787.656 128.938C787.656 132.625 784.062 135.312 779.062 135.312ZM779.062 132.094C781.719 132.094 783.469 130.656 783.469 128.562C783.469 126.438 781.594 124.875 779.062 124.875C776.5 124.875 774.625 126.438 774.656 128.562C774.625 130.656 776.375 132.094 779.062 132.094ZM779.062 121.844C781.25 121.844 782.812 120.469 782.812 118.5C782.812 116.594 781.281 115.25 779.062 115.25C776.812 115.25 775.281 116.562 775.281 118.5C775.281 120.469 776.844 121.844 779.062 121.844Z" fill="black"/>
<path d="M765.344 112.375V135H761.25V116.344H761.125L755.844 119.719V116L761.438 112.375H765.344Z" fill="black"/>
<path d="M736.875 135V132.062L744.875 124.344C747.156 122.062 748.344 120.719 748.344 118.812C748.344 116.719 746.687 115.375 744.469 115.375C742.125 115.375 740.625 116.844 740.656 119.125H736.781C736.75 114.844 739.969 112.062 744.5 112.062C749.125 112.062 752.25 114.812 752.25 118.625C752.25 121.188 751 123.25 746.562 127.438L742.531 131.438V131.594H752.594V135H736.875Z" fill="black"/>
</g>
<g id="mirae_hall_219">
<path d="M810 14C810 9.58173 813.582 6 818 6H897C901.418 6 905 9.58172 905 14V235C905 239.418 901.418 243 897 243H818C813.582 243 810 239.418 810 235V14Z" fill="#F7FBFF"/>
<path d="M897 240V243H818L818 240H897ZM902 235V14C902 11.2386 899.761 9 897 9H818C815.239 9 813 11.2386 813 14V235C813 237.761 815.239 240 818 240L818 243L817.588 242.989C813.361 242.775 810 239.28 810 235V14C810 9.58173 813.582 6 818 6H897C901.418 6 905 9.58172 905 14V235C905 239.418 901.418 243 897 243V240C899.761 240 902 237.761 902 235Z" fill="#2E2F33" fill-opacity="0.88"/>
<path d="M873.875 112.062C878.312 112.094 882.688 114.719 882.719 123C882.719 130.812 879.188 135.312 873.625 135.312C869.25 135.312 866.25 132.594 865.75 128.844H869.781C870.188 130.625 871.562 131.781 873.625 131.781C876.906 131.781 878.75 128.875 878.781 124.031H878.531C877.375 126 875.219 127.156 872.719 127.156C868.688 127.156 865.562 124.094 865.531 119.812C865.531 115.375 868.844 112.031 873.875 112.062ZM873.906 115.344C871.375 115.344 869.469 117.312 869.5 119.719C869.5 122.156 871.312 124.062 873.844 124.062C876.344 124.062 878.312 122.031 878.281 119.688C878.281 117.375 876.438 115.344 873.906 115.344Z" fill="black"/>
<path d="M860.344 112.375V135H856.25V116.344H856.125L850.844 119.719V116L856.438 112.375H860.344Z" fill="black"/>
<path d="M831.875 135V132.062L839.875 124.344C842.156 122.062 843.344 120.719 843.344 118.812C843.344 116.719 841.687 115.375 839.469 115.375C837.125 115.375 835.625 116.844 835.656 119.125H831.781C831.75 114.844 834.969 112.062 839.5 112.062C844.125 112.062 847.25 114.812 847.25 118.625C847.25 121.188 846 123.25 841.562 127.438L837.531 131.438V131.594H847.594V135H831.875Z" fill="black"/>
</g>
<g id="mirae_hall_201">
<path d="M991 299C991 294.582 994.582 291 999 291H1088C1092.42 291 1096 294.582 1096 299V424C1096 428.418 1092.42 432 1088 432H999C994.582 432 991 428.418 991 424V299Z" fill="#F7FBFF"/>
<path d="M1088 429V432H999L999 429H1088ZM1093 424V299C1093 296.239 1090.76 294 1088 294H999C996.239 294 994 296.239 994 299V424C994 426.761 996.239 429 999 429L999 432L998.588 431.989C994.361 431.775 991 428.28 991 424V299C991 294.582 994.582 291 999 291H1088C1092.42 291 1096 294.582 1096 299V424C1096 428.418 1092.42 432 1088 432V429C1090.76 429 1093 426.761 1093 424Z" fill="#2E2F33" fill-opacity="0.88"/>
<path d="M1066.78 349.375V372H1062.69V353.344H1062.56L1057.28 356.719V353L1062.88 349.375H1066.78Z" fill="black"/>
<path d="M1045.5 372.312C1040.06 372.312 1036.81 368.094 1036.81 360.688C1036.81 353.312 1040.06 349.062 1045.5 349.062C1050.91 349.062 1054.19 353.312 1054.19 360.688C1054.19 368.094 1050.94 372.312 1045.5 372.312ZM1045.5 368.906C1048.34 368.906 1050.09 366.125 1050.09 360.688C1050.09 355.281 1048.31 352.438 1045.5 352.438C1042.69 352.438 1040.91 355.281 1040.91 360.688C1040.91 366.125 1042.66 368.906 1045.5 368.906Z" fill="black"/>
<path d="M1017.87 372V369.062L1025.87 361.344C1028.16 359.062 1029.34 357.719 1029.34 355.812C1029.34 353.719 1027.69 352.375 1025.47 352.375C1023.12 352.375 1021.62 353.844 1021.66 356.125H1017.78C1017.75 351.844 1020.97 349.062 1025.5 349.062C1030.12 349.062 1033.25 351.812 1033.25 355.625C1033.25 358.188 1032 360.25 1027.56 364.438L1023.53 368.438V368.594H1033.59V372H1017.87Z" fill="black"/>
</g>
<g id="mirae_hall_231">
<path d="M1329 645C1329 640.582 1332.58 637 1337 637H1591C1595.42 637 1599 640.582 1599 645V819C1599 823.418 1595.42 827 1591 827H1337C1332.58 827 1329 823.418 1329 819V645Z" fill="#F7FBFF"/>
<path d="M1591 824V827H1337L1337 824H1591ZM1596 819V645C1596 642.239 1593.76 640 1591 640H1337C1334.24 640 1332 642.239 1332 645V819C1332 821.761 1334.24 824 1337 824L1337 827C1332.58 827 1329 823.418 1329 819V645C1329 640.582 1332.58 637 1337 637H1591C1595.42 637 1599 640.582 1599 645V819C1599 823.418 1595.42 827 1591 827V824C1593.76 824 1596 821.761 1596 819Z" fill="#2E2F33" fill-opacity="0.88"/>
<path d="M1486.56 720.375V743H1482.47V724.344H1482.34L1477.06 727.719V724L1482.66 720.375H1486.56Z" fill="black"/>
<path d="M1465.38 743.312C1460.53 743.312 1457.09 740.688 1457 736.875H1461.09C1461.22 738.688 1463.03 739.875 1465.38 739.875C1467.88 739.875 1469.66 738.5 1469.66 736.5C1469.66 734.469 1467.91 733 1464.97 733H1462.94V729.875H1464.97C1467.38 729.875 1469.06 728.531 1469.03 726.562C1469.06 724.656 1467.62 723.375 1465.41 723.375C1463.28 723.375 1461.44 724.562 1461.38 726.469H1457.47C1457.56 722.656 1461 720.062 1465.44 720.062C1470.03 720.062 1473 722.875 1472.97 726.344C1473 728.875 1471.31 730.719 1468.84 731.219V731.406C1472.03 731.844 1473.84 733.875 1473.81 736.719C1473.84 740.531 1470.28 743.312 1465.38 743.312Z" fill="black"/>
<path d="M1437.87 743V740.062L1445.87 732.344C1448.16 730.062 1449.34 728.719 1449.34 726.812C1449.34 724.719 1447.69 723.375 1445.47 723.375C1443.12 723.375 1441.62 724.844 1441.66 727.125H1437.78C1437.75 722.844 1440.97 720.062 1445.5 720.062C1450.12 720.062 1453.25 722.812 1453.25 726.625C1453.25 729.188 1452 731.25 1447.56 735.438L1443.53 739.438V739.594H1453.59V743H1437.87Z" fill="black"/>
</g>
<g id="mirae_hall_243">
<path d="M1338 887C1338 882.582 1341.58 879 1346 879H1588C1592.42 879 1596 882.582 1596 887V1047C1596 1051.42 1592.42 1055 1588 1055H1346C1341.58 1055 1338 1051.42 1338 1047V887Z" fill="#F7FBFF"/>
<path d="M1588 1052V1055H1346L1346 1052H1588ZM1593 1047V887C1593 884.239 1590.76 882 1588 882H1346C1343.24 882 1341 884.239 1341 887V1047C1341 1049.76 1343.24 1052 1346 1052L1346 1055C1341.58 1055 1338 1051.42 1338 1047V887C1338 882.582 1341.58 879 1346 879H1588C1592.42 879 1596 882.582 1596 887V1047C1596 1051.42 1592.42 1055 1588 1055V1052C1590.76 1052 1593 1049.76 1593 1047Z" fill="#2E2F33" fill-opacity="0.88"/>
<path d="M1486.53 978.312C1481.69 978.312 1478.25 975.688 1478.16 971.875H1482.25C1482.38 973.688 1484.19 974.875 1486.53 974.875C1489.03 974.875 1490.81 973.5 1490.81 971.5C1490.81 969.469 1489.06 968 1486.12 968H1484.09V964.875H1486.12C1488.53 964.875 1490.22 963.531 1490.19 961.562C1490.22 959.656 1488.78 958.375 1486.56 958.375C1484.44 958.375 1482.59 959.562 1482.53 961.469H1478.62C1478.72 957.656 1482.16 955.062 1486.59 955.062C1491.19 955.062 1494.16 957.875 1494.12 961.344C1494.16 963.875 1492.47 965.719 1490 966.219V966.406C1493.19 966.844 1495 968.875 1494.97 971.719C1495 975.531 1491.44 978.312 1486.53 978.312Z" fill="black"/>
<path d="M1457.25 973.781V970.531L1467.03 955.375H1472.09V970.438H1475.06V973.781H1472.09V978H1468.22V973.781H1457.25ZM1461.41 970.438H1468.28V960H1468.03L1461.41 970.281V970.438Z" fill="black"/>
<path d="M1438.87 978V975.062L1446.87 967.344C1449.16 965.062 1450.34 963.719 1450.34 961.812C1450.34 959.719 1448.69 958.375 1446.47 958.375C1444.12 958.375 1442.62 959.844 1442.66 962.125H1438.78C1438.75 957.844 1441.97 955.062 1446.5 955.062C1451.12 955.062 1454.25 957.812 1454.25 961.625C1454.25 964.188 1453 966.25 1448.56 970.438L1444.53 974.438V974.594H1454.59V978H1438.87Z" fill="black"/>
</g>
<g id="mirae_hall_241">
<path d="M1593 887C1593 882.582 1596.58 879 1601 879H1855C1859.42 879 1863 882.582 1863 887V1047C1863 1051.42 1859.42 1055 1855 1055H1601C1596.58 1055 1593 1051.42 1593 1047V887Z" fill="#F7FBFF"/>
<path d="M1855 1052V1055H1601L1601 1052H1855ZM1860 1047V887C1860 884.239 1857.76 882 1855 882H1601C1598.24 882 1596 884.239 1596 887V1047C1596 1049.76 1598.24 1052 1601 1052L1601 1055C1596.58 1055 1593 1051.42 1593 1047V887C1593 882.582 1596.58 879 1601 879H1855C1859.42 879 1863 882.582 1863 887V1047C1863 1051.42 1859.42 1055 1855 1055V1052C1857.76 1052 1860 1049.76 1860 1047Z" fill="#2E2F33" fill-opacity="0.88"/>
<path d="M1751.19 955.375V978H1747.09V959.344H1746.97L1741.69 962.719V959L1747.28 955.375H1751.19Z" fill="black"/>
<path d="M1721.25 973.781V970.531L1731.03 955.375H1736.09V970.438H1739.06V973.781H1736.09V978H1732.22V973.781H1721.25ZM1725.41 970.438H1732.28V960H1732.03L1725.41 970.281V970.438Z" fill="black"/>
<path d="M1702.87 978V975.062L1710.87 967.344C1713.16 965.062 1714.34 963.719 1714.34 961.812C1714.34 959.719 1712.69 958.375 1710.47 958.375C1708.12 958.375 1706.62 959.844 1706.66 962.125H1702.78C1702.75 957.844 1705.97 955.062 1710.5 955.062C1715.12 955.062 1718.25 957.812 1718.25 961.625C1718.25 964.188 1717 966.25 1712.56 970.438L1708.53 974.438V974.594H1718.59V978H1702.87Z" fill="black"/>
</g>
<g id="mirae_hall_234">
<path d="M1596 645C1596 640.582 1599.58 637 1604 637H1870C1874.42 637 1878 640.582 1878 645V819C1878 823.418 1874.42 827 1870 827H1604C1599.58 827 1596 823.418 1596 819V645Z" fill="#F7FBFF"/>
<path d="M1870 824V827H1604L1604 824H1870ZM1875 819V645C1875 642.239 1872.76 640 1870 640H1604C1601.24 640 1599 642.239 1599 645V819C1599 821.761 1601.24 824 1604 824L1604 827L1603.59 826.989C1599.36 826.775 1596 823.28 1596 819V645C1596 640.72 1599.36 637.225 1603.59 637.011L1604 637H1870C1874.42 637 1878 640.582 1878 645V819C1878 823.418 1874.42 827 1870 827V824C1872.76 824 1875 821.761 1875 819Z" fill="#2E2F33" fill-opacity="0.88"/>
<path d="M1746.97 738.781V735.531L1756.75 720.375H1761.81V735.438H1764.78V738.781H1761.81V743H1757.94V738.781H1746.97ZM1751.12 735.438H1758V725H1757.75L1751.12 735.281V735.438Z" fill="black"/>
<path d="M1735.38 743.312C1730.53 743.312 1727.09 740.688 1727 736.875H1731.09C1731.22 738.688 1733.03 739.875 1735.38 739.875C1737.88 739.875 1739.66 738.5 1739.66 736.5C1739.66 734.469 1737.91 733 1734.97 733H1732.94V729.875H1734.97C1737.38 729.875 1739.06 728.531 1739.03 726.562C1739.06 724.656 1737.62 723.375 1735.41 723.375C1733.28 723.375 1731.44 724.562 1731.38 726.469H1727.47C1727.56 722.656 1731 720.062 1735.44 720.062C1740.03 720.062 1743 722.875 1742.97 726.344C1743 728.875 1741.31 730.719 1738.84 731.219V731.406C1742.03 731.844 1743.84 733.875 1743.81 736.719C1743.84 740.531 1740.28 743.312 1735.38 743.312Z" fill="black"/>
<path d="M1707.87 743V740.062L1715.87 732.344C1718.16 730.062 1719.34 728.719 1719.34 726.812C1719.34 724.719 1717.69 723.375 1715.47 723.375C1713.12 723.375 1711.62 724.844 1711.66 727.125H1707.78C1707.75 722.844 1710.97 720.062 1715.5 720.062C1720.12 720.062 1723.25 722.812 1723.25 726.625C1723.25 729.188 1722 731.25 1717.56 735.438L1713.53 739.438V739.594H1723.59V743H1707.87Z" fill="black"/>
</g>
<g id="mirae_hall_236">
<path d="M1875 645C1875 640.582 1878.58 637 1883 637H2010C2014.42 637 2018 640.582 2018 645V819C2018 823.418 2014.42 827 2010 827H1883C1878.58 827 1875 823.418 1875 819V645Z" fill="#F7FBFF"/>
<path d="M2010 824V827H1883L1883 824H2010ZM2015 819V645C2015 642.239 2012.76 640 2010 640H1883C1880.24 640 1878 642.239 1878 645V819C1878 821.761 1880.24 824 1883 824L1883 827C1878.58 827 1875 823.418 1875 819V645C1875 640.582 1878.58 637 1883 637H2010C2014.42 637 2018 640.582 2018 645V819C2018 823.418 2014.42 827 2010 827V824C2012.76 824 2015 821.761 2015 819Z" fill="#2E2F33" fill-opacity="0.88"/>
<path d="M1965.84 743.312C1961.44 743.281 1957 740.656 1957.03 732.312C1957.03 724.562 1960.56 720.062 1966.09 720.062C1970.47 720.062 1973.47 722.812 1973.97 726.469H1969.94C1969.53 724.75 1968.16 723.594 1966.09 723.594C1962.81 723.594 1960.97 726.5 1960.97 731.25H1961.19C1962.34 729.312 1964.53 728.156 1967 728.156C1971.06 728.156 1974.19 731.219 1974.19 735.5C1974.19 740 1970.84 743.344 1965.84 743.312ZM1965.84 740.031C1968.38 740.031 1970.25 738.062 1970.25 735.594C1970.25 733.188 1968.41 731.25 1965.91 731.25C1963.38 731.25 1961.44 733.25 1961.41 735.625C1961.44 738 1963.28 740.031 1965.84 740.031Z" fill="black"/>
<path d="M1945.38 743.312C1940.53 743.312 1937.09 740.688 1937 736.875H1941.09C1941.22 738.688 1943.03 739.875 1945.38 739.875C1947.88 739.875 1949.66 738.5 1949.66 736.5C1949.66 734.469 1947.91 733 1944.97 733H1942.94V729.875H1944.97C1947.38 729.875 1949.06 728.531 1949.03 726.562C1949.06 724.656 1947.62 723.375 1945.41 723.375C1943.28 723.375 1941.44 724.562 1941.38 726.469H1937.47C1937.56 722.656 1941 720.062 1945.44 720.062C1950.03 720.062 1953 722.875 1952.97 726.344C1953 728.875 1951.31 730.719 1948.84 731.219V731.406C1952.03 731.844 1953.84 733.875 1953.81 736.719C1953.84 740.531 1950.28 743.312 1945.38 743.312Z" fill="black"/>
<path d="M1917.87 743V740.062L1925.87 732.344C1928.16 730.062 1929.34 728.719 1929.34 726.812C1929.34 724.719 1927.69 723.375 1925.47 723.375C1923.12 723.375 1921.62 724.844 1921.66 727.125H1917.78C1917.75 722.844 1920.97 720.062 1925.5 720.062C1930.12 720.062 1933.25 722.812 1933.25 726.625C1933.25 729.188 1932 731.25 1927.56 735.438L1923.53 739.438V739.594H1933.59V743H1917.87Z" fill="black"/>
</g>
<g id="mirae_hall_240">
<path d="M1860 887C1860 882.582 1863.58 879 1868 879H2010C2014.42 879 2018 882.582 2018 887V939C2018 943.418 2014.42 947 2010 947H1868C1863.58 947 1860 943.418 1860 939V887Z" fill="#F7FBFF"/>
<path d="M2010 944V947H1868L1868 944H2010ZM2015 939V887C2015 884.239 2012.76 882 2010 882H1868C1865.24 882 1863 884.239 1863 887V939C1863 941.761 1865.24 944 1868 944L1868 947L1867.59 946.989C1863.36 946.775 1860 943.28 1860 939V887C1860 882.72 1863.36 879.225 1867.59 879.011L1868 879H2010C2014.42 879 2018 882.582 2018 887V939C2018 943.418 2014.42 947 2010 947V944C2012.76 944 2015 941.761 2015 939Z" fill="#2E2F33" fill-opacity="0.88"/>
<path d="M1958.66 924.312C1953.22 924.312 1949.97 920.094 1949.97 912.688C1949.97 905.312 1953.22 901.062 1958.66 901.062C1964.06 901.062 1967.34 905.312 1967.34 912.688C1967.34 920.094 1964.09 924.312 1958.66 924.312ZM1958.66 920.906C1961.5 920.906 1963.25 918.125 1963.25 912.688C1963.25 907.281 1961.47 904.438 1958.66 904.438C1955.84 904.438 1954.06 907.281 1954.06 912.688C1954.06 918.125 1955.81 920.906 1958.66 920.906Z" fill="black"/>
<path d="M1929.25 919.781V916.531L1939.03 901.375H1944.09V916.438H1947.06V919.781H1944.09V924H1940.22V919.781H1929.25ZM1933.41 916.438H1940.28V906H1940.03L1933.41 916.281V916.438Z" fill="black"/>
<path d="M1910.87 924V921.062L1918.87 913.344C1921.16 911.062 1922.34 909.719 1922.34 907.812C1922.34 905.719 1920.69 904.375 1918.47 904.375C1916.12 904.375 1914.62 905.844 1914.66 908.125H1910.78C1910.75 903.844 1913.97 901.062 1918.5 901.062C1923.12 901.062 1926.25 903.812 1926.25 907.625C1926.25 910.188 1925 912.25 1920.56 916.438L1916.53 920.438V920.594H1926.59V924H1910.87Z" fill="black"/>
</g>
<g id="mirae_hall_239">
<path d="M2015 887C2015 882.582 2018.58 879 2023 879H2289C2293.42 879 2297 882.582 2297 887V1130C2297 1134.42 2293.42 1138 2289 1138H2023C2018.58 1138 2015 1134.42 2015 1130V887Z" fill="#F7FBFF"/>
<path d="M2289 1135V1138H2023L2023 1135H2289ZM2294 1130V887C2294 884.239 2291.76 882 2289 882H2023C2020.24 882 2018 884.239 2018 887V1130C2018 1132.76 2020.24 1135 2023 1135L2023 1138L2022.59 1137.99C2018.36 1137.77 2015 1134.28 2015 1130V887C2015 882.72 2018.36 879.225 2022.59 879.011L2023 879H2289C2293.42 879 2297 882.582 2297 887V1130C2297 1134.42 2293.42 1138 2289 1138V1135C2291.76 1135 2294 1132.76 2294 1130Z" fill="#2E2F33" fill-opacity="0.88"/>
<path d="M2175.41 996.062C2179.84 996.094 2184.22 998.719 2184.25 1007C2184.25 1014.81 2180.72 1019.31 2175.16 1019.31C2170.78 1019.31 2167.78 1016.59 2167.28 1012.84H2171.31C2171.72 1014.62 2173.09 1015.78 2175.16 1015.78C2178.44 1015.78 2180.28 1012.87 2180.31 1008.03H2180.06C2178.91 1010 2176.75 1011.16 2174.25 1011.16C2170.22 1011.16 2167.09 1008.09 2167.06 1003.81C2167.06 999.375 2170.38 996.031 2175.41 996.062ZM2175.44 999.344C2172.91 999.344 2171 1001.31 2171.03 1003.72C2171.03 1006.16 2172.84 1008.06 2175.38 1008.06C2177.88 1008.06 2179.84 1006.03 2179.81 1003.69C2179.81 1001.37 2177.97 999.344 2175.44 999.344Z" fill="black"/>
<path d="M2155.38 1019.31C2150.53 1019.31 2147.09 1016.69 2147 1012.88H2151.09C2151.22 1014.69 2153.03 1015.88 2155.38 1015.88C2157.88 1015.88 2159.66 1014.5 2159.66 1012.5C2159.66 1010.47 2157.91 1009 2154.97 1009H2152.94V1005.88H2154.97C2157.38 1005.88 2159.06 1004.53 2159.03 1002.56C2159.06 1000.66 2157.62 999.375 2155.41 999.375C2153.28 999.375 2151.44 1000.56 2151.38 1002.47H2147.47C2147.56 998.656 2151 996.062 2155.44 996.062C2160.03 996.062 2163 998.875 2162.97 1002.34C2163 1004.88 2161.31 1006.72 2158.84 1007.22V1007.41C2162.03 1007.84 2163.84 1009.88 2163.81 1012.72C2163.84 1016.53 2160.28 1019.31 2155.38 1019.31Z" fill="black"/>
<path d="M2127.87 1019V1016.06L2135.87 1008.34C2138.16 1006.06 2139.34 1004.72 2139.34 1002.81C2139.34 1000.72 2137.69 999.375 2135.47 999.375C2133.12 999.375 2131.62 1000.84 2131.66 1003.12H2127.78C2127.75 998.844 2130.97 996.062 2135.5 996.062C2140.12 996.062 2143.25 998.812 2143.25 1002.62C2143.25 1005.19 2142 1007.25 2137.56 1011.44L2133.53 1015.44V1015.59H2143.59V1019H2127.87Z" fill="black"/>
</g>
<g id="mirae_hall_237">
<path d="M2015 219C2015 214.582 2018.58 211 2023 211H2423C2427.42 211 2431 214.582 2431 219V793C2431 797.418 2427.42 801 2423 801H2023C2018.58 801 2015 797.418 2015 793V219Z" fill="#F7FBFF"/>
<path d="M2423 798V801H2023L2023 798H2423ZM2428 793V219C2428 216.239 2425.76 214 2423 214H2023C2020.24 214 2018 216.239 2018 219V793C2018 795.761 2020.24 798 2023 798L2023 801C2018.58 801 2015 797.418 2015 793V219C2015 214.582 2018.58 211 2023 211H2423C2427.42 211 2431 214.582 2431 219V793C2431 797.418 2427.42 801 2423 801V798C2425.76 798 2428 795.761 2428 793Z" fill="#2E2F33" fill-opacity="0.88"/>
<path d="M2236.22 517L2246.03 497.938V497.781H2234.66V494.375H2250.25V497.844L2240.44 517H2236.22Z" fill="black"/>
<path d="M2223.38 517.312C2218.53 517.312 2215.09 514.688 2215 510.875H2219.09C2219.22 512.688 2221.03 513.875 2223.38 513.875C2225.88 513.875 2227.66 512.5 2227.66 510.5C2227.66 508.469 2225.91 507 2222.97 507H2220.94V503.875H2222.97C2225.38 503.875 2227.06 502.531 2227.03 500.562C2227.06 498.656 2225.62 497.375 2223.41 497.375C2221.28 497.375 2219.44 498.562 2219.38 500.469H2215.47C2215.56 496.656 2219 494.062 2223.44 494.062C2228.03 494.062 2231 496.875 2230.97 500.344C2231 502.875 2229.31 504.719 2226.84 505.219V505.406C2230.03 505.844 2231.84 507.875 2231.81 510.719C2231.84 514.531 2228.28 517.312 2223.38 517.312Z" fill="black"/>
<path d="M2195.87 517V514.062L2203.87 506.344C2206.16 504.062 2207.34 502.719 2207.34 500.812C2207.34 498.719 2205.69 497.375 2203.47 497.375C2201.12 497.375 2199.62 498.844 2199.66 501.125H2195.78C2195.75 496.844 2198.97 494.062 2203.5 494.062C2208.12 494.062 2211.25 496.812 2211.25 500.625C2211.25 503.188 2210 505.25 2205.56 509.438L2201.53 513.438V513.594H2211.59V517H2195.87Z" fill="black"/>
</g>
<g id="mirae_hall_202">
<path d="M898 299C898 294.582 901.582 291 906 291H986C990.418 291 994 294.582 994 299V424C994 428.418 990.418 432 986 432H906C901.582 432 898 428.418 898 424V299Z" fill="#F7FBFF"/>
<path d="M986 429V432H906L906 429H986ZM991 424V299C991 296.239 988.761 294 986 294H906C903.239 294 901 296.239 901 299V424C901 426.761 903.239 429 906 429L906 432L905.588 431.989C901.361 431.775 898 428.28 898 424V299C898 294.582 901.582 291 906 291H986C990.418 291 994 294.582 994 299V424C994 428.418 990.418 432 986 432V429C988.761 429 991 426.761 991 424Z" fill="#2E2F33" fill-opacity="0.88"/>
<path d="M957.594 372V369.062L965.594 361.344C967.875 359.062 969.062 357.719 969.062 355.812C969.062 353.719 967.406 352.375 965.187 352.375C962.844 352.375 961.344 353.844 961.375 356.125H957.5C957.469 351.844 960.687 349.062 965.219 349.062C969.844 349.062 972.969 351.812 972.969 355.625C972.969 358.188 971.719 360.25 967.281 364.438L963.25 368.438V368.594H973.312V372H957.594Z" fill="black"/>
<path d="M945.5 372.312C940.062 372.312 936.812 368.094 936.812 360.688C936.812 353.312 940.062 349.062 945.5 349.062C950.906 349.062 954.188 353.312 954.188 360.688C954.188 368.094 950.938 372.312 945.5 372.312ZM945.5 368.906C948.344 368.906 950.094 366.125 950.094 360.688C950.094 355.281 948.312 352.438 945.5 352.438C942.688 352.438 940.906 355.281 940.906 360.688C940.906 366.125 942.656 368.906 945.5 368.906Z" fill="black"/>
<path d="M917.875 372V369.062L925.875 361.344C928.156 359.062 929.344 357.719 929.344 355.812C929.344 353.719 927.687 352.375 925.469 352.375C923.125 352.375 921.625 353.844 921.656 356.125H917.781C917.75 351.844 920.969 349.062 925.5 349.062C930.125 349.062 933.25 351.812 933.25 355.625C933.25 358.188 932 360.25 927.562 364.438L923.531 368.438V368.594H933.594V372H917.875Z" fill="black"/>
</g>
<g id="mirae_hall_203">
<path d="M809 299C809 294.582 812.582 291 817 291H893C897.418 291 901 294.582 901 299V424C901 428.418 897.418 432 893 432H817C812.582 432 809 428.418 809 424V299Z" fill="#F7FBFF"/>
<path d="M893 429V432H817L817 429H893ZM898 424V299C898 296.239 895.761 294 893 294H817C814.239 294 812 296.239 812 299V424C812 426.761 814.239 429 817 429L817 432L816.588 431.989C812.361 431.775 809 428.28 809 424V299C809 294.582 812.582 291 817 291H893C897.418 291 901 294.582 901 299V424C901 428.418 897.418 432 893 432V429C895.761 429 898 426.761 898 424Z" fill="#2E2F33" fill-opacity="0.88"/>
<path d="M874.812 372.312C869.969 372.312 866.531 369.688 866.438 365.875H870.531C870.656 367.688 872.469 368.875 874.812 368.875C877.312 368.875 879.094 367.5 879.094 365.5C879.094 363.469 877.344 362 874.406 362H872.375V358.875H874.406C876.812 358.875 878.5 357.531 878.469 355.562C878.5 353.656 877.062 352.375 874.844 352.375C872.719 352.375 870.875 353.562 870.812 355.469H866.906C867 351.656 870.438 349.062 874.875 349.062C879.469 349.062 882.438 351.875 882.406 355.344C882.438 357.875 880.75 359.719 878.281 360.219V360.406C881.469 360.844 883.281 362.875 883.25 365.719C883.281 369.531 879.719 372.312 874.812 372.312Z" fill="black"/>
<path d="M854.5 372.312C849.062 372.312 845.812 368.094 845.812 360.688C845.812 353.312 849.062 349.062 854.5 349.062C859.906 349.062 863.188 353.312 863.188 360.688C863.188 368.094 859.938 372.312 854.5 372.312ZM854.5 368.906C857.344 368.906 859.094 366.125 859.094 360.688C859.094 355.281 857.312 352.438 854.5 352.438C851.688 352.438 849.906 355.281 849.906 360.688C849.906 366.125 851.656 368.906 854.5 368.906Z" fill="black"/>
<path d="M826.875 372V369.062L834.875 361.344C837.156 359.062 838.344 357.719 838.344 355.812C838.344 353.719 836.687 352.375 834.469 352.375C832.125 352.375 830.625 353.844 830.656 356.125H826.781C826.75 351.844 829.969 349.062 834.5 349.062C839.125 349.062 842.25 351.812 842.25 355.625C842.25 358.188 841 360.25 836.562 364.438L832.531 368.438V368.594H842.594V372H826.875Z" fill="black"/>
</g>
<g id="mirae_hall_204">
<path d="M713 299C713 294.582 716.582 291 721 291H804C808.418 291 812 294.582 812 299V424C812 428.418 808.418 432 804 432H721C716.582 432 713 428.418 713 424V299Z" fill="#F7FBFF"/>
<path d="M804 429V432H721L721 429H804ZM809 424V299C809 296.239 806.761 294 804 294H721C718.239 294 716 296.239 716 299V424C716 426.761 718.239 429 721 429L721 432C716.582 432 713 428.418 713 424V299C713 294.582 716.582 291 721 291H804C808.418 291 812 294.582 812 299V424C812 428.418 808.418 432 804 432V429C806.761 429 809 426.761 809 424Z" fill="#2E2F33" fill-opacity="0.88"/>
<path d="M773.188 367.781V364.531L782.969 349.375H788.031V364.438H791V367.781H788.031V372H784.156V367.781H773.188ZM777.344 364.438H784.219V354H783.969L777.344 364.281V364.438Z" fill="black"/>
<path d="M761.5 372.312C756.062 372.312 752.812 368.094 752.812 360.688C752.812 353.312 756.062 349.062 761.5 349.062C766.906 349.062 770.188 353.312 770.188 360.688C770.188 368.094 766.938 372.312 761.5 372.312ZM761.5 368.906C764.344 368.906 766.094 366.125 766.094 360.688C766.094 355.281 764.312 352.438 761.5 352.438C758.688 352.438 756.906 355.281 756.906 360.688C756.906 366.125 758.656 368.906 761.5 368.906Z" fill="black"/>
<path d="M733.875 372V369.062L741.875 361.344C744.156 359.062 745.344 357.719 745.344 355.812C745.344 353.719 743.687 352.375 741.469 352.375C739.125 352.375 737.625 353.844 737.656 356.125H733.781C733.75 351.844 736.969 349.062 741.5 349.062C746.125 349.062 749.25 351.812 749.25 355.625C749.25 358.188 748 360.25 743.562 364.438L739.531 368.438V368.594H749.594V372H733.875Z" fill="black"/>
</g>
<g id="mirae_hall_205">
<path d="M617 299C617 294.582 620.582 291 625 291H708C712.418 291 716 294.582 716 299V424C716 428.418 712.418 432 708 432H625C620.582 432 617 428.418 617 424V299Z" fill="#F7FBFF"/>
<path d="M708 429V432H625L625 429H708ZM713 424V299C713 296.239 710.761 294 708 294H625C622.239 294 620 296.239 620 299V424C620 426.761 622.239 429 625 429L625 432C620.582 432 617 428.418 617 424V299C617 294.582 620.582 291 625 291H708C712.418 291 716 294.582 716 299V424C716 428.418 712.418 432 708 432V429C710.761 429 713 426.761 713 424Z" fill="#2E2F33" fill-opacity="0.88"/>
<path d="M685.625 372.312C681.094 372.312 677.781 369.625 677.656 365.875H681.625C681.75 367.719 683.469 369.031 685.625 369.031C688.156 369.031 689.969 367.188 689.969 364.688C689.969 362.094 688.094 360.25 685.5 360.25C683.75 360.219 682.469 360.844 681.75 362.188H677.969L679.344 349.375H692.719V352.781H682.688L682 358.781H682.219C683.094 357.781 684.75 357.062 686.594 357.062C690.812 357.062 693.906 360.219 693.906 364.562C693.906 369.094 690.5 372.312 685.625 372.312Z" fill="black"/>
<path d="M665.5 372.312C660.062 372.312 656.812 368.094 656.812 360.688C656.812 353.312 660.062 349.062 665.5 349.062C670.906 349.062 674.188 353.312 674.188 360.688C674.188 368.094 670.938 372.312 665.5 372.312ZM665.5 368.906C668.344 368.906 670.094 366.125 670.094 360.688C670.094 355.281 668.312 352.438 665.5 352.438C662.688 352.438 660.906 355.281 660.906 360.688C660.906 366.125 662.656 368.906 665.5 368.906Z" fill="black"/>
<path d="M637.875 372V369.062L645.875 361.344C648.156 359.062 649.344 357.719 649.344 355.812C649.344 353.719 647.687 352.375 645.469 352.375C643.125 352.375 641.625 353.844 641.656 356.125H637.781C637.75 351.844 640.969 349.062 645.5 349.062C650.125 349.062 653.25 351.812 653.25 355.625C653.25 358.188 652 360.25 647.562 364.438L643.531 368.438V368.594H653.594V372H637.875Z" fill="black"/>
</g>
<g id="mirae_hall_206">
<path d="M521 299C521 294.582 524.582 291 529 291H612C616.418 291 620 294.582 620 299V424C620 428.418 616.418 432 612 432H529C524.582 432 521 428.418 521 424V299Z" fill="#F7FBFF"/>
<path d="M612 429V432H529L529 429H612ZM617 424V299C617 296.239 614.761 294 612 294H529C526.239 294 524 296.239 524 299V424C524 426.761 526.239 429 529 429L529 432C524.582 432 521 428.418 521 424V299C521 294.582 524.582 291 529 291H612C616.418 291 620 294.582 620 299V424C620 428.418 616.418 432 612 432V429C614.761 429 617 426.761 617 424Z" fill="#2E2F33" fill-opacity="0.88"/>
<path d="M590.062 372.312C585.656 372.281 581.219 369.656 581.25 361.312C581.25 353.562 584.781 349.062 590.312 349.062C594.687 349.062 597.687 351.812 598.187 355.469H594.156C593.75 353.75 592.375 352.594 590.312 352.594C587.031 352.594 585.187 355.5 585.187 360.25H585.406C586.562 358.312 588.75 357.156 591.219 357.156C595.281 357.156 598.406 360.219 598.406 364.5C598.406 369 595.062 372.344 590.062 372.312ZM590.062 369.031C592.594 369.031 594.469 367.062 594.469 364.594C594.469 362.188 592.625 360.25 590.125 360.25C587.594 360.25 585.656 362.25 585.625 364.625C585.656 367 587.5 369.031 590.062 369.031Z" fill="black"/>
<path d="M569.5 372.312C564.062 372.312 560.812 368.094 560.812 360.688C560.812 353.312 564.062 349.062 569.5 349.062C574.906 349.062 578.188 353.312 578.188 360.688C578.188 368.094 574.938 372.312 569.5 372.312ZM569.5 368.906C572.344 368.906 574.094 366.125 574.094 360.688C574.094 355.281 572.312 352.438 569.5 352.438C566.688 352.438 564.906 355.281 564.906 360.688C564.906 366.125 566.656 368.906 569.5 368.906Z" fill="black"/>
<path d="M541.875 372V369.062L549.875 361.344C552.156 359.062 553.344 357.719 553.344 355.812C553.344 353.719 551.687 352.375 549.469 352.375C547.125 352.375 545.625 353.844 545.656 356.125H541.781C541.75 351.844 544.969 349.062 549.5 349.062C554.125 349.062 557.25 351.812 557.25 355.625C557.25 358.188 556 360.25 551.562 364.438L547.531 368.438V368.594H557.594V372H541.875Z" fill="black"/>
</g>
<g id="mirae_hall_207">
<path d="M425 299C425 294.582 428.582 291 433 291H516C520.418 291 524 294.582 524 299V424C524 428.418 520.418 432 516 432H433C428.582 432 425 428.418 425 424V299Z" fill="#F7FBFF"/>
<path d="M516 429V432H433L433 429H516ZM521 424V299C521 296.239 518.761 294 516 294H433C430.239 294 428 296.239 428 299V424C428 426.761 430.239 429 433 429L433 432C428.582 432 425 428.418 425 424V299C425 294.582 428.582 291 433 291H516C520.418 291 524 294.582 524 299V424C524 428.418 520.418 432 516 432V429C518.761 429 521 426.761 521 424Z" fill="#2E2F33" fill-opacity="0.88"/>
<path d="M486.812 372L496.625 352.938V352.781H485.25V349.375H500.844V352.844L491.031 372H486.812Z" fill="black"/>
<path d="M474.5 372.312C469.062 372.312 465.812 368.094 465.812 360.688C465.812 353.312 469.062 349.062 474.5 349.062C479.906 349.062 483.188 353.312 483.188 360.688C483.188 368.094 479.938 372.312 474.5 372.312ZM474.5 368.906C477.344 368.906 479.094 366.125 479.094 360.688C479.094 355.281 477.312 352.438 474.5 352.438C471.688 352.438 469.906 355.281 469.906 360.688C469.906 366.125 471.656 368.906 474.5 368.906Z" fill="black"/>
<path d="M446.875 372V369.062L454.875 361.344C457.156 359.062 458.344 357.719 458.344 355.812C458.344 353.719 456.688 352.375 454.469 352.375C452.125 352.375 450.625 353.844 450.656 356.125H446.781C446.75 351.844 449.969 349.062 454.5 349.062C459.125 349.062 462.25 351.812 462.25 355.625C462.25 358.188 461 360.25 456.563 364.438L452.531 368.438V368.594H462.594V372H446.875Z" fill="black"/>
</g>
<g id="mirae_hall_208">
<path d="M329 299C329 294.582 332.582 291 337 291H420C424.418 291 428 294.582 428 299V424C428 428.418 424.418 432 420 432H337C332.582 432 329 428.418 329 424V299Z" fill="#F7FBFF"/>
<path d="M420 429V432H337L337 429H420ZM425 424V299C425 296.239 422.761 294 420 294H337C334.239 294 332 296.239 332 299V424C332 426.761 334.239 429 337 429L337 432C332.582 432 329 428.418 329 424V299C329 294.582 332.582 291 337 291H420C424.418 291 428 294.582 428 299V424C428 428.418 424.418 432 420 432V429C422.761 429 425 426.761 425 424Z" fill="#2E2F33" fill-opacity="0.88"/>
<path d="M397.812 372.312C392.781 372.312 389.219 369.625 389.219 365.938C389.219 363.062 391.344 360.719 394.062 360.281V360.156C391.688 359.656 390.062 357.594 390.062 355.125C390.062 351.625 393.344 349.062 397.812 349.062C402.25 349.062 405.531 351.625 405.531 355.125C405.531 357.594 403.875 359.656 401.531 360.156V360.281C404.25 360.719 406.406 363.062 406.406 365.938C406.406 369.625 402.812 372.312 397.812 372.312ZM397.812 369.094C400.469 369.094 402.219 367.656 402.219 365.562C402.219 363.438 400.344 361.875 397.812 361.875C395.25 361.875 393.375 363.438 393.406 365.562C393.375 367.656 395.125 369.094 397.812 369.094ZM397.812 358.844C400 358.844 401.562 357.469 401.562 355.5C401.562 353.594 400.031 352.25 397.812 352.25C395.562 352.25 394.031 353.562 394.031 355.5C394.031 357.469 395.594 358.844 397.812 358.844Z" fill="black"/>
<path d="M377.5 372.312C372.062 372.312 368.812 368.094 368.812 360.688C368.812 353.312 372.062 349.062 377.5 349.062C382.906 349.062 386.188 353.312 386.188 360.688C386.188 368.094 382.938 372.312 377.5 372.312ZM377.5 368.906C380.344 368.906 382.094 366.125 382.094 360.688C382.094 355.281 380.312 352.438 377.5 352.438C374.688 352.438 372.906 355.281 372.906 360.688C372.906 366.125 374.656 368.906 377.5 368.906Z" fill="black"/>
<path d="M349.875 372V369.062L357.875 361.344C360.156 359.062 361.344 357.719 361.344 355.812C361.344 353.719 359.688 352.375 357.469 352.375C355.125 352.375 353.625 353.844 353.656 356.125H349.781C349.75 351.844 352.969 349.062 357.5 349.062C362.125 349.062 365.25 351.812 365.25 355.625C365.25 358.188 364 360.25 359.563 364.438L355.531 368.438V368.594H365.594V372H349.875Z" fill="black"/>
</g>
<g id="mirae_hall_209">
<path d="M98 299C98 294.582 101.582 291 106 291H324C328.418 291 332 294.582 332 299V424C332 428.418 328.418 432 324 432H106C101.582 432 98 428.418 98 424V299Z" fill="#F7FBFF"/>
<path d="M324 429V432H106L106 429H324ZM329 424V299C329 296.239 326.761 294 324 294H106C103.239 294 101 296.239 101 299V424C101 426.761 103.239 429 106 429L106 432L105.588 431.989C101.361 431.775 98 428.28 98 424V299C98 294.582 101.582 291 106 291H324C328.418 291 332 294.582 332 299V424C332 428.418 328.418 432 324 432V429C326.761 429 329 426.761 329 424Z" fill="#2E2F33" fill-opacity="0.88"/>
<path d="M234.625 349.063C239.062 349.094 243.438 351.719 243.469 360C243.469 367.812 239.938 372.312 234.375 372.312C230 372.312 227 369.594 226.5 365.844H230.531C230.938 367.625 232.312 368.781 234.375 368.781C237.656 368.781 239.5 365.875 239.531 361.031H239.281C238.125 363 235.969 364.156 233.469 364.156C229.438 364.156 226.312 361.094 226.281 356.812C226.281 352.375 229.594 349.031 234.625 349.063ZM234.656 352.344C232.125 352.344 230.219 354.312 230.25 356.719C230.25 359.156 232.062 361.062 234.594 361.062C237.094 361.062 239.062 359.031 239.031 356.688C239.031 354.375 237.188 352.344 234.656 352.344Z" fill="black"/>
<path d="M214.5 372.312C209.062 372.312 205.812 368.094 205.812 360.688C205.812 353.312 209.062 349.062 214.5 349.062C219.906 349.062 223.188 353.312 223.188 360.688C223.188 368.094 219.938 372.312 214.5 372.312ZM214.5 368.906C217.344 368.906 219.094 366.125 219.094 360.688C219.094 355.281 217.312 352.438 214.5 352.438C211.688 352.438 209.906 355.281 209.906 360.688C209.906 366.125 211.656 368.906 214.5 368.906Z" fill="black"/>
<path d="M186.875 372V369.062L194.875 361.344C197.156 359.062 198.344 357.719 198.344 355.812C198.344 353.719 196.688 352.375 194.469 352.375C192.125 352.375 190.625 353.844 190.656 356.125H186.781C186.75 351.844 189.969 349.062 194.5 349.062C199.125 349.062 202.25 351.812 202.25 355.625C202.25 358.188 201 360.25 196.562 364.438L192.531 368.438V368.594H202.594V372H186.875Z" fill="black"/>
</g>
<g id="mirae_hall_2f_elevator_left">
<path d="M1204 75C1204 70.5817 1207.58 67 1212 67H1262C1266.42 67 1270 70.5817 1270 75V125C1270 129.418 1266.42 133 1262 133H1212C1207.58 133 1204 129.418 1204 125V75Z" fill="#F2F2F2"/>
<path d="M1262 130V133H1212V130H1262ZM1267 125V75C1267 72.2386 1264.76 70 1262 70H1212C1209.24 70 1207 72.2386 1207 75V125C1207 127.761 1209.24 130 1212 130V133C1207.58 133 1204 129.418 1204 125V75C1204 70.5817 1207.58 67 1212 67H1262C1266.42 67 1270 70.5817 1270 75V125C1270 129.418 1266.42 133 1262 133V130C1264.76 130 1267 127.761 1267 125Z" fill="#2E2F33" fill-opacity="0.88"/>
<path d="M1247.62 79.375H1226.38C1220.85 79.375 1216.38 83.8525 1216.38 89.375V110.625C1216.38 116.147 1220.85 120.625 1226.38 120.625H1247.62C1253.15 120.625 1257.62 116.147 1257.62 110.625V89.375C1257.62 83.8525 1253.15 79.375 1247.62 79.375ZM1238.02 87.4338H1239.17C1239.29 87.4338 1239.38 87.3412 1239.38 87.2262V84.675C1239.38 84.5775 1239.46 84.4987 1239.56 84.4987H1241.45C1241.55 84.4987 1241.62 84.5775 1241.62 84.675V87.2262C1241.62 87.3412 1241.72 87.4338 1241.83 87.4338H1242.99C1243.15 87.4338 1243.24 87.6338 1243.12 87.7513L1240.76 90.11C1240.62 90.2513 1240.39 90.2513 1240.25 90.11L1237.89 87.7513C1237.77 87.6338 1237.85 87.4338 1238.02 87.4338ZM1230.33 86.9637L1232.69 84.605C1232.83 84.4637 1233.06 84.4637 1233.2 84.605L1235.56 86.9637C1235.67 87.0812 1235.59 87.2812 1235.42 87.2812H1234.27C1234.16 87.2812 1234.06 87.3738 1234.06 87.4888V90.04C1234.06 90.1375 1233.98 90.2163 1233.89 90.2163H1232C1231.9 90.2163 1231.82 90.1375 1231.82 90.04V87.4888C1231.82 87.3738 1231.73 87.2812 1231.61 87.2812H1230.46C1230.29 87.2812 1230.21 87.0812 1230.33 86.9637ZM1252.29 109.34C1252.29 112.355 1249.84 114.808 1246.82 114.808H1227.18C1224.16 114.808 1221.71 112.355 1221.71 109.34V97.54C1221.71 94.525 1224.16 92.0725 1227.18 92.0725H1246.82C1249.84 92.0725 1252.29 94.525 1252.29 97.54V109.34Z" fill="#4592FB"/>
<path d="M1246.82 93.04H1227.18C1224.69 93.04 1222.68 95.0588 1222.68 97.54V109.34C1222.68 111.821 1224.69 113.841 1227.18 113.841H1246.82C1249.3 113.841 1251.32 111.822 1251.32 109.34V97.54C1251.32 95.0588 1249.3 93.04 1246.82 93.04ZM1244.61 95.925C1245.24 95.925 1245.76 96.44 1245.76 97.075C1245.76 97.71 1245.24 98.225 1244.61 98.225C1243.98 98.225 1243.46 97.71 1243.46 97.075C1243.46 96.44 1243.98 95.925 1244.61 95.925ZM1236.87 95.925C1237.5 95.925 1238.02 96.44 1238.02 97.075C1238.02 97.71 1237.5 98.225 1236.87 98.225C1236.23 98.225 1235.72 97.71 1235.72 97.075C1235.72 96.44 1236.23 95.925 1236.87 95.925ZM1229.12 95.925C1229.76 95.925 1230.27 96.44 1230.27 97.075C1230.27 97.71 1229.76 98.225 1229.12 98.225C1228.49 98.225 1227.97 97.71 1227.97 97.075C1227.97 96.44 1228.49 95.925 1229.12 95.925ZM1232.45 104.081C1232.45 104.441 1232.16 104.734 1231.8 104.734C1231.44 104.734 1231.15 104.441 1231.15 104.081V100.663H1230.81V110.084C1230.81 110.477 1230.49 110.796 1230.1 110.796C1229.7 110.796 1229.38 110.477 1229.38 110.084V104.665H1228.86V110.084C1228.86 110.477 1228.54 110.796 1228.15 110.796C1227.75 110.796 1227.43 110.477 1227.43 110.084V100.663H1227V104.081C1227 104.441 1226.7 104.734 1226.34 104.734C1225.98 104.734 1225.69 104.441 1225.69 104.081V100.051C1225.69 99.33 1226.27 98.7463 1227 98.7463H1231.15C1231.87 98.7463 1232.45 99.33 1232.45 100.051V104.081H1232.45ZM1240.2 104.081C1240.2 104.441 1239.91 104.734 1239.55 104.734C1239.19 104.734 1238.89 104.441 1238.89 104.081V100.663H1238.55V110.084C1238.55 110.477 1238.23 110.796 1237.84 110.796C1237.45 110.796 1237.13 110.477 1237.13 110.084V104.665H1236.6V110.084C1236.6 110.477 1236.28 110.796 1235.89 110.796C1235.5 110.796 1235.18 110.477 1235.18 110.084V100.663H1234.74V104.081C1234.74 104.441 1234.45 104.734 1234.09 104.734C1233.73 104.734 1233.44 104.441 1233.44 104.081V100.051C1233.44 99.33 1234.02 98.7463 1234.74 98.7463H1238.89C1239.61 98.7463 1240.2 99.33 1240.2 100.051L1240.2 104.081ZM1247.94 104.081C1247.94 104.441 1247.65 104.734 1247.29 104.734C1246.93 104.734 1246.64 104.441 1246.64 104.081V100.663H1246.3V110.084C1246.3 110.477 1245.98 110.796 1245.58 110.796C1245.19 110.796 1244.87 110.477 1244.87 110.084V104.665H1244.35V110.084C1244.35 110.477 1244.03 110.796 1243.63 110.796C1243.24 110.796 1242.92 110.477 1242.92 110.084V100.663H1242.48V104.081C1242.48 104.441 1242.19 104.734 1241.83 104.734C1241.47 104.734 1241.18 104.441 1241.18 104.081V100.051C1241.18 99.33 1241.76 98.7463 1242.48 98.7463H1246.64C1247.36 98.7463 1247.94 99.33 1247.94 100.051V104.081H1247.94Z" fill="#4592FB"/>
<path d="M1236.87 98.225C1237.5 98.225 1238.02 97.71 1238.02 97.075C1238.02 96.44 1237.5 95.925 1236.87 95.925C1236.23 95.925 1235.72 96.44 1235.72 97.075C1235.72 97.71 1236.23 98.225 1236.87 98.225Z" fill="white"/>
<path d="M1229.12 98.225C1229.76 98.225 1230.27 97.71 1230.27 97.075C1230.27 96.44 1229.76 95.925 1229.12 95.925C1228.49 95.925 1227.97 96.44 1227.97 97.075C1227.97 97.71 1228.49 98.225 1229.12 98.225Z" fill="white"/>
<path d="M1244.61 98.225C1245.24 98.225 1245.76 97.71 1245.76 97.075C1245.76 96.44 1245.24 95.925 1244.61 95.925C1243.98 95.925 1243.46 96.44 1243.46 97.075C1243.46 97.71 1243.98 98.225 1244.61 98.225Z" fill="white"/>
<path d="M1246.83 92.075H1227.18C1224.16 92.075 1221.71 94.525 1221.71 97.5375V109.337C1221.71 112.35 1224.16 114.812 1227.18 114.812H1246.83C1249.84 114.812 1252.29 112.35 1252.29 109.337V97.5375C1252.29 94.525 1249.84 92.075 1246.83 92.075ZM1251.33 109.337C1251.33 111.825 1249.3 113.838 1246.83 113.838H1227.18C1224.7 113.838 1222.67 111.825 1222.67 109.337V97.5375C1222.67 95.0625 1224.7 93.0375 1227.18 93.0375H1246.83C1249.3 93.0375 1251.33 95.0625 1251.33 97.5375V109.337Z" fill="white"/>
<path d="M1247.94 100.05V104.075C1247.94 104.438 1247.65 104.737 1247.29 104.737C1246.92 104.737 1246.64 104.438 1246.64 104.075V100.663L1246.3 100.662V110.087C1246.3 110.475 1245.98 110.8 1245.59 110.8C1245.19 110.8 1244.88 110.475 1244.88 110.087V104.662H1244.35V110.087C1244.35 110.475 1244.02 110.8 1243.64 110.8C1243.24 110.8 1242.92 110.475 1242.92 110.087V100.662H1242.49V104.075C1242.49 104.438 1242.19 104.737 1241.84 104.737C1241.48 104.737 1241.17 104.438 1241.17 104.075V100.05C1241.17 99.325 1241.76 98.75 1242.49 98.75H1246.64C1247.36 98.75 1247.94 99.325 1247.94 100.05Z" fill="white"/>
<path d="M1232.45 100.05V104.075C1232.45 104.438 1232.16 104.737 1231.8 104.737C1231.44 104.737 1231.15 104.438 1231.15 104.075V100.663L1230.81 100.662V110.087C1230.81 110.475 1230.49 110.8 1230.1 110.8C1229.7 110.8 1229.39 110.475 1229.39 110.087V104.662H1228.86V110.087C1228.86 110.475 1228.54 110.8 1228.15 110.8C1227.75 110.8 1227.44 110.475 1227.44 110.087V100.662H1227V104.075C1227 104.438 1226.7 104.737 1226.35 104.737C1225.99 104.737 1225.69 104.438 1225.69 104.075V100.05C1225.69 99.325 1226.27 98.75 1227 98.75H1231.15C1231.88 98.75 1232.45 99.325 1232.45 100.05Z" fill="white"/>
<path d="M1240.2 100.05V104.075C1240.2 104.438 1239.91 104.737 1239.55 104.737C1239.19 104.737 1238.9 104.438 1238.9 104.075V100.662H1238.55V110.087C1238.55 110.475 1238.24 110.8 1237.84 110.8C1237.45 110.8 1237.12 110.475 1237.12 110.087V104.662H1236.6V110.087C1236.6 110.475 1236.29 110.8 1235.89 110.8C1235.5 110.8 1235.17 110.475 1235.17 110.087V100.662H1234.74V104.075C1234.74 104.438 1234.45 104.737 1234.09 104.737C1233.73 104.737 1233.44 104.438 1233.44 104.075V100.05C1233.44 99.325 1234.02 98.75 1234.74 98.75H1238.9C1239.61 98.75 1240.2 99.325 1240.2 100.05Z" fill="white"/>
<path d="M1230.46 87.2815H1231.61C1231.73 87.2815 1231.82 87.374 1231.82 87.489V90.0402C1231.82 90.1377 1231.9 90.2165 1232 90.2165H1233.89C1233.99 90.2165 1234.06 90.1377 1234.06 90.0402V87.489C1234.06 87.374 1234.16 87.2815 1234.27 87.2815H1235.42C1235.59 87.2815 1235.67 87.0802 1235.56 86.964L1233.2 84.6052C1233.06 84.464 1232.83 84.464 1232.69 84.6052L1230.33 86.964C1230.21 87.0815 1230.29 87.2815 1230.46 87.2815Z" fill="white"/>
<path d="M1240.25 90.11C1240.39 90.2513 1240.62 90.2513 1240.76 90.11L1243.11 87.7513C1243.23 87.6338 1243.15 87.4338 1242.98 87.4338H1241.83C1241.71 87.4338 1241.62 87.3412 1241.62 87.2262V84.675C1241.62 84.5775 1241.54 84.4988 1241.45 84.4988H1239.56C1239.46 84.4988 1239.38 84.5775 1239.38 84.675V87.2262C1239.38 87.3412 1239.29 87.4338 1239.17 87.4338H1238.02C1237.85 87.4338 1237.77 87.6338 1237.89 87.7513L1240.25 90.11Z" fill="white"/>
</g>
<g id="mirae_hall_2f_elevator_right">
<path d="M1031 983C1031 978.582 1034.58 975 1039 975H1095C1099.42 975 1103 978.582 1103 983V1047C1103 1051.42 1099.42 1055 1095 1055H1039C1034.58 1055 1031 1051.42 1031 1047V983Z" fill="#F2F2F2"/>
<path d="M1095 1052V1055H1039L1039 1052H1095ZM1100 1047V983C1100 980.239 1097.76 978 1095 978H1039C1036.24 978 1034 980.239 1034 983V1047C1034 1049.76 1036.24 1052 1039 1052L1039 1055L1038.59 1054.99C1034.36 1054.77 1031 1051.28 1031 1047V983C1031 978.582 1034.58 975 1039 975H1095C1099.42 975 1103 978.582 1103 983V1047C1103 1051.42 1099.42 1055 1095 1055V1052C1097.76 1052 1100 1049.76 1100 1047Z" fill="#2E2F33" fill-opacity="0.88"/>
<path d="M1077.62 994.375H1056.38C1050.85 994.375 1046.38 998.853 1046.38 1004.38V1025.62C1046.38 1031.15 1050.85 1035.62 1056.38 1035.62H1077.62C1083.15 1035.62 1087.62 1031.15 1087.62 1025.62V1004.38C1087.62 998.853 1083.15 994.375 1077.62 994.375ZM1068.02 1002.43H1069.17C1069.29 1002.43 1069.38 1002.34 1069.38 1002.23V999.675C1069.38 999.577 1069.46 999.499 1069.56 999.499H1071.45C1071.55 999.499 1071.62 999.577 1071.62 999.675V1002.23C1071.62 1002.34 1071.72 1002.43 1071.83 1002.43H1072.99C1073.15 1002.43 1073.24 1002.63 1073.12 1002.75L1070.76 1005.11C1070.62 1005.25 1070.39 1005.25 1070.25 1005.11L1067.89 1002.75C1067.77 1002.63 1067.85 1002.43 1068.02 1002.43ZM1060.33 1001.96L1062.69 999.605C1062.83 999.464 1063.06 999.464 1063.2 999.605L1065.56 1001.96C1065.67 1002.08 1065.59 1002.28 1065.42 1002.28H1064.27C1064.15 1002.28 1064.06 1002.37 1064.06 1002.49V1005.04C1064.06 1005.14 1063.98 1005.22 1063.89 1005.22H1062C1061.9 1005.22 1061.82 1005.14 1061.82 1005.04V1002.49C1061.82 1002.37 1061.73 1002.28 1061.61 1002.28H1060.46C1060.29 1002.28 1060.21 1002.08 1060.33 1001.96ZM1082.29 1024.34C1082.29 1027.35 1079.84 1029.81 1076.82 1029.81H1057.18C1054.16 1029.81 1051.71 1027.35 1051.71 1024.34V1012.54C1051.71 1009.53 1054.16 1007.07 1057.18 1007.07H1076.82C1079.84 1007.07 1082.29 1009.53 1082.29 1012.54V1024.34Z" fill="#4592FB"/>
<path d="M1076.82 1008.04H1057.18C1054.69 1008.04 1052.68 1010.06 1052.68 1012.54V1024.34C1052.68 1026.82 1054.69 1028.84 1057.18 1028.84H1076.82C1079.3 1028.84 1081.32 1026.82 1081.32 1024.34V1012.54C1081.32 1010.06 1079.3 1008.04 1076.82 1008.04ZM1074.61 1010.92C1075.24 1010.92 1075.76 1011.44 1075.76 1012.08C1075.76 1012.71 1075.24 1013.22 1074.61 1013.22C1073.98 1013.22 1073.46 1012.71 1073.46 1012.08C1073.46 1011.44 1073.98 1010.92 1074.61 1010.92ZM1066.87 1010.92C1067.5 1010.92 1068.02 1011.44 1068.02 1012.08C1068.02 1012.71 1067.5 1013.22 1066.87 1013.22C1066.23 1013.22 1065.72 1012.71 1065.72 1012.08C1065.72 1011.44 1066.23 1010.92 1066.87 1010.92ZM1059.12 1010.92C1059.76 1010.92 1060.27 1011.44 1060.27 1012.08C1060.27 1012.71 1059.76 1013.22 1059.12 1013.22C1058.49 1013.22 1057.97 1012.71 1057.97 1012.08C1057.97 1011.44 1058.49 1010.92 1059.12 1010.92ZM1062.45 1019.08C1062.45 1019.44 1062.16 1019.73 1061.8 1019.73C1061.44 1019.73 1061.15 1019.44 1061.15 1019.08V1015.66H1060.81V1025.08C1060.81 1025.48 1060.49 1025.8 1060.1 1025.8C1059.7 1025.8 1059.38 1025.48 1059.38 1025.08V1019.67H1058.86V1025.08C1058.86 1025.48 1058.54 1025.8 1058.15 1025.8C1057.75 1025.8 1057.43 1025.48 1057.43 1025.08V1015.66H1057V1019.08C1057 1019.44 1056.7 1019.73 1056.34 1019.73C1055.98 1019.73 1055.69 1019.44 1055.69 1019.08V1015.05C1055.69 1014.33 1056.27 1013.75 1057 1013.75H1061.15C1061.87 1013.75 1062.45 1014.33 1062.45 1015.05V1019.08H1062.45ZM1070.2 1019.08C1070.2 1019.44 1069.91 1019.73 1069.55 1019.73C1069.19 1019.73 1068.89 1019.44 1068.89 1019.08V1015.66H1068.55V1025.08C1068.55 1025.48 1068.23 1025.8 1067.84 1025.8C1067.45 1025.8 1067.13 1025.48 1067.13 1025.08V1019.67H1066.6V1025.08C1066.6 1025.48 1066.28 1025.8 1065.89 1025.8C1065.5 1025.8 1065.18 1025.48 1065.18 1025.08V1015.66H1064.74V1019.08C1064.74 1019.44 1064.45 1019.73 1064.09 1019.73C1063.73 1019.73 1063.44 1019.44 1063.44 1019.08V1015.05C1063.44 1014.33 1064.02 1013.75 1064.74 1013.75H1068.89C1069.61 1013.75 1070.2 1014.33 1070.2 1015.05L1070.2 1019.08ZM1077.94 1019.08C1077.94 1019.44 1077.65 1019.73 1077.29 1019.73C1076.93 1019.73 1076.64 1019.44 1076.64 1019.08V1015.66H1076.3V1025.08C1076.3 1025.48 1075.98 1025.8 1075.58 1025.8C1075.19 1025.8 1074.87 1025.48 1074.87 1025.08V1019.67H1074.35V1025.08C1074.35 1025.48 1074.03 1025.8 1073.63 1025.8C1073.24 1025.8 1072.92 1025.48 1072.92 1025.08V1015.66H1072.48V1019.08C1072.48 1019.44 1072.19 1019.73 1071.83 1019.73C1071.47 1019.73 1071.18 1019.44 1071.18 1019.08V1015.05C1071.18 1014.33 1071.76 1013.75 1072.48 1013.75H1076.64C1077.36 1013.75 1077.94 1014.33 1077.94 1015.05V1019.08H1077.94Z" fill="#4592FB"/>
<path d="M1066.87 1013.22C1067.5 1013.22 1068.02 1012.71 1068.02 1012.08C1068.02 1011.44 1067.5 1010.92 1066.87 1010.92C1066.23 1010.92 1065.72 1011.44 1065.72 1012.08C1065.72 1012.71 1066.23 1013.22 1066.87 1013.22Z" fill="white"/>
<path d="M1059.12 1013.22C1059.76 1013.22 1060.27 1012.71 1060.27 1012.08C1060.27 1011.44 1059.76 1010.92 1059.12 1010.92C1058.49 1010.92 1057.97 1011.44 1057.97 1012.08C1057.97 1012.71 1058.49 1013.22 1059.12 1013.22Z" fill="white"/>
<path d="M1074.61 1013.22C1075.24 1013.22 1075.76 1012.71 1075.76 1012.08C1075.76 1011.44 1075.24 1010.92 1074.61 1010.92C1073.98 1010.92 1073.46 1011.44 1073.46 1012.08C1073.46 1012.71 1073.98 1013.22 1074.61 1013.22Z" fill="white"/>
<path d="M1076.83 1007.08H1057.18C1054.16 1007.08 1051.71 1009.53 1051.71 1012.54V1024.34C1051.71 1027.35 1054.16 1029.81 1057.18 1029.81H1076.83C1079.84 1029.81 1082.29 1027.35 1082.29 1024.34V1012.54C1082.29 1009.53 1079.84 1007.08 1076.83 1007.08ZM1081.33 1024.34C1081.33 1026.82 1079.3 1028.84 1076.83 1028.84H1057.18C1054.7 1028.84 1052.67 1026.82 1052.67 1024.34V1012.54C1052.67 1010.06 1054.7 1008.04 1057.18 1008.04H1076.83C1079.3 1008.04 1081.33 1010.06 1081.33 1012.54V1024.34Z" fill="white"/>
<path d="M1077.94 1015.05V1019.08C1077.94 1019.44 1077.65 1019.74 1077.29 1019.74C1076.92 1019.74 1076.64 1019.44 1076.64 1019.08V1015.66L1076.3 1015.66V1025.09C1076.3 1025.47 1075.98 1025.8 1075.59 1025.8C1075.19 1025.8 1074.88 1025.47 1074.88 1025.09V1019.66H1074.35V1025.09C1074.35 1025.47 1074.02 1025.8 1073.64 1025.8C1073.24 1025.8 1072.92 1025.47 1072.92 1025.09V1015.66H1072.49V1019.08C1072.49 1019.44 1072.19 1019.74 1071.84 1019.74C1071.48 1019.74 1071.17 1019.44 1071.17 1019.08V1015.05C1071.17 1014.33 1071.76 1013.75 1072.49 1013.75H1076.64C1077.36 1013.75 1077.94 1014.33 1077.94 1015.05Z" fill="white"/>
<path d="M1062.45 1015.05V1019.08C1062.45 1019.44 1062.16 1019.74 1061.8 1019.74C1061.44 1019.74 1061.15 1019.44 1061.15 1019.08V1015.66L1060.81 1015.66V1025.09C1060.81 1025.47 1060.49 1025.8 1060.1 1025.8C1059.7 1025.8 1059.39 1025.47 1059.39 1025.09V1019.66H1058.86V1025.09C1058.86 1025.47 1058.54 1025.8 1058.15 1025.8C1057.75 1025.8 1057.44 1025.47 1057.44 1025.09V1015.66H1057V1019.08C1057 1019.44 1056.7 1019.74 1056.35 1019.74C1055.99 1019.74 1055.69 1019.44 1055.69 1019.08V1015.05C1055.69 1014.33 1056.27 1013.75 1057 1013.75H1061.15C1061.88 1013.75 1062.45 1014.33 1062.45 1015.05Z" fill="white"/>
<path d="M1070.2 1015.05V1019.08C1070.2 1019.44 1069.91 1019.74 1069.55 1019.74C1069.19 1019.74 1068.9 1019.44 1068.9 1019.08V1015.66H1068.55V1025.09C1068.55 1025.47 1068.24 1025.8 1067.84 1025.8C1067.45 1025.8 1067.12 1025.47 1067.12 1025.09V1019.66H1066.6V1025.09C1066.6 1025.47 1066.29 1025.8 1065.89 1025.8C1065.5 1025.8 1065.17 1025.47 1065.17 1025.09V1015.66H1064.74V1019.08C1064.74 1019.44 1064.45 1019.74 1064.09 1019.74C1063.72 1019.74 1063.44 1019.44 1063.44 1019.08V1015.05C1063.44 1014.33 1064.02 1013.75 1064.74 1013.75H1068.9C1069.61 1013.75 1070.2 1014.33 1070.2 1015.05Z" fill="white"/>
<path d="M1060.46 1002.28H1061.61C1061.73 1002.28 1061.82 1002.37 1061.82 1002.49V1005.04C1061.82 1005.14 1061.9 1005.22 1062 1005.22H1063.89C1063.99 1005.22 1064.06 1005.14 1064.06 1005.04V1002.49C1064.06 1002.37 1064.16 1002.28 1064.27 1002.28H1065.42C1065.59 1002.28 1065.67 1002.08 1065.56 1001.96L1063.2 999.605C1063.06 999.464 1062.83 999.464 1062.69 999.605L1060.33 1001.96C1060.21 1002.08 1060.29 1002.28 1060.46 1002.28Z" fill="white"/>
<path d="M1070.25 1005.11C1070.39 1005.25 1070.62 1005.25 1070.76 1005.11L1073.11 1002.75C1073.23 1002.63 1073.15 1002.43 1072.98 1002.43H1071.83C1071.71 1002.43 1071.62 1002.34 1071.62 1002.23V999.675C1071.62 999.577 1071.54 999.499 1071.45 999.499H1069.56C1069.46 999.499 1069.38 999.577 1069.38 999.675V1002.23C1069.38 1002.34 1069.29 1002.43 1069.17 1002.43H1068.02C1067.85 1002.43 1067.77 1002.63 1067.89 1002.75L1070.25 1005.11Z" fill="white"/>
</g>
</g>
</svg>
