<svg width="2048" height="559" viewBox="0 0 2048 559" fill="none" xmlns="http://www.w3.org/2000/svg">
<g id="baekun_hall_floor_5">
<g id="Vector">
<path d="M92.5029 555.002L4.00293 228.502L795.003 16.5025L877.003 3H1191.5L1273 23.0025L2043.5 232.502L1958 550.502L1195 343.502V359.499H881.003L879.003 339L92.5029 555.002Z" fill="#999999"/>
<path d="M1191.87 0L1192.22 0.0869141L1273.72 20.0889L1273.75 20.0977L1273.79 20.1074L2047.18 230.393L1960.12 554.185L1198 347.424V362.499H878.281L876.363 342.835L90.3945 558.692L0.320312 226.384L794.369 13.5664L794.516 13.542L876.758 0H1191.87ZM795.635 19.4385L7.68457 230.621L94.6104 551.312L881.643 335.164L883.725 356.499H1192V339.58L1955.89 546.819L2039.83 234.612L1272.25 25.9053L1191.14 6H877.247L795.635 19.4385Z" fill="black"/>
</g>
<g id="baekun_hall_5f_elevator">
<path d="M1289.1 148.763C1290.24 144.496 1287.71 140.109 1283.44 138.965L1240.79 127.536C1236.52 126.393 1232.14 128.925 1230.99 133.193L1222.96 163.163C1221.82 167.43 1224.35 171.817 1228.62 172.961L1271.27 184.39C1275.54 185.533 1279.93 183.001 1281.07 178.733L1289.1 148.763Z" fill="#C4C4C4"/>
<path d="M1229.4 170.062L1228.62 172.961L1271.27 184.39L1272.05 181.492L1229.4 170.062ZM1225.86 163.939L1233.89 133.97C1234.6 131.302 1237.35 129.72 1240.01 130.434L1282.67 141.863C1285.34 142.578 1286.92 145.32 1286.2 147.987L1278.17 177.956C1277.46 180.623 1274.72 182.206 1272.05 181.492L1271.27 184.39L1271.67 184.487C1275.81 185.373 1279.96 182.867 1281.07 178.733L1289.1 148.763C1290.21 144.629 1287.87 140.384 1283.84 139.082L1283.44 138.965L1240.79 127.536L1240.39 127.44C1236.25 126.553 1232.1 129.059 1230.99 133.193L1222.96 163.163L1222.87 163.563C1222.01 167.568 1224.33 171.585 1228.22 172.844L1228.62 172.961L1229.4 170.062C1226.73 169.348 1225.14 166.606 1225.86 163.939Z" fill="#2E2F33" fill-opacity="0.88"/>
<path d="M1264.93 138.674H1247.08C1242.44 138.674 1238.68 142.435 1238.68 147.074V164.924C1238.68 169.563 1242.44 173.324 1247.08 173.324H1264.93C1269.56 173.324 1273.33 169.563 1273.33 164.924V147.074C1273.33 142.435 1269.56 138.674 1264.93 138.674ZM1256.86 145.443H1257.83C1257.92 145.443 1258 145.366 1258 145.269V143.126C1258 143.044 1258.07 142.978 1258.15 142.978H1259.74C1259.82 142.978 1259.89 143.044 1259.89 143.126V145.269C1259.89 145.366 1259.96 145.443 1260.06 145.443H1261.03C1261.17 145.443 1261.24 145.611 1261.14 145.71L1259.16 147.691C1259.04 147.81 1258.85 147.81 1258.73 147.691L1256.75 145.71C1256.65 145.611 1256.72 145.443 1256.86 145.443ZM1250.4 145.048L1252.38 143.067C1252.5 142.948 1252.69 142.948 1252.8 143.067L1254.79 145.048C1254.88 145.147 1254.81 145.315 1254.68 145.315H1253.71C1253.61 145.315 1253.53 145.393 1253.53 145.489V147.632C1253.53 147.714 1253.47 147.781 1253.38 147.781H1251.8C1251.71 147.781 1251.65 147.714 1251.65 147.632V145.489C1251.65 145.393 1251.57 145.315 1251.47 145.315H1250.5C1250.36 145.315 1250.3 145.147 1250.4 145.048ZM1268.84 163.844C1268.84 166.377 1266.78 168.437 1264.25 168.437H1247.75C1245.22 168.437 1243.16 166.377 1243.16 163.844V153.932C1243.16 151.4 1245.22 149.34 1247.75 149.34H1264.25C1266.78 149.34 1268.84 151.4 1268.84 153.932V163.844Z" fill="#4592FB"/>
<path d="M1264.25 150.152H1247.75C1245.66 150.152 1243.97 151.848 1243.97 153.932V163.844C1243.97 165.929 1245.66 167.626 1247.75 167.626H1264.25C1266.34 167.626 1268.03 165.93 1268.03 163.844V153.932C1268.03 151.848 1266.34 150.152 1264.25 150.152ZM1262.39 152.576C1262.93 152.576 1263.36 153.008 1263.36 153.542C1263.36 154.075 1262.93 154.508 1262.39 154.508C1261.86 154.508 1261.43 154.075 1261.43 153.542C1261.43 153.008 1261.86 152.576 1262.39 152.576ZM1255.89 152.576C1256.42 152.576 1256.85 153.008 1256.85 153.542C1256.85 154.075 1256.42 154.508 1255.89 154.508C1255.35 154.508 1254.92 154.075 1254.92 153.542C1254.92 153.008 1255.35 152.576 1255.89 152.576ZM1249.38 152.576C1249.92 152.576 1250.35 153.008 1250.35 153.542C1250.35 154.075 1249.92 154.508 1249.38 154.508C1248.85 154.508 1248.42 154.075 1248.42 153.542C1248.42 153.008 1248.85 152.576 1249.38 152.576ZM1252.18 159.427C1252.18 159.73 1251.94 159.975 1251.63 159.975C1251.33 159.975 1251.09 159.73 1251.09 159.427V156.555H1250.8V164.469C1250.8 164.8 1250.53 165.068 1250.2 165.068C1249.87 165.068 1249.6 164.8 1249.6 164.469V159.917H1249.16V164.469C1249.16 164.8 1248.89 165.068 1248.56 165.068C1248.23 165.068 1247.96 164.8 1247.96 164.469V156.555H1247.6V159.427C1247.6 159.73 1247.35 159.975 1247.05 159.975C1246.75 159.975 1246.5 159.73 1246.5 159.427V156.042C1246.5 155.436 1246.99 154.946 1247.6 154.946H1251.08C1251.69 154.946 1252.18 155.436 1252.18 156.042V159.427H1252.18ZM1258.69 159.427C1258.69 159.73 1258.44 159.975 1258.14 159.975C1257.84 159.975 1257.59 159.73 1257.59 159.427V156.555H1257.3V164.469C1257.3 164.8 1257.04 165.068 1256.71 165.068C1256.37 165.068 1256.11 164.8 1256.11 164.469V159.917H1255.67V164.469C1255.67 164.8 1255.4 165.068 1255.07 165.068C1254.74 165.068 1254.47 164.8 1254.47 164.469V156.555H1254.1V159.427C1254.1 159.73 1253.86 159.975 1253.55 159.975C1253.25 159.975 1253.01 159.73 1253.01 159.427V156.042C1253.01 155.436 1253.5 154.946 1254.1 154.946H1257.59C1258.2 154.946 1258.69 155.436 1258.69 156.042L1258.69 159.427ZM1265.19 159.427C1265.19 159.73 1264.95 159.975 1264.64 159.975C1264.34 159.975 1264.1 159.73 1264.1 159.427V156.555H1263.81V164.469C1263.81 164.8 1263.54 165.068 1263.21 165.068C1262.88 165.068 1262.61 164.8 1262.61 164.469V159.917H1262.17V164.469C1262.17 164.8 1261.9 165.068 1261.57 165.068C1261.24 165.068 1260.97 164.8 1260.97 164.469V156.555H1260.61V159.427C1260.61 159.73 1260.36 159.975 1260.06 159.975C1259.75 159.975 1259.51 159.73 1259.51 159.427V156.042C1259.51 155.436 1260 154.946 1260.61 154.946H1264.09C1264.7 154.946 1265.19 155.436 1265.19 156.042V159.427H1265.19Z" fill="#4592FB"/>
<path d="M1255.89 154.508C1256.42 154.508 1256.85 154.075 1256.85 153.542C1256.85 153.008 1256.42 152.576 1255.89 152.576C1255.35 152.576 1254.92 153.008 1254.92 153.542C1254.92 154.075 1255.35 154.508 1255.89 154.508Z" fill="white"/>
<path d="M1249.38 154.508C1249.92 154.508 1250.35 154.075 1250.35 153.542C1250.35 153.008 1249.92 152.576 1249.38 152.576C1248.85 152.576 1248.42 153.008 1248.42 153.542C1248.42 154.075 1248.85 154.508 1249.38 154.508Z" fill="white"/>
<path d="M1262.39 154.508C1262.93 154.508 1263.36 154.075 1263.36 153.542C1263.36 153.008 1262.93 152.576 1262.39 152.576C1261.86 152.576 1261.43 153.008 1261.43 153.542C1261.43 154.075 1261.86 154.508 1262.39 154.508Z" fill="white"/>
<path d="M1264.25 149.342H1247.75C1245.22 149.342 1243.16 151.4 1243.16 153.93V163.842C1243.16 166.373 1245.22 168.441 1247.75 168.441H1264.25C1266.78 168.441 1268.84 166.373 1268.84 163.842V153.93C1268.84 151.4 1266.78 149.342 1264.25 149.342ZM1268.03 163.842C1268.03 165.932 1266.33 167.622 1264.25 167.622H1247.75C1245.67 167.622 1243.97 165.932 1243.97 163.842V153.93C1243.97 151.851 1245.67 150.15 1247.75 150.15H1264.25C1266.33 150.15 1268.03 151.851 1268.03 153.93V163.842Z" fill="white"/>
<path d="M1265.19 156.041V159.422C1265.19 159.726 1264.95 159.978 1264.64 159.978C1264.34 159.978 1264.1 159.726 1264.1 159.422V156.555H1263.81V164.472C1263.81 164.798 1263.54 165.071 1263.21 165.071C1262.88 165.071 1262.61 164.798 1262.61 164.472V159.915H1262.17V164.472C1262.17 164.798 1261.9 165.071 1261.58 165.071C1261.24 165.071 1260.98 164.798 1260.98 164.472V156.555H1260.61V159.422C1260.61 159.726 1260.36 159.978 1260.06 159.978C1259.76 159.978 1259.51 159.726 1259.51 159.422V156.041C1259.51 155.432 1260 154.949 1260.61 154.949H1264.1C1264.7 154.949 1265.19 155.432 1265.19 156.041Z" fill="white"/>
<path d="M1252.18 156.041V159.422C1252.18 159.726 1251.94 159.978 1251.63 159.978C1251.33 159.978 1251.09 159.726 1251.09 159.422L1251.09 156.555H1250.8V164.472C1250.8 164.798 1250.53 165.071 1250.2 165.071C1249.87 165.071 1249.61 164.798 1249.61 164.472V159.915H1249.16V164.472C1249.16 164.798 1248.89 165.071 1248.57 165.071C1248.23 165.071 1247.97 164.798 1247.97 164.472V156.555H1247.6V159.422C1247.6 159.726 1247.35 159.978 1247.05 159.978C1246.75 159.978 1246.5 159.726 1246.5 159.422V156.041C1246.5 155.432 1246.99 154.949 1247.6 154.949H1251.09C1251.69 154.949 1252.18 155.432 1252.18 156.041Z" fill="white"/>
<path d="M1258.69 156.041V159.422C1258.69 159.726 1258.45 159.978 1258.14 159.978C1257.84 159.978 1257.6 159.726 1257.6 159.422V156.555H1257.3V164.472C1257.3 164.798 1257.04 165.071 1256.7 165.071C1256.38 165.071 1256.1 164.798 1256.1 164.472V159.915H1255.66V164.472C1255.66 164.798 1255.4 165.071 1255.07 165.071C1254.74 165.071 1254.47 164.798 1254.47 164.472V156.555H1254.1V159.422C1254.1 159.726 1253.86 159.978 1253.55 159.978C1253.25 159.978 1253.01 159.726 1253.01 159.422V156.041C1253.01 155.432 1253.5 154.949 1254.1 154.949H1257.6C1258.19 154.949 1258.69 155.432 1258.69 156.041Z" fill="white"/>
<path d="M1250.51 145.315H1251.47C1251.57 145.315 1251.65 145.393 1251.65 145.49V147.633C1251.65 147.715 1251.71 147.781 1251.8 147.781H1253.39C1253.47 147.781 1253.53 147.715 1253.53 147.633V145.49C1253.53 145.393 1253.61 145.315 1253.71 145.315H1254.68C1254.82 145.315 1254.89 145.146 1254.79 145.049L1252.81 143.067C1252.69 142.949 1252.5 142.949 1252.38 143.067L1250.4 145.049C1250.3 145.147 1250.37 145.315 1250.51 145.315Z" fill="white"/>
<path d="M1258.73 147.691C1258.85 147.81 1259.04 147.81 1259.16 147.691L1261.14 145.71C1261.24 145.611 1261.16 145.443 1261.03 145.443H1260.06C1259.96 145.443 1259.88 145.366 1259.88 145.269V143.126C1259.88 143.044 1259.82 142.978 1259.73 142.978H1258.15C1258.06 142.978 1258 143.044 1258 143.126V145.269C1258 145.366 1257.92 145.443 1257.82 145.443H1256.85C1256.72 145.443 1256.65 145.611 1256.74 145.71L1258.73 147.691Z" fill="white"/>
</g>
<g id="baekun_hall_511">
<path d="M90.2746 215.382C89.131 211.114 91.6637 206.727 95.9314 205.584L227.707 170.275C231.974 169.131 236.361 171.664 237.505 175.931L274.221 312.96C275.365 317.227 272.832 321.614 268.564 322.758L136.789 358.067C132.521 359.21 128.135 356.678 126.991 352.41L90.2746 215.382Z" fill="#F7FBFF"/>
<path d="M267.788 319.86L268.564 322.758L136.789 358.067L136.013 355.169L267.788 319.86ZM271.323 313.736L234.607 176.708C233.892 174.041 231.15 172.458 228.483 173.172L96.7079 208.481C94.0405 209.196 92.4576 211.938 93.1724 214.605L129.889 351.633C130.604 354.301 133.345 355.884 136.013 355.169L136.789 358.067L136.388 358.163C132.383 359.021 128.367 356.702 127.108 352.804L126.991 352.41L90.2746 215.382C89.131 211.114 91.6637 206.727 95.9314 205.584L227.707 170.275L228.106 170.179C232.245 169.291 236.397 171.797 237.505 175.931L274.221 312.96L274.317 313.36C275.176 317.365 272.856 321.382 268.959 322.641L268.564 322.758L267.788 319.86C270.455 319.145 272.038 316.403 271.323 313.736Z" fill="#2E2F33" fill-opacity="0.88"/>
<path d="M203.501 253.375V276H199.407V257.344H199.282L194.001 260.719V257L199.595 253.375H203.501Z" fill="black"/>
<path d="M188.813 253.375V276H184.72V257.344H184.595L179.313 260.719V257L184.907 253.375H188.813Z" fill="black"/>
<path d="M167.907 276.312C163.376 276.312 160.063 273.625 159.938 269.875H163.907C164.032 271.719 165.751 273.031 167.907 273.031C170.438 273.031 172.251 271.187 172.251 268.687C172.251 266.094 170.376 264.25 167.782 264.25C166.032 264.219 164.751 264.844 164.032 266.187H160.251L161.626 253.375H175.001V256.781H164.97L164.282 262.781H164.501C165.376 261.781 167.032 261.062 168.876 261.062C173.095 261.062 176.188 264.219 176.188 268.562C176.188 273.094 172.782 276.312 167.907 276.312Z" fill="black"/>
</g>
<g id="baekun_hall_508">
<path d="M63.2746 435.782C62.131 431.514 64.6637 427.128 68.9314 425.984L291.77 366.275C296.038 365.131 300.425 367.664 301.568 371.931L330.667 480.531C331.811 484.799 329.278 489.186 325.01 490.329L102.172 550.039C97.904 551.182 93.5173 548.65 92.3738 544.382L63.2746 435.782Z" fill="#F7FBFF"/>
<path d="M324.234 487.431L325.01 490.329L102.172 550.039L101.395 547.141L324.234 487.431ZM327.769 481.308L298.67 372.708C297.955 370.041 295.214 368.458 292.546 369.172L69.7079 428.882C67.0406 429.597 65.4576 432.338 66.1724 435.006L95.2716 543.605C95.9863 546.273 98.728 547.855 101.395 547.141L102.172 550.039L101.771 550.135C97.6326 551.022 93.4816 548.516 92.3738 544.382L63.2746 435.782C62.131 431.514 64.6637 427.128 68.9314 425.984L291.77 366.275C296.038 365.131 300.425 367.664 301.568 371.931L330.667 480.531C331.811 484.799 329.278 489.186 325.01 490.329L324.234 487.431C326.901 486.717 328.484 483.975 327.769 481.308Z" fill="#2E2F33" fill-opacity="0.88"/>
<path d="M216.282 469.312C211.251 469.312 207.688 466.625 207.688 462.937C207.688 460.062 209.813 457.719 212.532 457.281V457.156C210.157 456.656 208.532 454.594 208.532 452.125C208.532 448.625 211.813 446.062 216.282 446.062C220.72 446.062 224.001 448.625 224.001 452.125C224.001 454.594 222.345 456.656 220.001 457.156V457.281C222.72 457.719 224.876 460.062 224.876 462.937C224.876 466.625 221.282 469.312 216.282 469.312ZM216.282 466.094C218.938 466.094 220.688 464.656 220.688 462.562C220.688 460.437 218.813 458.875 216.282 458.875C213.72 458.875 211.845 460.437 211.876 462.562C211.845 464.656 213.595 466.094 216.282 466.094ZM216.282 455.844C218.47 455.844 220.032 454.469 220.032 452.5C220.032 450.594 218.501 449.25 216.282 449.25C214.032 449.25 212.501 450.562 212.501 452.5C212.501 454.469 214.063 455.844 216.282 455.844Z" fill="black"/>
<path d="M195.97 469.312C190.532 469.312 187.282 465.094 187.282 457.687C187.282 450.312 190.532 446.062 195.97 446.062C201.376 446.062 204.657 450.312 204.657 457.687C204.657 465.094 201.407 469.312 195.97 469.312ZM195.97 465.906C198.813 465.906 200.563 463.125 200.563 457.687C200.563 452.281 198.782 449.437 195.97 449.437C193.157 449.437 191.376 452.281 191.376 457.687C191.376 463.125 193.126 465.906 195.97 465.906Z" fill="black"/>
<path d="M175.907 469.312C171.376 469.312 168.063 466.625 167.938 462.875H171.907C172.032 464.719 173.751 466.031 175.907 466.031C178.438 466.031 180.251 464.187 180.251 461.687C180.251 459.094 178.376 457.25 175.782 457.25C174.032 457.219 172.751 457.844 172.032 459.187H168.251L169.626 446.375H183.001V449.781H172.97L172.282 455.781H172.501C173.376 454.781 175.032 454.062 176.876 454.062C181.095 454.062 184.188 457.219 184.188 461.562C184.188 466.094 180.782 469.312 175.907 469.312Z" fill="black"/>
</g>
<g id="baekun_hall_505">
<path d="M298.275 371.171C297.131 366.903 299.664 362.517 303.931 361.373L531.954 300.275C536.222 299.131 540.608 301.664 541.752 305.931L570.851 414.531C571.995 418.799 569.462 423.186 565.194 424.329L337.172 485.428C332.904 486.571 328.517 484.039 327.374 479.771L298.275 371.171Z" fill="#F7FBFF"/>
<path d="M564.418 421.431L565.194 424.329L337.172 485.428L336.395 482.53L564.418 421.431ZM567.953 415.308L538.854 306.708C538.139 304.041 535.398 302.458 532.73 303.172L304.708 364.271C302.041 364.986 300.458 367.727 301.172 370.395L330.272 478.994C330.986 481.662 333.728 483.245 336.395 482.53L337.172 485.428C332.904 486.571 328.517 484.039 327.374 479.771L298.275 371.171C297.131 366.903 299.664 362.517 303.931 361.373L531.954 300.275L532.354 300.179C536.492 299.291 540.644 301.797 541.752 305.931L570.851 414.531L570.947 414.932C571.806 418.937 569.486 422.954 565.589 424.212L565.194 424.329L564.418 421.431C567.085 420.717 568.668 417.975 567.953 415.308Z" fill="#2E2F33" fill-opacity="0.88"/>
<path d="M454.095 404.313C449.563 404.313 446.251 401.625 446.126 397.875H450.095C450.22 399.719 451.938 401.031 454.095 401.031C456.626 401.031 458.438 399.188 458.438 396.688C458.438 394.094 456.563 392.25 453.97 392.25C452.22 392.219 450.938 392.844 450.22 394.188H446.438L447.813 381.375H461.188V384.781H451.157L450.47 390.781H450.688C451.563 389.781 453.22 389.063 455.063 389.063C459.282 389.063 462.376 392.219 462.376 396.563C462.376 401.094 458.97 404.313 454.095 404.313Z" fill="black"/>
<path d="M433.97 404.313C428.532 404.313 425.282 400.094 425.282 392.688C425.282 385.313 428.532 381.063 433.97 381.063C439.376 381.063 442.657 385.313 442.657 392.688C442.657 400.094 439.407 404.313 433.97 404.313ZM433.97 400.906C436.813 400.906 438.563 398.125 438.563 392.688C438.563 387.281 436.782 384.438 433.97 384.438C431.157 384.438 429.376 387.281 429.376 392.688C429.376 398.125 431.126 400.906 433.97 400.906Z" fill="black"/>
<path d="M413.907 404.313C409.376 404.313 406.063 401.625 405.938 397.875H409.907C410.032 399.719 411.751 401.031 413.907 401.031C416.438 401.031 418.251 399.188 418.251 396.688C418.251 394.094 416.376 392.25 413.782 392.25C412.032 392.219 410.751 392.844 410.032 394.188H406.251L407.626 381.375H421.001V384.781H410.97L410.282 390.781H410.501C411.376 389.781 413.032 389.063 414.876 389.063C419.095 389.063 422.188 392.219 422.188 396.563C422.188 401.094 418.782 404.313 413.907 404.313Z" fill="black"/>
</g>
<g id="baekun_hall_503">
<path d="M538.275 304.742C537.131 300.474 539.664 296.088 543.931 294.944L688.248 256.275C692.516 255.131 696.902 257.664 698.046 261.931L727.145 370.531C728.289 374.799 725.756 379.186 721.488 380.329L577.172 418.999C572.904 420.142 568.517 417.61 567.374 413.342L538.275 304.742Z" fill="#F7FBFF"/>
<path d="M720.712 377.431L721.488 380.329L577.172 418.999L576.395 416.101L720.712 377.431ZM724.247 371.308L695.148 262.708C694.433 260.041 691.691 258.458 689.024 259.172L544.708 297.842C542.041 298.557 540.458 301.298 541.172 303.966L570.272 412.565C570.986 415.233 573.728 416.816 576.395 416.101L577.172 418.999L576.771 419.095C572.633 419.982 568.482 417.476 567.374 413.342L538.275 304.742C537.131 300.474 539.664 296.088 543.931 294.944L688.248 256.275C692.516 255.131 696.902 257.664 698.046 261.931L727.145 370.531C728.289 374.799 725.756 379.186 721.488 380.329L720.712 377.431C723.379 376.717 724.962 373.975 724.247 371.308Z" fill="#2E2F33" fill-opacity="0.88"/>
<path d="M652.282 348.312C647.438 348.312 644.001 345.687 643.907 341.874H648.001C648.126 343.687 649.938 344.874 652.282 344.874C654.782 344.874 656.563 343.499 656.563 341.499C656.563 339.468 654.813 337.999 651.876 337.999H649.845V334.874H651.876C654.282 334.874 655.97 333.53 655.938 331.562C655.97 329.655 654.532 328.374 652.313 328.374C650.188 328.374 648.345 329.562 648.282 331.468H644.376C644.47 327.655 647.907 325.062 652.345 325.062C656.938 325.062 659.907 327.874 659.876 331.343C659.907 333.874 658.22 335.718 655.751 336.218V336.405C658.938 336.843 660.751 338.874 660.72 341.718C660.751 345.53 657.188 348.312 652.282 348.312Z" fill="black"/>
<path d="M631.97 348.312C626.532 348.312 623.282 344.093 623.282 336.687C623.282 329.312 626.532 325.062 631.97 325.062C637.376 325.062 640.657 329.312 640.657 336.687C640.657 344.093 637.407 348.312 631.97 348.312ZM631.97 344.905C634.813 344.905 636.563 342.124 636.563 336.687C636.563 331.28 634.782 328.437 631.97 328.437C629.157 328.437 627.376 331.28 627.376 336.687C627.376 342.124 629.126 344.905 631.97 344.905Z" fill="black"/>
<path d="M611.907 348.312C607.376 348.312 604.063 345.624 603.938 341.874H607.907C608.032 343.718 609.751 345.03 611.907 345.03C614.438 345.03 616.251 343.187 616.251 340.687C616.251 338.093 614.376 336.249 611.782 336.249C610.032 336.218 608.751 336.843 608.032 338.187H604.251L605.626 325.374H619.001V328.78H608.97L608.282 334.78H608.501C609.376 333.78 611.032 333.062 612.876 333.062C617.095 333.062 620.188 336.218 620.188 340.562C620.188 345.093 616.782 348.312 611.907 348.312Z" fill="black"/>
</g>
<g id="baekun_hall_501">
<path d="M695.275 261.977C694.131 257.709 696.664 253.322 700.931 252.179L842.392 214.275C846.659 213.131 851.046 215.664 852.189 219.931L881.289 328.531C882.432 332.799 879.9 337.186 875.632 338.329L734.172 376.233C729.904 377.377 725.517 374.844 724.374 370.576L695.275 261.977Z" fill="#F7FBFF"/>
<path d="M874.855 335.431L875.632 338.329L734.172 376.233L733.395 373.336L874.855 335.431ZM878.391 329.308L849.292 220.708C848.577 218.041 845.835 216.458 843.168 217.172L701.708 255.076C699.041 255.791 697.458 258.533 698.172 261.2L727.272 369.8C727.986 372.467 730.728 374.05 733.395 373.336L734.172 376.233C729.904 377.377 725.517 374.844 724.374 370.576L695.275 261.977C694.131 257.709 696.664 253.322 700.931 252.179L842.392 214.275C846.659 213.131 851.046 215.664 852.189 219.931L881.289 328.531C882.432 332.799 879.9 337.186 875.632 338.329L874.855 335.431C877.523 334.717 879.106 331.975 878.391 329.308Z" fill="#2E2F33" fill-opacity="0.88"/>
<path d="M812.251 283.374V305.999H808.157V287.343H808.032L802.751 290.718V286.999L808.345 283.374H812.251Z" fill="black"/>
<path d="M790.97 306.312C785.532 306.312 782.282 302.093 782.282 294.687C782.282 287.312 785.532 283.062 790.97 283.062C796.376 283.062 799.657 287.312 799.657 294.687C799.657 302.093 796.407 306.312 790.97 306.312ZM790.97 302.906C793.813 302.906 795.563 300.124 795.563 294.687C795.563 289.281 793.782 286.437 790.97 286.437C788.157 286.437 786.376 289.281 786.376 294.687C786.376 300.124 788.126 302.906 790.97 302.906Z" fill="black"/>
<path d="M770.907 306.312C766.376 306.312 763.063 303.624 762.938 299.874H766.907C767.032 301.718 768.751 303.031 770.907 303.031C773.438 303.031 775.251 301.187 775.251 298.687C775.251 296.093 773.376 294.249 770.782 294.249C769.032 294.218 767.751 294.843 767.032 296.187H763.251L764.626 283.374H778.001V286.781H767.97L767.282 292.781H767.501C768.376 291.781 770.032 291.062 771.876 291.062C776.095 291.062 779.188 294.218 779.188 298.562C779.188 303.093 775.782 306.312 770.907 306.312Z" fill="black"/>
</g>
<g id="baekun_hall_543">
<path d="M1024.52 226C1024.52 221.582 1020.94 218 1016.52 218H860.005C854.726 218 850.894 223.022 852.289 228.113L880.734 331.962C880.923 332.651 881.019 333.362 881.019 334.076V348C881.019 352.418 884.6 356 889.019 356H1016.52C1020.94 356 1024.52 352.418 1024.52 348V226Z" fill="#F7FBFF"/>
<path d="M1024.52 348V226C1024.52 221.582 1020.94 218 1016.52 218H860.005C854.726 218 850.894 223.022 852.289 228.113L880.734 331.962C880.923 332.651 881.019 333.362 881.019 334.076V348C881.019 352.418 884.6 356 889.019 356V353C886.257 353 884.019 350.761 884.019 348V334.076C884.019 333.094 883.887 332.117 883.628 331.17L855.183 227.321C854.311 224.139 856.706 221 860.005 221H1016.52C1019.28 221 1021.52 223.239 1021.52 226V348C1021.52 350.761 1019.28 353 1016.52 353V356L1016.93 355.989C1021.16 355.775 1024.52 352.28 1024.52 348ZM889.019 353V356H1016.52V353H889.019Z" fill="#2E2F33" fill-opacity="0.88"/>
<path d="M967.499 298.312C962.655 298.312 959.218 295.688 959.124 291.875H963.218C963.343 293.688 965.155 294.875 967.499 294.875C969.999 294.875 971.78 293.5 971.78 291.5C971.78 289.469 970.03 288 967.093 288H965.062V284.875H967.093C969.499 284.875 971.187 283.531 971.155 281.562C971.187 279.656 969.749 278.375 967.53 278.375C965.405 278.375 963.562 279.562 963.499 281.469H959.593C959.687 277.656 963.124 275.062 967.562 275.062C972.155 275.062 975.124 277.875 975.093 281.344C975.124 283.875 973.437 285.719 970.968 286.219V286.406C974.155 286.844 975.968 288.875 975.937 291.719C975.968 295.531 972.405 298.312 967.499 298.312Z" fill="black"/>
<path d="M938.218 293.781V290.531L947.999 275.375H953.062V290.438H956.03V293.781H953.062V298H949.187V293.781H938.218ZM942.374 290.438H949.249V280H948.999L942.374 290.281V290.438Z" fill="black"/>
<path d="M926.905 298.312C922.374 298.312 919.062 295.625 918.937 291.875H922.905C923.03 293.719 924.749 295.031 926.905 295.031C929.437 295.031 931.249 293.188 931.249 290.688C931.249 288.094 929.374 286.25 926.78 286.25C925.03 286.219 923.749 286.844 923.03 288.188H919.249L920.624 275.375H933.999V278.781H923.968L923.28 284.781H923.499C924.374 283.781 926.03 283.062 927.874 283.062C932.093 283.062 935.187 286.219 935.187 290.562C935.187 295.094 931.78 298.312 926.905 298.312Z" fill="black"/>
</g>
<g id="baekun_hall_541">
<path d="M1022 226C1022 221.582 1025.58 218 1030 218H1212.51C1217.79 218 1221.62 223.022 1220.23 228.113L1191.78 331.962C1191.6 332.651 1191.5 333.362 1191.5 334.076V348C1191.5 352.418 1187.92 356 1183.5 356H1030C1025.58 356 1022 352.418 1022 348V226Z" fill="#F7FBFF"/>
<path d="M1022 348V226C1022 221.582 1025.58 218 1030 218H1212.51C1217.79 218 1221.62 223.022 1220.23 228.113L1191.78 331.962C1191.6 332.651 1191.5 333.362 1191.5 334.076V348C1191.5 352.418 1187.92 356 1183.5 356V353C1186.26 353 1188.5 350.761 1188.5 348V334.076C1188.5 333.094 1188.63 332.117 1188.89 331.17L1217.34 227.321C1218.21 224.139 1215.81 221 1212.51 221H1030C1027.24 221 1025 223.239 1025 226V348C1025 350.761 1027.24 353 1030 353V356C1025.58 356 1022 352.418 1022 348ZM1183.5 353V356H1030V353H1183.5Z" fill="#2E2F33" fill-opacity="0.88"/>
<path d="M1131.16 275.375V298H1127.06V279.344H1126.94L1121.66 282.719V279L1127.25 275.375H1131.16Z" fill="black"/>
<path d="M1101.22 293.781V290.531L1111 275.375H1116.06V290.438H1119.03V293.781H1116.06V298H1112.19V293.781H1101.22ZM1105.38 290.438H1112.25V280H1112L1105.38 290.281V290.438Z" fill="black"/>
<path d="M1089.91 298.312C1085.38 298.312 1082.06 295.625 1081.94 291.875H1085.91C1086.03 293.719 1087.75 295.031 1089.91 295.031C1092.44 295.031 1094.25 293.188 1094.25 290.688C1094.25 288.094 1092.38 286.25 1089.78 286.25C1088.03 286.219 1086.75 286.844 1086.03 288.188H1082.25L1083.62 275.375H1097V278.781H1086.97L1086.28 284.781H1086.5C1087.38 283.781 1089.03 283.062 1090.88 283.062C1095.09 283.062 1098.19 286.219 1098.19 290.562C1098.19 295.094 1094.78 298.312 1089.91 298.312Z" fill="black"/>
</g>
<g id="baekun_hall_539">
<path d="M1367.81 262.705C1368.96 258.438 1366.42 254.051 1362.16 252.907L1229.17 217.275C1224.9 216.131 1220.52 218.664 1219.37 222.931L1190.27 331.531C1189.13 335.799 1191.66 340.186 1195.93 341.329L1328.91 376.962C1333.18 378.106 1337.57 375.573 1338.71 371.305L1367.81 262.705Z" fill="#F7FBFF"/>
<path d="M1196.71 338.431L1195.93 341.329L1328.91 376.962L1329.69 374.064L1196.71 338.431ZM1193.17 332.307L1222.27 223.708C1222.99 221.041 1225.73 219.458 1228.4 220.172L1361.38 255.805C1364.05 256.52 1365.63 259.262 1364.91 261.929L1335.82 370.529C1335.1 373.196 1332.36 374.779 1329.69 374.064L1328.91 376.962C1333.18 378.106 1337.57 375.573 1338.71 371.305L1367.81 262.705C1368.92 258.571 1366.58 254.326 1362.55 253.024L1362.16 252.907L1229.17 217.275L1228.77 217.178C1224.63 216.291 1220.48 218.797 1219.37 222.931L1190.27 331.531L1190.18 331.932C1189.32 335.937 1191.64 339.953 1195.54 341.212L1195.93 341.329L1196.71 338.431C1194.04 337.716 1192.46 334.975 1193.17 332.307Z" fill="#2E2F33" fill-opacity="0.88"/>
<path d="M1298.87 285.062C1303.31 285.093 1307.69 287.718 1307.72 295.999C1307.72 303.812 1304.19 308.312 1298.62 308.312C1294.25 308.312 1291.25 305.593 1290.75 301.843H1294.78C1295.19 303.624 1296.56 304.781 1298.62 304.781C1301.91 304.781 1303.75 301.874 1303.78 297.031H1303.53C1302.37 298.999 1300.22 300.156 1297.72 300.156C1293.69 300.156 1290.56 297.093 1290.53 292.812C1290.53 288.374 1293.84 285.031 1298.87 285.062ZM1298.91 288.343C1296.37 288.343 1294.47 290.312 1294.5 292.718C1294.5 295.156 1296.31 297.062 1298.84 297.062C1301.34 297.062 1303.31 295.031 1303.28 292.687C1303.28 290.374 1301.44 288.343 1298.91 288.343Z" fill="black"/>
<path d="M1278.84 308.312C1274 308.312 1270.56 305.687 1270.47 301.874H1274.56C1274.69 303.687 1276.5 304.874 1278.84 304.874C1281.34 304.874 1283.12 303.499 1283.12 301.499C1283.12 299.468 1281.37 297.999 1278.44 297.999H1276.41V294.874H1278.44C1280.84 294.874 1282.53 293.531 1282.5 291.562C1282.53 289.656 1281.09 288.374 1278.87 288.374C1276.75 288.374 1274.91 289.562 1274.84 291.468H1270.94C1271.03 287.656 1274.47 285.062 1278.91 285.062C1283.5 285.062 1286.47 287.874 1286.44 291.343C1286.47 293.874 1284.78 295.718 1282.31 296.218V296.406C1285.5 296.843 1287.31 298.874 1287.28 301.718C1287.31 305.531 1283.75 308.312 1278.84 308.312Z" fill="black"/>
<path d="M1258.91 308.312C1254.37 308.312 1251.06 305.624 1250.94 301.874H1254.91C1255.03 303.718 1256.75 305.031 1258.91 305.031C1261.44 305.031 1263.25 303.187 1263.25 300.687C1263.25 298.093 1261.37 296.249 1258.78 296.249C1257.03 296.218 1255.75 296.843 1255.03 298.187H1251.25L1252.62 285.374H1266V288.781H1255.97L1255.28 294.781H1255.5C1256.37 293.781 1258.03 293.062 1259.87 293.062C1264.09 293.062 1267.19 296.218 1267.19 300.562C1267.19 305.093 1263.78 308.312 1258.91 308.312Z" fill="black"/>
</g>
<g id="baekun_hall_537">
<path d="M1521.14 304.937C1522.28 300.669 1519.75 296.282 1515.48 295.139L1374.17 257.275C1369.9 256.131 1365.52 258.664 1364.37 262.931L1335.27 371.531C1334.13 375.799 1336.66 380.186 1340.93 381.329L1482.24 419.193C1486.51 420.337 1490.9 417.804 1492.04 413.537L1521.14 304.937Z" fill="#F7FBFF"/>
<path d="M1341.71 378.431L1340.93 381.329L1482.24 419.193L1483.02 416.296L1341.71 378.431ZM1338.17 372.308L1367.27 263.708C1367.99 261.041 1370.73 259.458 1373.4 260.172L1514.71 298.037C1517.37 298.751 1518.96 301.493 1518.24 304.16L1489.14 412.76C1488.43 415.427 1485.69 417.01 1483.02 416.296L1482.24 419.193C1486.51 420.337 1490.9 417.804 1492.04 413.537L1521.14 304.937C1522.28 300.669 1519.75 296.282 1515.48 295.139L1374.17 257.275C1369.9 256.131 1365.52 258.664 1364.37 262.931L1335.27 371.531C1334.13 375.799 1336.66 380.186 1340.93 381.329L1341.71 378.431C1339.04 377.717 1337.46 374.975 1338.17 372.308Z" fill="#2E2F33" fill-opacity="0.88"/>
<path d="M1441.69 349L1451.5 329.938V329.782H1440.12V326.375H1455.72V329.844L1445.91 349H1441.69Z" fill="black"/>
<path d="M1428.84 349.313C1424 349.313 1420.56 346.688 1420.47 342.875H1424.56C1424.69 344.688 1426.5 345.875 1428.84 345.875C1431.34 345.875 1433.12 344.5 1433.12 342.5C1433.12 340.469 1431.37 339 1428.44 339H1426.41V335.875H1428.44C1430.84 335.875 1432.53 334.532 1432.5 332.563C1432.53 330.657 1431.09 329.375 1428.87 329.375C1426.75 329.375 1424.91 330.563 1424.84 332.469H1420.94C1421.03 328.657 1424.47 326.063 1428.91 326.063C1433.5 326.063 1436.47 328.875 1436.44 332.344C1436.47 334.875 1434.78 336.719 1432.31 337.219V337.407C1435.5 337.844 1437.31 339.875 1437.28 342.719C1437.31 346.532 1433.75 349.313 1428.84 349.313Z" fill="black"/>
<path d="M1408.91 349.313C1404.37 349.313 1401.06 346.625 1400.94 342.875H1404.91C1405.03 344.719 1406.75 346.032 1408.91 346.032C1411.44 346.032 1413.25 344.188 1413.25 341.688C1413.25 339.094 1411.37 337.25 1408.78 337.25C1407.03 337.219 1405.75 337.844 1405.03 339.188H1401.25L1402.62 326.375H1416V329.782H1405.97L1405.28 335.782H1405.5C1406.37 334.782 1408.03 334.063 1409.87 334.063C1414.09 334.063 1417.19 337.219 1417.19 341.563C1417.19 346.094 1413.78 349.313 1408.91 349.313Z" fill="black"/>
</g>
<g id="baekun_hall_523">
<path d="M1568.68 113.727C1569.82 109.459 1567.29 105.072 1563.02 103.929L1359.05 49.2746C1354.78 48.131 1350.39 50.6637 1349.25 54.9314L1313.27 189.189C1312.13 193.457 1314.66 197.843 1318.93 198.987L1522.9 253.641C1527.17 254.784 1531.56 252.252 1532.7 247.984L1568.68 113.727Z" fill="#F7FBFF"/>
<path d="M1319.71 196.089L1318.93 198.987L1522.9 253.641L1523.68 250.743L1319.71 196.089ZM1316.17 189.965L1352.15 55.7079C1352.86 53.0406 1355.6 51.4576 1358.27 52.1724L1562.24 106.826C1564.91 107.541 1566.49 110.283 1565.78 112.95L1529.8 247.207C1529.09 249.875 1526.35 251.457 1523.68 250.743L1522.9 253.641C1527.17 254.784 1531.56 252.252 1532.7 247.984L1568.68 113.727C1569.82 109.459 1567.29 105.072 1563.02 103.929L1359.05 49.2746C1354.78 48.131 1350.39 50.6637 1349.25 54.9314L1313.27 189.189C1312.13 193.457 1314.66 197.843 1318.93 198.987L1319.71 196.089C1317.04 195.374 1315.46 192.632 1316.17 189.965Z" fill="#2E2F33" fill-opacity="0.88"/>
<path d="M1460.12 162.312C1455.28 162.312 1451.84 159.687 1451.75 155.874H1455.84C1455.97 157.687 1457.78 158.874 1460.12 158.874C1462.62 158.874 1464.41 157.499 1464.41 155.499C1464.41 153.468 1462.66 151.999 1459.72 151.999H1457.69V148.874H1459.72C1462.12 148.874 1463.81 147.53 1463.78 145.562C1463.81 143.655 1462.37 142.374 1460.16 142.374C1458.03 142.374 1456.19 143.562 1456.12 145.468H1452.22C1452.31 141.655 1455.75 139.062 1460.19 139.062C1464.78 139.062 1467.75 141.874 1467.72 145.343C1467.75 147.874 1466.06 149.718 1463.59 150.218V150.405C1466.78 150.843 1468.59 152.874 1468.56 155.718C1468.59 159.53 1465.03 162.312 1460.12 162.312Z" fill="black"/>
<path d="M1432.62 161.999V159.062L1440.62 151.343C1442.91 149.062 1444.09 147.718 1444.09 145.812C1444.09 143.718 1442.44 142.374 1440.22 142.374C1437.87 142.374 1436.37 143.843 1436.41 146.124H1432.53C1432.5 141.843 1435.72 139.062 1440.25 139.062C1444.87 139.062 1448 141.812 1448 145.624C1448 148.187 1446.75 150.249 1442.31 154.437L1438.28 158.437V158.593H1448.34V161.999H1432.62Z" fill="black"/>
<path d="M1420.91 162.312C1416.37 162.312 1413.06 159.624 1412.94 155.874H1416.91C1417.03 157.718 1418.75 159.03 1420.91 159.03C1423.44 159.03 1425.25 157.187 1425.25 154.687C1425.25 152.093 1423.37 150.249 1420.78 150.249C1419.03 150.218 1417.75 150.843 1417.03 152.187H1413.25L1414.62 139.374H1428V142.78H1417.97L1417.28 148.78H1417.5C1418.37 147.78 1420.03 147.062 1421.87 147.062C1426.09 147.062 1429.19 150.218 1429.19 154.562C1429.19 159.093 1425.78 162.312 1420.91 162.312Z" fill="black"/>
</g>
<g id="baekun_hall_526">
<path d="M1809.08 177.999C1810.23 173.731 1807.7 169.345 1803.43 168.201L1576.05 107.275C1571.78 106.131 1567.39 108.664 1566.25 112.931L1530.27 247.189C1529.13 251.457 1531.66 255.843 1535.93 256.987L1763.31 317.913C1767.58 319.057 1771.97 316.524 1773.11 312.257L1809.08 177.999Z" fill="#F7FBFF"/>
<path d="M1536.71 254.089L1535.93 256.987L1763.31 317.913L1764.09 315.015L1536.71 254.089ZM1533.17 247.965L1569.15 113.708C1569.86 111.041 1572.6 109.458 1575.27 110.172L1802.65 171.099C1805.32 171.814 1806.9 174.555 1806.19 177.223L1770.21 311.48C1769.5 314.147 1766.76 315.73 1764.09 315.015L1763.31 317.913C1767.58 319.057 1771.97 316.524 1773.11 312.257L1809.08 177.999C1810.23 173.731 1807.7 169.345 1803.43 168.201L1576.05 107.275L1575.65 107.178C1571.51 106.291 1567.36 108.797 1566.25 112.931L1530.27 247.189L1530.18 247.589C1529.32 251.594 1531.64 255.612 1535.54 256.871L1535.93 256.987L1536.71 254.089C1534.04 253.374 1532.46 250.632 1533.17 247.965Z" fill="#2E2F33" fill-opacity="0.88"/>
<path d="M1688.38 224.313C1683.97 224.281 1679.53 221.656 1679.56 213.313C1679.56 205.563 1683.09 201.063 1688.63 201.063C1693 201.063 1696 203.813 1696.5 207.469H1692.47C1692.06 205.75 1690.69 204.594 1688.63 204.594C1685.34 204.594 1683.5 207.5 1683.5 212.25H1683.72C1684.88 210.313 1687.06 209.156 1689.53 209.156C1693.59 209.156 1696.72 212.219 1696.72 216.5C1696.72 221 1693.38 224.344 1688.38 224.313ZM1688.38 221.031C1690.91 221.031 1692.78 219.063 1692.78 216.594C1692.78 214.188 1690.94 212.25 1688.44 212.25C1685.91 212.25 1683.97 214.25 1683.94 216.625C1683.97 219 1685.81 221.031 1688.38 221.031Z" fill="black"/>
<path d="M1660.63 224V221.063L1668.63 213.344C1670.91 211.063 1672.09 209.719 1672.09 207.813C1672.09 205.719 1670.44 204.375 1668.22 204.375C1665.88 204.375 1664.38 205.844 1664.41 208.125H1660.53C1660.5 203.844 1663.72 201.063 1668.25 201.063C1672.88 201.063 1676 203.813 1676 207.625C1676 210.188 1674.75 212.25 1670.31 216.438L1666.28 220.438V220.594H1676.34V224H1660.63Z" fill="black"/>
<path d="M1648.91 224.313C1644.38 224.313 1641.06 221.625 1640.94 217.875H1644.91C1645.03 219.719 1646.75 221.031 1648.91 221.031C1651.44 221.031 1653.25 219.188 1653.25 216.688C1653.25 214.094 1651.38 212.25 1648.78 212.25C1647.03 212.219 1645.75 212.844 1645.03 214.188H1641.25L1642.63 201.375H1656V204.781H1645.97L1645.28 210.781H1645.5C1646.38 209.781 1648.03 209.063 1649.88 209.063C1654.09 209.063 1657.19 212.219 1657.19 216.563C1657.19 221.094 1653.78 224.313 1648.91 224.313Z" fill="black"/>
</g>
<g id="baekun_hall_529">
<path d="M1963.42 221.046C1964.56 216.778 1962.03 212.391 1957.76 211.248L1816.05 173.275C1811.78 172.131 1807.39 174.664 1806.25 178.931L1770.27 313.189C1769.13 317.457 1771.66 321.843 1775.93 322.987L1917.65 360.96C1921.92 362.104 1926.3 359.571 1927.45 355.303L1963.42 221.046Z" fill="#F7FBFF"/>
<path d="M1776.71 320.089L1775.93 322.987L1917.65 360.96L1918.43 358.062L1776.71 320.089ZM1773.17 313.965L1809.15 179.708C1809.86 177.041 1812.6 175.458 1815.27 176.172L1956.99 214.146C1959.66 214.86 1961.24 217.602 1960.52 220.269L1924.55 354.526C1923.83 357.194 1921.09 358.777 1918.43 358.062L1917.65 360.96L1918.05 361.057C1922.19 361.944 1926.34 359.437 1927.45 355.303L1963.42 221.046C1964.56 216.778 1962.03 212.391 1957.76 211.248L1816.05 173.275C1811.78 172.131 1807.39 174.664 1806.25 178.931L1770.27 313.189C1769.13 317.457 1771.66 321.843 1775.93 322.987L1776.71 320.089C1774.04 319.374 1772.46 316.632 1773.17 313.965Z" fill="#2E2F33" fill-opacity="0.88"/>
<path d="M1885.94 255.062C1890.37 255.094 1894.75 257.719 1894.78 266C1894.78 273.812 1891.25 278.312 1885.69 278.312C1881.31 278.312 1878.31 275.594 1877.81 271.844H1881.84C1882.25 273.625 1883.62 274.781 1885.69 274.781C1888.97 274.781 1890.81 271.875 1890.84 267.031H1890.59C1889.44 269 1887.28 270.156 1884.78 270.156C1880.75 270.156 1877.62 267.094 1877.59 262.812C1877.59 258.375 1880.91 255.031 1885.94 255.062ZM1885.97 258.344C1883.44 258.344 1881.53 260.312 1881.56 262.719C1881.56 265.156 1883.37 267.062 1885.91 267.062C1888.41 267.062 1890.37 265.031 1890.34 262.687C1890.34 260.375 1888.5 258.344 1885.97 258.344Z" fill="black"/>
<path d="M1858.62 278V275.062L1866.62 267.344C1868.91 265.062 1870.09 263.719 1870.09 261.812C1870.09 259.719 1868.44 258.375 1866.22 258.375C1863.87 258.375 1862.37 259.844 1862.41 262.125H1858.53C1858.5 257.844 1861.72 255.062 1866.25 255.062C1870.87 255.062 1874 257.812 1874 261.625C1874 264.187 1872.75 266.25 1868.31 270.437L1864.28 274.437V274.594H1874.34V278H1858.62Z" fill="black"/>
<path d="M1846.91 278.312C1842.37 278.312 1839.06 275.625 1838.94 271.875H1842.91C1843.03 273.719 1844.75 275.031 1846.91 275.031C1849.44 275.031 1851.25 273.187 1851.25 270.687C1851.25 268.094 1849.37 266.25 1846.78 266.25C1845.03 266.219 1843.75 266.844 1843.03 268.187H1839.25L1840.62 255.375H1854V258.781H1843.97L1843.28 264.781H1843.5C1844.37 263.781 1846.03 263.062 1847.87 263.062C1852.09 263.062 1855.19 266.219 1855.19 270.562C1855.19 275.094 1851.78 278.312 1846.91 278.312Z" fill="black"/>
</g>
<g id="baekun_hall_531">
<path d="M1987.69 431.788C1988.83 427.52 1986.3 423.133 1982.03 421.99L1759.17 362.275C1754.9 361.131 1750.52 363.664 1749.37 367.931L1720.27 476.531C1719.13 480.799 1721.66 485.186 1725.93 486.329L1948.79 546.044C1953.06 547.188 1957.45 544.655 1958.59 540.387L1987.69 431.788Z" fill="#F7FBFF"/>
<path d="M1726.71 483.431L1725.93 486.329L1948.79 546.044L1949.57 543.146L1726.71 483.431ZM1723.17 477.308L1752.27 368.708C1752.99 366.041 1755.73 364.458 1758.4 365.172L1981.25 424.887C1983.92 425.602 1985.51 428.344 1984.79 431.011L1955.69 539.611C1954.98 542.278 1952.23 543.861 1949.57 543.146L1948.79 546.044C1953.06 547.188 1957.45 544.655 1958.59 540.387L1987.69 431.788C1988.83 427.52 1986.3 423.133 1982.03 421.99L1759.17 362.275C1754.9 361.131 1750.52 363.664 1749.37 367.931L1720.27 476.531C1719.13 480.799 1721.66 485.186 1725.93 486.329L1726.71 483.431C1724.04 482.717 1722.46 479.975 1723.17 477.308Z" fill="#2E2F33" fill-opacity="0.88"/>
<path d="M1877.03 442.375V465H1872.94V446.343H1872.81L1867.53 449.718V446L1873.13 442.375H1877.03Z" fill="black"/>
<path d="M1855.84 465.312C1851 465.312 1847.56 462.687 1847.47 458.875H1851.56C1851.69 460.687 1853.5 461.875 1855.84 461.875C1858.34 461.875 1860.13 460.5 1860.13 458.5C1860.13 456.468 1858.38 455 1855.44 455H1853.41V451.875H1855.44C1857.84 451.875 1859.53 450.531 1859.5 448.562C1859.53 446.656 1858.09 445.375 1855.88 445.375C1853.75 445.375 1851.91 446.562 1851.84 448.468H1847.94C1848.03 444.656 1851.47 442.062 1855.91 442.062C1860.5 442.062 1863.47 444.875 1863.44 448.343C1863.47 450.875 1861.78 452.718 1859.31 453.218V453.406C1862.5 453.843 1864.31 455.875 1864.28 458.718C1864.31 462.531 1860.75 465.312 1855.84 465.312Z" fill="black"/>
<path d="M1835.91 465.312C1831.38 465.312 1828.06 462.625 1827.94 458.875H1831.91C1832.03 460.718 1833.75 462.031 1835.91 462.031C1838.44 462.031 1840.25 460.187 1840.25 457.687C1840.25 455.093 1838.38 453.25 1835.78 453.25C1834.03 453.218 1832.75 453.843 1832.03 455.187H1828.25L1829.63 442.375H1843V445.781H1832.97L1832.28 451.781H1832.5C1833.38 450.781 1835.03 450.062 1836.88 450.062C1841.09 450.062 1844.19 453.218 1844.19 457.562C1844.19 462.093 1840.78 465.312 1835.91 465.312Z" fill="black"/>
</g>
<g id="baekun_hall_534">
<path d="M1752.48 367.392C1753.62 363.125 1751.09 358.738 1746.82 357.594L1529.17 299.275C1524.9 298.131 1520.52 300.664 1519.37 304.931L1490.27 413.531C1489.13 417.799 1491.66 422.186 1495.93 423.329L1713.58 481.649C1717.85 482.793 1722.24 480.26 1723.38 475.992L1752.48 367.392Z" fill="#F7FBFF"/>
<path d="M1496.71 420.431L1495.93 423.329L1713.58 481.649L1714.36 478.751L1496.71 420.431ZM1493.17 414.308L1522.27 305.708C1522.99 303.041 1525.73 301.458 1528.4 302.172L1746.05 360.492C1748.71 361.207 1750.3 363.949 1749.58 366.616L1720.48 475.216C1719.77 477.883 1717.03 479.466 1714.36 478.751L1713.58 481.649C1717.85 482.793 1722.24 480.26 1723.38 475.992L1752.48 367.392C1753.62 363.125 1751.09 358.738 1746.82 357.594L1529.17 299.275C1524.9 298.131 1520.52 300.664 1519.37 304.931L1490.27 413.531C1489.13 417.799 1491.66 422.186 1495.93 423.329L1496.71 420.431C1494.04 419.717 1492.46 416.975 1493.17 414.308Z" fill="#2E2F33" fill-opacity="0.88"/>
<path d="M1632.44 396.782V393.532L1642.22 378.376H1647.28V393.438H1650.25V396.782H1647.28V401.001H1643.41V396.782H1632.44ZM1636.59 393.438H1643.47V383.001H1643.22L1636.59 393.282V393.438Z" fill="black"/>
<path d="M1620.84 401.313C1616 401.313 1612.56 398.688 1612.47 394.876H1616.56C1616.69 396.688 1618.5 397.876 1620.84 397.876C1623.34 397.876 1625.13 396.501 1625.13 394.501C1625.13 392.47 1623.38 391.001 1620.44 391.001H1618.41V387.876H1620.44C1622.84 387.876 1624.53 386.532 1624.5 384.563C1624.53 382.657 1623.09 381.376 1620.88 381.376C1618.75 381.376 1616.91 382.563 1616.84 384.47H1612.94C1613.03 380.657 1616.47 378.063 1620.91 378.063C1625.5 378.063 1628.47 380.876 1628.44 384.345C1628.47 386.876 1626.78 388.72 1624.31 389.22V389.407C1627.5 389.845 1629.31 391.876 1629.28 394.72C1629.31 398.532 1625.75 401.313 1620.84 401.313Z" fill="black"/>
<path d="M1600.91 401.313C1596.38 401.313 1593.06 398.626 1592.94 394.876H1596.91C1597.03 396.72 1598.75 398.032 1600.91 398.032C1603.44 398.032 1605.25 396.188 1605.25 393.688C1605.25 391.095 1603.38 389.251 1600.78 389.251C1599.03 389.22 1597.75 389.845 1597.03 391.188H1593.25L1594.63 378.376H1608V381.782H1597.97L1597.28 387.782H1597.5C1598.38 386.782 1600.03 386.063 1601.88 386.063C1606.09 386.063 1609.19 389.22 1609.19 393.563C1609.19 398.095 1605.78 401.313 1600.91 401.313Z" fill="black"/>
</g>
<g id="baekun_hall_516">
<path d="M473.275 113.406C472.131 109.138 474.664 104.751 478.931 103.608L715.294 40.2746C719.562 39.131 723.948 41.6637 725.092 45.9314L761.455 181.641C762.599 185.909 760.066 190.296 755.798 191.439L519.436 254.772C515.168 255.916 510.781 253.383 509.638 249.115L473.275 113.406Z" fill="#F7FBFF"/>
<path d="M755.022 188.541L755.798 191.439L519.436 254.772L518.659 251.875L755.022 188.541ZM758.557 182.418L722.194 46.708C721.479 44.0406 718.737 42.4577 716.07 43.1724L479.708 106.506C477.041 107.22 475.458 109.962 476.172 112.629L512.536 248.339C513.25 251.006 515.992 252.589 518.659 251.875L519.436 254.772L519.035 254.869C515.03 255.727 511.014 253.407 509.755 249.51L509.638 249.115L473.275 113.406C472.131 109.138 474.664 104.751 478.931 103.608L715.294 40.2746C719.562 39.131 723.948 41.6637 725.092 45.9314L761.455 181.641L761.552 182.041C762.411 186.046 760.091 190.063 756.193 191.322L755.798 191.439L755.022 188.541C757.689 187.827 759.272 185.085 758.557 182.418Z" fill="#2E2F33" fill-opacity="0.88"/>
<path d="M634.782 158.313C630.376 158.282 625.938 155.657 625.97 147.313C625.97 139.563 629.501 135.063 635.032 135.063C639.407 135.063 642.407 137.813 642.907 141.469H638.876C638.47 139.751 637.095 138.594 635.032 138.594C631.751 138.594 629.907 141.501 629.907 146.251H630.126C631.282 144.313 633.47 143.157 635.938 143.157C640.001 143.157 643.126 146.219 643.126 150.501C643.126 155.001 639.782 158.344 634.782 158.313ZM634.782 155.032C637.313 155.032 639.188 153.063 639.188 150.594C639.188 148.188 637.345 146.251 634.845 146.251C632.313 146.251 630.376 148.251 630.345 150.626C630.376 153.001 632.22 155.032 634.782 155.032Z" fill="black"/>
<path d="M620.813 135.376V158.001H616.72V139.344H616.595L611.313 142.719V139.001L616.907 135.376H620.813Z" fill="black"/>
<path d="M599.907 158.313C595.376 158.313 592.063 155.626 591.938 151.876H595.907C596.032 153.719 597.751 155.032 599.907 155.032C602.438 155.032 604.251 153.188 604.251 150.688C604.251 148.094 602.376 146.251 599.782 146.251C598.032 146.219 596.751 146.844 596.032 148.188H592.251L593.626 135.376H607.001V138.782H596.97L596.282 144.782H596.501C597.376 143.782 599.032 143.063 600.876 143.063C605.095 143.063 608.188 146.219 608.188 150.563C608.188 155.094 604.782 158.313 599.907 158.313Z" fill="black"/>
</g>
<g id="baekun_hall_513">
<path d="M235.275 178.485C234.131 174.217 236.664 169.831 240.931 168.687L466.394 108.275C470.662 107.131 475.048 109.664 476.192 113.931L512.572 249.705C513.716 253.973 511.183 258.36 506.916 259.503L281.453 319.916C277.185 321.059 272.799 318.526 271.655 314.259L235.275 178.485Z" fill="#F7FBFF"/>
<path d="M506.139 256.605L506.916 259.503L281.453 319.916L280.677 317.018L506.139 256.605ZM509.675 250.482L473.294 114.708C472.579 112.041 469.838 110.458 467.17 111.172L241.708 171.585C239.041 172.3 237.458 175.041 238.172 177.709L274.553 313.482C275.268 316.149 278.009 317.732 280.677 317.018L281.453 319.916L281.052 320.012C277.047 320.87 273.031 318.551 271.772 314.653L271.655 314.259L235.275 178.485C234.131 174.217 236.664 169.831 240.931 168.687L466.394 108.275C470.662 107.131 475.048 109.664 476.192 113.931L512.572 249.705L512.668 250.105C513.527 254.11 511.208 258.127 507.311 259.386L506.916 259.503L506.139 256.605C508.806 255.891 510.389 253.149 509.675 250.482Z" fill="#2E2F33" fill-opacity="0.88"/>
<path d="M390.532 225.312C385.688 225.312 382.251 222.687 382.157 218.875H386.251C386.376 220.687 388.188 221.875 390.532 221.875C393.032 221.875 394.813 220.5 394.813 218.5C394.813 216.469 393.063 215 390.126 215H388.095V211.875H390.126C392.532 211.875 394.22 210.531 394.188 208.562C394.22 206.656 392.782 205.375 390.563 205.375C388.438 205.375 386.595 206.562 386.532 208.469H382.626C382.72 204.656 386.157 202.062 390.595 202.062C395.188 202.062 398.157 204.875 398.126 208.344C398.157 210.875 396.47 212.719 394.001 213.219V213.406C397.188 213.844 399.001 215.875 398.97 218.719C399.001 222.531 395.438 225.312 390.532 225.312Z" fill="black"/>
<path d="M376.813 202.375V225H372.72V206.344H372.595L367.313 209.719V206L372.907 202.375H376.813Z" fill="black"/>
<path d="M355.907 225.312C351.376 225.312 348.063 222.625 347.938 218.875H351.907C352.032 220.719 353.751 222.031 355.907 222.031C358.438 222.031 360.251 220.187 360.251 217.687C360.251 215.094 358.376 213.25 355.782 213.25C354.032 213.219 352.751 213.844 352.032 215.187H348.251L349.626 202.375H363.001V205.781H352.97L352.282 211.781H352.501C353.376 210.781 355.032 210.062 356.876 210.062C361.095 210.062 364.188 213.219 364.188 217.562C364.188 222.094 360.782 225.312 355.907 225.312Z" fill="black"/>
</g>
<g id="baekun_hall_5f_stairs_left">
<path d="M9.27458 238.423C8.13104 234.155 10.6637 229.768 14.9314 228.625L83.4148 210.275C87.6825 209.131 92.0692 211.664 93.2128 215.931L123.418 328.659C124.561 332.926 122.029 337.313 117.761 338.457L49.2777 356.807C45.01 357.95 40.6233 355.418 39.4797 351.15L9.27458 238.423Z" fill="#D9FFE6"/>
<path d="M116.985 335.559L117.761 338.457L49.2777 356.807L48.5013 353.909L116.985 335.559ZM120.52 329.435L90.3152 216.708C89.6005 214.041 86.8587 212.458 84.1915 213.172L15.7079 231.522C13.0406 232.237 11.4577 234.979 12.1724 237.646L42.3776 350.374C43.0924 353.041 45.8341 354.624 48.5013 353.909L49.2777 356.807L48.8769 356.903C44.8721 357.761 40.8555 355.442 39.5966 351.544L39.4797 351.15L9.27458 238.423C8.13104 234.155 10.6637 229.768 14.9314 228.625L83.4148 210.275L83.8149 210.178C87.9534 209.291 92.1049 211.797 93.2128 215.931L123.418 328.659L123.514 329.059C124.373 333.064 122.054 337.081 118.156 338.34L117.761 338.457L116.985 335.559C119.652 334.844 121.235 332.103 120.52 329.435Z" fill="#2E2F33" fill-opacity="0.88"/>
<path d="M89.9409 256.634C88.8924 256.247 87.7284 256.787 87.3414 257.836L83.5809 268.055H62.2824L65.8059 259.289C66.2229 258.251 65.7204 257.071 64.6824 256.654C63.6444 256.237 62.4654 256.742 62.0484 257.777L42.4329 306.581C42.0159 307.619 42.5184 308.8 43.5564 309.217C43.8039 309.316 44.0589 309.364 44.3109 309.364C45.1134 309.364 45.8739 308.884 46.1904 308.093L50.2194 298.07C50.3064 298.082 50.3829 298.121 50.4729 298.121H72.5199L69.3864 306.64C69.0009 307.688 69.5379 308.854 70.5879 309.238C70.8189 309.323 71.0559 309.364 71.2869 309.364C72.1104 309.364 72.8859 308.855 73.1874 308.036L91.1424 259.232C91.5279 258.184 90.9909 257.018 89.9409 256.634ZM61.0749 272.104H82.0899L78.8499 280.91H57.1149L60.6864 272.026C60.8169 272.051 60.9369 272.104 61.0749 272.104ZM51.8259 294.071L55.5114 284.903C55.6074 284.917 55.6944 284.96 55.7949 284.96H77.3619L74.0094 294.071H51.8259Z" fill="#6E4944"/>
</g>
<g id="baekun_hall_5f_stairs_main">
<path d="M921.525 54.5481C920.22 51.1361 921.389 47.3181 924.56 45.5042C938.045 37.7902 977.216 19 1038.81 19C1100.29 19 1141.95 37.7225 1156.54 45.4623C1159.95 47.2729 1161.23 51.3433 1159.75 54.9123L1146.24 87.4402C1144.6 91.3901 1140.14 93.3511 1136.12 91.8919L1086.54 73.8944C1081.32 72.0009 1075.81 75.8647 1075.81 81.4144V130C1075.81 134.418 1072.23 138 1067.81 138H1009.81C1005.39 138 1001.81 134.418 1001.81 130V81.5648C1001.81 75.9734 996.218 72.1068 990.986 74.0789L944.257 91.6922C940.137 93.2451 935.536 91.1768 933.963 87.0644L921.525 54.5481Z" fill="#D9FFE6"/>
<path d="M1067.81 135L1067.81 138H1009.81L1009.81 135H1067.81ZM1072.81 130V81.4141C1072.81 73.7834 1080.39 68.4709 1087.56 71.0742L1137.15 89.0723C1139.66 89.9841 1142.44 88.7583 1143.47 86.29L1156.98 53.7617C1157.92 51.4985 1157.07 49.1366 1155.13 48.1123C1140.85 40.5353 1099.67 22 1038.81 22C977.845 22 939.185 40.595 926.05 48.1084C924.284 49.1184 923.499 51.3107 924.327 53.4766L936.766 85.9922C937.749 88.5625 940.624 89.8554 943.199 88.8848L989.928 71.2715C997.122 68.5599 1004.81 73.8765 1004.81 81.5645V130C1004.81 132.761 1007.05 135 1009.81 135L1009.81 138C1005.39 138 1001.81 134.418 1001.81 130V81.5648C1001.81 75.9734 996.218 72.1068 990.986 74.0789L944.257 91.6922L943.869 91.8271C939.982 93.0721 935.769 91.1781 934.12 87.4443L933.963 87.0644L921.525 54.5481C920.261 51.2428 921.318 47.5559 924.269 45.6797L924.56 45.5042C938.045 37.7902 977.216 19 1038.81 19C1100.29 19 1141.95 37.7225 1156.54 45.4623C1159.95 47.2729 1161.23 51.3433 1159.75 54.9123L1146.24 87.4402L1146.08 87.8047C1144.38 91.3897 1140.29 93.1875 1136.5 92.0186L1136.12 91.8919L1086.54 73.8944C1081.32 72.0009 1075.81 75.8647 1075.81 81.4144V130C1075.81 134.418 1072.23 138 1067.81 138L1067.81 135C1070.57 135 1072.81 132.761 1072.81 130Z" fill="#2E2F33" fill-opacity="0.88"/>
<path d="M1063.94 52.6345C1062.89 52.2475 1061.73 52.7875 1061.34 53.836L1057.58 64.0555H1036.28L1039.81 55.2895C1040.22 54.2515 1039.72 53.071 1038.68 52.654C1037.64 52.237 1036.47 52.7425 1036.05 53.7775L1016.43 102.581C1016.02 103.619 1016.52 104.8 1017.56 105.217C1017.8 105.316 1018.06 105.364 1018.31 105.364C1019.11 105.364 1019.87 104.884 1020.19 104.093L1024.22 94.0705C1024.31 94.0825 1024.38 94.1215 1024.47 94.1215H1046.52L1043.39 102.64C1043 103.688 1043.54 104.854 1044.59 105.238C1044.82 105.324 1045.06 105.364 1045.29 105.364C1046.11 105.364 1046.89 104.855 1047.19 104.036L1065.14 55.2325C1065.53 54.184 1064.99 53.0185 1063.94 52.6345ZM1035.07 68.104H1056.09L1052.85 76.9105H1031.11L1034.69 68.026C1034.82 68.0515 1034.94 68.104 1035.07 68.104ZM1025.83 90.0715L1029.51 80.9035C1029.61 80.917 1029.69 80.9605 1029.79 80.9605H1051.36L1048.01 90.0715H1025.83Z" fill="#6E4944"/>
</g>
<g id="baekun_hall_5f_stairs_right">
<path d="M2037.74 242.9C2038.88 238.632 2036.35 234.246 2032.08 233.102L1969.28 216.275C1965.01 215.131 1960.62 217.664 1959.48 221.931L1929.27 334.659C1928.13 338.926 1930.66 343.313 1934.93 344.457L1997.73 361.284C2002 362.428 2006.39 359.895 2007.53 355.627L2037.74 242.9Z" fill="#D9FFE6"/>
<path d="M1935.71 341.559L1934.93 344.457L1997.73 361.284L1998.51 358.387L1935.71 341.559ZM1932.17 335.435L1962.38 222.708C1963.09 220.041 1965.83 218.458 1968.5 219.172L2031.3 236C2033.97 236.715 2035.55 239.456 2034.84 242.124L2004.63 354.851C2003.92 357.518 2001.18 359.101 1998.51 358.387L1997.73 361.284L1998.13 361.381C2002.14 362.239 2006.15 359.919 2007.41 356.022L2007.53 355.627L2037.74 242.9C2038.88 238.632 2036.35 234.246 2032.08 233.102L1969.28 216.275C1965.01 215.131 1960.62 217.664 1959.48 221.931L1929.27 334.659L1929.18 335.059C1928.32 339.064 1930.64 343.081 1934.54 344.34L1934.93 344.457L1935.71 341.559C1933.04 340.844 1931.46 338.103 1932.17 335.435Z" fill="#2E2F33" fill-opacity="0.88"/>
<path d="M2007.94 262.635C2006.89 262.248 2005.73 262.788 2005.34 263.837L2001.58 274.056H1980.28L1983.8 265.29C1984.22 264.252 1983.72 263.072 1982.68 262.655C1981.64 262.238 1980.46 262.743 1980.05 263.778L1960.43 312.582C1960.01 313.62 1960.52 314.801 1961.56 315.218C1961.8 315.317 1962.06 315.365 1962.31 315.365C1963.11 315.365 1963.87 314.885 1964.19 314.094L1968.22 304.071C1968.31 304.083 1968.38 304.122 1968.47 304.122H1990.52L1987.39 312.641C1987 313.689 1987.54 314.855 1988.59 315.239C1988.82 315.324 1989.05 315.365 1989.29 315.365C1990.11 315.365 1990.88 314.856 1991.19 314.037L2009.14 265.233C2009.53 264.185 2008.99 263.019 2007.94 262.635ZM1979.07 278.105H2000.09L1996.85 286.911H1975.11L1978.69 278.027C1978.82 278.052 1978.94 278.105 1979.07 278.105ZM1969.82 300.072L1973.51 290.904C1973.61 290.918 1973.69 290.961 1973.79 290.961H1995.36L1992.01 300.072H1969.82Z" fill="#6E4944"/>
</g>
<g id="baekun_hall_5f_toilet_girl">
<path d="M1352.18 54.2752C1353.33 49.9903 1350.78 45.5893 1346.48 44.4656L1271.97 24.954C1267.8 23.8638 1263.52 26.2633 1262.28 30.3843L1235.38 119.617C1234.08 123.934 1236.6 128.473 1240.95 129.649L1280.68 140.386C1284.99 141.55 1287.51 146.007 1286.29 150.296L1278.22 178.709C1277 182.997 1279.52 187.453 1283.82 188.617L1306.26 194.691C1310.53 195.847 1314.93 193.315 1316.07 189.039L1352.18 54.2752Z" fill="#FED9C4"/>
<path d="M1316.07 189.039L1352.18 54.2752C1353.33 49.9903 1350.78 45.5893 1346.48 44.4656L1271.97 24.954C1267.8 23.8638 1263.52 26.2633 1262.28 30.3843L1235.38 119.617C1234.08 123.934 1236.6 128.473 1240.95 129.649L1280.68 140.386C1284.99 141.55 1287.51 146.007 1286.29 150.296L1278.22 178.709C1277 182.997 1279.52 187.453 1283.82 188.617L1306.26 194.691L1307.04 191.795L1284.61 185.721C1281.92 184.993 1280.34 182.209 1281.1 179.529L1289.18 151.115C1290.85 145.218 1287.38 139.09 1281.47 137.49L1241.74 126.753C1239.02 126.018 1237.44 123.181 1238.25 120.483L1265.15 31.2502C1265.93 28.6747 1268.6 27.1753 1271.21 27.8566L1345.72 47.3678C1348.41 48.0702 1350 50.8208 1349.29 53.4989L1313.18 188.262C1312.46 190.935 1309.71 192.518 1307.04 191.795L1306.26 194.691C1310.53 195.847 1314.93 193.315 1316.07 189.039Z" fill="#2E2F33" fill-opacity="0.88"/>
<path d="M1306.75 69.2497H1281.25C1274.62 69.2497 1269.25 74.6223 1269.25 81.2497V106.75C1269.25 113.377 1274.62 118.75 1281.25 118.75H1306.75C1313.38 118.75 1318.75 113.377 1318.75 106.75V81.2497C1318.75 74.6223 1313.38 69.2497 1306.75 69.2497Z" fill="#E76D6D"/>
<path d="M1291.28 91.9762L1285.81 104.524C1284.96 106.487 1286.39 108.685 1288.54 108.685H1299.47C1301.61 108.685 1303.05 106.487 1302.19 104.524L1296.73 91.9762C1295.69 89.5942 1292.31 89.5942 1291.27 91.9762H1291.28Z" fill="white"/>
<path d="M1294 87.3802C1296.23 87.3802 1298.03 85.575 1298.03 83.3482C1298.03 81.1214 1296.23 79.3162 1294 79.3162C1291.77 79.3162 1289.97 81.1214 1289.97 83.3482C1289.97 85.575 1291.77 87.3802 1294 87.3802Z" fill="white"/>
</g>
<g id="baekun_hall_5f_toilet_boy">
<path d="M722.275 45.4344C721.131 41.1667 723.664 36.7799 727.931 35.6364L796.459 17.2746C800.726 16.131 805.113 18.6637 806.257 22.9314L842.895 159.666C844.038 163.934 841.506 168.321 837.238 169.464L768.711 187.826C764.443 188.97 760.056 186.437 758.913 182.169L722.275 45.4344Z" fill="#FED9C4"/>
<path d="M836.461 166.567L837.238 169.464L768.711 187.826L767.934 184.929L836.461 166.567ZM839.997 160.443L803.359 23.708C802.644 21.0407 799.902 19.4577 797.235 20.1724L728.708 38.5342C726.041 39.2489 724.458 41.9906 725.172 44.6579L761.81 181.393C762.525 184.06 765.267 185.643 767.934 184.929L768.711 187.826L768.31 187.923C764.305 188.781 760.288 186.461 759.029 182.564L758.913 182.169L722.275 45.4344C721.167 41.3002 723.509 37.0546 727.536 35.7534L727.931 35.6364L796.459 17.2746C800.726 16.131 805.113 18.6637 806.257 22.9314L842.895 159.666L842.991 160.066C843.85 164.071 841.53 168.088 837.633 169.348L837.238 169.464L836.461 166.567C839.128 165.852 840.711 163.11 839.997 160.443Z" fill="#2E2F33" fill-opacity="0.88"/>
<path d="M795.751 78.2499H770.251C763.623 78.2499 758.251 83.6225 758.251 90.2499V115.75C758.251 122.377 763.623 127.75 770.251 127.75H795.751C802.378 127.75 807.751 122.377 807.751 115.75V90.2499C807.751 83.6225 802.378 78.2499 795.751 78.2499Z" fill="#3076D1"/>
<path d="M785.726 115.889L791.192 103.342C792.047 101.378 790.609 99.1809 788.467 99.1809H777.536C775.394 99.1809 773.954 101.378 774.811 103.342L780.277 115.889C781.315 118.271 784.691 118.271 785.729 115.889H785.726Z" fill="white"/>
<path d="M783.001 96.3879C785.228 96.3879 787.033 94.5827 787.033 92.3559C787.033 90.1291 785.228 88.3239 783.001 88.3239C780.774 88.3239 778.969 90.1291 778.969 92.3559C778.969 94.5827 780.774 96.3879 783.001 96.3879Z" fill="white"/>
</g>
</g>
</svg>
