<svg width="1961" height="1424" viewBox="0 0 1961 1424" fill="none" xmlns="http://www.w3.org/2000/svg">
<g id="cheongsong_hall_floor_2">
<g id="Vector">
<path d="M514 502V611H399V882H450V962L577 1090.5H662V1147H927.5V1211H769.5V1362H870V1421H996.5V1337.5H1136.5V1302.5H1958V993H1082.5V943H1217.5V875.5H1206V611.5H1155V530L1026.5 402.5H939.5V345.5H675.5V315H851V179H935V3H611.5V163H628V177.5H418.5V217H3.5V346.5H25.5V502H514Z" fill="#999999"/>
<path d="M999.5 1424V1340.5H1139.5V1305.5H1961V990H1085.5V946H1220.5V872.5H1209V608.5H1158V528.75L1027.74 399.5H942.5V342.5H678.5V318H854V182H938V0H608.5V166H625V174.5H415.5V214H0.5V349.5H22.5V505H511V608H396V885H447V963.232L575.747 1093.5H659V1150H924.5V1208H766.5V1365H867V1424H999.5ZM873 1359H772.5V1214H930.5V1144H665V1087.5H578.253L453 960.769V879H402V614H517V499H28.5V343.5H6.5V220H421.5V180.5H631V160H614.5V6H932V176H848V312H672.5V348.5H936.5V405.5H1025.26L1152 531.251V614.5H1203V878.5H1214.5V940H1079.5V996H1955V1299.5H1133.5V1334.5H993.5V1418H873V1359Z" fill="black"/>
</g>
<g id="Vector_2">
<path d="M840.476 662.901C837.352 666.025 837.352 671.09 840.476 674.214L876.608 710.346C879.732 713.47 884.797 713.47 887.921 710.346L979.556 618.711C981.056 617.211 983.091 616.368 985.213 616.368H1146C1150.42 616.368 1154 612.786 1154 608.368L1154 531.839C1154 529.701 1153.15 527.652 1151.63 526.149L1028.34 404.308C1026.84 402.828 1024.82 401.998 1022.72 401.998L942.451 401.998C938.033 401.998 934.451 405.58 934.451 409.998L934.454 565.609C934.454 567.731 933.611 569.766 932.111 571.266L840.476 662.901Z" fill="#474747"/>
<path d="M977.435 616.59L885.8 708.225C883.848 710.178 880.682 710.177 878.729 708.225L842.598 672.093C840.645 670.141 840.645 666.975 842.598 665.022L934.232 573.388C936.295 571.325 937.453 568.526 937.453 565.609L937.451 409.998C937.451 407.237 939.69 404.999 942.451 404.998L1022.72 404.998C1024.03 404.998 1025.3 405.517 1026.23 406.442L1149.52 528.284L1151.63 526.149L1028.34 404.308C1026.94 402.921 1025.07 402.104 1023.11 402.008L1022.72 401.998L942.451 401.998C938.171 401.998 934.676 405.359 934.461 409.586L934.451 409.998L934.454 565.609C934.454 567.598 933.713 569.512 932.384 570.979L932.111 571.266L840.476 662.901C837.449 665.927 837.355 670.775 840.192 673.916L840.476 674.214L876.608 710.346L876.906 710.629C880.046 713.467 884.895 713.373 887.921 710.346L979.556 618.711L979.844 618.438C981.311 617.109 983.224 616.368 985.213 616.368H1146C1150.42 616.368 1154 612.786 1154 608.368L1154 531.839L1153.99 531.44C1153.89 529.448 1153.05 527.558 1151.63 526.149L1149.52 528.284C1150.47 529.223 1151 530.503 1151 531.839V608.368C1151 611.13 1148.77 613.368 1146 613.368H985.213C982.295 613.368 979.498 614.527 977.435 616.59Z" fill="#2E2F33" fill-opacity="0.88"/>
</g>
<g id="Vector_3">
<path d="M718.777 783.28C721.921 780.103 727.059 780.12 730.183 783.317L761.925 815.797C765.006 818.949 764.957 823.999 761.815 827.091L669.786 917.648C668.257 919.152 667.397 921.206 667.397 923.351L667.397 1082.07C667.397 1086.49 663.815 1090.07 659.397 1090.07L582.868 1090.07C580.73 1090.07 578.681 1089.21 577.178 1087.69L455.336 964.408C453.856 962.91 453.026 960.89 453.026 958.785L453.023 885.499C453.023 881.081 456.605 877.499 461.023 877.499L622.161 877.499C624.297 877.499 626.344 876.645 627.847 875.127L718.777 783.28Z" fill="#474747"/>
<path d="M761.925 815.797C765.006 818.949 764.957 823.999 761.815 827.091L669.786 917.648L669.507 917.936C668.153 919.409 667.397 921.34 667.397 923.351L667.397 1082.07C667.397 1086.49 663.815 1090.07 659.397 1090.07L582.868 1090.07C580.73 1090.07 578.681 1089.21 577.178 1087.69L579.312 1085.58C580.251 1086.54 581.532 1087.07 582.868 1087.07H659.397C662.158 1087.07 664.397 1084.83 664.397 1082.07L664.397 923.351C664.397 920.403 665.58 917.578 667.681 915.51L759.711 824.953C761.674 823.02 761.705 819.864 759.78 817.894L728.038 785.414C726.085 783.416 722.874 783.405 720.908 785.391L629.978 877.238C627.912 879.325 625.098 880.498 622.161 880.498L461.023 880.499C458.262 880.499 456.023 882.738 456.023 885.499L456.027 958.785C456.027 960.101 456.546 961.363 457.47 962.299L579.312 1085.58L577.178 1087.69L455.336 964.408C453.949 963.004 453.133 961.141 453.036 959.179L453.026 958.785L453.023 885.499C453.023 881.219 456.385 877.723 460.612 877.509L461.023 877.499L622.161 877.499C624.164 877.499 626.088 876.748 627.559 875.404L627.847 875.127L718.777 783.28C721.921 780.103 727.059 780.12 730.183 783.317L761.925 815.797Z" fill="#2E2F33" fill-opacity="0.88"/>
</g>
<g id="cheongsong_hall_2f_toilet_left_girl">
<path d="M673 239C673 243.418 676.582 247 681 247H840C844.418 247 848 243.418 848 239V185C848 180.582 844.418 177 840 177H681C676.582 177 673 180.582 673 185V239Z" fill="#FED9C4"/>
<path d="M840 180V177H681L681 180H840ZM845 185V239C845 241.761 842.761 244 840 244H681C678.239 244 676 241.761 676 239V185C676 182.239 678.239 180 681 180L681 177L680.588 177.011C676.361 177.225 673 180.72 673 185V239C673 243.418 676.582 247 681 247H840C844.418 247 848 243.418 848 239V185C848 180.582 844.418 177 840 177V180C842.761 180 845 182.239 845 185Z" fill="#2E2F33" fill-opacity="0.88"/>
<path d="M772.75 187.25H747.25C740.623 187.25 735.25 192.623 735.25 199.25V224.75C735.25 231.377 740.623 236.75 747.25 236.75H772.75C779.377 236.75 784.75 231.377 784.75 224.75V199.25C784.75 192.623 779.377 187.25 772.75 187.25Z" fill="#E76D6D"/>
<path d="M757.274 209.976L751.809 222.524C750.953 224.488 752.392 226.685 754.534 226.685H765.465C767.606 226.685 769.046 224.488 768.19 222.524L762.724 209.976C761.686 207.594 758.31 207.594 757.271 209.976H757.274Z" fill="white"/>
<path d="M760 205.381C762.227 205.381 764.032 203.575 764.032 201.348C764.032 199.122 762.227 197.317 760 197.317C757.773 197.317 755.968 199.122 755.968 201.348C755.968 203.575 757.773 205.381 760 205.381Z" fill="white"/>
</g>
<g id="cheongsong_hall_2f_toilet_right_girl">
<path d="M772 1352C772 1356.42 775.582 1360 780 1360H922C926.418 1360 930 1356.42 930 1352V1294C930 1289.58 926.418 1286 922 1286H780C775.582 1286 772 1289.58 772 1294V1352Z" fill="#FED9C4"/>
<path d="M922 1289V1286H780L780 1289H922ZM927 1294V1352C927 1354.76 924.761 1357 922 1357H780C777.239 1357 775 1354.76 775 1352V1294C775 1291.24 777.239 1289 780 1289L780 1286L779.588 1286.01C775.361 1286.23 772 1289.72 772 1294V1352C772 1356.28 775.361 1359.77 779.588 1359.99L780 1360H922C926.418 1360 930 1356.42 930 1352V1294C930 1289.58 926.418 1286 922 1286V1289C924.761 1289 927 1291.24 927 1294Z" fill="#2E2F33" fill-opacity="0.88"/>
<path d="M863.75 1298.25H838.25C831.623 1298.25 826.25 1303.62 826.25 1310.25V1335.75C826.25 1342.38 831.623 1347.75 838.25 1347.75H863.75C870.377 1347.75 875.75 1342.38 875.75 1335.75V1310.25C875.75 1303.62 870.377 1298.25 863.75 1298.25Z" fill="#E76D6D"/>
<path d="M848.274 1320.98L842.809 1333.52C841.953 1335.49 843.392 1337.69 845.534 1337.69H856.465C858.606 1337.69 860.046 1335.49 859.19 1333.52L853.724 1320.98C852.686 1318.59 849.31 1318.59 848.271 1320.98H848.274Z" fill="white"/>
<path d="M851 1316.38C853.227 1316.38 855.032 1314.58 855.032 1312.35C855.032 1310.12 853.227 1308.32 851 1308.32C848.773 1308.32 846.968 1310.12 846.968 1312.35C846.968 1314.58 848.773 1316.38 851 1316.38Z" fill="white"/>
</g>
<g id="cheongsong_hall_2f_toilet_left_boy">
<path d="M673 306C673 310.418 676.582 314 681 314H840C844.418 314 848 310.418 848 306V252C848 247.582 844.418 244 840 244H681C676.582 244 673 247.582 673 252V306Z" fill="#FED9C4"/>
<path d="M840 247V244H681L681 247H840ZM845 252V306C845 308.761 842.761 311 840 311H681C678.239 311 676 308.761 676 306V252C676 249.239 678.239 247 681 247L681 244L680.588 244.011C676.361 244.225 673 247.72 673 252V306C673 310.418 676.582 314 681 314H840C844.418 314 848 310.418 848 306V252C848 247.582 844.418 244 840 244V247C842.761 247 845 249.239 845 252Z" fill="#2E2F33" fill-opacity="0.88"/>
<path d="M772.75 254.25H747.25C740.623 254.25 735.25 259.623 735.25 266.25V291.75C735.25 298.377 740.623 303.75 747.25 303.75H772.75C779.377 303.75 784.75 298.377 784.75 291.75V266.25C784.75 259.623 779.377 254.25 772.75 254.25Z" fill="#3076D1"/>
<path d="M762.725 291.889L768.191 279.342C769.047 277.378 767.608 275.181 765.466 275.181H754.535C752.394 275.181 750.953 277.378 751.81 279.342L757.276 291.889C758.314 294.271 761.69 294.271 762.729 291.889H762.725Z" fill="white"/>
<path d="M760 272.388C762.227 272.388 764.032 270.583 764.032 268.356C764.032 266.129 762.227 264.324 760 264.324C757.773 264.324 755.968 266.129 755.968 268.356C755.968 270.583 757.773 272.388 760 272.388Z" fill="white"/>
</g>
<g id="cheongsong_hall_2f_toilet_right_boy">
<path d="M772 1281C772 1285.42 775.582 1289 780 1289H922C926.418 1289 930 1285.42 930 1281V1222C930 1217.58 926.418 1214 922 1214H780C775.582 1214 772 1217.58 772 1222V1281Z" fill="#FED9C4"/>
<path d="M922 1217V1214H780L780 1217H922ZM927 1222V1281C927 1283.76 924.761 1286 922 1286H780C777.239 1286 775 1283.76 775 1281V1222C775 1219.24 777.239 1217 780 1217L780 1214L779.588 1214.01C775.361 1214.23 772 1217.72 772 1222V1281C772 1285.28 775.361 1288.77 779.588 1288.99L780 1289H922C926.418 1289 930 1285.42 930 1281V1222C930 1217.58 926.418 1214 922 1214V1217C924.761 1217 927 1219.24 927 1222Z" fill="#2E2F33" fill-opacity="0.88"/>
<path d="M863.75 1226.25H838.25C831.623 1226.25 826.25 1231.62 826.25 1238.25V1263.75C826.25 1270.38 831.623 1275.75 838.25 1275.75H863.75C870.377 1275.75 875.75 1270.38 875.75 1263.75V1238.25C875.75 1231.62 870.377 1226.25 863.75 1226.25Z" fill="#3076D1"/>
<path d="M853.725 1263.89L859.191 1251.34C860.047 1249.38 858.608 1247.18 856.466 1247.18H845.535C843.394 1247.18 841.953 1249.38 842.81 1251.34L848.276 1263.89C849.314 1266.27 852.69 1266.27 853.729 1263.89H853.725Z" fill="white"/>
<path d="M851 1244.39C853.227 1244.39 855.032 1242.58 855.032 1240.36C855.032 1238.13 853.227 1236.32 851 1236.32C848.773 1236.32 846.968 1238.13 846.968 1240.36C846.968 1242.58 848.773 1244.39 851 1244.39Z" fill="white"/>
</g>
<g id="cheongsong_hall_2f_elevator_right">
<path d="M872 1411C872 1415.42 875.582 1419 880 1419H922C926.418 1419 930 1415.42 930 1411V1365C930 1360.58 926.418 1357 922 1357H880C875.582 1357 872 1360.58 872 1365V1411Z" fill="#C4C4C4"/>
<path d="M922 1360V1357H880L880 1360H922ZM927 1365V1411C927 1413.76 924.761 1416 922 1416H880C877.239 1416 875 1413.76 875 1411V1365C875 1362.24 877.239 1360 880 1360L880 1357C875.582 1357 872 1360.58 872 1365V1411C872 1415.42 875.582 1419 880 1419H922C926.418 1419 930 1415.42 930 1411V1365C930 1360.58 926.418 1357 922 1357V1360C924.761 1360 927 1362.24 927 1365Z" fill="#2E2F33" fill-opacity="0.88"/>
<path d="M911.625 1367.38H890.375C884.852 1367.38 880.375 1371.85 880.375 1377.38V1398.62C880.375 1404.15 884.852 1408.62 890.375 1408.62H911.625C917.147 1408.62 921.625 1404.15 921.625 1398.62V1377.38C921.625 1371.85 917.147 1367.38 911.625 1367.38ZM902.02 1375.43H903.174C903.289 1375.43 903.381 1375.34 903.381 1375.23V1372.67C903.381 1372.58 903.46 1372.5 903.557 1372.5H905.449C905.546 1372.5 905.625 1372.58 905.625 1372.67V1375.23C905.625 1375.34 905.717 1375.43 905.832 1375.43H906.986C907.153 1375.43 907.235 1375.63 907.118 1375.75L904.759 1378.11C904.618 1378.25 904.389 1378.25 904.249 1378.11L901.89 1375.75C901.772 1375.63 901.855 1375.43 902.02 1375.43ZM894.327 1374.96L896.686 1372.6C896.827 1372.46 897.056 1372.46 897.196 1372.6L899.555 1374.96C899.673 1375.08 899.589 1375.28 899.424 1375.28H898.27C898.155 1375.28 898.062 1375.37 898.062 1375.49V1378.04C898.062 1378.14 897.984 1378.22 897.886 1378.22H895.995C895.898 1378.22 895.819 1378.14 895.819 1378.04V1375.49C895.819 1375.37 895.726 1375.28 895.611 1375.28H894.458C894.291 1375.28 894.21 1375.08 894.327 1374.96ZM916.29 1397.34C916.29 1400.35 913.838 1402.81 910.823 1402.81H891.176C888.161 1402.81 885.709 1400.35 885.709 1397.34V1385.54C885.709 1382.52 888.161 1380.07 891.176 1380.07H910.823C913.838 1380.07 916.29 1382.52 916.29 1385.54V1397.34Z" fill="#4592FB"/>
<path d="M910.823 1381.04H891.176C888.695 1381.04 886.676 1383.06 886.676 1385.54V1397.34C886.676 1399.82 888.695 1401.84 891.176 1401.84H910.823C913.304 1401.84 915.323 1399.82 915.323 1397.34V1385.54C915.323 1383.06 913.304 1381.04 910.823 1381.04ZM908.61 1383.93C909.245 1383.93 909.76 1384.44 909.76 1385.08C909.76 1385.71 909.245 1386.23 908.61 1386.23C907.975 1386.23 907.46 1385.71 907.46 1385.08C907.46 1384.44 907.975 1383.93 908.61 1383.93ZM900.866 1383.93C901.501 1383.93 902.016 1384.44 902.016 1385.08C902.016 1385.71 901.501 1386.23 900.866 1386.23C900.231 1386.23 899.716 1385.71 899.716 1385.08C899.716 1384.44 900.231 1383.93 900.866 1383.93ZM893.122 1383.93C893.757 1383.93 894.272 1384.44 894.272 1385.08C894.272 1385.71 893.757 1386.23 893.122 1386.23C892.487 1386.23 891.972 1385.71 891.972 1385.08C891.972 1384.44 892.487 1383.93 893.122 1383.93ZM896.455 1392.08C896.455 1392.44 896.163 1392.73 895.802 1392.73C895.442 1392.73 895.15 1392.44 895.15 1392.08V1388.66H894.809V1398.08C894.809 1398.48 894.49 1398.8 894.096 1398.8C893.703 1398.8 893.384 1398.48 893.384 1398.08V1392.67H892.859V1398.08C892.859 1398.48 892.54 1398.8 892.146 1398.8C891.753 1398.8 891.434 1398.48 891.434 1398.08V1388.66H890.995V1392.08C890.995 1392.44 890.703 1392.73 890.343 1392.73C889.983 1392.73 889.69 1392.44 889.69 1392.08V1388.05C889.69 1387.33 890.274 1386.75 890.995 1386.75H895.147C895.867 1386.75 896.452 1387.33 896.452 1388.05V1392.08H896.455ZM904.199 1392.08C904.199 1392.44 903.906 1392.73 903.546 1392.73C903.186 1392.73 902.894 1392.44 902.894 1392.08V1388.66H902.553V1398.08C902.553 1398.48 902.234 1398.8 901.84 1398.8C901.446 1398.8 901.127 1398.48 901.127 1398.08V1392.67H900.604V1398.08C900.604 1398.48 900.285 1398.8 899.891 1398.8C899.498 1398.8 899.179 1398.48 899.179 1398.08V1388.66H898.74V1392.08C898.74 1392.44 898.448 1392.73 898.087 1392.73C897.727 1392.73 897.435 1392.44 897.435 1392.08V1388.05C897.435 1387.33 898.019 1386.75 898.74 1386.75H902.892C903.614 1386.75 904.198 1387.33 904.198 1388.05L904.199 1392.08ZM911.942 1392.08C911.942 1392.44 911.65 1392.73 911.29 1392.73C910.93 1392.73 910.637 1392.44 910.637 1392.08V1388.66H910.296V1398.08C910.296 1398.48 909.978 1398.8 909.584 1398.8C909.19 1398.8 908.871 1398.48 908.871 1398.08V1392.67H908.346V1398.08C908.346 1398.48 908.028 1398.8 907.634 1398.8C907.24 1398.8 906.921 1398.48 906.921 1398.08V1388.66H906.482V1392.08C906.482 1392.44 906.19 1392.73 905.83 1392.73C905.47 1392.73 905.177 1392.44 905.177 1392.08V1388.05C905.177 1387.33 905.761 1386.75 906.482 1386.75H910.635C911.356 1386.75 911.94 1387.33 911.94 1388.05V1392.08H911.942Z" fill="#4592FB"/>
<path d="M900.866 1386.23C901.501 1386.23 902.016 1385.71 902.016 1385.08C902.016 1384.44 901.501 1383.93 900.866 1383.93C900.231 1383.93 899.716 1384.44 899.716 1385.08C899.716 1385.71 900.231 1386.23 900.866 1386.23Z" fill="white"/>
<path d="M893.122 1386.23C893.757 1386.23 894.272 1385.71 894.272 1385.08C894.272 1384.44 893.757 1383.93 893.122 1383.93C892.487 1383.93 891.972 1384.44 891.972 1385.08C891.972 1385.71 892.487 1386.23 893.122 1386.23Z" fill="white"/>
<path d="M908.61 1386.23C909.245 1386.23 909.76 1385.71 909.76 1385.08C909.76 1384.44 909.245 1383.93 908.61 1383.93C907.975 1383.93 907.46 1384.44 907.46 1385.08C907.46 1385.71 907.975 1386.23 908.61 1386.23Z" fill="white"/>
<path d="M910.825 1380.08H891.175C888.163 1380.08 885.712 1382.53 885.712 1385.54V1397.34C885.712 1400.35 888.163 1402.81 891.175 1402.81H910.825C913.838 1402.81 916.287 1400.35 916.287 1397.34V1385.54C916.287 1382.53 913.838 1380.08 910.825 1380.08ZM915.325 1397.34C915.325 1399.82 913.3 1401.84 910.825 1401.84H891.175C888.7 1401.84 886.675 1399.82 886.675 1397.34V1385.54C886.675 1383.06 888.7 1381.04 891.175 1381.04H910.825C913.3 1381.04 915.325 1383.06 915.325 1385.54V1397.34Z" fill="white"/>
<path d="M911.938 1388.05V1392.08C911.938 1392.44 911.65 1392.74 911.287 1392.74C910.925 1392.74 910.637 1392.44 910.637 1392.08V1388.66L910.3 1388.66V1398.09C910.3 1398.47 909.975 1398.8 909.588 1398.8C909.188 1398.8 908.875 1398.47 908.875 1398.09V1392.66H908.35V1398.09C908.35 1398.47 908.025 1398.8 907.637 1398.8C907.237 1398.8 906.925 1398.47 906.925 1398.09V1388.66H906.487V1392.08C906.487 1392.44 906.188 1392.74 905.838 1392.74C905.475 1392.74 905.175 1392.44 905.175 1392.08V1388.05C905.175 1387.33 905.763 1386.75 906.487 1386.75H910.637C911.362 1386.75 911.938 1387.33 911.938 1388.05Z" fill="white"/>
<path d="M896.45 1388.05V1392.08C896.45 1392.44 896.162 1392.74 895.8 1392.74C895.438 1392.74 895.15 1392.44 895.15 1392.08V1388.66L894.812 1388.66V1398.09C894.812 1398.47 894.487 1398.8 894.1 1398.8C893.7 1398.8 893.388 1398.47 893.388 1398.09V1392.66H892.862V1398.09C892.862 1398.47 892.538 1398.8 892.15 1398.8C891.75 1398.8 891.438 1398.47 891.438 1398.09V1388.66H891V1392.08C891 1392.44 890.7 1392.74 890.35 1392.74C889.988 1392.74 889.688 1392.44 889.688 1392.08V1388.05C889.688 1387.33 890.275 1386.75 891 1386.75H895.15C895.875 1386.75 896.45 1387.33 896.45 1388.05Z" fill="white"/>
<path d="M904.2 1388.05V1392.08C904.2 1392.44 903.912 1392.74 903.55 1392.74C903.188 1392.74 902.9 1392.44 902.9 1392.08V1388.66H902.55V1398.09C902.55 1398.47 902.237 1398.8 901.837 1398.8C901.45 1398.8 901.125 1398.47 901.125 1398.09V1392.66H900.6V1398.09C900.6 1398.47 900.287 1398.8 899.887 1398.8C899.5 1398.8 899.175 1398.47 899.175 1398.09V1388.66H898.737V1392.08C898.737 1392.44 898.45 1392.74 898.087 1392.74C897.725 1392.74 897.437 1392.44 897.437 1392.08V1388.05C897.437 1387.33 898.025 1386.75 898.737 1386.75H902.9C903.612 1386.75 904.2 1387.33 904.2 1388.05Z" fill="white"/>
<path d="M894.459 1375.28H895.612C895.727 1375.28 895.82 1375.37 895.82 1375.49V1378.04C895.82 1378.14 895.899 1378.22 895.996 1378.22H897.888C897.985 1378.22 898.064 1378.14 898.064 1378.04V1375.49C898.064 1375.37 898.156 1375.28 898.271 1375.28H899.425C899.591 1375.28 899.674 1375.08 899.556 1374.96L897.198 1372.61C897.056 1372.46 896.827 1372.46 896.688 1372.61L894.329 1374.96C894.211 1375.08 894.294 1375.28 894.459 1375.28Z" fill="white"/>
<path d="M904.246 1378.11C904.388 1378.25 904.616 1378.25 904.756 1378.11L907.115 1375.75C907.232 1375.63 907.149 1375.43 906.984 1375.43H905.83C905.715 1375.43 905.622 1375.34 905.622 1375.23V1372.67C905.622 1372.58 905.544 1372.5 905.446 1372.5H903.555C903.458 1372.5 903.379 1372.58 903.379 1372.67V1375.23C903.379 1375.34 903.286 1375.43 903.171 1375.43H902.017C901.851 1375.43 901.769 1375.63 901.886 1375.75L904.246 1378.11Z" fill="white"/>
</g>
<g id="cheongsong_hall_2f_stairs_left_main">
<path d="M469 491C469 495.418 472.582 499 477 499H565C569.418 499 573 495.418 573 491V357C573 352.582 569.418 349 565 349H477C472.582 349 469 352.582 469 357V491Z" fill="#D9FFE6"/>
<path d="M565 352V349H477L477 352H565ZM570 357V491C570 493.761 567.761 496 565 496H477C474.239 496 472 493.761 472 491V357C472 354.239 474.239 352 477 352L477 349L476.588 349.011C472.361 349.225 469 352.72 469 357V491C469 495.418 472.582 499 477 499H565C569.418 499 573 495.418 573 491V357C573 352.582 569.418 349 565 349V352C567.761 352 570 354.239 570 357Z" fill="#2E2F33" fill-opacity="0.88"/>
<path d="M544.94 397.634C543.892 397.247 542.728 397.787 542.341 398.836L538.58 409.056H517.281L520.805 400.29C521.222 399.252 520.719 398.071 519.681 397.654C518.644 397.237 517.465 397.743 517.048 398.778L497.432 447.581C497.015 448.619 497.517 449.8 498.556 450.217C498.803 450.316 499.058 450.364 499.31 450.364C500.112 450.364 500.873 449.884 501.189 449.093L505.218 439.071C505.306 439.083 505.382 439.121 505.472 439.121H527.519L524.386 447.64C524 448.688 524.537 449.854 525.587 450.238C525.818 450.324 526.055 450.364 526.286 450.364C527.11 450.364 527.885 449.855 528.187 449.036L546.142 400.233C546.527 399.184 545.99 398.018 544.94 397.634ZM516.074 413.104H537.089L533.849 421.91H512.114L515.686 413.026C515.816 413.051 515.936 413.104 516.074 413.104ZM506.825 435.072L510.51 425.903C510.606 425.917 510.694 425.961 510.794 425.961H532.361L529.009 435.072H506.825Z" fill="#6E4944"/>
</g>
<g id="cheongsong_hall_2f_stairs_right_main">
<path d="M1024 1138C1024 1142.42 1027.58 1146 1032 1146H1120C1124.42 1146 1128 1142.42 1128 1138V1004C1128 999.582 1124.42 996 1120 996H1032C1027.58 996 1024 999.582 1024 1004V1138Z" fill="#D9FFE6"/>
<path d="M1120 999V996H1032L1032 999H1120ZM1125 1004V1138C1125 1140.76 1122.76 1143 1120 1143H1032C1029.24 1143 1027 1140.76 1027 1138V1004C1027 1001.24 1029.24 999 1032 999L1032 996L1031.59 996.011C1027.36 996.225 1024 999.72 1024 1004V1138C1024 1142.42 1027.58 1146 1032 1146H1120C1124.42 1146 1128 1142.42 1128 1138V1004C1128 999.582 1124.42 996 1120 996V999C1122.76 999 1125 1001.24 1125 1004Z" fill="#2E2F33" fill-opacity="0.88"/>
<path d="M1099.94 1044.63C1098.89 1044.25 1097.73 1044.79 1097.34 1045.84L1093.58 1056.06H1072.28L1075.81 1047.29C1076.22 1046.25 1075.72 1045.07 1074.68 1044.65C1073.64 1044.24 1072.46 1044.74 1072.05 1045.78L1052.43 1094.58C1052.02 1095.62 1052.52 1096.8 1053.56 1097.22C1053.8 1097.32 1054.06 1097.36 1054.31 1097.36C1055.11 1097.36 1055.87 1096.88 1056.19 1096.09L1060.22 1086.07C1060.31 1086.08 1060.38 1086.12 1060.47 1086.12H1082.52L1079.39 1094.64C1079 1095.69 1079.54 1096.85 1080.59 1097.24C1080.82 1097.32 1081.06 1097.36 1081.29 1097.36C1082.11 1097.36 1082.89 1096.86 1083.19 1096.04L1101.14 1047.23C1101.53 1046.18 1100.99 1045.02 1099.94 1044.63ZM1071.07 1060.1H1092.09L1088.85 1068.91H1067.11L1070.69 1060.03C1070.82 1060.05 1070.94 1060.1 1071.07 1060.1ZM1061.83 1082.07L1065.51 1072.9C1065.61 1072.92 1065.69 1072.96 1065.79 1072.96H1087.36L1084.01 1082.07H1061.83Z" fill="#6E4944"/>
</g>
<g id="cheongsong_hall_2f_stairs_left">
<path d="M28 491C28 495.418 31.5817 499 36 499H93C97.4183 499 101 495.418 101 491V355C101 350.582 97.4183 347 93 347H36C31.5817 347 28 350.582 28 355V491Z" fill="#D9FFE6"/>
<path d="M93 350V347H36V350H93ZM98 355V491C98 493.761 95.7614 496 93 496H36C33.2386 496 31 493.761 31 491V355C31 352.239 33.2386 350 36 350V347C31.5817 347 28 350.582 28 355V491C28 495.418 31.5817 499 36 499H93C97.4183 499 101 495.418 101 491V355C101 350.582 97.4183 347 93 347V350C95.7614 350 98 352.239 98 355Z" fill="#2E2F33" fill-opacity="0.88"/>
<path d="M79.96 405.423C79.261 405.165 78.485 405.525 78.227 406.224L75.72 413.037H61.521L63.87 407.193C64.148 406.501 63.813 405.714 63.121 405.436C62.429 405.158 61.643 405.495 61.365 406.185L48.288 438.721C48.01 439.413 48.345 440.2 49.037 440.478C49.202 440.544 49.372 440.576 49.54 440.576C50.075 440.576 50.582 440.256 50.793 439.729L53.479 433.047C53.537 433.055 53.588 433.081 53.648 433.081H68.346L66.257 438.76C66 439.459 66.358 440.236 67.058 440.492C67.212 440.549 67.37 440.576 67.524 440.576C68.073 440.576 68.59 440.237 68.791 439.691L80.761 407.155C81.018 406.456 80.66 405.679 79.96 405.423ZM60.716 415.736H74.726L72.566 421.607H58.076L60.457 415.684C60.544 415.701 60.624 415.736 60.716 415.736ZM54.55 430.381L57.007 424.269C57.071 424.278 57.129 424.307 57.196 424.307H71.574L69.339 430.381H54.55Z" fill="#6E4944"/>
</g>
<g id="cheongsong_hall_2f_stairs_right">
<path d="M1493 1292C1493 1296.42 1496.58 1300 1501 1300H1572C1576.42 1300 1580 1296.42 1580 1292V1193C1580 1188.58 1576.42 1185 1572 1185H1501C1496.58 1185 1493 1188.58 1493 1193V1292Z" fill="#D9FFE6"/>
<path d="M1572 1188V1185H1501L1501 1188H1572ZM1577 1193V1292C1577 1294.76 1574.76 1297 1572 1297H1501C1498.24 1297 1496 1294.76 1496 1292V1193C1496 1190.24 1498.24 1188 1501 1188L1501 1185C1496.58 1185 1493 1188.58 1493 1193V1292C1493 1296.42 1496.58 1300 1501 1300H1572C1576.42 1300 1580 1296.42 1580 1292V1193C1580 1188.58 1576.42 1185 1572 1185V1188C1574.76 1188 1577 1190.24 1577 1193Z" fill="#2E2F33" fill-opacity="0.88"/>
<path d="M1551.96 1224.42C1551.26 1224.17 1550.49 1224.52 1550.23 1225.22L1547.72 1232.04H1533.52L1535.87 1226.19C1536.15 1225.5 1535.81 1224.71 1535.12 1224.44C1534.43 1224.16 1533.64 1224.5 1533.36 1225.19L1520.29 1257.72C1520.01 1258.41 1520.35 1259.2 1521.04 1259.48C1521.2 1259.54 1521.37 1259.58 1521.54 1259.58C1522.08 1259.58 1522.58 1259.26 1522.79 1258.73L1525.48 1252.05C1525.54 1252.06 1525.59 1252.08 1525.65 1252.08H1540.35L1538.26 1257.76C1538 1258.46 1538.36 1259.24 1539.06 1259.49C1539.21 1259.55 1539.37 1259.58 1539.52 1259.58C1540.07 1259.58 1540.59 1259.24 1540.79 1258.69L1552.76 1226.15C1553.02 1225.46 1552.66 1224.68 1551.96 1224.42ZM1532.72 1234.74H1546.73L1544.57 1240.61H1530.08L1532.46 1234.68C1532.54 1234.7 1532.62 1234.74 1532.72 1234.74ZM1526.55 1249.38L1529.01 1243.27C1529.07 1243.28 1529.13 1243.31 1529.2 1243.31H1543.57L1541.34 1249.38H1526.55Z" fill="#6E4944"/>
</g>
<g id="cheongsong_hall_211">
<path d="M7 301C7 305.418 10.5817 309 15 309H71C75.4183 309 79 305.418 79 301V228C79 223.582 75.4183 220 71 220H15C10.5817 220 7 223.582 7 228V301Z" fill="#F7FBFF"/>
<path d="M71 223V220H15L15 223H71ZM76 228V301C76 303.761 73.7614 306 71 306H15C12.2386 306 10 303.761 10 301V228C10 225.239 12.2386 223 15 223L15 220L14.5879 220.011C10.3611 220.225 7 223.72 7 228V301C7 305.418 10.5817 309 15 309H71C75.4183 309 79 305.418 79 301V228C79 223.582 75.4183 220 71 220V223C73.7614 223 76 225.239 76 228Z" fill="#2E2F33" fill-opacity="0.88"/>
<path d="M63.0312 252.375V275H58.9375V256.344H58.8125L53.5312 259.719V256L59.125 252.375H63.0312Z" fill="black"/>
<path d="M48.3438 252.375V275H44.25V256.344H44.125L38.8438 259.719V256L44.4375 252.375H48.3438Z" fill="black"/>
<path d="M19.875 275V272.062L27.875 264.344C30.1562 262.062 31.3438 260.719 31.3438 258.812C31.3438 256.719 29.6875 255.375 27.4688 255.375C25.125 255.375 23.625 256.844 23.6562 259.125H19.7813C19.75 254.844 22.9688 252.062 27.5 252.062C32.125 252.062 35.25 254.812 35.25 258.625C35.25 261.188 34 263.25 29.5625 267.438L25.5312 271.438V271.594H35.5938V275H19.875Z" fill="black"/>
</g>
<g id="cheongsong_hall_212">
<path d="M76 301C76 305.418 79.5817 309 84 309H140C144.418 309 148 305.418 148 301V228C148 223.582 144.418 220 140 220H84C79.5817 220 76 223.582 76 228V301Z" fill="#F7FBFF"/>
<path d="M140 223V220H84L84 223H140ZM145 228V301C145 303.761 142.761 306 140 306H84C81.2386 306 79 303.761 79 301V228C79 225.239 81.2386 223 84 223L84 220L83.5879 220.011C79.3611 220.225 76 223.72 76 228V301C76 305.418 79.5817 309 84 309H140C144.418 309 148 305.418 148 301V228C148 223.582 144.418 220 140 220V223C142.761 223 145 225.239 145 228Z" fill="#2E2F33" fill-opacity="0.88"/>
<path d="M120.844 275V272.062L128.844 264.344C131.125 262.062 132.312 260.719 132.312 258.812C132.312 256.719 130.656 255.375 128.437 255.375C126.094 255.375 124.594 256.844 124.625 259.125H120.75C120.719 254.844 123.937 252.062 128.469 252.062C133.094 252.062 136.219 254.812 136.219 258.625C136.219 261.188 134.969 263.25 130.531 267.438L126.5 271.438V271.594H136.562V275H120.844Z" fill="black"/>
<path d="M115.344 252.375V275H111.25V256.344H111.125L105.844 259.719V256L111.438 252.375H115.344Z" fill="black"/>
<path d="M86.875 275V272.062L94.875 264.344C97.1562 262.062 98.3437 260.719 98.3437 258.812C98.3437 256.719 96.6875 255.375 94.4687 255.375C92.125 255.375 90.625 256.844 90.6562 259.125H86.7812C86.75 254.844 89.9687 252.062 94.5 252.062C99.125 252.062 102.25 254.812 102.25 258.625C102.25 261.188 101 263.25 96.5625 267.438L92.5312 271.438V271.594H102.594V275H86.875Z" fill="black"/>
</g>
<g id="cheongsong_hall_213">
<path d="M145 301C145 305.418 148.582 309 153 309H209C213.418 309 217 305.418 217 301V228C217 223.582 213.418 220 209 220H153C148.582 220 145 223.582 145 228V301Z" fill="#F7FBFF"/>
<path d="M209 223V220H153L153 223H209ZM214 228V301C214 303.761 211.761 306 209 306H153C150.239 306 148 303.761 148 301V228C148 225.239 150.239 223 153 223L153 220L152.588 220.011C148.361 220.225 145 223.72 145 228V301C145 305.418 148.582 309 153 309H209C213.418 309 217 305.418 217 301V228C217 223.582 213.418 220 209 220V223C211.761 223 214 225.239 214 228Z" fill="#2E2F33" fill-opacity="0.88"/>
<path d="M197.062 275.312C192.219 275.312 188.781 272.688 188.688 268.875H192.781C192.906 270.688 194.719 271.875 197.062 271.875C199.562 271.875 201.344 270.5 201.344 268.5C201.344 266.469 199.594 265 196.656 265H194.625V261.875H196.656C199.062 261.875 200.75 260.531 200.719 258.562C200.75 256.656 199.312 255.375 197.094 255.375C194.969 255.375 193.125 256.562 193.062 258.469H189.156C189.25 254.656 192.688 252.062 197.125 252.062C201.719 252.062 204.688 254.875 204.656 258.344C204.688 260.875 203 262.719 200.531 263.219V263.406C203.719 263.844 205.531 265.875 205.5 268.719C205.531 272.531 201.969 275.312 197.062 275.312Z" fill="black"/>
<path d="M183.344 252.375V275H179.25V256.344H179.125L173.844 259.719V256L179.438 252.375H183.344Z" fill="black"/>
<path d="M154.875 275V272.062L162.875 264.344C165.156 262.062 166.344 260.719 166.344 258.812C166.344 256.719 164.687 255.375 162.469 255.375C160.125 255.375 158.625 256.844 158.656 259.125H154.781C154.75 254.844 157.969 252.062 162.5 252.062C167.125 252.062 170.25 254.812 170.25 258.625C170.25 261.188 169 263.25 164.562 267.438L160.531 271.438V271.594H170.594V275H154.875Z" fill="black"/>
</g>
<g id="cheongsong_hall_214">
<path d="M214 301C214 305.418 217.582 309 222 309H278C282.418 309 286 305.418 286 301V228C286 223.582 282.418 220 278 220H222C217.582 220 214 223.582 214 228V301Z" fill="#F7FBFF"/>
<path d="M278 223V220H222L222 223H278ZM283 228V301C283 303.761 280.761 306 278 306H222C219.239 306 217 303.761 217 301V228C217 225.239 219.239 223 222 223L222 220L221.588 220.011C217.361 220.225 214 223.72 214 228V301C214 305.418 217.582 309 222 309H278C282.418 309 286 305.418 286 301V228C286 223.582 282.418 220 278 220V223C280.761 223 283 225.239 283 228Z" fill="#2E2F33" fill-opacity="0.88"/>
<path d="M257.438 270.781V267.531L267.219 252.375H272.281V267.438H275.25V270.781H272.281V275H268.406V270.781H257.438ZM261.594 267.438H268.469V257H268.219L261.594 267.281V267.438Z" fill="black"/>
<path d="M252.344 252.375V275H248.25V256.344H248.125L242.844 259.719V256L248.438 252.375H252.344Z" fill="black"/>
<path d="M223.875 275V272.062L231.875 264.344C234.156 262.062 235.344 260.719 235.344 258.812C235.344 256.719 233.687 255.375 231.469 255.375C229.125 255.375 227.625 256.844 227.656 259.125H223.781C223.75 254.844 226.969 252.062 231.5 252.062C236.125 252.062 239.25 254.812 239.25 258.625C239.25 261.188 238 263.25 233.562 267.438L229.531 271.438V271.594H239.594V275H223.875Z" fill="black"/>
</g>
<g id="cheongsong_hall_215">
<path d="M283 301C283 305.418 286.582 309 291 309H347C351.418 309 355 305.418 355 301V228C355 223.582 351.418 220 347 220H291C286.582 220 283 223.582 283 228V301Z" fill="#F7FBFF"/>
<path d="M347 223V220H291L291 223H347ZM352 228V301C352 303.761 349.761 306 347 306H291C288.239 306 286 303.761 286 301V228C286 225.239 288.239 223 291 223L291 220L290.588 220.011C286.361 220.225 283 223.72 283 228V301C283 305.418 286.582 309 291 309H347C351.418 309 355 305.418 355 301V228C355 223.582 351.418 220 347 220V223C349.761 223 352 225.239 352 228Z" fill="#2E2F33" fill-opacity="0.88"/>
<path d="M335.875 275.312C331.344 275.312 328.031 272.625 327.906 268.875H331.875C332 270.719 333.719 272.031 335.875 272.031C338.406 272.031 340.219 270.188 340.219 267.688C340.219 265.094 338.344 263.25 335.75 263.25C334 263.219 332.719 263.844 332 265.188H328.219L329.594 252.375H342.969V255.781H332.938L332.25 261.781H332.469C333.344 260.781 335 260.062 336.844 260.062C341.062 260.062 344.156 263.219 344.156 267.562C344.156 272.094 340.75 275.312 335.875 275.312Z" fill="black"/>
<path d="M322.344 252.375V275H318.25V256.344H318.125L312.844 259.719V256L318.438 252.375H322.344Z" fill="black"/>
<path d="M293.875 275V272.062L301.875 264.344C304.156 262.062 305.344 260.719 305.344 258.812C305.344 256.719 303.688 255.375 301.469 255.375C299.125 255.375 297.625 256.844 297.656 259.125H293.781C293.75 254.844 296.969 252.062 301.5 252.062C306.125 252.062 309.25 254.812 309.25 258.625C309.25 261.188 308 263.25 303.563 267.438L299.531 271.438V271.594H309.594V275H293.875Z" fill="black"/>
</g>
<g id="cheongsong_hall_216">
<path d="M352 301C352 305.418 355.582 309 360 309H416C420.418 309 424 305.418 424 301V228C424 223.582 420.418 220 416 220H360C355.582 220 352 223.582 352 228V301Z" fill="#F7FBFF"/>
<path d="M416 223V220H360L360 223H416ZM421 228V301C421 303.761 418.761 306 416 306H360C357.239 306 355 303.761 355 301V228C355 225.239 357.239 223 360 223L360 220L359.588 220.011C355.361 220.225 352 223.72 352 228V301C352 305.418 355.582 309 360 309H416C420.418 309 424 305.418 424 301V228C424 223.582 420.418 220 416 220V223C418.761 223 421 225.239 421 228Z" fill="#2E2F33" fill-opacity="0.88"/>
<path d="M404.313 275.312C399.906 275.281 395.469 272.656 395.5 264.312C395.5 256.562 399.031 252.062 404.563 252.062C408.938 252.062 411.938 254.812 412.438 258.469H408.406C408 256.75 406.625 255.594 404.563 255.594C401.281 255.594 399.438 258.5 399.438 263.25H399.656C400.813 261.312 403 260.156 405.469 260.156C409.531 260.156 412.656 263.219 412.656 267.5C412.656 272 409.313 275.344 404.313 275.312ZM404.313 272.031C406.844 272.031 408.719 270.062 408.719 267.594C408.719 265.188 406.875 263.25 404.375 263.25C401.844 263.25 399.906 265.25 399.875 267.625C399.906 270 401.75 272.031 404.313 272.031Z" fill="black"/>
<path d="M390.344 252.375V275H386.25V256.344H386.125L380.844 259.719V256L386.438 252.375H390.344Z" fill="black"/>
<path d="M361.875 275V272.062L369.875 264.344C372.156 262.062 373.344 260.719 373.344 258.812C373.344 256.719 371.688 255.375 369.469 255.375C367.125 255.375 365.625 256.844 365.656 259.125H361.781C361.75 254.844 364.969 252.062 369.5 252.062C374.125 252.062 377.25 254.812 377.25 258.625C377.25 261.188 376 263.25 371.563 267.438L367.531 271.438V271.594H377.594V275H361.875Z" fill="black"/>
</g>
<g id="cheongsong_hall_217">
<path d="M421 301C421 305.418 424.582 309 429 309H618C622.418 309 626 305.418 626 301V188C626 183.582 622.418 180 618 180H429C424.582 180 421 183.582 421 188V301Z" fill="#F7FBFF"/>
<path d="M618 183V180H429L429 183H618ZM623 188V301C623 303.761 620.761 306 618 306H429C426.239 306 424 303.761 424 301V188C424 185.239 426.239 183 429 183L429 180C424.582 180 421 183.582 421 188V301C421 305.418 424.582 309 429 309H618C622.418 309 626 305.418 626 301V188C626 183.582 622.418 180 618 180V183C620.761 183 623 185.239 623 188Z" fill="#2E2F33" fill-opacity="0.88"/>
<path d="M533.688 255L543.5 235.938V235.781H532.125V232.375H547.719V235.844L537.906 255H533.688Z" fill="black"/>
<path d="M527.344 232.375V255H523.25V236.344H523.125L517.844 239.719V236L523.438 232.375H527.344Z" fill="black"/>
<path d="M498.875 255V252.062L506.875 244.344C509.156 242.062 510.344 240.719 510.344 238.812C510.344 236.719 508.688 235.375 506.469 235.375C504.125 235.375 502.625 236.844 502.656 239.125H498.781C498.75 234.844 501.969 232.062 506.5 232.062C511.125 232.062 514.25 234.812 514.25 238.625C514.25 241.188 513 243.25 508.563 247.438L504.531 251.438V251.594H514.594V255H498.875Z" fill="black"/>
</g>
<g id="cheongsong_hall_220">
<path d="M614 120C614 124.418 617.582 128 622 128H688C692.418 128 696 124.418 696 120V14C696 9.58172 692.418 6 688 6H622C617.582 6 614 9.58172 614 14V120Z" fill="#F7FBFF"/>
<path d="M688 9V6H622L622 9H688ZM693 14V120C693 122.761 690.761 125 688 125H622C619.239 125 617 122.761 617 120V14C617 11.2386 619.239 9 622 9L622 6C617.582 6 614 9.58172 614 14V120C614 124.28 617.361 127.775 621.588 127.989L622 128H688C692.418 128 696 124.418 696 120V14C696 9.58172 692.418 6 688 6V9C690.761 9 693 11.2386 693 14Z" fill="#2E2F33" fill-opacity="0.88"/>
<path d="M673.781 78.3125C668.344 78.3125 665.094 74.0938 665.094 66.6875C665.094 59.3125 668.344 55.0625 673.781 55.0625C679.188 55.0625 682.469 59.3125 682.469 66.6875C682.469 74.0938 679.219 78.3125 673.781 78.3125ZM673.781 74.9062C676.625 74.9062 678.375 72.125 678.375 66.6875C678.375 61.2812 676.594 58.4375 673.781 58.4375C670.969 58.4375 669.188 61.2812 669.188 66.6875C669.188 72.125 670.938 74.9062 673.781 74.9062Z" fill="black"/>
<path d="M646.156 78V75.0625L654.156 67.3438C656.437 65.0625 657.625 63.7188 657.625 61.8125C657.625 59.7188 655.969 58.375 653.75 58.375C651.406 58.375 649.906 59.8438 649.937 62.125H646.062C646.031 57.8438 649.25 55.0625 653.781 55.0625C658.406 55.0625 661.531 57.8125 661.531 61.625C661.531 64.1875 660.281 66.25 655.844 70.4375L651.812 74.4375V74.5938H661.875V78H646.156Z" fill="black"/>
<path d="M626.875 78V75.0625L634.875 67.3438C637.156 65.0625 638.344 63.7188 638.344 61.8125C638.344 59.7188 636.687 58.375 634.469 58.375C632.125 58.375 630.625 59.8438 630.656 62.125H626.781C626.75 57.8438 629.969 55.0625 634.5 55.0625C639.125 55.0625 642.25 57.8125 642.25 61.625C642.25 64.1875 641 66.25 636.562 70.4375L632.531 74.4375V74.5938H642.594V78H626.875Z" fill="black"/>
</g>
<g id="cheongsong_hall_221">
<path d="M693 120C693 124.418 696.582 128 701 128H767C771.418 128 775 124.418 775 120V14C775 9.58172 771.418 6 767 6H701C696.582 6 693 9.58172 693 14V120Z" fill="#F7FBFF"/>
<path d="M767 9V6H701L701 9H767ZM772 14V120C772 122.761 769.761 125 767 125H701C698.239 125 696 122.761 696 120V14C696 11.2386 698.239 9 701 9L701 6C696.582 6 693 9.58172 693 14V120C693 124.28 696.361 127.775 700.588 127.989L701 128H767C771.418 128 775 124.418 775 120V14C775 9.58172 771.418 6 767 6V9C769.761 9 772 11.2386 772 14Z" fill="#2E2F33" fill-opacity="0.88"/>
<path d="M756.625 55.375V78H752.531V59.3438H752.406L747.125 62.7188V59L752.719 55.375H756.625Z" fill="black"/>
<path d="M728.156 78V75.0625L736.156 67.3438C738.437 65.0625 739.625 63.7188 739.625 61.8125C739.625 59.7188 737.969 58.375 735.75 58.375C733.406 58.375 731.906 59.8438 731.937 62.125H728.062C728.031 57.8438 731.25 55.0625 735.781 55.0625C740.406 55.0625 743.531 57.8125 743.531 61.625C743.531 64.1875 742.281 66.25 737.844 70.4375L733.812 74.4375V74.5938H743.875V78H728.156Z" fill="black"/>
<path d="M708.875 78V75.0625L716.875 67.3438C719.156 65.0625 720.344 63.7188 720.344 61.8125C720.344 59.7188 718.687 58.375 716.469 58.375C714.125 58.375 712.625 59.8438 712.656 62.125H708.781C708.75 57.8438 711.969 55.0625 716.5 55.0625C721.125 55.0625 724.25 57.8125 724.25 61.625C724.25 64.1875 723 66.25 718.562 70.4375L714.531 74.4375V74.5938H724.594V78H708.875Z" fill="black"/>
</g>
<g id="cheongsong_hall_222">
<path d="M772 120C772 124.418 775.582 128 780 128H846C850.418 128 854 124.418 854 120V14C854 9.58172 850.418 6 846 6H780C775.582 6 772 9.58172 772 14V120Z" fill="#F7FBFF"/>
<path d="M846 9V6H780L780 9H846ZM851 14V120C851 122.761 848.761 125 846 125H780C777.239 125 775 122.761 775 120V14C775 11.2386 777.239 9 780 9L780 6C775.582 6 772 9.58172 772 14V120C772 124.28 775.361 127.775 779.588 127.989L780 128H846C850.418 128 854 124.418 854 120V14C854 9.58172 850.418 6 846 6V9C848.761 9 851 11.2386 851 14Z" fill="#2E2F33" fill-opacity="0.88"/>
<path d="M824.437 78V75.0625L832.437 67.3438C834.719 65.0625 835.906 63.7188 835.906 61.8125C835.906 59.7188 834.25 58.375 832.031 58.375C829.687 58.375 828.187 59.8438 828.219 62.125H824.344C824.312 57.8438 827.531 55.0625 832.062 55.0625C836.687 55.0625 839.812 57.8125 839.812 61.625C839.812 64.1875 838.562 66.25 834.125 70.4375L830.094 74.4375V74.5938H840.156V78H824.437Z" fill="black"/>
<path d="M805.156 78V75.0625L813.156 67.3438C815.437 65.0625 816.625 63.7188 816.625 61.8125C816.625 59.7188 814.969 58.375 812.75 58.375C810.406 58.375 808.906 59.8438 808.937 62.125H805.062C805.031 57.8438 808.25 55.0625 812.781 55.0625C817.406 55.0625 820.531 57.8125 820.531 61.625C820.531 64.1875 819.281 66.25 814.844 70.4375L810.812 74.4375V74.5938H820.875V78H805.156Z" fill="black"/>
<path d="M785.875 78V75.0625L793.875 67.3438C796.156 65.0625 797.344 63.7188 797.344 61.8125C797.344 59.7188 795.687 58.375 793.469 58.375C791.125 58.375 789.625 59.8438 789.656 62.125H785.781C785.75 57.8438 788.969 55.0625 793.5 55.0625C798.125 55.0625 801.25 57.8125 801.25 61.625C801.25 64.1875 800 66.25 795.562 70.4375L791.531 74.4375V74.5938H801.594V78H785.875Z" fill="black"/>
</g>
<g id="cheongsong_hall_223">
<path d="M851 120C851 124.418 854.582 128 859 128H925C929.418 128 933 124.418 933 120V14C933 9.58172 929.418 6 925 6H859C854.582 6 851 9.58172 851 14V120Z" fill="#F7FBFF"/>
<path d="M925 9V6H859L859 9H925ZM930 14V120C930 122.761 927.761 125 925 125H859C856.239 125 854 122.761 854 120V14C854 11.2386 856.239 9 859 9L859 6C854.582 6 851 9.58172 851 14V120C851 124.28 854.361 127.775 858.588 127.989L859 128H925C929.418 128 933 124.418 933 120V14C933 9.58172 929.418 6 925 6V9C927.761 9 930 11.2386 930 14Z" fill="#2E2F33" fill-opacity="0.88"/>
<path d="M910.656 78.3125C905.812 78.3125 902.375 75.6875 902.281 71.875H906.375C906.5 73.6875 908.312 74.875 910.656 74.875C913.156 74.875 914.938 73.5 914.938 71.5C914.938 69.4688 913.188 68 910.25 68H908.219V64.875H910.25C912.656 64.875 914.344 63.5312 914.312 61.5625C914.344 59.6562 912.906 58.375 910.688 58.375C908.562 58.375 906.719 59.5625 906.656 61.4688H902.75C902.844 57.6562 906.281 55.0625 910.719 55.0625C915.312 55.0625 918.281 57.875 918.25 61.3438C918.281 63.875 916.594 65.7188 914.125 66.2188V66.4062C917.312 66.8438 919.125 68.875 919.094 71.7188C919.125 75.5312 915.562 78.3125 910.656 78.3125Z" fill="black"/>
<path d="M883.156 78V75.0625L891.156 67.3438C893.437 65.0625 894.625 63.7188 894.625 61.8125C894.625 59.7188 892.969 58.375 890.75 58.375C888.406 58.375 886.906 59.8438 886.937 62.125H883.062C883.031 57.8438 886.25 55.0625 890.781 55.0625C895.406 55.0625 898.531 57.8125 898.531 61.625C898.531 64.1875 897.281 66.25 892.844 70.4375L888.812 74.4375V74.5938H898.875V78H883.156Z" fill="black"/>
<path d="M863.875 78V75.0625L871.875 67.3438C874.156 65.0625 875.344 63.7188 875.344 61.8125C875.344 59.7188 873.687 58.375 871.469 58.375C869.125 58.375 867.625 59.8438 867.656 62.125H863.781C863.75 57.8438 866.969 55.0625 871.5 55.0625C876.125 55.0625 879.25 57.8125 879.25 61.625C879.25 64.1875 878 66.25 873.562 70.4375L869.531 74.4375V74.5938H879.594V78H863.875Z" fill="black"/>
</g>
<g id="cheongsong_hall_208">
<path d="M98 491C98 495.418 101.582 499 106 499H283C287.418 499 291 495.418 291 491V355C291 350.582 287.418 347 283 347H106C101.582 347 98 350.582 98 355V491Z" fill="#F7FBFF"/>
<path d="M283 350V347H106L106 350H283ZM288 355V491C288 493.761 285.761 496 283 496H106C103.239 496 101 493.761 101 491V355C101 352.239 103.239 350 106 350L106 347C101.582 347 98 350.582 98 355V491C98 495.418 101.582 499 106 499H283C287.418 499 291 495.418 291 491V355C291 350.582 287.418 347 283 347V350C285.761 350 288 352.239 288 355Z" fill="#2E2F33" fill-opacity="0.88"/>
<path d="M214.812 434.312C209.781 434.312 206.219 431.625 206.219 427.938C206.219 425.062 208.344 422.719 211.062 422.281V422.156C208.688 421.656 207.062 419.594 207.062 417.125C207.062 413.625 210.344 411.062 214.812 411.062C219.25 411.062 222.531 413.625 222.531 417.125C222.531 419.594 220.875 421.656 218.531 422.156V422.281C221.25 422.719 223.406 425.062 223.406 427.938C223.406 431.625 219.812 434.312 214.812 434.312ZM214.812 431.094C217.469 431.094 219.219 429.656 219.219 427.562C219.219 425.438 217.344 423.875 214.812 423.875C212.25 423.875 210.375 425.438 210.406 427.562C210.375 429.656 212.125 431.094 214.812 431.094ZM214.812 420.844C217 420.844 218.562 419.469 218.562 417.5C218.562 415.594 217.031 414.25 214.812 414.25C212.562 414.25 211.031 415.562 211.031 417.5C211.031 419.469 212.594 420.844 214.812 420.844Z" fill="black"/>
<path d="M194.5 434.312C189.062 434.312 185.812 430.094 185.812 422.688C185.812 415.312 189.062 411.062 194.5 411.062C199.906 411.062 203.188 415.312 203.188 422.688C203.188 430.094 199.938 434.312 194.5 434.312ZM194.5 430.906C197.344 430.906 199.094 428.125 199.094 422.688C199.094 417.281 197.312 414.438 194.5 414.438C191.688 414.438 189.906 417.281 189.906 422.688C189.906 428.125 191.656 430.906 194.5 430.906Z" fill="black"/>
<path d="M166.875 434V431.062L174.875 423.344C177.156 421.062 178.344 419.719 178.344 417.812C178.344 415.719 176.688 414.375 174.469 414.375C172.125 414.375 170.625 415.844 170.656 418.125H166.781C166.75 413.844 169.969 411.062 174.5 411.062C179.125 411.062 182.25 413.812 182.25 417.625C182.25 420.188 181 422.25 176.562 426.438L172.531 430.438V430.594H182.594V434H166.875Z" fill="black"/>
</g>
<g id="cheongsong_hall_205">
<path d="M288 491C288 495.418 291.582 499 296 499H464C468.418 499 472 495.418 472 491V355C472 350.582 468.418 347 464 347H296C291.582 347 288 350.582 288 355V491Z" fill="#F7FBFF"/>
<path d="M464 350V347H296L296 350H464ZM469 355V491C469 493.761 466.761 496 464 496H296C293.239 496 291 493.761 291 491V355C291 352.239 293.239 350 296 350L296 347L295.588 347.011C291.361 347.225 288 350.72 288 355V491C288 495.418 291.582 499 296 499H464C468.418 499 472 495.418 472 491V355C472 350.582 468.418 347 464 347V350C466.761 350 469 352.239 469 355Z" fill="#2E2F33" fill-opacity="0.88"/>
<path d="M399.625 434.312C395.094 434.312 391.781 431.625 391.656 427.875H395.625C395.75 429.719 397.469 431.031 399.625 431.031C402.156 431.031 403.969 429.188 403.969 426.688C403.969 424.094 402.094 422.25 399.5 422.25C397.75 422.219 396.469 422.844 395.75 424.188H391.969L393.344 411.375H406.719V414.781H396.688L396 420.781H396.219C397.094 419.781 398.75 419.062 400.594 419.062C404.812 419.062 407.906 422.219 407.906 426.562C407.906 431.094 404.5 434.312 399.625 434.312Z" fill="black"/>
<path d="M379.5 434.312C374.062 434.312 370.812 430.094 370.812 422.688C370.812 415.312 374.062 411.062 379.5 411.062C384.906 411.062 388.188 415.312 388.188 422.688C388.188 430.094 384.938 434.312 379.5 434.312ZM379.5 430.906C382.344 430.906 384.094 428.125 384.094 422.688C384.094 417.281 382.312 414.438 379.5 414.438C376.688 414.438 374.906 417.281 374.906 422.688C374.906 428.125 376.656 430.906 379.5 430.906Z" fill="black"/>
<path d="M351.875 434V431.062L359.875 423.344C362.156 421.062 363.344 419.719 363.344 417.812C363.344 415.719 361.688 414.375 359.469 414.375C357.125 414.375 355.625 415.844 355.656 418.125H351.781C351.75 413.844 354.969 411.062 359.5 411.062C364.125 411.062 367.25 413.812 367.25 417.625C367.25 420.188 366 422.25 361.563 426.438L357.531 430.438V430.594H367.594V434H351.875Z" fill="black"/>
</g>
<g id="cheongsong_hall_201">
<path d="M401 871C401 875.418 404.582 879 409 879H621.663C623.798 879 625.845 878.146 627.348 876.628L721.685 781.338C723.168 779.84 724 777.818 724 775.71V717.267C724 715.173 723.179 713.162 721.713 711.667L627.352 615.4C625.848 613.865 623.789 613 621.639 613H409C404.582 613 401 616.582 401 621V871Z" fill="#F7FBFF"/>
<path d="M401 621V871C401 875.418 404.582 879 409 879H621.663L622.062 878.99C624.052 878.891 625.939 878.051 627.348 876.628L721.685 781.338C723.168 779.84 724 777.818 724 775.71V717.267L723.99 716.875C723.895 714.923 723.087 713.069 721.713 711.667L627.352 615.4L627.064 615.12C625.689 613.851 623.911 613.104 622.041 613.01L621.639 613L621.64 616C622.983 616 624.27 616.541 625.21 617.5L719.57 713.767C720.486 714.701 721 715.958 721 717.267V775.71C721 777.027 720.48 778.291 719.554 779.228L625.216 874.518C624.277 875.466 622.998 876 621.663 876H409C406.239 876 404 873.761 404 871V621C404 618.239 406.239 616 409 616L409 613L408.588 613.011C404.361 613.225 401 616.72 401 621ZM621.64 616L621.639 613H409L409 616H621.64Z" fill="#2E2F33" fill-opacity="0.88"/>
<path d="M585.781 734.375V757H581.688V738.344H581.562L576.281 741.719V738L581.875 734.375H585.781Z" fill="black"/>
<path d="M564.5 757.312C559.062 757.312 555.812 753.094 555.812 745.688C555.812 738.312 559.062 734.062 564.5 734.062C569.906 734.062 573.188 738.312 573.188 745.688C573.188 753.094 569.938 757.312 564.5 757.312ZM564.5 753.906C567.344 753.906 569.094 751.125 569.094 745.688C569.094 740.281 567.312 737.438 564.5 737.438C561.688 737.438 559.906 740.281 559.906 745.688C559.906 751.125 561.656 753.906 564.5 753.906Z" fill="black"/>
<path d="M536.875 757V754.062L544.875 746.344C547.156 744.062 548.344 742.719 548.344 740.812C548.344 738.719 546.687 737.375 544.469 737.375C542.125 737.375 540.625 738.844 540.656 741.125H536.781C536.75 736.844 539.969 734.062 544.5 734.062C549.125 734.062 552.25 736.812 552.25 740.625C552.25 743.188 551 745.25 546.562 749.438L542.531 753.438V753.594H552.594V757H536.875Z" fill="black"/>
</g>
<g id="cheongsong_hall_203">
<path d="M1203 622C1203 617.582 1199.42 614 1195 614H982.337C980.202 614 978.155 614.854 976.652 616.372L882.315 711.662C880.832 713.16 880 715.182 880 717.29V775.733C880 777.827 880.821 779.838 882.287 781.333L976.648 877.6C978.152 879.135 980.211 880 982.361 880H1195C1199.42 880 1203 876.418 1203 872V622Z" fill="#F7FBFF"/>
<path d="M1203 872V622C1203 617.582 1199.42 614 1195 614H982.337L981.938 614.01C979.948 614.109 978.061 614.949 976.652 616.372L882.315 711.662C880.832 713.16 880 715.182 880 717.29V775.733L880.01 776.125C880.105 778.077 880.913 779.931 882.287 781.333L976.648 877.6L976.936 877.88C978.311 879.149 980.089 879.896 981.959 879.99L982.361 880L982.36 877C981.017 877 979.73 876.459 978.79 875.5L884.43 779.233C883.514 778.299 883 777.042 883 775.733V717.29C883 715.973 883.52 714.709 884.446 713.772L978.784 618.482C979.723 617.534 981.002 617 982.337 617H1195C1197.76 617 1200 619.239 1200 622V872C1200 874.761 1197.76 877 1195 877V880L1195.41 879.989C1199.64 879.775 1203 876.28 1203 872ZM982.36 877L982.361 880H1195V877H982.36Z" fill="#2E2F33" fill-opacity="0.88"/>
<path d="M1061.81 758.312C1056.97 758.312 1053.53 755.688 1053.44 751.875H1057.53C1057.66 753.688 1059.47 754.875 1061.81 754.875C1064.31 754.875 1066.09 753.5 1066.09 751.5C1066.09 749.469 1064.34 748 1061.41 748H1059.38V744.875H1061.41C1063.81 744.875 1065.5 743.531 1065.47 741.562C1065.5 739.656 1064.06 738.375 1061.84 738.375C1059.72 738.375 1057.88 739.562 1057.81 741.469H1053.91C1054 737.656 1057.44 735.062 1061.88 735.062C1066.47 735.062 1069.44 737.875 1069.41 741.344C1069.44 743.875 1067.75 745.719 1065.28 746.219V746.406C1068.47 746.844 1070.28 748.875 1070.25 751.719C1070.28 755.531 1066.72 758.312 1061.81 758.312Z" fill="black"/>
<path d="M1041.5 758.312C1036.06 758.312 1032.81 754.094 1032.81 746.688C1032.81 739.312 1036.06 735.062 1041.5 735.062C1046.91 735.062 1050.19 739.312 1050.19 746.688C1050.19 754.094 1046.94 758.312 1041.5 758.312ZM1041.5 754.906C1044.34 754.906 1046.09 752.125 1046.09 746.688C1046.09 741.281 1044.31 738.438 1041.5 738.438C1038.69 738.438 1036.91 741.281 1036.91 746.688C1036.91 752.125 1038.66 754.906 1041.5 754.906Z" fill="black"/>
<path d="M1013.87 758V755.062L1021.87 747.344C1024.16 745.062 1025.34 743.719 1025.34 741.812C1025.34 739.719 1023.69 738.375 1021.47 738.375C1019.12 738.375 1017.62 739.844 1017.66 742.125H1013.78C1013.75 737.844 1016.97 735.062 1021.5 735.062C1026.12 735.062 1029.25 737.812 1029.25 741.625C1029.25 744.188 1028 746.25 1023.56 750.438L1019.53 754.438V754.594H1029.59V758H1013.87Z" fill="black"/>
</g>
<g id="cheongsong_hall_204">
<path d="M922 1144C926.418 1144 930 1140.42 930 1136V923.337C930 921.202 929.146 919.155 927.628 917.652L832.338 823.315C830.84 821.832 828.818 821 826.71 821H768.267C766.173 821 764.162 821.821 762.667 823.287L666.4 917.648C664.865 919.152 664 921.211 664 923.361V1136C664 1140.42 667.582 1144 672 1144H922Z" fill="#F7FBFF"/>
<path d="M672 1144H922C926.418 1144 930 1140.42 930 1136V923.337L929.99 922.938C929.891 920.948 929.051 919.061 927.628 917.652L832.338 823.315C830.84 821.832 828.818 821 826.71 821H768.267L767.875 821.01C765.923 821.105 764.069 821.913 762.667 823.287L666.4 917.648L666.12 917.936C664.851 919.311 664.104 921.089 664.01 922.959L664 923.361L667 923.36C667 922.017 667.541 920.73 668.5 919.79L764.767 825.43C765.701 824.514 766.958 824 768.267 824H826.71C828.027 824 829.291 824.52 830.228 825.446L925.518 919.784C926.466 920.723 927 922.002 927 923.337V1136C927 1138.76 924.761 1141 922 1141H672C669.239 1141 667 1138.76 667 1136H664L664.011 1136.41C664.225 1140.64 667.72 1144 672 1144ZM667 923.36L664 923.361V1136H667V923.36Z" fill="#2E2F33" fill-opacity="0.88"/>
<path d="M808.188 988.781V985.531L817.969 970.375H823.031V985.438H826V988.781H823.031V993H819.156V988.781H808.188ZM812.344 985.438H819.219V975H818.969L812.344 985.281V985.438Z" fill="black"/>
<path d="M796.5 993.312C791.062 993.312 787.812 989.094 787.812 981.688C787.812 974.312 791.062 970.062 796.5 970.062C801.906 970.062 805.188 974.312 805.188 981.688C805.188 989.094 801.938 993.312 796.5 993.312ZM796.5 989.906C799.344 989.906 801.094 987.125 801.094 981.688C801.094 976.281 799.312 973.438 796.5 973.438C793.688 973.438 791.906 976.281 791.906 981.688C791.906 987.125 793.656 989.906 796.5 989.906Z" fill="black"/>
<path d="M768.875 993V990.062L776.875 982.344C779.156 980.062 780.344 978.719 780.344 976.812C780.344 974.719 778.687 973.375 776.469 973.375C774.125 973.375 772.625 974.844 772.656 977.125H768.781C768.75 972.844 771.969 970.062 776.5 970.062C781.125 970.062 784.25 972.812 784.25 976.625C784.25 979.188 783 981.25 778.562 985.438L774.531 989.438V989.594H784.594V993H768.875Z" fill="black"/>
</g>
<g id="cheongsong_hall_257">
<path d="M992 1327C992 1331.42 995.582 1335 1000 1335H1125C1129.42 1335 1133 1331.42 1133 1327V1193C1133 1188.58 1129.42 1185 1125 1185H1000C995.582 1185 992 1188.58 992 1193V1327Z" fill="#F7FBFF"/>
<path d="M1125 1188V1185H1000L1000 1188H1125ZM1130 1193V1327C1130 1329.76 1127.76 1332 1125 1332H1000C997.239 1332 995 1329.76 995 1327V1193C995 1190.24 997.239 1188 1000 1188L1000 1185C995.582 1185 992 1188.58 992 1193V1327C992 1331.28 995.361 1334.77 999.588 1334.99L1000 1335H1125C1129.42 1335 1133 1331.42 1133 1327V1193C1133 1188.58 1129.42 1185 1125 1185V1188C1127.76 1188 1130 1190.24 1130 1193Z" fill="#2E2F33" fill-opacity="0.88"/>
<path d="M1075.75 1271L1085.56 1251.94V1251.78H1074.19V1248.38H1089.78V1251.84L1079.97 1271H1075.75Z" fill="black"/>
<path d="M1063.19 1271.31C1058.66 1271.31 1055.34 1268.62 1055.22 1264.88H1059.19C1059.31 1266.72 1061.03 1268.03 1063.19 1268.03C1065.72 1268.03 1067.53 1266.19 1067.53 1263.69C1067.53 1261.09 1065.66 1259.25 1063.06 1259.25C1061.31 1259.22 1060.03 1259.84 1059.31 1261.19H1055.53L1056.91 1248.38H1070.28V1251.78H1060.25L1059.56 1257.78H1059.78C1060.66 1256.78 1062.31 1256.06 1064.16 1256.06C1068.38 1256.06 1071.47 1259.22 1071.47 1263.56C1071.47 1268.09 1068.06 1271.31 1063.19 1271.31Z" fill="black"/>
<path d="M1035.87 1271V1268.06L1043.87 1260.34C1046.16 1258.06 1047.34 1256.72 1047.34 1254.81C1047.34 1252.72 1045.69 1251.38 1043.47 1251.38C1041.12 1251.38 1039.62 1252.84 1039.66 1255.12H1035.78C1035.75 1250.84 1038.97 1248.06 1043.5 1248.06C1048.12 1248.06 1051.25 1250.81 1051.25 1254.62C1051.25 1257.19 1050 1259.25 1045.56 1263.44L1041.53 1267.44V1267.59H1051.59V1271H1035.87Z" fill="black"/>
</g>
<g id="cheongsong_hall_259">
<path d="M1130 1292C1130 1296.42 1133.58 1300 1138 1300H1341C1345.42 1300 1349 1296.42 1349 1292V1193C1349 1188.58 1345.42 1185 1341 1185H1138C1133.58 1185 1130 1188.58 1130 1193V1292Z" fill="#F7FBFF"/>
<path d="M1341 1188V1185H1138L1138 1188H1341ZM1346 1193V1292C1346 1294.76 1343.76 1297 1341 1297H1138C1135.24 1297 1133 1294.76 1133 1292V1193C1133 1190.24 1135.24 1188 1138 1188L1138 1185L1137.59 1185.01C1133.36 1185.23 1130 1188.72 1130 1193V1292C1130 1296.28 1133.36 1299.77 1137.59 1299.99L1138 1300H1341C1345.42 1300 1349 1296.42 1349 1292V1193C1349 1188.58 1345.42 1185 1341 1185V1188C1343.76 1188 1346 1190.24 1346 1193Z" fill="#2E2F33" fill-opacity="0.88"/>
<path d="M1258.94 1230.06C1263.38 1230.09 1267.75 1232.72 1267.78 1241C1267.78 1248.81 1264.25 1253.31 1258.69 1253.31C1254.31 1253.31 1251.31 1250.59 1250.81 1246.84H1254.84C1255.25 1248.62 1256.62 1249.78 1258.69 1249.78C1261.97 1249.78 1263.81 1246.87 1263.84 1242.03H1263.59C1262.44 1244 1260.28 1245.16 1257.78 1245.16C1253.75 1245.16 1250.62 1242.09 1250.59 1237.81C1250.59 1233.37 1253.91 1230.03 1258.94 1230.06ZM1258.97 1233.34C1256.44 1233.34 1254.53 1235.31 1254.56 1237.72C1254.56 1240.16 1256.38 1242.06 1258.91 1242.06C1261.41 1242.06 1263.38 1240.03 1263.34 1237.69C1263.34 1235.37 1261.5 1233.34 1258.97 1233.34Z" fill="black"/>
<path d="M1239.19 1253.31C1234.66 1253.31 1231.34 1250.62 1231.22 1246.88H1235.19C1235.31 1248.72 1237.03 1250.03 1239.19 1250.03C1241.72 1250.03 1243.53 1248.19 1243.53 1245.69C1243.53 1243.09 1241.66 1241.25 1239.06 1241.25C1237.31 1241.22 1236.03 1241.84 1235.31 1243.19H1231.53L1232.91 1230.38H1246.28V1233.78H1236.25L1235.56 1239.78H1235.78C1236.66 1238.78 1238.31 1238.06 1240.16 1238.06C1244.38 1238.06 1247.47 1241.22 1247.47 1245.56C1247.47 1250.09 1244.06 1253.31 1239.19 1253.31Z" fill="black"/>
<path d="M1211.87 1253V1250.06L1219.87 1242.34C1222.16 1240.06 1223.34 1238.72 1223.34 1236.81C1223.34 1234.72 1221.69 1233.38 1219.47 1233.38C1217.12 1233.38 1215.62 1234.84 1215.66 1237.12H1211.78C1211.75 1232.84 1214.97 1230.06 1219.5 1230.06C1224.12 1230.06 1227.25 1232.81 1227.25 1236.62C1227.25 1239.19 1226 1241.25 1221.56 1245.44L1217.53 1249.44V1249.59H1227.59V1253H1211.87Z" fill="black"/>
</g>
<g id="cheongsong_hall_262">
<path d="M1347 1292C1347 1296.42 1350.58 1300 1355 1300H1415C1419.42 1300 1423 1296.42 1423 1292V1193C1423 1188.58 1419.42 1185 1415 1185H1355C1350.58 1185 1347 1188.58 1347 1193V1292Z" fill="#F7FBFF"/>
<path d="M1415 1188V1185H1355L1355 1188H1415ZM1420 1193V1292C1420 1294.76 1417.76 1297 1415 1297H1355C1352.24 1297 1350 1294.76 1350 1292V1193C1350 1190.24 1352.24 1188 1355 1188L1355 1185C1350.58 1185 1347 1188.58 1347 1193V1292C1347 1296.42 1350.58 1300 1355 1300H1415C1419.42 1300 1423 1296.42 1423 1292V1193C1423 1188.58 1419.42 1185 1415 1185V1188C1417.76 1188 1420 1190.24 1420 1193Z" fill="#2E2F33" fill-opacity="0.88"/>
<path d="M1396.41 1253V1250.06L1404.41 1242.34C1406.69 1240.06 1407.87 1238.72 1407.87 1236.81C1407.87 1234.72 1406.22 1233.38 1404 1233.38C1401.66 1233.38 1400.16 1234.84 1400.19 1237.12H1396.31C1396.28 1232.84 1399.5 1230.06 1404.03 1230.06C1408.66 1230.06 1411.78 1232.81 1411.78 1236.62C1411.78 1239.19 1410.53 1241.25 1406.09 1245.44L1402.06 1249.44V1249.59H1412.12V1253H1396.41Z" fill="black"/>
<path d="M1384.63 1253.31C1380.22 1253.28 1375.78 1250.66 1375.81 1242.31C1375.81 1234.56 1379.34 1230.06 1384.88 1230.06C1389.25 1230.06 1392.25 1232.81 1392.75 1236.47H1388.72C1388.31 1234.75 1386.94 1233.59 1384.88 1233.59C1381.59 1233.59 1379.75 1236.5 1379.75 1241.25H1379.97C1381.13 1239.31 1383.31 1238.16 1385.78 1238.16C1389.84 1238.16 1392.97 1241.22 1392.97 1245.5C1392.97 1250 1389.63 1253.34 1384.63 1253.31ZM1384.63 1250.03C1387.16 1250.03 1389.03 1248.06 1389.03 1245.59C1389.03 1243.19 1387.19 1241.25 1384.69 1241.25C1382.16 1241.25 1380.22 1243.25 1380.19 1245.62C1380.22 1248 1382.06 1250.03 1384.63 1250.03Z" fill="black"/>
<path d="M1356.87 1253V1250.06L1364.87 1242.34C1367.16 1240.06 1368.34 1238.72 1368.34 1236.81C1368.34 1234.72 1366.69 1233.38 1364.47 1233.38C1362.12 1233.38 1360.62 1234.84 1360.66 1237.12H1356.78C1356.75 1232.84 1359.97 1230.06 1364.5 1230.06C1369.12 1230.06 1372.25 1232.81 1372.25 1236.62C1372.25 1239.19 1371 1241.25 1366.56 1245.44L1362.53 1249.44V1249.59H1372.59V1253H1356.87Z" fill="black"/>
</g>
<g id="cheongsong_hall_263">
<path d="M1420 1292C1420 1296.42 1423.58 1300 1428 1300H1488C1492.42 1300 1496 1296.42 1496 1292V1193C1496 1188.58 1492.42 1185 1488 1185H1428C1423.58 1185 1420 1188.58 1420 1193V1292Z" fill="#F7FBFF"/>
<path d="M1488 1188V1185H1428L1428 1188H1488ZM1493 1193V1292C1493 1294.76 1490.76 1297 1488 1297H1428C1425.24 1297 1423 1294.76 1423 1292V1193C1423 1190.24 1425.24 1188 1428 1188L1428 1185C1423.58 1185 1420 1188.58 1420 1193V1292C1420 1296.42 1423.58 1300 1428 1300H1488C1492.42 1300 1496 1296.42 1496 1292V1193C1496 1188.58 1492.42 1185 1488 1185V1188C1490.76 1188 1493 1190.24 1493 1193Z" fill="#2E2F33" fill-opacity="0.88"/>
<path d="M1477.62 1253.31C1472.78 1253.31 1469.34 1250.69 1469.25 1246.88H1473.34C1473.47 1248.69 1475.28 1249.88 1477.62 1249.88C1480.12 1249.88 1481.91 1248.5 1481.91 1246.5C1481.91 1244.47 1480.16 1243 1477.22 1243H1475.19V1239.88H1477.22C1479.62 1239.88 1481.31 1238.53 1481.28 1236.56C1481.31 1234.66 1479.88 1233.38 1477.66 1233.38C1475.53 1233.38 1473.69 1234.56 1473.62 1236.47H1469.72C1469.81 1232.66 1473.25 1230.06 1477.69 1230.06C1482.28 1230.06 1485.25 1232.88 1485.22 1236.34C1485.25 1238.88 1483.56 1240.72 1481.09 1241.22V1241.41C1484.28 1241.84 1486.09 1243.88 1486.06 1246.72C1486.09 1250.53 1482.53 1253.31 1477.62 1253.31Z" fill="black"/>
<path d="M1457.63 1253.31C1453.22 1253.28 1448.78 1250.66 1448.81 1242.31C1448.81 1234.56 1452.34 1230.06 1457.88 1230.06C1462.25 1230.06 1465.25 1232.81 1465.75 1236.47H1461.72C1461.31 1234.75 1459.94 1233.59 1457.88 1233.59C1454.59 1233.59 1452.75 1236.5 1452.75 1241.25H1452.97C1454.13 1239.31 1456.31 1238.16 1458.78 1238.16C1462.84 1238.16 1465.97 1241.22 1465.97 1245.5C1465.97 1250 1462.63 1253.34 1457.63 1253.31ZM1457.63 1250.03C1460.16 1250.03 1462.03 1248.06 1462.03 1245.59C1462.03 1243.19 1460.19 1241.25 1457.69 1241.25C1455.16 1241.25 1453.22 1243.25 1453.19 1245.62C1453.22 1248 1455.06 1250.03 1457.63 1250.03Z" fill="black"/>
<path d="M1429.87 1253V1250.06L1437.87 1242.34C1440.16 1240.06 1441.34 1238.72 1441.34 1236.81C1441.34 1234.72 1439.69 1233.38 1437.47 1233.38C1435.12 1233.38 1433.62 1234.84 1433.66 1237.12H1429.78C1429.75 1232.84 1432.97 1230.06 1437.5 1230.06C1442.12 1230.06 1445.25 1232.81 1445.25 1236.62C1445.25 1239.19 1444 1241.25 1439.56 1245.44L1435.53 1249.44V1249.59H1445.59V1253H1429.87Z" fill="black"/>
</g>
<g id="cheongsong_hall_264">
<path d="M1577 1292C1577 1296.42 1580.58 1300 1585 1300H1647C1651.42 1300 1655 1296.42 1655 1292V1193C1655 1188.58 1651.42 1185 1647 1185H1585C1580.58 1185 1577 1188.58 1577 1193V1292Z" fill="#F7FBFF"/>
<path d="M1647 1188V1185H1585L1585 1188H1647ZM1652 1193V1292C1652 1294.76 1649.76 1297 1647 1297H1585C1582.24 1297 1580 1294.76 1580 1292V1193C1580 1190.24 1582.24 1188 1585 1188L1585 1185L1584.59 1185.01C1580.36 1185.23 1577 1188.72 1577 1193V1292C1577 1296.42 1580.58 1300 1585 1300H1647C1651.42 1300 1655 1296.42 1655 1292V1193C1655 1188.58 1651.42 1185 1647 1185V1188C1649.76 1188 1652 1190.24 1652 1193Z" fill="#2E2F33" fill-opacity="0.88"/>
<path d="M1626 1248.78V1245.53L1635.78 1230.38H1640.84V1245.44H1643.81V1248.78H1640.84V1253H1636.97V1248.78H1626ZM1630.16 1245.44H1637.03V1235H1636.78L1630.16 1245.28V1245.44Z" fill="black"/>
<path d="M1614.63 1253.31C1610.22 1253.28 1605.78 1250.66 1605.81 1242.31C1605.81 1234.56 1609.34 1230.06 1614.88 1230.06C1619.25 1230.06 1622.25 1232.81 1622.75 1236.47H1618.72C1618.31 1234.75 1616.94 1233.59 1614.88 1233.59C1611.59 1233.59 1609.75 1236.5 1609.75 1241.25H1609.97C1611.13 1239.31 1613.31 1238.16 1615.78 1238.16C1619.84 1238.16 1622.97 1241.22 1622.97 1245.5C1622.97 1250 1619.63 1253.34 1614.63 1253.31ZM1614.63 1250.03C1617.16 1250.03 1619.03 1248.06 1619.03 1245.59C1619.03 1243.19 1617.19 1241.25 1614.69 1241.25C1612.16 1241.25 1610.22 1243.25 1610.19 1245.62C1610.22 1248 1612.06 1250.03 1614.63 1250.03Z" fill="black"/>
<path d="M1586.87 1253V1250.06L1594.87 1242.34C1597.16 1240.06 1598.34 1238.72 1598.34 1236.81C1598.34 1234.72 1596.69 1233.38 1594.47 1233.38C1592.12 1233.38 1590.62 1234.84 1590.66 1237.12H1586.78C1586.75 1232.84 1589.97 1230.06 1594.5 1230.06C1599.12 1230.06 1602.25 1232.81 1602.25 1236.62C1602.25 1239.19 1601 1241.25 1596.56 1245.44L1592.53 1249.44V1249.59H1602.59V1253H1586.87Z" fill="black"/>
</g>
<g id="cheongsong_hall_265">
<path d="M1652 1292C1652 1296.42 1655.58 1300 1660 1300H1722C1726.42 1300 1730 1296.42 1730 1292V1193C1730 1188.58 1726.42 1185 1722 1185H1660C1655.58 1185 1652 1188.58 1652 1193V1292Z" fill="#F7FBFF"/>
<path d="M1722 1188V1185H1660L1660 1188H1722ZM1727 1193V1292C1727 1294.76 1724.76 1297 1722 1297H1660C1657.24 1297 1655 1294.76 1655 1292V1193C1655 1190.24 1657.24 1188 1660 1188L1660 1185L1659.59 1185.01C1655.36 1185.23 1652 1188.72 1652 1193V1292C1652 1296.42 1655.58 1300 1660 1300H1722C1726.42 1300 1730 1296.42 1730 1292V1193C1730 1188.58 1726.42 1185 1722 1185V1188C1724.76 1188 1727 1190.24 1727 1193Z" fill="#2E2F33" fill-opacity="0.88"/>
<path d="M1710.44 1253.31C1705.91 1253.31 1702.59 1250.62 1702.47 1246.88H1706.44C1706.56 1248.72 1708.28 1250.03 1710.44 1250.03C1712.97 1250.03 1714.78 1248.19 1714.78 1245.69C1714.78 1243.09 1712.91 1241.25 1710.31 1241.25C1708.56 1241.22 1707.28 1241.84 1706.56 1243.19H1702.78L1704.16 1230.38H1717.53V1233.78H1707.5L1706.81 1239.78H1707.03C1707.91 1238.78 1709.56 1238.06 1711.41 1238.06C1715.62 1238.06 1718.72 1241.22 1718.72 1245.56C1718.72 1250.09 1715.31 1253.31 1710.44 1253.31Z" fill="black"/>
<path d="M1690.63 1253.31C1686.22 1253.28 1681.78 1250.66 1681.81 1242.31C1681.81 1234.56 1685.34 1230.06 1690.88 1230.06C1695.25 1230.06 1698.25 1232.81 1698.75 1236.47H1694.72C1694.31 1234.75 1692.94 1233.59 1690.88 1233.59C1687.59 1233.59 1685.75 1236.5 1685.75 1241.25H1685.97C1687.13 1239.31 1689.31 1238.16 1691.78 1238.16C1695.84 1238.16 1698.97 1241.22 1698.97 1245.5C1698.97 1250 1695.63 1253.34 1690.63 1253.31ZM1690.63 1250.03C1693.16 1250.03 1695.03 1248.06 1695.03 1245.59C1695.03 1243.19 1693.19 1241.25 1690.69 1241.25C1688.16 1241.25 1686.22 1243.25 1686.19 1245.62C1686.22 1248 1688.06 1250.03 1690.63 1250.03Z" fill="black"/>
<path d="M1662.87 1253V1250.06L1670.87 1242.34C1673.16 1240.06 1674.34 1238.72 1674.34 1236.81C1674.34 1234.72 1672.69 1233.38 1670.47 1233.38C1668.12 1233.38 1666.62 1234.84 1666.66 1237.12H1662.78C1662.75 1232.84 1665.97 1230.06 1670.5 1230.06C1675.12 1230.06 1678.25 1232.81 1678.25 1236.62C1678.25 1239.19 1677 1241.25 1672.56 1245.44L1668.53 1249.44V1249.59H1678.59V1253H1662.87Z" fill="black"/>
</g>
<g id="cheongsong_hall_266">
<path d="M1727 1292C1727 1296.42 1730.58 1300 1735 1300H1797C1801.42 1300 1805 1296.42 1805 1292V1193C1805 1188.58 1801.42 1185 1797 1185H1735C1730.58 1185 1727 1188.58 1727 1193V1292Z" fill="#F7FBFF"/>
<path d="M1797 1188V1185H1735L1735 1188H1797ZM1802 1193V1292C1802 1294.76 1799.76 1297 1797 1297H1735C1732.24 1297 1730 1294.76 1730 1292V1193C1730 1190.24 1732.24 1188 1735 1188L1735 1185L1734.59 1185.01C1730.36 1185.23 1727 1188.72 1727 1193V1292C1727 1296.42 1730.58 1300 1735 1300H1797C1801.42 1300 1805 1296.42 1805 1292V1193C1805 1188.58 1801.42 1185 1797 1185V1188C1799.76 1188 1802 1190.24 1802 1193Z" fill="#2E2F33" fill-opacity="0.88"/>
<path d="M1785.88 1253.31C1781.47 1253.28 1777.03 1250.66 1777.06 1242.31C1777.06 1234.56 1780.59 1230.06 1786.13 1230.06C1790.5 1230.06 1793.5 1232.81 1794 1236.47H1789.97C1789.56 1234.75 1788.19 1233.59 1786.13 1233.59C1782.84 1233.59 1781 1236.5 1781 1241.25H1781.22C1782.38 1239.31 1784.56 1238.16 1787.03 1238.16C1791.09 1238.16 1794.22 1241.22 1794.22 1245.5C1794.22 1250 1790.88 1253.34 1785.88 1253.31ZM1785.88 1250.03C1788.41 1250.03 1790.28 1248.06 1790.28 1245.59C1790.28 1243.19 1788.44 1241.25 1785.94 1241.25C1783.41 1241.25 1781.47 1243.25 1781.44 1245.62C1781.47 1248 1783.31 1250.03 1785.88 1250.03Z" fill="black"/>
<path d="M1765.63 1253.31C1761.22 1253.28 1756.78 1250.66 1756.81 1242.31C1756.81 1234.56 1760.34 1230.06 1765.88 1230.06C1770.25 1230.06 1773.25 1232.81 1773.75 1236.47H1769.72C1769.31 1234.75 1767.94 1233.59 1765.88 1233.59C1762.59 1233.59 1760.75 1236.5 1760.75 1241.25H1760.97C1762.13 1239.31 1764.31 1238.16 1766.78 1238.16C1770.84 1238.16 1773.97 1241.22 1773.97 1245.5C1773.97 1250 1770.63 1253.34 1765.63 1253.31ZM1765.63 1250.03C1768.16 1250.03 1770.03 1248.06 1770.03 1245.59C1770.03 1243.19 1768.19 1241.25 1765.69 1241.25C1763.16 1241.25 1761.22 1243.25 1761.19 1245.62C1761.22 1248 1763.06 1250.03 1765.63 1250.03Z" fill="black"/>
<path d="M1737.87 1253V1250.06L1745.87 1242.34C1748.16 1240.06 1749.34 1238.72 1749.34 1236.81C1749.34 1234.72 1747.69 1233.38 1745.47 1233.38C1743.12 1233.38 1741.62 1234.84 1741.66 1237.12H1737.78C1737.75 1232.84 1740.97 1230.06 1745.5 1230.06C1750.12 1230.06 1753.25 1232.81 1753.25 1236.62C1753.25 1239.19 1752 1241.25 1747.56 1245.44L1743.53 1249.44V1249.59H1753.59V1253H1737.87Z" fill="black"/>
</g>
<g id="cheongsong_hall_267">
<path d="M1802 1292C1802 1296.42 1805.58 1300 1810 1300H1871C1875.42 1300 1879 1296.42 1879 1292V1193C1879 1188.58 1875.42 1185 1871 1185H1810C1805.58 1185 1802 1188.58 1802 1193V1292Z" fill="#F7FBFF"/>
<path d="M1871 1188V1185H1810L1810 1188H1871ZM1876 1193V1292C1876 1294.76 1873.76 1297 1871 1297H1810C1807.24 1297 1805 1294.76 1805 1292V1193C1805 1190.24 1807.24 1188 1810 1188L1810 1185L1809.59 1185.01C1805.36 1185.23 1802 1188.72 1802 1193V1292C1802 1296.42 1805.58 1300 1810 1300H1871C1875.42 1300 1879 1296.42 1879 1292V1193C1879 1188.58 1875.42 1185 1871 1185V1188C1873.76 1188 1876 1190.24 1876 1193Z" fill="#2E2F33" fill-opacity="0.88"/>
<path d="M1854.25 1253L1864.06 1233.94V1233.78H1852.69V1230.38H1868.28V1233.84L1858.47 1253H1854.25Z" fill="black"/>
<path d="M1841.63 1253.31C1837.22 1253.28 1832.78 1250.66 1832.81 1242.31C1832.81 1234.56 1836.34 1230.06 1841.88 1230.06C1846.25 1230.06 1849.25 1232.81 1849.75 1236.47H1845.72C1845.31 1234.75 1843.94 1233.59 1841.88 1233.59C1838.59 1233.59 1836.75 1236.5 1836.75 1241.25H1836.97C1838.13 1239.31 1840.31 1238.16 1842.78 1238.16C1846.84 1238.16 1849.97 1241.22 1849.97 1245.5C1849.97 1250 1846.63 1253.34 1841.63 1253.31ZM1841.63 1250.03C1844.16 1250.03 1846.03 1248.06 1846.03 1245.59C1846.03 1243.19 1844.19 1241.25 1841.69 1241.25C1839.16 1241.25 1837.22 1243.25 1837.19 1245.62C1837.22 1248 1839.06 1250.03 1841.63 1250.03Z" fill="black"/>
<path d="M1813.87 1253V1250.06L1821.87 1242.34C1824.16 1240.06 1825.34 1238.72 1825.34 1236.81C1825.34 1234.72 1823.69 1233.38 1821.47 1233.38C1819.12 1233.38 1817.62 1234.84 1817.66 1237.12H1813.78C1813.75 1232.84 1816.97 1230.06 1821.5 1230.06C1826.12 1230.06 1829.25 1232.81 1829.25 1236.62C1829.25 1239.19 1828 1241.25 1823.56 1245.44L1819.53 1249.44V1249.59H1829.59V1253H1813.87Z" fill="black"/>
</g>
<g id="cheongsong_hall_268">
<path d="M1876 1292C1876 1296.42 1879.58 1300 1884 1300H1947C1951.42 1300 1955 1296.42 1955 1292V1193C1955 1188.58 1951.42 1185 1947 1185H1884C1879.58 1185 1876 1188.58 1876 1193V1292Z" fill="#F7FBFF"/>
<path d="M1947 1188V1185H1884L1884 1188H1947ZM1952 1193V1292C1952 1294.76 1949.76 1297 1947 1297H1884C1881.24 1297 1879 1294.76 1879 1292V1193C1879 1190.24 1881.24 1188 1884 1188L1884 1185C1879.58 1185 1876 1188.58 1876 1193V1292C1876 1296.42 1879.58 1300 1884 1300H1947C1951.42 1300 1955 1296.42 1955 1292V1193C1955 1188.58 1951.42 1185 1947 1185V1188C1949.76 1188 1952 1190.24 1952 1193Z" fill="#2E2F33" fill-opacity="0.88"/>
<path d="M1935.62 1253.31C1930.59 1253.31 1927.03 1250.62 1927.03 1246.94C1927.03 1244.06 1929.16 1241.72 1931.88 1241.28V1241.16C1929.5 1240.66 1927.88 1238.59 1927.88 1236.12C1927.88 1232.62 1931.16 1230.06 1935.62 1230.06C1940.06 1230.06 1943.34 1232.62 1943.34 1236.12C1943.34 1238.59 1941.69 1240.66 1939.34 1241.16V1241.28C1942.06 1241.72 1944.22 1244.06 1944.22 1246.94C1944.22 1250.62 1940.62 1253.31 1935.62 1253.31ZM1935.62 1250.09C1938.28 1250.09 1940.03 1248.66 1940.03 1246.56C1940.03 1244.44 1938.16 1242.88 1935.62 1242.88C1933.06 1242.88 1931.19 1244.44 1931.22 1246.56C1931.19 1248.66 1932.94 1250.09 1935.62 1250.09ZM1935.62 1239.84C1937.81 1239.84 1939.38 1238.47 1939.38 1236.5C1939.38 1234.59 1937.84 1233.25 1935.62 1233.25C1933.38 1233.25 1931.84 1234.56 1931.84 1236.5C1931.84 1238.47 1933.41 1239.84 1935.62 1239.84Z" fill="black"/>
<path d="M1915.63 1253.31C1911.22 1253.28 1906.78 1250.66 1906.81 1242.31C1906.81 1234.56 1910.34 1230.06 1915.88 1230.06C1920.25 1230.06 1923.25 1232.81 1923.75 1236.47H1919.72C1919.31 1234.75 1917.94 1233.59 1915.88 1233.59C1912.59 1233.59 1910.75 1236.5 1910.75 1241.25H1910.97C1912.13 1239.31 1914.31 1238.16 1916.78 1238.16C1920.84 1238.16 1923.97 1241.22 1923.97 1245.5C1923.97 1250 1920.63 1253.34 1915.63 1253.31ZM1915.63 1250.03C1918.16 1250.03 1920.03 1248.06 1920.03 1245.59C1920.03 1243.19 1918.19 1241.25 1915.69 1241.25C1913.16 1241.25 1911.22 1243.25 1911.19 1245.62C1911.22 1248 1913.06 1250.03 1915.63 1250.03Z" fill="black"/>
<path d="M1887.87 1253V1250.06L1895.87 1242.34C1898.16 1240.06 1899.34 1238.72 1899.34 1236.81C1899.34 1234.72 1897.69 1233.38 1895.47 1233.38C1893.12 1233.38 1891.62 1234.84 1891.66 1237.12H1887.78C1887.75 1232.84 1890.97 1230.06 1895.5 1230.06C1900.12 1230.06 1903.25 1232.81 1903.25 1236.62C1903.25 1239.19 1902 1241.25 1897.56 1245.44L1893.53 1249.44V1249.59H1903.59V1253H1887.87Z" fill="black"/>
</g>
<g id="cheongsong_hall_269">
<path d="M1876 1138C1876 1142.42 1879.58 1146 1884 1146H1947C1951.42 1146 1955 1142.42 1955 1138V1004C1955 999.582 1951.42 996 1947 996H1884C1879.58 996 1876 999.582 1876 1004V1138Z" fill="#F7FBFF"/>
<path d="M1947 999V996H1884L1884 999H1947ZM1952 1004V1138C1952 1140.76 1949.76 1143 1947 1143H1884C1881.24 1143 1879 1140.76 1879 1138V1004C1879 1001.24 1881.24 999 1884 999L1884 996C1879.58 996 1876 999.582 1876 1004V1138C1876 1142.42 1879.58 1146 1884 1146H1947C1951.42 1146 1955 1142.42 1955 1138V1004C1955 999.582 1951.42 996 1947 996V999C1949.76 999 1952 1001.24 1952 1004Z" fill="#2E2F33" fill-opacity="0.88"/>
<path d="M1935.44 1059.06C1939.88 1059.09 1944.25 1061.72 1944.28 1070C1944.28 1077.81 1940.75 1082.31 1935.19 1082.31C1930.81 1082.31 1927.81 1079.59 1927.31 1075.84H1931.34C1931.75 1077.62 1933.12 1078.78 1935.19 1078.78C1938.47 1078.78 1940.31 1075.87 1940.34 1071.03H1940.09C1938.94 1073 1936.78 1074.16 1934.28 1074.16C1930.25 1074.16 1927.12 1071.09 1927.09 1066.81C1927.09 1062.37 1930.41 1059.03 1935.44 1059.06ZM1935.47 1062.34C1932.94 1062.34 1931.03 1064.31 1931.06 1066.72C1931.06 1069.16 1932.88 1071.06 1935.41 1071.06C1937.91 1071.06 1939.88 1069.03 1939.84 1066.69C1939.84 1064.37 1938 1062.34 1935.47 1062.34Z" fill="black"/>
<path d="M1915.63 1082.31C1911.22 1082.28 1906.78 1079.66 1906.81 1071.31C1906.81 1063.56 1910.34 1059.06 1915.88 1059.06C1920.25 1059.06 1923.25 1061.81 1923.75 1065.47H1919.72C1919.31 1063.75 1917.94 1062.59 1915.88 1062.59C1912.59 1062.59 1910.75 1065.5 1910.75 1070.25H1910.97C1912.13 1068.31 1914.31 1067.16 1916.78 1067.16C1920.84 1067.16 1923.97 1070.22 1923.97 1074.5C1923.97 1079 1920.63 1082.34 1915.63 1082.31ZM1915.63 1079.03C1918.16 1079.03 1920.03 1077.06 1920.03 1074.59C1920.03 1072.19 1918.19 1070.25 1915.69 1070.25C1913.16 1070.25 1911.22 1072.25 1911.19 1074.62C1911.22 1077 1913.06 1079.03 1915.63 1079.03Z" fill="black"/>
<path d="M1887.87 1082V1079.06L1895.87 1071.34C1898.16 1069.06 1899.34 1067.72 1899.34 1065.81C1899.34 1063.72 1897.69 1062.38 1895.47 1062.38C1893.12 1062.38 1891.62 1063.84 1891.66 1066.12H1887.78C1887.75 1061.84 1890.97 1059.06 1895.5 1059.06C1900.12 1059.06 1903.25 1061.81 1903.25 1065.62C1903.25 1068.19 1902 1070.25 1897.56 1074.44L1893.53 1078.44V1078.59H1903.59V1082H1887.87Z" fill="black"/>
</g>
<g id="cheongsong_hall_270">
<path d="M1794 1138C1794 1142.42 1797.58 1146 1802 1146H1871C1875.42 1146 1879 1142.42 1879 1138V1004C1879 999.582 1875.42 996 1871 996H1802C1797.58 996 1794 999.582 1794 1004V1138Z" fill="#F7FBFF"/>
<path d="M1871 999V996H1802L1802 999H1871ZM1876 1004V1138C1876 1140.76 1873.76 1143 1871 1143H1802C1799.24 1143 1797 1140.76 1797 1138V1004C1797 1001.24 1799.24 999 1802 999L1802 996L1801.59 996.011C1797.36 996.225 1794 999.72 1794 1004V1138C1794 1142.42 1797.58 1146 1802 1146H1871C1875.42 1146 1879 1142.42 1879 1138V1004C1879 999.582 1875.42 996 1871 996V999C1873.76 999 1876 1001.24 1876 1004Z" fill="#2E2F33" fill-opacity="0.88"/>
<path d="M1855.16 1082.31C1849.72 1082.31 1846.47 1078.09 1846.47 1070.69C1846.47 1063.31 1849.72 1059.06 1855.16 1059.06C1860.56 1059.06 1863.84 1063.31 1863.84 1070.69C1863.84 1078.09 1860.59 1082.31 1855.16 1082.31ZM1855.16 1078.91C1858 1078.91 1859.75 1076.12 1859.75 1070.69C1859.75 1065.28 1857.97 1062.44 1855.16 1062.44C1852.34 1062.44 1850.56 1065.28 1850.56 1070.69C1850.56 1076.12 1852.31 1078.91 1855.16 1078.91Z" fill="black"/>
<path d="M1830 1082L1839.81 1062.94V1062.78H1828.44V1059.38H1844.03V1062.84L1834.22 1082H1830Z" fill="black"/>
<path d="M1809.87 1082V1079.06L1817.87 1071.34C1820.16 1069.06 1821.34 1067.72 1821.34 1065.81C1821.34 1063.72 1819.69 1062.38 1817.47 1062.38C1815.12 1062.38 1813.62 1063.84 1813.66 1066.12H1809.78C1809.75 1061.84 1812.97 1059.06 1817.5 1059.06C1822.12 1059.06 1825.25 1061.81 1825.25 1065.62C1825.25 1068.19 1824 1070.25 1819.56 1074.44L1815.53 1078.44V1078.59H1825.59V1082H1809.87Z" fill="black"/>
</g>
<g id="cheongsong_hall_271">
<path d="M1709 1138C1709 1142.42 1712.58 1146 1717 1146H1789C1793.42 1146 1797 1142.42 1797 1138V1004C1797 999.582 1793.42 996 1789 996H1717C1712.58 996 1709 999.582 1709 1004V1138Z" fill="#F7FBFF"/>
<path d="M1789 999V996H1717L1717 999H1789ZM1794 1004V1138C1794 1140.76 1791.76 1143 1789 1143H1717C1714.24 1143 1712 1140.76 1712 1138V1004C1712 1001.24 1714.24 999 1717 999L1717 996L1716.59 996.011C1712.36 996.225 1709 999.72 1709 1004V1138C1709 1142.42 1712.58 1146 1717 1146H1789C1793.42 1146 1797 1142.42 1797 1138V1004C1797 999.582 1793.42 996 1789 996V999C1791.76 999 1794 1001.24 1794 1004Z" fill="#2E2F33" fill-opacity="0.88"/>
<path d="M1775.5 1059.38V1082H1771.41V1063.34H1771.28L1766 1066.72V1063L1771.59 1059.38H1775.5Z" fill="black"/>
<path d="M1749 1082L1758.81 1062.94V1062.78H1747.44V1059.38H1763.03V1062.84L1753.22 1082H1749Z" fill="black"/>
<path d="M1728.87 1082V1079.06L1736.87 1071.34C1739.16 1069.06 1740.34 1067.72 1740.34 1065.81C1740.34 1063.72 1738.69 1062.38 1736.47 1062.38C1734.12 1062.38 1732.62 1063.84 1732.66 1066.12H1728.78C1728.75 1061.84 1731.97 1059.06 1736.5 1059.06C1741.12 1059.06 1744.25 1061.81 1744.25 1065.62C1744.25 1068.19 1743 1070.25 1738.56 1074.44L1734.53 1078.44V1078.59H1744.59V1082H1728.87Z" fill="black"/>
</g>
<g id="cheongsong_hall_272">
<path d="M1632 1138C1632 1142.42 1635.58 1146 1640 1146H1704C1708.42 1146 1712 1142.42 1712 1138V1004C1712 999.582 1708.42 996 1704 996H1640C1635.58 996 1632 999.582 1632 1004V1138Z" fill="#F7FBFF"/>
<path d="M1704 999V996H1640L1640 999H1704ZM1709 1004V1138C1709 1140.76 1706.76 1143 1704 1143H1640C1637.24 1143 1635 1140.76 1635 1138V1004C1635 1001.24 1637.24 999 1640 999L1640 996C1635.58 996 1632 999.582 1632 1004V1138C1632 1142.42 1635.58 1146 1640 1146H1704C1708.42 1146 1712 1142.42 1712 1138V1004C1712 999.582 1708.42 996 1704 996V999C1706.76 999 1709 1001.24 1709 1004Z" fill="#2E2F33" fill-opacity="0.88"/>
<path d="M1682.31 1082V1079.06L1690.31 1071.34C1692.59 1069.06 1693.78 1067.72 1693.78 1065.81C1693.78 1063.72 1692.12 1062.38 1689.91 1062.38C1687.56 1062.38 1686.06 1063.84 1686.09 1066.12H1682.22C1682.19 1061.84 1685.41 1059.06 1689.94 1059.06C1694.56 1059.06 1697.69 1061.81 1697.69 1065.62C1697.69 1068.19 1696.44 1070.25 1692 1074.44L1687.97 1078.44V1078.59H1698.03V1082H1682.31Z" fill="black"/>
<path d="M1665 1082L1674.81 1062.94V1062.78H1663.44V1059.38H1679.03V1062.84L1669.22 1082H1665Z" fill="black"/>
<path d="M1644.87 1082V1079.06L1652.87 1071.34C1655.16 1069.06 1656.34 1067.72 1656.34 1065.81C1656.34 1063.72 1654.69 1062.38 1652.47 1062.38C1650.12 1062.38 1648.62 1063.84 1648.66 1066.12H1644.78C1644.75 1061.84 1647.97 1059.06 1652.5 1059.06C1657.12 1059.06 1660.25 1061.81 1660.25 1065.62C1660.25 1068.19 1659 1070.25 1654.56 1074.44L1650.53 1078.44V1078.59H1660.59V1082H1644.87Z" fill="black"/>
</g>
<g id="cheongsong_hall_273">
<path d="M1558 1138C1558 1142.42 1561.58 1146 1566 1146H1627C1631.42 1146 1635 1142.42 1635 1138V1004C1635 999.582 1631.42 996 1627 996H1566C1561.58 996 1558 999.582 1558 1004V1138Z" fill="#F7FBFF"/>
<path d="M1627 999V996H1566L1566 999H1627ZM1632 1004V1138C1632 1140.76 1629.76 1143 1627 1143H1566C1563.24 1143 1561 1140.76 1561 1138V1004C1561 1001.24 1563.24 999 1566 999L1566 996L1565.59 996.011C1561.36 996.225 1558 999.72 1558 1004V1138C1558 1142.42 1561.58 1146 1566 1146H1627C1631.42 1146 1635 1142.42 1635 1138V1004C1635 999.582 1631.42 996 1627 996V999C1629.76 999 1632 1001.24 1632 1004Z" fill="#2E2F33" fill-opacity="0.88"/>
<path d="M1614 1082.31C1609.16 1082.31 1605.72 1079.69 1605.62 1075.88H1609.72C1609.84 1077.69 1611.66 1078.88 1614 1078.88C1616.5 1078.88 1618.28 1077.5 1618.28 1075.5C1618.28 1073.47 1616.53 1072 1613.59 1072H1611.56V1068.88H1613.59C1616 1068.88 1617.69 1067.53 1617.66 1065.56C1617.69 1063.66 1616.25 1062.38 1614.03 1062.38C1611.91 1062.38 1610.06 1063.56 1610 1065.47H1606.09C1606.19 1061.66 1609.62 1059.06 1614.06 1059.06C1618.66 1059.06 1621.62 1061.88 1621.59 1065.34C1621.62 1067.88 1619.94 1069.72 1617.47 1070.22V1070.41C1620.66 1070.84 1622.47 1072.88 1622.44 1075.72C1622.47 1079.53 1618.91 1082.31 1614 1082.31Z" fill="black"/>
<path d="M1589 1082L1598.81 1062.94V1062.78H1587.44V1059.38H1603.03V1062.84L1593.22 1082H1589Z" fill="black"/>
<path d="M1568.87 1082V1079.06L1576.87 1071.34C1579.16 1069.06 1580.34 1067.72 1580.34 1065.81C1580.34 1063.72 1578.69 1062.38 1576.47 1062.38C1574.12 1062.38 1572.62 1063.84 1572.66 1066.12H1568.78C1568.75 1061.84 1571.97 1059.06 1576.5 1059.06C1581.12 1059.06 1584.25 1061.81 1584.25 1065.62C1584.25 1068.19 1583 1070.25 1578.56 1074.44L1574.53 1078.44V1078.59H1584.59V1082H1568.87Z" fill="black"/>
</g>
<g id="cheongsong_hall_274">
<path d="M1481 1138C1481 1142.42 1484.58 1146 1489 1146H1553C1557.42 1146 1561 1142.42 1561 1138V1004C1561 999.582 1557.42 996 1553 996H1489C1484.58 996 1481 999.582 1481 1004V1138Z" fill="#F7FBFF"/>
<path d="M1553 999V996H1489L1489 999H1553ZM1558 1004V1138C1558 1140.76 1555.76 1143 1553 1143H1489C1486.24 1143 1484 1140.76 1484 1138V1004C1484 1001.24 1486.24 999 1489 999L1489 996C1484.58 996 1481 999.582 1481 1004V1138C1481 1142.42 1484.58 1146 1489 1146H1553C1557.42 1146 1561 1142.42 1561 1138V1004C1561 999.582 1557.42 996 1553 996V999C1555.76 999 1558 1001.24 1558 1004Z" fill="#2E2F33" fill-opacity="0.88"/>
<path d="M1529.09 1077.78V1074.53L1538.88 1059.38H1543.94V1074.44H1546.91V1077.78H1543.94V1082H1540.06V1077.78H1529.09ZM1533.25 1074.44H1540.12V1064H1539.88L1533.25 1074.28V1074.44Z" fill="black"/>
<path d="M1514 1082L1523.81 1062.94V1062.78H1512.44V1059.38H1528.03V1062.84L1518.22 1082H1514Z" fill="black"/>
<path d="M1493.87 1082V1079.06L1501.87 1071.34C1504.16 1069.06 1505.34 1067.72 1505.34 1065.81C1505.34 1063.72 1503.69 1062.38 1501.47 1062.38C1499.12 1062.38 1497.62 1063.84 1497.66 1066.12H1493.78C1493.75 1061.84 1496.97 1059.06 1501.5 1059.06C1506.12 1059.06 1509.25 1061.81 1509.25 1065.62C1509.25 1068.19 1508 1070.25 1503.56 1074.44L1499.53 1078.44V1078.59H1509.59V1082H1493.87Z" fill="black"/>
</g>
<g id="cheongsong_hall_275">
<path d="M1414 1138C1414 1142.42 1417.58 1146 1422 1146H1476C1480.42 1146 1484 1142.42 1484 1138V1004C1484 999.582 1480.42 996 1476 996H1422C1417.58 996 1414 999.582 1414 1004V1138Z" fill="#F7FBFF"/>
<path d="M1476 999V996H1422L1422 999H1476ZM1481 1004V1138C1481 1140.76 1478.76 1143 1476 1143H1422C1419.24 1143 1417 1140.76 1417 1138V1004C1417 1001.24 1419.24 999 1422 999L1422 996L1421.59 996.011C1417.36 996.225 1414 999.72 1414 1004V1138C1414 1142.42 1417.58 1146 1422 1146H1476C1480.42 1146 1484 1142.42 1484 1138V1004C1484 999.582 1480.42 996 1476 996V999C1478.76 999 1481 1001.24 1481 1004Z" fill="#2E2F33" fill-opacity="0.88"/>
<path d="M1467.03 1082.31C1462.5 1082.31 1459.19 1079.62 1459.06 1075.88H1463.03C1463.16 1077.72 1464.88 1079.03 1467.03 1079.03C1469.56 1079.03 1471.38 1077.19 1471.38 1074.69C1471.38 1072.09 1469.5 1070.25 1466.91 1070.25C1465.16 1070.22 1463.88 1070.84 1463.16 1072.19H1459.38L1460.75 1059.38H1474.12V1062.78H1464.09L1463.41 1068.78H1463.62C1464.5 1067.78 1466.16 1067.06 1468 1067.06C1472.22 1067.06 1475.31 1070.22 1475.31 1074.56C1475.31 1079.09 1471.91 1082.31 1467.03 1082.31Z" fill="black"/>
<path d="M1442 1082L1451.81 1062.94V1062.78H1440.44V1059.38H1456.03V1062.84L1446.22 1082H1442Z" fill="black"/>
<path d="M1421.87 1082V1079.06L1429.87 1071.34C1432.16 1069.06 1433.34 1067.72 1433.34 1065.81C1433.34 1063.72 1431.69 1062.38 1429.47 1062.38C1427.12 1062.38 1425.62 1063.84 1425.66 1066.12H1421.78C1421.75 1061.84 1424.97 1059.06 1429.5 1059.06C1434.12 1059.06 1437.25 1061.81 1437.25 1065.62C1437.25 1068.19 1436 1070.25 1431.56 1074.44L1427.53 1078.44V1078.59H1437.59V1082H1421.87Z" fill="black"/>
</g>
<g id="cheongsong_hall_276">
<path d="M1349 1138C1349 1142.42 1352.58 1146 1357 1146H1408C1412.42 1146 1416 1142.42 1416 1138V1004C1416 999.582 1412.42 996 1408 996H1357C1352.58 996 1349 999.582 1349 1004V1138Z" fill="#F7FBFF"/>
<path d="M1408 999V996H1357L1357 999H1408ZM1413 1004V1138C1413 1140.76 1410.76 1143 1408 1143H1357C1354.24 1143 1352 1140.76 1352 1138V1004C1352 1001.24 1354.24 999 1357 999L1357 996C1352.58 996 1349 999.582 1349 1004V1138C1349 1142.42 1352.58 1146 1357 1146H1408C1412.42 1146 1416 1142.42 1416 1138V1004C1416 999.582 1412.42 996 1408 996V999C1410.76 999 1413 1001.24 1413 1004Z" fill="#2E2F33" fill-opacity="0.88"/>
<path d="M1401.28 1082.31C1396.88 1082.28 1392.44 1079.66 1392.47 1071.31C1392.47 1063.56 1396 1059.06 1401.53 1059.06C1405.91 1059.06 1408.91 1061.81 1409.41 1065.47H1405.38C1404.97 1063.75 1403.59 1062.59 1401.53 1062.59C1398.25 1062.59 1396.41 1065.5 1396.41 1070.25H1396.63C1397.78 1068.31 1399.97 1067.16 1402.44 1067.16C1406.5 1067.16 1409.63 1070.22 1409.63 1074.5C1409.63 1079 1406.28 1082.34 1401.28 1082.31ZM1401.28 1079.03C1403.81 1079.03 1405.69 1077.06 1405.69 1074.59C1405.69 1072.19 1403.84 1070.25 1401.34 1070.25C1398.81 1070.25 1396.88 1072.25 1396.84 1074.62C1396.88 1077 1398.72 1079.03 1401.28 1079.03Z" fill="black"/>
<path d="M1376 1082L1385.81 1062.94V1062.78H1374.44V1059.38H1390.03V1062.84L1380.22 1082H1376Z" fill="black"/>
<path d="M1355.87 1082V1079.06L1363.87 1071.34C1366.16 1069.06 1367.34 1067.72 1367.34 1065.81C1367.34 1063.72 1365.69 1062.38 1363.47 1062.38C1361.12 1062.38 1359.62 1063.84 1359.66 1066.12H1355.78C1355.75 1061.84 1358.97 1059.06 1363.5 1059.06C1368.12 1059.06 1371.25 1061.81 1371.25 1065.62C1371.25 1068.19 1370 1070.25 1365.56 1074.44L1361.53 1078.44V1078.59H1371.59V1082H1355.87Z" fill="black"/>
</g>
<g id="cheongsong_hall_277">
<path d="M1282 1138C1282 1142.42 1285.58 1146 1290 1146H1345C1349.42 1146 1353 1142.42 1353 1138V1004C1353 999.582 1349.42 996 1345 996H1290C1285.58 996 1282 999.582 1282 1004V1138Z" fill="#F7FBFF"/>
<path d="M1345 999V996H1290L1290 999H1345ZM1350 1004V1138C1350 1140.76 1347.76 1143 1345 1143H1290C1287.24 1143 1285 1140.76 1285 1138V1004C1285 1001.24 1287.24 999 1290 999L1290 996C1285.58 996 1282 999.582 1282 1004V1138C1282 1142.42 1285.58 1146 1290 1146H1345L1345.41 1145.99C1349.64 1145.77 1353 1142.28 1353 1138V1004C1353 999.582 1349.42 996 1345 996V999C1347.76 999 1350 1001.24 1350 1004Z" fill="#2E2F33" fill-opacity="0.88"/>
<path d="M1329.78 1082L1339.59 1062.94V1062.78H1328.22V1059.38H1343.81V1062.84L1334 1082H1329.78Z" fill="black"/>
<path d="M1311 1082L1320.81 1062.94V1062.78H1309.44V1059.38H1325.03V1062.84L1315.22 1082H1311Z" fill="black"/>
<path d="M1290.87 1082V1079.06L1298.87 1071.34C1301.16 1069.06 1302.34 1067.72 1302.34 1065.81C1302.34 1063.72 1300.69 1062.38 1298.47 1062.38C1296.12 1062.38 1294.62 1063.84 1294.66 1066.12H1290.78C1290.75 1061.84 1293.97 1059.06 1298.5 1059.06C1303.12 1059.06 1306.25 1061.81 1306.25 1065.62C1306.25 1068.19 1305 1070.25 1300.56 1074.44L1296.53 1078.44V1078.59H1306.59V1082H1290.87Z" fill="black"/>
</g>
<g id="cheongsong_hall_278">
<path d="M1204 1138C1204 1142.42 1207.58 1146 1212 1146H1277C1281.42 1146 1285 1142.42 1285 1138V1004C1285 999.582 1281.42 996 1277 996H1212C1207.58 996 1204 999.582 1204 1004V1138Z" fill="#F7FBFF"/>
<path d="M1277 999V996H1212V999H1277ZM1282 1004V1138C1282 1140.76 1279.76 1143 1277 1143H1212C1209.24 1143 1207 1140.76 1207 1138V1004C1207 1001.24 1209.24 999 1212 999V996C1207.58 996 1204 999.582 1204 1004V1138C1204 1142.42 1207.58 1146 1212 1146H1277C1281.42 1146 1285 1142.42 1285 1138V1004C1285 999.582 1281.42 996 1277 996V999C1279.76 999 1282 1001.24 1282 1004Z" fill="#2E2F33" fill-opacity="0.88"/>
<path d="M1262.09 1082.31C1257.06 1082.31 1253.5 1079.62 1253.5 1075.94C1253.5 1073.06 1255.62 1070.72 1258.34 1070.28V1070.16C1255.97 1069.66 1254.34 1067.59 1254.34 1065.12C1254.34 1061.62 1257.62 1059.06 1262.09 1059.06C1266.53 1059.06 1269.81 1061.62 1269.81 1065.12C1269.81 1067.59 1268.16 1069.66 1265.81 1070.16V1070.28C1268.53 1070.72 1270.69 1073.06 1270.69 1075.94C1270.69 1079.62 1267.09 1082.31 1262.09 1082.31ZM1262.09 1079.09C1264.75 1079.09 1266.5 1077.66 1266.5 1075.56C1266.5 1073.44 1264.62 1071.88 1262.09 1071.88C1259.53 1071.88 1257.66 1073.44 1257.69 1075.56C1257.66 1077.66 1259.41 1079.09 1262.09 1079.09ZM1262.09 1068.84C1264.28 1068.84 1265.84 1067.47 1265.84 1065.5C1265.84 1063.59 1264.31 1062.25 1262.09 1062.25C1259.84 1062.25 1258.31 1063.56 1258.31 1065.5C1258.31 1067.47 1259.88 1068.84 1262.09 1068.84Z" fill="black"/>
<path d="M1237 1082L1246.81 1062.94V1062.78H1235.44V1059.38H1251.03V1062.84L1241.22 1082H1237Z" fill="black"/>
<path d="M1216.87 1082V1079.06L1224.87 1071.34C1227.16 1069.06 1228.34 1067.72 1228.34 1065.81C1228.34 1063.72 1226.69 1062.38 1224.47 1062.38C1222.12 1062.38 1220.62 1063.84 1220.66 1066.12H1216.78C1216.75 1061.84 1219.97 1059.06 1224.5 1059.06C1229.12 1059.06 1232.25 1061.81 1232.25 1065.62C1232.25 1068.19 1231 1070.25 1226.56 1074.44L1222.53 1078.44V1078.59H1232.59V1082H1216.87Z" fill="black"/>
</g>
<g id="cheongsong_hall_279">
<path d="M1125 1138C1125 1142.42 1128.58 1146 1133 1146H1198C1202.42 1146 1206 1142.42 1206 1138V1004C1206 999.582 1202.42 996 1198 996H1133C1128.58 996 1125 999.582 1125 1004V1138Z" fill="#F7FBFF"/>
<path d="M1198 999V996H1133V999H1198ZM1203 1004V1138C1203 1140.76 1200.76 1143 1198 1143H1133C1130.24 1143 1128 1140.76 1128 1138V1004C1128 1001.24 1130.24 999 1133 999V996C1128.58 996 1125 999.582 1125 1004V1138C1125 1142.42 1128.58 1146 1133 1146H1198C1202.42 1146 1206 1142.42 1206 1138V1004C1206 999.582 1202.42 996 1198 996V999C1200.76 999 1203 1001.24 1203 1004Z" fill="#2E2F33" fill-opacity="0.88"/>
<path d="M1184.03 1059.06C1188.47 1059.09 1192.84 1061.72 1192.88 1070C1192.88 1077.81 1189.34 1082.31 1183.78 1082.31C1179.41 1082.31 1176.41 1079.59 1175.91 1075.84H1179.94C1180.34 1077.62 1181.72 1078.78 1183.78 1078.78C1187.06 1078.78 1188.91 1075.87 1188.94 1071.03H1188.69C1187.53 1073 1185.38 1074.16 1182.88 1074.16C1178.84 1074.16 1175.72 1071.09 1175.69 1066.81C1175.69 1062.37 1179 1059.03 1184.03 1059.06ZM1184.06 1062.34C1181.53 1062.34 1179.62 1064.31 1179.66 1066.72C1179.66 1069.16 1181.47 1071.06 1184 1071.06C1186.5 1071.06 1188.47 1069.03 1188.44 1066.69C1188.44 1064.37 1186.59 1062.34 1184.06 1062.34Z" fill="black"/>
<path d="M1159 1082L1168.81 1062.94V1062.78H1157.44V1059.38H1173.03V1062.84L1163.22 1082H1159Z" fill="black"/>
<path d="M1138.87 1082V1079.06L1146.87 1071.34C1149.16 1069.06 1150.34 1067.72 1150.34 1065.81C1150.34 1063.72 1148.69 1062.38 1146.47 1062.38C1144.12 1062.38 1142.62 1063.84 1142.66 1066.12H1138.78C1138.75 1061.84 1141.97 1059.06 1146.5 1059.06C1151.12 1059.06 1154.25 1061.81 1154.25 1065.62C1154.25 1068.19 1153 1070.25 1148.56 1074.44L1144.53 1078.44V1078.59H1154.59V1082H1138.87Z" fill="black"/>
</g>
<g id="cheongsong_hall_281">
<path d="M1024 991C1024 995.418 1027.58 999 1032 999H1072C1076.42 999 1080 995.418 1080 991V947C1080 942.582 1076.42 939 1072 939H1032C1027.58 939 1024 942.582 1024 947V991Z" fill="#F7FBFF"/>
<path d="M1072 942V939H1032L1032 942H1072ZM1077 947V991C1077 993.761 1074.76 996 1072 996H1032C1029.24 996 1027 993.761 1027 991V947C1027 944.239 1029.24 942 1032 942L1032 939L1031.59 939.011C1027.36 939.225 1024 942.72 1024 947V991C1024 995.418 1027.58 999 1032 999H1072C1076.42 999 1080 995.418 1080 991V947C1080 942.582 1076.42 939 1072 939V942C1074.76 942 1077 944.239 1077 947Z" fill="#2E2F33" fill-opacity="0.88"/>
<path d="M1068.9 960.031V977H1065.83V963.008H1065.73L1061.77 965.539V962.75L1065.97 960.031H1068.9Z" fill="black"/>
<path d="M1053.03 977.234C1049.26 977.234 1046.59 975.219 1046.59 972.453C1046.59 970.297 1048.18 968.539 1050.22 968.211V968.117C1048.44 967.742 1047.22 966.195 1047.22 964.344C1047.22 961.719 1049.68 959.797 1053.03 959.797C1056.36 959.797 1058.82 961.719 1058.82 964.344C1058.82 966.195 1057.58 967.742 1055.82 968.117V968.211C1057.86 968.539 1059.48 970.297 1059.48 972.453C1059.48 975.219 1056.78 977.234 1053.03 977.234ZM1053.03 974.82C1055.02 974.82 1056.34 973.742 1056.34 972.172C1056.34 970.578 1054.93 969.406 1053.03 969.406C1051.11 969.406 1049.7 970.578 1049.73 972.172C1049.7 973.742 1051.02 974.82 1053.03 974.82ZM1053.03 967.133C1054.67 967.133 1055.84 966.102 1055.84 964.625C1055.84 963.195 1054.7 962.188 1053.03 962.188C1051.34 962.188 1050.2 963.172 1050.2 964.625C1050.2 966.102 1051.37 967.133 1053.03 967.133Z" fill="black"/>
<path d="M1032.41 977V974.797L1038.41 969.008C1040.12 967.297 1041.01 966.289 1041.01 964.859C1041.01 963.289 1039.77 962.281 1038.1 962.281C1036.34 962.281 1035.22 963.383 1035.24 965.094H1032.34C1032.31 961.883 1034.73 959.797 1038.13 959.797C1041.59 959.797 1043.94 961.859 1043.94 964.719C1043.94 966.641 1043 968.188 1039.67 971.328L1036.65 974.328V974.445H1044.2V977H1032.41Z" fill="black"/>
</g>
<g id="cheongsong_hall_202">
<path d="M673.527 459.692C673.093 460.182 673 460.831 673 461.485V564.662C673 566.798 673.854 568.845 675.372 570.348L770.662 664.685C772.16 666.168 774.182 667 776.29 667H834.733C836.827 667 838.838 666.179 840.333 664.713L936.6 570.352C938.135 568.848 939 566.789 939 564.639V461.548C939 460.852 938.889 460.164 938.402 459.667C935.304 456.508 916.564 445.428 806 445C694.558 444.568 676.405 456.45 673.527 459.692Z" fill="#F7FBFF"/>
<path d="M834.733 664H776.29C774.973 664 773.709 663.479 772.772 662.553L677.482 568.216C676.534 567.276 676 565.997 676 564.662V461.484C676 461.474 676.001 461.464 676.001 461.455C677.219 460.336 682.233 456.982 699.573 453.923C718.149 450.645 750.346 447.784 805.988 448C861.196 448.214 893.337 451.088 911.997 454.266C921.326 455.855 927.21 457.509 930.89 458.907C933.984 460.083 935.407 461.039 935.999 461.533C935.999 461.538 936 461.543 936 461.548V564.638L939 564.639V461.548C939 460.896 938.902 460.249 938.488 459.761L938.402 459.667C935.352 456.558 917.145 445.772 811.115 445.027L806 445C694.558 444.568 676.405 456.45 673.527 459.692C673.093 460.182 673 460.831 673 461.485V564.662C673 566.798 673.854 568.845 675.372 570.348L770.662 664.685C772.16 666.168 774.182 667 776.29 667H834.733L835.125 666.99C837.077 666.894 838.931 666.087 840.333 664.713L936.6 570.352L936.88 570.063C938.24 568.589 939 566.654 939 564.639L936 564.638C936 565.982 935.459 567.269 934.5 568.21L838.233 662.57C837.299 663.486 836.042 664 834.733 664Z" fill="#2E2F33" fill-opacity="0.88"/>
<path d="M817.594 567V564.062L825.594 556.344C827.875 554.062 829.062 552.719 829.062 550.812C829.062 548.719 827.406 547.375 825.187 547.375C822.844 547.375 821.344 548.844 821.375 551.125H817.5C817.469 546.844 820.687 544.062 825.219 544.062C829.844 544.062 832.969 546.812 832.969 550.625C832.969 553.187 831.719 555.25 827.281 559.437L823.25 563.437V563.594H833.312V567H817.594Z" fill="black"/>
<path d="M805.5 567.312C800.062 567.312 796.812 563.094 796.812 555.687C796.812 548.312 800.062 544.062 805.5 544.062C810.906 544.062 814.188 548.312 814.188 555.687C814.188 563.094 810.938 567.312 805.5 567.312ZM805.5 563.906C808.344 563.906 810.094 561.125 810.094 555.687C810.094 550.281 808.312 547.437 805.5 547.437C802.688 547.437 800.906 550.281 800.906 555.687C800.906 561.125 802.656 563.906 805.5 563.906Z" fill="black"/>
<path d="M777.875 567V564.062L785.875 556.344C788.156 554.062 789.344 552.719 789.344 550.812C789.344 548.719 787.687 547.375 785.469 547.375C783.125 547.375 781.625 548.844 781.656 551.125H777.781C777.75 546.844 780.969 544.062 785.5 544.062C790.125 544.062 793.25 546.812 793.25 550.625C793.25 553.187 792 555.25 787.562 559.437L783.531 563.437V563.594H793.594V567H777.875Z" fill="black"/>
</g>
<g id="cheongsong_hall_102">
<path d="M931 464C935.418 464 939 460.418 939 456V353C939 348.582 935.418 345 931 345H681C676.582 345 673 348.582 673 353V456C673 460.418 676.582 464 681 464H931Z" fill="#F7FBFF"/>
<path d="M676 353H673V456H676V353ZM681 348H931C933.761 348 936 350.239 936 353V456C936 458.761 933.761 461 931 461H681C678.239 461 676 458.761 676 456H673L673.011 456.412C673.225 460.639 676.72 464 681 464H931C935.418 464 939 460.418 939 456V353C939 348.582 935.418 345 931 345H681C676.582 345 673 348.582 673 353H676C676 350.239 678.239 348 681 348Z" fill="#2E2F33" fill-opacity="0.88"/>
<path d="M816 415V412.062L824 404.344C826.281 402.062 827.469 400.719 827.469 398.812C827.469 396.719 825.812 395.375 823.594 395.375C821.25 395.375 819.75 396.844 819.781 399.125H815.906C815.875 394.844 819.094 392.062 823.625 392.062C828.25 392.062 831.375 394.812 831.375 398.625C831.375 401.188 830.125 403.25 825.687 407.438L821.656 411.438V411.594H831.719V415H816Z" fill="black"/>
<path d="M803.906 415.312C798.469 415.312 795.219 411.094 795.219 403.688C795.219 396.312 798.469 392.062 803.906 392.062C809.312 392.062 812.594 396.312 812.594 403.688C812.594 411.094 809.344 415.312 803.906 415.312ZM803.906 411.906C806.75 411.906 808.5 409.125 808.5 403.688C808.5 398.281 806.719 395.438 803.906 395.438C801.094 395.438 799.312 398.281 799.312 403.688C799.312 409.125 801.062 411.906 803.906 411.906Z" fill="black"/>
<path d="M790.062 392.375V415H785.969V396.344H785.844L780.562 399.719V396L786.156 392.375H790.062Z" fill="black"/>
</g>
</g>
</svg>
