<svg width="1327" height="1494" viewBox="0 0 1327 1494" fill="none" xmlns="http://www.w3.org/2000/svg">
<g id="cheongsong_hall_floor_1">
<g id="Vector">
<path d="M532.5 502V611H417.5V882H468.5V962L595.5 1090.5H680.5V1147H946V1211H788V1362H888.5V1421H946.5V1457H1015V1337.5H1155V1149H1324V993H1101V943H1236V875.5H1224.5V611.5H1034.5L1028.5 573.5L995.5 542L958 537.5V345.5H694V315H869.5V179H953.5V3H630V163H646.5V177.5H437V217H22V346.5H36.5V453H69V502H532.5Z" fill="#999999"/>
<path d="M1018 1460V1340.5H1158V1152H1327V990H1104V946H1239V872.5H1227.5V608.5H1037.06L1031.3 572.03L996.849 539.141L961 534.839V342.5H697V318H872.5V182H956.5V0H627V166H643.5V174.5H434V214H19V349.5H33.5V456H66V505H529.5V608H414.5V885H465.5V963.232L594.247 1093.5H677.5V1150H943V1208H785V1365H885.5V1424H943.5V1460H1018ZM949.5 1418H891.5V1359H791V1214H949V1144H683.5V1087.5H596.753L471.5 960.769V879H420.5V614H535.5V499H72V450H39.5V343.5H25V220H440V180.5H649.5V160H633V6H950.5V176H866.5V312H691V348.5H955V540.161L994.15 544.86L1025.7 574.971L1031.94 614.5H1221.5V878.5H1233V940H1098V996H1321V1146H1152V1334.5H1012V1454H949.5V1418Z" fill="black"/>
</g>
<g id="cheongsong_hall_111">
<path d="M25 301C25 305.418 28.5817 309 33 309H89C93.4183 309 97 305.418 97 301V228C97 223.582 93.4183 220 89 220H33C28.5817 220 25 223.582 25 228V301Z" fill="#F7FBFF"/>
<path d="M89 223V220H33L33 223H89ZM94 228V301C94 303.761 91.7614 306 89 306H33C30.2386 306 28 303.761 28 301V228C28 225.239 30.2386 223 33 223L33 220L32.5879 220.011C28.3611 220.225 25 223.72 25 228V301C25 305.418 28.5817 309 33 309H89C93.4183 309 97 305.418 97 301V228C97 223.582 93.4183 220 89 220V223C91.7614 223 94 225.239 94 228Z" fill="#2E2F33" fill-opacity="0.88"/>
<path d="M79.4375 252.375V275H75.3438V256.344H75.2188L69.9375 259.719V256L75.5312 252.375H79.4375Z" fill="black"/>
<path d="M64.75 252.375V275H60.6562V256.344H60.5312L55.25 259.719V256L60.8438 252.375H64.75Z" fill="black"/>
<path d="M50.0625 252.375V275H45.9688V256.344H45.8438L40.5625 259.719V256L46.1562 252.375H50.0625Z" fill="black"/>
</g>
<g id="cheongsong_hall_103">
<path d="M130 491C130 495.418 133.34 499 137.461 499H302.539C306.66 499 310 495.418 310 491V355C310 350.582 306.66 347 302.539 347H137.461C133.34 347 130 350.582 130 355V491Z" fill="#F7FBFF"/>
<path d="M302.539 350V347H137.461L137.461 350H302.539ZM307.202 355V491C307.202 493.761 305.114 496 302.539 496H137.461C134.886 496 132.798 493.761 132.798 491V355C132.798 352.239 134.886 350 137.461 350L137.461 347C133.34 347 130 350.582 130 355V491C130 495.418 133.34 499 137.461 499H302.539C306.66 499 310 495.418 310 491V355C310 350.582 306.66 347 302.539 347V350C305.114 350 307.202 352.239 307.202 355Z" fill="#2E2F33" fill-opacity="0.88"/>
<path d="M237.219 434.312C232.375 434.312 228.938 431.688 228.844 427.875H232.938C233.062 429.688 234.875 430.875 237.219 430.875C239.719 430.875 241.5 429.5 241.5 427.5C241.5 425.469 239.75 424 236.812 424H234.781V420.875H236.812C239.219 420.875 240.906 419.531 240.875 417.562C240.906 415.656 239.469 414.375 237.25 414.375C235.125 414.375 233.281 415.562 233.219 417.469H229.312C229.406 413.656 232.844 411.062 237.281 411.062C241.875 411.062 244.844 413.875 244.812 417.344C244.844 419.875 243.156 421.719 240.688 422.219V422.406C243.875 422.844 245.688 424.875 245.656 427.719C245.688 431.531 242.125 434.312 237.219 434.312Z" fill="black"/>
<path d="M216.906 434.312C211.469 434.312 208.219 430.094 208.219 422.688C208.219 415.312 211.469 411.062 216.906 411.062C222.312 411.062 225.594 415.312 225.594 422.688C225.594 430.094 222.344 434.312 216.906 434.312ZM216.906 430.906C219.75 430.906 221.5 428.125 221.5 422.688C221.5 417.281 219.719 414.438 216.906 414.438C214.094 414.438 212.312 417.281 212.312 422.688C212.312 428.125 214.062 430.906 216.906 430.906Z" fill="black"/>
<path d="M203.062 411.375V434H198.969V415.344H198.844L193.562 418.719V415L199.156 411.375H203.062Z" fill="black"/>
</g>
<g id="cheongsong_hall_105">
<path d="M307 491C307 495.418 310.582 499 315 499H483C487.418 499 491 495.418 491 491V355C491 350.582 487.418 347 483 347H315C310.582 347 307 350.582 307 355V491Z" fill="#F7FBFF"/>
<path d="M483 350V347H315L315 350H483ZM488 355V491C488 493.761 485.761 496 483 496H315C312.239 496 310 493.761 310 491V355C310 352.239 312.239 350 315 350L315 347L314.588 347.011C310.361 347.225 307 350.72 307 355V491C307 495.418 310.582 499 315 499H483C487.418 499 491 495.418 491 491V355C491 350.582 487.418 347 483 347V350C485.761 350 488 352.239 488 355Z" fill="#2E2F33" fill-opacity="0.88"/>
<path d="M416.031 434.312C411.5 434.312 408.188 431.625 408.062 427.875H412.031C412.156 429.719 413.875 431.031 416.031 431.031C418.562 431.031 420.375 429.188 420.375 426.688C420.375 424.094 418.5 422.25 415.906 422.25C414.156 422.219 412.875 422.844 412.156 424.188H408.375L409.75 411.375H423.125V414.781H413.094L412.406 420.781H412.625C413.5 419.781 415.156 419.062 417 419.062C421.219 419.062 424.312 422.219 424.312 426.562C424.312 431.094 420.906 434.312 416.031 434.312Z" fill="black"/>
<path d="M395.906 434.312C390.469 434.312 387.219 430.094 387.219 422.688C387.219 415.312 390.469 411.062 395.906 411.062C401.312 411.062 404.594 415.312 404.594 422.688C404.594 430.094 401.344 434.312 395.906 434.312ZM395.906 430.906C398.75 430.906 400.5 428.125 400.5 422.688C400.5 417.281 398.719 414.438 395.906 414.438C393.094 414.438 391.312 417.281 391.312 422.688C391.312 428.125 393.062 430.906 395.906 430.906Z" fill="black"/>
<path d="M382.062 411.375V434H377.969V415.344H377.844L372.562 418.719V415L378.156 411.375H382.062Z" fill="black"/>
</g>
<g id="cheongsong_hall_126">
<path d="M948 468C952.418 468 956 464.418 956 460V357C956 352.582 952.418 349 948 349H698C693.582 349 690 352.582 690 357V460C690 464.418 693.582 468 698 468H948Z" fill="#F7FBFF"/>
<path d="M693 357H690V460H693V357ZM698 352H948C950.761 352 953 354.239 953 357V460C953 462.761 950.761 465 948 465H698C695.239 465 693 462.761 693 460H690L690.011 460.412C690.225 464.639 693.72 468 698 468H948C952.418 468 956 464.418 956 460V357C956 352.582 952.418 349 948 349H698C693.582 349 690 352.582 690 357H693C693 354.239 695.239 352 698 352Z" fill="#2E2F33" fill-opacity="0.88"/>
<path d="M840.312 419.312C835.906 419.281 831.469 416.656 831.5 408.312C831.5 400.562 835.031 396.062 840.562 396.062C844.937 396.062 847.937 398.812 848.437 402.469H844.406C844 400.75 842.625 399.594 840.562 399.594C837.281 399.594 835.437 402.5 835.437 407.25H835.656C836.812 405.312 839 404.156 841.469 404.156C845.531 404.156 848.656 407.219 848.656 411.5C848.656 416 845.312 419.344 840.312 419.312ZM840.312 416.031C842.844 416.031 844.719 414.062 844.719 411.594C844.719 409.188 842.875 407.25 840.375 407.25C837.844 407.25 835.906 409.25 835.875 411.625C835.906 414 837.75 416.031 840.312 416.031Z" fill="black"/>
<path d="M812.562 419V416.062L820.562 408.344C822.844 406.062 824.031 404.719 824.031 402.812C824.031 400.719 822.375 399.375 820.156 399.375C817.812 399.375 816.312 400.844 816.344 403.125H812.469C812.437 398.844 815.656 396.062 820.187 396.062C824.812 396.062 827.937 398.812 827.937 402.625C827.937 405.188 826.687 407.25 822.25 411.438L818.219 415.438V415.594H828.281V419H812.562Z" fill="black"/>
<path d="M807.062 396.375V419H802.969V400.344H802.844L797.562 403.719V400L803.156 396.375H807.062Z" fill="black"/>
</g>
<g id="cheongsong_hall_129">
<path d="M691.027 464.704C690.593 465.193 690.5 465.842 690.5 466.496V569.674C690.5 571.81 691.354 573.857 692.872 575.359L788.162 669.697C789.66 671.18 791.682 672.011 793.79 672.011H852.233C854.327 672.011 856.338 671.19 857.833 669.725L954.1 575.364C955.635 573.859 956.5 571.8 956.5 569.651V466.56C956.5 465.864 956.389 465.175 955.902 464.678C952.804 461.52 934.064 450.44 823.5 450.011C712.058 449.58 693.905 461.462 691.027 464.704Z" fill="#F7FBFF"/>
<path d="M852.233 669.012H793.79C792.473 669.012 791.209 668.491 790.272 667.564L694.982 573.228C694.034 572.288 693.5 571.009 693.5 569.674V466.496C693.5 466.486 693.501 466.476 693.501 466.467C694.719 465.348 699.733 461.994 717.073 458.935C735.649 455.657 767.846 452.796 823.488 453.012C878.696 453.226 910.837 456.1 929.497 459.278C938.826 460.867 944.71 462.521 948.39 463.919C951.484 465.095 952.907 466.051 953.499 466.545C953.499 466.55 953.5 466.555 953.5 466.56V569.65L956.5 569.651V466.56C956.5 465.907 956.402 465.261 955.988 464.773L955.902 464.678C952.852 461.569 934.645 450.784 828.615 450.039L823.5 450.011C712.058 449.58 693.905 461.462 691.027 464.704C690.593 465.193 690.5 465.842 690.5 466.496V569.674C690.5 571.81 691.354 573.857 692.872 575.359L788.162 669.697C789.66 671.18 791.682 672.011 793.79 672.011H852.233L852.625 672.002C854.577 671.906 856.431 671.099 857.833 669.725L954.1 575.364L954.38 575.075C955.74 573.601 956.5 571.666 956.5 569.651L953.5 569.65C953.5 570.994 952.959 572.281 952 573.222L855.733 667.582C854.799 668.498 853.542 669.012 852.233 669.012Z" fill="#2E2F33" fill-opacity="0.88"/>
<path d="M836.875 549.062C841.312 549.094 845.688 551.719 845.719 560C845.719 567.812 842.188 572.312 836.625 572.312C832.25 572.312 829.25 569.594 828.75 565.844H832.781C833.188 567.625 834.562 568.781 836.625 568.781C839.906 568.781 841.75 565.875 841.781 561.031H841.531C840.375 563 838.219 564.156 835.719 564.156C831.688 564.156 828.562 561.094 828.531 556.812C828.531 552.375 831.844 549.031 836.875 549.062ZM836.906 552.344C834.375 552.344 832.469 554.312 832.5 556.719C832.5 559.156 834.312 561.062 836.844 561.062C839.344 561.062 841.312 559.031 841.281 556.687C841.281 554.375 839.438 552.344 836.906 552.344Z" fill="black"/>
<path d="M809.562 572V569.062L817.562 561.344C819.844 559.062 821.031 557.719 821.031 555.812C821.031 553.719 819.375 552.375 817.156 552.375C814.812 552.375 813.312 553.844 813.344 556.125H809.469C809.437 551.844 812.656 549.062 817.187 549.062C821.812 549.062 824.937 551.812 824.937 555.625C824.937 558.188 823.687 560.25 819.25 564.438L815.219 568.438V568.594H825.281V572H809.562Z" fill="black"/>
<path d="M804.062 549.375V572H799.969V553.344H799.844L794.562 556.719V553L800.156 549.375H804.062Z" fill="black"/>
</g>
<g id="cheongsong_hall_101">
<path d="M421 871C421 875.418 424.582 879 429 879H641.663C643.798 879 645.845 878.146 647.348 876.628L741.685 781.338C743.168 779.84 744 777.818 744 775.71V717.267C744 715.173 743.179 713.162 741.713 711.667L647.352 615.4C645.848 613.865 643.789 613 641.639 613H429C424.582 613 421 616.582 421 621V871Z" fill="#F7FBFF"/>
<path d="M421 621V871C421 875.418 424.582 879 429 879H641.663L642.062 878.99C644.052 878.891 645.939 878.051 647.348 876.628L741.685 781.338C743.168 779.84 744 777.818 744 775.71V717.267L743.99 716.875C743.895 714.923 743.087 713.069 741.713 711.667L647.352 615.4L647.064 615.12C645.689 613.851 643.911 613.104 642.041 613.01L641.639 613L641.64 616C642.983 616 644.27 616.541 645.21 617.5L739.57 713.767C740.486 714.701 741 715.958 741 717.267V775.71C741 777.027 740.48 778.291 739.554 779.228L645.216 874.518C644.277 875.466 642.998 876 641.663 876H429C426.239 876 424 873.761 424 871V621C424 618.239 426.239 616 429 616L429 613L428.588 613.011C424.361 613.225 421 616.72 421 621ZM641.64 616L641.639 613H429L429 616H641.64Z" fill="#2E2F33" fill-opacity="0.88"/>
<path d="M603.188 734.375V757H599.094V738.344H598.969L593.688 741.719V738L599.281 734.375H603.188Z" fill="black"/>
<path d="M581.906 757.312C576.469 757.312 573.219 753.094 573.219 745.688C573.219 738.312 576.469 734.062 581.906 734.062C587.312 734.062 590.594 738.312 590.594 745.688C590.594 753.094 587.344 757.312 581.906 757.312ZM581.906 753.906C584.75 753.906 586.5 751.125 586.5 745.688C586.5 740.281 584.719 737.438 581.906 737.438C579.094 737.438 577.312 740.281 577.312 745.688C577.312 751.125 579.062 753.906 581.906 753.906Z" fill="black"/>
<path d="M568.062 734.375V757H563.969V738.344H563.844L558.562 741.719V738L564.156 734.375H568.062Z" fill="black"/>
</g>
<g id="cheongsong_hall_185">
<path d="M1107.31 614.527C1106.82 614.093 1106.17 614 1105.52 614H1002.34C1000.2 614 998.155 614.854 996.652 616.372L902.315 711.662C900.832 713.16 900 715.182 900 717.29V775.733C900 777.827 900.821 779.838 902.287 781.333L996.648 877.6C998.152 879.135 1000.21 880 1002.36 880H1105.45C1106.15 880 1106.84 879.889 1107.33 879.402C1110.49 876.304 1121.57 857.564 1122 747C1122.43 635.558 1110.55 617.405 1107.31 614.527Z" fill="#F7FBFF"/>
<path d="M903 775.733V717.29C903 715.973 903.52 714.709 904.447 713.772L998.784 618.482C999.723 617.534 1001 617 1002.34 617H1105.52C1105.53 617 1105.54 617.001 1105.54 617.001C1106.66 618.219 1110.02 623.233 1113.08 640.573C1116.35 659.149 1119.22 691.346 1119 746.988C1118.79 802.196 1115.91 834.337 1112.73 852.997C1111.14 862.326 1109.49 868.21 1108.09 871.89C1106.92 874.984 1105.96 876.407 1105.47 876.999C1105.46 876.999 1105.46 877 1105.45 877H1002.36L1002.36 880H1105.45C1106.1 880 1106.75 879.902 1107.24 879.488L1107.33 879.402C1110.44 876.352 1121.23 858.145 1121.97 752.115L1122 747C1122.43 635.558 1110.55 617.405 1107.31 614.527C1106.82 614.093 1106.17 614 1105.52 614H1002.34C1000.2 614 998.155 614.854 996.652 616.372L902.315 711.662C900.832 713.16 900 715.182 900 717.29V775.733L900.01 776.125C900.105 778.077 900.913 779.931 902.287 781.333L996.648 877.6L996.937 877.88C998.41 879.24 1000.35 880 1002.36 880L1002.36 877C1001.02 877 999.73 876.459 998.79 875.5L904.43 779.233C903.514 778.299 903 777.042 903 775.733Z" fill="#2E2F33" fill-opacity="0.88"/>
<path d="M1028.78 758.312C1024.25 758.312 1020.94 755.625 1020.81 751.875H1024.78C1024.91 753.719 1026.62 755.031 1028.78 755.031C1031.31 755.031 1033.12 753.188 1033.12 750.688C1033.12 748.094 1031.25 746.25 1028.66 746.25C1026.91 746.219 1025.62 746.844 1024.91 748.188H1021.12L1022.5 735.375H1035.87V738.781H1025.84L1025.16 744.781H1025.37C1026.25 743.781 1027.91 743.062 1029.75 743.062C1033.97 743.062 1037.06 746.219 1037.06 750.562C1037.06 755.094 1033.66 758.312 1028.78 758.312Z" fill="black"/>
<path d="M1008.78 758.312C1003.75 758.312 1000.19 755.625 1000.19 751.938C1000.19 749.062 1002.31 746.719 1005.03 746.281V746.156C1002.66 745.656 1001.03 743.594 1001.03 741.125C1001.03 737.625 1004.31 735.062 1008.78 735.062C1013.22 735.062 1016.5 737.625 1016.5 741.125C1016.5 743.594 1014.84 745.656 1012.5 746.156V746.281C1015.22 746.719 1017.37 749.062 1017.37 751.938C1017.37 755.625 1013.78 758.312 1008.78 758.312ZM1008.78 755.094C1011.44 755.094 1013.19 753.656 1013.19 751.562C1013.19 749.438 1011.31 747.875 1008.78 747.875C1006.22 747.875 1004.34 749.438 1004.37 751.562C1004.34 753.656 1006.09 755.094 1008.78 755.094ZM1008.78 744.844C1010.97 744.844 1012.53 743.469 1012.53 741.5C1012.53 739.594 1011 738.25 1008.78 738.25C1006.53 738.25 1005 739.562 1005 741.5C1005 743.469 1006.56 744.844 1008.78 744.844Z" fill="black"/>
<path d="M995.062 735.375V758H990.969V739.344H990.844L985.562 742.719V739L991.156 735.375H995.062Z" fill="black"/>
</g>
<g id="cheongsong_hall_182">
<path d="M1103 873C1103 877.418 1106.58 881 1111 881H1214C1218.42 881 1222 877.418 1222 873V623C1222 618.582 1218.42 615 1214 615H1111C1106.58 615 1103 618.582 1103 623V873Z" fill="#F7FBFF"/>
<path d="M1214 618V615H1111L1111 618H1214ZM1219 623V873C1219 875.761 1216.76 878 1214 878H1111C1108.24 878 1106 875.761 1106 873V623C1106 620.239 1108.24 618 1111 618L1111 615L1110.59 615.011C1106.36 615.225 1103 618.72 1103 623V873C1103 877.418 1106.58 881 1111 881H1214C1218.42 881 1222 877.418 1222 873V623C1222 618.582 1218.42 615 1214 615V618C1216.76 618 1219 620.239 1219 623Z" fill="#2E2F33" fill-opacity="0.88"/>
<path d="M1171.75 759V756.062L1179.75 748.344C1182.03 746.062 1183.22 744.719 1183.22 742.812C1183.22 740.719 1181.56 739.375 1179.34 739.375C1177 739.375 1175.5 740.844 1175.53 743.125H1171.66C1171.62 738.844 1174.84 736.062 1179.37 736.062C1184 736.062 1187.12 738.812 1187.12 742.625C1187.12 745.188 1185.87 747.25 1181.44 751.438L1177.41 755.438V755.594H1187.47V759H1171.75Z" fill="black"/>
<path d="M1159.78 759.312C1154.75 759.312 1151.19 756.625 1151.19 752.938C1151.19 750.062 1153.31 747.719 1156.03 747.281V747.156C1153.66 746.656 1152.03 744.594 1152.03 742.125C1152.03 738.625 1155.31 736.062 1159.78 736.062C1164.22 736.062 1167.5 738.625 1167.5 742.125C1167.5 744.594 1165.84 746.656 1163.5 747.156V747.281C1166.22 747.719 1168.38 750.062 1168.38 752.938C1168.38 756.625 1164.78 759.312 1159.78 759.312ZM1159.78 756.094C1162.44 756.094 1164.19 754.656 1164.19 752.562C1164.19 750.438 1162.31 748.875 1159.78 748.875C1157.22 748.875 1155.34 750.438 1155.38 752.562C1155.34 754.656 1157.09 756.094 1159.78 756.094ZM1159.78 745.844C1161.97 745.844 1163.53 744.469 1163.53 742.5C1163.53 740.594 1162 739.25 1159.78 739.25C1157.53 739.25 1156 740.562 1156 742.5C1156 744.469 1157.56 745.844 1159.78 745.844Z" fill="black"/>
<path d="M1146.06 736.375V759H1141.97V740.344H1141.84L1136.56 743.719V740L1142.16 736.375H1146.06Z" fill="black"/>
</g>
<g id="cheongsong_hall_152">
<path d="M949.473 1029.31C949.907 1028.82 950 1028.17 950 1027.52V924.337C950 922.202 949.146 920.155 947.628 918.652L852.338 824.315C850.84 822.832 848.818 822 846.71 822H788.267C786.173 822 784.162 822.821 782.667 824.287L686.4 918.648C684.865 920.152 684 922.211 684 924.361V1027.45C684 1028.15 684.111 1028.84 684.598 1029.33C687.696 1032.49 706.436 1043.57 817 1044C928.442 1044.43 946.595 1032.55 949.473 1029.31Z" fill="#F7FBFF"/>
<path d="M788.267 825H846.71C848.027 825 849.291 825.52 850.228 826.447L945.518 920.784C946.466 921.723 947 923.003 947 924.338V1027.52C947 1027.53 946.999 1027.54 946.999 1027.54C945.781 1028.66 940.767 1032.02 923.427 1035.08C904.851 1038.35 872.654 1041.22 817.012 1041C761.804 1040.79 729.663 1037.91 711.003 1034.73C701.674 1033.14 695.79 1031.49 692.11 1030.09C689.016 1028.92 687.593 1027.96 687.001 1027.47C687.001 1027.46 687 1027.46 687 1027.45V924.361L684 924.361V1027.45C684 1028.1 684.098 1028.75 684.512 1029.24L684.598 1029.33C687.648 1032.44 705.855 1043.23 811.885 1043.97L817 1044C928.442 1044.43 946.595 1032.55 949.473 1029.31C949.907 1028.82 950 1028.17 950 1027.52V924.337C950 922.202 949.146 920.155 947.628 918.652L852.338 824.315C850.84 822.832 848.818 822 846.71 822H788.267L787.875 822.01C785.923 822.105 784.069 822.913 782.667 824.287L686.4 918.648L686.12 918.937C684.76 920.41 684 922.346 684 924.361L687 924.361C687 923.018 687.541 921.73 688.5 920.79L784.767 826.43C785.701 825.514 786.958 825 788.267 825Z" fill="#2E2F33" fill-opacity="0.88"/>
<path d="M826.312 944V941.062L834.312 933.344C836.594 931.062 837.781 929.719 837.781 927.812C837.781 925.719 836.125 924.375 833.906 924.375C831.562 924.375 830.062 925.844 830.094 928.125H826.219C826.187 923.844 829.406 921.062 833.937 921.062C838.562 921.062 841.687 923.812 841.687 927.625C841.687 930.187 840.437 932.25 836 936.437L831.969 940.437V940.594H842.031V944H826.312Z" fill="black"/>
<path d="M814.594 944.312C810.062 944.312 806.75 941.625 806.625 937.875H810.594C810.719 939.719 812.438 941.031 814.594 941.031C817.125 941.031 818.938 939.187 818.938 936.687C818.938 934.094 817.062 932.25 814.469 932.25C812.719 932.219 811.438 932.844 810.719 934.187H806.938L808.312 921.375H821.688V924.781H811.656L810.969 930.781H811.188C812.062 929.781 813.719 929.062 815.562 929.062C819.781 929.062 822.875 932.219 822.875 936.562C822.875 941.094 819.469 944.312 814.594 944.312Z" fill="black"/>
<path d="M801.062 921.375V944H796.969V925.344H796.844L791.562 928.719V925L797.156 921.375H801.062Z" fill="black"/>
</g>
<g id="cheongsong_hall_153">
<path d="M684 1137C684 1141.42 687.582 1145 692 1145H942C946.418 1145 950 1141.42 950 1137V1036C950 1031.58 946.418 1028 942 1028H757C752.582 1028 749 1031.58 749 1036V1078.5C749 1082.92 745.418 1086.5 741 1086.5H692C687.582 1086.5 684 1090.08 684 1094.5V1137Z" fill="#F7FBFF"/>
<path d="M749 1036V1078.5C749 1082.92 745.418 1086.5 741 1086.5V1089.5C747.075 1089.5 752 1084.58 752 1078.5V1036C752 1033.24 754.239 1031 757 1031V1028C752.582 1028 749 1031.58 749 1036ZM942 1031V1028H757V1031H942ZM947 1036V1137C947 1139.76 944.761 1142 942 1142H692C689.239 1142 687 1139.76 687 1137V1094.5C687 1091.74 689.239 1089.5 692 1089.5L692 1086.5L691.588 1086.51C687.361 1086.73 684 1090.22 684 1094.5V1137C684 1141.42 687.582 1145 692 1145H942C946.418 1145 950 1141.42 950 1137V1036C950 1031.58 946.418 1028 942 1028V1031C944.761 1031 947 1033.24 947 1036ZM741 1089.5V1086.5H692L692 1089.5H741Z" fill="#2E2F33" fill-opacity="0.88"/>
<path d="M834.531 1097.31C829.688 1097.31 826.25 1094.69 826.156 1090.88H830.25C830.375 1092.69 832.188 1093.88 834.531 1093.88C837.031 1093.88 838.812 1092.5 838.812 1090.5C838.812 1088.47 837.062 1087 834.125 1087H832.094V1083.88H834.125C836.531 1083.88 838.219 1082.53 838.188 1080.56C838.219 1078.66 836.781 1077.38 834.562 1077.38C832.438 1077.38 830.594 1078.56 830.531 1080.47H826.625C826.719 1076.66 830.156 1074.06 834.594 1074.06C839.188 1074.06 842.156 1076.88 842.125 1080.34C842.156 1082.88 840.469 1084.72 838 1085.22V1085.41C841.188 1085.84 843 1087.88 842.969 1090.72C843 1094.53 839.438 1097.31 834.531 1097.31Z" fill="black"/>
<path d="M814.594 1097.31C810.062 1097.31 806.75 1094.62 806.625 1090.88H810.594C810.719 1092.72 812.438 1094.03 814.594 1094.03C817.125 1094.03 818.938 1092.19 818.938 1089.69C818.938 1087.09 817.062 1085.25 814.469 1085.25C812.719 1085.22 811.438 1085.84 810.719 1087.19H806.938L808.312 1074.38H821.688V1077.78H811.656L810.969 1083.78H811.188C812.062 1082.78 813.719 1082.06 815.562 1082.06C819.781 1082.06 822.875 1085.22 822.875 1089.56C822.875 1094.09 819.469 1097.31 814.594 1097.31Z" fill="black"/>
<path d="M801.062 1074.38V1097H796.969V1078.34H796.844L791.562 1081.72V1078L797.156 1074.38H801.062Z" fill="black"/>
</g>
<g id="cheongsong_hall_178">
<path d="M1144 1138C1144 1142.42 1147.58 1146 1152 1146H1313C1317.42 1146 1321 1142.42 1321 1138V1004C1321 999.582 1317.42 996 1313 996H1152C1147.58 996 1144 999.582 1144 1004V1138Z" fill="#F7FBFF"/>
<path d="M1313 999V996H1152L1152 999H1313ZM1318 1004V1138C1318 1140.76 1315.76 1143 1313 1143H1152C1149.24 1143 1147 1140.76 1147 1138V1004C1147 1001.24 1149.24 999 1152 999L1152 996L1151.59 996.011C1147.36 996.225 1144 999.72 1144 1004V1138C1144 1142.42 1147.58 1146 1152 1146H1313C1317.42 1146 1321 1142.42 1321 1138V1004C1321 999.582 1317.42 996 1313 996V999C1315.76 999 1318 1001.24 1318 1004Z" fill="#2E2F33" fill-opacity="0.88"/>
<path d="M1248.5 1082.31C1243.47 1082.31 1239.91 1079.62 1239.91 1075.94C1239.91 1073.06 1242.03 1070.72 1244.75 1070.28V1070.16C1242.38 1069.66 1240.75 1067.59 1240.75 1065.12C1240.75 1061.62 1244.03 1059.06 1248.5 1059.06C1252.94 1059.06 1256.22 1061.62 1256.22 1065.12C1256.22 1067.59 1254.56 1069.66 1252.22 1070.16V1070.28C1254.94 1070.72 1257.09 1073.06 1257.09 1075.94C1257.09 1079.62 1253.5 1082.31 1248.5 1082.31ZM1248.5 1079.09C1251.16 1079.09 1252.91 1077.66 1252.91 1075.56C1252.91 1073.44 1251.03 1071.88 1248.5 1071.88C1245.94 1071.88 1244.06 1073.44 1244.09 1075.56C1244.06 1077.66 1245.81 1079.09 1248.5 1079.09ZM1248.5 1068.84C1250.69 1068.84 1252.25 1067.47 1252.25 1065.5C1252.25 1063.59 1250.72 1062.25 1248.5 1062.25C1246.25 1062.25 1244.72 1063.56 1244.72 1065.5C1244.72 1067.47 1246.28 1068.84 1248.5 1068.84Z" fill="black"/>
<path d="M1223.41 1082L1233.22 1062.94V1062.78H1221.84V1059.38H1237.44V1062.84L1227.62 1082H1223.41Z" fill="black"/>
<path d="M1217.06 1059.38V1082H1212.97V1063.34H1212.84L1207.56 1066.72V1063L1213.16 1059.38H1217.06Z" fill="black"/>
</g>
<g id="cheongsong_hall_158">
<path d="M1082 1327C1082 1331.42 1085.58 1335 1090 1335H1144C1148.42 1335 1152 1331.42 1152 1327V1151C1152 1146.58 1148.42 1143 1144 1143H1090C1085.58 1143 1082 1146.58 1082 1151V1327Z" fill="#F7FBFF"/>
<path d="M1144 1146V1143H1090L1090 1146H1144ZM1149 1151V1327C1149 1329.76 1146.76 1332 1144 1332H1090C1087.24 1332 1085 1329.76 1085 1327V1151C1085 1148.24 1087.24 1146 1090 1146L1090 1143L1089.59 1143.01C1085.36 1143.23 1082 1146.72 1082 1151V1327C1082 1331.42 1085.58 1335 1090 1335H1144C1148.42 1335 1152 1331.42 1152 1327V1151C1152 1146.58 1148.42 1143 1144 1143V1146C1146.76 1146 1149 1148.24 1149 1151Z" fill="#2E2F33" fill-opacity="0.88"/>
<path d="M1133.53 1250.31C1128.5 1250.31 1124.94 1247.62 1124.94 1243.94C1124.94 1241.06 1127.06 1238.72 1129.78 1238.28V1238.16C1127.41 1237.66 1125.78 1235.59 1125.78 1233.12C1125.78 1229.62 1129.06 1227.06 1133.53 1227.06C1137.97 1227.06 1141.25 1229.62 1141.25 1233.12C1141.25 1235.59 1139.59 1237.66 1137.25 1238.16V1238.28C1139.97 1238.72 1142.12 1241.06 1142.12 1243.94C1142.12 1247.62 1138.53 1250.31 1133.53 1250.31ZM1133.53 1247.09C1136.19 1247.09 1137.94 1245.66 1137.94 1243.56C1137.94 1241.44 1136.06 1239.88 1133.53 1239.88C1130.97 1239.88 1129.09 1241.44 1129.12 1243.56C1129.09 1245.66 1130.84 1247.09 1133.53 1247.09ZM1133.53 1236.84C1135.72 1236.84 1137.28 1235.47 1137.28 1233.5C1137.28 1231.59 1135.75 1230.25 1133.53 1230.25C1131.28 1230.25 1129.75 1231.56 1129.75 1233.5C1129.75 1235.47 1131.31 1236.84 1133.53 1236.84Z" fill="black"/>
<path d="M1113.59 1250.31C1109.06 1250.31 1105.75 1247.62 1105.62 1243.88H1109.59C1109.72 1245.72 1111.44 1247.03 1113.59 1247.03C1116.12 1247.03 1117.94 1245.19 1117.94 1242.69C1117.94 1240.09 1116.06 1238.25 1113.47 1238.25C1111.72 1238.22 1110.44 1238.84 1109.72 1240.19H1105.94L1107.31 1227.38H1120.69V1230.78H1110.66L1109.97 1236.78H1110.19C1111.06 1235.78 1112.72 1235.06 1114.56 1235.06C1118.78 1235.06 1121.88 1238.22 1121.88 1242.56C1121.88 1247.09 1118.47 1250.31 1113.59 1250.31Z" fill="black"/>
<path d="M1100.06 1227.38V1250H1095.97V1231.34H1095.84L1090.56 1234.72V1231L1096.16 1227.38H1100.06Z" fill="black"/>
</g>
<g id="cheongsong_hall_157">
<path d="M1011 1327C1011 1331.42 1014.58 1335 1019 1335H1077C1081.42 1335 1085 1331.42 1085 1327V1193C1085 1188.58 1081.42 1185 1077 1185H1019C1014.58 1185 1011 1188.58 1011 1193V1327Z" fill="#F7FBFF"/>
<path d="M1077 1188V1185H1019L1019 1188H1077ZM1082 1193V1327C1082 1329.76 1079.76 1332 1077 1332H1019C1016.24 1332 1014 1329.76 1014 1327V1193C1014 1190.24 1016.24 1188 1019 1188L1019 1185L1018.59 1185.01C1014.36 1185.23 1011 1188.72 1011 1193V1327C1011 1331.42 1014.58 1335 1019 1335H1077C1081.42 1335 1085 1331.42 1085 1327V1193C1085 1188.58 1081.42 1185 1077 1185V1188C1079.76 1188 1082 1190.24 1082 1193Z" fill="#2E2F33" fill-opacity="0.88"/>
<path d="M1058.16 1271L1067.97 1251.94V1251.78H1056.59V1248.38H1072.19V1251.84L1062.38 1271H1058.16Z" fill="black"/>
<path d="M1045.59 1271.31C1041.06 1271.31 1037.75 1268.62 1037.62 1264.88H1041.59C1041.72 1266.72 1043.44 1268.03 1045.59 1268.03C1048.12 1268.03 1049.94 1266.19 1049.94 1263.69C1049.94 1261.09 1048.06 1259.25 1045.47 1259.25C1043.72 1259.22 1042.44 1259.84 1041.72 1261.19H1037.94L1039.31 1248.38H1052.69V1251.78H1042.66L1041.97 1257.78H1042.19C1043.06 1256.78 1044.72 1256.06 1046.56 1256.06C1050.78 1256.06 1053.88 1259.22 1053.88 1263.56C1053.88 1268.09 1050.47 1271.31 1045.59 1271.31Z" fill="black"/>
<path d="M1032.06 1248.38V1271H1027.97V1252.34H1027.84L1022.56 1255.72V1252L1028.16 1248.38H1032.06Z" fill="black"/>
</g>
<g id="cheongsong_hall_151">
<path d="M684 1081C684 1085.42 687.582 1089 692 1089H744C748.418 1089 752 1085.42 752 1081V1032C752 1027.58 748.418 1024 744 1024H692C687.582 1024 684 1027.58 684 1032V1081Z" fill="#F7FBFF"/>
<path d="M744 1027V1024H692L692 1027H744ZM749 1032V1081C749 1083.76 746.761 1086 744 1086H692C689.239 1086 687 1083.76 687 1081V1032C687 1029.24 689.239 1027 692 1027L692 1024L691.588 1024.01C687.498 1024.22 684.218 1027.5 684.011 1031.59L684 1032V1081C684 1085.42 687.582 1089 692 1089H744C748.418 1089 752 1085.42 752 1081V1032L751.989 1031.59C751.775 1027.36 748.28 1024 744 1024V1027C746.761 1027 749 1029.24 749 1032Z" fill="#2E2F33" fill-opacity="0.88"/>
<path d="M732.125 1052.03V1069H729.055V1055.01H728.961L725 1057.54V1054.75L729.195 1052.03H732.125Z" fill="black"/>
<path d="M716.445 1069.23C713.047 1069.23 710.562 1067.22 710.469 1064.41H713.445C713.539 1065.79 714.828 1066.77 716.445 1066.77C718.344 1066.77 719.703 1065.39 719.703 1063.52C719.703 1061.57 718.297 1060.19 716.352 1060.19C715.039 1060.16 714.078 1060.63 713.539 1061.64H710.703L711.734 1052.03H721.766V1054.59H714.242L713.727 1059.09H713.891C714.547 1058.34 715.789 1057.8 717.172 1057.8C720.336 1057.8 722.656 1060.16 722.656 1063.42C722.656 1066.82 720.102 1069.23 716.445 1069.23Z" fill="black"/>
<path d="M706.297 1052.03V1069H703.227V1055.01H703.133L699.172 1057.54V1054.75L703.367 1052.03H706.297Z" fill="black"/>
</g>
<g id="cheongsong_hall_112">
<path d="M94 301C94 305.418 97.5817 309 102 309H158C162.418 309 166 305.418 166 301V228C166 223.582 162.418 220 158 220H102C97.5817 220 94 223.582 94 228V301Z" fill="#F7FBFF"/>
<path d="M158 223V220H102L102 223H158ZM163 228V301C163 303.761 160.761 306 158 306H102C99.2386 306 97 303.761 97 301V228C97 225.239 99.2386 223 102 223L102 220L101.588 220.011C97.3611 220.225 94 223.72 94 228V301C94 305.418 97.5817 309 102 309H158C162.418 309 166 305.418 166 301V228C166 223.582 162.418 220 158 220V223C160.761 223 163 225.239 163 228Z" fill="#2E2F33" fill-opacity="0.88"/>
<path d="M137.25 275V272.062L145.25 264.344C147.531 262.062 148.719 260.719 148.719 258.812C148.719 256.719 147.062 255.375 144.844 255.375C142.5 255.375 141 256.844 141.031 259.125H137.156C137.125 254.844 140.344 252.062 144.875 252.062C149.5 252.062 152.625 254.812 152.625 258.625C152.625 261.188 151.375 263.25 146.937 267.438L142.906 271.438V271.594H152.969V275H137.25Z" fill="black"/>
<path d="M131.75 252.375V275H127.656V256.344H127.531L122.25 259.719V256L127.844 252.375H131.75Z" fill="black"/>
<path d="M117.062 252.375V275H112.969V256.344H112.844L107.562 259.719V256L113.156 252.375H117.062Z" fill="black"/>
</g>
<g id="cheongsong_hall_113">
<path d="M163 301C163 305.418 166.582 309 171 309H227C231.418 309 235 305.418 235 301V228C235 223.582 231.418 220 227 220H171C166.582 220 163 223.582 163 228V301Z" fill="#F7FBFF"/>
<path d="M227 223V220H171L171 223H227ZM232 228V301C232 303.761 229.761 306 227 306H171C168.239 306 166 303.761 166 301V228C166 225.239 168.239 223 171 223L171 220L170.588 220.011C166.361 220.225 163 223.72 163 228V301C163 305.418 166.582 309 171 309H227C231.418 309 235 305.418 235 301V228C235 223.582 231.418 220 227 220V223C229.761 223 232 225.239 232 228Z" fill="#2E2F33" fill-opacity="0.88"/>
<path d="M213.469 275.312C208.625 275.312 205.188 272.688 205.094 268.875H209.188C209.312 270.688 211.125 271.875 213.469 271.875C215.969 271.875 217.75 270.5 217.75 268.5C217.75 266.469 216 265 213.062 265H211.031V261.875H213.062C215.469 261.875 217.156 260.531 217.125 258.562C217.156 256.656 215.719 255.375 213.5 255.375C211.375 255.375 209.531 256.562 209.469 258.469H205.562C205.656 254.656 209.094 252.062 213.531 252.062C218.125 252.062 221.094 254.875 221.062 258.344C221.094 260.875 219.406 262.719 216.938 263.219V263.406C220.125 263.844 221.938 265.875 221.906 268.719C221.938 272.531 218.375 275.312 213.469 275.312Z" fill="black"/>
<path d="M199.75 252.375V275H195.656V256.344H195.531L190.25 259.719V256L195.844 252.375H199.75Z" fill="black"/>
<path d="M185.062 252.375V275H180.969V256.344H180.844L175.562 259.719V256L181.156 252.375H185.062Z" fill="black"/>
</g>
<g id="cheongsong_hall_114">
<path d="M232 301C232 305.418 235.582 309 240 309H296C300.418 309 304 305.418 304 301V228C304 223.582 300.418 220 296 220H240C235.582 220 232 223.582 232 228V301Z" fill="#F7FBFF"/>
<path d="M296 223V220H240L240 223H296ZM301 228V301C301 303.761 298.761 306 296 306H240C237.239 306 235 303.761 235 301V228C235 225.239 237.239 223 240 223L240 220L239.588 220.011C235.361 220.225 232 223.72 232 228V301C232 305.418 235.582 309 240 309H296C300.418 309 304 305.418 304 301V228C304 223.582 300.418 220 296 220V223C298.761 223 301 225.239 301 228Z" fill="#2E2F33" fill-opacity="0.88"/>
<path d="M273.844 270.781V267.531L283.625 252.375H288.688V267.438H291.656V270.781H288.688V275H284.812V270.781H273.844ZM278 267.438H284.875V257H284.625L278 267.281V267.438Z" fill="black"/>
<path d="M268.75 252.375V275H264.656V256.344H264.531L259.25 259.719V256L264.844 252.375H268.75Z" fill="black"/>
<path d="M254.062 252.375V275H249.969V256.344H249.844L244.562 259.719V256L250.156 252.375H254.062Z" fill="black"/>
</g>
<g id="cheongsong_hall_115">
<path d="M301 301C301 305.418 304.582 309 309 309H365C369.418 309 373 305.418 373 301V228C373 223.582 369.418 220 365 220H309C304.582 220 301 223.582 301 228V301Z" fill="#F7FBFF"/>
<path d="M365 223V220H309L309 223H365ZM370 228V301C370 303.761 367.761 306 365 306H309C306.239 306 304 303.761 304 301V228C304 225.239 306.239 223 309 223L309 220L308.588 220.011C304.361 220.225 301 223.72 301 228V301C301 305.418 304.582 309 309 309H365C369.418 309 373 305.418 373 301V228C373 223.582 369.418 220 365 220V223C367.761 223 370 225.239 370 228Z" fill="#2E2F33" fill-opacity="0.88"/>
<path d="M351.281 275.312C346.75 275.312 343.438 272.625 343.312 268.875H347.281C347.406 270.719 349.125 272.031 351.281 272.031C353.812 272.031 355.625 270.188 355.625 267.688C355.625 265.094 353.75 263.25 351.156 263.25C349.406 263.219 348.125 263.844 347.406 265.188H343.625L345 252.375H358.375V255.781H348.344L347.656 261.781H347.875C348.75 260.781 350.406 260.062 352.25 260.062C356.469 260.062 359.562 263.219 359.562 267.562C359.562 272.094 356.156 275.312 351.281 275.312Z" fill="black"/>
<path d="M337.75 252.375V275H333.656V256.344H333.531L328.25 259.719V256L333.844 252.375H337.75Z" fill="black"/>
<path d="M323.062 252.375V275H318.969V256.344H318.844L313.562 259.719V256L319.156 252.375H323.062Z" fill="black"/>
</g>
<g id="cheongsong_hall_116">
<path d="M370 301C370 305.418 373.582 309 378 309H434C438.418 309 442 305.418 442 301V228C442 223.582 438.418 220 434 220H378C373.582 220 370 223.582 370 228V301Z" fill="#F7FBFF"/>
<path d="M434 223V220H378L378 223H434ZM439 228V301C439 303.761 436.761 306 434 306H378C375.239 306 373 303.761 373 301V228C373 225.239 375.239 223 378 223L378 220L377.588 220.011C373.361 220.225 370 223.72 370 228V301C370 305.418 373.582 309 378 309H434C438.418 309 442 305.418 442 301V228C442 223.582 438.418 220 434 220V223C436.761 223 439 225.239 439 228Z" fill="#2E2F33" fill-opacity="0.88"/>
<path d="M420.719 275.312C416.313 275.281 411.875 272.656 411.906 264.312C411.906 256.562 415.438 252.062 420.969 252.062C425.344 252.062 428.344 254.812 428.844 258.469H424.813C424.406 256.75 423.031 255.594 420.969 255.594C417.688 255.594 415.844 258.5 415.844 263.25H416.063C417.219 261.312 419.406 260.156 421.875 260.156C425.938 260.156 429.063 263.219 429.063 267.5C429.063 272 425.719 275.344 420.719 275.312ZM420.719 272.031C423.25 272.031 425.125 270.062 425.125 267.594C425.125 265.188 423.281 263.25 420.781 263.25C418.25 263.25 416.313 265.25 416.281 267.625C416.313 270 418.156 272.031 420.719 272.031Z" fill="black"/>
<path d="M406.75 252.375V275H402.656V256.344H402.531L397.25 259.719V256L402.844 252.375H406.75Z" fill="black"/>
<path d="M392.062 252.375V275H387.969V256.344H387.844L382.562 259.719V256L388.156 252.375H392.062Z" fill="black"/>
</g>
<g id="cheongsong_hall_117">
<path d="M440 301C440 305.418 443.582 309 448 309H501C505.418 309 509 305.418 509 301V188C509 183.582 505.418 180 501 180H448C443.582 180 440 183.582 440 188V301Z" fill="#F7FBFF"/>
<path d="M501 183V180H448L448 183H501ZM506 188V301C506 303.761 503.761 306 501 306H448C445.239 306 443 303.761 443 301V188C443 185.239 445.239 183 448 183L448 180L447.588 180.011C443.361 180.225 440 183.72 440 188V301C440 305.418 443.582 309 448 309H501C505.418 309 509 305.418 509 301V188C509 183.582 505.418 180 501 180V183C503.761 183 506 185.239 506 188Z" fill="#2E2F33" fill-opacity="0.88"/>
<path d="M482.094 255L491.906 235.938V235.781H480.531V232.375H496.125V235.844L486.312 255H482.094Z" fill="black"/>
<path d="M475.75 232.375V255H471.656V236.344H471.531L466.25 239.719V236L471.844 232.375H475.75Z" fill="black"/>
<path d="M461.062 232.375V255H456.969V236.344H456.844L451.562 239.719V236L457.156 232.375H461.062Z" fill="black"/>
</g>
<g id="cheongsong_hall_118">
<path d="M505 301C505 305.418 508.582 309 513 309H636C640.418 309 644 305.418 644 301V188C644 183.582 640.418 180 636 180H513C508.582 180 505 183.582 505 188V301Z" fill="#F7FBFF"/>
<path d="M636 183V180H513L513 183H636ZM641 188V301C641 303.761 638.761 306 636 306H513C510.239 306 508 303.761 508 301V188C508 185.239 510.239 183 513 183L513 180L512.588 180.011C508.361 180.225 505 183.72 505 188V301C505 305.28 508.361 308.775 512.588 308.989L513 309H636C640.418 309 644 305.418 644 301V188C644 183.582 640.418 180 636 180V183C638.761 183 641 185.239 641 188Z" fill="#2E2F33" fill-opacity="0.88"/>
<path d="M589.469 255.312C584.438 255.312 580.875 252.625 580.875 248.938C580.875 246.062 583 243.719 585.719 243.281V243.156C583.344 242.656 581.719 240.594 581.719 238.125C581.719 234.625 585 232.062 589.469 232.062C593.906 232.062 597.188 234.625 597.188 238.125C597.188 240.594 595.531 242.656 593.188 243.156V243.281C595.906 243.719 598.062 246.062 598.062 248.938C598.062 252.625 594.469 255.312 589.469 255.312ZM589.469 252.094C592.125 252.094 593.875 250.656 593.875 248.562C593.875 246.438 592 244.875 589.469 244.875C586.906 244.875 585.031 246.438 585.062 248.562C585.031 250.656 586.781 252.094 589.469 252.094ZM589.469 241.844C591.656 241.844 593.219 240.469 593.219 238.5C593.219 236.594 591.688 235.25 589.469 235.25C587.219 235.25 585.688 236.562 585.688 238.5C585.688 240.469 587.25 241.844 589.469 241.844Z" fill="black"/>
<path d="M575.75 232.375V255H571.656V236.344H571.531L566.25 239.719V236L571.844 232.375H575.75Z" fill="black"/>
<path d="M561.062 232.375V255H556.969V236.344H556.844L551.562 239.719V236L557.156 232.375H561.062Z" fill="black"/>
</g>
<g id="cheongsong_hall_120">
<path d="M632 120C632 124.418 635.582 128 640 128H706C710.418 128 714 124.418 714 120V14C714 9.58172 710.418 6 706 6H640C635.582 6 632 9.58172 632 14V120Z" fill="#F7FBFF"/>
<path d="M706 9V6H640L640 9H706ZM711 14V120C711 122.761 708.761 125 706 125H640C637.239 125 635 122.761 635 120V14C635 11.2386 637.239 9 640 9L640 6C635.582 6 632 9.58172 632 14V120C632 124.28 635.361 127.775 639.588 127.989L640 128H706C710.418 128 714 124.418 714 120V14C714 9.58172 710.418 6 706 6V9C708.761 9 711 11.2386 711 14Z" fill="#2E2F33" fill-opacity="0.88"/>
<path d="M690.188 78.3125C684.75 78.3125 681.5 74.0938 681.5 66.6875C681.5 59.3125 684.75 55.0625 690.188 55.0625C695.594 55.0625 698.875 59.3125 698.875 66.6875C698.875 74.0938 695.625 78.3125 690.188 78.3125ZM690.188 74.9062C693.031 74.9062 694.781 72.125 694.781 66.6875C694.781 61.2812 693 58.4375 690.188 58.4375C687.375 58.4375 685.594 61.2812 685.594 66.6875C685.594 72.125 687.344 74.9062 690.188 74.9062Z" fill="black"/>
<path d="M662.562 78V75.0625L670.562 67.3438C672.844 65.0625 674.031 63.7188 674.031 61.8125C674.031 59.7188 672.375 58.375 670.156 58.375C667.812 58.375 666.312 59.8438 666.344 62.125H662.469C662.437 57.8438 665.656 55.0625 670.187 55.0625C674.812 55.0625 677.937 57.8125 677.937 61.625C677.937 64.1875 676.687 66.25 672.25 70.4375L668.219 74.4375V74.5938H678.281V78H662.562Z" fill="black"/>
<path d="M657.062 55.375V78H652.969V59.3438H652.844L647.562 62.7188V59L653.156 55.375H657.062Z" fill="black"/>
</g>
<g id="cheongsong_hall_121">
<path d="M711 120C711 124.418 714.582 128 719 128H785C789.418 128 793 124.418 793 120V14C793 9.58172 789.418 6 785 6H719C714.582 6 711 9.58172 711 14V120Z" fill="#F7FBFF"/>
<path d="M785 9V6H719L719 9H785ZM790 14V120C790 122.761 787.761 125 785 125H719C716.239 125 714 122.761 714 120V14C714 11.2386 716.239 9 719 9L719 6C714.582 6 711 9.58172 711 14V120C711 124.28 714.361 127.775 718.588 127.989L719 128H785C789.418 128 793 124.418 793 120V14C793 9.58172 789.418 6 785 6V9C787.761 9 790 11.2386 790 14Z" fill="#2E2F33" fill-opacity="0.88"/>
<path d="M773.031 55.375V78H768.938V59.3438H768.812L763.531 62.7188V59L769.125 55.375H773.031Z" fill="black"/>
<path d="M744.562 78V75.0625L752.562 67.3438C754.844 65.0625 756.031 63.7188 756.031 61.8125C756.031 59.7188 754.375 58.375 752.156 58.375C749.812 58.375 748.312 59.8438 748.344 62.125H744.469C744.437 57.8438 747.656 55.0625 752.187 55.0625C756.812 55.0625 759.937 57.8125 759.937 61.625C759.937 64.1875 758.687 66.25 754.25 70.4375L750.219 74.4375V74.5938H760.281V78H744.562Z" fill="black"/>
<path d="M739.062 55.375V78H734.969V59.3438H734.844L729.562 62.7188V59L735.156 55.375H739.062Z" fill="black"/>
</g>
<g id="cheongsong_hall_122">
<path d="M790 120C790 124.418 793.582 128 798 128H864C868.418 128 872 124.418 872 120V14C872 9.58172 868.418 6 864 6H798C793.582 6 790 9.58172 790 14V120Z" fill="#F7FBFF"/>
<path d="M864 9V6H798L798 9H864ZM869 14V120C869 122.761 866.761 125 864 125H798C795.239 125 793 122.761 793 120V14C793 11.2386 795.239 9 798 9L798 6C793.582 6 790 9.58172 790 14V120C790 124.28 793.361 127.775 797.588 127.989L798 128H864C868.418 128 872 124.418 872 120V14C872 9.58172 868.418 6 864 6V9C866.761 9 869 11.2386 869 14Z" fill="#2E2F33" fill-opacity="0.88"/>
<path d="M839.844 78V75.0625L847.844 67.3438C850.125 65.0625 851.312 63.7188 851.312 61.8125C851.312 59.7188 849.656 58.375 847.437 58.375C845.094 58.375 843.594 59.8438 843.625 62.125H839.75C839.719 57.8438 842.937 55.0625 847.469 55.0625C852.094 55.0625 855.219 57.8125 855.219 61.625C855.219 64.1875 853.969 66.25 849.531 70.4375L845.5 74.4375V74.5938H855.562V78H839.844Z" fill="black"/>
<path d="M820.562 78V75.0625L828.562 67.3438C830.844 65.0625 832.031 63.7188 832.031 61.8125C832.031 59.7188 830.375 58.375 828.156 58.375C825.812 58.375 824.312 59.8438 824.344 62.125H820.469C820.437 57.8438 823.656 55.0625 828.187 55.0625C832.812 55.0625 835.937 57.8125 835.937 61.625C835.937 64.1875 834.687 66.25 830.25 70.4375L826.219 74.4375V74.5938H836.281V78H820.562Z" fill="black"/>
<path d="M815.062 55.375V78H810.969V59.3438H810.844L805.562 62.7188V59L811.156 55.375H815.062Z" fill="black"/>
</g>
<g id="cheongsong_hall_123">
<path d="M869 120C869 124.418 872.582 128 877 128H943C947.418 128 951 124.418 951 120V14C951 9.58172 947.418 6 943 6H877C872.582 6 869 9.58172 869 14V120Z" fill="#F7FBFF"/>
<path d="M943 9V6H877L877 9H943ZM948 14V120C948 122.761 945.761 125 943 125H877C874.239 125 872 122.761 872 120V14C872 11.2386 874.239 9 877 9L877 6C872.582 6 869 9.58172 869 14V120C869 124.28 872.361 127.775 876.588 127.989L877 128H943C947.418 128 951 124.418 951 120V14C951 9.58172 947.418 6 943 6V9C945.761 9 948 11.2386 948 14Z" fill="#2E2F33" fill-opacity="0.88"/>
<path d="M927.062 78.3125C922.219 78.3125 918.781 75.6875 918.688 71.875H922.781C922.906 73.6875 924.719 74.875 927.062 74.875C929.562 74.875 931.344 73.5 931.344 71.5C931.344 69.4688 929.594 68 926.656 68H924.625V64.875H926.656C929.062 64.875 930.75 63.5312 930.719 61.5625C930.75 59.6562 929.312 58.375 927.094 58.375C924.969 58.375 923.125 59.5625 923.062 61.4688H919.156C919.25 57.6562 922.688 55.0625 927.125 55.0625C931.719 55.0625 934.688 57.875 934.656 61.3438C934.688 63.875 933 65.7188 930.531 66.2188V66.4062C933.719 66.8438 935.531 68.875 935.5 71.7188C935.531 75.5312 931.969 78.3125 927.062 78.3125Z" fill="black"/>
<path d="M899.562 78V75.0625L907.562 67.3438C909.844 65.0625 911.031 63.7188 911.031 61.8125C911.031 59.7188 909.375 58.375 907.156 58.375C904.812 58.375 903.312 59.8438 903.344 62.125H899.469C899.437 57.8438 902.656 55.0625 907.187 55.0625C911.812 55.0625 914.937 57.8125 914.937 61.625C914.937 64.1875 913.687 66.25 909.25 70.4375L905.219 74.4375V74.5938H915.281V78H899.562Z" fill="black"/>
<path d="M894.062 55.375V78H889.969V59.3438H889.844L884.562 62.7188V59L890.156 55.375H894.062Z" fill="black"/>
</g>
<g id="cheongsong_hall_1f_toilet_left_girl">
<path d="M691 239C691 243.418 694.582 247 699 247H858C862.418 247 866 243.418 866 239V185C866 180.582 862.418 177 858 177H699C694.582 177 691 180.582 691 185V239Z" fill="#FED9C4"/>
<path d="M858 180V177H699L699 180H858ZM863 185V239C863 241.761 860.761 244 858 244H699C696.239 244 694 241.761 694 239V185C694 182.239 696.239 180 699 180L699 177L698.588 177.011C694.361 177.225 691 180.72 691 185V239C691 243.418 694.582 247 699 247H858C862.418 247 866 243.418 866 239V185C866 180.582 862.418 177 858 177V180C860.761 180 863 182.239 863 185Z" fill="#2E2F33" fill-opacity="0.88"/>
<path d="M791.75 187.25H766.25C759.623 187.25 754.25 192.623 754.25 199.25V224.75C754.25 231.377 759.623 236.75 766.25 236.75H791.75C798.377 236.75 803.75 231.377 803.75 224.75V199.25C803.75 192.623 798.377 187.25 791.75 187.25Z" fill="#E76D6D"/>
<path d="M776.274 209.976L770.809 222.524C769.953 224.488 771.392 226.685 773.534 226.685H784.465C786.606 226.685 788.046 224.488 787.19 222.524L781.724 209.976C780.686 207.594 777.31 207.594 776.271 209.976H776.274Z" fill="white"/>
<path d="M779 205.381C781.227 205.381 783.032 203.575 783.032 201.348C783.032 199.122 781.227 197.317 779 197.317C776.773 197.317 774.968 199.122 774.968 201.348C774.968 203.575 776.773 205.381 779 205.381Z" fill="white"/>
</g>
<g id="cheongsong_hall_1f_toilet_right_girl">
<path d="M790 1352C790 1356.42 793.582 1360 798 1360H940C944.418 1360 948 1356.42 948 1352V1294C948 1289.58 944.418 1286 940 1286H798C793.582 1286 790 1289.58 790 1294V1352Z" fill="#FED9C4"/>
<path d="M940 1289V1286H798L798 1289H940ZM945 1294V1352C945 1354.76 942.761 1357 940 1357H798C795.239 1357 793 1354.76 793 1352V1294C793 1291.24 795.239 1289 798 1289L798 1286L797.588 1286.01C793.361 1286.23 790 1289.72 790 1294V1352C790 1356.28 793.361 1359.77 797.588 1359.99L798 1360H940C944.418 1360 948 1356.42 948 1352V1294C948 1289.58 944.418 1286 940 1286V1289C942.761 1289 945 1291.24 945 1294Z" fill="#2E2F33" fill-opacity="0.88"/>
<path d="M881.75 1298.25H856.25C849.623 1298.25 844.25 1303.62 844.25 1310.25V1335.75C844.25 1342.38 849.623 1347.75 856.25 1347.75H881.75C888.377 1347.75 893.75 1342.38 893.75 1335.75V1310.25C893.75 1303.62 888.377 1298.25 881.75 1298.25Z" fill="#E76D6D"/>
<path d="M866.274 1320.98L860.809 1333.52C859.953 1335.49 861.392 1337.69 863.534 1337.69H874.465C876.606 1337.69 878.046 1335.49 877.19 1333.52L871.724 1320.98C870.686 1318.59 867.31 1318.59 866.271 1320.98H866.274Z" fill="white"/>
<path d="M869 1316.38C871.227 1316.38 873.032 1314.58 873.032 1312.35C873.032 1310.12 871.227 1308.32 869 1308.32C866.773 1308.32 864.968 1310.12 864.968 1312.35C864.968 1314.58 866.773 1316.38 869 1316.38Z" fill="white"/>
</g>
<g id="cheongsong_hall_1f_toilet_left_boy">
<path d="M691 306C691 310.418 694.582 314 699 314H858C862.418 314 866 310.418 866 306V252C866 247.582 862.418 244 858 244H699C694.582 244 691 247.582 691 252V306Z" fill="#FED9C4"/>
<path d="M858 247V244H699L699 247H858ZM863 252V306C863 308.761 860.761 311 858 311H699C696.239 311 694 308.761 694 306V252C694 249.239 696.239 247 699 247L699 244L698.588 244.011C694.361 244.225 691 247.72 691 252V306C691 310.418 694.582 314 699 314H858C862.418 314 866 310.418 866 306V252C866 247.582 862.418 244 858 244V247C860.761 247 863 249.239 863 252Z" fill="#2E2F33" fill-opacity="0.88"/>
<path d="M791.75 254.25H766.25C759.623 254.25 754.25 259.623 754.25 266.25V291.75C754.25 298.377 759.623 303.75 766.25 303.75H791.75C798.377 303.75 803.75 298.377 803.75 291.75V266.25C803.75 259.623 798.377 254.25 791.75 254.25Z" fill="#3076D1"/>
<path d="M781.725 291.889L787.191 279.342C788.047 277.378 786.608 275.181 784.466 275.181H773.535C771.394 275.181 769.953 277.378 770.81 279.342L776.276 291.889C777.314 294.271 780.69 294.271 781.729 291.889H781.725Z" fill="white"/>
<path d="M779 272.388C781.227 272.388 783.032 270.583 783.032 268.356C783.032 266.129 781.227 264.324 779 264.324C776.773 264.324 774.968 266.129 774.968 268.356C774.968 270.583 776.773 272.388 779 272.388Z" fill="white"/>
</g>
<g id="cheongsong_hall_1f_toilet_right_boy">
<path d="M790 1281C790 1285.42 793.582 1289 798 1289H940C944.418 1289 948 1285.42 948 1281V1222C948 1217.58 944.418 1214 940 1214H798C793.582 1214 790 1217.58 790 1222V1281Z" fill="#FED9C4"/>
<path d="M940 1217V1214H798L798 1217H940ZM945 1222V1281C945 1283.76 942.761 1286 940 1286H798C795.239 1286 793 1283.76 793 1281V1222C793 1219.24 795.239 1217 798 1217L798 1214L797.588 1214.01C793.361 1214.23 790 1217.72 790 1222V1281C790 1285.28 793.361 1288.77 797.588 1288.99L798 1289H940C944.418 1289 948 1285.42 948 1281V1222C948 1217.58 944.418 1214 940 1214V1217C942.761 1217 945 1219.24 945 1222Z" fill="#2E2F33" fill-opacity="0.88"/>
<path d="M881.75 1226.25H856.25C849.623 1226.25 844.25 1231.62 844.25 1238.25V1263.75C844.25 1270.38 849.623 1275.75 856.25 1275.75H881.75C888.377 1275.75 893.75 1270.38 893.75 1263.75V1238.25C893.75 1231.62 888.377 1226.25 881.75 1226.25Z" fill="#3076D1"/>
<path d="M871.725 1263.89L877.191 1251.34C878.047 1249.38 876.608 1247.18 874.466 1247.18H863.535C861.394 1247.18 859.953 1249.38 860.81 1251.34L866.276 1263.89C867.314 1266.27 870.69 1266.27 871.729 1263.89H871.725Z" fill="white"/>
<path d="M869 1244.39C871.227 1244.39 873.032 1242.58 873.032 1240.36C873.032 1238.13 871.227 1236.32 869 1236.32C866.773 1236.32 864.968 1238.13 864.968 1240.36C864.968 1242.58 866.773 1244.39 869 1244.39Z" fill="white"/>
</g>
<g id="cheongsong_hall_1f_stairs_left_main">
<path d="M488 491C488 495.418 491.582 499 496 499H584C588.418 499 592 495.418 592 491V357C592 352.582 588.418 349 584 349H496C491.582 349 488 352.582 488 357V491Z" fill="#D9FFE6"/>
<path d="M584 352V349H496L496 352H584ZM589 357V491C589 493.761 586.761 496 584 496H496C493.239 496 491 493.761 491 491V357C491 354.239 493.239 352 496 352L496 349L495.588 349.011C491.361 349.225 488 352.72 488 357V491C488 495.418 491.582 499 496 499H584C588.418 499 592 495.418 592 491V357C592 352.582 588.418 349 584 349V352C586.761 352 589 354.239 589 357Z" fill="#2E2F33" fill-opacity="0.88"/>
<path d="M563.94 397.634C562.892 397.247 561.728 397.787 561.341 398.836L557.58 409.056H536.281L539.805 400.29C540.222 399.252 539.719 398.071 538.681 397.654C537.644 397.237 536.465 397.743 536.048 398.778L516.432 447.581C516.015 448.619 516.517 449.8 517.556 450.217C517.803 450.316 518.058 450.364 518.31 450.364C519.112 450.364 519.873 449.884 520.189 449.093L524.218 439.071C524.306 439.083 524.382 439.121 524.472 439.121H546.519L543.386 447.64C543 448.688 543.537 449.854 544.587 450.238C544.818 450.324 545.055 450.364 545.286 450.364C546.11 450.364 546.885 449.855 547.187 449.036L565.142 400.233C565.527 399.184 564.99 398.018 563.94 397.634ZM535.074 413.104H556.089L552.849 421.91H531.114L534.686 413.026C534.816 413.051 534.936 413.104 535.074 413.104ZM525.825 435.072L529.51 425.903C529.606 425.917 529.694 425.961 529.794 425.961H551.361L548.009 435.072H525.825Z" fill="#6E4944"/>
</g>
<g id="cheongsong_hall_1f_stairs_right_main">
<path d="M1043 1138C1043 1142.42 1046.58 1146 1051 1146H1139C1143.42 1146 1147 1142.42 1147 1138V1004C1147 999.582 1143.42 996 1139 996H1051C1046.58 996 1043 999.582 1043 1004V1138Z" fill="#D9FFE6"/>
<path d="M1139 999V996H1051L1051 999H1139ZM1144 1004V1138C1144 1140.76 1141.76 1143 1139 1143H1051C1048.24 1143 1046 1140.76 1046 1138V1004C1046 1001.24 1048.24 999 1051 999L1051 996L1050.59 996.011C1046.36 996.225 1043 999.72 1043 1004V1138C1043 1142.42 1046.58 1146 1051 1146H1139C1143.42 1146 1147 1142.42 1147 1138V1004C1147 999.582 1143.42 996 1139 996V999C1141.76 999 1144 1001.24 1144 1004Z" fill="#2E2F33" fill-opacity="0.88"/>
<path d="M1118.94 1044.63C1117.89 1044.25 1116.73 1044.79 1116.34 1045.84L1112.58 1056.06H1091.28L1094.81 1047.29C1095.22 1046.25 1094.72 1045.07 1093.68 1044.65C1092.64 1044.24 1091.46 1044.74 1091.05 1045.78L1071.43 1094.58C1071.02 1095.62 1071.52 1096.8 1072.56 1097.22C1072.8 1097.32 1073.06 1097.36 1073.31 1097.36C1074.11 1097.36 1074.87 1096.88 1075.19 1096.09L1079.22 1086.07C1079.31 1086.08 1079.38 1086.12 1079.47 1086.12H1101.52L1098.39 1094.64C1098 1095.69 1098.54 1096.85 1099.59 1097.24C1099.82 1097.32 1100.06 1097.36 1100.29 1097.36C1101.11 1097.36 1101.89 1096.86 1102.19 1096.04L1120.14 1047.23C1120.53 1046.18 1119.99 1045.02 1118.94 1044.63ZM1090.07 1060.1H1111.09L1107.85 1068.91H1086.11L1089.69 1060.03C1089.82 1060.05 1089.94 1060.1 1090.07 1060.1ZM1080.83 1082.07L1084.51 1072.9C1084.61 1072.92 1084.69 1072.96 1084.79 1072.96H1106.36L1103.01 1082.07H1080.83Z" fill="#6E4944"/>
</g>
<g id="cheongsong_hall_1f_stairs_left">
<path d="M72 491C72 495.418 74.9929 499 78.6849 499H126.315C130.007 499 133 495.418 133 491V355C133 350.582 130.007 347 126.315 347H78.6849C74.9929 347 72 350.582 72 355V491Z" fill="#D9FFE6"/>
<path d="M126.315 350V347H78.6849V350H126.315ZM130.493 355V491C130.493 493.761 128.623 496 126.315 496H78.6849C76.3774 496 74.5068 493.761 74.5068 491V355C74.5068 352.239 76.3774 350 78.6849 350V347C74.9929 347 72 350.582 72 355V491C72 495.418 74.9929 499 78.6849 499H126.315C130.007 499 133 495.418 133 491V355C133 350.582 130.007 347 126.315 347V350C128.623 350 130.493 352.239 130.493 355Z" fill="#2E2F33" fill-opacity="0.88"/>
<path d="M117.96 405.423C117.261 405.165 116.485 405.525 116.227 406.224L113.72 413.037H99.521L101.87 407.193C102.148 406.501 101.813 405.714 101.121 405.436C100.429 405.158 99.643 405.495 99.365 406.185L86.288 438.721C86.01 439.413 86.345 440.2 87.037 440.478C87.202 440.544 87.372 440.576 87.54 440.576C88.075 440.576 88.582 440.256 88.793 439.729L91.479 433.047C91.537 433.055 91.588 433.081 91.648 433.081H106.346L104.257 438.76C104 439.459 104.358 440.236 105.058 440.492C105.212 440.549 105.37 440.576 105.524 440.576C106.073 440.576 106.59 440.237 106.791 439.691L118.761 407.155C119.018 406.456 118.66 405.679 117.96 405.423ZM98.716 415.736H112.726L110.566 421.607H96.076L98.457 415.684C98.544 415.701 98.624 415.736 98.716 415.736ZM92.55 430.381L95.007 424.269C95.071 424.278 95.129 424.307 95.196 424.307H109.574L107.339 430.381H92.55Z" fill="#6E4944"/>
</g>
<g id="cheongsong_hall_1f_elevator_right">
<path d="M890 1411C890 1415.42 893.582 1419 898 1419H940C944.418 1419 948 1415.42 948 1411V1365C948 1360.58 944.418 1357 940 1357H898C893.582 1357 890 1360.58 890 1365V1411Z" fill="#C4C4C4"/>
<path d="M940 1360V1357H898L898 1360H940ZM945 1365V1411C945 1413.76 942.761 1416 940 1416H898C895.239 1416 893 1413.76 893 1411V1365C893 1362.24 895.239 1360 898 1360L898 1357C893.582 1357 890 1360.58 890 1365V1411C890 1415.42 893.582 1419 898 1419H940C944.418 1419 948 1415.42 948 1411V1365C948 1360.58 944.418 1357 940 1357V1360C942.761 1360 945 1362.24 945 1365Z" fill="#2E2F33" fill-opacity="0.88"/>
<path d="M929.625 1367.38H908.375C902.852 1367.38 898.375 1371.85 898.375 1377.38V1398.62C898.375 1404.15 902.852 1408.62 908.375 1408.62H929.625C935.147 1408.62 939.625 1404.15 939.625 1398.62V1377.38C939.625 1371.85 935.147 1367.38 929.625 1367.38ZM920.02 1375.43H921.174C921.289 1375.43 921.381 1375.34 921.381 1375.23V1372.67C921.381 1372.58 921.46 1372.5 921.557 1372.5H923.449C923.546 1372.5 923.625 1372.58 923.625 1372.67V1375.23C923.625 1375.34 923.717 1375.43 923.832 1375.43H924.986C925.153 1375.43 925.235 1375.63 925.118 1375.75L922.759 1378.11C922.618 1378.25 922.389 1378.25 922.249 1378.11L919.89 1375.75C919.772 1375.63 919.855 1375.43 920.02 1375.43ZM912.327 1374.96L914.686 1372.6C914.827 1372.46 915.056 1372.46 915.196 1372.6L917.555 1374.96C917.673 1375.08 917.589 1375.28 917.424 1375.28H916.27C916.155 1375.28 916.062 1375.37 916.062 1375.49V1378.04C916.062 1378.14 915.984 1378.22 915.886 1378.22H913.995C913.898 1378.22 913.819 1378.14 913.819 1378.04V1375.49C913.819 1375.37 913.726 1375.28 913.611 1375.28H912.458C912.291 1375.28 912.21 1375.08 912.327 1374.96ZM934.29 1397.34C934.29 1400.35 931.838 1402.81 928.823 1402.81H909.176C906.161 1402.81 903.709 1400.35 903.709 1397.34V1385.54C903.709 1382.52 906.161 1380.07 909.176 1380.07H928.823C931.838 1380.07 934.29 1382.52 934.29 1385.54V1397.34Z" fill="#4592FB"/>
<path d="M928.823 1381.04H909.176C906.695 1381.04 904.676 1383.06 904.676 1385.54V1397.34C904.676 1399.82 906.695 1401.84 909.176 1401.84H928.823C931.304 1401.84 933.323 1399.82 933.323 1397.34V1385.54C933.323 1383.06 931.304 1381.04 928.823 1381.04ZM926.61 1383.93C927.245 1383.93 927.76 1384.44 927.76 1385.08C927.76 1385.71 927.245 1386.23 926.61 1386.23C925.975 1386.23 925.46 1385.71 925.46 1385.08C925.46 1384.44 925.975 1383.93 926.61 1383.93ZM918.866 1383.93C919.501 1383.93 920.016 1384.44 920.016 1385.08C920.016 1385.71 919.501 1386.23 918.866 1386.23C918.231 1386.23 917.716 1385.71 917.716 1385.08C917.716 1384.44 918.231 1383.93 918.866 1383.93ZM911.122 1383.93C911.757 1383.93 912.272 1384.44 912.272 1385.08C912.272 1385.71 911.757 1386.23 911.122 1386.23C910.487 1386.23 909.972 1385.71 909.972 1385.08C909.972 1384.44 910.487 1383.93 911.122 1383.93ZM914.455 1392.08C914.455 1392.44 914.163 1392.73 913.802 1392.73C913.442 1392.73 913.15 1392.44 913.15 1392.08V1388.66H912.809V1398.08C912.809 1398.48 912.49 1398.8 912.096 1398.8C911.703 1398.8 911.384 1398.48 911.384 1398.08V1392.67H910.859V1398.08C910.859 1398.48 910.54 1398.8 910.146 1398.8C909.753 1398.8 909.434 1398.48 909.434 1398.08V1388.66H908.995V1392.08C908.995 1392.44 908.703 1392.73 908.343 1392.73C907.983 1392.73 907.69 1392.44 907.69 1392.08V1388.05C907.69 1387.33 908.274 1386.75 908.995 1386.75H913.147C913.867 1386.75 914.452 1387.33 914.452 1388.05V1392.08H914.455ZM922.199 1392.08C922.199 1392.44 921.906 1392.73 921.546 1392.73C921.186 1392.73 920.894 1392.44 920.894 1392.08V1388.66H920.553V1398.08C920.553 1398.48 920.234 1398.8 919.84 1398.8C919.446 1398.8 919.127 1398.48 919.127 1398.08V1392.67H918.604V1398.08C918.604 1398.48 918.285 1398.8 917.891 1398.8C917.498 1398.8 917.179 1398.48 917.179 1398.08V1388.66H916.74V1392.08C916.74 1392.44 916.448 1392.73 916.087 1392.73C915.727 1392.73 915.435 1392.44 915.435 1392.08V1388.05C915.435 1387.33 916.019 1386.75 916.74 1386.75H920.892C921.614 1386.75 922.198 1387.33 922.198 1388.05L922.199 1392.08ZM929.942 1392.08C929.942 1392.44 929.65 1392.73 929.29 1392.73C928.93 1392.73 928.637 1392.44 928.637 1392.08V1388.66H928.296V1398.08C928.296 1398.48 927.978 1398.8 927.584 1398.8C927.19 1398.8 926.871 1398.48 926.871 1398.08V1392.67H926.346V1398.08C926.346 1398.48 926.028 1398.8 925.634 1398.8C925.24 1398.8 924.921 1398.48 924.921 1398.08V1388.66H924.482V1392.08C924.482 1392.44 924.19 1392.73 923.83 1392.73C923.47 1392.73 923.177 1392.44 923.177 1392.08V1388.05C923.177 1387.33 923.761 1386.75 924.482 1386.75H928.635C929.356 1386.75 929.94 1387.33 929.94 1388.05V1392.08H929.942Z" fill="#4592FB"/>
<path d="M918.866 1386.23C919.501 1386.23 920.016 1385.71 920.016 1385.08C920.016 1384.44 919.501 1383.93 918.866 1383.93C918.231 1383.93 917.716 1384.44 917.716 1385.08C917.716 1385.71 918.231 1386.23 918.866 1386.23Z" fill="white"/>
<path d="M911.122 1386.23C911.757 1386.23 912.272 1385.71 912.272 1385.08C912.272 1384.44 911.757 1383.93 911.122 1383.93C910.487 1383.93 909.972 1384.44 909.972 1385.08C909.972 1385.71 910.487 1386.23 911.122 1386.23Z" fill="white"/>
<path d="M926.61 1386.23C927.245 1386.23 927.76 1385.71 927.76 1385.08C927.76 1384.44 927.245 1383.93 926.61 1383.93C925.975 1383.93 925.46 1384.44 925.46 1385.08C925.46 1385.71 925.975 1386.23 926.61 1386.23Z" fill="white"/>
<path d="M928.825 1380.08H909.175C906.163 1380.08 903.712 1382.53 903.712 1385.54V1397.34C903.712 1400.35 906.163 1402.81 909.175 1402.81H928.825C931.838 1402.81 934.287 1400.35 934.287 1397.34V1385.54C934.287 1382.53 931.838 1380.08 928.825 1380.08ZM933.325 1397.34C933.325 1399.82 931.3 1401.84 928.825 1401.84H909.175C906.7 1401.84 904.675 1399.82 904.675 1397.34V1385.54C904.675 1383.06 906.7 1381.04 909.175 1381.04H928.825C931.3 1381.04 933.325 1383.06 933.325 1385.54V1397.34Z" fill="white"/>
<path d="M929.938 1388.05V1392.08C929.938 1392.44 929.65 1392.74 929.287 1392.74C928.925 1392.74 928.637 1392.44 928.637 1392.08V1388.66L928.3 1388.66V1398.09C928.3 1398.47 927.975 1398.8 927.588 1398.8C927.188 1398.8 926.875 1398.47 926.875 1398.09V1392.66H926.35V1398.09C926.35 1398.47 926.025 1398.8 925.637 1398.8C925.237 1398.8 924.925 1398.47 924.925 1398.09V1388.66H924.487V1392.08C924.487 1392.44 924.188 1392.74 923.838 1392.74C923.475 1392.74 923.175 1392.44 923.175 1392.08V1388.05C923.175 1387.33 923.763 1386.75 924.487 1386.75H928.637C929.362 1386.75 929.938 1387.33 929.938 1388.05Z" fill="white"/>
<path d="M914.45 1388.05V1392.08C914.45 1392.44 914.162 1392.74 913.8 1392.74C913.438 1392.74 913.15 1392.44 913.15 1392.08V1388.66L912.812 1388.66V1398.09C912.812 1398.47 912.487 1398.8 912.1 1398.8C911.7 1398.8 911.388 1398.47 911.388 1398.09V1392.66H910.862V1398.09C910.862 1398.47 910.538 1398.8 910.15 1398.8C909.75 1398.8 909.438 1398.47 909.438 1398.09V1388.66H909V1392.08C909 1392.44 908.7 1392.74 908.35 1392.74C907.988 1392.74 907.688 1392.44 907.688 1392.08V1388.05C907.688 1387.33 908.275 1386.75 909 1386.75H913.15C913.875 1386.75 914.45 1387.33 914.45 1388.05Z" fill="white"/>
<path d="M922.2 1388.05V1392.08C922.2 1392.44 921.912 1392.74 921.55 1392.74C921.188 1392.74 920.9 1392.44 920.9 1392.08V1388.66H920.55V1398.09C920.55 1398.47 920.237 1398.8 919.837 1398.8C919.45 1398.8 919.125 1398.47 919.125 1398.09V1392.66H918.6V1398.09C918.6 1398.47 918.287 1398.8 917.887 1398.8C917.5 1398.8 917.175 1398.47 917.175 1398.09V1388.66H916.737V1392.08C916.737 1392.44 916.45 1392.74 916.087 1392.74C915.725 1392.74 915.437 1392.44 915.437 1392.08V1388.05C915.437 1387.33 916.025 1386.75 916.737 1386.75H920.9C921.612 1386.75 922.2 1387.33 922.2 1388.05Z" fill="white"/>
<path d="M912.459 1375.28H913.612C913.727 1375.28 913.82 1375.37 913.82 1375.49V1378.04C913.82 1378.14 913.899 1378.22 913.996 1378.22H915.888C915.985 1378.22 916.064 1378.14 916.064 1378.04V1375.49C916.064 1375.37 916.156 1375.28 916.271 1375.28H917.425C917.591 1375.28 917.674 1375.08 917.556 1374.96L915.198 1372.61C915.056 1372.46 914.827 1372.46 914.688 1372.61L912.329 1374.96C912.211 1375.08 912.294 1375.28 912.459 1375.28Z" fill="white"/>
<path d="M922.246 1378.11C922.388 1378.25 922.616 1378.25 922.756 1378.11L925.115 1375.75C925.232 1375.63 925.149 1375.43 924.984 1375.43H923.83C923.715 1375.43 923.622 1375.34 923.622 1375.23V1372.67C923.622 1372.58 923.544 1372.5 923.446 1372.5H921.555C921.458 1372.5 921.379 1372.58 921.379 1372.67V1375.23C921.379 1375.34 921.286 1375.43 921.171 1375.43H920.017C919.851 1375.43 919.769 1375.63 919.886 1375.75L922.246 1378.11Z" fill="white"/>
</g>
<g id="cheongsong_hall_1f_gate_main">
<path d="M608 1026C608 1066.32 575.317 1099 535 1099C494.683 1099 462 1066.32 462 1026C462 985.683 494.683 953 535 953C575.317 953 608 985.683 608 1026Z" fill="#FAA4FF"/>
<path d="M605 1026C605 987.34 573.66 956 535 956C496.34 956 465 987.34 465 1026C465 1064.66 496.34 1096 535 1096V1099C494.683 1099 462 1066.32 462 1026C462 985.683 494.683 953 535 953C575.317 953 608 985.683 608 1026C608 1066.32 575.317 1099 535 1099V1096C573.66 1096 605 1064.66 605 1026Z" fill="#2E2F33" fill-opacity="0.88"/>
<path d="M551.018 989.248H518.982C514.574 989.248 511 992.822 511 997.23V1054.77C511 1059.18 514.574 1062.75 518.982 1062.75H551.018C555.426 1062.75 559 1059.18 559 1054.77V997.23C559 992.822 555.426 989.248 551.018 989.248Z" fill="#5E403B"/>
<path d="M548.01 1031.7C551.16 1031.7 553.714 1029.15 553.714 1026C553.714 1022.85 551.16 1020.3 548.01 1020.3C544.86 1020.3 542.306 1022.85 542.306 1026C542.306 1029.15 544.86 1031.7 548.01 1031.7Z" fill="#FFDE57"/>
<path d="M548.01 1028.24C549.245 1028.24 550.246 1027.23 550.246 1026C550.246 1024.77 549.245 1023.76 548.01 1023.76C546.775 1023.76 545.774 1024.77 545.774 1026C545.774 1027.23 546.775 1028.24 548.01 1028.24Z" fill="#CB8C00"/>
<path d="M548.014 1023.77H538.518C537.285 1023.77 536.286 1024.77 536.286 1026C536.286 1027.24 537.285 1028.24 538.518 1028.24H548.014C549.247 1028.24 550.246 1027.24 550.246 1026C550.246 1024.77 549.247 1023.77 548.014 1023.77Z" fill="#CB8C00"/>
</g>
<g id="cheongsong_hall_1f_gate_jeongui">
<path d="M74 457C74 477.435 57.4345 494 37 494C16.5655 494 0 477.435 0 457C0 436.565 16.5655 420 37 420C57.4345 420 74 436.565 74 457Z" fill="#B1A4FF"/>
<path d="M71 457C71 438.222 55.7777 423 37 423C18.2223 423 3 438.222 3 457C3 475.778 18.2223 491 37 491V494C16.5655 494 0 477.435 0 457C0 436.565 16.5655 420 37 420C57.4345 420 74 436.565 74 457C74 477.435 57.4345 494 37 494V491C55.7777 491 71 475.778 71 457Z" fill="#2E2F33" fill-opacity="0.88"/>
<path d="M45.1251 438.375H28.8877C26.6533 438.375 24.842 440.186 24.842 442.42V471.586C24.842 473.82 26.6533 475.631 28.8877 475.631H45.1251C47.3595 475.631 49.1708 473.82 49.1708 471.586V442.42C49.1708 440.186 47.3595 438.375 45.1251 438.375Z" fill="#5E403B"/>
<path d="M43.6005 459.894C45.1972 459.894 46.4916 458.599 46.4916 457.002C46.4916 455.406 45.1972 454.111 43.6005 454.111C42.0038 454.111 40.7094 455.406 40.7094 457.002C40.7094 458.599 42.0038 459.894 43.6005 459.894Z" fill="#FFDE57"/>
<path d="M43.6005 458.136C44.2264 458.136 44.7338 457.628 44.7338 457.002C44.7338 456.377 44.2264 455.869 43.6005 455.869C42.9746 455.869 42.4672 456.377 42.4672 457.002C42.4672 457.628 42.9746 458.136 43.6005 458.136Z" fill="#CB8C00"/>
<path d="M43.6025 455.873H38.7895C38.1647 455.873 37.6582 456.38 37.6582 457.005C37.6582 457.629 38.1647 458.136 38.7895 458.136H43.6025C44.2273 458.136 44.7338 457.629 44.7338 457.005C44.7338 456.38 44.2273 455.873 43.6025 455.873Z" fill="#CB8C00"/>
</g>
<g id="cheongsong_hall_1f_gate_changjo">
<path d="M980 1456C980 1476.43 963.435 1493 943 1493C922.565 1493 906 1476.43 906 1456C906 1435.57 922.565 1419 943 1419C963.435 1419 980 1435.57 980 1456Z" fill="#B1A4FF"/>
<path d="M977 1456C977 1437.22 961.778 1422 943 1422C924.222 1422 909 1437.22 909 1456C909 1474.78 924.222 1490 943 1490V1493C922.565 1493 906 1476.43 906 1456C906 1435.57 922.565 1419 943 1419C963.435 1419 980 1435.57 980 1456C980 1476.43 963.435 1493 943 1493V1490C961.778 1490 977 1474.78 977 1456Z" fill="#2E2F33" fill-opacity="0.88"/>
<path d="M951.125 1437.37H934.888C932.653 1437.37 930.842 1439.19 930.842 1441.42V1470.59C930.842 1472.82 932.653 1474.63 934.888 1474.63H951.125C953.359 1474.63 955.171 1472.82 955.171 1470.59V1441.42C955.171 1439.19 953.359 1437.37 951.125 1437.37Z" fill="#5E403B"/>
<path d="M949.601 1458.89C951.197 1458.89 952.492 1457.6 952.492 1456C952.492 1454.41 951.197 1453.11 949.601 1453.11C948.004 1453.11 946.709 1454.41 946.709 1456C946.709 1457.6 948.004 1458.89 949.601 1458.89Z" fill="#FFDE57"/>
<path d="M949.601 1457.14C950.226 1457.14 950.734 1456.63 950.734 1456C950.734 1455.38 950.226 1454.87 949.601 1454.87C948.975 1454.87 948.467 1455.38 948.467 1456C948.467 1456.63 948.975 1457.14 949.601 1457.14Z" fill="#CB8C00"/>
<path d="M949.603 1454.87H944.789C944.165 1454.87 943.658 1455.38 943.658 1456C943.658 1456.63 944.165 1457.14 944.789 1457.14H949.603C950.227 1457.14 950.734 1456.63 950.734 1456C950.734 1455.38 950.227 1454.87 949.603 1454.87Z" fill="#CB8C00"/>
</g>
<g id="cheongsong_hall_1f_gate">
<path d="M1050 552C1050 572.435 1033.43 589 1013 589C992.565 589 976 572.435 976 552C976 531.565 992.565 515 1013 515C1033.43 515 1050 531.565 1050 552Z" fill="#B1A4FF"/>
<path d="M1047 552C1047 533.222 1031.78 518 1013 518C994.222 518 979 533.222 979 552C979 570.778 994.222 586 1013 586V589C992.565 589 976 572.435 976 552C976 531.565 992.565 515 1013 515C1033.43 515 1050 531.565 1050 552C1050 572.435 1033.43 589 1013 589V586C1031.78 586 1047 570.778 1047 552Z" fill="#2E2F33" fill-opacity="0.88"/>
<path d="M1021.13 533.375H1004.89C1002.65 533.375 1000.84 535.186 1000.84 537.42V566.586C1000.84 568.82 1002.65 570.631 1004.89 570.631H1021.13C1023.36 570.631 1025.17 568.82 1025.17 566.586V537.42C1025.17 535.186 1023.36 533.375 1021.13 533.375Z" fill="#5E403B"/>
<path d="M1019.6 554.894C1021.2 554.894 1022.49 553.599 1022.49 552.002C1022.49 550.406 1021.2 549.111 1019.6 549.111C1018 549.111 1016.71 550.406 1016.71 552.002C1016.71 553.599 1018 554.894 1019.6 554.894Z" fill="#FFDE57"/>
<path d="M1019.6 553.136C1020.23 553.136 1020.73 552.628 1020.73 552.002C1020.73 551.377 1020.23 550.869 1019.6 550.869C1018.97 550.869 1018.47 551.377 1018.47 552.002C1018.47 552.628 1018.97 553.136 1019.6 553.136Z" fill="#CB8C00"/>
<path d="M1019.6 550.873H1014.79C1014.16 550.873 1013.66 551.38 1013.66 552.005C1013.66 552.629 1014.16 553.136 1014.79 553.136H1019.6C1020.23 553.136 1020.73 552.629 1020.73 552.005C1020.73 551.38 1020.23 550.873 1019.6 550.873Z" fill="#CB8C00"/>
</g>
</g>
</svg>
