<svg width="2016" height="1490" viewBox="0 0 2016 1490" fill="none" xmlns="http://www.w3.org/2000/svg">
<g id="changjo_hall_floor_1">
<g id="Vector">
<path d="M569 878.5V987.5H3V1143H16.5V1292H637.5V1326.5H596V1486.5H1211.5V1282.5H906V1174.5H730.5V1144H994.5V947H1023L1068.5 906.5V878H1261V614H1272.5V546.5H1137.5V496.5H1184.5V347H1246.5V152H1078.5V115H1114.5V3H654V109.5H604.5V215.5H677.5V268H982.5V342.5H717V399H632L505 527.5V607.5H454V878.5H569Z" fill="#999999"/>
<path d="M2013 496.5V152H1246.5V347H1184.5V496.5H2013Z" fill="#474747"/>
<path d="M1117.5 0V118H1081.5V149H2016V499.5H1140.5V543.5H1275.5V617H1264V881H1071.5V907.846L1024.14 950H997.5V1147H733.5V1171.5H909V1279.5H1214.5V1489.5H593V1323.5H634.5V1295H13.5V1146H0V984.5H566V881.5H451V604.5H502V526.268L630.747 396H714V339.5H979.5V271H674.5V218.5H601.5V106.5H651V0H1117.5ZM657 112.5H607.5V212.5H680.5V265H985.5V345.5H720V402H633.253L508 528.731V610.5H457V875.5H572V990.5H6V1140H19.5V1289H640.5V1329.5H599V1483.5H1208.5V1285.5H903V1177.5H727.5V1141H991.5V944H1021.86L1065.5 905.153V875H1258V611H1269.5V549.5H1134.5V493.5H1181.5V344H1243.5V155H1075.5V112H1111.5V6H657V112.5ZM1249.5 350H1187.5V493.5H2010V155H1249.5V350Z" fill="black"/>
</g>
<g id="Vector_2">
<path d="M1115 292C1115 287.582 1118.58 284 1123 284H1237C1241.42 284 1245 287.582 1245 292V338C1245 342.418 1241.42 346 1237 346H1123C1118.58 346 1115 342.418 1115 338V292Z" fill="#F7FBFF"/>
<path d="M1237 343V346H1123L1123 343H1237ZM1242 338V292C1242 289.239 1239.76 287 1237 287H1123C1120.24 287 1118 289.239 1118 292V338C1118 340.761 1120.24 343 1123 343L1123 346L1122.59 345.989C1118.36 345.775 1115 342.28 1115 338V292C1115 287.582 1118.58 284 1123 284H1237C1241.42 284 1245 287.582 1245 292V338C1245 342.418 1241.42 346 1237 346V343C1239.76 343 1242 340.761 1242 338Z" fill="#2E2F33" fill-opacity="0.88"/>
</g>
<g id="Vector_3">
<path d="M1079.5 498.5C1079.5 494.082 1083.08 490.5 1087.5 490.5H1127.5C1131.92 490.5 1135.5 494.082 1135.5 498.5V542.5C1135.5 546.918 1131.92 550.5 1127.5 550.5H1087.5C1083.08 550.5 1079.5 546.918 1079.5 542.5V498.5Z" fill="#F7FBFF"/>
<path d="M1127.5 547.5V550.5H1087.5L1087.5 547.5H1127.5ZM1132.5 542.5V498.5C1132.5 495.739 1130.26 493.5 1127.5 493.5H1087.5C1084.74 493.5 1082.5 495.739 1082.5 498.5V542.5C1082.5 545.261 1084.74 547.5 1087.5 547.5L1087.5 550.5L1087.09 550.489C1082.86 550.275 1079.5 546.78 1079.5 542.5V498.5C1079.5 494.082 1083.08 490.5 1087.5 490.5H1127.5C1131.92 490.5 1135.5 494.082 1135.5 498.5V542.5C1135.5 546.918 1131.92 550.5 1127.5 550.5V547.5C1130.26 547.5 1132.5 545.261 1132.5 542.5Z" fill="#2E2F33" fill-opacity="0.88"/>
</g>
<g id="changjo_hall_102">
<path d="M985.473 460.704C985.907 461.193 986 461.842 986 462.496V565.674C986 567.81 985.146 569.857 983.628 571.359L888.338 665.697C886.84 667.18 884.818 668.011 882.71 668.011H824.267C822.173 668.011 820.162 667.19 818.667 665.725L722.4 571.364C720.865 569.859 720 567.8 720 565.651V462.56C720 461.864 720.111 461.175 720.598 460.678C723.696 457.52 742.436 446.44 853 446.011C964.442 445.58 982.595 457.462 985.473 460.704Z" fill="#F7FBFF"/>
<path d="M824.267 665.012H882.71C884.027 665.012 885.291 664.491 886.228 663.564L981.518 569.228C982.466 568.288 983 567.009 983 565.674V462.496C983 462.486 982.999 462.476 982.999 462.467C981.781 461.348 976.767 457.994 959.427 454.935C940.851 451.657 908.654 448.796 853.012 449.012C797.804 449.226 765.663 452.1 747.003 455.278C737.674 456.867 731.79 458.521 728.11 459.919C725.016 461.095 723.593 462.051 723.001 462.545C723.001 462.55 723 462.555 723 462.56V565.65L720 565.651V462.56C720 461.907 720.098 461.261 720.512 460.773L720.598 460.678C723.648 457.569 741.855 446.784 847.885 446.039L853 446.011C964.442 445.58 982.595 457.462 985.473 460.704C985.907 461.193 986 461.842 986 462.496V565.674C986 567.81 985.146 569.857 983.628 571.359L888.338 665.697C886.84 667.18 884.818 668.011 882.71 668.011H824.267L823.875 668.002C821.923 667.906 820.069 667.099 818.667 665.725L722.4 571.364L722.12 571.075C720.76 569.601 720 567.666 720 565.651L723 565.65C723 566.994 723.541 568.281 724.5 569.222L820.767 663.582C821.701 664.498 822.958 665.012 824.267 665.012Z" fill="#2E2F33" fill-opacity="0.88"/>
<path d="M862 568V565.062L870 557.344C872.281 555.062 873.469 553.719 873.469 551.812C873.469 549.719 871.812 548.375 869.594 548.375C867.25 548.375 865.75 549.844 865.781 552.125H861.906C861.875 547.844 865.094 545.062 869.625 545.062C874.25 545.062 877.375 547.812 877.375 551.625C877.375 554.188 876.125 556.25 871.687 560.438L867.656 564.438V564.594H877.719V568H862Z" fill="black"/>
<path d="M849.906 568.312C844.469 568.312 841.219 564.094 841.219 556.688C841.219 549.312 844.469 545.062 849.906 545.062C855.312 545.062 858.594 549.312 858.594 556.688C858.594 564.094 855.344 568.312 849.906 568.312ZM849.906 564.906C852.75 564.906 854.5 562.125 854.5 556.688C854.5 551.281 852.719 548.438 849.906 548.438C847.094 548.438 845.312 551.281 845.312 556.688C845.312 562.125 847.062 564.906 849.906 564.906Z" fill="black"/>
<path d="M836.062 545.375V568H831.969V549.344H831.844L826.562 552.719V549L832.156 545.375H836.062Z" fill="black"/>
</g>
<g id="changjo_hall_101">
<path d="M720 409C720 404.582 723.582 401 728 401H780C784.418 401 788 404.582 788 409V458C788 462.418 784.418 466 780 466H728C723.582 466 720 462.418 720 458V409Z" fill="#F7FBFF"/>
<path d="M780 463V466H728L728 463H780ZM785 458V409C785 406.239 782.761 404 780 404H728C725.239 404 723 406.239 723 409V458C723 460.761 725.239 463 728 463L728 466L727.588 465.989C723.498 465.782 720.218 462.502 720.011 458.412L720 458V409C720 404.582 723.582 401 728 401H780C784.418 401 788 404.582 788 409V458L787.989 458.412C787.775 462.639 784.28 466 780 466V463C782.761 463 785 460.761 785 458Z" fill="#2E2F33" fill-opacity="0.88"/>
<path d="M769.641 419.031V436H766.57V422.008H766.477L762.516 424.539V421.75L766.711 419.031H769.641Z" fill="black"/>
<path d="M753.68 436.234C749.602 436.234 747.164 433.07 747.164 427.516C747.164 421.984 749.602 418.797 753.68 418.797C757.734 418.797 760.195 421.984 760.195 427.516C760.195 433.07 757.758 436.234 753.68 436.234ZM753.68 433.68C755.812 433.68 757.125 431.594 757.125 427.516C757.125 423.461 755.789 421.328 753.68 421.328C751.57 421.328 750.234 423.461 750.234 427.516C750.234 431.594 751.547 433.68 753.68 433.68Z" fill="black"/>
<path d="M743.297 419.031V436H740.227V422.008H740.133L736.172 424.539V421.75L740.367 419.031H743.297Z" fill="black"/>
</g>
<g id="changjo_hall_103">
<path d="M720 353C720 348.582 723.582 345 728 345H978C982.418 345 986 348.582 986 353V454C986 458.418 982.418 462 978 462H793C788.582 462 785 458.418 785 454V411.5C785 407.082 781.418 403.5 777 403.5H728C723.582 403.5 720 399.918 720 395.5V353Z" fill="#F7FBFF"/>
<path d="M785 454V411.5C785 407.082 781.418 403.5 777 403.5V400.5C783.075 400.5 788 405.425 788 411.5V454C788 456.761 790.239 459 793 459V462C788.582 462 785 458.418 785 454ZM978 459V462H793V459H978ZM983 454V353C983 350.239 980.761 348 978 348H728C725.239 348 723 350.239 723 353V395.5C723 398.261 725.239 400.5 728 400.5L728 403.5L727.588 403.489C723.361 403.275 720 399.78 720 395.5V353C720 348.582 723.582 345 728 345H978C982.418 345 986 348.582 986 353V454C986 458.418 982.418 462 978 462V459C980.761 459 983 456.761 983 454ZM777 400.5V403.5H728L728 400.5H777Z" fill="#2E2F33" fill-opacity="0.88"/>
<path d="M882.219 410.312C877.375 410.312 873.938 407.688 873.844 403.875H877.938C878.062 405.688 879.875 406.875 882.219 406.875C884.719 406.875 886.5 405.5 886.5 403.5C886.5 401.469 884.75 400 881.812 400H879.781V396.875H881.812C884.219 396.875 885.906 395.531 885.875 393.562C885.906 391.656 884.469 390.375 882.25 390.375C880.125 390.375 878.281 391.562 878.219 393.469H874.312C874.406 389.656 877.844 387.062 882.281 387.062C886.875 387.062 889.844 389.875 889.812 393.344C889.844 395.875 888.156 397.719 885.688 398.219V398.406C888.875 398.844 890.688 400.875 890.656 403.719C890.688 407.531 887.125 410.312 882.219 410.312Z" fill="black"/>
<path d="M861.906 410.312C856.469 410.312 853.219 406.094 853.219 398.688C853.219 391.312 856.469 387.062 861.906 387.062C867.312 387.062 870.594 391.312 870.594 398.688C870.594 406.094 867.344 410.312 861.906 410.312ZM861.906 406.906C864.75 406.906 866.5 404.125 866.5 398.688C866.5 393.281 864.719 390.438 861.906 390.438C859.094 390.438 857.312 393.281 857.312 398.688C857.312 404.125 859.062 406.906 861.906 406.906Z" fill="black"/>
<path d="M848.062 387.375V410H843.969V391.344H843.844L838.562 394.719V391L844.156 387.375H848.062Z" fill="black"/>
</g>
<g id="changjo_hall_107">
<path d="M736 162C736 157.582 739.582 154 744 154H802C806.418 154 810 157.582 810 162V257C810 261.418 806.418 265 802 265H744C739.582 265 736 261.418 736 257V162Z" fill="#F7FBFF"/>
<path d="M802 262V265H744L744 262H802ZM807 257V162C807 159.239 804.761 157 802 157H744C741.239 157 739 159.239 739 162V257C739 259.761 741.239 262 744 262L744 265L743.588 264.989C739.361 264.775 736 261.28 736 257V162C736 157.582 739.582 154 744 154H802C806.418 154 810 157.582 810 162V257C810 261.418 806.418 265 802 265V262C804.761 262 807 259.761 807 257Z" fill="#2E2F33" fill-opacity="0.88"/>
<path d="M784.219 221L794.031 201.938V201.781H782.656V198.375H798.25V201.844L788.438 221H784.219Z" fill="black"/>
<path d="M771.906 221.312C766.469 221.312 763.219 217.094 763.219 209.688C763.219 202.312 766.469 198.062 771.906 198.062C777.312 198.062 780.594 202.312 780.594 209.688C780.594 217.094 777.344 221.312 771.906 221.312ZM771.906 217.906C774.75 217.906 776.5 215.125 776.5 209.688C776.5 204.281 774.719 201.438 771.906 201.438C769.094 201.438 767.312 204.281 767.312 209.688C767.312 215.125 769.062 217.906 771.906 217.906Z" fill="black"/>
<path d="M758.062 198.375V221H753.969V202.344H753.844L748.562 205.719V202L754.156 198.375H758.062Z" fill="black"/>
</g>
<g id="changjo_hall_106">
<path d="M807 162C807 157.582 810.582 154 815 154H877C881.418 154 885 157.582 885 162V257C885 261.418 881.418 265 877 265H815C810.582 265 807 261.418 807 257V162Z" fill="#F7FBFF"/>
<path d="M877 262V265H815L815 262H877ZM882 257V162C882 159.239 879.761 157 877 157H815C812.239 157 810 159.239 810 162V257C810 259.761 812.239 262 815 262L815 265L814.588 264.989C810.361 264.775 807 261.28 807 257V162C807 157.582 810.582 154 815 154H877C881.418 154 885 157.582 885 162V257C885 261.418 881.418 265 877 265V262C879.761 262 882 259.761 882 257Z" fill="#2E2F33" fill-opacity="0.88"/>
<path d="M863.469 221.312C859.062 221.281 854.625 218.656 854.656 210.312C854.656 202.562 858.187 198.062 863.719 198.062C868.094 198.062 871.094 200.812 871.594 204.469H867.562C867.156 202.75 865.781 201.594 863.719 201.594C860.437 201.594 858.594 204.5 858.594 209.25H858.812C859.969 207.312 862.156 206.156 864.625 206.156C868.687 206.156 871.812 209.219 871.812 213.5C871.812 218 868.469 221.344 863.469 221.312ZM863.469 218.031C866 218.031 867.875 216.062 867.875 213.594C867.875 211.188 866.031 209.25 863.531 209.25C861 209.25 859.062 211.25 859.031 213.625C859.062 216 860.906 218.031 863.469 218.031Z" fill="black"/>
<path d="M842.906 221.312C837.469 221.312 834.219 217.094 834.219 209.688C834.219 202.312 837.469 198.062 842.906 198.062C848.312 198.062 851.594 202.312 851.594 209.688C851.594 217.094 848.344 221.312 842.906 221.312ZM842.906 217.906C845.75 217.906 847.5 215.125 847.5 209.688C847.5 204.281 845.719 201.438 842.906 201.438C840.094 201.438 838.312 204.281 838.312 209.688C838.312 215.125 840.062 217.906 842.906 217.906Z" fill="black"/>
<path d="M829.062 198.375V221H824.969V202.344H824.844L819.562 205.719V202L825.156 198.375H829.062Z" fill="black"/>
</g>
<g id="changjo_hall_110">
<path d="M809 14C809 9.58172 812.582 6 817 6H879C883.418 6 887 9.58172 887 14V105C887 109.418 883.418 113 879 113H817C812.582 113 809 109.418 809 105V14Z" fill="#F7FBFF"/>
<path d="M879 110V113H817L817 110H879ZM884 105V14C884 11.2386 881.761 9 879 9H817C814.239 9 812 11.2386 812 14V105C812 107.761 814.239 110 817 110L817 113L816.588 112.989C812.361 112.775 809 109.28 809 105V14C809 9.58172 812.582 6 817 6H879C883.418 6 887 9.58172 887 14V105C887 109.418 883.418 113 879 113V110C881.761 110 884 107.761 884 105Z" fill="#2E2F33" fill-opacity="0.88"/>
<path d="M862.594 70.3125C857.156 70.3125 853.906 66.0938 853.906 58.6875C853.906 51.3125 857.156 47.0625 862.594 47.0625C868 47.0625 871.281 51.3125 871.281 58.6875C871.281 66.0938 868.031 70.3125 862.594 70.3125ZM862.594 66.9062C865.438 66.9062 867.188 64.125 867.188 58.6875C867.188 53.2812 865.406 50.4375 862.594 50.4375C859.781 50.4375 858 53.2812 858 58.6875C858 64.125 859.75 66.9062 862.594 66.9062Z" fill="black"/>
<path d="M848.75 47.375V70H844.656V51.3438H844.531L839.25 54.7188V51L844.844 47.375H848.75Z" fill="black"/>
<path d="M834.062 47.375V70H829.969V51.3438H829.844L824.562 54.7188V51L830.156 47.375H834.062Z" fill="black"/>
</g>
<g id="changjo_hall_109">
<path d="M734 14C734 9.58172 737.582 6 742 6H804C808.418 6 812 9.58172 812 14V105C812 109.418 808.418 113 804 113H742C737.582 113 734 109.418 734 105V14Z" fill="#F7FBFF"/>
<path d="M804 110V113H742L742 110H804ZM809 105V14C809 11.2386 806.761 9 804 9H742C739.239 9 737 11.2386 737 14V105C737 107.761 739.239 110 742 110L742 113L741.588 112.989C737.361 112.775 734 109.28 734 105V14C734 9.58172 737.582 6 742 6H804C808.418 6 812 9.58172 812 14V105C812 109.418 808.418 113 804 113V110C806.761 110 809 107.761 809 105Z" fill="#2E2F33" fill-opacity="0.88"/>
<path d="M790.031 48.0625C794.469 48.0938 798.844 50.7188 798.875 59C798.875 66.8125 795.344 71.3125 789.781 71.3125C785.406 71.3125 782.406 68.5938 781.906 64.8438H785.938C786.344 66.625 787.719 67.7812 789.781 67.7812C793.062 67.7812 794.906 64.875 794.938 60.0312H794.688C793.531 62 791.375 63.1562 788.875 63.1562C784.844 63.1562 781.719 60.0938 781.688 55.8125C781.688 51.375 785 48.0312 790.031 48.0625ZM790.062 51.3438C787.531 51.3438 785.625 53.3125 785.656 55.7188C785.656 58.1562 787.469 60.0625 790 60.0625C792.5 60.0625 794.469 58.0312 794.438 55.6875C794.438 53.375 792.594 51.3438 790.062 51.3438Z" fill="black"/>
<path d="M769.906 71.3125C764.469 71.3125 761.219 67.0938 761.219 59.6875C761.219 52.3125 764.469 48.0625 769.906 48.0625C775.312 48.0625 778.594 52.3125 778.594 59.6875C778.594 67.0938 775.344 71.3125 769.906 71.3125ZM769.906 67.9062C772.75 67.9062 774.5 65.125 774.5 59.6875C774.5 54.2812 772.719 51.4375 769.906 51.4375C767.094 51.4375 765.312 54.2812 765.312 59.6875C765.312 65.125 767.062 67.9062 769.906 67.9062Z" fill="black"/>
<path d="M756.062 48.375V71H751.969V52.3438H751.844L746.562 55.7188V52L752.156 48.375H756.062Z" fill="black"/>
</g>
<g id="changjo_hall_108">
<path d="M656 14C656 9.58172 659.582 6 664 6H729C733.418 6 737 9.58172 737 14V105C737 109.418 733.418 113 729 113H664C659.582 113 656 109.418 656 105V14Z" fill="#F7FBFF"/>
<path d="M729 110V113H664V110H729ZM734 105V14C734 11.2386 731.761 9 729 9H664C661.239 9 659 11.2386 659 14V105C659 107.761 661.239 110 664 110V113C659.582 113 656 109.418 656 105V14C656 9.58172 659.582 6 664 6H729C733.418 6 737 9.58172 737 14V105C737 109.418 733.418 113 729 113V110C731.761 110 734 107.761 734 105Z" fill="#2E2F33" fill-opacity="0.88"/>
<path d="M714.219 71.3125C709.188 71.3125 705.625 68.625 705.625 64.9375C705.625 62.0625 707.75 59.7188 710.469 59.2812V59.1562C708.094 58.6562 706.469 56.5938 706.469 54.125C706.469 50.625 709.75 48.0625 714.219 48.0625C718.656 48.0625 721.938 50.625 721.938 54.125C721.938 56.5938 720.281 58.6562 717.938 59.1562V59.2812C720.656 59.7188 722.812 62.0625 722.812 64.9375C722.812 68.625 719.219 71.3125 714.219 71.3125ZM714.219 68.0938C716.875 68.0938 718.625 66.6562 718.625 64.5625C718.625 62.4375 716.75 60.875 714.219 60.875C711.656 60.875 709.781 62.4375 709.812 64.5625C709.781 66.6562 711.531 68.0938 714.219 68.0938ZM714.219 57.8438C716.406 57.8438 717.969 56.4688 717.969 54.5C717.969 52.5938 716.438 51.25 714.219 51.25C711.969 51.25 710.438 52.5625 710.438 54.5C710.438 56.4688 712 57.8438 714.219 57.8438Z" fill="black"/>
<path d="M693.906 71.3125C688.469 71.3125 685.219 67.0938 685.219 59.6875C685.219 52.3125 688.469 48.0625 693.906 48.0625C699.312 48.0625 702.594 52.3125 702.594 59.6875C702.594 67.0938 699.344 71.3125 693.906 71.3125ZM693.906 67.9062C696.75 67.9062 698.5 65.125 698.5 59.6875C698.5 54.2812 696.719 51.4375 693.906 51.4375C691.094 51.4375 689.312 54.2812 689.312 59.6875C689.312 65.125 691.062 67.9062 693.906 67.9062Z" fill="black"/>
<path d="M680.062 48.375V71H675.969V52.3438H675.844L670.562 55.7188V52L676.156 48.375H680.062Z" fill="black"/>
</g>
<g id="changjo_hall_111">
<path d="M884 14C884 9.58172 887.582 6 892 6H954C958.418 6 962 9.58172 962 14V105C962 109.418 958.418 113 954 113H892C887.582 113 884 109.418 884 105V14Z" fill="#F7FBFF"/>
<path d="M954 110V113H892L892 110H954ZM959 105V14C959 11.2386 956.761 9 954 9H892C889.239 9 887 11.2386 887 14V105C887 107.761 889.239 110 892 110L892 113L891.588 112.989C887.361 112.775 884 109.28 884 105V14C884 9.58172 887.582 6 892 6H954C958.418 6 962 9.58172 962 14V105C962 109.418 958.418 113 954 113V110C956.761 110 959 107.761 959 105Z" fill="#2E2F33" fill-opacity="0.88"/>
<path d="M941.438 48.375V71H937.344V52.3438H937.219L931.938 55.7188V52L937.531 48.375H941.438Z" fill="black"/>
<path d="M926.75 48.375V71H922.656V52.3438H922.531L917.25 55.7188V52L922.844 48.375H926.75Z" fill="black"/>
<path d="M912.062 48.375V71H907.969V52.3438H907.844L902.562 55.7188V52L908.156 48.375H912.062Z" fill="black"/>
</g>
<g id="changjo_hall_112">
<path d="M959 13C959 8.58172 962.582 5 967 5H1030C1034.42 5 1038 8.58172 1038 13V104C1038 108.418 1034.42 112 1030 112H967C962.582 112 959 108.418 959 104V13Z" fill="#F7FBFF"/>
<path d="M1030 109V112H967L967 109H1030ZM1035 104V13C1035 10.2386 1032.76 8 1030 8H967C964.239 8 962 10.2386 962 13V104C962 106.761 964.239 109 967 109L967 112C962.582 112 959 108.418 959 104V13C959 8.58172 962.582 5 967 5H1030C1034.42 5 1038 8.58172 1038 13V104C1038 108.418 1034.42 112 1030 112V109C1032.76 109 1035 106.761 1035 104Z" fill="#2E2F33" fill-opacity="0.88"/>
<path d="M1005.25 70V67.0625L1013.25 59.3438C1015.53 57.0625 1016.72 55.7188 1016.72 53.8125C1016.72 51.7188 1015.06 50.375 1012.84 50.375C1010.5 50.375 1009 51.8438 1009.03 54.125H1005.16C1005.12 49.8438 1008.34 47.0625 1012.87 47.0625C1017.5 47.0625 1020.62 49.8125 1020.62 53.625C1020.62 56.1875 1019.37 58.25 1014.94 62.4375L1010.91 66.4375V66.5938H1020.97V70H1005.25Z" fill="black"/>
<path d="M999.75 47.375V70H995.656V51.3438H995.531L990.25 54.7188V51L995.844 47.375H999.75Z" fill="black"/>
<path d="M985.062 47.375V70H980.969V51.3438H980.844L975.562 54.7188V51L981.156 47.375H985.062Z" fill="black"/>
</g>
<g id="changjo_hall_113">
<path d="M1035 13C1035 8.58172 1038.58 5 1043 5H1103C1107.42 5 1111 8.58172 1111 13V104C1111 108.418 1107.42 112 1103 112H1043C1038.58 112 1035 108.418 1035 104V13Z" fill="#F7FBFF"/>
<path d="M1103 109V112H1043L1043 109H1103ZM1108 104V13C1108 10.2386 1105.76 8 1103 8H1043C1040.24 8 1038 10.2386 1038 13V104C1038 106.761 1040.24 109 1043 109L1043 112C1038.58 112 1035 108.418 1035 104V13C1035 8.58172 1038.58 5 1043 5H1103C1107.42 5 1111 8.58172 1111 13V104C1111 108.418 1107.42 112 1103 112V109C1105.76 109 1108 106.761 1108 104Z" fill="#2E2F33" fill-opacity="0.88"/>
<path d="M1087.47 70.3125C1082.62 70.3125 1079.19 67.6875 1079.09 63.875H1083.19C1083.31 65.6875 1085.12 66.875 1087.47 66.875C1089.97 66.875 1091.75 65.5 1091.75 63.5C1091.75 61.4688 1090 60 1087.06 60H1085.03V56.875H1087.06C1089.47 56.875 1091.16 55.5312 1091.12 53.5625C1091.16 51.6562 1089.72 50.375 1087.5 50.375C1085.38 50.375 1083.53 51.5625 1083.47 53.4688H1079.56C1079.66 49.6562 1083.09 47.0625 1087.53 47.0625C1092.12 47.0625 1095.09 49.875 1095.06 53.3438C1095.09 55.875 1093.41 57.7188 1090.94 58.2188V58.4062C1094.12 58.8438 1095.94 60.875 1095.91 63.7188C1095.94 67.5312 1092.38 70.3125 1087.47 70.3125Z" fill="black"/>
<path d="M1073.75 47.375V70H1069.66V51.3438H1069.53L1064.25 54.7188V51L1069.84 47.375H1073.75Z" fill="black"/>
<path d="M1059.06 47.375V70H1054.97V51.3438H1054.84L1049.56 54.7188V51L1055.16 47.375H1059.06Z" fill="black"/>
</g>
<g id="changjo_hall_115">
<path d="M1114 162C1114 157.582 1117.58 154 1122 154H1236C1240.42 154 1244 157.582 1244 162V279C1244 283.418 1240.42 287 1236 287H1122C1117.58 287 1114 283.418 1114 279V162Z" fill="#F7FBFF"/>
<path d="M1236 284V287H1122L1122 284H1236ZM1241 279V162C1241 159.239 1238.76 157 1236 157H1122C1119.24 157 1117 159.239 1117 162V279C1117 281.761 1119.24 284 1122 284L1122 287L1121.59 286.989C1117.36 286.775 1114 283.28 1114 279V162C1114 157.582 1117.58 154 1122 154H1236C1240.42 154 1244 157.582 1244 162V279C1244 283.418 1240.42 287 1236 287V284C1238.76 284 1241 281.761 1241 279Z" fill="#2E2F33" fill-opacity="0.88"/>
<path d="M1193.28 231.312C1188.75 231.312 1185.44 228.625 1185.31 224.875H1189.28C1189.41 226.719 1191.12 228.031 1193.28 228.031C1195.81 228.031 1197.62 226.188 1197.62 223.688C1197.62 221.094 1195.75 219.25 1193.16 219.25C1191.41 219.219 1190.12 219.844 1189.41 221.188H1185.62L1187 208.375H1200.38V211.781H1190.34L1189.66 217.781H1189.88C1190.75 216.781 1192.41 216.062 1194.25 216.062C1198.47 216.062 1201.56 219.219 1201.56 223.562C1201.56 228.094 1198.16 231.312 1193.28 231.312Z" fill="black"/>
<path d="M1179.75 208.375V231H1175.66V212.344H1175.53L1170.25 215.719V212L1175.84 208.375H1179.75Z" fill="black"/>
<path d="M1165.06 208.375V231H1160.97V212.344H1160.84L1155.56 215.719V212L1161.16 208.375H1165.06Z" fill="black"/>
</g>
<g id="changjo_hall_151">
<path d="M456 618C456 613.582 459.582 610 464 610H676.663C678.798 610 680.845 610.854 682.348 612.372L776.685 707.662C778.168 709.16 779 711.182 779 713.29V771.733C779 773.827 778.179 775.838 776.713 777.333L682.352 873.6C680.848 875.135 678.789 876 676.639 876H464C459.582 876 456 872.418 456 868V618Z" fill="#F7FBFF"/>
<path d="M456 868V618C456 613.582 459.582 610 464 610H676.663L677.062 610.01C679.052 610.109 680.939 610.949 682.348 612.372L776.685 707.662C778.168 709.16 779 711.182 779 713.29V771.733L778.99 772.125C778.895 774.077 778.087 775.931 776.713 777.333L682.352 873.6L682.064 873.88C680.689 875.149 678.911 875.896 677.041 875.99L676.639 876L676.64 873C677.983 873 679.27 872.459 680.21 871.5L774.57 775.233C775.486 774.299 776 773.042 776 771.733V713.29C776 711.973 775.48 710.709 774.554 709.772L680.216 614.482C679.277 613.534 677.998 613 676.663 613H464C461.239 613 459 615.239 459 618V868C459 870.761 461.239 873 464 873L464 876L463.588 875.989C459.361 875.775 456 872.28 456 868ZM676.64 873L676.639 876H464L464 873H676.64Z" fill="#2E2F33" fill-opacity="0.88"/>
<path d="M638.5 731.375V754H634.406V735.344H634.281L629 738.719V735L634.594 731.375H638.5Z" fill="black"/>
<path d="M617.594 754.312C613.062 754.312 609.75 751.625 609.625 747.875H613.594C613.719 749.719 615.438 751.031 617.594 751.031C620.125 751.031 621.938 749.188 621.938 746.688C621.938 744.094 620.062 742.25 617.469 742.25C615.719 742.219 614.438 742.844 613.719 744.188H609.938L611.312 731.375H624.688V734.781H614.656L613.969 740.781H614.188C615.062 739.781 616.719 739.062 618.562 739.062C622.781 739.062 625.875 742.219 625.875 746.562C625.875 751.094 622.469 754.312 617.594 754.312Z" fill="black"/>
<path d="M604.062 731.375V754H599.969V735.344H599.844L594.562 738.719V735L600.156 731.375H604.062Z" fill="black"/>
</g>
<g id="changjo_hall_184">
<path d="M726.527 1025.31C726.093 1024.82 726 1024.17 726 1023.52V920.337C726 918.202 726.854 916.155 728.372 914.652L823.662 820.315C825.16 818.832 827.182 818 829.29 818H887.733C889.827 818 891.838 818.821 893.333 820.287L989.6 914.648C991.135 916.152 992 918.211 992 920.361V1023.45C992 1024.15 991.889 1024.84 991.402 1025.33C988.304 1028.49 969.564 1039.57 859 1040C747.558 1040.43 729.405 1028.55 726.527 1025.31Z" fill="#F7FBFF"/>
<path d="M887.733 821H829.29C827.973 821 826.709 821.52 825.772 822.447L730.482 916.784C729.534 917.723 729 919.003 729 920.338V1023.52C729 1023.53 729.001 1023.54 729.001 1023.54C730.219 1024.66 735.233 1028.02 752.573 1031.08C771.149 1034.35 803.346 1037.22 858.988 1037C914.196 1036.79 946.337 1033.91 964.997 1030.73C974.326 1029.14 980.21 1027.49 983.89 1026.09C986.984 1024.92 988.407 1023.96 988.999 1023.47C988.999 1023.46 989 1023.46 989 1023.45V920.361L992 920.361V1023.45C992 1024.1 991.902 1024.75 991.488 1025.24L991.402 1025.33C988.352 1028.44 970.145 1039.23 864.115 1039.97L859 1040C747.558 1040.43 729.405 1028.55 726.527 1025.31C726.093 1024.82 726 1024.17 726 1023.52V920.337C726 918.202 726.854 916.155 728.372 914.652L823.662 820.315C825.16 818.832 827.182 818 829.29 818H887.733L888.125 818.01C890.077 818.105 891.931 818.913 893.333 820.287L989.6 914.648L989.88 914.937C991.24 916.41 992 918.346 992 920.361L989 920.361C989 919.018 988.459 917.73 987.5 916.79L891.233 822.43C890.299 821.514 889.042 821 887.733 821Z" fill="#2E2F33" fill-opacity="0.88"/>
<path d="M867.344 935.781V932.531L877.125 917.375H882.188V932.437H885.156V935.781H882.188V940H878.312V935.781H867.344ZM871.5 932.437H878.375V922H878.125L871.5 932.281V932.437Z" fill="black"/>
<path d="M855.781 940.312C850.75 940.312 847.188 937.625 847.188 933.937C847.188 931.062 849.312 928.719 852.031 928.281V928.156C849.656 927.656 848.031 925.594 848.031 923.125C848.031 919.625 851.312 917.062 855.781 917.062C860.219 917.062 863.5 919.625 863.5 923.125C863.5 925.594 861.844 927.656 859.5 928.156V928.281C862.219 928.719 864.375 931.062 864.375 933.937C864.375 937.625 860.781 940.312 855.781 940.312ZM855.781 937.094C858.438 937.094 860.188 935.656 860.188 933.562C860.188 931.437 858.312 929.875 855.781 929.875C853.219 929.875 851.344 931.437 851.375 933.562C851.344 935.656 853.094 937.094 855.781 937.094ZM855.781 926.844C857.969 926.844 859.531 925.469 859.531 923.5C859.531 921.594 858 920.25 855.781 920.25C853.531 920.25 852 921.562 852 923.5C852 925.469 853.562 926.844 855.781 926.844Z" fill="black"/>
<path d="M842.062 917.375V940H837.969V921.344H837.844L832.562 924.719V921L838.156 917.375H842.062Z" fill="black"/>
</g>
<g id="changjo_hall_181">
<path d="M984 1022C988.418 1022 992 1025.58 992 1030V1133C992 1137.42 988.418 1141 984 1141H734C729.582 1141 726 1137.42 726 1133V1030C726 1025.58 729.582 1022 734 1022H984Z" fill="#F7FBFF"/>
<path d="M729 1133H726V1030L729 1030V1133ZM734 1138H984C986.761 1138 989 1135.76 989 1133V1030C989 1027.24 986.761 1025 984 1025H734C731.239 1025 729 1027.24 729 1030L726 1030L726.011 1029.59C726.225 1025.36 729.72 1022 734 1022H984C988.418 1022 992 1025.58 992 1030V1133C992 1137.42 988.418 1141 984 1141H734C729.582 1141 726 1137.42 726 1133H729C729 1135.76 731.239 1138 734 1138Z" fill="#2E2F33" fill-opacity="0.88"/>
<path d="M879.938 1069.38V1092H875.844V1073.34H875.719L870.438 1076.72V1073L876.031 1069.38H879.938Z" fill="black"/>
<path d="M858.781 1092.31C853.75 1092.31 850.188 1089.62 850.188 1085.94C850.188 1083.06 852.312 1080.72 855.031 1080.28V1080.16C852.656 1079.66 851.031 1077.59 851.031 1075.12C851.031 1071.62 854.312 1069.06 858.781 1069.06C863.219 1069.06 866.5 1071.62 866.5 1075.12C866.5 1077.59 864.844 1079.66 862.5 1080.16V1080.28C865.219 1080.72 867.375 1083.06 867.375 1085.94C867.375 1089.62 863.781 1092.31 858.781 1092.31ZM858.781 1089.09C861.438 1089.09 863.188 1087.66 863.188 1085.56C863.188 1083.44 861.312 1081.88 858.781 1081.88C856.219 1081.88 854.344 1083.44 854.375 1085.56C854.344 1087.66 856.094 1089.09 858.781 1089.09ZM858.781 1078.84C860.969 1078.84 862.531 1077.47 862.531 1075.5C862.531 1073.59 861 1072.25 858.781 1072.25C856.531 1072.25 855 1073.56 855 1075.5C855 1077.47 856.562 1078.84 858.781 1078.84Z" fill="black"/>
<path d="M845.062 1069.38V1092H840.969V1073.34H840.844L835.562 1076.72V1073L841.156 1069.38H845.062Z" fill="black"/>
</g>
<g id="changjo_hall_138">
<path d="M1139 617C1139 612.582 1142.58 609 1147 609H1250C1254.42 609 1258 612.582 1258 617V867C1258 871.418 1254.42 875 1250 875H1147C1142.58 875 1139 871.418 1139 867V617Z" fill="#F7FBFF"/>
<path d="M1250 872V875H1147L1147 872H1250ZM1255 867V617C1255 614.239 1252.76 612 1250 612H1147C1144.24 612 1142 614.239 1142 617V867C1142 869.761 1144.24 872 1147 872L1147 875L1146.59 874.989C1142.36 874.775 1139 871.28 1139 867V617C1139 612.582 1142.58 609 1147 609H1250C1254.42 609 1258 612.582 1258 617V867C1258 871.418 1254.42 875 1250 875V872C1252.76 872 1255 869.761 1255 867Z" fill="#2E2F33" fill-opacity="0.88"/>
<path d="M1215 753.312C1209.97 753.312 1206.41 750.625 1206.41 746.938C1206.41 744.062 1208.53 741.719 1211.25 741.281V741.156C1208.88 740.656 1207.25 738.594 1207.25 736.125C1207.25 732.625 1210.53 730.062 1215 730.062C1219.44 730.062 1222.72 732.625 1222.72 736.125C1222.72 738.594 1221.06 740.656 1218.72 741.156V741.281C1221.44 741.719 1223.59 744.062 1223.59 746.938C1223.59 750.625 1220 753.312 1215 753.312ZM1215 750.094C1217.66 750.094 1219.41 748.656 1219.41 746.562C1219.41 744.438 1217.53 742.875 1215 742.875C1212.44 742.875 1210.56 744.438 1210.59 746.562C1210.56 748.656 1212.31 750.094 1215 750.094ZM1215 739.844C1217.19 739.844 1218.75 738.469 1218.75 736.5C1218.75 734.594 1217.22 733.25 1215 733.25C1212.75 733.25 1211.22 734.562 1211.22 736.5C1211.22 738.469 1212.78 739.844 1215 739.844Z" fill="black"/>
<path d="M1194.78 753.312C1189.94 753.312 1186.5 750.688 1186.41 746.875H1190.5C1190.62 748.688 1192.44 749.875 1194.78 749.875C1197.28 749.875 1199.06 748.5 1199.06 746.5C1199.06 744.469 1197.31 743 1194.38 743H1192.34V739.875H1194.38C1196.78 739.875 1198.47 738.531 1198.44 736.562C1198.47 734.656 1197.03 733.375 1194.81 733.375C1192.69 733.375 1190.84 734.562 1190.78 736.469H1186.88C1186.97 732.656 1190.41 730.062 1194.84 730.062C1199.44 730.062 1202.41 732.875 1202.38 736.344C1202.41 738.875 1200.72 740.719 1198.25 741.219V741.406C1201.44 741.844 1203.25 743.875 1203.22 746.719C1203.25 750.531 1199.69 753.312 1194.78 753.312Z" fill="black"/>
<path d="M1181.06 730.375V753H1176.97V734.344H1176.84L1171.56 737.719V734L1177.16 730.375H1181.06Z" fill="black"/>
</g>
<g id="changjo_hall_141">
<path d="M1142.31 874.473C1141.82 874.907 1141.17 875 1140.52 875H1037.34C1035.2 875 1033.15 874.146 1031.65 872.628L937.315 777.338C935.832 775.84 935 773.818 935 771.71V713.267C935 711.173 935.821 709.162 937.287 707.667L1031.65 611.4C1033.15 609.865 1035.21 609 1037.36 609H1140.45C1141.15 609 1141.84 609.111 1142.33 609.598C1145.49 612.696 1156.57 631.436 1157 742C1157.43 853.442 1145.55 871.595 1142.31 874.473Z" fill="#F7FBFF"/>
<path d="M938 713.267V771.71C938 773.027 938.52 774.291 939.447 775.228L1033.78 870.518C1034.72 871.466 1036 872 1037.34 872H1140.52C1140.53 872 1140.54 871.999 1140.54 871.999C1141.66 870.781 1145.02 865.767 1148.08 848.427C1151.35 829.851 1154.22 797.654 1154 742.012C1153.79 686.804 1150.91 654.663 1147.73 636.003C1146.14 626.674 1144.49 620.79 1143.09 617.11C1141.92 614.016 1140.96 612.593 1140.47 612.001C1140.46 612.001 1140.46 612 1140.45 612H1037.36L1037.36 609H1140.45C1141.1 609 1141.75 609.098 1142.24 609.512L1142.33 609.598C1145.44 612.648 1156.23 630.855 1156.97 736.885L1157 742C1157.43 853.442 1145.55 871.595 1142.31 874.473C1141.82 874.907 1141.17 875 1140.52 875H1037.34C1035.2 875 1033.15 874.146 1031.65 872.628L937.315 777.338C935.832 775.84 935 773.818 935 771.71V713.267L935.01 712.875C935.105 710.923 935.913 709.069 937.287 707.667L1031.65 611.4L1031.94 611.12C1033.41 609.76 1035.35 609 1037.36 609L1037.36 612C1036.02 612 1034.73 612.541 1033.79 613.5L939.43 709.767C938.514 710.701 938 711.958 938 713.267Z" fill="#2E2F33" fill-opacity="0.88"/>
<path d="M1068.09 730.375V753H1064V734.344H1063.87L1058.59 737.719V734L1064.19 730.375H1068.09Z" fill="black"/>
<path d="M1038.16 748.781V745.531L1047.94 730.375H1053V745.438H1055.97V748.781H1053V753H1049.12V748.781H1038.16ZM1042.31 745.438H1049.19V735H1048.94L1042.31 745.281V745.438Z" fill="black"/>
<path d="M1033.06 730.375V753H1028.97V734.344H1028.84L1023.56 737.719V734L1029.16 730.375H1033.06Z" fill="black"/>
</g>
<g id="changjo_hall_170">
<path d="M598 1188C598 1183.58 601.582 1180 606 1180H677C681.418 1180 685 1183.58 685 1188V1281C685 1285.42 681.418 1289 677 1289H606C601.582 1289 598 1285.42 598 1281V1188Z" fill="#F7FBFF"/>
<path d="M677 1286V1289H606L606 1286H677ZM682 1281V1188C682 1185.24 679.761 1183 677 1183H606C603.239 1183 601 1185.24 601 1188V1281C601 1283.76 603.239 1286 606 1286L606 1289C601.582 1289 598 1285.42 598 1281V1188C598 1183.58 601.582 1180 606 1180H677C681.418 1180 685 1183.58 685 1188V1281C685 1285.42 681.418 1289 677 1289V1286C679.761 1286 682 1283.76 682 1281Z" fill="#2E2F33" fill-opacity="0.88"/>
<path d="M657.562 1246.31C652.125 1246.31 648.875 1242.09 648.875 1234.69C648.875 1227.31 652.125 1223.06 657.562 1223.06C662.969 1223.06 666.25 1227.31 666.25 1234.69C666.25 1242.09 663 1246.31 657.562 1246.31ZM657.562 1242.91C660.406 1242.91 662.156 1240.12 662.156 1234.69C662.156 1229.28 660.375 1226.44 657.562 1226.44C654.75 1226.44 652.969 1229.28 652.969 1234.69C652.969 1240.12 654.719 1242.91 657.562 1242.91Z" fill="black"/>
<path d="M632.406 1246L642.219 1226.94V1226.78H630.844V1223.38H646.438V1226.84L636.625 1246H632.406Z" fill="black"/>
<path d="M626.062 1223.38V1246H621.969V1227.34H621.844L616.562 1230.72V1227L622.156 1223.38H626.062Z" fill="black"/>
</g>
<g id="changjo_hall_171">
<path d="M598 1340C598 1335.58 601.582 1332 606 1332H743C747.418 1332 751 1335.58 751 1340V1476C751 1480.42 747.418 1484 743 1484H606C601.582 1484 598 1480.42 598 1476V1340Z" fill="#F7FBFF"/>
<path d="M743 1481V1484H606L606 1481H743ZM748 1476V1340C748 1337.24 745.761 1335 743 1335H606C603.239 1335 601 1337.24 601 1340V1476C601 1478.76 603.239 1481 606 1481L606 1484L605.588 1483.99C601.361 1483.77 598 1480.28 598 1476V1340C598 1335.58 601.582 1332 606 1332H743C747.418 1332 751 1335.58 751 1340V1476C751 1480.42 747.418 1484 743 1484V1481C745.761 1481 748 1478.76 748 1476Z" fill="#2E2F33" fill-opacity="0.88"/>
<path d="M694.906 1396.38V1419H690.812V1400.34H690.688L685.406 1403.72V1400L691 1396.38H694.906Z" fill="black"/>
<path d="M668.406 1419L678.219 1399.94V1399.78H666.844V1396.38H682.438V1399.84L672.625 1419H668.406Z" fill="black"/>
<path d="M662.062 1396.38V1419H657.969V1400.34H657.844L652.562 1403.72V1400L658.156 1396.38H662.062Z" fill="black"/>
</g>
<g id="changjo_hall_173">
<path d="M749 1340C749 1335.58 752.582 1332 757 1332H820C824.418 1332 828 1335.58 828 1340V1476C828 1480.42 824.418 1484 820 1484H757C752.582 1484 749 1480.42 749 1476V1340Z" fill="#F7FBFF"/>
<path d="M820 1481V1484H757L757 1481H820ZM825 1476V1340C825 1337.24 822.761 1335 820 1335H757C754.239 1335 752 1337.24 752 1340V1476C752 1478.76 754.239 1481 757 1481L757 1484C752.582 1484 749 1480.42 749 1476V1340C749 1335.58 752.582 1332 757 1332H820C824.418 1332 828 1335.58 828 1340V1476C828 1480.42 824.418 1484 820 1484V1481C822.761 1481 825 1478.76 825 1476Z" fill="#2E2F33" fill-opacity="0.88"/>
<path d="M804.406 1419.31C799.562 1419.31 796.125 1416.69 796.031 1412.88H800.125C800.25 1414.69 802.062 1415.88 804.406 1415.88C806.906 1415.88 808.688 1414.5 808.688 1412.5C808.688 1410.47 806.938 1409 804 1409H801.969V1405.88H804C806.406 1405.88 808.094 1404.53 808.062 1402.56C808.094 1400.66 806.656 1399.38 804.438 1399.38C802.312 1399.38 800.469 1400.56 800.406 1402.47H796.5C796.594 1398.66 800.031 1396.06 804.469 1396.06C809.062 1396.06 812.031 1398.88 812 1402.34C812.031 1404.88 810.344 1406.72 807.875 1407.22V1407.41C811.062 1407.84 812.875 1409.88 812.844 1412.72C812.875 1416.53 809.312 1419.31 804.406 1419.31Z" fill="black"/>
<path d="M779.406 1419L789.219 1399.94V1399.78H777.844V1396.38H793.438V1399.84L783.625 1419H779.406Z" fill="black"/>
<path d="M773.062 1396.38V1419H768.969V1400.34H768.844L763.562 1403.72V1400L769.156 1396.38H773.062Z" fill="black"/>
</g>
<g id="changjo_hall_175">
<path d="M902 1339C902 1334.58 905.582 1331 910 1331H971C975.418 1331 979 1334.58 979 1339V1475C979 1479.42 975.418 1483 971 1483H910C905.582 1483 902 1479.42 902 1475V1339Z" fill="#F7FBFF"/>
<path d="M971 1480V1483H910L910 1480H971ZM976 1475V1339C976 1336.24 973.761 1334 971 1334H910C907.239 1334 905 1336.24 905 1339V1475C905 1477.76 907.239 1480 910 1480L910 1483L909.588 1482.99C905.361 1482.77 902 1479.28 902 1475V1339C902 1334.58 905.582 1331 910 1331H971C975.418 1331 979 1334.58 979 1339V1475C979 1479.42 975.418 1483 971 1483V1480C973.761 1480 976 1477.76 976 1475Z" fill="#2E2F33" fill-opacity="0.88"/>
<path d="M956.438 1418.31C951.906 1418.31 948.594 1415.62 948.469 1411.88H952.438C952.562 1413.72 954.281 1415.03 956.438 1415.03C958.969 1415.03 960.781 1413.19 960.781 1410.69C960.781 1408.09 958.906 1406.25 956.312 1406.25C954.562 1406.22 953.281 1406.84 952.562 1408.19H948.781L950.156 1395.38H963.531V1398.78H953.5L952.812 1404.78H953.031C953.906 1403.78 955.562 1403.06 957.406 1403.06C961.625 1403.06 964.719 1406.22 964.719 1410.56C964.719 1415.09 961.312 1418.31 956.438 1418.31Z" fill="black"/>
<path d="M931.406 1418L941.219 1398.94V1398.78H929.844V1395.38H945.438V1398.84L935.625 1418H931.406Z" fill="black"/>
<path d="M925.062 1395.38V1418H920.969V1399.34H920.844L915.562 1402.72V1399L921.156 1395.38H925.062Z" fill="black"/>
</g>
<g id="changjo_hall_176">
<path d="M976 1339C976 1334.58 979.582 1331 984 1331H1048C1052.42 1331 1056 1334.58 1056 1339V1475C1056 1479.42 1052.42 1483 1048 1483H984C979.582 1483 976 1479.42 976 1475V1339Z" fill="#F7FBFF"/>
<path d="M1048 1480V1483H984L984 1480H1048ZM1053 1475V1339C1053 1336.24 1050.76 1334 1048 1334H984C981.239 1334 979 1336.24 979 1339V1475C979 1477.76 981.239 1480 984 1480L984 1483C979.582 1483 976 1479.42 976 1475V1339C976 1334.58 979.582 1331 984 1331H1048C1052.42 1331 1056 1334.58 1056 1339V1475C1056 1479.42 1052.42 1483 1048 1483V1480C1050.76 1480 1053 1477.76 1053 1475Z" fill="#2E2F33" fill-opacity="0.88"/>
<path d="M1032.69 1418.31C1028.28 1418.28 1023.84 1415.66 1023.87 1407.31C1023.87 1399.56 1027.41 1395.06 1032.94 1395.06C1037.31 1395.06 1040.31 1397.81 1040.81 1401.47H1036.78C1036.37 1399.75 1035 1398.59 1032.94 1398.59C1029.66 1398.59 1027.81 1401.5 1027.81 1406.25H1028.03C1029.19 1404.31 1031.37 1403.16 1033.84 1403.16C1037.91 1403.16 1041.03 1406.22 1041.03 1410.5C1041.03 1415 1037.69 1418.34 1032.69 1418.31ZM1032.69 1415.03C1035.22 1415.03 1037.09 1413.06 1037.09 1410.59C1037.09 1408.19 1035.25 1406.25 1032.75 1406.25C1030.22 1406.25 1028.28 1408.25 1028.25 1410.62C1028.28 1413 1030.12 1415.03 1032.69 1415.03Z" fill="black"/>
<path d="M1007.41 1418L1017.22 1398.94V1398.78H1005.84V1395.38H1021.44V1398.84L1011.62 1418H1007.41Z" fill="black"/>
<path d="M1001.06 1395.38V1418H996.969V1399.34H996.844L991.562 1402.72V1399L997.156 1395.38H1001.06Z" fill="black"/>
</g>
<g id="changjo_hall_177">
<path d="M1053 1339C1053 1334.58 1056.58 1331 1061 1331H1200C1204.42 1331 1208 1334.58 1208 1339V1475C1208 1479.42 1204.42 1483 1200 1483H1061C1056.58 1483 1053 1479.42 1053 1475V1339Z" fill="#F7FBFF"/>
<path d="M1200 1480V1483H1061L1061 1480H1200ZM1205 1475V1339C1205 1336.24 1202.76 1334 1200 1334H1061C1058.24 1334 1056 1336.24 1056 1339V1475C1056 1477.76 1058.24 1480 1061 1480L1061 1483C1056.58 1483 1053 1479.42 1053 1475V1339C1053 1334.58 1056.58 1331 1061 1331H1200C1204.42 1331 1208 1334.58 1208 1339V1475C1208 1479.42 1204.42 1483 1200 1483V1480C1202.76 1480 1205 1477.76 1205 1475Z" fill="#2E2F33" fill-opacity="0.88"/>
<path d="M1141.19 1418L1151 1398.94V1398.78H1139.62V1395.38H1155.22V1398.84L1145.41 1418H1141.19Z" fill="black"/>
<path d="M1122.41 1418L1132.22 1398.94V1398.78H1120.84V1395.38H1136.44V1398.84L1126.62 1418H1122.41Z" fill="black"/>
<path d="M1116.06 1395.38V1418H1111.97V1399.34H1111.84L1106.56 1402.72V1399L1112.16 1395.38H1116.06Z" fill="black"/>
</g>
<g id="changjo_hall_169">
<path d="M524 1188C524 1183.58 527.582 1180 532 1180H593C597.418 1180 601 1183.58 601 1188V1281C601 1285.42 597.418 1289 593 1289H532C527.582 1289 524 1285.42 524 1281V1188Z" fill="#F7FBFF"/>
<path d="M593 1286V1289H532L532 1286H593ZM598 1281V1188C598 1185.24 595.761 1183 593 1183H532C529.239 1183 527 1185.24 527 1188V1281C527 1283.76 529.239 1286 532 1286L532 1289L531.588 1288.99C527.361 1288.77 524 1285.28 524 1281V1188C524 1183.58 527.582 1180 532 1180H593C597.418 1180 601 1183.58 601 1188V1281C601 1285.42 597.418 1289 593 1289V1286C595.761 1286 598 1283.76 598 1281Z" fill="#2E2F33" fill-opacity="0.88"/>
<path d="M579.844 1223.06C584.281 1223.09 588.656 1225.72 588.688 1234C588.688 1241.81 585.156 1246.31 579.594 1246.31C575.219 1246.31 572.219 1243.59 571.719 1239.84H575.75C576.156 1241.62 577.531 1242.78 579.594 1242.78C582.875 1242.78 584.719 1239.87 584.75 1235.03H584.5C583.344 1237 581.188 1238.16 578.688 1238.16C574.656 1238.16 571.531 1235.09 571.5 1230.81C571.5 1226.37 574.812 1223.03 579.844 1223.06ZM579.875 1226.34C577.344 1226.34 575.438 1228.31 575.469 1230.72C575.469 1233.16 577.281 1235.06 579.812 1235.06C582.312 1235.06 584.281 1233.03 584.25 1230.69C584.25 1228.37 582.406 1226.34 579.875 1226.34Z" fill="black"/>
<path d="M560.031 1246.31C555.625 1246.28 551.187 1243.66 551.219 1235.31C551.219 1227.56 554.75 1223.06 560.281 1223.06C564.656 1223.06 567.656 1225.81 568.156 1229.47H564.125C563.719 1227.75 562.344 1226.59 560.281 1226.59C557 1226.59 555.156 1229.5 555.156 1234.25H555.375C556.531 1232.31 558.719 1231.16 561.187 1231.16C565.25 1231.16 568.375 1234.22 568.375 1238.5C568.375 1243 565.031 1246.34 560.031 1246.31ZM560.031 1243.03C562.562 1243.03 564.437 1241.06 564.437 1238.59C564.437 1236.19 562.594 1234.25 560.094 1234.25C557.562 1234.25 555.625 1236.25 555.594 1238.62C555.625 1241 557.469 1243.03 560.031 1243.03Z" fill="black"/>
<path d="M546.062 1223.38V1246H541.969V1227.34H541.844L536.562 1230.72V1227L542.156 1223.38H546.062Z" fill="black"/>
</g>
<g id="changjo_hall_168">
<path d="M450 1188C450 1183.58 453.582 1180 458 1180H519C523.418 1180 527 1183.58 527 1188V1281C527 1285.42 523.418 1289 519 1289H458C453.582 1289 450 1285.42 450 1281V1188Z" fill="#F7FBFF"/>
<path d="M519 1286V1289H458L458 1286H519ZM524 1281V1188C524 1185.24 521.761 1183 519 1183H458C455.239 1183 453 1185.24 453 1188V1281C453 1283.76 455.239 1286 458 1286L458 1289L457.588 1288.99C453.361 1288.77 450 1285.28 450 1281V1188C450 1183.58 453.582 1180 458 1180H519C523.418 1180 527 1183.58 527 1188V1281C527 1285.42 523.418 1289 519 1289V1286C521.761 1286 524 1283.76 524 1281Z" fill="#2E2F33" fill-opacity="0.88"/>
<path d="M506.031 1246.31C501 1246.31 497.438 1243.62 497.438 1239.94C497.438 1237.06 499.562 1234.72 502.281 1234.28V1234.16C499.906 1233.66 498.281 1231.59 498.281 1229.12C498.281 1225.62 501.562 1223.06 506.031 1223.06C510.469 1223.06 513.75 1225.62 513.75 1229.12C513.75 1231.59 512.094 1233.66 509.75 1234.16V1234.28C512.469 1234.72 514.625 1237.06 514.625 1239.94C514.625 1243.62 511.031 1246.31 506.031 1246.31ZM506.031 1243.09C508.688 1243.09 510.438 1241.66 510.438 1239.56C510.438 1237.44 508.562 1235.88 506.031 1235.88C503.469 1235.88 501.594 1237.44 501.625 1239.56C501.594 1241.66 503.344 1243.09 506.031 1243.09ZM506.031 1232.84C508.219 1232.84 509.781 1231.47 509.781 1229.5C509.781 1227.59 508.25 1226.25 506.031 1226.25C503.781 1226.25 502.25 1227.56 502.25 1229.5C502.25 1231.47 503.812 1232.84 506.031 1232.84Z" fill="black"/>
<path d="M486.031 1246.31C481.625 1246.28 477.188 1243.66 477.219 1235.31C477.219 1227.56 480.75 1223.06 486.281 1223.06C490.656 1223.06 493.656 1225.81 494.156 1229.47H490.125C489.719 1227.75 488.344 1226.59 486.281 1226.59C483 1226.59 481.156 1229.5 481.156 1234.25H481.375C482.531 1232.31 484.719 1231.16 487.188 1231.16C491.25 1231.16 494.375 1234.22 494.375 1238.5C494.375 1243 491.031 1246.34 486.031 1246.31ZM486.031 1243.03C488.563 1243.03 490.438 1241.06 490.438 1238.59C490.438 1236.19 488.594 1234.25 486.094 1234.25C483.563 1234.25 481.625 1236.25 481.594 1238.62C481.625 1241 483.469 1243.03 486.031 1243.03Z" fill="black"/>
<path d="M472.062 1223.38V1246H467.969V1227.34H467.844L462.562 1230.72V1227L468.156 1223.38H472.062Z" fill="black"/>
</g>
<g id="changjo_hall_167">
<path d="M376 1188C376 1183.58 379.582 1180 384 1180H445C449.418 1180 453 1183.58 453 1188V1281C453 1285.42 449.418 1289 445 1289H384C379.582 1289 376 1285.42 376 1281V1188Z" fill="#F7FBFF"/>
<path d="M445 1286V1289H384L384 1286H445ZM450 1281V1188C450 1185.24 447.761 1183 445 1183H384C381.239 1183 379 1185.24 379 1188V1281C379 1283.76 381.239 1286 384 1286L384 1289L383.588 1288.99C379.361 1288.77 376 1285.28 376 1281V1188C376 1183.58 379.582 1180 384 1180H445C449.418 1180 453 1183.58 453 1188V1281C453 1285.42 449.418 1289 445 1289V1286C447.761 1286 450 1283.76 450 1281Z" fill="#2E2F33" fill-opacity="0.88"/>
<path d="M425.656 1246L435.469 1226.94V1226.78H424.094V1223.38H439.688V1226.84L429.875 1246H425.656Z" fill="black"/>
<path d="M413.031 1246.31C408.625 1246.28 404.188 1243.66 404.219 1235.31C404.219 1227.56 407.75 1223.06 413.281 1223.06C417.656 1223.06 420.656 1225.81 421.156 1229.47H417.125C416.719 1227.75 415.344 1226.59 413.281 1226.59C410 1226.59 408.156 1229.5 408.156 1234.25H408.375C409.531 1232.31 411.719 1231.16 414.188 1231.16C418.25 1231.16 421.375 1234.22 421.375 1238.5C421.375 1243 418.031 1246.34 413.031 1246.31ZM413.031 1243.03C415.563 1243.03 417.438 1241.06 417.438 1238.59C417.438 1236.19 415.594 1234.25 413.094 1234.25C410.563 1234.25 408.625 1236.25 408.594 1238.62C408.625 1241 410.469 1243.03 413.031 1243.03Z" fill="black"/>
<path d="M399.062 1223.38V1246H394.969V1227.34H394.844L389.562 1230.72V1227L395.156 1223.38H399.062Z" fill="black"/>
</g>
<g id="changjo_hall_166">
<path d="M302 1188C302 1183.58 305.582 1180 310 1180H371C375.418 1180 379 1183.58 379 1188V1281C379 1285.42 375.418 1289 371 1289H310C305.582 1289 302 1285.42 302 1281V1188Z" fill="#F7FBFF"/>
<path d="M371 1286V1289H310L310 1286H371ZM376 1281V1188C376 1185.24 373.761 1183 371 1183H310C307.239 1183 305 1185.24 305 1188V1281C305 1283.76 307.239 1286 310 1286L310 1289L309.588 1288.99C305.361 1288.77 302 1285.28 302 1281V1188C302 1183.58 305.582 1180 310 1180H371C375.418 1180 379 1183.58 379 1188V1281C379 1285.42 375.418 1289 371 1289V1286C373.761 1286 376 1283.76 376 1281Z" fill="#2E2F33" fill-opacity="0.88"/>
<path d="M358.281 1246.31C353.875 1246.28 349.438 1243.66 349.469 1235.31C349.469 1227.56 353 1223.06 358.531 1223.06C362.906 1223.06 365.906 1225.81 366.406 1229.47H362.375C361.969 1227.75 360.594 1226.59 358.531 1226.59C355.25 1226.59 353.406 1229.5 353.406 1234.25H353.625C354.781 1232.31 356.969 1231.16 359.438 1231.16C363.5 1231.16 366.625 1234.22 366.625 1238.5C366.625 1243 363.281 1246.34 358.281 1246.31ZM358.281 1243.03C360.813 1243.03 362.688 1241.06 362.688 1238.59C362.688 1236.19 360.844 1234.25 358.344 1234.25C355.813 1234.25 353.875 1236.25 353.844 1238.62C353.875 1241 355.719 1243.03 358.281 1243.03Z" fill="black"/>
<path d="M338.031 1246.31C333.625 1246.28 329.188 1243.66 329.219 1235.31C329.219 1227.56 332.75 1223.06 338.281 1223.06C342.656 1223.06 345.656 1225.81 346.156 1229.47H342.125C341.719 1227.75 340.344 1226.59 338.281 1226.59C335 1226.59 333.156 1229.5 333.156 1234.25H333.375C334.531 1232.31 336.719 1231.16 339.188 1231.16C343.25 1231.16 346.375 1234.22 346.375 1238.5C346.375 1243 343.031 1246.34 338.031 1246.31ZM338.031 1243.03C340.563 1243.03 342.438 1241.06 342.438 1238.59C342.438 1236.19 340.594 1234.25 338.094 1234.25C335.563 1234.25 333.625 1236.25 333.594 1238.62C333.625 1241 335.469 1243.03 338.031 1243.03Z" fill="black"/>
<path d="M324.062 1223.38V1246H319.969V1227.34H319.844L314.562 1230.72V1227L320.156 1223.38H324.062Z" fill="black"/>
</g>
<g id="changjo_hall_165">
<path d="M228 1188C228 1183.58 231.582 1180 236 1180H297C301.418 1180 305 1183.58 305 1188V1281C305 1285.42 301.418 1289 297 1289H236C231.582 1289 228 1285.42 228 1281V1188Z" fill="#F7FBFF"/>
<path d="M297 1286V1289H236L236 1286H297ZM302 1281V1188C302 1185.24 299.761 1183 297 1183H236C233.239 1183 231 1185.24 231 1188V1281C231 1283.76 233.239 1286 236 1286L236 1289L235.588 1288.99C231.361 1288.77 228 1285.28 228 1281V1188C228 1183.58 231.582 1180 236 1180H297C301.418 1180 305 1183.58 305 1188V1281C305 1285.42 301.418 1289 297 1289V1286C299.761 1286 302 1283.76 302 1281Z" fill="#2E2F33" fill-opacity="0.88"/>
<path d="M283.844 1245.31C279.312 1245.31 276 1242.62 275.875 1238.88H279.844C279.969 1240.72 281.688 1242.03 283.844 1242.03C286.375 1242.03 288.188 1240.19 288.188 1237.69C288.188 1235.09 286.312 1233.25 283.719 1233.25C281.969 1233.22 280.688 1233.84 279.969 1235.19H276.188L277.562 1222.38H290.938V1225.78H280.906L280.219 1231.78H280.438C281.312 1230.78 282.969 1230.06 284.812 1230.06C289.031 1230.06 292.125 1233.22 292.125 1237.56C292.125 1242.09 288.719 1245.31 283.844 1245.31Z" fill="black"/>
<path d="M264.031 1245.31C259.625 1245.28 255.187 1242.66 255.219 1234.31C255.219 1226.56 258.75 1222.06 264.281 1222.06C268.656 1222.06 271.656 1224.81 272.156 1228.47H268.125C267.719 1226.75 266.344 1225.59 264.281 1225.59C261 1225.59 259.156 1228.5 259.156 1233.25H259.375C260.531 1231.31 262.719 1230.16 265.187 1230.16C269.25 1230.16 272.375 1233.22 272.375 1237.5C272.375 1242 269.031 1245.34 264.031 1245.31ZM264.031 1242.03C266.562 1242.03 268.437 1240.06 268.437 1237.59C268.437 1235.19 266.594 1233.25 264.094 1233.25C261.562 1233.25 259.625 1235.25 259.594 1237.62C259.625 1240 261.469 1242.03 264.031 1242.03Z" fill="black"/>
<path d="M250.062 1222.38V1245H245.969V1226.34H245.844L240.562 1229.72V1226L246.156 1222.38H250.062Z" fill="black"/>
</g>
<g id="changjo_hall_164">
<path d="M81 1188C81 1183.58 84.5817 1180 89 1180H223C227.418 1180 231 1183.58 231 1188V1281C231 1285.42 227.418 1289 223 1289H89C84.5817 1289 81 1285.42 81 1281V1188Z" fill="#F7FBFF"/>
<path d="M223 1286V1289H89L89 1286H223ZM228 1281V1188C228 1185.24 225.761 1183 223 1183H89C86.2386 1183 84 1185.24 84 1188V1281C84 1283.76 86.2386 1286 89 1286L89 1289C84.5817 1289 81 1285.42 81 1281V1188C81 1183.58 84.5817 1180 89 1180H223C227.418 1180 231 1183.58 231 1188V1281C231 1285.42 227.418 1289 223 1289V1286C225.761 1286 228 1283.76 228 1281Z" fill="#2E2F33" fill-opacity="0.88"/>
<path d="M164.406 1240.78V1237.53L174.188 1222.38H179.25V1237.44H182.219V1240.78H179.25V1245H175.375V1240.78H164.406ZM168.562 1237.44H175.438V1227H175.188L168.562 1237.28V1237.44Z" fill="black"/>
<path d="M153.031 1245.31C148.625 1245.28 144.187 1242.66 144.219 1234.31C144.219 1226.56 147.75 1222.06 153.281 1222.06C157.656 1222.06 160.656 1224.81 161.156 1228.47H157.125C156.719 1226.75 155.344 1225.59 153.281 1225.59C150 1225.59 148.156 1228.5 148.156 1233.25H148.375C149.531 1231.31 151.719 1230.16 154.188 1230.16C158.25 1230.16 161.375 1233.22 161.375 1237.5C161.375 1242 158.031 1245.34 153.031 1245.31ZM153.031 1242.03C155.562 1242.03 157.438 1240.06 157.438 1237.59C157.438 1235.19 155.594 1233.25 153.094 1233.25C150.562 1233.25 148.625 1235.25 148.594 1237.62C148.625 1240 150.469 1242.03 153.031 1242.03Z" fill="black"/>
<path d="M139.062 1222.38V1245H134.969V1226.34H134.844L129.562 1229.72V1226L135.156 1222.38H139.062Z" fill="black"/>
</g>
<g id="changjo_hall_162">
<path d="M5 998C5 993.582 8.58172 990 13 990H74C78.4183 990 82 993.582 82 998V1134C82 1138.42 78.4183 1142 74 1142H13C8.58172 1142 5 1138.42 5 1134V998Z" fill="#F7FBFF"/>
<path d="M74 1139V1142H13L13 1139H74ZM79 1134V998C79 995.239 76.7614 993 74 993H13C10.2386 993 8 995.239 8 998V1134C8 1136.76 10.2386 1139 13 1139L13 1142L12.5879 1141.99C8.36114 1141.77 5 1138.28 5 1134V998C5 993.582 8.58172 990 13 990H74C78.4183 990 82 993.582 82 998V1134C82 1138.42 78.4183 1142 74 1142V1139C76.7614 1139 79 1136.76 79 1134Z" fill="#2E2F33" fill-opacity="0.88"/>
<path d="M52.8125 1077V1074.06L60.8125 1066.34C63.0938 1064.06 64.2812 1062.72 64.2812 1060.81C64.2812 1058.72 62.625 1057.38 60.4062 1057.38C58.0625 1057.38 56.5625 1058.84 56.5938 1061.12H52.7188C52.6875 1056.84 55.9062 1054.06 60.4375 1054.06C65.0625 1054.06 68.1875 1056.81 68.1875 1060.62C68.1875 1063.19 66.9375 1065.25 62.5 1069.44L58.4688 1073.44V1073.59H68.5312V1077H52.8125Z" fill="black"/>
<path d="M41.0312 1077.31C36.625 1077.28 32.1875 1074.66 32.2188 1066.31C32.2188 1058.56 35.75 1054.06 41.2812 1054.06C45.6562 1054.06 48.6562 1056.81 49.1562 1060.47H45.125C44.7188 1058.75 43.3438 1057.59 41.2812 1057.59C38 1057.59 36.1562 1060.5 36.1562 1065.25H36.375C37.5312 1063.31 39.7188 1062.16 42.1875 1062.16C46.25 1062.16 49.375 1065.22 49.375 1069.5C49.375 1074 46.0312 1077.34 41.0312 1077.31ZM41.0312 1074.03C43.5625 1074.03 45.4375 1072.06 45.4375 1069.59C45.4375 1067.19 43.5938 1065.25 41.0938 1065.25C38.5625 1065.25 36.625 1067.25 36.5938 1069.62C36.625 1072 38.4688 1074.03 41.0312 1074.03Z" fill="black"/>
<path d="M27.0625 1054.38V1077H22.9688V1058.34H22.8438L17.5625 1061.72V1058L23.1562 1054.38H27.0625Z" fill="black"/>
</g>
<g id="changjo_hall_161">
<path d="M79 998C79 993.582 82.5817 990 87 990H148C152.418 990 156 993.582 156 998V1134C156 1138.42 152.418 1142 148 1142H87C82.5817 1142 79 1138.42 79 1134V998Z" fill="#F7FBFF"/>
<path d="M148 1139V1142H87L87 1139H148ZM153 1134V998C153 995.239 150.761 993 148 993H87C84.2386 993 82 995.239 82 998V1134C82 1136.76 84.2386 1139 87 1139L87 1142L86.5879 1141.99C82.3611 1141.77 79 1138.28 79 1134V998C79 993.582 82.5817 990 87 990H148C152.418 990 156 993.582 156 998V1134C156 1138.42 152.418 1142 148 1142V1139C150.761 1139 153 1136.76 153 1134Z" fill="#2E2F33" fill-opacity="0.88"/>
<path d="M139 1054.38V1077H134.906V1058.34H134.781L129.5 1061.72V1058L135.094 1054.38H139Z" fill="black"/>
<path d="M118.031 1077.31C113.625 1077.28 109.187 1074.66 109.219 1066.31C109.219 1058.56 112.75 1054.06 118.281 1054.06C122.656 1054.06 125.656 1056.81 126.156 1060.47H122.125C121.719 1058.75 120.344 1057.59 118.281 1057.59C115 1057.59 113.156 1060.5 113.156 1065.25H113.375C114.531 1063.31 116.719 1062.16 119.187 1062.16C123.25 1062.16 126.375 1065.22 126.375 1069.5C126.375 1074 123.031 1077.34 118.031 1077.31ZM118.031 1074.03C120.562 1074.03 122.437 1072.06 122.437 1069.59C122.437 1067.19 120.594 1065.25 118.094 1065.25C115.562 1065.25 113.625 1067.25 113.594 1069.62C113.625 1072 115.469 1074.03 118.031 1074.03Z" fill="black"/>
<path d="M104.062 1054.38V1077H99.9688V1058.34H99.8438L94.5625 1061.72V1058L100.156 1054.38H104.062Z" fill="black"/>
</g>
<g id="changjo_hall_160">
<path d="M153 998C153 993.582 156.582 990 161 990H221C225.418 990 229 993.582 229 998V1134C229 1138.42 225.418 1142 221 1142H161C156.582 1142 153 1138.42 153 1134V998Z" fill="#F7FBFF"/>
<path d="M221 1139V1142H161L161 1139H221ZM226 1134V998C226 995.239 223.761 993 221 993H161C158.239 993 156 995.239 156 998V1134C156 1136.76 158.239 1139 161 1139L161 1142C156.582 1142 153 1138.42 153 1134V998C153 993.582 156.582 990 161 990H221C225.418 990 229 993.582 229 998V1134C229 1138.42 225.418 1142 221 1142V1139C223.761 1139 226 1136.76 226 1134Z" fill="#2E2F33" fill-opacity="0.88"/>
<path d="M208.156 1077.31C202.719 1077.31 199.469 1073.09 199.469 1065.69C199.469 1058.31 202.719 1054.06 208.156 1054.06C213.562 1054.06 216.844 1058.31 216.844 1065.69C216.844 1073.09 213.594 1077.31 208.156 1077.31ZM208.156 1073.91C211 1073.91 212.75 1071.12 212.75 1065.69C212.75 1060.28 210.969 1057.44 208.156 1057.44C205.344 1057.44 203.562 1060.28 203.562 1065.69C203.562 1071.12 205.312 1073.91 208.156 1073.91Z" fill="black"/>
<path d="M188.031 1077.31C183.625 1077.28 179.187 1074.66 179.219 1066.31C179.219 1058.56 182.75 1054.06 188.281 1054.06C192.656 1054.06 195.656 1056.81 196.156 1060.47H192.125C191.719 1058.75 190.344 1057.59 188.281 1057.59C185 1057.59 183.156 1060.5 183.156 1065.25H183.375C184.531 1063.31 186.719 1062.16 189.187 1062.16C193.25 1062.16 196.375 1065.22 196.375 1069.5C196.375 1074 193.031 1077.34 188.031 1077.31ZM188.031 1074.03C190.562 1074.03 192.437 1072.06 192.437 1069.59C192.437 1067.19 190.594 1065.25 188.094 1065.25C185.562 1065.25 183.625 1067.25 183.594 1069.62C183.625 1072 185.469 1074.03 188.031 1074.03Z" fill="black"/>
<path d="M174.062 1054.38V1077H169.969V1058.34H169.844L164.562 1061.72V1058L170.156 1054.38H174.062Z" fill="black"/>
</g>
<g id="changjo_hall_159">
<path d="M226 998C226 993.582 229.582 990 234 990H297C301.418 990 305 993.582 305 998V1134C305 1138.42 301.418 1142 297 1142H234C229.582 1142 226 1138.42 226 1134V998Z" fill="#F7FBFF"/>
<path d="M297 1139V1142H234L234 1139H297ZM302 1134V998C302 995.239 299.761 993 297 993H234C231.239 993 229 995.239 229 998V1134C229 1136.76 231.239 1139 234 1139L234 1142C229.582 1142 226 1138.42 226 1134V998C226 993.582 229.582 990 234 990H297C301.418 990 305 993.582 305 998V1134C305 1138.42 301.418 1142 297 1142V1139C299.761 1139 302 1136.76 302 1134Z" fill="#2E2F33" fill-opacity="0.88"/>
<path d="M282.344 1054.06C286.781 1054.09 291.156 1056.72 291.188 1065C291.188 1072.81 287.656 1077.31 282.094 1077.31C277.719 1077.31 274.719 1074.59 274.219 1070.84H278.25C278.656 1072.62 280.031 1073.78 282.094 1073.78C285.375 1073.78 287.219 1070.87 287.25 1066.03H287C285.844 1068 283.688 1069.16 281.188 1069.16C277.156 1069.16 274.031 1066.09 274 1061.81C274 1057.37 277.312 1054.03 282.344 1054.06ZM282.375 1057.34C279.844 1057.34 277.938 1059.31 277.969 1061.72C277.969 1064.16 279.781 1066.06 282.312 1066.06C284.812 1066.06 286.781 1064.03 286.75 1061.69C286.75 1059.37 284.906 1057.34 282.375 1057.34Z" fill="black"/>
<path d="M262.594 1077.31C258.062 1077.31 254.75 1074.62 254.625 1070.88H258.594C258.719 1072.72 260.438 1074.03 262.594 1074.03C265.125 1074.03 266.938 1072.19 266.938 1069.69C266.938 1067.09 265.062 1065.25 262.469 1065.25C260.719 1065.22 259.438 1065.84 258.719 1067.19H254.938L256.312 1054.38H269.688V1057.78H259.656L258.969 1063.78H259.188C260.062 1062.78 261.719 1062.06 263.562 1062.06C267.781 1062.06 270.875 1065.22 270.875 1069.56C270.875 1074.09 267.469 1077.31 262.594 1077.31Z" fill="black"/>
<path d="M249.062 1054.38V1077H244.969V1058.34H244.844L239.562 1061.72V1058L245.156 1054.38H249.062Z" fill="black"/>
</g>
<g id="changjo_hall_158">
<path d="M303 998C303 993.582 306.582 990 311 990H372C376.418 990 380 993.582 380 998V1134C380 1138.42 376.418 1142 372 1142H311C306.582 1142 303 1138.42 303 1134V998Z" fill="#F7FBFF"/>
<path d="M372 1139V1142H311L311 1139H372ZM377 1134V998C377 995.239 374.761 993 372 993H311C308.239 993 306 995.239 306 998V1134C306 1136.76 308.239 1139 311 1139L311 1142L310.588 1141.99C306.361 1141.77 303 1138.28 303 1134V998C303 993.582 306.582 990 311 990H372C376.418 990 380 993.582 380 998V1134C380 1138.42 376.418 1142 372 1142V1139C374.761 1139 377 1136.76 377 1134Z" fill="#2E2F33" fill-opacity="0.88"/>
<path d="M358.531 1077.31C353.5 1077.31 349.938 1074.62 349.938 1070.94C349.938 1068.06 352.062 1065.72 354.781 1065.28V1065.16C352.406 1064.66 350.781 1062.59 350.781 1060.12C350.781 1056.62 354.062 1054.06 358.531 1054.06C362.969 1054.06 366.25 1056.62 366.25 1060.12C366.25 1062.59 364.594 1064.66 362.25 1065.16V1065.28C364.969 1065.72 367.125 1068.06 367.125 1070.94C367.125 1074.62 363.531 1077.31 358.531 1077.31ZM358.531 1074.09C361.188 1074.09 362.938 1072.66 362.938 1070.56C362.938 1068.44 361.062 1066.88 358.531 1066.88C355.969 1066.88 354.094 1068.44 354.125 1070.56C354.094 1072.66 355.844 1074.09 358.531 1074.09ZM358.531 1063.84C360.719 1063.84 362.281 1062.47 362.281 1060.5C362.281 1058.59 360.75 1057.25 358.531 1057.25C356.281 1057.25 354.75 1058.56 354.75 1060.5C354.75 1062.47 356.312 1063.84 358.531 1063.84Z" fill="black"/>
<path d="M338.594 1077.31C334.062 1077.31 330.75 1074.62 330.625 1070.88H334.594C334.719 1072.72 336.438 1074.03 338.594 1074.03C341.125 1074.03 342.938 1072.19 342.938 1069.69C342.938 1067.09 341.062 1065.25 338.469 1065.25C336.719 1065.22 335.438 1065.84 334.719 1067.19H330.938L332.312 1054.38H345.688V1057.78H335.656L334.969 1063.78H335.188C336.062 1062.78 337.719 1062.06 339.562 1062.06C343.781 1062.06 346.875 1065.22 346.875 1069.56C346.875 1074.09 343.469 1077.31 338.594 1077.31Z" fill="black"/>
<path d="M325.062 1054.38V1077H320.969V1058.34H320.844L315.562 1061.72V1058L321.156 1054.38H325.062Z" fill="black"/>
</g>
<g id="changjo_hall_157">
<path d="M377 998C377 993.582 380.582 990 385 990H445C449.418 990 453 993.582 453 998V1134C453 1138.42 449.418 1142 445 1142H385C380.582 1142 377 1138.42 377 1134V998Z" fill="#F7FBFF"/>
<path d="M445 1139V1142H385L385 1139H445ZM450 1134V998C450 995.239 447.761 993 445 993H385C382.239 993 380 995.239 380 998V1134C380 1136.76 382.239 1139 385 1139L385 1142C380.582 1142 377 1138.42 377 1134V998C377 993.582 380.582 990 385 990H445C449.418 990 453 993.582 453 998V1134C453 1138.42 449.418 1142 445 1142V1139C447.761 1139 450 1136.76 450 1134Z" fill="#2E2F33" fill-opacity="0.88"/>
<path d="M426.156 1077L435.969 1057.94V1057.78H424.594V1054.38H440.188V1057.84L430.375 1077H426.156Z" fill="black"/>
<path d="M413.594 1077.31C409.062 1077.31 405.75 1074.62 405.625 1070.88H409.594C409.719 1072.72 411.438 1074.03 413.594 1074.03C416.125 1074.03 417.938 1072.19 417.938 1069.69C417.938 1067.09 416.062 1065.25 413.469 1065.25C411.719 1065.22 410.438 1065.84 409.719 1067.19H405.938L407.312 1054.38H420.688V1057.78H410.656L409.969 1063.78H410.188C411.062 1062.78 412.719 1062.06 414.562 1062.06C418.781 1062.06 421.875 1065.22 421.875 1069.56C421.875 1074.09 418.469 1077.31 413.594 1077.31Z" fill="black"/>
<path d="M400.062 1054.38V1077H395.969V1058.34H395.844L390.562 1061.72V1058L396.156 1054.38H400.062Z" fill="black"/>
</g>
<g id="changjo_hall_156">
<path d="M450 998C450 993.582 453.582 990 458 990H519C523.418 990 527 993.582 527 998V1134C527 1138.42 523.418 1142 519 1142H458C453.582 1142 450 1138.42 450 1134V998Z" fill="#F7FBFF"/>
<path d="M519 1139V1142H458L458 1139H519ZM524 1134V998C524 995.239 521.761 993 519 993H458C455.239 993 453 995.239 453 998V1134C453 1136.76 455.239 1139 458 1139L458 1142L457.588 1141.99C453.361 1141.77 450 1138.28 450 1134V998C450 993.582 453.582 990 458 990H519C523.418 990 527 993.582 527 998V1134C527 1138.42 523.418 1142 519 1142V1139C521.761 1139 524 1136.76 524 1134Z" fill="#2E2F33" fill-opacity="0.88"/>
<path d="M505.781 1077.31C501.375 1077.28 496.938 1074.66 496.969 1066.31C496.969 1058.56 500.5 1054.06 506.031 1054.06C510.406 1054.06 513.406 1056.81 513.906 1060.47H509.875C509.469 1058.75 508.094 1057.59 506.031 1057.59C502.75 1057.59 500.906 1060.5 500.906 1065.25H501.125C502.281 1063.31 504.469 1062.16 506.938 1062.16C511 1062.16 514.125 1065.22 514.125 1069.5C514.125 1074 510.781 1077.34 505.781 1077.31ZM505.781 1074.03C508.313 1074.03 510.188 1072.06 510.188 1069.59C510.188 1067.19 508.344 1065.25 505.844 1065.25C503.313 1065.25 501.375 1067.25 501.344 1069.62C501.375 1072 503.219 1074.03 505.781 1074.03Z" fill="black"/>
<path d="M485.594 1077.31C481.062 1077.31 477.75 1074.62 477.625 1070.88H481.594C481.719 1072.72 483.438 1074.03 485.594 1074.03C488.125 1074.03 489.938 1072.19 489.938 1069.69C489.938 1067.09 488.062 1065.25 485.469 1065.25C483.719 1065.22 482.438 1065.84 481.719 1067.19H477.938L479.312 1054.38H492.688V1057.78H482.656L481.969 1063.78H482.188C483.062 1062.78 484.719 1062.06 486.562 1062.06C490.781 1062.06 493.875 1065.22 493.875 1069.56C493.875 1074.09 490.469 1077.31 485.594 1077.31Z" fill="black"/>
<path d="M472.062 1054.38V1077H467.969V1058.34H467.844L462.562 1061.72V1058L468.156 1054.38H472.062Z" fill="black"/>
</g>
<g id="changjo_hall_1f_toilet_left_boy">
<path d="M882.5 162.5C882.5 158.082 886.082 154.5 890.5 154.5H951.5C955.918 154.5 959.5 158.082 959.5 162.5V212C959.5 216.418 963.082 220 967.5 220H977.5C981.918 220 985.5 223.582 985.5 228V257.5C985.5 261.918 981.918 265.5 977.5 265.5H890.5C886.082 265.5 882.5 261.918 882.5 257.5V162.5Z" fill="#FED9C4"/>
<path d="M977.5 262.5V265.5H890.5L890.5 262.5H977.5ZM982.5 257.5V228C982.5 225.239 980.261 223 977.5 223H967.5C961.425 223 956.5 218.075 956.5 212V162.5C956.5 159.739 954.261 157.5 951.5 157.5H890.5C887.739 157.5 885.5 159.739 885.5 162.5V257.5C885.5 260.261 887.739 262.5 890.5 262.5L890.5 265.5C886.082 265.5 882.5 261.918 882.5 257.5V162.5C882.5 158.082 886.082 154.5 890.5 154.5H951.5C955.918 154.5 959.5 158.082 959.5 162.5V212C959.5 216.418 963.082 220 967.5 220H977.5C981.918 220 985.5 223.582 985.5 228V257.5C985.5 261.918 981.918 265.5 977.5 265.5V262.5C980.261 262.5 982.5 260.261 982.5 257.5Z" fill="#2E2F33" fill-opacity="0.88"/>
<path d="M935.75 184.25H910.25C903.623 184.25 898.25 189.623 898.25 196.25V221.75C898.25 228.377 903.623 233.75 910.25 233.75H935.75C942.377 233.75 947.75 228.377 947.75 221.75V196.25C947.75 189.623 942.377 184.25 935.75 184.25Z" fill="#3076D1"/>
<path d="M925.725 221.889L931.191 209.342C932.046 207.378 930.608 205.181 928.466 205.181H917.535C915.394 205.181 913.953 207.378 914.81 209.342L920.276 221.889C921.314 224.271 924.691 224.271 925.729 221.889H925.725Z" fill="white"/>
<path d="M923 202.388C925.227 202.388 927.032 200.583 927.032 198.356C927.032 196.129 925.227 194.324 923 194.324C920.773 194.324 918.968 196.129 918.968 198.356C918.968 200.583 920.773 202.388 923 202.388Z" fill="white"/>
</g>
<g id="changjo_hall_1f_toilet_right_boy">
<path d="M725 1185C725 1180.58 728.582 1177 733 1177H807C811.418 1177 815 1180.58 815 1185V1281C815 1285.42 811.418 1289 807 1289H733C728.582 1289 725 1285.42 725 1281V1185Z" fill="#FED9C4"/>
<path d="M807 1286V1289H733L733 1286H807ZM812 1281V1185C812 1182.24 809.761 1180 807 1180H733C730.239 1180 728 1182.24 728 1185V1281C728 1283.76 730.239 1286 733 1286L733 1289L732.588 1288.99C728.361 1288.77 725 1285.28 725 1281V1185C725 1180.58 728.582 1177 733 1177H807C811.418 1177 815 1180.58 815 1185V1281C815 1285.42 811.418 1289 807 1289V1286C809.761 1286 812 1283.76 812 1281Z" fill="#2E2F33" fill-opacity="0.88"/>
<path d="M782.75 1208.25H757.25C750.623 1208.25 745.25 1213.62 745.25 1220.25V1245.75C745.25 1252.38 750.623 1257.75 757.25 1257.75H782.75C789.377 1257.75 794.75 1252.38 794.75 1245.75V1220.25C794.75 1213.62 789.377 1208.25 782.75 1208.25Z" fill="#3076D1"/>
<path d="M772.725 1245.89L778.191 1233.34C779.046 1231.38 777.608 1229.18 775.466 1229.18H764.535C762.394 1229.18 760.953 1231.38 761.81 1233.34L767.276 1245.89C768.314 1248.27 771.691 1248.27 772.729 1245.89H772.725Z" fill="white"/>
<path d="M770 1226.39C772.227 1226.39 774.032 1224.58 774.032 1222.36C774.032 1220.13 772.227 1218.32 770 1218.32C767.773 1218.32 765.968 1220.13 765.968 1222.36C765.968 1224.58 767.773 1226.39 770 1226.39Z" fill="white"/>
</g>
<g id="changjo_hall_1f_toilet_left_girl">
<path d="M1032.5 162.5C1032.5 158.082 1036.08 154.5 1040.5 154.5H1109.5C1113.92 154.5 1117.5 158.082 1117.5 162.5V226.5C1117.5 230.918 1113.92 234.5 1109.5 234.5H1040.5C1036.08 234.5 1032.5 230.918 1032.5 226.5V162.5Z" fill="#FED9C4"/>
<path d="M1109.5 231.5V234.5H1040.5L1040.5 231.5H1109.5ZM1114.5 226.5V162.5C1114.5 159.739 1112.26 157.5 1109.5 157.5H1040.5C1037.74 157.5 1035.5 159.739 1035.5 162.5V226.5C1035.5 229.261 1037.74 231.5 1040.5 231.5L1040.5 234.5L1040.09 234.489C1035.86 234.275 1032.5 230.78 1032.5 226.5V162.5C1032.5 158.082 1036.08 154.5 1040.5 154.5H1109.5C1113.92 154.5 1117.5 158.082 1117.5 162.5V226.5C1117.5 230.918 1113.92 234.5 1109.5 234.5V231.5C1112.26 231.5 1114.5 229.261 1114.5 226.5Z" fill="#2E2F33" fill-opacity="0.88"/>
<path d="M1087.75 169.25H1062.25C1055.62 169.25 1050.25 174.623 1050.25 181.25V206.75C1050.25 213.377 1055.62 218.75 1062.25 218.75H1087.75C1094.38 218.75 1099.75 213.377 1099.75 206.75V181.25C1099.75 174.623 1094.38 169.25 1087.75 169.25Z" fill="#E76D6D"/>
<path d="M1072.27 191.976L1066.81 204.524C1065.95 206.488 1067.39 208.685 1069.53 208.685H1080.46C1082.61 208.685 1084.05 206.488 1083.19 204.524L1077.72 191.976C1076.69 189.594 1073.31 189.594 1072.27 191.976H1072.27Z" fill="white"/>
<path d="M1075 187.381C1077.23 187.381 1079.03 185.575 1079.03 183.348C1079.03 181.122 1077.23 179.317 1075 179.317C1072.77 179.317 1070.97 181.122 1070.97 183.348C1070.97 185.575 1072.77 187.381 1075 187.381Z" fill="white"/>
</g>
<g id="changjo_hall_1f_toilet_right_girl">
<path d="M812 1185C812 1180.58 815.582 1177 820 1177H895C899.418 1177 903 1180.58 903 1185V1281C903 1285.42 899.418 1289 895 1289H820C815.582 1289 812 1285.42 812 1281V1185Z" fill="#FED9C4"/>
<path d="M895 1286V1289H820L820 1286H895ZM900 1281V1185C900 1182.24 897.761 1180 895 1180H820C817.239 1180 815 1182.24 815 1185V1281C815 1283.76 817.239 1286 820 1286L820 1289L819.588 1288.99C815.361 1288.77 812 1285.28 812 1281V1185C812 1180.58 815.582 1177 820 1177H895C899.418 1177 903 1180.58 903 1185V1281C903 1285.42 899.418 1289 895 1289V1286C897.761 1286 900 1283.76 900 1281Z" fill="#2E2F33" fill-opacity="0.88"/>
<path d="M870.75 1208.25H845.25C838.623 1208.25 833.25 1213.62 833.25 1220.25V1245.75C833.25 1252.38 838.623 1257.75 845.25 1257.75H870.75C877.377 1257.75 882.75 1252.38 882.75 1245.75V1220.25C882.75 1213.62 877.377 1208.25 870.75 1208.25Z" fill="#E76D6D"/>
<path d="M855.275 1230.98L849.808 1243.52C848.953 1245.49 850.392 1247.68 852.534 1247.68H863.464C865.606 1247.68 867.046 1245.49 866.19 1243.52L860.724 1230.98C859.686 1228.59 856.309 1228.59 855.271 1230.98H855.275Z" fill="white"/>
<path d="M858 1226.38C860.227 1226.38 862.032 1224.58 862.032 1222.35C862.032 1220.12 860.227 1218.32 858 1218.32C855.773 1218.32 853.968 1220.12 853.968 1222.35C853.968 1224.58 855.773 1226.38 858 1226.38Z" fill="white"/>
</g>
<g id="changjo_hall_1f_toilet_left_disabled">
<path d="M1032.5 265.5C1032.5 261.082 1036.08 257.5 1040.5 257.5H1109.5C1113.92 257.5 1117.5 261.082 1117.5 265.5V296.5C1117.5 300.918 1113.92 304.5 1109.5 304.5H1040.5C1036.08 304.5 1032.5 300.918 1032.5 296.5V265.5Z" fill="#FED9C4"/>
<path d="M1109.5 301.5V304.5H1040.5L1040.5 301.5H1109.5ZM1114.5 296.5V265.5C1114.5 262.739 1112.26 260.5 1109.5 260.5H1040.5C1037.74 260.5 1035.5 262.739 1035.5 265.5V296.5C1035.5 299.261 1037.74 301.5 1040.5 301.5L1040.5 304.5L1040.09 304.489C1035.86 304.275 1032.5 300.78 1032.5 296.5V265.5C1032.5 261.082 1036.08 257.5 1040.5 257.5H1109.5C1113.92 257.5 1117.5 261.082 1117.5 265.5V296.5C1117.5 300.918 1113.92 304.5 1109.5 304.5V301.5C1112.26 301.5 1114.5 299.261 1114.5 296.5Z" fill="#2E2F33" fill-opacity="0.88"/>
<path d="M1083.08 265.325H1066.92C1062.73 265.325 1059.33 268.728 1059.33 272.925V289.075C1059.33 293.272 1062.73 296.675 1066.92 296.675H1083.08C1087.27 296.675 1090.67 293.272 1090.67 289.075V272.925C1090.67 268.728 1087.27 265.325 1083.08 265.325Z" fill="#291F98"/>
<path d="M1079.97 274.967C1081.59 275.274 1082.99 273.879 1082.68 272.257C1082.51 271.357 1081.77 270.62 1080.87 270.449C1079.25 270.142 1077.85 271.537 1078.16 273.158C1078.33 274.058 1079.07 274.796 1079.97 274.966L1079.97 274.967Z" fill="white"/>
<path d="M1082 280.07H1077.06L1079.34 277.788C1079.97 277.163 1079.97 276.15 1079.34 275.526L1078.08 274.261C1078.05 274.232 1078.03 274.197 1078 274.171L1074.53 271.346C1074.31 271.167 1074 271.149 1073.76 271.303L1070.48 273.416C1070.08 273.674 1069.96 274.207 1070.22 274.607C1070.48 275.008 1071.01 275.123 1071.41 274.866L1074.05 273.172L1075.49 274.345L1072.47 277.363C1071.97 277.863 1071.87 278.609 1072.17 279.208C1069.1 279.581 1066.71 282.203 1066.71 285.377C1066.71 288.805 1069.5 291.595 1072.93 291.595C1076.35 291.595 1079.14 288.805 1079.14 285.377C1079.14 284.401 1078.91 283.48 1078.51 282.658H1080.52L1080 286.572C1079.91 287.279 1080.41 287.93 1081.11 288.024C1081.82 288.118 1082.47 287.621 1082.57 286.913L1083.28 281.536C1083.38 280.761 1082.78 280.072 1082 280.072L1082 280.07ZM1077.42 285.375C1077.42 287.853 1075.4 289.869 1072.93 289.869C1070.45 289.869 1068.43 287.853 1068.43 285.375C1068.43 282.896 1070.45 280.881 1072.93 280.881C1073.23 280.881 1073.53 280.914 1073.81 280.971C1074.28 281.064 1074.7 281.245 1075.11 281.469C1075.61 281.751 1076.05 282.123 1076.41 282.569C1076.43 282.599 1076.46 282.626 1076.48 282.656C1077.06 283.413 1077.42 284.349 1077.42 285.375Z" fill="white"/>
</g>
<g id="changjo_hall_1f_elevator_left">
<path d="M606 162C606 157.582 609.582 154 614 154H674C678.418 154 682 157.582 682 162V205C682 209.418 678.418 213 674 213H614C609.582 213 606 209.418 606 205V162Z" fill="#C4C4C4"/>
<path d="M674 210V213H614L614 210H674ZM679 205V162C679 159.239 676.761 157 674 157H614C611.239 157 609 159.239 609 162V205C609 207.761 611.239 210 614 210L614 213C609.582 213 606 209.418 606 205V162C606 157.582 609.582 154 614 154H674C678.418 154 682 157.582 682 162V205C682 209.418 678.418 213 674 213V210C676.761 210 679 207.761 679 205Z" fill="#2E2F33" fill-opacity="0.88"/>
<path d="M654.625 163.375H633.375C627.853 163.375 623.375 167.852 623.375 173.375V194.625C623.375 200.147 627.853 204.625 633.375 204.625H654.625C660.147 204.625 664.625 200.147 664.625 194.625V173.375C664.625 167.852 660.147 163.375 654.625 163.375ZM645.02 171.434H646.174C646.289 171.434 646.381 171.341 646.381 171.226V168.675C646.381 168.577 646.46 168.499 646.557 168.499H648.449C648.546 168.499 648.625 168.577 648.625 168.675V171.226C648.625 171.341 648.717 171.434 648.832 171.434H649.986C650.153 171.434 650.235 171.634 650.118 171.751L647.759 174.11C647.618 174.251 647.389 174.251 647.249 174.11L644.89 171.751C644.772 171.634 644.855 171.434 645.02 171.434ZM637.327 170.964L639.686 168.605C639.827 168.464 640.056 168.464 640.196 168.605L642.555 170.964C642.673 171.081 642.589 171.281 642.424 171.281H641.27C641.155 171.281 641.062 171.374 641.062 171.489V174.04C641.062 174.137 640.984 174.216 640.886 174.216H638.995C638.898 174.216 638.819 174.137 638.819 174.04V171.489C638.819 171.374 638.726 171.281 638.611 171.281H637.458C637.291 171.281 637.21 171.081 637.327 170.964ZM659.29 193.34C659.29 196.355 656.838 198.808 653.823 198.808H634.176C631.161 198.808 628.709 196.355 628.709 193.34V181.54C628.709 178.525 631.161 176.073 634.176 176.073H653.823C656.838 176.073 659.29 178.525 659.29 181.54V193.34Z" fill="#4592FB"/>
<path d="M653.823 177.04H634.176C631.695 177.04 629.676 179.059 629.676 181.54V193.34C629.676 195.821 631.695 197.841 634.176 197.841H653.823C656.304 197.841 658.323 195.822 658.323 193.34V181.54C658.323 179.059 656.304 177.04 653.823 177.04ZM651.61 179.925C652.245 179.925 652.76 180.44 652.76 181.075C652.76 181.71 652.245 182.225 651.61 182.225C650.975 182.225 650.46 181.71 650.46 181.075C650.46 180.44 650.975 179.925 651.61 179.925ZM643.866 179.925C644.501 179.925 645.016 180.44 645.016 181.075C645.016 181.71 644.501 182.225 643.866 182.225C643.231 182.225 642.716 181.71 642.716 181.075C642.716 180.44 643.231 179.925 643.866 179.925ZM636.122 179.925C636.757 179.925 637.272 180.44 637.272 181.075C637.272 181.71 636.757 182.225 636.122 182.225C635.487 182.225 634.972 181.71 634.972 181.075C634.972 180.44 635.487 179.925 636.122 179.925ZM639.455 188.081C639.455 188.441 639.162 188.734 638.802 188.734C638.442 188.734 638.15 188.441 638.15 188.081V184.663H637.809V194.084C637.809 194.477 637.49 194.796 637.096 194.796C636.703 194.796 636.384 194.477 636.384 194.084V188.665H635.859V194.084C635.859 194.477 635.54 194.796 635.146 194.796C634.753 194.796 634.434 194.477 634.434 194.084V184.663H633.995V188.081C633.995 188.441 633.703 188.734 633.343 188.734C632.983 188.734 632.69 188.441 632.69 188.081V184.051C632.69 183.33 633.274 182.746 633.995 182.746H638.147C638.868 182.746 639.452 183.33 639.452 184.051V188.081H639.455ZM647.199 188.081C647.199 188.441 646.906 188.734 646.546 188.734C646.186 188.734 645.894 188.441 645.894 188.081V184.663H645.553V194.084C645.553 194.477 645.234 194.796 644.84 194.796C644.446 194.796 644.127 194.477 644.127 194.084V188.665H643.604V194.084C643.604 194.477 643.285 194.796 642.891 194.796C642.498 194.796 642.179 194.477 642.179 194.084V184.663H641.74V188.081C641.74 188.441 641.448 188.734 641.088 188.734C640.728 188.734 640.435 188.441 640.435 188.081V184.051C640.435 183.33 641.019 182.746 641.74 182.746H645.893C646.614 182.746 647.198 183.33 647.198 184.051L647.199 188.081ZM654.942 188.081C654.942 188.441 654.65 188.734 654.29 188.734C653.93 188.734 653.637 188.441 653.637 188.081V184.663H653.296V194.084C653.296 194.477 652.978 194.796 652.584 194.796C652.19 194.796 651.871 194.477 651.871 194.084V188.665H651.346V194.084C651.346 194.477 651.028 194.796 650.634 194.796C650.24 194.796 649.921 194.477 649.921 194.084V184.663H649.482V188.081C649.482 188.441 649.19 188.734 648.83 188.734C648.47 188.734 648.177 188.441 648.177 188.081V184.051C648.177 183.33 648.761 182.746 649.482 182.746H653.635C654.356 182.746 654.94 183.33 654.94 184.051V188.081H654.942Z" fill="#4592FB"/>
<path d="M643.866 182.225C644.501 182.225 645.016 181.71 645.016 181.075C645.016 180.44 644.501 179.925 643.866 179.925C643.231 179.925 642.716 180.44 642.716 181.075C642.716 181.71 643.231 182.225 643.866 182.225Z" fill="white"/>
<path d="M636.122 182.225C636.757 182.225 637.272 181.71 637.272 181.075C637.272 180.44 636.757 179.925 636.122 179.925C635.487 179.925 634.972 180.44 634.972 181.075C634.972 181.71 635.487 182.225 636.122 182.225Z" fill="white"/>
<path d="M651.61 182.225C652.245 182.225 652.76 181.71 652.76 181.075C652.76 180.44 652.245 179.925 651.61 179.925C650.975 179.925 650.46 180.44 650.46 181.075C650.46 181.71 650.975 182.225 651.61 182.225Z" fill="white"/>
<path d="M653.825 176.075H634.175C631.163 176.075 628.712 178.525 628.712 181.538V193.337C628.712 196.35 631.163 198.812 634.175 198.812H653.825C656.838 198.812 659.287 196.35 659.287 193.337V181.538C659.287 178.525 656.838 176.075 653.825 176.075ZM658.325 193.337C658.325 195.825 656.3 197.838 653.825 197.838H634.175C631.7 197.838 629.675 195.825 629.675 193.337V181.538C629.675 179.063 631.7 177.038 634.175 177.038H653.825C656.3 177.038 658.325 179.063 658.325 181.538V193.337Z" fill="white"/>
<path d="M654.938 184.05V188.075C654.938 188.438 654.65 188.737 654.287 188.737C653.925 188.737 653.637 188.438 653.637 188.075V184.663L653.3 184.663V194.087C653.3 194.475 652.975 194.8 652.588 194.8C652.188 194.8 651.875 194.475 651.875 194.087V188.662H651.35V194.087C651.35 194.475 651.025 194.8 650.637 194.8C650.237 194.8 649.925 194.475 649.925 194.087V184.663H649.487V188.075C649.487 188.438 649.188 188.737 648.838 188.737C648.475 188.737 648.175 188.438 648.175 188.075V184.05C648.175 183.325 648.763 182.75 649.487 182.75H653.637C654.362 182.75 654.938 183.325 654.938 184.05Z" fill="white"/>
<path d="M639.45 184.05V188.075C639.45 188.438 639.162 188.737 638.8 188.737C638.438 188.737 638.15 188.438 638.15 188.075L638.15 184.663L637.812 184.663V194.087C637.812 194.475 637.487 194.8 637.1 194.8C636.7 194.8 636.388 194.475 636.388 194.087V188.662H635.862V194.087C635.862 194.475 635.538 194.8 635.15 194.8C634.75 194.8 634.438 194.475 634.438 194.087V184.663H634V188.075C634 188.438 633.7 188.737 633.35 188.737C632.988 188.737 632.688 188.438 632.688 188.075V184.05C632.688 183.325 633.275 182.75 634 182.75H638.15C638.875 182.75 639.45 183.325 639.45 184.05Z" fill="white"/>
<path d="M647.2 184.05V188.075C647.2 188.438 646.912 188.737 646.55 188.737C646.188 188.737 645.9 188.438 645.9 188.075V184.663H645.55V194.087C645.55 194.475 645.237 194.8 644.837 194.8C644.45 194.8 644.125 194.475 644.125 194.087V188.662H643.6V194.087C643.6 194.475 643.288 194.8 642.888 194.8C642.5 194.8 642.175 194.475 642.175 194.087V184.663H641.737V188.075C641.737 188.438 641.45 188.737 641.087 188.737C640.725 188.737 640.438 188.438 640.438 188.075V184.05C640.438 183.325 641.025 182.75 641.737 182.75H645.9C646.612 182.75 647.2 183.325 647.2 184.05Z" fill="white"/>
<path d="M637.459 171.281H638.612C638.728 171.281 638.82 171.374 638.82 171.489V174.04C638.82 174.138 638.899 174.216 638.996 174.216H640.888C640.985 174.216 641.064 174.138 641.064 174.04V171.489C641.064 171.374 641.156 171.281 641.271 171.281H642.425C642.591 171.281 642.674 171.08 642.556 170.964L640.198 168.605C640.056 168.464 639.827 168.464 639.688 168.605L637.329 170.964C637.211 171.081 637.294 171.281 637.459 171.281Z" fill="white"/>
<path d="M647.246 174.11C647.388 174.251 647.616 174.251 647.756 174.11L650.115 171.751C650.232 171.634 650.149 171.434 649.984 171.434H648.83C648.715 171.434 648.622 171.341 648.622 171.226V168.675C648.622 168.577 648.544 168.499 648.446 168.499H646.555C646.458 168.499 646.379 168.577 646.379 168.675V171.226C646.379 171.341 646.286 171.434 646.171 171.434H645.017C644.851 171.434 644.769 171.634 644.886 171.751L647.246 174.11Z" fill="white"/>
</g>
<g id="changjo_hall_1f_stairs_left_main">
<path d="M1079 351C1079 346.582 1082.58 343 1087 343H1175C1179.42 343 1183 346.582 1183 351V485C1183 489.418 1179.42 493 1175 493H1087C1082.58 493 1079 489.418 1079 485V351Z" fill="#D9FFE6"/>
<path d="M1175 490V493H1087L1087 490H1175ZM1180 485V351C1180 348.239 1177.76 346 1175 346H1087C1084.24 346 1082 348.239 1082 351V485C1082 487.761 1084.24 490 1087 490L1087 493L1086.59 492.989C1082.36 492.775 1079 489.28 1079 485V351C1079 346.582 1082.58 343 1087 343H1175C1179.42 343 1183 346.582 1183 351V485C1183 489.418 1179.42 493 1175 493V490C1177.76 490 1180 487.761 1180 485Z" fill="#2E2F33" fill-opacity="0.88"/>
<path d="M1154.94 391.634C1153.89 391.247 1152.73 391.787 1152.34 392.836L1148.58 403.056H1127.28L1130.81 394.29C1131.22 393.252 1130.72 392.071 1129.68 391.654C1128.64 391.237 1127.46 391.743 1127.05 392.778L1107.43 441.581C1107.02 442.619 1107.52 443.8 1108.56 444.217C1108.8 444.316 1109.06 444.364 1109.31 444.364C1110.11 444.364 1110.87 443.884 1111.19 443.093L1115.22 433.071C1115.31 433.083 1115.38 433.121 1115.47 433.121H1137.52L1134.39 441.64C1134 442.688 1134.54 443.854 1135.59 444.238C1135.82 444.324 1136.06 444.364 1136.29 444.364C1137.11 444.364 1137.89 443.855 1138.19 443.036L1156.14 394.233C1156.53 393.184 1155.99 392.018 1154.94 391.634ZM1126.07 407.104H1147.09L1143.85 415.91H1122.11L1125.69 407.026C1125.82 407.051 1125.94 407.104 1126.07 407.104ZM1116.83 429.072L1120.51 419.903C1120.61 419.917 1120.69 419.961 1120.79 419.961H1142.36L1139.01 429.072H1116.83Z" fill="#6E4944"/>
</g>
<g id="changjo_hall_1f_stairs_left">
<path d="M679 162C679 157.582 682.582 154 687 154H731C735.418 154 739 157.582 739 162V257C739 261.418 735.418 265 731 265H687C682.582 265 679 261.418 679 257V162Z" fill="#D9FFE6"/>
<path d="M731 262V265H687L687 262H731ZM736 257V162C736 159.239 733.761 157 731 157H687C684.239 157 682 159.239 682 162V257C682 259.761 684.239 262 687 262L687 265L686.588 264.989C682.361 264.775 679 261.28 679 257V162C679 157.582 682.582 154 687 154H731C735.418 154 739 157.582 739 162V257C739 261.418 735.418 265 731 265V262C733.761 262 736 259.761 736 257Z" fill="#2E2F33" fill-opacity="0.88"/>
<path d="M725.758 191.544C725.024 191.273 724.209 191.651 723.938 192.385L721.306 199.539H706.397L708.864 193.403C709.155 192.676 708.804 191.85 708.077 191.558C707.35 191.266 706.525 191.62 706.233 192.344L692.502 226.507C692.211 227.234 692.562 228.06 693.289 228.352C693.462 228.421 693.641 228.455 693.817 228.455C694.379 228.455 694.911 228.119 695.133 227.565L697.953 220.549C698.014 220.558 698.067 220.585 698.13 220.585H713.563L711.37 226.548C711.1 227.282 711.476 228.098 712.211 228.367C712.373 228.426 712.539 228.455 712.7 228.455C713.277 228.455 713.82 228.099 714.031 227.526L726.599 193.363C726.869 192.629 726.493 191.813 725.758 191.544ZM705.552 202.373H720.262L717.994 208.537H702.78L705.28 202.318C705.371 202.336 705.455 202.373 705.552 202.373ZM699.078 217.75L701.657 211.332C701.725 211.342 701.785 211.372 701.856 211.372H716.953L714.606 217.75H699.078Z" fill="#6E4944"/>
</g>
<g id="changjo_hall_1f_stairs_right_main">
<path d="M524 998C524 993.582 527.582 990 532 990H620C624.418 990 628 993.582 628 998V1132C628 1136.42 624.418 1140 620 1140H532C527.582 1140 524 1136.42 524 1132V998Z" fill="#D9FFE6"/>
<path d="M620 1137V1140H532L532 1137H620ZM625 1132V998C625 995.239 622.761 993 620 993H532C529.239 993 527 995.239 527 998V1132C527 1134.76 529.239 1137 532 1137L532 1140L531.588 1139.99C527.361 1139.77 524 1136.28 524 1132V998C524 993.582 527.582 990 532 990H620C624.418 990 628 993.582 628 998V1132C628 1136.42 624.418 1140 620 1140V1137C622.761 1137 625 1134.76 625 1132Z" fill="#2E2F33" fill-opacity="0.88"/>
<path d="M599.94 1038.63C598.892 1038.25 597.728 1038.79 597.341 1039.84L593.58 1050.06H572.281L575.805 1041.29C576.222 1040.25 575.719 1039.07 574.681 1038.65C573.644 1038.24 572.465 1038.74 572.048 1039.78L552.432 1088.58C552.015 1089.62 552.517 1090.8 553.556 1091.22C553.803 1091.32 554.058 1091.36 554.31 1091.36C555.112 1091.36 555.873 1090.88 556.189 1090.09L560.218 1080.07C560.306 1080.08 560.382 1080.12 560.472 1080.12H582.519L579.386 1088.64C579 1089.69 579.537 1090.85 580.587 1091.24C580.818 1091.32 581.055 1091.36 581.286 1091.36C582.11 1091.36 582.885 1090.86 583.187 1090.04L601.142 1041.23C601.527 1040.18 600.99 1039.02 599.94 1038.63ZM571.074 1054.1H592.089L588.849 1062.91H567.114L570.686 1054.03C570.816 1054.05 570.936 1054.1 571.074 1054.1ZM561.825 1076.07L565.51 1066.9C565.606 1066.92 565.694 1066.96 565.794 1066.96H587.361L584.009 1076.07H561.825Z" fill="#6E4944"/>
</g>
<g id="changjo_hall_1f_stairs_right_1">
<path d="M18 1188C18 1183.58 21.5817 1180 26 1180H76C80.4183 1180 84 1183.58 84 1188V1281C84 1285.42 80.4183 1289 76 1289H26C21.5817 1289 18 1285.42 18 1281V1188Z" fill="#D9FFE6"/>
<path d="M76 1286V1289H26V1286H76ZM81 1281V1188C81 1185.24 78.7614 1183 76 1183H26C23.2386 1183 21 1185.24 21 1188V1281C21 1283.76 23.2386 1286 26 1286V1289C21.5817 1289 18 1285.42 18 1281V1188C18 1183.58 21.5817 1180 26 1180H76C80.4183 1180 84 1183.58 84 1188V1281C84 1285.42 80.4183 1289 76 1289V1286C78.7614 1286 81 1283.76 81 1281Z" fill="#2E2F33" fill-opacity="0.88"/>
<path d="M67.758 1216.54C67.024 1216.27 66.2093 1216.65 65.9384 1217.39L63.306 1224.54H48.3971L50.8635 1218.4C51.1554 1217.68 50.8037 1216.85 50.0771 1216.56C49.3505 1216.27 48.5252 1216.62 48.2333 1217.34L34.5024 1251.51C34.2105 1252.23 34.5623 1253.06 35.2889 1253.35C35.4621 1253.42 35.6406 1253.45 35.817 1253.45C36.3787 1253.45 36.9111 1253.12 37.1327 1252.57L39.9529 1245.55C40.0138 1245.56 40.0674 1245.59 40.1304 1245.59H55.5633L53.3699 1251.55C53.1 1252.28 53.4759 1253.1 54.2109 1253.37C54.3726 1253.43 54.5385 1253.45 54.7002 1253.45C55.2767 1253.45 55.8195 1253.1 56.0306 1252.53L68.5991 1218.36C68.8689 1217.63 68.493 1216.81 67.758 1216.54ZM47.5518 1227.37H62.2623L59.9943 1233.54H44.7798L47.2799 1227.32C47.3712 1227.34 47.4552 1227.37 47.5518 1227.37ZM41.0775 1242.75L43.6574 1236.33C43.7246 1236.34 43.7854 1236.37 43.8558 1236.37H58.9527L56.606 1242.75H41.0775Z" fill="#6E4944"/>
</g>
<g id="changjo_hall_1f_stairs_right_2">
<path d="M1093 1292C1093 1287.58 1096.58 1284 1101 1284H1200C1204.42 1284 1208 1287.58 1208 1292V1326C1208 1330.42 1204.42 1334 1200 1334H1101C1096.58 1334 1093 1330.42 1093 1326V1292Z" fill="#D9FFE6"/>
<path d="M1200 1331V1334H1101L1101 1331H1200ZM1205 1326V1292C1205 1289.24 1202.76 1287 1200 1287H1101C1098.24 1287 1096 1289.24 1096 1292V1326C1096 1328.76 1098.24 1331 1101 1331L1101 1334C1096.58 1334 1093 1330.42 1093 1326V1292C1093 1287.72 1096.36 1284.23 1100.59 1284.01L1101 1284H1200C1204.42 1284 1208 1287.58 1208 1292V1326C1208 1330.42 1204.42 1334 1200 1334V1331C1202.76 1331 1205 1328.76 1205 1326Z" fill="#2E2F33" fill-opacity="0.88"/>
<path d="M1166.96 1291.42C1166.26 1291.16 1165.49 1291.53 1165.23 1292.22L1162.72 1299.04H1148.52L1150.87 1293.19C1151.15 1292.5 1150.81 1291.71 1150.12 1291.44C1149.43 1291.16 1148.64 1291.49 1148.36 1292.18L1135.29 1324.72C1135.01 1325.41 1135.34 1326.2 1136.04 1326.48C1136.2 1326.54 1136.37 1326.58 1136.54 1326.58C1137.08 1326.58 1137.58 1326.26 1137.79 1325.73L1140.48 1319.05C1140.54 1319.06 1140.59 1319.08 1140.65 1319.08H1155.35L1153.26 1324.76C1153 1325.46 1153.36 1326.24 1154.06 1326.49C1154.21 1326.55 1154.37 1326.58 1154.52 1326.58C1155.07 1326.58 1155.59 1326.24 1155.79 1325.69L1167.76 1293.15C1168.02 1292.46 1167.66 1291.68 1166.96 1291.42ZM1147.72 1301.74H1161.73L1159.57 1307.61H1145.08L1147.46 1301.68C1147.54 1301.7 1147.62 1301.74 1147.72 1301.74ZM1141.55 1316.38L1144.01 1310.27C1144.07 1310.28 1144.13 1310.31 1144.2 1310.31H1158.57L1156.34 1316.38H1141.55Z" fill="#6E4944"/>
</g>
<g id="changjo_hall_1f_gate_front">
<path d="M644 462C644 502.317 611.317 535 571 535C530.683 535 498 502.317 498 462C498 421.683 530.683 389 571 389C611.317 389 644 421.683 644 462Z" fill="#FAA4FF"/>
<path d="M641 462C641 423.34 609.66 392 571 392C532.34 392 501 423.34 501 462C501 500.66 532.34 532 571 532V535C530.683 535 498 502.317 498 462C498 421.683 530.683 389 571 389C611.317 389 644 421.683 644 462C644 502.317 611.317 535 571 535V532C609.66 532 641 500.66 641 462Z" fill="#2E2F33" fill-opacity="0.88"/>
<path d="M587.018 425.248H554.982C550.574 425.248 547 428.822 547 433.23V490.772C547 495.18 550.574 498.754 554.982 498.754H587.018C591.426 498.754 595 495.18 595 490.772V433.23C595 428.822 591.426 425.248 587.018 425.248Z" fill="#5E403B"/>
<path d="M584.01 467.704C587.16 467.704 589.714 465.15 589.714 462C589.714 458.85 587.16 456.296 584.01 456.296C580.86 456.296 578.306 458.85 578.306 462C578.306 465.15 580.86 467.704 584.01 467.704Z" fill="#FFDE57"/>
<path d="M584.01 464.236C585.245 464.236 586.246 463.235 586.246 462C586.246 460.765 585.245 459.764 584.01 459.764C582.775 459.764 581.774 460.765 581.774 462C581.774 463.235 582.775 464.236 584.01 464.236Z" fill="#CB8C00"/>
<path d="M584.014 459.772H574.518C573.285 459.772 572.286 460.771 572.286 462.004C572.286 463.237 573.285 464.236 574.518 464.236H584.014C585.247 464.236 586.246 463.237 586.246 462.004C586.246 460.771 585.247 459.772 584.014 459.772Z" fill="#CB8C00"/>
</g>
<g id="changjo_hall_1f_gate_back">
<path d="M1086 926C1086 946.435 1069.43 963 1049 963C1028.57 963 1012 946.435 1012 926C1012 905.565 1028.57 889 1049 889C1069.43 889 1086 905.565 1086 926Z" fill="#B1A4FF"/>
<path d="M1083 926C1083 907.222 1067.78 892 1049 892C1030.22 892 1015 907.222 1015 926C1015 944.778 1030.22 960 1049 960V963C1028.57 963 1012 946.435 1012 926C1012 905.565 1028.57 889 1049 889C1069.43 889 1086 905.565 1086 926C1086 946.435 1069.43 963 1049 963V960C1067.78 960 1083 944.778 1083 926Z" fill="#2E2F33" fill-opacity="0.88"/>
<path d="M1057.13 907.375H1040.89C1038.65 907.375 1036.84 909.186 1036.84 911.42V940.586C1036.84 942.82 1038.65 944.631 1040.89 944.631H1057.13C1059.36 944.631 1061.17 942.82 1061.17 940.586V911.42C1061.17 909.186 1059.36 907.375 1057.13 907.375Z" fill="#5E403B"/>
<path d="M1055.6 928.894C1057.2 928.894 1058.49 927.599 1058.49 926.002C1058.49 924.406 1057.2 923.111 1055.6 923.111C1054 923.111 1052.71 924.406 1052.71 926.002C1052.71 927.599 1054 928.894 1055.6 928.894Z" fill="#FFDE57"/>
<path d="M1055.6 927.136C1056.23 927.136 1056.73 926.628 1056.73 926.002C1056.73 925.377 1056.23 924.869 1055.6 924.869C1054.97 924.869 1054.47 925.377 1054.47 926.002C1054.47 926.628 1054.97 927.136 1055.6 927.136Z" fill="#CB8C00"/>
<path d="M1055.6 924.873H1050.79C1050.16 924.873 1049.66 925.38 1049.66 926.005C1049.66 926.629 1050.16 927.136 1050.79 927.136H1055.6C1056.23 927.136 1056.73 926.629 1056.73 926.005C1056.73 925.38 1056.23 924.873 1055.6 924.873Z" fill="#CB8C00"/>
</g>
<g id="changjo_hall_1f_gate_cheongsong">
<path d="M656 107C656 127.435 639.435 144 619 144C598.565 144 582 127.435 582 107C582 86.5655 598.565 70 619 70C639.435 70 656 86.5655 656 107Z" fill="#B1A4FF"/>
<path d="M653 107C653 88.2223 637.778 73 619 73C600.222 73 585 88.2223 585 107C585 125.778 600.222 141 619 141V144C598.565 144 582 127.435 582 107C582 86.5655 598.565 70 619 70C639.435 70 656 86.5655 656 107C656 127.435 639.435 144 619 144V141C637.778 141 653 125.778 653 107Z" fill="#2E2F33" fill-opacity="0.88"/>
<path d="M627.125 88.3748H610.888C608.653 88.3748 606.842 90.1861 606.842 92.4204V121.586C606.842 123.82 608.653 125.631 610.888 125.631H627.125C629.359 125.631 631.171 123.82 631.171 121.586V92.4204C631.171 90.1861 629.359 88.3748 627.125 88.3748Z" fill="#5E403B"/>
<path d="M625.601 109.894C627.197 109.894 628.492 108.599 628.492 107.002C628.492 105.406 627.197 104.111 625.601 104.111C624.004 104.111 622.709 105.406 622.709 107.002C622.709 108.599 624.004 109.894 625.601 109.894Z" fill="#FFDE57"/>
<path d="M625.601 108.136C626.226 108.136 626.734 107.628 626.734 107.002C626.734 106.377 626.226 105.869 625.601 105.869C624.975 105.869 624.467 106.377 624.467 107.002C624.467 107.628 624.975 108.136 625.601 108.136Z" fill="#CB8C00"/>
<path d="M625.603 105.873H620.789C620.165 105.873 619.658 106.38 619.658 107.005C619.658 107.629 620.165 108.136 620.789 108.136H625.603C626.227 108.136 626.734 107.629 626.734 107.005C626.734 106.38 626.227 105.873 625.603 105.873Z" fill="#CB8C00"/>
</g>
<g id="changjo_hall_174">
<path d="M825 1340C825 1335.58 828.582 1332 833 1332H897C901.418 1332 905 1335.58 905 1340V1476C905 1480.42 901.418 1484 897 1484H833C828.582 1484 825 1480.42 825 1476V1340Z" fill="#F7FBFF"/>
<path d="M897 1481V1484H833L833 1481H897ZM902 1476V1340C902 1337.24 899.761 1335 897 1335H833C830.239 1335 828 1337.24 828 1340V1476C828 1478.76 830.239 1481 833 1481L833 1484C828.72 1484 825.225 1480.64 825.011 1476.41L825 1476V1340C825 1335.58 828.582 1332 833 1332H897L897.412 1332.01C901.639 1332.23 905 1335.72 905 1340V1476C905 1480.28 901.639 1483.77 897.412 1483.99L897 1484V1481C899.761 1481 902 1478.76 902 1476Z" fill="#2E2F33" fill-opacity="0.88"/>
<path d="M871.5 1414.78V1411.53L881.281 1396.38H886.344V1411.44H889.312V1414.78H886.344V1419H882.469V1414.78H871.5ZM875.656 1411.44H882.531V1401H882.281L875.656 1411.28V1411.44Z" fill="black"/>
<path d="M856.406 1419L866.219 1399.94V1399.78H854.844V1396.38H870.438V1399.84L860.625 1419H856.406Z" fill="black"/>
<path d="M850.062 1396.38V1419H845.969V1400.34H845.844L840.562 1403.72V1400L846.156 1396.38H850.062Z" fill="black"/>
</g>
</g>
</svg>
