<svg width="1969" height="1144" viewBox="0 0 1969 1144" fill="none" xmlns="http://www.w3.org/2000/svg">
<g id="convergence_hall_floor_1">
<g id="Vector">
<path d="M34 462.502V4.00195L1966 3.00195V1010.5H1514.5V959.002H1453.5V1119.5H998.5V1141H34V656.502H334V599.502H1001V369.002H491.5V462.502H34Z" fill="#999999"/>
<path d="M1969 1013.5H1511.5V962.002H1456.5V1122.5H1001.5V1144H31V653.502H331V596.502H998V372.002H494.5V465.502H31V1.00391L1969 0V1013.5ZM37 7V459.502H488.5V366.002H1004V602.502H337V659.502H37V1138H995.5V1116.5H1450.5V956.002H1517.5V1007.5H1963V6.00293L37 7Z" fill="black"/>
</g>
<g id="convergence_hall_107_">
<path d="M323 272C323 267.582 326.582 264 331 264H480C484.418 264 488 267.582 488 272V335C488 339.418 484.418 343 480 343H331C326.582 343 323 339.418 323 335V272Z" fill="#F7FBFF"/>
<path d="M480 340V343H331L331 340H480ZM485 335V272C485 269.239 482.761 267 480 267H331C328.239 267 326 269.239 326 272V335C326 337.761 328.239 340 331 340L331 343C326.72 343 323.225 339.639 323.011 335.412L323 335V272C323 267.72 326.361 264.225 330.588 264.011L331 264H480L480.412 264.011C484.639 264.225 488 267.72 488 272V335L487.989 335.412C487.775 339.639 484.28 343 480 343V340C482.761 340 485 337.761 485 335Z" fill="#2E2F33" fill-opacity="0.88"/>
</g>
<g id="convergence_hall_1f_bluebellis_stand2">
<path d="M1004 398C1004 393.582 1007.58 390 1012 390H1093C1097.42 390 1101 393.582 1101 398V481C1101 485.418 1097.42 489 1093 489H1012C1007.58 489 1004 485.418 1004 481V398Z" fill="#D9FFE6"/>
<path d="M1093 486V489H1012L1012 486H1093ZM1098 481V398C1098 395.239 1095.76 393 1093 393H1012C1009.24 393 1007 395.239 1007 398V481C1007 483.761 1009.24 486 1012 486L1012 489C1007.58 489 1004 485.418 1004 481V398C1004 393.72 1007.36 390.225 1011.59 390.011L1012 390H1093L1093.41 390.011C1097.64 390.225 1101 393.72 1101 398V481L1100.99 481.412C1100.77 485.639 1097.28 489 1093 489V486C1095.76 486 1098 483.761 1098 481Z" fill="#2E2F33" fill-opacity="0.88"/>
</g>
<g id="void">
<path d="M1177 896C1177 891.582 1180.58 888 1185 888H1270C1274.42 888 1278 891.582 1278 896V1109C1278 1113.42 1274.42 1117 1270 1117H1185C1180.58 1117 1177 1113.42 1177 1109V896Z" fill="#474747"/>
<path d="M1270 1114V1117H1185L1185 1114H1270ZM1275 1109V896C1275 893.239 1272.76 891 1270 891H1185C1182.24 891 1180 893.239 1180 896V1109C1180 1111.76 1182.24 1114 1185 1114L1185 1117L1184.59 1116.99C1180.5 1116.78 1177.22 1113.5 1177.01 1109.41L1177 1109V896C1177 891.72 1180.36 888.225 1184.59 888.011L1185 888H1270C1274.42 888 1278 891.582 1278 896V1109L1277.99 1109.41C1277.77 1113.64 1274.28 1117 1270 1117V1114C1272.76 1114 1275 1111.76 1275 1109Z" fill="#2E2F33" fill-opacity="0.88"/>
</g>
<g id="void_2">
<path d="M1157 548C1157 543.582 1160.58 540 1165 540H1177C1181.42 540 1185 543.582 1185 548V789C1185 793.418 1181.42 797 1177 797H1165C1160.58 797 1157 793.418 1157 789V548Z" fill="#474747"/>
<path d="M1177 794V797H1165L1165 794H1177ZM1182 789V548C1182 545.239 1179.76 543 1177 543H1165C1162.24 543 1160 545.239 1160 548V789C1160 791.761 1162.24 794 1165 794L1165 797L1164.59 796.989C1160.36 796.775 1157 793.28 1157 789V548C1157 543.582 1160.58 540 1165 540H1177C1181.42 540 1185 543.582 1185 548V789L1184.99 789.412C1184.78 793.502 1181.5 796.782 1177.41 796.989L1177 797V794C1179.76 794 1182 791.761 1182 789Z" fill="#2E2F33" fill-opacity="0.88"/>
</g>
<g id="void_3">
<path d="M1850 14C1850 9.58172 1853.58 6 1858 6H1955C1959.42 6 1963 9.58172 1963 14V663C1963 667.418 1959.42 671 1955 671H1858C1853.58 671 1850 667.418 1850 663V14Z" fill="#474747"/>
<path d="M1955 668V671H1858L1858 668H1955ZM1960 663V14C1960 11.2386 1957.76 9 1955 9H1858C1855.24 9 1853 11.2386 1853 14V663C1853 665.761 1855.24 668 1858 668L1858 671C1853.72 671 1850.23 667.639 1850.01 663.412L1850 663V14C1850 9.71994 1853.36 6.22523 1857.59 6.01074L1858 6H1955L1955.41 6.01074C1959.64 6.22523 1963 9.71994 1963 14V663C1963 667.418 1959.42 671 1955 671V668C1957.76 668 1960 665.761 1960 663Z" fill="#2E2F33" fill-opacity="0.88"/>
</g>
<g id="void_4">
<path d="M1281 229C1281 224.582 1284.58 221 1289 221H1446C1450.42 221 1454 224.582 1454 229V284C1454 288.418 1450.42 292 1446 292H1289C1284.58 292 1281 288.418 1281 284V229Z" fill="#474747"/>
<path d="M1446 289V292H1289V289H1446ZM1451 284V229C1451 226.239 1448.76 224 1446 224H1289C1286.24 224 1284 226.239 1284 229V284C1284 286.761 1286.24 289 1289 289V292L1288.59 291.989C1284.36 291.775 1281 288.28 1281 284V229C1281 224.72 1284.36 221.225 1288.59 221.011L1289 221H1446C1450.42 221 1454 224.582 1454 229V284L1453.99 284.412C1453.77 288.639 1450.28 292 1446 292V289C1448.76 289 1451 286.761 1451 284Z" fill="#2E2F33" fill-opacity="0.88"/>
</g>
<g id="void_5">
<path d="M37 181C37 176.582 40.5817 173 45 173H143C147.418 173 151 176.582 151 181V228C151 232.418 147.418 236 143 236H45C40.5817 236 37 232.418 37 228V181Z" fill="#474747"/>
<path d="M143 233V236H45L45 233H143ZM148 228V181C148 178.239 145.761 176 143 176H45C42.3247 176 40.1405 178.101 40.0068 180.743L40 181V228C40 230.761 42.2386 233 45 233L45 236L44.5879 235.989C40.4976 235.782 37.2183 232.502 37.0107 228.412L37 228V181C37 176.582 40.5817 173 45 173H143C147.418 173 151 176.582 151 181V228C151 232.28 147.639 235.775 143.412 235.989L143 236V233C145.761 233 148 230.761 148 228Z" fill="#2E2F33" fill-opacity="0.88"/>
</g>
<g id="void_6">
<path d="M37 117C37 112.582 40.5817 109 45 109H109C113.418 109 117 112.582 117 117V168C117 172.418 113.418 176 109 176H45C40.5817 176 37 172.418 37 168V117Z" fill="#474747"/>
<path d="M109 173V176H45L45 173H109ZM114 168V117C114 114.239 111.761 112 109 112H45C42.2386 112 40 114.239 40 117V168C40 170.761 42.2386 173 45 173L45 176C40.5817 176 37 172.418 37 168V117C37 112.582 40.5817 109 45 109H109L109.412 109.011C113.639 109.225 117 112.72 117 117V168L116.989 168.412C116.782 172.502 113.502 175.782 109.412 175.989L109 176V173C111.761 173 114 170.761 114 168Z" fill="#2E2F33" fill-opacity="0.88"/>
</g>
<g id="void_7">
<path d="M485 233C485 228.582 488.582 225 493 225H999C1003.42 225 1007 228.582 1007 233V359C1007 363.418 1003.42 367 999 367H493C488.582 367 485 363.418 485 359V233Z" fill="#474747"/>
<path d="M999 364V367H493L493 364H999ZM1004 359V233C1004 230.239 1001.76 228 999 228H493C490.239 228 488 230.239 488 233V359C488 361.761 490.239 364 493 364L493 367L492.588 366.989C488.361 366.775 485 363.28 485 359V233C485 228.72 488.361 225.225 492.588 225.011L493 225H999C1003.42 225 1007 228.582 1007 233V359C1007 363.418 1003.42 367 999 367V364C1001.76 364 1004 361.761 1004 359Z" fill="#2E2F33" fill-opacity="0.88"/>
</g>
<g id="convergence_hall_106">
<path d="M37 241C37 236.582 40.5817 233 45 233H262C266.418 233 270 236.582 270 241V452C270 456.418 266.418 460 262 460H45C40.5817 460 37 456.418 37 452V241Z" fill="#F7FBFF"/>
<path d="M262 457V460H45L45 457H262ZM267 452V241C267 238.239 264.761 236 262 236H45C42.2386 236 40 238.239 40 241V452C40 454.761 42.2386 457 45 457L45 460C40.5817 460 37 456.418 37 452V241C37 236.72 40.3611 233.225 44.5879 233.011L45 233H262L262.412 233.011C266.639 233.225 270 236.72 270 241V452L269.989 452.412C269.775 456.639 266.28 460 262 460V457C264.761 457 267 454.761 267 452Z" fill="#2E2F33" fill-opacity="0.88"/>
<path d="M170.906 358.25C166.5 358.219 162.062 355.594 162.094 347.25C162.094 339.5 165.625 335 171.156 335C175.531 335 178.531 337.75 179.031 341.406H175C174.594 339.688 173.219 338.531 171.156 338.531C167.875 338.531 166.031 341.438 166.031 346.188H166.25C167.406 344.25 169.594 343.094 172.062 343.094C176.125 343.094 179.25 346.156 179.25 350.438C179.25 354.938 175.906 358.281 170.906 358.25ZM170.906 354.969C173.438 354.969 175.312 353 175.312 350.531C175.312 348.125 173.469 346.188 170.969 346.188C168.438 346.188 166.5 348.188 166.469 350.562C166.5 352.938 168.344 354.969 170.906 354.969Z" fill="black"/>
<path d="M150.344 358.25C144.906 358.25 141.656 354.031 141.656 346.625C141.656 339.25 144.906 335 150.344 335C155.75 335 159.031 339.25 159.031 346.625C159.031 354.031 155.781 358.25 150.344 358.25ZM150.344 354.844C153.188 354.844 154.938 352.062 154.938 346.625C154.938 341.219 153.156 338.375 150.344 338.375C147.531 338.375 145.75 341.219 145.75 346.625C145.75 352.062 147.5 354.844 150.344 354.844Z" fill="black"/>
<path d="M136.5 335.312V357.938H132.406V339.281H132.281L127 342.656V338.938L132.594 335.312H136.5Z" fill="black"/>
</g>
<g id="convergence_hall_107-1">
<path d="M323 348C323 343.582 326.582 340 331 340H480C484.418 340 488 343.582 488 348V453C488 457.418 484.418 461 480 461H331C326.582 461 323 457.418 323 453V348Z" fill="#F7FBFF"/>
<path d="M480 458V461H331L331 458H480ZM485 453V348C485 345.239 482.761 343 480 343H331C328.239 343 326 345.239 326 348V453C326 455.761 328.239 458 331 458L331 461C326.582 461 323 457.418 323 453V348C323 343.72 326.361 340.225 330.588 340.011L331 340H480L480.412 340.011C484.639 340.225 488 343.72 488 348V453C488 457.418 484.418 461 480 461V458C482.761 458 485 455.761 485 453Z" fill="#2E2F33" fill-opacity="0.88"/>
<path d="M443.344 389.312V411.938H439.25V393.281H439.125L433.844 396.656V392.938L439.438 389.312H443.344Z" fill="black"/>
<path d="M430.281 399V402.281H420.094V399H430.281Z" fill="black"/>
<path d="M402.656 411.938L412.469 392.875V392.719H401.094V389.312H416.688V392.781L406.875 411.938H402.656Z" fill="black"/>
<path d="M390.344 412.25C384.906 412.25 381.656 408.031 381.656 400.625C381.656 393.25 384.906 389 390.344 389C395.75 389 399.031 393.25 399.031 400.625C399.031 408.031 395.781 412.25 390.344 412.25ZM390.344 408.844C393.188 408.844 394.938 406.062 394.938 400.625C394.938 395.219 393.156 392.375 390.344 392.375C387.531 392.375 385.75 395.219 385.75 400.625C385.75 406.062 387.5 408.844 390.344 408.844Z" fill="black"/>
<path d="M376.5 389.312V411.938H372.406V393.281H372.281L367 396.656V392.938L372.594 389.312H376.5Z" fill="black"/>
</g>
<g id="convergence_hall_107">
<path d="M323 78C323 73.5817 326.582 70 331 70H480C484.418 70 488 73.5817 488 78V259C488 263.418 484.418 267 480 267H331C326.582 267 323 263.418 323 259V78Z" fill="#F7FBFF"/>
<path d="M480 264V267H331L331 264H480ZM485 259V78C485 75.2386 482.761 73 480 73H331C328.239 73 326 75.2386 326 78V259C326 261.761 328.239 264 331 264L331 267C326.582 267 323 263.418 323 259V78C323 73.7199 326.361 70.2252 330.588 70.0107L331 70H480L480.412 70.0107C484.639 70.2252 488 73.7199 488 78V259C488 263.418 484.418 267 480 267V264C482.761 264 485 261.761 485 259Z" fill="#2E2F33" fill-opacity="0.88"/>
<path d="M416.656 179.938L426.469 160.875V160.719H415.094V157.312H430.688V160.781L420.875 179.938H416.656Z" fill="black"/>
<path d="M404.344 180.25C398.906 180.25 395.656 176.031 395.656 168.625C395.656 161.25 398.906 157 404.344 157C409.75 157 413.031 161.25 413.031 168.625C413.031 176.031 409.781 180.25 404.344 180.25ZM404.344 176.844C407.188 176.844 408.938 174.062 408.938 168.625C408.938 163.219 407.156 160.375 404.344 160.375C401.531 160.375 399.75 163.219 399.75 168.625C399.75 174.062 401.5 176.844 404.344 176.844Z" fill="black"/>
<path d="M390.5 157.312V179.938H386.406V161.281H386.281L381 164.656V160.938L386.594 157.312H390.5Z" fill="black"/>
</g>
<g id="convergence_hall_108">
<path d="M485 78C485 73.5817 488.582 70 493 70H844C848.418 70 852 73.5817 852 78V220C852 224.418 848.418 228 844 228H493C488.582 228 485 224.418 485 220V78Z" fill="#F7FBFF"/>
<path d="M844 225V228H493L493 225H844ZM849 220V78C849 75.2386 846.761 73 844 73H493C490.239 73 488 75.2386 488 78V220C488 222.761 490.239 225 493 225L493 228C488.582 228 485 224.418 485 220V78C485 73.7199 488.361 70.2252 492.588 70.0107L493 70H844L844.412 70.0107C848.639 70.2252 852 73.7199 852 78V220C852 224.418 848.418 228 844 228V225C846.761 225 849 222.761 849 220Z" fill="#2E2F33" fill-opacity="0.88"/>
<path d="M685.656 160.25C680.625 160.25 677.062 157.562 677.062 153.875C677.062 151 679.188 148.656 681.906 148.219V148.094C679.531 147.594 677.906 145.531 677.906 143.062C677.906 139.562 681.188 137 685.656 137C690.094 137 693.375 139.562 693.375 143.062C693.375 145.531 691.719 147.594 689.375 148.094V148.219C692.094 148.656 694.25 151 694.25 153.875C694.25 157.562 690.656 160.25 685.656 160.25ZM685.656 157.031C688.312 157.031 690.062 155.594 690.062 153.5C690.062 151.375 688.188 149.812 685.656 149.812C683.094 149.812 681.219 151.375 681.25 153.5C681.219 155.594 682.969 157.031 685.656 157.031ZM685.656 146.781C687.844 146.781 689.406 145.406 689.406 143.438C689.406 141.531 687.875 140.188 685.656 140.188C683.406 140.188 681.875 141.5 681.875 143.438C681.875 145.406 683.438 146.781 685.656 146.781Z" fill="black"/>
<path d="M665.344 160.25C659.906 160.25 656.656 156.031 656.656 148.625C656.656 141.25 659.906 137 665.344 137C670.75 137 674.031 141.25 674.031 148.625C674.031 156.031 670.781 160.25 665.344 160.25ZM665.344 156.844C668.188 156.844 669.938 154.062 669.938 148.625C669.938 143.219 668.156 140.375 665.344 140.375C662.531 140.375 660.75 143.219 660.75 148.625C660.75 154.062 662.5 156.844 665.344 156.844Z" fill="black"/>
<path d="M651.5 137.312V159.938H647.406V141.281H647.281L642 144.656V140.938L647.594 137.312H651.5Z" fill="black"/>
</g>
<g id="convergence_hall_109">
<path d="M849 78C849 73.5817 852.582 70 857 70H1152C1156.42 70 1160 73.5817 1160 78V220C1160 224.418 1156.42 228 1152 228H857C852.582 228 849 224.418 849 220V78Z" fill="#F7FBFF"/>
<path d="M1152 225V228H857L857 225H1152ZM1157 220V78C1157 75.2386 1154.76 73 1152 73H857C854.239 73 852 75.2386 852 78V220C852 222.761 854.239 225 857 225L857 228L856.588 227.989C852.361 227.775 849 224.28 849 220V78C849 73.7199 852.361 70.2252 856.588 70.0107L857 70H1152C1156.42 70 1160 73.5817 1160 78V220C1160 224.418 1156.42 228 1152 228V225C1154.76 225 1157 222.761 1157 220Z" fill="#2E2F33" fill-opacity="0.88"/>
<path d="M1021.47 137C1025.91 137.031 1030.28 139.656 1030.31 147.938C1030.31 155.75 1026.78 160.25 1021.22 160.25C1016.84 160.25 1013.84 157.531 1013.34 153.781H1017.38C1017.78 155.562 1019.16 156.719 1021.22 156.719C1024.5 156.719 1026.34 153.812 1026.38 148.969H1026.12C1024.97 150.938 1022.81 152.094 1020.31 152.094C1016.28 152.094 1013.16 149.031 1013.12 144.75C1013.12 140.312 1016.44 136.969 1021.47 137ZM1021.5 140.281C1018.97 140.281 1017.06 142.25 1017.09 144.656C1017.09 147.094 1018.91 149 1021.44 149C1023.94 149 1025.91 146.969 1025.88 144.625C1025.88 142.312 1024.03 140.281 1021.5 140.281Z" fill="black"/>
<path d="M1001.34 160.25C995.906 160.25 992.656 156.031 992.656 148.625C992.656 141.25 995.906 137 1001.34 137C1006.75 137 1010.03 141.25 1010.03 148.625C1010.03 156.031 1006.78 160.25 1001.34 160.25ZM1001.34 156.844C1004.19 156.844 1005.94 154.062 1005.94 148.625C1005.94 143.219 1004.16 140.375 1001.34 140.375C998.531 140.375 996.75 143.219 996.75 148.625C996.75 154.062 998.5 156.844 1001.34 156.844Z" fill="black"/>
<path d="M987.5 137.312V159.938H983.406V141.281H983.281L978 144.656V140.938L983.594 137.312H987.5Z" fill="black"/>
</g>
<g id="convergence_hall_110">
<path d="M1004 233C1004 228.582 1007.58 225 1012 225H1152C1156.42 225 1160 228.582 1160 233V385C1160 389.418 1156.42 393 1152 393H1012C1007.58 393 1004 389.418 1004 385V233Z" fill="#F7FBFF"/>
<path d="M1152 390V393H1012L1012 390H1152ZM1157 385V233C1157 230.239 1154.76 228 1152 228H1012C1009.24 228 1007 230.239 1007 233V385C1007 387.761 1009.24 390 1012 390L1012 393L1011.59 392.989C1007.5 392.782 1004.22 389.502 1004.01 385.412L1004 385V233C1004 228.582 1007.58 225 1012 225H1152C1156.42 225 1160 228.582 1160 233V385C1160 389.28 1156.64 392.775 1152.41 392.989L1152 393V390C1154.76 390 1157 387.761 1157 385Z" fill="#2E2F33" fill-opacity="0.88"/>
<path d="M1097.03 320.25C1091.59 320.25 1088.34 316.031 1088.34 308.625C1088.34 301.25 1091.59 297 1097.03 297C1102.44 297 1105.72 301.25 1105.72 308.625C1105.72 316.031 1102.47 320.25 1097.03 320.25ZM1097.03 316.844C1099.88 316.844 1101.62 314.062 1101.62 308.625C1101.62 303.219 1099.84 300.375 1097.03 300.375C1094.22 300.375 1092.44 303.219 1092.44 308.625C1092.44 314.062 1094.19 316.844 1097.03 316.844Z" fill="black"/>
<path d="M1083.19 297.312V319.938H1079.09V301.281H1078.97L1073.69 304.656V300.938L1079.28 297.312H1083.19Z" fill="black"/>
<path d="M1068.5 297.312V319.938H1064.41V301.281H1064.28L1059 304.656V300.938L1064.59 297.312H1068.5Z" fill="black"/>
</g>
<g id="convergence_hall_104">
<path d="M693 610C693 605.582 696.582 602 701 602H999C1003.42 602 1007 605.582 1007 610V806C1007 810.418 1003.42 814 999 814H701C696.582 814 693 810.418 693 806V610Z" fill="#F7FBFF"/>
<path d="M999 811V814H701V811H999ZM1004 806V610C1004 607.239 1001.76 605 999 605H701C698.239 605 696 607.239 696 610V806C696 808.761 698.239 811 701 811V814C696.72 814 693.225 810.639 693.011 806.412L693 806V610C693 605.582 696.582 602 701 602H999L999.412 602.011C1003.64 602.225 1007 605.72 1007 610V806C1007 810.28 1003.64 813.775 999.412 813.989L999 814V811C1001.76 811 1004 808.761 1004 806Z" fill="#2E2F33" fill-opacity="0.88"/>
<path d="M859.031 714.719V711.469L868.812 696.312H873.875V711.375H876.844V714.719H873.875V718.938H870V714.719H859.031ZM863.188 711.375H870.062V700.938H869.812L863.188 711.219V711.375Z" fill="black"/>
<path d="M847.344 719.25C841.906 719.25 838.656 715.031 838.656 707.625C838.656 700.25 841.906 696 847.344 696C852.75 696 856.031 700.25 856.031 707.625C856.031 715.031 852.781 719.25 847.344 719.25ZM847.344 715.844C850.188 715.844 851.938 713.062 851.938 707.625C851.938 702.219 850.156 699.375 847.344 699.375C844.531 699.375 842.75 702.219 842.75 707.625C842.75 713.062 844.5 715.844 847.344 715.844Z" fill="black"/>
<path d="M833.5 696.312V718.938H829.406V700.281H829.281L824 703.656V699.938L829.594 696.312H833.5Z" fill="black"/>
</g>
<g id="convergence_hall_105">
<path d="M337 610C337 605.582 340.582 602 345 602H688C692.418 602 696 605.582 696 610V806C696 810.418 692.418 814 688 814H345C340.582 814 337 810.418 337 806V610Z" fill="#F7FBFF"/>
<path d="M688 811V814H345L345 811H688ZM693 806V610C693 607.239 690.761 605 688 605H345C342.239 605 340 607.239 340 610V806C340 808.761 342.239 811 345 811L345 814C340.72 814 337.225 810.639 337.011 806.412L337 806V610C337 605.72 340.361 602.225 344.588 602.011L345 602H688L688.412 602.011C692.639 602.225 696 605.72 696 610V806C696 810.418 692.418 814 688 814V811C690.761 811 693 808.761 693 806Z" fill="#2E2F33" fill-opacity="0.88"/>
<path d="M534.469 719.25C529.938 719.25 526.625 716.562 526.5 712.812H530.469C530.594 714.656 532.312 715.969 534.469 715.969C537 715.969 538.812 714.125 538.812 711.625C538.812 709.031 536.938 707.188 534.344 707.188C532.594 707.156 531.312 707.781 530.594 709.125H526.812L528.188 696.312H541.562V699.719H531.531L530.844 705.719H531.062C531.938 704.719 533.594 704 535.438 704C539.656 704 542.75 707.156 542.75 711.5C542.75 716.031 539.344 719.25 534.469 719.25Z" fill="black"/>
<path d="M514.344 719.25C508.906 719.25 505.656 715.031 505.656 707.625C505.656 700.25 508.906 696 514.344 696C519.75 696 523.031 700.25 523.031 707.625C523.031 715.031 519.781 719.25 514.344 719.25ZM514.344 715.844C517.188 715.844 518.938 713.062 518.938 707.625C518.938 702.219 517.156 699.375 514.344 699.375C511.531 699.375 509.75 702.219 509.75 707.625C509.75 713.062 511.5 715.844 514.344 715.844Z" fill="black"/>
<path d="M500.5 696.312V718.938H496.406V700.281H496.281L491 703.656V699.938L496.594 696.312H500.5Z" fill="black"/>
</g>
<g id="convergence_hall_102">
<path d="M472 886C472 881.582 475.582 878 480 878H815C819.418 878 823 881.582 823 886V1130C823 1134.42 819.418 1138 815 1138H480C475.582 1138 472 1134.42 472 1130V886Z" fill="#F7FBFF"/>
<path d="M815 1135V1138H480L480 1135H815ZM820 1130V886C820 883.239 817.761 881 815 881H480C477.239 881 475 883.239 475 886V1130C475 1132.76 477.239 1135 480 1135L480 1138C475.72 1138 472.225 1134.64 472.011 1130.41L472 1130V886C472 881.72 475.361 878.225 479.588 878.011L480 878H815L815.412 878.011C819.639 878.225 823 881.72 823 886V1130C823 1134.42 819.418 1138 815 1138V1135C817.761 1135 820 1132.76 820 1130Z" fill="#2E2F33" fill-opacity="0.88"/>
<path d="M657.437 1018.94V1016L665.437 1008.28C667.719 1006 668.906 1004.66 668.906 1002.75C668.906 1000.66 667.25 999.312 665.031 999.312C662.687 999.312 661.187 1000.78 661.219 1003.06H657.344C657.312 998.781 660.531 996 665.062 996C669.687 996 672.812 998.75 672.812 1002.56C672.812 1005.12 671.562 1007.19 667.125 1011.38L663.094 1015.38V1015.53H673.156V1018.94H657.437Z" fill="black"/>
<path d="M645.344 1019.25C639.906 1019.25 636.656 1015.03 636.656 1007.62C636.656 1000.25 639.906 996 645.344 996C650.75 996 654.031 1000.25 654.031 1007.62C654.031 1015.03 650.781 1019.25 645.344 1019.25ZM645.344 1015.84C648.188 1015.84 649.938 1013.06 649.938 1007.62C649.938 1002.22 648.156 999.375 645.344 999.375C642.531 999.375 640.75 1002.22 640.75 1007.62C640.75 1013.06 642.5 1015.84 645.344 1015.84Z" fill="black"/>
<path d="M631.5 996.312V1018.94H627.406V1000.28H627.281L622 1003.66V999.938L627.594 996.312H631.5Z" fill="black"/>
</g>
<g id="convergence_hall_103">
<path d="M37 886C37 881.582 40.5817 878 45 878H467C471.418 878 475 881.582 475 886V1130C475 1134.42 471.418 1138 467 1138H45C40.5817 1138 37 1134.42 37 1130V886Z" fill="#F7FBFF"/>
<path d="M467 1135V1138H45L45 1135H467ZM472 1130V886C472 883.239 469.761 881 467 881H45C42.2386 881 40 883.239 40 886V1130C40 1132.76 42.2386 1135 45 1135L45 1138L44.5879 1137.99C40.4976 1137.78 37.2183 1134.5 37.0107 1130.41L37 1130V886C37 881.72 40.3611 878.225 44.5879 878.011L45 878H467C471.418 878 475 881.582 475 886V1130C475 1134.42 471.418 1138 467 1138V1135C469.761 1135 472 1132.76 472 1130Z" fill="#2E2F33" fill-opacity="0.88"/>
<path d="M273.656 1019.25C268.812 1019.25 265.375 1016.62 265.281 1012.81H269.375C269.5 1014.62 271.312 1015.81 273.656 1015.81C276.156 1015.81 277.938 1014.44 277.938 1012.44C277.938 1010.41 276.188 1008.94 273.25 1008.94H271.219V1005.81H273.25C275.656 1005.81 277.344 1004.47 277.312 1002.5C277.344 1000.59 275.906 999.312 273.688 999.312C271.562 999.312 269.719 1000.5 269.656 1002.41H265.75C265.844 998.594 269.281 996 273.719 996C278.312 996 281.281 998.812 281.25 1002.28C281.281 1004.81 279.594 1006.66 277.125 1007.16V1007.34C280.312 1007.78 282.125 1009.81 282.094 1012.66C282.125 1016.47 278.562 1019.25 273.656 1019.25Z" fill="black"/>
<path d="M253.344 1019.25C247.906 1019.25 244.656 1015.03 244.656 1007.62C244.656 1000.25 247.906 996 253.344 996C258.75 996 262.031 1000.25 262.031 1007.62C262.031 1015.03 258.781 1019.25 253.344 1019.25ZM253.344 1015.84C256.188 1015.84 257.938 1013.06 257.938 1007.62C257.938 1002.22 256.156 999.375 253.344 999.375C250.531 999.375 248.75 1002.22 248.75 1007.62C248.75 1013.06 250.5 1015.84 253.344 1015.84Z" fill="black"/>
<path d="M239.5 996.312V1018.94H235.406V1000.28H235.281L230 1003.66V999.938L235.594 996.312H239.5Z" fill="black"/>
</g>
<g id="convergence_hall_101">
<path d="M820 886C820 881.582 823.582 878 828 878H988C992.418 878 996 881.582 996 886V1130C996 1134.42 992.418 1138 988 1138H828C823.582 1138 820 1134.42 820 1130V886Z" fill="#F7FBFF"/>
<path d="M988 1135V1138H828L828 1135H988ZM993 1130V886C993 883.239 990.761 881 988 881H828C825.239 881 823 883.239 823 886V1130C823 1132.76 825.239 1135 828 1135L828 1138C823.72 1138 820.225 1134.64 820.011 1130.41L820 1130V886C820 881.582 823.582 878 828 878H988L988.412 878.011C992.639 878.225 996 881.72 996 886V1130C996 1134.28 992.639 1137.77 988.412 1137.99L988 1138V1135C990.761 1135 993 1132.76 993 1130Z" fill="#2E2F33" fill-opacity="0.88"/>
<path d="M930.625 996.312V1018.94H926.531V1000.28H926.406L921.125 1003.66V999.938L926.719 996.312H930.625Z" fill="black"/>
<path d="M909.344 1019.25C903.906 1019.25 900.656 1015.03 900.656 1007.62C900.656 1000.25 903.906 996 909.344 996C914.75 996 918.031 1000.25 918.031 1007.62C918.031 1015.03 914.781 1019.25 909.344 1019.25ZM909.344 1015.84C912.188 1015.84 913.938 1013.06 913.938 1007.62C913.938 1002.22 912.156 999.375 909.344 999.375C906.531 999.375 904.75 1002.22 904.75 1007.62C904.75 1013.06 906.5 1015.84 909.344 1015.84Z" fill="black"/>
<path d="M895.5 996.312V1018.94H891.406V1000.28H891.281L886 1003.66V999.938L891.594 996.312H895.5Z" fill="black"/>
</g>
<g id="convergence_hall_114">
<path d="M1275 1047C1275 1042.58 1278.58 1039 1283 1039H1443C1447.42 1039 1451 1042.58 1451 1047V1109C1451 1113.42 1447.42 1117 1443 1117H1283C1278.58 1117 1275 1113.42 1275 1109V1047Z" fill="#F7FBFF"/>
<path d="M1443 1114V1117H1283L1283 1114H1443ZM1448 1109V1047C1448 1044.24 1445.76 1042 1443 1042H1283C1280.24 1042 1278 1044.24 1278 1047V1109C1278 1111.76 1280.24 1114 1283 1114L1283 1117C1278.72 1117 1275.23 1113.64 1275.01 1109.41L1275 1109V1047C1275 1042.58 1278.58 1039 1283 1039H1443L1443.41 1039.01C1447.64 1039.23 1451 1042.72 1451 1047V1109C1451 1113.28 1447.64 1116.77 1443.41 1116.99L1443 1117V1114C1445.76 1114 1448 1111.76 1448 1109Z" fill="#2E2F33" fill-opacity="0.88"/>
<path d="M1368.28 1085.41V1082.16L1378.06 1067H1383.12V1082.06H1386.09V1085.41H1383.12V1089.62H1379.25V1085.41H1368.28ZM1372.44 1082.06H1379.31V1071.62H1379.06L1372.44 1081.91V1082.06Z" fill="black"/>
<path d="M1363.19 1067V1089.62H1359.09V1070.97H1358.97L1353.69 1074.34V1070.62L1359.28 1067H1363.19Z" fill="black"/>
<path d="M1348.5 1067V1089.62H1344.41V1070.97H1344.28L1339 1074.34V1070.62L1344.59 1067H1348.5Z" fill="black"/>
</g>
<g id="convergence_hall_115">
<path d="M1275 965C1275 960.582 1278.58 957 1283 957H1394C1398.42 957 1402 960.582 1402 965V1034C1402 1038.42 1398.42 1042 1394 1042H1283C1278.58 1042 1275 1038.42 1275 1034V965Z" fill="#F7FBFF"/>
<path d="M1394 1039V1042H1283L1283 1039H1394ZM1399 1034V965C1399 962.239 1396.76 960 1394 960H1283C1280.24 960 1278 962.239 1278 965V1034C1278 1036.76 1280.24 1039 1283 1039L1283 1042L1282.59 1041.99C1278.5 1041.78 1275.22 1038.5 1275.01 1034.41L1275 1034V965C1275 960.72 1278.36 957.225 1282.59 957.011L1283 957H1394C1398.42 957 1402 960.582 1402 965V1034C1402 1038.42 1398.42 1042 1394 1042V1039C1396.76 1039 1399 1036.76 1399 1034Z" fill="#2E2F33" fill-opacity="0.88"/>
<path d="M1352.72 1010.94C1348.19 1010.94 1344.88 1008.25 1344.75 1004.5H1348.72C1348.84 1006.34 1350.56 1007.66 1352.72 1007.66C1355.25 1007.66 1357.06 1005.81 1357.06 1003.31C1357.06 1000.72 1355.19 998.875 1352.59 998.875C1350.84 998.844 1349.56 999.469 1348.84 1000.81H1345.06L1346.44 988H1359.81V991.406H1349.78L1349.09 997.406H1349.31C1350.19 996.406 1351.84 995.688 1353.69 995.688C1357.91 995.688 1361 998.844 1361 1003.19C1361 1007.72 1357.59 1010.94 1352.72 1010.94Z" fill="black"/>
<path d="M1339.19 988V1010.62H1335.09V991.969H1334.97L1329.69 995.344V991.625L1335.28 988H1339.19Z" fill="black"/>
<path d="M1324.5 988V1010.62H1320.41V991.969H1320.28L1315 995.344V991.625L1320.59 988H1324.5Z" fill="black"/>
</g>
<g id="convergence_hall_116">
<path d="M1275 886C1275 881.582 1278.58 878 1283 878H1394C1398.42 878 1402 881.582 1402 886V952C1402 956.418 1398.42 960 1394 960H1283C1278.58 960 1275 956.418 1275 952V886Z" fill="#F7FBFF"/>
<path d="M1394 957V960H1283L1283 957H1394ZM1399 952V886C1399 883.239 1396.76 881 1394 881H1283C1280.24 881 1278 883.239 1278 886V952C1278 954.761 1280.24 957 1283 957L1283 960L1282.59 959.989C1278.36 959.775 1275 956.28 1275 952V886C1275 881.72 1278.36 878.225 1282.59 878.011L1283 878H1394C1398.42 878 1402 881.582 1402 886V952L1401.99 952.412C1401.77 956.639 1398.28 960 1394 960V957C1396.76 957 1399 954.761 1399 952Z" fill="#2E2F33" fill-opacity="0.88"/>
<path d="M1353.16 930.25C1348.75 930.219 1344.31 927.594 1344.34 919.25C1344.34 911.5 1347.88 907 1353.41 907C1357.78 907 1360.78 909.75 1361.28 913.406H1357.25C1356.84 911.688 1355.47 910.531 1353.41 910.531C1350.13 910.531 1348.28 913.438 1348.28 918.188H1348.5C1349.66 916.25 1351.84 915.094 1354.31 915.094C1358.38 915.094 1361.5 918.156 1361.5 922.438C1361.5 926.938 1358.16 930.281 1353.16 930.25ZM1353.16 926.969C1355.69 926.969 1357.56 925 1357.56 922.531C1357.56 920.125 1355.72 918.188 1353.22 918.188C1350.69 918.188 1348.75 920.188 1348.72 922.562C1348.75 924.938 1350.59 926.969 1353.16 926.969Z" fill="black"/>
<path d="M1339.19 907.312V929.938H1335.09V911.281H1334.97L1329.69 914.656V910.938L1335.28 907.312H1339.19Z" fill="black"/>
<path d="M1324.5 907.312V929.938H1320.41V911.281H1320.28L1315 914.656V910.938L1320.59 907.312H1324.5Z" fill="black"/>
</g>
<g id="convergence_hall_117">
<path d="M1275 807C1275 802.582 1278.58 799 1283 799H1394C1398.42 799 1402 802.582 1402 807V873C1402 877.418 1398.42 881 1394 881H1283C1278.58 881 1275 877.418 1275 873V807Z" fill="#F7FBFF"/>
<path d="M1394 878V881H1283L1283 878H1394ZM1399 873V807C1399 804.239 1396.76 802 1394 802H1283C1280.24 802 1278 804.239 1278 807V873C1278 875.761 1280.24 878 1283 878L1283 881L1282.59 880.989C1278.36 880.775 1275 877.28 1275 873V807C1275 802.72 1278.36 799.225 1282.59 799.011L1283 799H1394C1398.42 799 1402 802.582 1402 807V873L1401.99 873.412C1401.77 877.639 1398.28 881 1394 881V878C1396.76 878 1399 875.761 1399 873Z" fill="#2E2F33" fill-opacity="0.88"/>
<path d="M1346.53 851.625L1356.34 832.562V832.406H1344.97V829H1360.56V832.469L1350.75 851.625H1346.53Z" fill="black"/>
<path d="M1340.19 829V851.625H1336.09V832.969H1335.97L1330.69 836.344V832.625L1336.28 829H1340.19Z" fill="black"/>
<path d="M1325.5 829V851.625H1321.41V832.969H1321.28L1316 836.344V832.625L1321.59 829H1325.5Z" fill="black"/>
</g>
<g id="convergence_hall_118">
<path d="M1275 723C1275 718.582 1278.58 715 1283 715H1358C1362.42 715 1366 718.582 1366 723V794C1366 798.418 1362.42 802 1358 802H1283C1278.58 802 1275 798.418 1275 794V723Z" fill="#F7FBFF"/>
<path d="M1358 799V802H1283L1283 799H1358ZM1363 794V723C1363 720.239 1360.76 718 1358 718H1283C1280.24 718 1278 720.239 1278 723V794C1278 796.761 1280.24 799 1283 799L1283 802L1282.59 801.989C1278.36 801.775 1275 798.28 1275 794V723C1275 718.582 1278.58 715 1283 715H1358C1362.42 715 1366 718.582 1366 723V794L1365.99 794.412C1365.78 798.502 1362.5 801.782 1358.41 801.989L1358 802V799C1360.76 799 1363 796.761 1363 794Z" fill="#2E2F33" fill-opacity="0.88"/>
<path d="M1334.91 770.25C1329.88 770.25 1326.31 767.562 1326.31 763.875C1326.31 761 1328.44 758.656 1331.16 758.219V758.094C1328.78 757.594 1327.16 755.531 1327.16 753.062C1327.16 749.562 1330.44 747 1334.91 747C1339.34 747 1342.62 749.562 1342.62 753.062C1342.62 755.531 1340.97 757.594 1338.62 758.094V758.219C1341.34 758.656 1343.5 761 1343.5 763.875C1343.5 767.562 1339.91 770.25 1334.91 770.25ZM1334.91 767.031C1337.56 767.031 1339.31 765.594 1339.31 763.5C1339.31 761.375 1337.44 759.812 1334.91 759.812C1332.34 759.812 1330.47 761.375 1330.5 763.5C1330.47 765.594 1332.22 767.031 1334.91 767.031ZM1334.91 756.781C1337.09 756.781 1338.66 755.406 1338.66 753.438C1338.66 751.531 1337.12 750.188 1334.91 750.188C1332.66 750.188 1331.12 751.5 1331.12 753.438C1331.12 755.406 1332.69 756.781 1334.91 756.781Z" fill="black"/>
<path d="M1321.19 747.312V769.938H1317.09V751.281H1316.97L1311.69 754.656V750.938L1317.28 747.312H1321.19Z" fill="black"/>
<path d="M1306.5 747.312V769.938H1302.41V751.281H1302.28L1297 754.656V750.938L1302.59 747.312H1306.5Z" fill="black"/>
</g>
<g id="convergence_hall_123">
<path d="M1363 723C1363 718.582 1366.58 715 1371 715H1446C1450.42 715 1454 718.582 1454 723V794C1454 798.418 1450.42 802 1446 802H1371C1366.58 802 1363 798.418 1363 794V723Z" fill="#F7FBFF"/>
<path d="M1446 799V802H1371L1371 799H1446ZM1451 794V723C1451 720.239 1448.76 718 1446 718H1371C1368.24 718 1366 720.239 1366 723V794C1366 796.761 1368.24 799 1371 799L1371 802L1370.59 801.989C1366.36 801.775 1363 798.28 1363 794V723C1363 718.582 1366.58 715 1371 715H1446C1450.42 715 1454 718.582 1454 723V794L1453.99 794.412C1453.78 798.502 1450.5 801.782 1446.41 801.989L1446 802V799C1448.76 799 1451 796.761 1451 794Z" fill="#2E2F33" fill-opacity="0.88"/>
<path d="M1425.5 770.25C1420.66 770.25 1417.22 767.625 1417.12 763.812H1421.22C1421.34 765.625 1423.16 766.812 1425.5 766.812C1428 766.812 1429.78 765.438 1429.78 763.438C1429.78 761.406 1428.03 759.938 1425.09 759.938H1423.06V756.812H1425.09C1427.5 756.812 1429.19 755.469 1429.16 753.5C1429.19 751.594 1427.75 750.312 1425.53 750.312C1423.41 750.312 1421.56 751.5 1421.5 753.406H1417.59C1417.69 749.594 1421.12 747 1425.56 747C1430.16 747 1433.12 749.812 1433.09 753.281C1433.12 755.812 1431.44 757.656 1428.97 758.156V758.344C1432.16 758.781 1433.97 760.812 1433.94 763.656C1433.97 767.469 1430.41 770.25 1425.5 770.25Z" fill="black"/>
<path d="M1398 769.938V767L1406 759.281C1408.28 757 1409.47 755.656 1409.47 753.75C1409.47 751.656 1407.81 750.312 1405.59 750.312C1403.25 750.312 1401.75 751.781 1401.78 754.062H1397.91C1397.87 749.781 1401.09 747 1405.62 747C1410.25 747 1413.37 749.75 1413.37 753.562C1413.37 756.125 1412.12 758.188 1407.69 762.375L1403.66 766.375V766.531H1413.72V769.938H1398Z" fill="black"/>
<path d="M1392.5 747.312V769.938H1388.41V751.281H1388.28L1383 754.656V750.938L1388.59 747.312H1392.5Z" fill="black"/>
</g>
<g id="convergence_hall_122">
<path d="M1363 639C1363 634.582 1366.58 631 1371 631H1446C1450.42 631 1454 634.582 1454 639V710C1454 714.418 1450.42 718 1446 718H1371C1366.58 718 1363 714.418 1363 710V639Z" fill="#F7FBFF"/>
<path d="M1446 715V718H1371L1371 715H1446ZM1451 710V639C1451 636.239 1448.76 634 1446 634H1371C1368.24 634 1366 636.239 1366 639V710C1366 712.761 1368.24 715 1371 715L1371 718L1370.59 717.989C1366.36 717.775 1363 714.28 1363 710V639C1363 634.582 1366.58 631 1371 631H1446C1450.42 631 1454 634.582 1454 639V710L1453.99 710.412C1453.78 714.502 1450.5 717.782 1446.41 717.989L1446 718V715C1448.76 715 1451 712.761 1451 710Z" fill="#2E2F33" fill-opacity="0.88"/>
<path d="M1417.28 685.938V683L1425.28 675.281C1427.56 673 1428.75 671.656 1428.75 669.75C1428.75 667.656 1427.09 666.312 1424.87 666.312C1422.53 666.312 1421.03 667.781 1421.06 670.062H1417.19C1417.16 665.781 1420.37 663 1424.91 663C1429.53 663 1432.66 665.75 1432.66 669.562C1432.66 672.125 1431.41 674.188 1426.97 678.375L1422.94 682.375V682.531H1433V685.938H1417.28Z" fill="black"/>
<path d="M1398 685.938V683L1406 675.281C1408.28 673 1409.47 671.656 1409.47 669.75C1409.47 667.656 1407.81 666.312 1405.59 666.312C1403.25 666.312 1401.75 667.781 1401.78 670.062H1397.91C1397.87 665.781 1401.09 663 1405.62 663C1410.25 663 1413.37 665.75 1413.37 669.562C1413.37 672.125 1412.12 674.188 1407.69 678.375L1403.66 682.375V682.531H1413.72V685.938H1398Z" fill="black"/>
<path d="M1392.5 663.312V685.938H1388.41V667.281H1388.28L1383 670.656V666.938L1388.59 663.312H1392.5Z" fill="black"/>
</g>
<g id="convergence_hall_119">
<path d="M1275 639C1275 634.582 1278.58 631 1283 631H1358C1362.42 631 1366 634.582 1366 639V710C1366 714.418 1362.42 718 1358 718H1283C1278.58 718 1275 714.418 1275 710V639Z" fill="#F7FBFF"/>
<path d="M1358 715V718H1283L1283 715H1358ZM1363 710V639C1363 636.239 1360.76 634 1358 634H1283C1280.24 634 1278 636.239 1278 639V710C1278 712.761 1280.24 715 1283 715L1283 718L1282.59 717.989C1278.36 717.775 1275 714.28 1275 710V639C1275 634.582 1278.58 631 1283 631H1358C1362.42 631 1366 634.582 1366 639V710L1365.99 710.412C1365.78 714.502 1362.5 717.782 1358.41 717.989L1358 718V715C1360.76 715 1363 712.761 1363 710Z" fill="#2E2F33" fill-opacity="0.88"/>
<path d="M1334.72 663C1339.16 663.031 1343.53 665.656 1343.56 673.937C1343.56 681.75 1340.03 686.25 1334.47 686.25C1330.09 686.25 1327.09 683.531 1326.59 679.781H1330.62C1331.03 681.562 1332.41 682.719 1334.47 682.719C1337.75 682.719 1339.59 679.812 1339.62 674.969H1339.38C1338.22 676.937 1336.06 678.094 1333.56 678.094C1329.53 678.094 1326.41 675.031 1326.38 670.75C1326.38 666.312 1329.69 662.969 1334.72 663ZM1334.75 666.281C1332.22 666.281 1330.31 668.25 1330.34 670.656C1330.34 673.094 1332.16 675 1334.69 675C1337.19 675 1339.16 672.969 1339.12 670.625C1339.12 668.312 1337.28 666.281 1334.75 666.281Z" fill="black"/>
<path d="M1321.19 663.312V685.938H1317.09V667.281H1316.97L1311.69 670.656V666.938L1317.28 663.312H1321.19Z" fill="black"/>
<path d="M1306.5 663.312V685.938H1302.41V667.281H1302.28L1297 670.656V666.938L1302.59 663.312H1306.5Z" fill="black"/>
</g>
<g id="convergence_hall_120">
<path d="M1275 566.411C1275 565.806 1275.07 565.203 1275.23 564.62C1276.1 561.544 1279.55 551.024 1288 543C1298 533.5 1312.5 533 1312.5 533H1358C1362.42 533 1366 536.582 1366 541V625.5C1366 629.918 1362.42 633.5 1358 633.5H1283C1278.58 633.5 1275 629.918 1275 625.5V566.411Z" fill="#F7FBFF"/>
<path d="M1358 630.5V633.5H1283L1283 630.5H1358ZM1363 625.5V541C1363 538.239 1360.76 536 1358 536H1312.57C1312.55 536.001 1312.53 536.001 1312.5 536.003C1312.41 536.008 1312.27 536.017 1312.09 536.031C1311.72 536.06 1311.16 536.112 1310.46 536.202C1309.05 536.384 1307.06 536.719 1304.78 537.334C1300.18 538.573 1294.58 540.892 1290.07 545.175C1282.21 552.641 1278.94 562.534 1278.12 565.436C1278.04 565.705 1278 566.027 1278 566.411V625.5C1278 628.261 1280.24 630.5 1283 630.5L1283 633.5L1282.59 633.489C1278.5 633.282 1275.22 630.002 1275.01 625.912L1275 625.5V566.411C1275 565.882 1275.05 565.354 1275.17 564.84L1275.23 564.62C1276.1 561.544 1279.55 551.024 1288 543C1298 533.5 1312.5 533 1312.5 533H1358C1362.42 533 1366 536.582 1366 541V625.5L1365.99 625.912C1365.78 630.002 1362.5 633.282 1358.41 633.489L1358 633.5V630.5C1360.76 630.5 1363 628.261 1363 625.5Z" fill="#2E2F33" fill-opacity="0.88"/>
<path d="M1337.62 595.25C1332.19 595.25 1328.94 591.031 1328.94 583.625C1328.94 576.25 1332.19 572 1337.62 572C1343.03 572 1346.31 576.25 1346.31 583.625C1346.31 591.031 1343.06 595.25 1337.62 595.25ZM1337.62 591.844C1340.47 591.844 1342.22 589.062 1342.22 583.625C1342.22 578.219 1340.44 575.375 1337.62 575.375C1334.81 575.375 1333.03 578.219 1333.03 583.625C1333.03 589.062 1334.78 591.844 1337.62 591.844Z" fill="black"/>
<path d="M1310 594.938V592L1318 584.281C1320.28 582 1321.47 580.656 1321.47 578.75C1321.47 576.656 1319.81 575.312 1317.59 575.312C1315.25 575.312 1313.75 576.781 1313.78 579.062H1309.91C1309.87 574.781 1313.09 572 1317.62 572C1322.25 572 1325.37 574.75 1325.37 578.562C1325.37 581.125 1324.12 583.188 1319.69 587.375L1315.66 591.375V591.531H1325.72V594.938H1310Z" fill="black"/>
<path d="M1304.5 572.312V594.938H1300.41V576.281H1300.28L1295 579.656V575.938L1300.59 572.312H1304.5Z" fill="black"/>
</g>
<g id="convergence_hall_121">
<path d="M1453 566.411C1453 565.806 1452.93 565.203 1452.77 564.62C1451.9 561.544 1448.45 551.024 1440 543C1430 533.5 1415.5 533 1415.5 533H1370C1365.58 533 1362 536.582 1362 541V625.5C1362 629.918 1365.58 633.5 1370 633.5H1445C1449.42 633.5 1453 629.918 1453 625.5V566.411Z" fill="#F7FBFF"/>
<path d="M1370 630.5V633.5H1445V630.5H1370ZM1365 625.5V541C1365 538.239 1367.24 536 1370 536H1415.43C1415.45 536.001 1415.47 536.001 1415.5 536.003C1415.59 536.008 1415.73 536.017 1415.91 536.031C1416.28 536.06 1416.84 536.112 1417.54 536.202C1418.95 536.384 1420.94 536.719 1423.22 537.334C1427.82 538.573 1433.42 540.892 1437.93 545.175C1445.79 552.641 1449.06 562.534 1449.88 565.436C1449.96 565.705 1450 566.027 1450 566.411V625.5C1450 628.261 1447.76 630.5 1445 630.5V633.5L1445.41 633.489C1449.5 633.282 1452.78 630.002 1452.99 625.912L1453 625.5V566.411C1453 565.882 1452.95 565.354 1452.83 564.84L1452.77 564.62C1451.9 561.544 1448.45 551.024 1440 543C1430 533.5 1415.5 533 1415.5 533H1370C1365.58 533 1362 536.582 1362 541V625.5L1362.01 625.912C1362.22 630.002 1365.5 633.282 1369.59 633.489L1370 633.5V630.5C1367.24 630.5 1365 628.261 1365 625.5Z" fill="#2E2F33" fill-opacity="0.88"/>
<path d="M1429.47 572.312V594.938H1425.38V576.281H1425.25L1419.97 579.656V575.938L1425.56 572.312H1429.47Z" fill="black"/>
<path d="M1401 594.938V592L1409 584.281C1411.28 582 1412.47 580.656 1412.47 578.75C1412.47 576.656 1410.81 575.312 1408.59 575.312C1406.25 575.312 1404.75 576.781 1404.78 579.062H1400.91C1400.87 574.781 1404.09 572 1408.62 572C1413.25 572 1416.37 574.75 1416.37 578.562C1416.37 581.125 1415.12 583.188 1410.69 587.375L1406.66 591.375V591.531H1416.72V594.938H1401Z" fill="black"/>
<path d="M1395.5 572.312V594.938H1391.41V576.281H1391.28L1386 579.656V575.938L1391.59 572.312H1395.5Z" fill="black"/>
</g>
<g id="convergence_hall_113">
<path d="M1517 676C1517 671.582 1520.58 668 1525 668H1955C1959.42 668 1963 671.582 1963 676V1000C1963 1004.42 1959.42 1008 1955 1008H1525C1520.58 1008 1517 1004.42 1517 1000V676Z" fill="#F7FBFF"/>
<path d="M1955 1005V1008H1525L1525 1005H1955ZM1960 1000V676C1960 673.239 1957.76 671 1955 671H1525C1522.24 671 1520 673.239 1520 676V1000C1520 1002.76 1522.24 1005 1525 1005L1525 1008C1520.72 1008 1517.23 1004.64 1517.01 1000.41L1517 1000V676C1517 671.582 1520.58 668 1525 668H1955L1955.41 668.011C1959.64 668.225 1963 671.72 1963 676V1000C1963 1004.28 1959.64 1007.77 1955.41 1007.99L1955 1008V1005C1957.76 1005 1960 1002.76 1960 1000Z" fill="#2E2F33" fill-opacity="0.88"/>
<path d="M1754.91 849.25C1750.06 849.25 1746.62 846.625 1746.53 842.812H1750.62C1750.75 844.625 1752.56 845.812 1754.91 845.812C1757.41 845.812 1759.19 844.438 1759.19 842.438C1759.19 840.406 1757.44 838.938 1754.5 838.938H1752.47V835.812H1754.5C1756.91 835.812 1758.59 834.469 1758.56 832.5C1758.59 830.594 1757.16 829.312 1754.94 829.312C1752.81 829.312 1750.97 830.5 1750.91 832.406H1747C1747.09 828.594 1750.53 826 1754.97 826C1759.56 826 1762.53 828.812 1762.5 832.281C1762.53 834.812 1760.84 836.656 1758.38 837.156V837.344C1761.56 837.781 1763.38 839.812 1763.34 842.656C1763.38 846.469 1759.81 849.25 1754.91 849.25Z" fill="black"/>
<path d="M1741.19 826.312V848.938H1737.09V830.281H1736.97L1731.69 833.656V829.938L1737.28 826.312H1741.19Z" fill="black"/>
<path d="M1726.5 826.312V848.938H1722.41V830.281H1722.28L1717 833.656V829.938L1722.59 826.312H1726.5Z" fill="black"/>
</g>
<g id="convergence_hall_112">
<path d="M1516 449C1516 444.582 1519.58 441 1524 441H1845C1849.42 441 1853 444.582 1853 449V663C1853 667.418 1849.42 671 1845 671H1524C1519.58 671 1516 667.418 1516 663V449Z" fill="#F7FBFF"/>
<path d="M1845 668V671H1524L1524 668H1845ZM1850 663V449C1850 446.239 1847.76 444 1845 444H1524C1521.24 444 1519 446.239 1519 449V663C1519 665.761 1521.24 668 1524 668L1524 671L1523.59 670.989C1519.36 670.775 1516 667.28 1516 663V449C1516 444.72 1519.36 441.225 1523.59 441.011L1524 441H1845C1849.42 441 1853 444.582 1853 449V663C1853 667.418 1849.42 671 1845 671V668C1847.76 668 1850 665.761 1850 663Z" fill="#2E2F33" fill-opacity="0.88"/>
<path d="M1691.69 567.938V565L1699.69 557.281C1701.97 555 1703.16 553.656 1703.16 551.75C1703.16 549.656 1701.5 548.312 1699.28 548.312C1696.94 548.312 1695.44 549.781 1695.47 552.062H1691.59C1691.56 547.781 1694.78 545 1699.31 545C1703.94 545 1707.06 547.75 1707.06 551.562C1707.06 554.125 1705.81 556.188 1701.37 560.375L1697.34 564.375V564.531H1707.41V567.938H1691.69Z" fill="black"/>
<path d="M1686.19 545.312V567.938H1682.09V549.281H1681.97L1676.69 552.656V548.938L1682.28 545.312H1686.19Z" fill="black"/>
<path d="M1671.5 545.312V567.938H1667.41V549.281H1667.28L1662 552.656V548.938L1667.59 545.312H1671.5Z" fill="black"/>
</g>
<g id="convergence_hall_111">
<path d="M1516 14C1516 9.58172 1519.58 6 1524 6H1845C1849.42 6 1853 9.58172 1853 14V436C1853 440.418 1849.42 444 1845 444H1524C1519.58 444 1516 440.418 1516 436V14Z" fill="#F7FBFF"/>
<path d="M1845 441V444H1524L1524 441H1845ZM1850 436V14C1850 11.2386 1847.76 9 1845 9H1524C1521.24 9 1519 11.2386 1519 14V436C1519 438.761 1521.24 441 1524 441L1524 444L1523.59 443.989C1519.36 443.775 1516 440.28 1516 436V14C1516 9.71994 1519.36 6.22523 1523.59 6.01074L1524 6H1845C1849.42 6 1853 9.58172 1853 14V436C1853 440.418 1849.42 444 1845 444V441C1847.76 441 1850 438.761 1850 436Z" fill="#2E2F33" fill-opacity="0.88"/>
<path d="M1703.88 214V236.625H1699.78V217.969H1699.66L1694.38 221.344V217.625L1699.97 214H1703.88Z" fill="black"/>
<path d="M1689.19 214V236.625H1685.09V217.969H1684.97L1679.69 221.344V217.625L1685.28 214H1689.19Z" fill="black"/>
<path d="M1674.5 214V236.625H1670.41V217.969H1670.28L1665 221.344V217.625L1670.59 214H1674.5Z" fill="black"/>
</g>
<g id="convergence_hall_1f_bluebellis_stand">
<path d="M1004 569C1004 564.582 1007.58 561 1012 561H1093C1097.42 561 1101 564.582 1101 569V789C1101 793.418 1097.42 797 1093 797H1012C1007.58 797 1004 793.418 1004 789V569Z" fill="#D9FFE6"/>
<path d="M1093 794V797H1012L1012 794H1093ZM1098 789V569C1098 566.239 1095.76 564 1093 564H1012C1009.24 564 1007 566.239 1007 569V789C1007 791.761 1009.24 794 1012 794L1012 797C1007.72 797 1004.23 793.639 1004.01 789.412L1004 789V569C1004 564.72 1007.36 561.225 1011.59 561.011L1012 561H1093L1093.41 561.011C1097.64 561.225 1101 564.72 1101 569V789C1101 793.418 1097.42 797 1093 797V794C1095.76 794 1098 791.761 1098 789Z" fill="#2E2F33" fill-opacity="0.88"/>
<path d="M1090.25 715.75V718.531H1070.44V704.969H1090.03V707.781H1073.88V715.75H1090.25ZM1093.12 724.281V727.156H1067.31V724.281H1093.12Z" fill="black"/>
<path d="M1051.81 704.844V707.594H1044.06V710.562H1051.53V713.281H1044.06V716.406C1047.52 716.375 1049.91 716.25 1052.66 715.75L1053.03 718.531C1049.72 719.125 1046.97 719.219 1042.59 719.219H1040.72V704.844H1051.81ZM1063.81 702.531V723.625H1060.5V713.312H1057.56V722.938H1054.31V703.062H1057.56V710.5H1060.5V702.531H1063.81ZM1064.59 727.375V730.188H1044.91V721.156H1048.38V727.375H1064.59Z" fill="black"/>
<path d="M1026.59 706.375C1026.59 710.75 1030.88 715.125 1036.78 716.156L1035.22 719.062C1030.48 718.062 1026.61 715.203 1024.78 711.406C1022.91 715.172 1019.03 718.047 1014.31 719.062L1012.78 716.156C1018.62 715.094 1022.88 710.719 1022.91 706.375V704.281H1026.59V706.375ZM1037.81 724.281V727.156H1012V724.281H1037.81Z" fill="black"/>
<path d="M1077.02 664.5V692.781H1073.58V664.5H1077.02ZM1068.33 666.969V677.562H1058.61V683.25C1063.06 683.219 1066.91 683 1071.3 682.25L1071.61 685.094C1066.8 685.938 1062.58 686.094 1057.52 686.094H1055.05V674.812H1064.8V669.781H1055.02V666.969H1068.33Z" fill="black"/>
<path d="M1049.98 664.531V679.219H1046.67V664.531H1049.98ZM1044.23 665.062V679.062H1040.98V673.406H1038.08V678.125H1026.92V666.125H1030.2V669.438H1034.86V666.125H1038.08V670.594H1040.98V665.062H1044.23ZM1049.98 680.375V687.594H1034.39V689.812H1050.98V692.5H1030.89V685.031H1046.52V683.062H1030.86V680.375H1049.98ZM1030.2 675.438H1034.86V672.031H1030.2V675.438Z" fill="black"/>
<path d="M1076.27 627.469V635.5H1060.05V638.312H1076.89V641.094H1056.55V632.875H1072.7V630.281H1056.48V627.469H1076.27ZM1079.27 643.5V646.281H1068.05V654.781H1064.58V646.281H1053.45V643.5H1079.27Z" fill="black"/>
<path d="M1032.61 627V629.219H1044.8V627H1048.23V636.438H1029.17V627H1032.61ZM1032.61 633.812H1044.8V631.75H1032.61V633.812ZM1051.58 638.25V640.969H1025.83V638.25H1051.58ZM1048.36 642.969V649.781H1032.3V651.844H1049.14V654.5H1028.89V647.344H1044.95V645.531H1028.86V642.969H1048.36Z" fill="black"/>
</g>
<g id="convergence_hall_1f_toilet_boy_right">
<path d="M1227 14C1227 9.58172 1230.58 6 1235 6H1391C1395.42 6 1399 9.58172 1399 14V103C1399 107.418 1395.42 111 1391 111H1235C1230.58 111 1227 107.418 1227 103V14Z" fill="#FED9C4"/>
<path d="M1391 108V111H1235L1235 108H1391ZM1396 103V14C1396 11.2386 1393.76 9 1391 9H1235C1232.24 9 1230 11.2386 1230 14V103C1230 105.761 1232.24 108 1235 108L1235 111C1230.72 111 1227.23 107.639 1227.01 103.412L1227 103V14C1227 9.71994 1230.36 6.22523 1234.59 6.01074L1235 6H1391L1391.41 6.01074C1395.64 6.22523 1399 9.71995 1399 14V103C1399 107.418 1395.42 111 1391 111V108C1393.76 108 1396 105.761 1396 103Z" fill="#2E2F33" fill-opacity="0.88"/>
<path d="M1325.75 33.25H1300.25C1293.62 33.25 1288.25 38.6226 1288.25 45.25V70.75C1288.25 77.3774 1293.62 82.75 1300.25 82.75H1325.75C1332.38 82.75 1337.75 77.3774 1337.75 70.75V45.25C1337.75 38.6226 1332.38 33.25 1325.75 33.25Z" fill="#3076D1"/>
<path d="M1315.73 70.8895L1321.19 58.342C1322.05 56.3785 1320.61 54.181 1318.47 54.181H1307.54C1305.39 54.181 1303.95 56.3785 1304.81 58.342L1310.28 70.8895C1311.31 73.2715 1314.69 73.2715 1315.73 70.8895H1315.73Z" fill="white"/>
<path d="M1313 51.388C1315.23 51.388 1317.03 49.5828 1317.03 47.356C1317.03 45.1292 1315.23 43.324 1313 43.324C1310.77 43.324 1308.97 45.1292 1308.97 47.356C1308.97 49.5828 1310.77 51.388 1313 51.388Z" fill="white"/>
</g>
<g id="convergence_hall_1f_toilet_boy_left">
<path d="M37 667C37 662.582 40.5817 659 45 659H128C132.418 659 136 662.582 136 667V749.5C136 753.918 139.582 757.5 144 757.5H164.428C168.874 757.5 172.467 761.126 172.427 765.572L172.071 805.072C172.032 809.462 168.462 813 164.072 813H45C40.5817 813 37 809.418 37 805V667Z" fill="#FED9C4"/>
<path d="M164.071 810L164.072 813H45L45 810H164.071ZM133 749.5V667C133 664.239 130.761 662 128 662H45C42.2386 662 40 664.239 40 667V805C40 807.761 42.2386 810 45 810L45 813L44.5879 812.989C40.3611 812.775 37 809.28 37 805V667C37 662.72 40.3611 659.225 44.5879 659.011L45 659H128L128.412 659.011C132.639 659.225 136 662.72 136 667V749.5L136.011 749.912C136.218 754.002 139.498 757.282 143.588 757.489L144 757.5H164.428C168.874 757.5 172.467 761.126 172.427 765.572L172.071 805.072L172.058 805.481C171.808 809.68 168.325 813 164.072 813L164.071 810C166.815 810 169.047 807.789 169.071 805.045L169.428 765.545C169.453 762.766 167.207 760.5 164.428 760.5H144C137.925 760.5 133 755.575 133 749.5Z" fill="#2E2F33" fill-opacity="0.88"/>
<path d="M104.75 711.25H79.25C72.6226 711.25 67.25 716.623 67.25 723.25V748.75C67.25 755.377 72.6226 760.75 79.25 760.75H104.75C111.377 760.75 116.75 755.377 116.75 748.75V723.25C116.75 716.623 111.377 711.25 104.75 711.25Z" fill="#3076D1"/>
<path d="M94.7255 748.889L100.191 736.342C101.047 734.379 99.608 732.181 97.466 732.181H86.5355C84.3935 732.181 82.9535 734.379 83.81 736.342L89.276 748.889C90.314 751.271 93.6905 751.271 94.7285 748.889H94.7255Z" fill="white"/>
<path d="M92 729.388C94.2268 729.388 96.032 727.583 96.032 725.356C96.032 723.129 94.2268 721.324 92 721.324C89.7732 721.324 87.968 723.129 87.968 725.356C87.968 727.583 89.7732 729.388 92 729.388Z" fill="white"/>
</g>
<g id="convergence_hall_1f_toilet_girl_right">
<path d="M1396 14C1396 9.58173 1399.58 6 1404 6H1511C1515.42 6 1519 9.58172 1519 14V157C1519 161.418 1515.42 165 1511 165H1404C1399.58 165 1396 161.418 1396 157V14Z" fill="#FED9C4"/>
<path d="M1511 162V165H1404L1404 162H1511ZM1516 157V14C1516 11.2386 1513.76 9 1511 9H1404C1401.24 9 1399 11.2386 1399 14V157C1399 159.761 1401.24 162 1404 162L1404 165L1403.59 164.989C1399.36 164.775 1396 161.28 1396 157V14C1396 9.71995 1399.36 6.22523 1403.59 6.01074L1404 6H1511C1515.42 6 1519 9.58172 1519 14V157L1518.99 157.412C1518.77 161.639 1515.28 165 1511 165V162C1513.76 162 1516 159.761 1516 157Z" fill="#2E2F33" fill-opacity="0.88"/>
<path d="M1469.75 60.25H1444.25C1437.62 60.25 1432.25 65.6226 1432.25 72.25V97.75C1432.25 104.377 1437.62 109.75 1444.25 109.75H1469.75C1476.38 109.75 1481.75 104.377 1481.75 97.75V72.25C1481.75 65.6226 1476.38 60.25 1469.75 60.25Z" fill="#E76D6D"/>
<path d="M1454.27 82.9765L1448.81 95.524C1447.95 97.4875 1449.39 99.685 1451.53 99.685H1462.46C1464.61 99.685 1466.05 97.4875 1465.19 95.524L1459.72 82.9765C1458.69 80.5945 1455.31 80.5945 1454.27 82.9765H1454.27Z" fill="white"/>
<path d="M1457 78.3805C1459.23 78.3805 1461.03 76.5753 1461.03 74.3485C1461.03 72.1217 1459.23 70.3165 1457 70.3165C1454.77 70.3165 1452.97 72.1217 1452.97 74.3485C1452.97 76.5753 1454.77 78.3805 1457 78.3805Z" fill="white"/>
</g>
<g id="convergence_hall_1f_toilet_girl_left">
<path d="M132.539 667.039C132.517 662.606 136.105 659 140.539 659H264C268.418 659 272 662.582 272 667V805C272 809.418 268.418 813 264 813H177C172.581 813 169 809.418 169 805V768.5C169 764.082 165.418 760.5 161 760.5H140.96C136.557 760.5 132.982 756.942 132.96 752.539L132.539 667.039Z" fill="#FED9C4"/>
<path d="M169 805V768.5C169 764.22 165.638 760.725 161.412 760.511L161 760.5L161 757.5C167.075 757.5 172 762.425 172 768.5V805C172 807.761 174.238 810 177 810V813C172.72 813 169.225 809.639 169.01 805.412L169 805ZM264 810V813H177V810H264ZM269 805V667C269 664.239 266.761 662 264 662H140.539C137.768 662 135.526 664.254 135.54 667.024L135.96 752.524C135.974 755.276 138.209 757.5 140.96 757.5L140.96 760.5L140.55 760.489C136.473 760.283 133.199 757.025 132.973 752.949L132.96 752.539L132.539 667.039C132.517 662.606 136.105 659 140.539 659H264C268.418 659 272 662.582 272 667V805L271.989 805.412C271.781 809.502 268.502 812.782 264.412 812.989L264 813V810C266.761 810 269 807.761 269 805ZM161 757.5L161 760.5H140.96L140.96 757.5H161Z" fill="#2E2F33" fill-opacity="0.88"/>
<path d="M228.75 711.25H203.25C196.622 711.25 191.25 716.623 191.25 723.25V748.75C191.25 755.377 196.622 760.75 203.25 760.75H228.75C235.377 760.75 240.75 755.377 240.75 748.75V723.25C240.75 716.623 235.377 711.25 228.75 711.25Z" fill="#E76D6D"/>
<path d="M213.274 733.977L207.808 746.524C206.953 748.488 208.392 750.685 210.534 750.685H221.464C223.606 750.685 225.046 748.488 224.19 746.524L218.724 733.977C217.686 731.594 214.309 731.594 213.271 733.977H213.274Z" fill="white"/>
<path d="M216 729.381C218.226 729.381 220.032 727.575 220.032 725.349C220.032 723.122 218.226 721.317 216 721.317C213.773 721.317 211.968 723.122 211.968 725.349C211.968 727.575 213.773 729.381 216 729.381Z" fill="white"/>
</g>
<g id="convergence_hall_1f_stairs_right">
<path d="M1277 362C1277 357.582 1280.58 354 1285 354H1446C1450.42 354 1454 357.582 1454 362V445C1454 449.418 1450.42 453 1446 453H1285C1280.58 453 1277 449.418 1277 445V362Z" fill="#D9FFE6"/>
<path d="M1446 450V453H1285L1285 450H1446ZM1451 445V362C1451 359.239 1448.76 357 1446 357H1285C1282.24 357 1280 359.239 1280 362V445C1280 447.761 1282.24 450 1285 450L1285 453L1284.59 452.989C1280.36 452.775 1277 449.28 1277 445V362C1277 357.582 1280.58 354 1285 354H1446C1450.42 354 1454 357.582 1454 362V445L1453.99 445.412C1453.78 449.502 1450.5 452.782 1446.41 452.989L1446 453V450C1448.76 450 1451 447.761 1451 445Z" fill="#2E2F33" fill-opacity="0.88"/>
<path d="M1388.94 376.635C1387.89 376.248 1386.73 376.788 1386.34 377.836L1382.58 388.056H1361.28L1364.81 379.289C1365.22 378.251 1364.72 377.071 1363.68 376.654C1362.64 376.237 1361.46 376.743 1361.05 377.778L1341.43 426.581C1341.01 427.619 1341.52 428.8 1342.56 429.217C1342.8 429.316 1343.06 429.364 1343.31 429.364C1344.11 429.364 1344.87 428.884 1345.19 428.093L1349.22 418.071C1349.31 418.083 1349.38 418.121 1349.47 418.121H1371.52L1368.39 426.64C1368 427.688 1368.54 428.854 1369.59 429.238C1369.82 429.324 1370.06 429.364 1370.29 429.364C1371.11 429.364 1371.89 428.855 1372.19 428.036L1390.14 379.233C1390.53 378.184 1389.99 377.019 1388.94 376.635ZM1360.07 392.104H1381.09L1377.85 400.91H1356.11L1359.69 392.026C1359.82 392.052 1359.94 392.104 1360.07 392.104ZM1350.82 414.071L1354.51 404.903C1354.61 404.917 1354.69 404.96 1354.79 404.96H1376.36L1373.01 414.071H1350.82Z" fill="#6E4944"/>
</g>
<g id="convergence_hall_1f_stairs_left">
<path d="M37 15C37 10.5817 40.5817 7 45 7H208C212.418 7 216 10.5817 216 15V104C216 108.418 212.418 112 208 112H45C40.5817 112 37 108.418 37 104V15Z" fill="#D9FFE6"/>
<path d="M208 109V112H45L45 109H208ZM213 104V15C213 12.2386 210.761 10 208 10H45C42.2386 10 40 12.2386 40 15V104C40 106.761 42.2386 109 45 109L45 112C40.7199 112 37.2252 108.639 37.0107 104.412L37 104V15C37 10.7199 40.3611 7.22523 44.5879 7.01074L45 7H208L208.412 7.01074C212.639 7.22523 216 10.7199 216 15V104C216 108.418 212.418 112 208 112V109C210.761 109 213 106.761 213 104Z" fill="#2E2F33" fill-opacity="0.88"/>
<path d="M149.94 32.6345C148.892 32.2475 147.728 32.7875 147.341 33.836L143.58 44.0555H122.282L125.805 35.2895C126.222 34.2515 125.72 33.071 124.682 32.654C123.644 32.237 122.465 32.7425 122.048 33.7775L102.432 82.5815C102.015 83.6195 102.518 84.8 103.556 85.217C103.803 85.316 104.058 85.364 104.31 85.364C105.112 85.364 105.873 84.884 106.189 84.0935L110.218 74.0705C110.305 74.0825 110.382 74.1215 110.472 74.1215H132.519L129.385 82.64C129 83.6885 129.537 84.854 130.587 85.238C130.818 85.3235 131.055 85.364 131.286 85.364C132.11 85.364 132.885 84.8555 133.187 84.0365L151.142 35.2325C151.527 34.184 150.99 33.0185 149.94 32.6345ZM121.074 48.104H142.089L138.849 56.9105H117.114L120.686 48.026C120.816 48.0515 120.936 48.104 121.074 48.104ZM111.825 70.0715L115.51 60.9035C115.606 60.917 115.693 60.9605 115.794 60.9605H137.361L134.008 70.0715H111.825Z" fill="#6E4944"/>
</g>
<g id="convergence_hall_2f_stairs_main2">
<path d="M1098 398C1098 393.582 1101.58 390 1106 390H1152C1156.42 390 1160 393.582 1160 398V481C1160 485.418 1156.42 489 1152 489H1106C1101.58 489 1098 485.418 1098 481V398Z" fill="#D9FFE6"/>
<path d="M1152 486V489H1106V486H1152ZM1157 481V398C1157 395.239 1154.76 393 1152 393H1106C1103.24 393 1101 395.239 1101 398V481C1101 483.761 1103.24 486 1106 486V489L1105.59 488.989C1101.36 488.775 1098 485.28 1098 481V398C1098 393.72 1101.36 390.225 1105.59 390.011L1106 390H1152C1156.42 390 1160 393.582 1160 398V481L1159.99 481.412C1159.77 485.639 1156.28 489 1152 489V486C1154.76 486 1157 483.761 1157 481Z" fill="#2E2F33" fill-opacity="0.88"/>
<path d="M1145.76 420.544C1145.02 420.273 1144.21 420.651 1143.94 421.385L1141.31 428.539H1126.4L1128.86 422.403C1129.16 421.676 1128.8 420.85 1128.08 420.558C1127.35 420.266 1126.53 420.62 1126.23 421.344L1112.5 455.507C1112.21 456.234 1112.56 457.06 1113.29 457.352C1113.46 457.421 1113.64 457.455 1113.82 457.455C1114.38 457.455 1114.91 457.119 1115.13 456.565L1117.95 449.549C1118.01 449.558 1118.07 449.585 1118.13 449.585H1133.56L1131.37 455.548C1131.1 456.282 1131.48 457.098 1132.21 457.367C1132.37 457.426 1132.54 457.455 1132.7 457.455C1133.28 457.455 1133.82 457.099 1134.03 456.526L1146.6 422.363C1146.87 421.629 1146.49 420.813 1145.76 420.544ZM1125.55 431.373H1140.26L1137.99 437.537H1122.78L1125.28 431.318C1125.37 431.336 1125.46 431.373 1125.55 431.373ZM1119.08 446.75L1121.66 440.332C1121.72 440.342 1121.79 440.372 1121.86 440.372H1136.95L1134.61 446.75H1119.08Z" fill="#6E4944"/>
</g>
<g id="convergence_hall_1f_stairs_main">
<path d="M1098 554C1098 549.582 1101.58 546 1106 546H1152C1156.42 546 1160 549.582 1160 554V647C1160 651.418 1156.42 655 1152 655H1106C1101.58 655 1098 651.418 1098 647V554Z" fill="#D9FFE6"/>
<path d="M1152 652V655H1106V652H1152ZM1157 647V554C1157 551.239 1154.76 549 1152 549H1106C1103.24 549 1101 551.239 1101 554V647C1101 649.761 1103.24 652 1106 652V655L1105.59 654.989C1101.36 654.775 1098 651.28 1098 647V554C1098 549.72 1101.36 546.225 1105.59 546.011L1106 546H1152C1156.42 546 1160 549.582 1160 554V647C1160 651.418 1156.42 655 1152 655V652C1154.76 652 1157 649.761 1157 647Z" fill="#2E2F33" fill-opacity="0.88"/>
<path d="M1145.76 581.544C1145.02 581.273 1144.21 581.651 1143.94 582.385L1141.31 589.539H1126.4L1128.86 583.403C1129.16 582.676 1128.8 581.85 1128.08 581.558C1127.35 581.266 1126.53 581.62 1126.23 582.344L1112.5 616.507C1112.21 617.234 1112.56 618.06 1113.29 618.352C1113.46 618.421 1113.64 618.455 1113.82 618.455C1114.38 618.455 1114.91 618.119 1115.13 617.565L1117.95 610.549C1118.01 610.558 1118.07 610.585 1118.13 610.585H1133.56L1131.37 616.548C1131.1 617.282 1131.48 618.098 1132.21 618.367C1132.37 618.426 1132.54 618.455 1132.7 618.455C1133.28 618.455 1133.82 618.099 1134.03 617.526L1146.6 583.363C1146.87 582.629 1146.49 581.813 1145.76 581.544ZM1125.55 592.373H1140.26L1137.99 598.537H1122.78L1125.28 592.318C1125.37 592.336 1125.46 592.373 1125.55 592.373ZM1119.08 607.75L1121.66 601.332C1121.72 601.342 1121.79 601.372 1121.86 601.372H1136.95L1134.61 607.75H1119.08Z" fill="#6E4944"/>
</g>
<g id="convergence_hall_2f_stairs_main3">
<path d="M1098 704C1098 699.582 1101.58 696 1106 696H1152C1156.42 696 1160 699.582 1160 704V789C1160 793.418 1156.42 797 1152 797H1106C1101.58 797 1098 793.418 1098 789V704Z" fill="#D9FFE6"/>
<path d="M1152 794V797H1106V794H1152ZM1157 789V704C1157 701.239 1154.76 699 1152 699H1106C1103.24 699 1101 701.239 1101 704V789C1101 791.761 1103.24 794 1106 794V797L1105.59 796.989C1101.36 796.775 1098 793.28 1098 789V704C1098 699.72 1101.36 696.225 1105.59 696.011L1106 696H1152C1156.42 696 1160 699.582 1160 704V789C1160 793.418 1156.42 797 1152 797V794C1154.76 794 1157 791.761 1157 789Z" fill="#2E2F33" fill-opacity="0.88"/>
<path d="M1145.76 727.544C1145.02 727.273 1144.21 727.651 1143.94 728.385L1141.31 735.539H1126.4L1128.86 729.403C1129.16 728.676 1128.8 727.85 1128.08 727.558C1127.35 727.266 1126.53 727.62 1126.23 728.344L1112.5 762.507C1112.21 763.234 1112.56 764.06 1113.29 764.352C1113.46 764.421 1113.64 764.455 1113.82 764.455C1114.38 764.455 1114.91 764.119 1115.13 763.565L1117.95 756.549C1118.01 756.558 1118.07 756.585 1118.13 756.585H1133.56L1131.37 762.548C1131.1 763.282 1131.48 764.098 1132.21 764.367C1132.37 764.426 1132.54 764.455 1132.7 764.455C1133.28 764.455 1133.82 764.099 1134.03 763.526L1146.6 729.363C1146.87 728.629 1146.49 727.813 1145.76 727.544ZM1125.55 738.373H1140.26L1137.99 744.537H1122.78L1125.28 738.318C1125.37 738.336 1125.46 738.373 1125.55 738.373ZM1119.08 753.75L1121.66 747.332C1121.72 747.342 1121.79 747.372 1121.86 747.372H1136.95L1134.61 753.75H1119.08Z" fill="#6E4944"/>
</g>
<g id="convergence_hall_1f_elevator_right">
<path d="M1386 297C1386 292.582 1389.58 289 1394 289H1446C1450.42 289 1454 292.582 1454 297V349C1454 353.418 1450.42 357 1446 357H1394C1389.58 357 1386 353.418 1386 349V297Z" fill="#C4C4C4"/>
<path d="M1446 354V357H1394L1394 354H1446ZM1451 349V297C1451 294.239 1448.76 292 1446 292H1394C1391.24 292 1389 294.239 1389 297V349C1389 351.761 1391.24 354 1394 354L1394 357L1393.59 356.989C1389.5 356.782 1386.22 353.502 1386.01 349.412L1386 349V297C1386 292.582 1389.58 289 1394 289H1446C1450.42 289 1454 292.582 1454 297V349C1454 353.28 1450.64 356.775 1446.41 356.989L1446 357V354C1448.76 354 1451 351.761 1451 349Z" fill="#2E2F33" fill-opacity="0.88"/>
<path d="M1430.62 302.375H1409.38C1403.85 302.375 1399.38 306.853 1399.38 312.375V333.625C1399.38 339.147 1403.85 343.625 1409.38 343.625H1430.62C1436.15 343.625 1440.62 339.147 1440.62 333.625V312.375C1440.62 306.853 1436.15 302.375 1430.62 302.375ZM1421.02 310.434H1422.17C1422.29 310.434 1422.38 310.341 1422.38 310.226V307.675C1422.38 307.577 1422.46 307.499 1422.56 307.499H1424.45C1424.55 307.499 1424.62 307.577 1424.62 307.675V310.226C1424.62 310.341 1424.72 310.434 1424.83 310.434H1425.99C1426.15 310.434 1426.24 310.634 1426.12 310.751L1423.76 313.11C1423.62 313.251 1423.39 313.251 1423.25 313.11L1420.89 310.751C1420.77 310.634 1420.85 310.434 1421.02 310.434ZM1413.33 309.964L1415.69 307.605C1415.83 307.464 1416.06 307.464 1416.2 307.605L1418.56 309.964C1418.67 310.081 1418.59 310.281 1418.42 310.281H1417.27C1417.16 310.281 1417.06 310.374 1417.06 310.489V313.04C1417.06 313.137 1416.98 313.216 1416.89 313.216H1415C1414.9 313.216 1414.82 313.137 1414.82 313.04V310.489C1414.82 310.374 1414.73 310.281 1414.61 310.281H1413.46C1413.29 310.281 1413.21 310.081 1413.33 309.964ZM1435.29 332.34C1435.29 335.355 1432.84 337.808 1429.82 337.808H1410.18C1407.16 337.808 1404.71 335.355 1404.71 332.34V320.54C1404.71 317.525 1407.16 315.073 1410.18 315.073H1429.82C1432.84 315.073 1435.29 317.525 1435.29 320.54V332.34Z" fill="#4592FB"/>
<path d="M1429.82 316.04H1410.18C1407.69 316.04 1405.68 318.059 1405.68 320.54V332.34C1405.68 334.821 1407.69 336.841 1410.18 336.841H1429.82C1432.3 336.841 1434.32 334.822 1434.32 332.34V320.54C1434.32 318.059 1432.3 316.04 1429.82 316.04ZM1427.61 318.925C1428.24 318.925 1428.76 319.44 1428.76 320.075C1428.76 320.71 1428.24 321.225 1427.61 321.225C1426.98 321.225 1426.46 320.71 1426.46 320.075C1426.46 319.44 1426.98 318.925 1427.61 318.925ZM1419.87 318.925C1420.5 318.925 1421.02 319.44 1421.02 320.075C1421.02 320.71 1420.5 321.225 1419.87 321.225C1419.23 321.225 1418.72 320.71 1418.72 320.075C1418.72 319.44 1419.23 318.925 1419.87 318.925ZM1412.12 318.925C1412.76 318.925 1413.27 319.44 1413.27 320.075C1413.27 320.71 1412.76 321.225 1412.12 321.225C1411.49 321.225 1410.97 320.71 1410.97 320.075C1410.97 319.44 1411.49 318.925 1412.12 318.925ZM1415.45 327.081C1415.45 327.441 1415.16 327.734 1414.8 327.734C1414.44 327.734 1414.15 327.441 1414.15 327.081V323.663H1413.81V333.084C1413.81 333.477 1413.49 333.796 1413.1 333.796C1412.7 333.796 1412.38 333.477 1412.38 333.084V327.665H1411.86V333.084C1411.86 333.477 1411.54 333.796 1411.15 333.796C1410.75 333.796 1410.43 333.477 1410.43 333.084V323.663H1410V327.081C1410 327.441 1409.7 327.734 1409.34 327.734C1408.98 327.734 1408.69 327.441 1408.69 327.081V323.051C1408.69 322.33 1409.27 321.746 1410 321.746H1414.15C1414.87 321.746 1415.45 322.33 1415.45 323.051V327.081H1415.45ZM1423.2 327.081C1423.2 327.441 1422.91 327.734 1422.55 327.734C1422.19 327.734 1421.89 327.441 1421.89 327.081V323.663H1421.55V333.084C1421.55 333.477 1421.23 333.796 1420.84 333.796C1420.45 333.796 1420.13 333.477 1420.13 333.084V327.665H1419.6V333.084C1419.6 333.477 1419.28 333.796 1418.89 333.796C1418.5 333.796 1418.18 333.477 1418.18 333.084V323.663H1417.74V327.081C1417.74 327.441 1417.45 327.734 1417.09 327.734C1416.73 327.734 1416.44 327.441 1416.44 327.081V323.051C1416.44 322.33 1417.02 321.746 1417.74 321.746H1421.89C1422.61 321.746 1423.2 322.33 1423.2 323.051L1423.2 327.081ZM1430.94 327.081C1430.94 327.441 1430.65 327.734 1430.29 327.734C1429.93 327.734 1429.64 327.441 1429.64 327.081V323.663H1429.3V333.084C1429.3 333.477 1428.98 333.796 1428.58 333.796C1428.19 333.796 1427.87 333.477 1427.87 333.084V327.665H1427.35V333.084C1427.35 333.477 1427.03 333.796 1426.63 333.796C1426.24 333.796 1425.92 333.477 1425.92 333.084V323.663H1425.48V327.081C1425.48 327.441 1425.19 327.734 1424.83 327.734C1424.47 327.734 1424.18 327.441 1424.18 327.081V323.051C1424.18 322.33 1424.76 321.746 1425.48 321.746H1429.64C1430.36 321.746 1430.94 322.33 1430.94 323.051V327.081H1430.94Z" fill="#4592FB"/>
<path d="M1419.87 321.225C1420.5 321.225 1421.02 320.71 1421.02 320.075C1421.02 319.44 1420.5 318.925 1419.87 318.925C1419.23 318.925 1418.72 319.44 1418.72 320.075C1418.72 320.71 1419.23 321.225 1419.87 321.225Z" fill="white"/>
<path d="M1412.12 321.225C1412.76 321.225 1413.27 320.71 1413.27 320.075C1413.27 319.44 1412.76 318.925 1412.12 318.925C1411.49 318.925 1410.97 319.44 1410.97 320.075C1410.97 320.71 1411.49 321.225 1412.12 321.225Z" fill="white"/>
<path d="M1427.61 321.225C1428.24 321.225 1428.76 320.71 1428.76 320.075C1428.76 319.44 1428.24 318.925 1427.61 318.925C1426.98 318.925 1426.46 319.44 1426.46 320.075C1426.46 320.71 1426.98 321.225 1427.61 321.225Z" fill="white"/>
<path d="M1429.83 315.075H1410.18C1407.16 315.075 1404.71 317.525 1404.71 320.538V332.337C1404.71 335.35 1407.16 337.812 1410.18 337.812H1429.83C1432.84 337.812 1435.29 335.35 1435.29 332.337V320.538C1435.29 317.525 1432.84 315.075 1429.83 315.075ZM1434.33 332.337C1434.33 334.825 1432.3 336.838 1429.83 336.838H1410.18C1407.7 336.838 1405.67 334.825 1405.67 332.337V320.538C1405.67 318.063 1407.7 316.038 1410.18 316.038H1429.83C1432.3 316.038 1434.33 318.063 1434.33 320.538V332.337Z" fill="white"/>
<path d="M1430.94 323.05V327.075C1430.94 327.438 1430.65 327.737 1430.29 327.737C1429.92 327.737 1429.64 327.438 1429.64 327.075V323.663L1429.3 323.662V333.087C1429.3 333.475 1428.98 333.8 1428.59 333.8C1428.19 333.8 1427.88 333.475 1427.88 333.087V327.662H1427.35V333.087C1427.35 333.475 1427.02 333.8 1426.64 333.8C1426.24 333.8 1425.92 333.475 1425.92 333.087V323.662H1425.49V327.075C1425.49 327.438 1425.19 327.737 1424.84 327.737C1424.48 327.737 1424.17 327.438 1424.17 327.075V323.05C1424.17 322.325 1424.76 321.75 1425.49 321.75H1429.64C1430.36 321.75 1430.94 322.325 1430.94 323.05Z" fill="white"/>
<path d="M1415.45 323.05V327.075C1415.45 327.438 1415.16 327.737 1414.8 327.737C1414.44 327.737 1414.15 327.438 1414.15 327.075V323.663L1413.81 323.662V333.087C1413.81 333.475 1413.49 333.8 1413.1 333.8C1412.7 333.8 1412.39 333.475 1412.39 333.087V327.662H1411.86V333.087C1411.86 333.475 1411.54 333.8 1411.15 333.8C1410.75 333.8 1410.44 333.475 1410.44 333.087V323.662H1410V327.075C1410 327.438 1409.7 327.737 1409.35 327.737C1408.99 327.737 1408.69 327.438 1408.69 327.075V323.05C1408.69 322.325 1409.27 321.75 1410 321.75H1414.15C1414.88 321.75 1415.45 322.325 1415.45 323.05Z" fill="white"/>
<path d="M1423.2 323.05V327.075C1423.2 327.438 1422.91 327.737 1422.55 327.737C1422.19 327.737 1421.9 327.438 1421.9 327.075V323.662H1421.55V333.087C1421.55 333.475 1421.24 333.8 1420.84 333.8C1420.45 333.8 1420.12 333.475 1420.12 333.087V327.662H1419.6V333.087C1419.6 333.475 1419.29 333.8 1418.89 333.8C1418.5 333.8 1418.17 333.475 1418.17 333.087V323.662H1417.74V327.075C1417.74 327.438 1417.45 327.737 1417.09 327.737C1416.73 327.737 1416.44 327.438 1416.44 327.075V323.05C1416.44 322.325 1417.02 321.75 1417.74 321.75H1421.9C1422.61 321.75 1423.2 322.325 1423.2 323.05Z" fill="white"/>
<path d="M1413.46 310.281H1414.61C1414.73 310.281 1414.82 310.374 1414.82 310.489V313.04C1414.82 313.138 1414.9 313.216 1415 313.216H1416.89C1416.99 313.216 1417.06 313.138 1417.06 313.04V310.489C1417.06 310.374 1417.16 310.281 1417.27 310.281H1418.42C1418.59 310.281 1418.67 310.08 1418.56 309.964L1416.2 307.605C1416.06 307.464 1415.83 307.464 1415.69 307.605L1413.33 309.964C1413.21 310.081 1413.29 310.281 1413.46 310.281Z" fill="white"/>
<path d="M1423.25 313.11C1423.39 313.251 1423.62 313.251 1423.76 313.11L1426.11 310.751C1426.23 310.634 1426.15 310.434 1425.98 310.434H1424.83C1424.71 310.434 1424.62 310.341 1424.62 310.226V307.675C1424.62 307.577 1424.54 307.499 1424.45 307.499H1422.56C1422.46 307.499 1422.38 307.577 1422.38 307.675V310.226C1422.38 310.341 1422.29 310.434 1422.17 310.434H1421.02C1420.85 310.434 1420.77 310.634 1420.89 310.751L1423.25 313.11Z" fill="white"/>
</g>
<g id="convergence_hall_1f_elevator_left">
<path d="M148 176C148 171.582 151.582 168 156 168H208C212.418 168 216 171.582 216 176V228C216 232.418 212.418 236 208 236H156C151.582 236 148 232.418 148 228V176Z" fill="#C4C4C4"/>
<path d="M208 233V236H156L156 233H208ZM213 228V176C213 173.239 210.761 171 208 171H156C153.239 171 151 173.239 151 176V228C151 230.761 153.239 233 156 233L156 236L155.588 235.989C151.498 235.782 148.218 232.502 148.011 228.412L148 228V176C148 171.582 151.582 168 156 168H208C212.418 168 216 171.582 216 176V228C216 232.28 212.639 235.775 208.412 235.989L208 236V233C210.761 233 213 230.761 213 228Z" fill="#2E2F33" fill-opacity="0.88"/>
<path d="M192.625 181.375H171.375C165.853 181.375 161.375 185.853 161.375 191.375V212.625C161.375 218.147 165.853 222.625 171.375 222.625H192.625C198.147 222.625 202.625 218.147 202.625 212.625V191.375C202.625 185.853 198.147 181.375 192.625 181.375ZM183.02 189.434H184.174C184.289 189.434 184.381 189.341 184.381 189.226V186.675C184.381 186.577 184.46 186.499 184.557 186.499H186.449C186.546 186.499 186.625 186.577 186.625 186.675V189.226C186.625 189.341 186.717 189.434 186.832 189.434H187.986C188.153 189.434 188.235 189.634 188.118 189.751L185.759 192.11C185.618 192.251 185.389 192.251 185.249 192.11L182.89 189.751C182.772 189.634 182.855 189.434 183.02 189.434ZM175.327 188.964L177.686 186.605C177.827 186.464 178.056 186.464 178.196 186.605L180.555 188.964C180.673 189.081 180.589 189.281 180.424 189.281H179.27C179.155 189.281 179.062 189.374 179.062 189.489V192.04C179.062 192.137 178.984 192.216 178.886 192.216H176.995C176.898 192.216 176.819 192.137 176.819 192.04V189.489C176.819 189.374 176.726 189.281 176.611 189.281H175.458C175.291 189.281 175.21 189.081 175.327 188.964ZM197.29 211.34C197.29 214.355 194.838 216.808 191.823 216.808H172.176C169.161 216.808 166.709 214.355 166.709 211.34V199.54C166.709 196.525 169.161 194.073 172.176 194.073H191.823C194.838 194.073 197.29 196.525 197.29 199.54V211.34Z" fill="#4592FB"/>
<path d="M191.823 195.04H172.176C169.695 195.04 167.676 197.059 167.676 199.54V211.34C167.676 213.821 169.695 215.841 172.176 215.841H191.823C194.304 215.841 196.323 213.822 196.323 211.34V199.54C196.323 197.059 194.304 195.04 191.823 195.04ZM189.61 197.925C190.245 197.925 190.76 198.44 190.76 199.075C190.76 199.71 190.245 200.225 189.61 200.225C188.975 200.225 188.46 199.71 188.46 199.075C188.46 198.44 188.975 197.925 189.61 197.925ZM181.866 197.925C182.501 197.925 183.016 198.44 183.016 199.075C183.016 199.71 182.501 200.225 181.866 200.225C181.231 200.225 180.716 199.71 180.716 199.075C180.716 198.44 181.231 197.925 181.866 197.925ZM174.122 197.925C174.757 197.925 175.272 198.44 175.272 199.075C175.272 199.71 174.757 200.225 174.122 200.225C173.487 200.225 172.972 199.71 172.972 199.075C172.972 198.44 173.487 197.925 174.122 197.925ZM177.455 206.081C177.455 206.441 177.163 206.734 176.802 206.734C176.442 206.734 176.15 206.441 176.15 206.081V202.663H175.809V212.084C175.809 212.477 175.49 212.796 175.096 212.796C174.703 212.796 174.384 212.477 174.384 212.084V206.665H173.859V212.084C173.859 212.477 173.54 212.796 173.146 212.796C172.753 212.796 172.434 212.477 172.434 212.084V202.663H171.995V206.081C171.995 206.441 171.703 206.734 171.343 206.734C170.983 206.734 170.69 206.441 170.69 206.081V202.051C170.69 201.33 171.274 200.746 171.995 200.746H176.147C176.867 200.746 177.452 201.33 177.452 202.051V206.081H177.455ZM185.199 206.081C185.199 206.441 184.906 206.734 184.546 206.734C184.186 206.734 183.894 206.441 183.894 206.081V202.663H183.553V212.084C183.553 212.477 183.234 212.796 182.84 212.796C182.446 212.796 182.127 212.477 182.127 212.084V206.665H181.604V212.084C181.604 212.477 181.285 212.796 180.891 212.796C180.498 212.796 180.179 212.477 180.179 212.084V202.663H179.74V206.081C179.74 206.441 179.448 206.734 179.087 206.734C178.727 206.734 178.435 206.441 178.435 206.081V202.051C178.435 201.33 179.019 200.746 179.74 200.746H183.893C184.614 200.746 185.198 201.33 185.198 202.051L185.199 206.081ZM192.942 206.081C192.942 206.441 192.65 206.734 192.29 206.734C191.93 206.734 191.637 206.441 191.637 206.081V202.663H191.296V212.084C191.296 212.477 190.978 212.796 190.584 212.796C190.19 212.796 189.871 212.477 189.871 212.084V206.665H189.346V212.084C189.346 212.477 189.028 212.796 188.634 212.796C188.24 212.796 187.921 212.477 187.921 212.084V202.663H187.482V206.081C187.482 206.441 187.19 206.734 186.83 206.734C186.47 206.734 186.177 206.441 186.177 206.081V202.051C186.177 201.33 186.761 200.746 187.482 200.746H191.635C192.356 200.746 192.94 201.33 192.94 202.051V206.081H192.942Z" fill="#4592FB"/>
<path d="M181.866 200.225C182.501 200.225 183.016 199.71 183.016 199.075C183.016 198.44 182.501 197.925 181.866 197.925C181.231 197.925 180.716 198.44 180.716 199.075C180.716 199.71 181.231 200.225 181.866 200.225Z" fill="white"/>
<path d="M174.122 200.225C174.757 200.225 175.272 199.71 175.272 199.075C175.272 198.44 174.757 197.925 174.122 197.925C173.487 197.925 172.972 198.44 172.972 199.075C172.972 199.71 173.487 200.225 174.122 200.225Z" fill="white"/>
<path d="M189.61 200.225C190.245 200.225 190.76 199.71 190.76 199.075C190.76 198.44 190.245 197.925 189.61 197.925C188.975 197.925 188.46 198.44 188.46 199.075C188.46 199.71 188.975 200.225 189.61 200.225Z" fill="white"/>
<path d="M191.825 194.075H172.175C169.163 194.075 166.712 196.525 166.712 199.538V211.337C166.712 214.35 169.163 216.812 172.175 216.812H191.825C194.838 216.812 197.287 214.35 197.287 211.337V199.538C197.287 196.525 194.838 194.075 191.825 194.075ZM196.325 211.337C196.325 213.825 194.3 215.838 191.825 215.838H172.175C169.7 215.838 167.675 213.825 167.675 211.337V199.538C167.675 197.063 169.7 195.038 172.175 195.038H191.825C194.3 195.038 196.325 197.063 196.325 199.538V211.337Z" fill="white"/>
<path d="M192.938 202.05V206.075C192.938 206.438 192.65 206.737 192.287 206.737C191.925 206.737 191.637 206.438 191.637 206.075V202.663L191.3 202.662V212.087C191.3 212.475 190.975 212.8 190.588 212.8C190.188 212.8 189.875 212.475 189.875 212.087V206.662H189.35V212.087C189.35 212.475 189.025 212.8 188.637 212.8C188.237 212.8 187.925 212.475 187.925 212.087V202.662H187.487V206.075C187.487 206.438 187.188 206.737 186.838 206.737C186.475 206.737 186.175 206.438 186.175 206.075V202.05C186.175 201.325 186.763 200.75 187.487 200.75H191.637C192.362 200.75 192.938 201.325 192.938 202.05Z" fill="white"/>
<path d="M177.45 202.05V206.075C177.45 206.438 177.162 206.737 176.8 206.737C176.438 206.737 176.15 206.438 176.15 206.075V202.663L175.812 202.662V212.087C175.812 212.475 175.487 212.8 175.1 212.8C174.7 212.8 174.388 212.475 174.388 212.087V206.662H173.862V212.087C173.862 212.475 173.538 212.8 173.15 212.8C172.75 212.8 172.438 212.475 172.438 212.087V202.662H172V206.075C172 206.438 171.7 206.737 171.35 206.737C170.988 206.737 170.688 206.438 170.688 206.075V202.05C170.688 201.325 171.275 200.75 172 200.75H176.15C176.875 200.75 177.45 201.325 177.45 202.05Z" fill="white"/>
<path d="M185.2 202.05V206.075C185.2 206.438 184.912 206.737 184.55 206.737C184.188 206.737 183.9 206.438 183.9 206.075V202.662H183.55V212.087C183.55 212.475 183.237 212.8 182.837 212.8C182.45 212.8 182.125 212.475 182.125 212.087V206.662H181.6V212.087C181.6 212.475 181.288 212.8 180.888 212.8C180.5 212.8 180.175 212.475 180.175 212.087V202.662H179.737V206.075C179.737 206.438 179.45 206.737 179.087 206.737C178.725 206.737 178.437 206.438 178.437 206.075V202.05C178.437 201.325 179.025 200.75 179.737 200.75H183.9C184.612 200.75 185.2 201.325 185.2 202.05Z" fill="white"/>
<path d="M175.459 189.281H176.612C176.727 189.281 176.82 189.374 176.82 189.489V192.04C176.82 192.138 176.899 192.216 176.996 192.216H178.888C178.985 192.216 179.064 192.138 179.064 192.04V189.489C179.064 189.374 179.156 189.281 179.271 189.281H180.425C180.591 189.281 180.674 189.08 180.556 188.964L178.198 186.605C178.056 186.464 177.827 186.464 177.688 186.605L175.329 188.964C175.211 189.081 175.294 189.281 175.459 189.281Z" fill="white"/>
<path d="M185.246 192.11C185.388 192.251 185.616 192.251 185.756 192.11L188.115 189.751C188.232 189.634 188.149 189.434 187.984 189.434H186.83C186.715 189.434 186.622 189.341 186.622 189.226V186.675C186.622 186.577 186.544 186.499 186.446 186.499H184.555C184.458 186.499 184.379 186.577 184.379 186.675V189.226C184.379 189.341 184.286 189.434 184.171 189.434H183.017C182.851 189.434 182.769 189.634 182.886 189.751L185.246 192.11Z" fill="white"/>
</g>
<g id="convergence_hall_1f_toilet_disabled_right">
<path d="M1227 116C1227 111.582 1230.58 108 1235 108H1391C1395.42 108 1399 111.582 1399 116V157C1399 161.418 1395.42 165 1391 165H1259.93C1259.31 165 1258.7 164.93 1258.11 164.753C1255.69 164.026 1248.67 161.556 1241 155.5C1234.09 150.045 1229.83 144.061 1228.01 141.203C1227.32 140.101 1227 138.818 1227 137.513V116Z" fill="#FED9C4"/>
<path d="M1391 162V165H1259.93L1259.93 162H1391ZM1396 157V116C1396 113.239 1393.76 111 1391 111H1235C1232.24 111 1230 113.239 1230 116V137.513C1230 138.341 1230.2 139.048 1230.55 139.597C1232.25 142.276 1236.3 147.967 1242.86 153.146C1250.15 158.902 1256.8 161.227 1258.97 161.88C1259.22 161.955 1259.54 162 1259.93 162L1259.93 165L1259.47 164.986C1259.08 164.963 1258.7 164.909 1258.33 164.814L1258.11 164.753C1255.69 164.026 1248.67 161.556 1241 155.5C1234.09 150.045 1229.83 144.061 1228.01 141.203C1227.32 140.101 1227 138.818 1227 137.513V116C1227 111.72 1230.36 108.225 1234.59 108.011L1235 108H1391L1391.41 108.011C1395.64 108.225 1399 111.72 1399 116V157L1398.99 157.412C1398.78 161.502 1395.5 164.782 1391.41 164.989L1391 165V162C1393.76 162 1396 159.761 1396 157Z" fill="#2E2F33" fill-opacity="0.88"/>
<path d="M1323.62 115.375H1302.38C1296.85 115.375 1292.38 119.852 1292.38 125.375V146.625C1292.38 152.148 1296.85 156.625 1302.38 156.625H1323.62C1329.15 156.625 1333.62 152.148 1333.62 146.625V125.375C1333.62 119.852 1329.15 115.375 1323.62 115.375Z" fill="#291F98"/>
<path d="M1319.54 128.061C1321.67 128.466 1323.51 126.63 1323.1 124.496C1322.88 123.311 1321.91 122.343 1320.72 122.118C1318.59 121.714 1316.76 123.549 1317.16 125.681C1317.39 126.866 1318.36 127.836 1319.54 128.06L1319.54 128.061Z" fill="white"/>
<path d="M1322.21 134.776H1315.71L1318.71 131.774C1319.53 130.951 1319.53 129.619 1318.71 128.797L1317.05 127.132C1317.01 127.095 1316.99 127.049 1316.95 127.015L1312.39 123.297C1312.1 123.061 1311.69 123.039 1311.37 123.241L1307.05 126.021C1306.52 126.36 1306.37 127.062 1306.71 127.589C1307.05 128.116 1307.75 128.267 1308.28 127.929L1311.74 125.7L1313.64 127.244L1309.67 131.215C1309.01 131.872 1308.89 132.854 1309.28 133.642C1305.24 134.132 1302.09 137.583 1302.09 141.759C1302.09 146.27 1305.76 149.941 1310.27 149.941C1314.78 149.941 1318.45 146.27 1318.45 141.759C1318.45 140.475 1318.15 139.264 1317.62 138.181H1320.27L1319.58 143.331C1319.46 144.263 1320.11 145.119 1321.04 145.243C1321.97 145.366 1322.83 144.711 1322.96 143.78L1323.9 136.705C1324.03 135.685 1323.24 134.779 1322.21 134.779L1322.21 134.776ZM1316.18 141.756C1316.18 145.017 1313.53 147.67 1310.27 147.67C1307.01 147.67 1304.36 145.017 1304.36 141.756C1304.36 138.495 1307.01 135.844 1310.27 135.844C1310.67 135.844 1311.06 135.886 1311.44 135.961C1312.05 136.084 1312.61 136.323 1313.14 136.618C1313.8 136.989 1314.38 137.478 1314.85 138.065C1314.88 138.104 1314.92 138.14 1314.95 138.179C1315.71 139.175 1316.18 140.406 1316.18 141.756Z" fill="white"/>
</g>
<g id="convergence_hall_1f_gate_left3">
<path d="M74 846C74 866.435 57.4345 883 37 883C16.5655 883 0 866.435 0 846C0 825.565 16.5655 809 37 809C57.4345 809 74 825.565 74 846Z" fill="#B1A4FF"/>
<path d="M71 846C71 827.222 55.7777 812 37 812C18.2223 812 3 827.222 3 846C3 864.778 18.2223 880 37 880V883C16.5655 883 0 866.435 0 846C0 825.565 16.5655 809 37 809C57.4345 809 74 825.565 74 846C74 866.435 57.4345 883 37 883V880C55.7777 880 71 864.778 71 846Z" fill="#2E2F33" fill-opacity="0.88"/>
<path d="M45.1251 827.375H28.8877C26.6533 827.375 24.842 829.186 24.842 831.42V860.586C24.842 862.82 26.6533 864.631 28.8877 864.631H45.1251C47.3595 864.631 49.1708 862.82 49.1708 860.586V831.42C49.1708 829.186 47.3595 827.375 45.1251 827.375Z" fill="#5E403B"/>
<path d="M43.6005 848.894C45.1972 848.894 46.4916 847.599 46.4916 846.002C46.4916 844.406 45.1972 843.111 43.6005 843.111C42.0038 843.111 40.7094 844.406 40.7094 846.002C40.7094 847.599 42.0038 848.894 43.6005 848.894Z" fill="#FFDE57"/>
<path d="M43.6005 847.136C44.2264 847.136 44.7338 846.628 44.7338 846.002C44.7338 845.377 44.2264 844.869 43.6005 844.869C42.9746 844.869 42.4672 845.377 42.4672 846.002C42.4672 846.628 42.9746 847.136 43.6005 847.136Z" fill="#CB8C00"/>
<path d="M43.6025 844.873H38.7895C38.1647 844.873 37.6582 845.38 37.6582 846.005C37.6582 846.629 38.1647 847.136 38.7895 847.136H43.6025C44.2273 847.136 44.7338 846.629 44.7338 846.005C44.7338 845.38 44.2273 844.873 43.6025 844.873Z" fill="#CB8C00"/>
</g>
<g id="convergence_hall_1f_gate_left1">
<path d="M332 460C332 480.435 315.435 497 295 497C274.565 497 258 480.435 258 460C258 439.565 274.565 423 295 423C315.435 423 332 439.565 332 460Z" fill="#B1A4FF"/>
<path d="M329 460C329 441.222 313.778 426 295 426C276.222 426 261 441.222 261 460C261 478.778 276.222 494 295 494V497C274.565 497 258 480.435 258 460C258 439.565 274.565 423 295 423C315.435 423 332 439.565 332 460C332 480.435 315.435 497 295 497V494C313.778 494 329 478.778 329 460Z" fill="#2E2F33" fill-opacity="0.88"/>
<path d="M303.125 441.375H286.888C284.653 441.375 282.842 443.186 282.842 445.42V474.586C282.842 476.82 284.653 478.631 286.888 478.631H303.125C305.359 478.631 307.171 476.82 307.171 474.586V445.42C307.171 443.186 305.359 441.375 303.125 441.375Z" fill="#5E403B"/>
<path d="M301.601 462.894C303.197 462.894 304.492 461.599 304.492 460.002C304.492 458.406 303.197 457.111 301.601 457.111C300.004 457.111 298.709 458.406 298.709 460.002C298.709 461.599 300.004 462.894 301.601 462.894Z" fill="#FFDE57"/>
<path d="M301.601 461.136C302.226 461.136 302.734 460.628 302.734 460.002C302.734 459.377 302.226 458.869 301.601 458.869C300.975 458.869 300.467 459.377 300.467 460.002C300.467 460.628 300.975 461.136 301.601 461.136Z" fill="#CB8C00"/>
<path d="M301.603 458.873H296.789C296.165 458.873 295.658 459.38 295.658 460.005C295.658 460.629 296.165 461.136 296.789 461.136H301.603C302.227 461.136 302.734 460.629 302.734 460.005C302.734 459.38 302.227 458.873 301.603 458.873Z" fill="#CB8C00"/>
</g>
<g id="convergence_hall_1f_gate_main">
<path d="M1041 525C1041 545.435 1024.43 562 1004 562C983.565 562 967 545.435 967 525C967 504.565 983.565 488 1004 488C1024.43 488 1041 504.565 1041 525Z" fill="#B1A4FF"/>
<path d="M1038 525C1038 506.222 1022.78 491 1004 491C985.222 491 970 506.222 970 525C970 543.778 985.222 559 1004 559V562C983.565 562 967 545.435 967 525C967 504.565 983.565 488 1004 488C1024.43 488 1041 504.565 1041 525C1041 545.435 1024.43 562 1004 562V559C1022.78 559 1038 543.778 1038 525Z" fill="#2E2F33" fill-opacity="0.88"/>
<path d="M1012.13 506.375H995.888C993.653 506.375 991.842 508.186 991.842 510.42V539.586C991.842 541.82 993.653 543.631 995.888 543.631H1012.13C1014.36 543.631 1016.17 541.82 1016.17 539.586V510.42C1016.17 508.186 1014.36 506.375 1012.13 506.375Z" fill="#5E403B"/>
<path d="M1010.6 527.894C1012.2 527.894 1013.49 526.599 1013.49 525.002C1013.49 523.406 1012.2 522.111 1010.6 522.111C1009 522.111 1007.71 523.406 1007.71 525.002C1007.71 526.599 1009 527.894 1010.6 527.894Z" fill="#FFDE57"/>
<path d="M1010.6 526.136C1011.23 526.136 1011.73 525.628 1011.73 525.002C1011.73 524.377 1011.23 523.869 1010.6 523.869C1009.97 523.869 1009.47 524.377 1009.47 525.002C1009.47 525.628 1009.97 526.136 1010.6 526.136Z" fill="#CB8C00"/>
<path d="M1010.6 523.873H1005.79C1005.16 523.873 1004.66 524.38 1004.66 525.005C1004.66 525.629 1005.16 526.136 1005.79 526.136H1010.6C1011.23 526.136 1011.73 525.629 1011.73 525.005C1011.73 524.38 1011.23 523.873 1010.6 523.873Z" fill="#CB8C00"/>
</g>
<g id="convergence_hall_1f_gate_library">
<path d="M1519 957C1519 977.435 1502.43 994 1482 994C1461.57 994 1445 977.435 1445 957C1445 936.565 1461.57 920 1482 920C1502.43 920 1519 936.565 1519 957Z" fill="#B1A4FF"/>
<path d="M1516 957C1516 938.222 1500.78 923 1482 923C1463.22 923 1448 938.222 1448 957C1448 975.778 1463.22 991 1482 991V994C1461.57 994 1445 977.435 1445 957C1445 936.565 1461.57 920 1482 920C1502.43 920 1519 936.565 1519 957C1519 977.435 1502.43 994 1482 994V991C1500.78 991 1516 975.778 1516 957Z" fill="#2E2F33" fill-opacity="0.88"/>
<path d="M1490.13 938.375H1473.89C1471.65 938.375 1469.84 940.186 1469.84 942.42V971.586C1469.84 973.82 1471.65 975.631 1473.89 975.631H1490.13C1492.36 975.631 1494.17 973.82 1494.17 971.586V942.42C1494.17 940.186 1492.36 938.375 1490.13 938.375Z" fill="#5E403B"/>
<path d="M1488.6 959.894C1490.2 959.894 1491.49 958.599 1491.49 957.002C1491.49 955.406 1490.2 954.111 1488.6 954.111C1487 954.111 1485.71 955.406 1485.71 957.002C1485.71 958.599 1487 959.894 1488.6 959.894Z" fill="#FFDE57"/>
<path d="M1488.6 958.136C1489.23 958.136 1489.73 957.628 1489.73 957.002C1489.73 956.377 1489.23 955.869 1488.6 955.869C1487.97 955.869 1487.47 956.377 1487.47 957.002C1487.47 957.628 1487.97 958.136 1488.6 958.136Z" fill="#CB8C00"/>
<path d="M1488.6 955.873H1483.79C1483.16 955.873 1482.66 956.38 1482.66 957.005C1482.66 957.629 1483.16 958.136 1483.79 958.136H1488.6C1489.23 958.136 1489.73 957.629 1489.73 957.005C1489.73 956.38 1489.23 955.873 1488.6 955.873Z" fill="#CB8C00"/>
</g>
<g id="convergence_hall_1f_gate_left2">
<path d="M341 659C341 679.435 324.435 696 304 696C283.565 696 267 679.435 267 659C267 638.565 283.565 622 304 622C324.435 622 341 638.565 341 659Z" fill="#B1A4FF"/>
<path d="M338 659C338 640.222 322.778 625 304 625C285.222 625 270 640.222 270 659C270 677.778 285.222 693 304 693V696C283.565 696 267 679.435 267 659C267 638.565 283.565 622 304 622C324.435 622 341 638.565 341 659C341 679.435 324.435 696 304 696V693C322.778 693 338 677.778 338 659Z" fill="#2E2F33" fill-opacity="0.88"/>
<path d="M312.125 640.375H295.888C293.653 640.375 291.842 642.186 291.842 644.42V673.586C291.842 675.82 293.653 677.631 295.888 677.631H312.125C314.359 677.631 316.171 675.82 316.171 673.586V644.42C316.171 642.186 314.359 640.375 312.125 640.375Z" fill="#5E403B"/>
<path d="M310.601 661.894C312.197 661.894 313.492 660.599 313.492 659.002C313.492 657.406 312.197 656.111 310.601 656.111C309.004 656.111 307.709 657.406 307.709 659.002C307.709 660.599 309.004 661.894 310.601 661.894Z" fill="#FFDE57"/>
<path d="M310.601 660.136C311.226 660.136 311.734 659.628 311.734 659.002C311.734 658.377 311.226 657.869 310.601 657.869C309.975 657.869 309.467 658.377 309.467 659.002C309.467 659.628 309.975 660.136 310.601 660.136Z" fill="#CB8C00"/>
<path d="M310.603 657.873H305.789C305.165 657.873 304.658 658.38 304.658 659.005C304.658 659.629 305.165 660.136 305.789 660.136H310.603C311.227 660.136 311.734 659.629 311.734 659.005C311.734 658.38 311.227 657.873 310.603 657.873Z" fill="#CB8C00"/>
</g>
</g>
</svg>
