<svg width="1961" height="1424" viewBox="0 0 1961 1424" fill="none" xmlns="http://www.w3.org/2000/svg">
<g id="cheongsong_hall_floor_3">
<g id="Vector">
<path d="M513.5 502V611H398.5V882H449.5V962L576.5 1090.5H661.5V1147H927V1211H769V1362H869.5V1421H996V1337.5H1136V1302.5H1957.5V993H1082V882H1205.5V611.5H1154.5V530L1026 402.5H939V345.5H675V315H850.5V179H934.5V3H611V163H627.5V177.5H418V217H3V346.5H25V502H513.5Z" fill="#999999"/>
<path d="M1079 996H1954.5V1299.5H1133V1334.5H993V1418H872.5V1359H772V1214H930V1144H664.5V1087.5H577.753L452.5 960.769V879H401.5V614H516.5V499H28V343.5H6V220H421V180.5H630.5V160H614V6H931.5V176H847.5V312H672V348.5H936V405.5H1024.76L1151.5 531.251V614.5H1202.5V879H1079V996ZM1085 885H1208.5V608.5H1157.5V528.75L1027.24 399.5H942V342.5H678V318H853.5V182H937.5V0H608V166H624.5V174.5H415V214H0V349.5H22V505H510.5V608H395.5V885H446.5V963.232L575.247 1093.5H658.5V1150H924V1208H766V1365H866.5V1424H999V1340.5H1139V1305.5H1960.5V990H1085V885Z" fill="black"/>
</g>
<g id="Vector_2">
<path d="M401 871C401 875.418 404.582 879 409 879H621.663C623.798 879 625.845 878.146 627.348 876.628L721.685 781.338C723.168 779.84 724 777.818 724 775.71V717.267C724 715.173 723.179 713.162 721.713 711.667L627.352 615.4C625.848 613.865 623.789 613 621.639 613H409C404.582 613 401 616.582 401 621V871Z" fill="#474747"/>
<path d="M401 621V871C401 875.418 404.582 879 409 879H621.663L622.062 878.99C624.052 878.891 625.939 878.051 627.348 876.628L721.685 781.338C723.168 779.84 724 777.818 724 775.71V717.267L723.99 716.875C723.895 714.923 723.087 713.069 721.713 711.667L627.352 615.4L627.064 615.12C625.689 613.851 623.911 613.104 622.041 613.01L621.639 613L621.64 616C622.983 616 624.27 616.541 625.21 617.5L719.57 713.767C720.486 714.701 721 715.958 721 717.267V775.71C721 777.027 720.48 778.291 719.554 779.228L625.216 874.518C624.277 875.466 622.998 876 621.663 876H409C406.239 876 404 873.761 404 871V621C404 618.239 406.239 616 409 616L409 613L408.588 613.011C404.361 613.225 401 616.72 401 621ZM621.64 616L621.639 613H409L409 616H621.64Z" fill="#2E2F33" fill-opacity="0.88"/>
</g>
<g id="Vector_3">
<path d="M922 1144C926.418 1144 930 1140.42 930 1136V923.337C930 921.202 929.146 919.155 927.628 917.652L832.338 823.315C830.84 821.832 828.818 821 826.71 821H768.267C766.173 821 764.162 821.821 762.667 823.287L666.4 917.648C664.865 919.152 664 921.211 664 923.361V1136C664 1140.42 667.582 1144 672 1144H922Z" fill="#474747"/>
<path d="M672 1144H922C926.418 1144 930 1140.42 930 1136V923.337L929.99 922.938C929.891 920.948 929.051 919.061 927.628 917.652L832.338 823.315C830.84 821.832 828.818 821 826.71 821H768.267L767.875 821.01C765.923 821.105 764.069 821.913 762.667 823.287L666.4 917.648L666.12 917.936C664.851 919.311 664.104 921.089 664.01 922.959L664 923.361L667 923.36C667 922.017 667.541 920.73 668.5 919.79L764.767 825.43C765.701 824.514 766.958 824 768.267 824H826.71C828.027 824 829.291 824.52 830.228 825.446L925.518 919.784C926.466 920.723 927 922.002 927 923.337V1136C927 1138.76 924.761 1141 922 1141H672C669.239 1141 667 1138.76 667 1136H664L664.011 1136.41C664.225 1140.64 667.72 1144 672 1144ZM667 923.36L664 923.361V1136H667V923.36Z" fill="#2E2F33" fill-opacity="0.88"/>
</g>
<g id="Vector_4">
<path d="M1203 622C1203 617.582 1199.42 614 1195 614H982.337C980.202 614 978.155 614.854 976.652 616.372L882.315 711.662C880.832 713.16 880 715.182 880 717.29V775.733C880 777.827 880.821 779.838 882.287 781.333L976.648 877.6C978.152 879.135 980.211 880 982.361 880H1195C1199.42 880 1203 876.418 1203 872V622Z" fill="#474747"/>
<path d="M1203 872V622C1203 617.582 1199.42 614 1195 614H982.337L981.938 614.01C979.948 614.109 978.061 614.949 976.652 616.372L882.315 711.662C880.832 713.16 880 715.182 880 717.29V775.733L880.01 776.125C880.105 778.077 880.913 779.931 882.287 781.333L976.648 877.6L976.936 877.88C978.311 879.149 980.089 879.896 981.959 879.99L982.361 880L982.36 877C981.017 877 979.73 876.459 978.79 875.5L884.43 779.233C883.514 778.299 883 777.042 883 775.733V717.29C883 715.973 883.52 714.709 884.446 713.772L978.784 618.482C979.723 617.534 981.002 617 982.337 617H1195C1197.76 617 1200 619.239 1200 622V872C1200 874.761 1197.76 877 1195 877V880L1195.41 879.989C1199.64 879.775 1203 876.28 1203 872ZM982.36 877L982.361 880H1195V877H982.36Z" fill="#2E2F33" fill-opacity="0.88"/>
</g>
<g id="Vector_5">
<path d="M678 348C673.582 348 670 351.582 670 356V568.663C670 570.798 670.854 572.845 672.372 574.348L767.662 668.685C769.16 670.168 771.182 671 773.29 671H831.733C833.827 671 835.838 670.179 837.333 668.713L933.6 574.352C935.135 572.848 936 570.789 936 568.639V356C936 351.582 932.418 348 928 348H678Z" fill="#474747"/>
<path d="M928 348H678C673.582 348 670 351.582 670 356V568.663L670.01 569.062C670.109 571.052 670.949 572.939 672.372 574.348L767.662 668.685C769.16 670.168 771.182 671 773.29 671H831.733L832.125 670.99C834.077 670.895 835.931 670.087 837.333 668.713L933.6 574.352L933.88 574.064C935.149 572.689 935.896 570.911 935.99 569.041L936 568.639L933 568.64C933 569.983 932.459 571.27 931.5 572.21L835.233 666.57C834.299 667.486 833.042 668 831.733 668H773.29C771.973 668 770.709 667.48 769.772 666.554L674.482 572.216C673.534 571.277 673 569.998 673 568.663V356C673 353.239 675.239 351 678 351H928C930.761 351 933 353.239 933 356L936 356L935.989 355.588C935.775 351.361 932.28 348 928 348ZM933 568.64L936 568.639V356L933 356V568.64Z" fill="#2E2F33" fill-opacity="0.88"/>
</g>
<g id="Vector_6">
<path d="M839.976 662.901C836.852 666.025 836.852 671.09 839.976 674.214L876.108 710.346C879.232 713.47 884.297 713.47 887.421 710.346L979.056 618.711C980.556 617.211 982.591 616.368 984.713 616.368H1145.5C1149.92 616.368 1153.5 612.786 1153.5 608.368L1153.5 531.839C1153.5 529.701 1152.65 527.652 1151.13 526.149L1027.84 404.308C1026.34 402.828 1024.32 401.998 1022.22 401.998L941.951 401.998C937.533 401.998 933.951 405.58 933.951 409.998L933.954 565.609C933.954 567.731 933.111 569.766 931.611 571.266L839.976 662.901Z" fill="#474747"/>
<path d="M976.935 616.59L885.3 708.225C883.348 710.178 880.182 710.177 878.229 708.225L842.098 672.093C840.145 670.141 840.145 666.975 842.098 665.022L933.732 573.388C935.795 571.325 936.953 568.526 936.953 565.609L936.951 409.998C936.951 407.237 939.19 404.999 941.951 404.998L1022.22 404.998C1023.53 404.998 1024.8 405.517 1025.73 406.442L1149.02 528.284L1151.13 526.149L1027.84 404.308C1026.44 402.921 1024.57 402.104 1022.61 402.008L1022.22 401.998L941.951 401.998C937.671 401.998 934.176 405.359 933.961 409.586L933.951 409.998L933.954 565.609C933.954 567.598 933.213 569.512 931.884 570.979L931.611 571.266L839.976 662.901C836.949 665.927 836.855 670.775 839.692 673.916L839.976 674.214L876.108 710.346L876.406 710.629C879.546 713.467 884.395 713.373 887.421 710.346L979.056 618.711L979.344 618.438C980.811 617.109 982.724 616.368 984.713 616.368H1145.5C1149.92 616.368 1153.5 612.786 1153.5 608.368L1153.5 531.839L1153.49 531.44C1153.39 529.448 1152.55 527.558 1151.13 526.149L1149.02 528.284C1149.97 529.223 1150.5 530.503 1150.5 531.839V608.368C1150.5 611.13 1148.27 613.368 1145.5 613.368H984.713C981.795 613.368 978.998 614.527 976.935 616.59Z" fill="#2E2F33" fill-opacity="0.88"/>
</g>
<g id="Vector_7">
<path d="M718.277 783.28C721.421 780.103 726.559 780.12 729.683 783.317L761.425 815.797C764.506 818.949 764.457 823.999 761.315 827.091L669.286 917.648C667.757 919.152 666.897 921.206 666.897 923.351L666.897 1082.07C666.897 1086.49 663.315 1090.07 658.897 1090.07L582.368 1090.07C580.23 1090.07 578.181 1089.21 576.678 1087.69L454.836 964.408C453.356 962.91 452.526 960.89 452.526 958.785L452.523 885.499C452.523 881.081 456.105 877.499 460.523 877.499L621.661 877.499C623.797 877.499 625.844 876.645 627.347 875.127L718.277 783.28Z" fill="#474747"/>
<path d="M761.425 815.797C764.506 818.949 764.457 823.999 761.315 827.091L669.286 917.648L669.007 917.936C667.653 919.409 666.897 921.34 666.897 923.351L666.897 1082.07C666.897 1086.49 663.315 1090.07 658.897 1090.07L582.368 1090.07C580.23 1090.07 578.181 1089.21 576.678 1087.69L578.812 1085.58C579.751 1086.54 581.032 1087.07 582.368 1087.07H658.897C661.658 1087.07 663.897 1084.83 663.897 1082.07L663.897 923.351C663.897 920.403 665.08 917.578 667.181 915.51L759.211 824.953C761.174 823.02 761.205 819.864 759.28 817.894L727.538 785.414C725.585 783.416 722.374 783.405 720.408 785.391L629.478 877.238C627.412 879.325 624.598 880.498 621.661 880.498L460.523 880.499C457.762 880.499 455.523 882.738 455.523 885.499L455.527 958.785C455.527 960.101 456.046 961.363 456.97 962.299L578.812 1085.58L576.678 1087.69L454.836 964.408C453.449 963.004 452.633 961.141 452.536 959.179L452.526 958.785L452.523 885.499C452.523 881.219 455.885 877.723 460.112 877.509L460.523 877.499L621.661 877.499C623.664 877.499 625.588 876.748 627.059 875.404L627.347 875.127L718.277 783.28C721.421 780.103 726.559 780.12 729.683 783.317L761.425 815.797Z" fill="#2E2F33" fill-opacity="0.88"/>
</g>
<g id="cheongsong_hall_3f_stairs_left">
<path d="M27 491C27 495.418 30.5817 499 35 499H92C96.4183 499 100 495.418 100 491V355C100 350.582 96.4183 347 92 347H35C30.5817 347 27 350.582 27 355V491Z" fill="#D9FFE6"/>
<path d="M92 350V347H35V350H92ZM97 355V491C97 493.761 94.7614 496 92 496H35C32.2386 496 30 493.761 30 491V355C30 352.239 32.2386 350 35 350V347C30.5817 347 27 350.582 27 355V491C27 495.418 30.5817 499 35 499H92C96.4183 499 100 495.418 100 491V355C100 350.582 96.4183 347 92 347V350C94.7614 350 97 352.239 97 355Z" fill="#2E2F33" fill-opacity="0.88"/>
<path d="M79.96 405.423C79.261 405.165 78.485 405.525 78.227 406.224L75.72 413.037H61.521L63.87 407.193C64.148 406.501 63.813 405.714 63.121 405.436C62.429 405.158 61.643 405.495 61.365 406.185L48.288 438.721C48.01 439.413 48.345 440.2 49.037 440.478C49.202 440.544 49.372 440.576 49.54 440.576C50.075 440.576 50.582 440.256 50.793 439.729L53.479 433.047C53.537 433.055 53.588 433.081 53.648 433.081H68.346L66.257 438.76C66 439.459 66.358 440.236 67.058 440.492C67.212 440.549 67.37 440.576 67.524 440.576C68.073 440.576 68.59 440.237 68.791 439.691L80.761 407.155C81.018 406.456 80.66 405.679 79.96 405.423ZM60.716 415.736H74.726L72.566 421.607H58.076L60.457 415.684C60.544 415.701 60.624 415.736 60.716 415.736ZM54.55 430.381L57.007 424.269C57.071 424.278 57.129 424.307 57.196 424.307H71.574L69.339 430.381H54.55Z" fill="#6E4944"/>
</g>
<g id="cheongsong_hall_3f_stairs_right">
<path d="M1492 1292C1492 1296.42 1495.58 1300 1500 1300H1571C1575.42 1300 1579 1296.42 1579 1292V1193C1579 1188.58 1575.42 1185 1571 1185H1500C1495.58 1185 1492 1188.58 1492 1193V1292Z" fill="#D9FFE6"/>
<path d="M1571 1188V1185H1500L1500 1188H1571ZM1576 1193V1292C1576 1294.76 1573.76 1297 1571 1297H1500C1497.24 1297 1495 1294.76 1495 1292V1193C1495 1190.24 1497.24 1188 1500 1188L1500 1185C1495.58 1185 1492 1188.58 1492 1193V1292C1492 1296.42 1495.58 1300 1500 1300H1571C1575.42 1300 1579 1296.42 1579 1292V1193C1579 1188.58 1575.42 1185 1571 1185V1188C1573.76 1188 1576 1190.24 1576 1193Z" fill="#2E2F33" fill-opacity="0.88"/>
<path d="M1551.96 1224.42C1551.26 1224.17 1550.49 1224.52 1550.23 1225.22L1547.72 1232.04H1533.52L1535.87 1226.19C1536.15 1225.5 1535.81 1224.71 1535.12 1224.44C1534.43 1224.16 1533.64 1224.5 1533.36 1225.19L1520.29 1257.72C1520.01 1258.41 1520.35 1259.2 1521.04 1259.48C1521.2 1259.54 1521.37 1259.58 1521.54 1259.58C1522.08 1259.58 1522.58 1259.26 1522.79 1258.73L1525.48 1252.05C1525.54 1252.06 1525.59 1252.08 1525.65 1252.08H1540.35L1538.26 1257.76C1538 1258.46 1538.36 1259.24 1539.06 1259.49C1539.21 1259.55 1539.37 1259.58 1539.52 1259.58C1540.07 1259.58 1540.59 1259.24 1540.79 1258.69L1552.76 1226.15C1553.02 1225.46 1552.66 1224.68 1551.96 1224.42ZM1532.72 1234.74H1546.73L1544.57 1240.61H1530.08L1532.46 1234.68C1532.54 1234.7 1532.62 1234.74 1532.72 1234.74ZM1526.55 1249.38L1529.01 1243.27C1529.07 1243.28 1529.13 1243.31 1529.2 1243.31H1543.57L1541.34 1249.38H1526.55Z" fill="#6E4944"/>
</g>
<g id="cheongsong_hall_3f_stairs_left_main">
<path d="M469 491C469 495.418 472.582 499 477 499H565C569.418 499 573 495.418 573 491V357C573 352.582 569.418 349 565 349H477C472.582 349 469 352.582 469 357V491Z" fill="#D9FFE6"/>
<path d="M565 352V349H477L477 352H565ZM570 357V491C570 493.761 567.761 496 565 496H477C474.239 496 472 493.761 472 491V357C472 354.239 474.239 352 477 352L477 349L476.588 349.011C472.361 349.225 469 352.72 469 357V491C469 495.418 472.582 499 477 499H565C569.418 499 573 495.418 573 491V357C573 352.582 569.418 349 565 349V352C567.761 352 570 354.239 570 357Z" fill="#2E2F33" fill-opacity="0.88"/>
<path d="M544.94 397.634C543.892 397.247 542.728 397.787 542.341 398.836L538.58 409.056H517.281L520.805 400.29C521.222 399.252 520.719 398.071 519.681 397.654C518.644 397.237 517.465 397.743 517.048 398.778L497.432 447.581C497.015 448.619 497.517 449.8 498.556 450.217C498.803 450.316 499.058 450.364 499.31 450.364C500.112 450.364 500.873 449.884 501.189 449.093L505.218 439.071C505.306 439.083 505.382 439.121 505.472 439.121H527.519L524.386 447.64C524 448.688 524.537 449.854 525.587 450.238C525.818 450.324 526.055 450.364 526.286 450.364C527.11 450.364 527.885 449.855 528.187 449.036L546.142 400.233C546.527 399.184 545.99 398.018 544.94 397.634ZM516.074 413.104H537.089L533.849 421.91H512.114L515.686 413.026C515.816 413.051 515.936 413.104 516.074 413.104ZM506.825 435.072L510.51 425.903C510.606 425.917 510.694 425.961 510.794 425.961H532.361L529.009 435.072H506.825Z" fill="#6E4944"/>
</g>
<g id="cheongsong_hall_3f_stairs_right_main">
<path d="M1024 1138C1024 1142.42 1027.58 1146 1032 1146H1120C1124.42 1146 1128 1142.42 1128 1138V1004C1128 999.582 1124.42 996 1120 996H1032C1027.58 996 1024 999.582 1024 1004V1138Z" fill="#D9FFE6"/>
<path d="M1120 999V996H1032L1032 999H1120ZM1125 1004V1138C1125 1140.76 1122.76 1143 1120 1143H1032C1029.24 1143 1027 1140.76 1027 1138V1004C1027 1001.24 1029.24 999 1032 999L1032 996L1031.59 996.011C1027.36 996.225 1024 999.72 1024 1004V1138C1024 1142.42 1027.58 1146 1032 1146H1120C1124.42 1146 1128 1142.42 1128 1138V1004C1128 999.582 1124.42 996 1120 996V999C1122.76 999 1125 1001.24 1125 1004Z" fill="#2E2F33" fill-opacity="0.88"/>
<path d="M1099.94 1044.63C1098.89 1044.25 1097.73 1044.79 1097.34 1045.84L1093.58 1056.06H1072.28L1075.81 1047.29C1076.22 1046.25 1075.72 1045.07 1074.68 1044.65C1073.64 1044.24 1072.46 1044.74 1072.05 1045.78L1052.43 1094.58C1052.02 1095.62 1052.52 1096.8 1053.56 1097.22C1053.8 1097.32 1054.06 1097.36 1054.31 1097.36C1055.11 1097.36 1055.87 1096.88 1056.19 1096.09L1060.22 1086.07C1060.31 1086.08 1060.38 1086.12 1060.47 1086.12H1082.52L1079.39 1094.64C1079 1095.69 1079.54 1096.85 1080.59 1097.24C1080.82 1097.32 1081.06 1097.36 1081.29 1097.36C1082.11 1097.36 1082.89 1096.86 1083.19 1096.04L1101.14 1047.23C1101.53 1046.18 1100.99 1045.02 1099.94 1044.63ZM1071.07 1060.1H1092.09L1088.85 1068.91H1067.11L1070.69 1060.03C1070.82 1060.05 1070.94 1060.1 1071.07 1060.1ZM1061.83 1082.07L1065.51 1072.9C1065.61 1072.92 1065.69 1072.96 1065.79 1072.96H1087.36L1084.01 1082.07H1061.83Z" fill="#6E4944"/>
</g>
<g id="cheongsong_hall_3f_toilet_left_boy">
<path d="M672 306C672 310.418 675.582 314 680 314H839C843.418 314 847 310.418 847 306V252C847 247.582 843.418 244 839 244H680C675.582 244 672 247.582 672 252V306Z" fill="#FED9C4"/>
<path d="M839 247V244H680L680 247H839ZM844 252V306C844 308.761 841.761 311 839 311H680C677.239 311 675 308.761 675 306V252C675 249.239 677.239 247 680 247L680 244L679.588 244.011C675.361 244.225 672 247.72 672 252V306C672 310.418 675.582 314 680 314H839C843.418 314 847 310.418 847 306V252C847 247.582 843.418 244 839 244V247C841.761 247 844 249.239 844 252Z" fill="#2E2F33" fill-opacity="0.88"/>
<path d="M772.75 254.25H747.25C740.623 254.25 735.25 259.623 735.25 266.25V291.75C735.25 298.377 740.623 303.75 747.25 303.75H772.75C779.377 303.75 784.75 298.377 784.75 291.75V266.25C784.75 259.623 779.377 254.25 772.75 254.25Z" fill="#3076D1"/>
<path d="M762.725 291.889L768.191 279.342C769.047 277.378 767.608 275.181 765.466 275.181H754.535C752.394 275.181 750.953 277.378 751.81 279.342L757.276 291.889C758.314 294.271 761.69 294.271 762.729 291.889H762.725Z" fill="white"/>
<path d="M760 272.388C762.227 272.388 764.032 270.583 764.032 268.356C764.032 266.129 762.227 264.324 760 264.324C757.773 264.324 755.968 266.129 755.968 268.356C755.968 270.583 757.773 272.388 760 272.388Z" fill="white"/>
</g>
<g id="cheongsong_hall_3f_toilet_right_boy">
<path d="M771 1281C771 1285.42 774.582 1289 779 1289H921C925.418 1289 929 1285.42 929 1281V1222C929 1217.58 925.418 1214 921 1214H779C774.582 1214 771 1217.58 771 1222V1281Z" fill="#FED9C4"/>
<path d="M921 1217V1214H779L779 1217H921ZM926 1222V1281C926 1283.76 923.761 1286 921 1286H779C776.239 1286 774 1283.76 774 1281V1222C774 1219.24 776.239 1217 779 1217L779 1214L778.588 1214.01C774.361 1214.23 771 1217.72 771 1222V1281C771 1285.28 774.361 1288.77 778.588 1288.99L779 1289H921C925.418 1289 929 1285.42 929 1281V1222C929 1217.58 925.418 1214 921 1214V1217C923.761 1217 926 1219.24 926 1222Z" fill="#2E2F33" fill-opacity="0.88"/>
<path d="M862.75 1226.25H837.25C830.623 1226.25 825.25 1231.62 825.25 1238.25V1263.75C825.25 1270.38 830.623 1275.75 837.25 1275.75H862.75C869.377 1275.75 874.75 1270.38 874.75 1263.75V1238.25C874.75 1231.62 869.377 1226.25 862.75 1226.25Z" fill="#3076D1"/>
<path d="M852.725 1263.89L858.191 1251.34C859.047 1249.38 857.608 1247.18 855.466 1247.18H844.535C842.394 1247.18 840.953 1249.38 841.81 1251.34L847.276 1263.89C848.314 1266.27 851.69 1266.27 852.729 1263.89H852.725Z" fill="white"/>
<path d="M850 1244.39C852.227 1244.39 854.032 1242.58 854.032 1240.36C854.032 1238.13 852.227 1236.32 850 1236.32C847.773 1236.32 845.968 1238.13 845.968 1240.36C845.968 1242.58 847.773 1244.39 850 1244.39Z" fill="white"/>
</g>
<g id="cheongsong_hall_3f_toilet_left_girl">
<path d="M672 239C672 243.418 675.582 247 680 247H839C843.418 247 847 243.418 847 239V185C847 180.582 843.418 177 839 177H680C675.582 177 672 180.582 672 185V239Z" fill="#FED9C4"/>
<path d="M839 180V177H680L680 180H839ZM844 185V239C844 241.761 841.761 244 839 244H680C677.239 244 675 241.761 675 239V185C675 182.239 677.239 180 680 180L680 177L679.588 177.011C675.361 177.225 672 180.72 672 185V239C672 243.418 675.582 247 680 247H839C843.418 247 847 243.418 847 239V185C847 180.582 843.418 177 839 177V180C841.761 180 844 182.239 844 185Z" fill="#2E2F33" fill-opacity="0.88"/>
<path d="M772.75 187.25H747.25C740.623 187.25 735.25 192.623 735.25 199.25V224.75C735.25 231.377 740.623 236.75 747.25 236.75H772.75C779.377 236.75 784.75 231.377 784.75 224.75V199.25C784.75 192.623 779.377 187.25 772.75 187.25Z" fill="#E76D6D"/>
<path d="M757.274 209.976L751.809 222.524C750.953 224.488 752.392 226.685 754.534 226.685H765.465C767.606 226.685 769.046 224.488 768.19 222.524L762.724 209.976C761.686 207.594 758.31 207.594 757.271 209.976H757.274Z" fill="white"/>
<path d="M760 205.381C762.227 205.381 764.032 203.575 764.032 201.348C764.032 199.122 762.227 197.317 760 197.317C757.773 197.317 755.968 199.122 755.968 201.348C755.968 203.575 757.773 205.381 760 205.381Z" fill="white"/>
</g>
<g id="cheongsong_hall_3f_toilet_right_girl">
<path d="M771 1352C771 1356.42 774.582 1360 779 1360H921C925.418 1360 929 1356.42 929 1352V1294C929 1289.58 925.418 1286 921 1286H779C774.582 1286 771 1289.58 771 1294V1352Z" fill="#FED9C4"/>
<path d="M921 1289V1286H779L779 1289H921ZM926 1294V1352C926 1354.76 923.761 1357 921 1357H779C776.239 1357 774 1354.76 774 1352V1294C774 1291.24 776.239 1289 779 1289L779 1286L778.588 1286.01C774.361 1286.23 771 1289.72 771 1294V1352C771 1356.28 774.361 1359.77 778.588 1359.99L779 1360H921C925.418 1360 929 1356.42 929 1352V1294C929 1289.58 925.418 1286 921 1286V1289C923.761 1289 926 1291.24 926 1294Z" fill="#2E2F33" fill-opacity="0.88"/>
<path d="M862.75 1298.25H837.25C830.623 1298.25 825.25 1303.62 825.25 1310.25V1335.75C825.25 1342.38 830.623 1347.75 837.25 1347.75H862.75C869.377 1347.75 874.75 1342.38 874.75 1335.75V1310.25C874.75 1303.62 869.377 1298.25 862.75 1298.25Z" fill="#E76D6D"/>
<path d="M847.274 1320.98L841.809 1333.52C840.953 1335.49 842.392 1337.69 844.534 1337.69H855.465C857.606 1337.69 859.046 1335.49 858.19 1333.52L852.724 1320.98C851.686 1318.59 848.31 1318.59 847.271 1320.98H847.274Z" fill="white"/>
<path d="M850 1316.38C852.227 1316.38 854.032 1314.58 854.032 1312.35C854.032 1310.12 852.227 1308.32 850 1308.32C847.773 1308.32 845.968 1310.12 845.968 1312.35C845.968 1314.58 847.773 1316.38 850 1316.38Z" fill="white"/>
</g>
<g id="cheongsong_hall_3f_elevator_right">
<path d="M871 1411C871 1415.42 874.582 1419 879 1419H921C925.418 1419 929 1415.42 929 1411V1365C929 1360.58 925.418 1357 921 1357H879C874.582 1357 871 1360.58 871 1365V1411Z" fill="#C4C4C4"/>
<path d="M921 1360V1357H879L879 1360H921ZM926 1365V1411C926 1413.76 923.761 1416 921 1416H879C876.239 1416 874 1413.76 874 1411V1365C874 1362.24 876.239 1360 879 1360L879 1357C874.582 1357 871 1360.58 871 1365V1411C871 1415.42 874.582 1419 879 1419H921C925.418 1419 929 1415.42 929 1411V1365C929 1360.58 925.418 1357 921 1357V1360C923.761 1360 926 1362.24 926 1365Z" fill="#2E2F33" fill-opacity="0.88"/>
<path d="M910.625 1367.38H889.375C883.852 1367.38 879.375 1371.85 879.375 1377.38V1398.62C879.375 1404.15 883.852 1408.62 889.375 1408.62H910.625C916.147 1408.62 920.625 1404.15 920.625 1398.62V1377.38C920.625 1371.85 916.147 1367.38 910.625 1367.38ZM901.02 1375.43H902.174C902.289 1375.43 902.381 1375.34 902.381 1375.23V1372.67C902.381 1372.58 902.46 1372.5 902.557 1372.5H904.449C904.546 1372.5 904.625 1372.58 904.625 1372.67V1375.23C904.625 1375.34 904.717 1375.43 904.832 1375.43H905.986C906.153 1375.43 906.235 1375.63 906.118 1375.75L903.759 1378.11C903.618 1378.25 903.389 1378.25 903.249 1378.11L900.89 1375.75C900.772 1375.63 900.855 1375.43 901.02 1375.43ZM893.327 1374.96L895.686 1372.6C895.827 1372.46 896.056 1372.46 896.196 1372.6L898.555 1374.96C898.673 1375.08 898.589 1375.28 898.424 1375.28H897.27C897.155 1375.28 897.062 1375.37 897.062 1375.49V1378.04C897.062 1378.14 896.984 1378.22 896.886 1378.22H894.995C894.898 1378.22 894.819 1378.14 894.819 1378.04V1375.49C894.819 1375.37 894.726 1375.28 894.611 1375.28H893.458C893.291 1375.28 893.21 1375.08 893.327 1374.96ZM915.29 1397.34C915.29 1400.35 912.838 1402.81 909.823 1402.81H890.176C887.161 1402.81 884.709 1400.35 884.709 1397.34V1385.54C884.709 1382.52 887.161 1380.07 890.176 1380.07H909.823C912.838 1380.07 915.29 1382.52 915.29 1385.54V1397.34Z" fill="#4592FB"/>
<path d="M909.823 1381.04H890.176C887.695 1381.04 885.676 1383.06 885.676 1385.54V1397.34C885.676 1399.82 887.695 1401.84 890.176 1401.84H909.823C912.304 1401.84 914.323 1399.82 914.323 1397.34V1385.54C914.323 1383.06 912.304 1381.04 909.823 1381.04ZM907.61 1383.93C908.245 1383.93 908.76 1384.44 908.76 1385.08C908.76 1385.71 908.245 1386.23 907.61 1386.23C906.975 1386.23 906.46 1385.71 906.46 1385.08C906.46 1384.44 906.975 1383.93 907.61 1383.93ZM899.866 1383.93C900.501 1383.93 901.016 1384.44 901.016 1385.08C901.016 1385.71 900.501 1386.23 899.866 1386.23C899.231 1386.23 898.716 1385.71 898.716 1385.08C898.716 1384.44 899.231 1383.93 899.866 1383.93ZM892.122 1383.93C892.757 1383.93 893.272 1384.44 893.272 1385.08C893.272 1385.71 892.757 1386.23 892.122 1386.23C891.487 1386.23 890.972 1385.71 890.972 1385.08C890.972 1384.44 891.487 1383.93 892.122 1383.93ZM895.455 1392.08C895.455 1392.44 895.163 1392.73 894.802 1392.73C894.442 1392.73 894.15 1392.44 894.15 1392.08V1388.66H893.809V1398.08C893.809 1398.48 893.49 1398.8 893.096 1398.8C892.703 1398.8 892.384 1398.48 892.384 1398.08V1392.67H891.859V1398.08C891.859 1398.48 891.54 1398.8 891.146 1398.8C890.753 1398.8 890.434 1398.48 890.434 1398.08V1388.66H889.995V1392.08C889.995 1392.44 889.703 1392.73 889.343 1392.73C888.983 1392.73 888.69 1392.44 888.69 1392.08V1388.05C888.69 1387.33 889.274 1386.75 889.995 1386.75H894.147C894.867 1386.75 895.452 1387.33 895.452 1388.05V1392.08H895.455ZM903.199 1392.08C903.199 1392.44 902.906 1392.73 902.546 1392.73C902.186 1392.73 901.894 1392.44 901.894 1392.08V1388.66H901.553V1398.08C901.553 1398.48 901.234 1398.8 900.84 1398.8C900.446 1398.8 900.127 1398.48 900.127 1398.08V1392.67H899.604V1398.08C899.604 1398.48 899.285 1398.8 898.891 1398.8C898.498 1398.8 898.179 1398.48 898.179 1398.08V1388.66H897.74V1392.08C897.74 1392.44 897.448 1392.73 897.087 1392.73C896.727 1392.73 896.435 1392.44 896.435 1392.08V1388.05C896.435 1387.33 897.019 1386.75 897.74 1386.75H901.892C902.614 1386.75 903.198 1387.33 903.198 1388.05L903.199 1392.08ZM910.942 1392.08C910.942 1392.44 910.65 1392.73 910.29 1392.73C909.93 1392.73 909.637 1392.44 909.637 1392.08V1388.66H909.296V1398.08C909.296 1398.48 908.978 1398.8 908.584 1398.8C908.19 1398.8 907.871 1398.48 907.871 1398.08V1392.67H907.346V1398.08C907.346 1398.48 907.028 1398.8 906.634 1398.8C906.24 1398.8 905.921 1398.48 905.921 1398.08V1388.66H905.482V1392.08C905.482 1392.44 905.19 1392.73 904.83 1392.73C904.47 1392.73 904.177 1392.44 904.177 1392.08V1388.05C904.177 1387.33 904.761 1386.75 905.482 1386.75H909.635C910.356 1386.75 910.94 1387.33 910.94 1388.05V1392.08H910.942Z" fill="#4592FB"/>
<path d="M899.866 1386.23C900.501 1386.23 901.016 1385.71 901.016 1385.08C901.016 1384.44 900.501 1383.93 899.866 1383.93C899.231 1383.93 898.716 1384.44 898.716 1385.08C898.716 1385.71 899.231 1386.23 899.866 1386.23Z" fill="white"/>
<path d="M892.122 1386.23C892.757 1386.23 893.272 1385.71 893.272 1385.08C893.272 1384.44 892.757 1383.93 892.122 1383.93C891.487 1383.93 890.972 1384.44 890.972 1385.08C890.972 1385.71 891.487 1386.23 892.122 1386.23Z" fill="white"/>
<path d="M907.61 1386.23C908.245 1386.23 908.76 1385.71 908.76 1385.08C908.76 1384.44 908.245 1383.93 907.61 1383.93C906.975 1383.93 906.46 1384.44 906.46 1385.08C906.46 1385.71 906.975 1386.23 907.61 1386.23Z" fill="white"/>
<path d="M909.825 1380.08H890.175C887.163 1380.08 884.712 1382.53 884.712 1385.54V1397.34C884.712 1400.35 887.163 1402.81 890.175 1402.81H909.825C912.838 1402.81 915.287 1400.35 915.287 1397.34V1385.54C915.287 1382.53 912.838 1380.08 909.825 1380.08ZM914.325 1397.34C914.325 1399.82 912.3 1401.84 909.825 1401.84H890.175C887.7 1401.84 885.675 1399.82 885.675 1397.34V1385.54C885.675 1383.06 887.7 1381.04 890.175 1381.04H909.825C912.3 1381.04 914.325 1383.06 914.325 1385.54V1397.34Z" fill="white"/>
<path d="M910.938 1388.05V1392.08C910.938 1392.44 910.65 1392.74 910.287 1392.74C909.925 1392.74 909.637 1392.44 909.637 1392.08V1388.66L909.3 1388.66V1398.09C909.3 1398.47 908.975 1398.8 908.588 1398.8C908.188 1398.8 907.875 1398.47 907.875 1398.09V1392.66H907.35V1398.09C907.35 1398.47 907.025 1398.8 906.637 1398.8C906.237 1398.8 905.925 1398.47 905.925 1398.09V1388.66H905.487V1392.08C905.487 1392.44 905.188 1392.74 904.838 1392.74C904.475 1392.74 904.175 1392.44 904.175 1392.08V1388.05C904.175 1387.33 904.763 1386.75 905.487 1386.75H909.637C910.362 1386.75 910.938 1387.33 910.938 1388.05Z" fill="white"/>
<path d="M895.45 1388.05V1392.08C895.45 1392.44 895.162 1392.74 894.8 1392.74C894.438 1392.74 894.15 1392.44 894.15 1392.08V1388.66L893.812 1388.66V1398.09C893.812 1398.47 893.487 1398.8 893.1 1398.8C892.7 1398.8 892.388 1398.47 892.388 1398.09V1392.66H891.862V1398.09C891.862 1398.47 891.538 1398.8 891.15 1398.8C890.75 1398.8 890.438 1398.47 890.438 1398.09V1388.66H890V1392.08C890 1392.44 889.7 1392.74 889.35 1392.74C888.988 1392.74 888.688 1392.44 888.688 1392.08V1388.05C888.688 1387.33 889.275 1386.75 890 1386.75H894.15C894.875 1386.75 895.45 1387.33 895.45 1388.05Z" fill="white"/>
<path d="M903.2 1388.05V1392.08C903.2 1392.44 902.912 1392.74 902.55 1392.74C902.188 1392.74 901.9 1392.44 901.9 1392.08V1388.66H901.55V1398.09C901.55 1398.47 901.237 1398.8 900.837 1398.8C900.45 1398.8 900.125 1398.47 900.125 1398.09V1392.66H899.6V1398.09C899.6 1398.47 899.287 1398.8 898.887 1398.8C898.5 1398.8 898.175 1398.47 898.175 1398.09V1388.66H897.737V1392.08C897.737 1392.44 897.45 1392.74 897.087 1392.74C896.725 1392.74 896.437 1392.44 896.437 1392.08V1388.05C896.437 1387.33 897.025 1386.75 897.737 1386.75H901.9C902.612 1386.75 903.2 1387.33 903.2 1388.05Z" fill="white"/>
<path d="M893.459 1375.28H894.612C894.727 1375.28 894.82 1375.37 894.82 1375.49V1378.04C894.82 1378.14 894.899 1378.22 894.996 1378.22H896.888C896.985 1378.22 897.064 1378.14 897.064 1378.04V1375.49C897.064 1375.37 897.156 1375.28 897.271 1375.28H898.425C898.591 1375.28 898.674 1375.08 898.556 1374.96L896.198 1372.61C896.056 1372.46 895.827 1372.46 895.688 1372.61L893.329 1374.96C893.211 1375.08 893.294 1375.28 893.459 1375.28Z" fill="white"/>
<path d="M903.246 1378.11C903.388 1378.25 903.616 1378.25 903.756 1378.11L906.115 1375.75C906.232 1375.63 906.149 1375.43 905.984 1375.43H904.83C904.715 1375.43 904.622 1375.34 904.622 1375.23V1372.67C904.622 1372.58 904.544 1372.5 904.446 1372.5H902.555C902.458 1372.5 902.379 1372.58 902.379 1372.67V1375.23C902.379 1375.34 902.286 1375.43 902.171 1375.43H901.017C900.851 1375.43 900.769 1375.63 900.886 1375.75L903.246 1378.11Z" fill="white"/>
</g>
<g id="cheongsong_hall_311">
<path d="M6 301C6 305.418 9.58172 309 14 309H70C74.4183 309 78 305.418 78 301V228C78 223.582 74.4183 220 70 220H14C9.58172 220 6 223.582 6 228V301Z" fill="#F7FBFF"/>
<path d="M70 223V220H14L14 223H70ZM75 228V301C75 303.761 72.7614 306 70 306H14C11.2386 306 9 303.761 9 301V228C9 225.239 11.2386 223 14 223L14 220L13.5879 220.011C9.36114 220.225 6 223.72 6 228V301C6 305.418 9.58172 309 14 309H70C74.4183 309 78 305.418 78 301V228C78 223.582 74.4183 220 70 220V223C72.7614 223 75 225.239 75 228Z" fill="#2E2F33" fill-opacity="0.88"/>
<path d="M62.9688 252.375V275H58.875V256.344H58.75L53.4688 259.719V256L59.0625 252.375H62.9688Z" fill="black"/>
<path d="M48.2812 252.375V275H44.1875V256.344H44.0625L38.7812 259.719V256L44.375 252.375H48.2812Z" fill="black"/>
<path d="M27.0938 275.312C22.25 275.312 18.8125 272.688 18.7188 268.875H22.8125C22.9375 270.688 24.75 271.875 27.0938 271.875C29.5938 271.875 31.375 270.5 31.375 268.5C31.375 266.469 29.625 265 26.6875 265H24.6562V261.875H26.6875C29.0938 261.875 30.7812 260.531 30.75 258.562C30.7812 256.656 29.3438 255.375 27.125 255.375C25 255.375 23.1562 256.562 23.0938 258.469H19.1875C19.2812 254.656 22.7188 252.062 27.1562 252.062C31.75 252.062 34.7188 254.875 34.6875 258.344C34.7188 260.875 33.0312 262.719 30.5625 263.219V263.406C33.75 263.844 35.5625 265.875 35.5312 268.719C35.5625 272.531 32 275.312 27.0938 275.312Z" fill="black"/>
</g>
<g id="cheongsong_hall_312">
<path d="M75 301C75 305.418 78.5817 309 83 309H139C143.418 309 147 305.418 147 301V228C147 223.582 143.418 220 139 220H83C78.5817 220 75 223.582 75 228V301Z" fill="#F7FBFF"/>
<path d="M139 223V220H83L83 223H139ZM144 228V301C144 303.761 141.761 306 139 306H83C80.2386 306 78 303.761 78 301V228C78 225.239 80.2386 223 83 223L83 220L82.5879 220.011C78.3611 220.225 75 223.72 75 228V301C75 305.418 78.5817 309 83 309H139C143.418 309 147 305.418 147 301V228C147 223.582 143.418 220 139 220V223C141.761 223 144 225.239 144 228Z" fill="#2E2F33" fill-opacity="0.88"/>
<path d="M120.781 275V272.062L128.781 264.344C131.062 262.062 132.25 260.719 132.25 258.812C132.25 256.719 130.594 255.375 128.375 255.375C126.031 255.375 124.531 256.844 124.562 259.125H120.687C120.656 254.844 123.875 252.062 128.406 252.062C133.031 252.062 136.156 254.812 136.156 258.625C136.156 261.188 134.906 263.25 130.469 267.438L126.437 271.438V271.594H136.5V275H120.781Z" fill="black"/>
<path d="M115.281 252.375V275H111.188V256.344H111.062L105.781 259.719V256L111.375 252.375H115.281Z" fill="black"/>
<path d="M94.0938 275.312C89.25 275.312 85.8125 272.688 85.7188 268.875H89.8125C89.9375 270.688 91.75 271.875 94.0938 271.875C96.5938 271.875 98.375 270.5 98.375 268.5C98.375 266.469 96.625 265 93.6875 265H91.6562V261.875H93.6875C96.0938 261.875 97.7812 260.531 97.75 258.562C97.7812 256.656 96.3438 255.375 94.125 255.375C92 255.375 90.1562 256.562 90.0938 258.469H86.1875C86.2812 254.656 89.7188 252.062 94.1562 252.062C98.75 252.062 101.719 254.875 101.688 258.344C101.719 260.875 100.031 262.719 97.5625 263.219V263.406C100.75 263.844 102.562 265.875 102.531 268.719C102.562 272.531 99 275.312 94.0938 275.312Z" fill="black"/>
</g>
<g id="cheongsong_hall_313">
<path d="M144 301C144 305.418 147.582 309 152 309H208C212.418 309 216 305.418 216 301V228C216 223.582 212.418 220 208 220H152C147.582 220 144 223.582 144 228V301Z" fill="#F7FBFF"/>
<path d="M208 223V220H152L152 223H208ZM213 228V301C213 303.761 210.761 306 208 306H152C149.239 306 147 303.761 147 301V228C147 225.239 149.239 223 152 223L152 220L151.588 220.011C147.361 220.225 144 223.72 144 228V301C144 305.418 147.582 309 152 309H208C212.418 309 216 305.418 216 301V228C216 223.582 212.418 220 208 220V223C210.761 223 213 225.239 213 228Z" fill="#2E2F33" fill-opacity="0.88"/>
<path d="M197 275.312C192.156 275.312 188.719 272.688 188.625 268.875H192.719C192.844 270.688 194.656 271.875 197 271.875C199.5 271.875 201.281 270.5 201.281 268.5C201.281 266.469 199.531 265 196.594 265H194.562V261.875H196.594C199 261.875 200.688 260.531 200.656 258.562C200.688 256.656 199.25 255.375 197.031 255.375C194.906 255.375 193.062 256.562 193 258.469H189.094C189.188 254.656 192.625 252.062 197.062 252.062C201.656 252.062 204.625 254.875 204.594 258.344C204.625 260.875 202.938 262.719 200.469 263.219V263.406C203.656 263.844 205.469 265.875 205.438 268.719C205.469 272.531 201.906 275.312 197 275.312Z" fill="black"/>
<path d="M183.281 252.375V275H179.188V256.344H179.062L173.781 259.719V256L179.375 252.375H183.281Z" fill="black"/>
<path d="M162.094 275.312C157.25 275.312 153.812 272.688 153.719 268.875H157.812C157.938 270.688 159.75 271.875 162.094 271.875C164.594 271.875 166.375 270.5 166.375 268.5C166.375 266.469 164.625 265 161.688 265H159.656V261.875H161.688C164.094 261.875 165.781 260.531 165.75 258.562C165.781 256.656 164.344 255.375 162.125 255.375C160 255.375 158.156 256.562 158.094 258.469H154.188C154.281 254.656 157.719 252.062 162.156 252.062C166.75 252.062 169.719 254.875 169.688 258.344C169.719 260.875 168.031 262.719 165.562 263.219V263.406C168.75 263.844 170.562 265.875 170.531 268.719C170.562 272.531 167 275.312 162.094 275.312Z" fill="black"/>
</g>
<g id="cheongsong_hall_314">
<path d="M213 301C213 305.418 216.582 309 221 309H277C281.418 309 285 305.418 285 301V228C285 223.582 281.418 220 277 220H221C216.582 220 213 223.582 213 228V301Z" fill="#F7FBFF"/>
<path d="M277 223V220H221L221 223H277ZM282 228V301C282 303.761 279.761 306 277 306H221C218.239 306 216 303.761 216 301V228C216 225.239 218.239 223 221 223L221 220L220.588 220.011C216.361 220.225 213 223.72 213 228V301C213 305.418 216.582 309 221 309H277C281.418 309 285 305.418 285 301V228C285 223.582 281.418 220 277 220V223C279.761 223 282 225.239 282 228Z" fill="#2E2F33" fill-opacity="0.88"/>
<path d="M257.375 270.781V267.531L267.156 252.375H272.219V267.438H275.188V270.781H272.219V275H268.344V270.781H257.375ZM261.531 267.438H268.406V257H268.156L261.531 267.281V267.438Z" fill="black"/>
<path d="M252.281 252.375V275H248.188V256.344H248.062L242.781 259.719V256L248.375 252.375H252.281Z" fill="black"/>
<path d="M231.094 275.312C226.25 275.312 222.812 272.688 222.719 268.875H226.812C226.938 270.688 228.75 271.875 231.094 271.875C233.594 271.875 235.375 270.5 235.375 268.5C235.375 266.469 233.625 265 230.688 265H228.656V261.875H230.688C233.094 261.875 234.781 260.531 234.75 258.562C234.781 256.656 233.344 255.375 231.125 255.375C229 255.375 227.156 256.562 227.094 258.469H223.188C223.281 254.656 226.719 252.062 231.156 252.062C235.75 252.062 238.719 254.875 238.688 258.344C238.719 260.875 237.031 262.719 234.562 263.219V263.406C237.75 263.844 239.562 265.875 239.531 268.719C239.562 272.531 236 275.312 231.094 275.312Z" fill="black"/>
</g>
<g id="cheongsong_hall_315">
<path d="M282 301C282 305.418 285.582 309 290 309H346C350.418 309 354 305.418 354 301V228C354 223.582 350.418 220 346 220H290C285.582 220 282 223.582 282 228V301Z" fill="#F7FBFF"/>
<path d="M346 223V220H290L290 223H346ZM351 228V301C351 303.761 348.761 306 346 306H290C287.239 306 285 303.761 285 301V228C285 225.239 287.239 223 290 223L290 220L289.588 220.011C285.361 220.225 282 223.72 282 228V301C282 305.418 285.582 309 290 309H346C350.418 309 354 305.418 354 301V228C354 223.582 350.418 220 346 220V223C348.761 223 351 225.239 351 228Z" fill="#2E2F33" fill-opacity="0.88"/>
<path d="M335.812 275.312C331.281 275.312 327.969 272.625 327.844 268.875H331.812C331.938 270.719 333.656 272.031 335.812 272.031C338.344 272.031 340.156 270.188 340.156 267.688C340.156 265.094 338.281 263.25 335.688 263.25C333.938 263.219 332.656 263.844 331.938 265.188H328.156L329.531 252.375H342.906V255.781H332.875L332.188 261.781H332.406C333.281 260.781 334.938 260.062 336.781 260.062C341 260.062 344.094 263.219 344.094 267.562C344.094 272.094 340.688 275.312 335.812 275.312Z" fill="black"/>
<path d="M322.281 252.375V275H318.188V256.344H318.062L312.781 259.719V256L318.375 252.375H322.281Z" fill="black"/>
<path d="M301.094 275.312C296.25 275.312 292.812 272.688 292.719 268.875H296.812C296.938 270.688 298.75 271.875 301.094 271.875C303.594 271.875 305.375 270.5 305.375 268.5C305.375 266.469 303.625 265 300.688 265H298.656V261.875H300.688C303.094 261.875 304.781 260.531 304.75 258.562C304.781 256.656 303.344 255.375 301.125 255.375C299 255.375 297.156 256.562 297.094 258.469H293.188C293.281 254.656 296.719 252.062 301.156 252.062C305.75 252.062 308.719 254.875 308.688 258.344C308.719 260.875 307.031 262.719 304.562 263.219V263.406C307.75 263.844 309.562 265.875 309.531 268.719C309.562 272.531 306 275.312 301.094 275.312Z" fill="black"/>
</g>
<g id="cheongsong_hall_316">
<path d="M351 301C351 305.418 354.582 309 359 309H415C419.418 309 423 305.418 423 301V228C423 223.582 419.418 220 415 220H359C354.582 220 351 223.582 351 228V301Z" fill="#F7FBFF"/>
<path d="M415 223V220H359L359 223H415ZM420 228V301C420 303.761 417.761 306 415 306H359C356.239 306 354 303.761 354 301V228C354 225.239 356.239 223 359 223L359 220L358.588 220.011C354.361 220.225 351 223.72 351 228V301C351 305.418 354.582 309 359 309H415C419.418 309 423 305.418 423 301V228C423 223.582 419.418 220 415 220V223C417.761 223 420 225.239 420 228Z" fill="#2E2F33" fill-opacity="0.88"/>
<path d="M404.25 275.312C399.844 275.281 395.406 272.656 395.438 264.312C395.438 256.562 398.969 252.062 404.5 252.062C408.875 252.062 411.875 254.812 412.375 258.469H408.344C407.938 256.75 406.563 255.594 404.5 255.594C401.219 255.594 399.375 258.5 399.375 263.25H399.594C400.75 261.312 402.938 260.156 405.406 260.156C409.469 260.156 412.594 263.219 412.594 267.5C412.594 272 409.25 275.344 404.25 275.312ZM404.25 272.031C406.781 272.031 408.656 270.062 408.656 267.594C408.656 265.188 406.813 263.25 404.313 263.25C401.781 263.25 399.844 265.25 399.813 267.625C399.844 270 401.688 272.031 404.25 272.031Z" fill="black"/>
<path d="M390.281 252.375V275H386.188V256.344H386.062L380.781 259.719V256L386.375 252.375H390.281Z" fill="black"/>
<path d="M369.094 275.312C364.25 275.312 360.812 272.688 360.719 268.875H364.812C364.938 270.688 366.75 271.875 369.094 271.875C371.594 271.875 373.375 270.5 373.375 268.5C373.375 266.469 371.625 265 368.688 265H366.656V261.875H368.688C371.094 261.875 372.781 260.531 372.75 258.562C372.781 256.656 371.344 255.375 369.125 255.375C367 255.375 365.156 256.562 365.094 258.469H361.188C361.281 254.656 364.719 252.062 369.156 252.062C373.75 252.062 376.719 254.875 376.688 258.344C376.719 260.875 375.031 262.719 372.562 263.219V263.406C375.75 263.844 377.562 265.875 377.531 268.719C377.562 272.531 374 275.312 369.094 275.312Z" fill="black"/>
</g>
<g id="cheongsong_hall_317">
<path d="M421 301C421 305.418 424.582 309 429 309H481C485.418 309 489 305.418 489 301V188C489 183.582 485.418 180 481 180H429C424.582 180 421 183.582 421 188V301Z" fill="#F7FBFF"/>
<path d="M481 183V180H429L429 183H481ZM486 188V301C486 303.761 483.761 306 481 306H429C426.239 306 424 303.761 424 301V188C424 185.239 426.239 183 429 183L429 180L428.588 180.011C424.361 180.225 421 183.72 421 188V301C421 305.418 424.582 309 429 309H481C485.418 309 489 305.418 489 301V188C489 183.582 485.418 180 481 180V183C483.761 183 486 185.239 486 188Z" fill="#2E2F33" fill-opacity="0.88"/>
<path d="M465.625 255L475.438 235.938V235.781H464.062V232.375H479.656V235.844L469.844 255H465.625Z" fill="black"/>
<path d="M459.281 232.375V255H455.188V236.344H455.062L449.781 239.719V236L455.375 232.375H459.281Z" fill="black"/>
<path d="M438.094 255.312C433.25 255.312 429.812 252.688 429.719 248.875H433.812C433.938 250.688 435.75 251.875 438.094 251.875C440.594 251.875 442.375 250.5 442.375 248.5C442.375 246.469 440.625 245 437.688 245H435.656V241.875H437.688C440.094 241.875 441.781 240.531 441.75 238.562C441.781 236.656 440.344 235.375 438.125 235.375C436 235.375 434.156 236.562 434.094 238.469H430.188C430.281 234.656 433.719 232.062 438.156 232.062C442.75 232.062 445.719 234.875 445.688 238.344C445.719 240.875 444.031 242.719 441.562 243.219V243.406C444.75 243.844 446.562 245.875 446.531 248.719C446.562 252.531 443 255.312 438.094 255.312Z" fill="black"/>
</g>
<g id="cheongsong_hall_318">
<path d="M486 301C486 305.418 489.582 309 494 309H548C552.418 309 556 305.418 556 301V188C556 183.582 552.418 180 548 180H494C489.582 180 486 183.582 486 188V301Z" fill="#F7FBFF"/>
<path d="M548 183V180H494L494 183H548ZM553 188V301C553 303.761 550.761 306 548 306H494C491.239 306 489 303.761 489 301V188C489 185.239 491.239 183 494 183L494 180L493.588 180.011C489.361 180.225 486 183.72 486 188V301C486 305.418 489.582 309 494 309H548C552.418 309 556 305.418 556 301V188C556 183.582 552.418 180 548 180V183C550.761 183 553 185.239 553 188Z" fill="#2E2F33" fill-opacity="0.88"/>
<path d="M538 255.312C532.969 255.312 529.406 252.625 529.406 248.938C529.406 246.062 531.531 243.719 534.25 243.281V243.156C531.875 242.656 530.25 240.594 530.25 238.125C530.25 234.625 533.531 232.062 538 232.062C542.438 232.062 545.719 234.625 545.719 238.125C545.719 240.594 544.062 242.656 541.719 243.156V243.281C544.438 243.719 546.594 246.062 546.594 248.938C546.594 252.625 543 255.312 538 255.312ZM538 252.094C540.656 252.094 542.406 250.656 542.406 248.562C542.406 246.438 540.531 244.875 538 244.875C535.438 244.875 533.562 246.438 533.594 248.562C533.562 250.656 535.312 252.094 538 252.094ZM538 241.844C540.188 241.844 541.75 240.469 541.75 238.5C541.75 236.594 540.219 235.25 538 235.25C535.75 235.25 534.219 236.562 534.219 238.5C534.219 240.469 535.781 241.844 538 241.844Z" fill="black"/>
<path d="M524.281 232.375V255H520.188V236.344H520.062L514.781 239.719V236L520.375 232.375H524.281Z" fill="black"/>
<path d="M503.094 255.312C498.25 255.312 494.812 252.688 494.719 248.875H498.812C498.938 250.688 500.75 251.875 503.094 251.875C505.594 251.875 507.375 250.5 507.375 248.5C507.375 246.469 505.625 245 502.688 245H500.656V241.875H502.688C505.094 241.875 506.781 240.531 506.75 238.562C506.781 236.656 505.344 235.375 503.125 235.375C501 235.375 499.156 236.562 499.094 238.469H495.188C495.281 234.656 498.719 232.062 503.156 232.062C507.75 232.062 510.719 234.875 510.688 238.344C510.719 240.875 509.031 242.719 506.562 243.219V243.406C509.75 243.844 511.562 245.875 511.531 248.719C511.562 252.531 508 255.312 503.094 255.312Z" fill="black"/>
</g>
<g id="cheongsong_hall_319">
<path d="M553 301C553 305.418 556.582 309 561 309H617C621.418 309 625 305.418 625 301V188C625 183.582 621.418 180 617 180H561C556.582 180 553 183.582 553 188V301Z" fill="#F7FBFF"/>
<path d="M617 183V180H561L561 183H617ZM622 188V301C622 303.761 619.761 306 617 306H561C558.239 306 556 303.761 556 301V188C556 185.239 558.239 183 561 183L561 180L560.588 180.011C556.361 180.225 553 183.72 553 188V301C553 305.418 556.582 309 561 309H617C621.418 309 625 305.418 625 301V188C625 183.582 621.418 180 617 180V183C619.761 183 622 185.239 622 188Z" fill="#2E2F33" fill-opacity="0.88"/>
<path d="M605.812 232.063C610.25 232.094 614.625 234.719 614.656 243C614.656 250.812 611.125 255.312 605.562 255.312C601.188 255.312 598.188 252.594 597.688 248.844H601.719C602.125 250.625 603.5 251.781 605.562 251.781C608.844 251.781 610.688 248.875 610.719 244.031H610.469C609.312 246 607.156 247.156 604.656 247.156C600.625 247.156 597.5 244.094 597.469 239.813C597.469 235.375 600.781 232.031 605.812 232.063ZM605.844 235.344C603.312 235.344 601.406 237.313 601.438 239.719C601.438 242.156 603.25 244.062 605.781 244.062C608.281 244.062 610.25 242.031 610.219 239.688C610.219 237.375 608.375 235.344 605.844 235.344Z" fill="black"/>
<path d="M592.281 232.375V255H588.188V236.344H588.062L582.781 239.719V236L588.375 232.375H592.281Z" fill="black"/>
<path d="M571.094 255.312C566.25 255.312 562.812 252.688 562.719 248.875H566.812C566.938 250.688 568.75 251.875 571.094 251.875C573.594 251.875 575.375 250.5 575.375 248.5C575.375 246.469 573.625 245 570.688 245H568.656V241.875H570.688C573.094 241.875 574.781 240.531 574.75 238.562C574.781 236.656 573.344 235.375 571.125 235.375C569 235.375 567.156 236.562 567.094 238.469H563.188C563.281 234.656 566.719 232.062 571.156 232.062C575.75 232.062 578.719 234.875 578.688 238.344C578.719 240.875 577.031 242.719 574.562 243.219V243.406C577.75 243.844 579.562 245.875 579.531 248.719C579.562 252.531 576 255.312 571.094 255.312Z" fill="black"/>
</g>
<g id="cheongsong_hall_320">
<path d="M613 120C613 124.418 616.582 128 621 128H687C691.418 128 695 124.418 695 120V14C695 9.58172 691.418 6 687 6H621C616.582 6 613 9.58172 613 14V120Z" fill="#F7FBFF"/>
<path d="M687 9V6H621L621 9H687ZM692 14V120C692 122.761 689.761 125 687 125H621C618.239 125 616 122.761 616 120V14C616 11.2386 618.239 9 621 9L621 6C616.582 6 613 9.58172 613 14V120C613 124.28 616.361 127.775 620.588 127.989L621 128H687C691.418 128 695 124.418 695 120V14C695 9.58172 691.418 6 687 6V9C689.761 9 692 11.2386 692 14Z" fill="#2E2F33" fill-opacity="0.88"/>
<path d="M673.719 78.3125C668.281 78.3125 665.031 74.0938 665.031 66.6875C665.031 59.3125 668.281 55.0625 673.719 55.0625C679.125 55.0625 682.406 59.3125 682.406 66.6875C682.406 74.0938 679.156 78.3125 673.719 78.3125ZM673.719 74.9062C676.562 74.9062 678.312 72.125 678.312 66.6875C678.312 61.2812 676.531 58.4375 673.719 58.4375C670.906 58.4375 669.125 61.2812 669.125 66.6875C669.125 72.125 670.875 74.9062 673.719 74.9062Z" fill="black"/>
<path d="M646.094 78V75.0625L654.094 67.3438C656.375 65.0625 657.562 63.7188 657.562 61.8125C657.562 59.7188 655.906 58.375 653.687 58.375C651.344 58.375 649.844 59.8438 649.875 62.125H646C645.969 57.8438 649.187 55.0625 653.719 55.0625C658.344 55.0625 661.469 57.8125 661.469 61.625C661.469 64.1875 660.219 66.25 655.781 70.4375L651.75 74.4375V74.5938H661.812V78H646.094Z" fill="black"/>
<path d="M634.094 78.3125C629.25 78.3125 625.812 75.6875 625.719 71.875H629.812C629.938 73.6875 631.75 74.875 634.094 74.875C636.594 74.875 638.375 73.5 638.375 71.5C638.375 69.4688 636.625 68 633.688 68H631.656V64.875H633.688C636.094 64.875 637.781 63.5312 637.75 61.5625C637.781 59.6562 636.344 58.375 634.125 58.375C632 58.375 630.156 59.5625 630.094 61.4688H626.188C626.281 57.6562 629.719 55.0625 634.156 55.0625C638.75 55.0625 641.719 57.875 641.688 61.3438C641.719 63.875 640.031 65.7188 637.562 66.2188V66.4062C640.75 66.8438 642.562 68.875 642.531 71.7188C642.562 75.5312 639 78.3125 634.094 78.3125Z" fill="black"/>
</g>
<g id="cheongsong_hall_321">
<path d="M692 120C692 124.418 695.582 128 700 128H766C770.418 128 774 124.418 774 120V14C774 9.58172 770.418 6 766 6H700C695.582 6 692 9.58172 692 14V120Z" fill="#F7FBFF"/>
<path d="M766 9V6H700L700 9H766ZM771 14V120C771 122.761 768.761 125 766 125H700C697.239 125 695 122.761 695 120V14C695 11.2386 697.239 9 700 9L700 6C695.582 6 692 9.58172 692 14V120C692 124.28 695.361 127.775 699.588 127.989L700 128H766C770.418 128 774 124.418 774 120V14C774 9.58172 770.418 6 766 6V9C768.761 9 771 11.2386 771 14Z" fill="#2E2F33" fill-opacity="0.88"/>
<path d="M756.562 55.375V78H752.469V59.3438H752.344L747.062 62.7188V59L752.656 55.375H756.562Z" fill="black"/>
<path d="M728.094 78V75.0625L736.094 67.3438C738.375 65.0625 739.562 63.7188 739.562 61.8125C739.562 59.7188 737.906 58.375 735.687 58.375C733.344 58.375 731.844 59.8438 731.875 62.125H728C727.969 57.8438 731.187 55.0625 735.719 55.0625C740.344 55.0625 743.469 57.8125 743.469 61.625C743.469 64.1875 742.219 66.25 737.781 70.4375L733.75 74.4375V74.5938H743.812V78H728.094Z" fill="black"/>
<path d="M716.094 78.3125C711.25 78.3125 707.812 75.6875 707.719 71.875H711.812C711.938 73.6875 713.75 74.875 716.094 74.875C718.594 74.875 720.375 73.5 720.375 71.5C720.375 69.4688 718.625 68 715.688 68H713.656V64.875H715.688C718.094 64.875 719.781 63.5312 719.75 61.5625C719.781 59.6562 718.344 58.375 716.125 58.375C714 58.375 712.156 59.5625 712.094 61.4688H708.188C708.281 57.6562 711.719 55.0625 716.156 55.0625C720.75 55.0625 723.719 57.875 723.688 61.3438C723.719 63.875 722.031 65.7188 719.562 66.2188V66.4062C722.75 66.8438 724.562 68.875 724.531 71.7188C724.562 75.5312 721 78.3125 716.094 78.3125Z" fill="black"/>
</g>
<g id="cheongsong_hall_322">
<path d="M771 120C771 124.418 774.582 128 779 128H845C849.418 128 853 124.418 853 120V14C853 9.58172 849.418 6 845 6H779C774.582 6 771 9.58172 771 14V120Z" fill="#F7FBFF"/>
<path d="M845 9V6H779L779 9H845ZM850 14V120C850 122.761 847.761 125 845 125H779C776.239 125 774 122.761 774 120V14C774 11.2386 776.239 9 779 9L779 6C774.582 6 771 9.58172 771 14V120C771 124.28 774.361 127.775 778.588 127.989L779 128H845C849.418 128 853 124.418 853 120V14C853 9.58172 849.418 6 845 6V9C847.761 9 850 11.2386 850 14Z" fill="#2E2F33" fill-opacity="0.88"/>
<path d="M824.375 78V75.0625L832.375 67.3438C834.656 65.0625 835.844 63.7188 835.844 61.8125C835.844 59.7188 834.187 58.375 831.969 58.375C829.625 58.375 828.125 59.8438 828.156 62.125H824.281C824.25 57.8438 827.469 55.0625 832 55.0625C836.625 55.0625 839.75 57.8125 839.75 61.625C839.75 64.1875 838.5 66.25 834.062 70.4375L830.031 74.4375V74.5938H840.094V78H824.375Z" fill="black"/>
<path d="M805.094 78V75.0625L813.094 67.3438C815.375 65.0625 816.562 63.7188 816.562 61.8125C816.562 59.7188 814.906 58.375 812.687 58.375C810.344 58.375 808.844 59.8438 808.875 62.125H805C804.969 57.8438 808.187 55.0625 812.719 55.0625C817.344 55.0625 820.469 57.8125 820.469 61.625C820.469 64.1875 819.219 66.25 814.781 70.4375L810.75 74.4375V74.5938H820.812V78H805.094Z" fill="black"/>
<path d="M793.094 78.3125C788.25 78.3125 784.812 75.6875 784.719 71.875H788.812C788.938 73.6875 790.75 74.875 793.094 74.875C795.594 74.875 797.375 73.5 797.375 71.5C797.375 69.4688 795.625 68 792.688 68H790.656V64.875H792.688C795.094 64.875 796.781 63.5312 796.75 61.5625C796.781 59.6562 795.344 58.375 793.125 58.375C791 58.375 789.156 59.5625 789.094 61.4688H785.188C785.281 57.6562 788.719 55.0625 793.156 55.0625C797.75 55.0625 800.719 57.875 800.688 61.3438C800.719 63.875 799.031 65.7188 796.562 66.2188V66.4062C799.75 66.8438 801.562 68.875 801.531 71.7188C801.562 75.5312 798 78.3125 793.094 78.3125Z" fill="black"/>
</g>
<g id="cheongsong_hall_323">
<path d="M850 120C850 124.418 853.582 128 858 128H924C928.418 128 932 124.418 932 120V14C932 9.58172 928.418 6 924 6H858C853.582 6 850 9.58172 850 14V120Z" fill="#F7FBFF"/>
<path d="M924 9V6H858L858 9H924ZM929 14V120C929 122.761 926.761 125 924 125H858C855.239 125 853 122.761 853 120V14C853 11.2386 855.239 9 858 9L858 6C853.582 6 850 9.58172 850 14V120C850 124.28 853.361 127.775 857.588 127.989L858 128H924C928.418 128 932 124.418 932 120V14C932 9.58172 928.418 6 924 6V9C926.761 9 929 11.2386 929 14Z" fill="#2E2F33" fill-opacity="0.88"/>
<path d="M910.594 78.3125C905.75 78.3125 902.312 75.6875 902.219 71.875H906.312C906.438 73.6875 908.25 74.875 910.594 74.875C913.094 74.875 914.875 73.5 914.875 71.5C914.875 69.4688 913.125 68 910.188 68H908.156V64.875H910.188C912.594 64.875 914.281 63.5312 914.25 61.5625C914.281 59.6562 912.844 58.375 910.625 58.375C908.5 58.375 906.656 59.5625 906.594 61.4688H902.688C902.781 57.6562 906.219 55.0625 910.656 55.0625C915.25 55.0625 918.219 57.875 918.188 61.3438C918.219 63.875 916.531 65.7188 914.062 66.2188V66.4062C917.25 66.8438 919.062 68.875 919.031 71.7188C919.062 75.5312 915.5 78.3125 910.594 78.3125Z" fill="black"/>
<path d="M883.094 78V75.0625L891.094 67.3438C893.375 65.0625 894.562 63.7188 894.562 61.8125C894.562 59.7188 892.906 58.375 890.687 58.375C888.344 58.375 886.844 59.8438 886.875 62.125H883C882.969 57.8438 886.187 55.0625 890.719 55.0625C895.344 55.0625 898.469 57.8125 898.469 61.625C898.469 64.1875 897.219 66.25 892.781 70.4375L888.75 74.4375V74.5938H898.812V78H883.094Z" fill="black"/>
<path d="M871.094 78.3125C866.25 78.3125 862.812 75.6875 862.719 71.875H866.812C866.938 73.6875 868.75 74.875 871.094 74.875C873.594 74.875 875.375 73.5 875.375 71.5C875.375 69.4688 873.625 68 870.688 68H868.656V64.875H870.688C873.094 64.875 874.781 63.5312 874.75 61.5625C874.781 59.6562 873.344 58.375 871.125 58.375C869 58.375 867.156 59.5625 867.094 61.4688H863.188C863.281 57.6562 866.719 55.0625 871.156 55.0625C875.75 55.0625 878.719 57.875 878.688 61.3438C878.719 63.875 877.031 65.7188 874.562 66.2188V66.4062C877.75 66.8438 879.562 68.875 879.531 71.7188C879.562 75.5312 876 78.3125 871.094 78.3125Z" fill="black"/>
</g>
<g id="cheongsong_hall_308">
<path d="M98 491C98 495.418 101.582 499 106 499H283C287.418 499 291 495.418 291 491V355C291 350.582 287.418 347 283 347H106C101.582 347 98 350.582 98 355V491Z" fill="#F7FBFF"/>
<path d="M283 350V347H106L106 350H283ZM288 355V491C288 493.761 285.761 496 283 496H106C103.239 496 101 493.761 101 491V355C101 352.239 103.239 350 106 350L106 347C101.582 347 98 350.582 98 355V491C98 495.418 101.582 499 106 499H283C287.418 499 291 495.418 291 491V355C291 350.582 287.418 347 283 347V350C285.761 350 288 352.239 288 355Z" fill="#2E2F33" fill-opacity="0.88"/>
<path d="M214.75 434.312C209.719 434.312 206.156 431.625 206.156 427.938C206.156 425.062 208.281 422.719 211 422.281V422.156C208.625 421.656 207 419.594 207 417.125C207 413.625 210.281 411.062 214.75 411.062C219.188 411.062 222.469 413.625 222.469 417.125C222.469 419.594 220.812 421.656 218.469 422.156V422.281C221.188 422.719 223.344 425.062 223.344 427.938C223.344 431.625 219.75 434.312 214.75 434.312ZM214.75 431.094C217.406 431.094 219.156 429.656 219.156 427.562C219.156 425.438 217.281 423.875 214.75 423.875C212.188 423.875 210.312 425.438 210.344 427.562C210.312 429.656 212.062 431.094 214.75 431.094ZM214.75 420.844C216.938 420.844 218.5 419.469 218.5 417.5C218.5 415.594 216.969 414.25 214.75 414.25C212.5 414.25 210.969 415.562 210.969 417.5C210.969 419.469 212.531 420.844 214.75 420.844Z" fill="black"/>
<path d="M194.438 434.312C189 434.312 185.75 430.094 185.75 422.688C185.75 415.312 189 411.062 194.438 411.062C199.844 411.062 203.125 415.312 203.125 422.688C203.125 430.094 199.875 434.312 194.438 434.312ZM194.438 430.906C197.281 430.906 199.031 428.125 199.031 422.688C199.031 417.281 197.25 414.438 194.438 414.438C191.625 414.438 189.844 417.281 189.844 422.688C189.844 428.125 191.594 430.906 194.438 430.906Z" fill="black"/>
<path d="M174.094 434.312C169.25 434.312 165.812 431.688 165.719 427.875H169.812C169.938 429.688 171.75 430.875 174.094 430.875C176.594 430.875 178.375 429.5 178.375 427.5C178.375 425.469 176.625 424 173.688 424H171.656V420.875H173.688C176.094 420.875 177.781 419.531 177.75 417.562C177.781 415.656 176.344 414.375 174.125 414.375C172 414.375 170.156 415.562 170.094 417.469H166.188C166.281 413.656 169.719 411.062 174.156 411.062C178.75 411.062 181.719 413.875 181.688 417.344C181.719 419.875 180.031 421.719 177.562 422.219V422.406C180.75 422.844 182.562 424.875 182.531 427.719C182.562 431.531 179 434.312 174.094 434.312Z" fill="black"/>
</g>
<g id="cheongsong_hall_306">
<path d="M288 491C288 495.418 291.582 499 296 499H464C468.418 499 472 495.418 472 491V355C472 350.582 468.418 347 464 347H296C291.582 347 288 350.582 288 355V491Z" fill="#F7FBFF"/>
<path d="M464 350V347H296L296 350H464ZM469 355V491C469 493.761 466.761 496 464 496H296C293.239 496 291 493.761 291 491V355C291 352.239 293.239 350 296 350L296 347L295.588 347.011C291.361 347.225 288 350.72 288 355V491C288 495.418 291.582 499 296 499H464C468.418 499 472 495.418 472 491V355C472 350.582 468.418 347 464 347V350C466.761 350 469 352.239 469 355Z" fill="#2E2F33" fill-opacity="0.88"/>
<path d="M400 434.312C395.594 434.281 391.156 431.656 391.188 423.312C391.188 415.562 394.719 411.062 400.25 411.062C404.625 411.062 407.625 413.812 408.125 417.469H404.094C403.688 415.75 402.313 414.594 400.25 414.594C396.969 414.594 395.125 417.5 395.125 422.25H395.344C396.5 420.312 398.688 419.156 401.156 419.156C405.219 419.156 408.344 422.219 408.344 426.5C408.344 431 405 434.344 400 434.312ZM400 431.031C402.531 431.031 404.406 429.062 404.406 426.594C404.406 424.188 402.563 422.25 400.063 422.25C397.531 422.25 395.594 424.25 395.563 426.625C395.594 429 397.438 431.031 400 431.031Z" fill="black"/>
<path d="M379.438 434.312C374 434.312 370.75 430.094 370.75 422.688C370.75 415.312 374 411.062 379.438 411.062C384.844 411.062 388.125 415.312 388.125 422.688C388.125 430.094 384.875 434.312 379.438 434.312ZM379.438 430.906C382.281 430.906 384.031 428.125 384.031 422.688C384.031 417.281 382.25 414.438 379.438 414.438C376.625 414.438 374.844 417.281 374.844 422.688C374.844 428.125 376.594 430.906 379.438 430.906Z" fill="black"/>
<path d="M359.094 434.312C354.25 434.312 350.812 431.688 350.719 427.875H354.812C354.938 429.688 356.75 430.875 359.094 430.875C361.594 430.875 363.375 429.5 363.375 427.5C363.375 425.469 361.625 424 358.688 424H356.656V420.875H358.688C361.094 420.875 362.781 419.531 362.75 417.562C362.781 415.656 361.344 414.375 359.125 414.375C357 414.375 355.156 415.562 355.094 417.469H351.188C351.281 413.656 354.719 411.062 359.156 411.062C363.75 411.062 366.719 413.875 366.688 417.344C366.719 419.875 365.031 421.719 362.562 422.219V422.406C365.75 422.844 367.562 424.875 367.531 427.719C367.562 431.531 364 434.312 359.094 434.312Z" fill="black"/>
</g>
<g id="cheongsong_hall_304">
<path d="M516 608C516 612.418 519.582 616 524 616H609C613.418 616 617 612.418 617 608V504C617 499.582 613.418 496 609 496H524C519.582 496 516 499.582 516 504V608Z" fill="#F7FBFF"/>
<path d="M609 499V496H524L524 499H609ZM614 504V608C614 610.761 611.761 613 609 613H524C521.239 613 519 610.761 519 608V504C519 501.239 521.239 499 524 499L524 496L523.588 496.011C519.361 496.225 516 499.72 516 504V608C516 612.418 519.582 616 524 616H609C613.418 616 617 612.418 617 608V504C617 499.582 613.418 496 609 496V499C611.761 499 614 501.239 614 504Z" fill="#2E2F33" fill-opacity="0.88"/>
<path d="M577.125 562.781V559.531L586.906 544.375H591.969V559.438H594.938V562.781H591.969V567H588.094V562.781H577.125ZM581.281 559.438H588.156V549H587.906L581.281 559.281V559.438Z" fill="black"/>
<path d="M565.438 567.312C560 567.312 556.75 563.094 556.75 555.688C556.75 548.312 560 544.062 565.438 544.062C570.844 544.062 574.125 548.312 574.125 555.688C574.125 563.094 570.875 567.312 565.438 567.312ZM565.438 563.906C568.281 563.906 570.031 561.125 570.031 555.688C570.031 550.281 568.25 547.438 565.438 547.438C562.625 547.438 560.844 550.281 560.844 555.688C560.844 561.125 562.594 563.906 565.438 563.906Z" fill="black"/>
<path d="M545.094 567.312C540.25 567.312 536.812 564.688 536.719 560.875H540.812C540.938 562.688 542.75 563.875 545.094 563.875C547.594 563.875 549.375 562.5 549.375 560.5C549.375 558.469 547.625 557 544.688 557H542.656V553.875H544.688C547.094 553.875 548.781 552.531 548.75 550.562C548.781 548.656 547.344 547.375 545.125 547.375C543 547.375 541.156 548.562 541.094 550.469H537.188C537.281 546.656 540.719 544.062 545.156 544.062C549.75 544.062 552.719 546.875 552.688 550.344C552.719 552.875 551.031 554.719 548.562 555.219V555.406C551.75 555.844 553.562 557.875 553.531 560.719C553.562 564.531 550 567.312 545.094 567.312Z" fill="black"/>
</g>
<g id="cheongsong_hall_331">
<path d="M870.33 857.432C873.454 860.557 873.454 865.622 870.33 868.746L854.776 884.3C853.286 885.79 851.269 886.632 849.162 886.643L755.605 887.137C753.469 887.148 751.417 886.304 749.906 884.794L667.605 802.493C666.123 801.011 665.282 799.006 665.262 796.909L664.391 701.892C664.371 699.745 665.215 697.68 666.734 696.161L682.239 680.656C685.364 677.531 690.429 677.531 693.553 680.656L870.33 857.432Z" fill="#F7FBFF"/>
<path d="M693.553 680.656L870.33 857.432C873.454 860.557 873.454 865.622 870.33 868.746L854.776 884.3C853.286 885.79 851.269 886.632 849.162 886.643L755.605 887.137C753.469 887.148 751.417 886.304 749.906 884.794L667.605 802.493L667.335 802.209C666.021 800.76 665.28 798.875 665.262 796.909L664.391 701.892C664.373 699.879 665.113 697.938 666.457 696.452L666.734 696.161L668.855 698.283C667.906 699.232 667.379 700.522 667.391 701.864L668.262 796.881C668.274 798.192 668.8 799.445 669.726 800.371L752.027 882.672C752.971 883.616 754.254 884.144 755.589 884.137L849.146 883.642C850.463 883.635 851.724 883.11 852.655 882.178L868.209 866.625C870.161 864.672 870.161 861.506 868.209 859.554L691.432 682.777C689.479 680.824 686.313 680.824 684.361 682.777L682.239 680.656C685.364 677.531 690.429 677.531 693.553 680.656ZM668.855 698.283L666.734 696.161L682.239 680.656L684.361 682.777L668.855 698.283Z" fill="#2E2F33" fill-opacity="0.88"/>
<path d="M767.502 788.374V810.999H763.409V792.343H763.284L758.002 795.718V791.999L763.596 788.374H767.502Z" fill="black"/>
<path d="M746.315 811.312C741.471 811.312 738.034 808.687 737.94 804.874H742.034C742.159 806.687 743.971 807.874 746.315 807.874C748.815 807.874 750.596 806.499 750.596 804.499C750.596 802.468 748.846 800.999 745.909 800.999H743.877V797.874H745.909C748.315 797.874 750.002 796.531 749.971 794.562C750.002 792.656 748.565 791.374 746.346 791.374C744.221 791.374 742.377 792.562 742.315 794.468H738.409C738.502 790.656 741.94 788.062 746.377 788.062C750.971 788.062 753.94 790.874 753.909 794.343C753.94 796.874 752.252 798.718 749.784 799.218V799.406C752.971 799.843 754.784 801.874 754.752 804.718C754.784 808.531 751.221 811.312 746.315 811.312Z" fill="black"/>
<path d="M726.096 811.312C721.252 811.312 717.815 808.687 717.721 804.874H721.815C721.94 806.687 723.752 807.874 726.096 807.874C728.596 807.874 730.377 806.499 730.377 804.499C730.377 802.468 728.627 800.999 725.69 800.999H723.659V797.874H725.69C728.096 797.874 729.784 796.531 729.752 794.562C729.784 792.656 728.346 791.374 726.127 791.374C724.002 791.374 722.159 792.562 722.096 794.468H718.19C718.284 790.656 721.721 788.062 726.159 788.062C730.752 788.062 733.721 790.874 733.69 794.343C733.721 796.874 732.034 798.718 729.565 799.218V799.406C732.752 799.843 734.565 801.874 734.534 804.718C734.565 808.531 731.002 811.312 726.096 811.312Z" fill="black"/>
</g>
<g id="cheongsong_hall_330">
<path d="M912.44 811.328C915.564 814.452 920.63 814.452 923.754 811.328L939.307 795.774C940.797 794.284 941.639 792.267 941.651 790.16L942.144 696.603C942.156 694.467 941.312 692.415 939.801 690.904L857.501 608.603C856.018 607.121 854.014 606.28 851.917 606.26L756.899 605.389C754.752 605.369 752.687 606.214 751.169 607.732L735.663 623.238C732.539 626.362 732.539 631.427 735.663 634.551L912.44 811.328Z" fill="#F7FBFF"/>
<path d="M735.663 634.551L912.44 811.328C915.564 814.452 920.63 814.452 923.754 811.328L939.307 795.774C940.797 794.284 941.639 792.267 941.651 790.16L942.144 696.603C942.156 694.467 941.312 692.415 939.801 690.904L857.501 608.603L857.217 608.333C855.767 607.019 853.882 606.279 851.917 606.26L756.899 605.389C754.887 605.371 752.946 606.111 751.46 607.455L751.169 607.732L753.291 609.853C754.24 608.904 755.53 608.377 756.872 608.389L851.889 609.26C853.199 609.272 854.453 609.798 855.379 610.724L937.68 693.025C938.624 693.969 939.152 695.252 939.144 696.587L938.65 790.144C938.643 791.461 938.117 792.722 937.186 793.653L921.633 809.207C919.68 811.159 916.514 811.159 914.561 809.207L737.785 632.43C735.832 630.477 735.832 627.311 737.785 625.359L735.663 623.238C732.539 626.362 732.539 631.427 735.663 634.551ZM753.291 609.853L751.169 607.732L735.663 623.238L737.785 625.359L753.291 609.853Z" fill="#2E2F33" fill-opacity="0.88"/>
<path d="M877.659 702.313C872.222 702.313 868.972 698.094 868.972 690.688C868.972 683.313 872.222 679.063 877.659 679.063C883.066 679.063 886.347 683.313 886.347 690.688C886.347 698.094 883.097 702.313 877.659 702.313ZM877.659 698.907C880.503 698.907 882.253 696.125 882.253 690.688C882.253 685.282 880.472 682.438 877.659 682.438C874.847 682.438 873.066 685.282 873.066 690.688C873.066 696.125 874.816 698.907 877.659 698.907Z" fill="black"/>
<path d="M857.316 702.313C852.472 702.313 849.034 699.688 848.941 695.875H853.034C853.159 697.688 854.972 698.875 857.316 698.875C859.816 698.875 861.597 697.5 861.597 695.5C861.597 693.469 859.847 692 856.909 692H854.878V688.875H856.909C859.316 688.875 861.003 687.532 860.972 685.563C861.003 683.657 859.566 682.375 857.347 682.375C855.222 682.375 853.378 683.563 853.316 685.469H849.409C849.503 681.657 852.941 679.063 857.378 679.063C861.972 679.063 864.941 681.875 864.909 685.344C864.941 687.875 863.253 689.719 860.784 690.219V690.407C863.972 690.844 865.784 692.875 865.753 695.719C865.784 699.532 862.222 702.313 857.316 702.313Z" fill="black"/>
<path d="M837.097 702.313C832.253 702.313 828.816 699.688 828.722 695.875H832.816C832.941 697.688 834.753 698.875 837.097 698.875C839.597 698.875 841.378 697.5 841.378 695.5C841.378 693.469 839.628 692 836.691 692H834.659V688.875H836.691C839.097 688.875 840.784 687.532 840.753 685.563C840.784 683.657 839.347 682.375 837.128 682.375C835.003 682.375 833.159 683.563 833.097 685.469H829.191C829.284 681.657 832.722 679.063 837.159 679.063C841.753 679.063 844.722 681.875 844.691 685.344C844.722 687.875 843.034 689.719 840.566 690.219V690.407C843.753 690.844 845.566 692.875 845.534 695.719C845.566 699.532 842.003 702.313 837.097 702.313Z" fill="black"/>
</g>
<g id="cheongsong_hall_381">
<path d="M980 991C980 995.418 983.582 999 988 999H1072C1076.42 999 1080 995.418 1080 991V884C1080 879.582 1076.42 876 1072 876H988C983.582 876 980 879.582 980 884V991Z" fill="#F7FBFF"/>
<path d="M1072 879V876H988L988 879H1072ZM1077 884V991C1077 993.761 1074.76 996 1072 996H988C985.239 996 983 993.761 983 991V884C983 881.239 985.239 879 988 879L988 876L987.588 876.011C983.361 876.225 980 879.72 980 884V991C980 995.418 983.582 999 988 999H1072C1076.42 999 1080 995.418 1080 991V884C1080 879.582 1076.42 876 1072 876V879C1074.76 879 1077 881.239 1077 884Z" fill="#2E2F33" fill-opacity="0.88"/>
<path d="M1053.47 925.375V948H1049.38V929.344H1049.25L1043.97 932.719V929L1049.56 925.375H1053.47Z" fill="black"/>
<path d="M1032.31 948.312C1027.28 948.312 1023.72 945.625 1023.72 941.938C1023.72 939.062 1025.84 936.719 1028.56 936.281V936.156C1026.19 935.656 1024.56 933.594 1024.56 931.125C1024.56 927.625 1027.84 925.062 1032.31 925.062C1036.75 925.062 1040.03 927.625 1040.03 931.125C1040.03 933.594 1038.38 935.656 1036.03 936.156V936.281C1038.75 936.719 1040.91 939.062 1040.91 941.938C1040.91 945.625 1037.31 948.312 1032.31 948.312ZM1032.31 945.094C1034.97 945.094 1036.72 943.656 1036.72 941.562C1036.72 939.438 1034.84 937.875 1032.31 937.875C1029.75 937.875 1027.88 939.438 1027.91 941.562C1027.88 943.656 1029.62 945.094 1032.31 945.094ZM1032.31 934.844C1034.5 934.844 1036.06 933.469 1036.06 931.5C1036.06 929.594 1034.53 928.25 1032.31 928.25C1030.06 928.25 1028.53 929.562 1028.53 931.5C1028.53 933.469 1030.09 934.844 1032.31 934.844Z" fill="black"/>
<path d="M1012.09 948.312C1007.25 948.312 1003.81 945.688 1003.72 941.875H1007.81C1007.94 943.688 1009.75 944.875 1012.09 944.875C1014.59 944.875 1016.38 943.5 1016.38 941.5C1016.38 939.469 1014.62 938 1011.69 938H1009.66V934.875H1011.69C1014.09 934.875 1015.78 933.531 1015.75 931.562C1015.78 929.656 1014.34 928.375 1012.12 928.375C1010 928.375 1008.16 929.562 1008.09 931.469H1004.19C1004.28 927.656 1007.72 925.062 1012.16 925.062C1016.75 925.062 1019.72 927.875 1019.69 931.344C1019.72 933.875 1018.03 935.719 1015.56 936.219V936.406C1018.75 936.844 1020.56 938.875 1020.53 941.719C1020.56 945.531 1017 948.312 1012.09 948.312Z" fill="black"/>
</g>
<g id="cheongsong_hall_357">
<path d="M992 1327C992 1331.42 995.582 1335 1000 1335H1125C1129.42 1335 1133 1331.42 1133 1327V1193C1133 1188.58 1129.42 1185 1125 1185H1000C995.582 1185 992 1188.58 992 1193V1327Z" fill="#F7FBFF"/>
<path d="M1125 1188V1185H1000L1000 1188H1125ZM1130 1193V1327C1130 1329.76 1127.76 1332 1125 1332H1000C997.239 1332 995 1329.76 995 1327V1193C995 1190.24 997.239 1188 1000 1188L1000 1185C995.582 1185 992 1188.58 992 1193V1327C992 1331.28 995.361 1334.77 999.588 1334.99L1000 1335H1125C1129.42 1335 1133 1331.42 1133 1327V1193C1133 1188.58 1129.42 1185 1125 1185V1188C1127.76 1188 1130 1190.24 1130 1193Z" fill="#2E2F33" fill-opacity="0.88"/>
<path d="M1075.69 1271L1085.5 1251.94V1251.78H1074.12V1248.38H1089.72V1251.84L1079.91 1271H1075.69Z" fill="black"/>
<path d="M1063.12 1271.31C1058.59 1271.31 1055.28 1268.62 1055.16 1264.88H1059.12C1059.25 1266.72 1060.97 1268.03 1063.12 1268.03C1065.66 1268.03 1067.47 1266.19 1067.47 1263.69C1067.47 1261.09 1065.59 1259.25 1063 1259.25C1061.25 1259.22 1059.97 1259.84 1059.25 1261.19H1055.47L1056.84 1248.38H1070.22V1251.78H1060.19L1059.5 1257.78H1059.72C1060.59 1256.78 1062.25 1256.06 1064.09 1256.06C1068.31 1256.06 1071.41 1259.22 1071.41 1263.56C1071.41 1268.09 1068 1271.31 1063.12 1271.31Z" fill="black"/>
<path d="M1043.09 1271.31C1038.25 1271.31 1034.81 1268.69 1034.72 1264.88H1038.81C1038.94 1266.69 1040.75 1267.88 1043.09 1267.88C1045.59 1267.88 1047.38 1266.5 1047.38 1264.5C1047.38 1262.47 1045.62 1261 1042.69 1261H1040.66V1257.88H1042.69C1045.09 1257.88 1046.78 1256.53 1046.75 1254.56C1046.78 1252.66 1045.34 1251.38 1043.12 1251.38C1041 1251.38 1039.16 1252.56 1039.09 1254.47H1035.19C1035.28 1250.66 1038.72 1248.06 1043.16 1248.06C1047.75 1248.06 1050.72 1250.88 1050.69 1254.34C1050.72 1256.88 1049.03 1258.72 1046.56 1259.22V1259.41C1049.75 1259.84 1051.56 1261.88 1051.53 1264.72C1051.56 1268.53 1048 1271.31 1043.09 1271.31Z" fill="black"/>
</g>
<g id="cheongsong_hall_359">
<path d="M1130 1292C1130 1296.42 1133.58 1300 1138 1300H1268C1272.42 1300 1276 1296.42 1276 1292V1193C1276 1188.58 1272.42 1185 1268 1185H1138C1133.58 1185 1130 1188.58 1130 1193V1292Z" fill="#F7FBFF"/>
<path d="M1268 1188V1185H1138L1138 1188H1268ZM1273 1193V1292C1273 1294.76 1270.76 1297 1268 1297H1138C1135.24 1297 1133 1294.76 1133 1292V1193C1133 1190.24 1135.24 1188 1138 1188L1138 1185C1133.58 1185 1130 1188.58 1130 1193V1292C1130 1296.42 1133.58 1300 1138 1300H1268C1272.42 1300 1276 1296.42 1276 1292V1193C1276 1188.58 1272.42 1185 1268 1185V1188C1270.76 1188 1273 1190.24 1273 1193Z" fill="#2E2F33" fill-opacity="0.88"/>
<path d="M1221.88 1230.06C1226.31 1230.09 1230.69 1232.72 1230.72 1241C1230.72 1248.81 1227.19 1253.31 1221.62 1253.31C1217.25 1253.31 1214.25 1250.59 1213.75 1246.84H1217.78C1218.19 1248.62 1219.56 1249.78 1221.62 1249.78C1224.91 1249.78 1226.75 1246.87 1226.78 1242.03H1226.53C1225.38 1244 1223.22 1245.16 1220.72 1245.16C1216.69 1245.16 1213.56 1242.09 1213.53 1237.81C1213.53 1233.37 1216.84 1230.03 1221.88 1230.06ZM1221.91 1233.34C1219.38 1233.34 1217.47 1235.31 1217.5 1237.72C1217.5 1240.16 1219.31 1242.06 1221.84 1242.06C1224.34 1242.06 1226.31 1240.03 1226.28 1237.69C1226.28 1235.37 1224.44 1233.34 1221.91 1233.34Z" fill="black"/>
<path d="M1202.12 1253.31C1197.59 1253.31 1194.28 1250.62 1194.16 1246.88H1198.12C1198.25 1248.72 1199.97 1250.03 1202.12 1250.03C1204.66 1250.03 1206.47 1248.19 1206.47 1245.69C1206.47 1243.09 1204.59 1241.25 1202 1241.25C1200.25 1241.22 1198.97 1241.84 1198.25 1243.19H1194.47L1195.84 1230.38H1209.22V1233.78H1199.19L1198.5 1239.78H1198.72C1199.59 1238.78 1201.25 1238.06 1203.09 1238.06C1207.31 1238.06 1210.41 1241.22 1210.41 1245.56C1210.41 1250.09 1207 1253.31 1202.12 1253.31Z" fill="black"/>
<path d="M1182.09 1253.31C1177.25 1253.31 1173.81 1250.69 1173.72 1246.88H1177.81C1177.94 1248.69 1179.75 1249.88 1182.09 1249.88C1184.59 1249.88 1186.38 1248.5 1186.38 1246.5C1186.38 1244.47 1184.62 1243 1181.69 1243H1179.66V1239.88H1181.69C1184.09 1239.88 1185.78 1238.53 1185.75 1236.56C1185.78 1234.66 1184.34 1233.38 1182.12 1233.38C1180 1233.38 1178.16 1234.56 1178.09 1236.47H1174.19C1174.28 1232.66 1177.72 1230.06 1182.16 1230.06C1186.75 1230.06 1189.72 1232.88 1189.69 1236.34C1189.72 1238.88 1188.03 1240.72 1185.56 1241.22V1241.41C1188.75 1241.84 1190.56 1243.88 1190.53 1246.72C1190.56 1250.53 1187 1253.31 1182.09 1253.31Z" fill="black"/>
</g>
<g id="cheongsong_hall_378">
<path d="M1125 1138C1125 1142.42 1128.58 1146 1133 1146H1276C1280.42 1146 1284 1142.42 1284 1138V1004C1284 999.582 1280.42 996 1276 996H1133C1128.58 996 1125 999.582 1125 1004V1138Z" fill="#F7FBFF"/>
<path d="M1276 999V996H1133L1133 999H1276ZM1281 1004V1138C1281 1140.76 1278.76 1143 1276 1143H1133C1130.24 1143 1128 1140.76 1128 1138V1004C1128 1001.24 1130.24 999 1133 999L1133 996C1128.58 996 1125 999.582 1125 1004V1138C1125 1142.28 1128.36 1145.77 1132.59 1145.99L1133 1146H1276C1280.42 1146 1284 1142.42 1284 1138V1004C1284 999.582 1280.42 996 1276 996V999C1278.76 999 1281 1001.24 1281 1004Z" fill="#2E2F33" fill-opacity="0.88"/>
<path d="M1223.03 1082.31C1218 1082.31 1214.44 1079.62 1214.44 1075.94C1214.44 1073.06 1216.56 1070.72 1219.28 1070.28V1070.16C1216.91 1069.66 1215.28 1067.59 1215.28 1065.12C1215.28 1061.62 1218.56 1059.06 1223.03 1059.06C1227.47 1059.06 1230.75 1061.62 1230.75 1065.12C1230.75 1067.59 1229.09 1069.66 1226.75 1070.16V1070.28C1229.47 1070.72 1231.62 1073.06 1231.62 1075.94C1231.62 1079.62 1228.03 1082.31 1223.03 1082.31ZM1223.03 1079.09C1225.69 1079.09 1227.44 1077.66 1227.44 1075.56C1227.44 1073.44 1225.56 1071.88 1223.03 1071.88C1220.47 1071.88 1218.59 1073.44 1218.62 1075.56C1218.59 1077.66 1220.34 1079.09 1223.03 1079.09ZM1223.03 1068.84C1225.22 1068.84 1226.78 1067.47 1226.78 1065.5C1226.78 1063.59 1225.25 1062.25 1223.03 1062.25C1220.78 1062.25 1219.25 1063.56 1219.25 1065.5C1219.25 1067.47 1220.81 1068.84 1223.03 1068.84Z" fill="black"/>
<path d="M1197.94 1082L1207.75 1062.94V1062.78H1196.38V1059.38H1211.97V1062.84L1202.16 1082H1197.94Z" fill="black"/>
<path d="M1185.09 1082.31C1180.25 1082.31 1176.81 1079.69 1176.72 1075.88H1180.81C1180.94 1077.69 1182.75 1078.88 1185.09 1078.88C1187.59 1078.88 1189.38 1077.5 1189.38 1075.5C1189.38 1073.47 1187.62 1072 1184.69 1072H1182.66V1068.88H1184.69C1187.09 1068.88 1188.78 1067.53 1188.75 1065.56C1188.78 1063.66 1187.34 1062.38 1185.12 1062.38C1183 1062.38 1181.16 1063.56 1181.09 1065.47H1177.19C1177.28 1061.66 1180.72 1059.06 1185.16 1059.06C1189.75 1059.06 1192.72 1061.88 1192.69 1065.34C1192.72 1067.88 1191.03 1069.72 1188.56 1070.22V1070.41C1191.75 1070.84 1193.56 1072.88 1193.53 1075.72C1193.56 1079.53 1190 1082.31 1185.09 1082.31Z" fill="black"/>
</g>
<g id="cheongsong_hall_377">
<path d="M1281 1138C1281 1142.42 1284.58 1146 1289 1146H1344C1348.42 1146 1352 1142.42 1352 1138V1004C1352 999.582 1348.42 996 1344 996H1289C1284.58 996 1281 999.582 1281 1004V1138Z" fill="#F7FBFF"/>
<path d="M1344 999V996H1289L1289 999H1344ZM1349 1004V1138C1349 1140.76 1346.76 1143 1344 1143H1289C1286.24 1143 1284 1140.76 1284 1138V1004C1284 1001.24 1286.24 999 1289 999L1289 996C1284.58 996 1281 999.582 1281 1004V1138C1281 1142.42 1284.58 1146 1289 1146H1344L1344.41 1145.99C1348.64 1145.77 1352 1142.28 1352 1138V1004C1352 999.582 1348.42 996 1344 996V999C1346.76 999 1349 1001.24 1349 1004Z" fill="#2E2F33" fill-opacity="0.88"/>
<path d="M1329.72 1082L1339.53 1062.94V1062.78H1328.16V1059.38H1343.75V1062.84L1333.94 1082H1329.72Z" fill="black"/>
<path d="M1310.94 1082L1320.75 1062.94V1062.78H1309.38V1059.38H1324.97V1062.84L1315.16 1082H1310.94Z" fill="black"/>
<path d="M1298.09 1082.31C1293.25 1082.31 1289.81 1079.69 1289.72 1075.88H1293.81C1293.94 1077.69 1295.75 1078.88 1298.09 1078.88C1300.59 1078.88 1302.38 1077.5 1302.38 1075.5C1302.38 1073.47 1300.62 1072 1297.69 1072H1295.66V1068.88H1297.69C1300.09 1068.88 1301.78 1067.53 1301.75 1065.56C1301.78 1063.66 1300.34 1062.38 1298.12 1062.38C1296 1062.38 1294.16 1063.56 1294.09 1065.47H1290.19C1290.28 1061.66 1293.72 1059.06 1298.16 1059.06C1302.75 1059.06 1305.72 1061.88 1305.69 1065.34C1305.72 1067.88 1304.03 1069.72 1301.56 1070.22V1070.41C1304.75 1070.84 1306.56 1072.88 1306.53 1075.72C1306.56 1079.53 1303 1082.31 1298.09 1082.31Z" fill="black"/>
</g>
<g id="cheongsong_hall_375">
<path d="M1349 1138C1349 1142.42 1352.58 1146 1357 1146H1475C1479.42 1146 1483 1142.42 1483 1138V1004C1483 999.582 1479.42 996 1475 996H1357C1352.58 996 1349 999.582 1349 1004V1138Z" fill="#F7FBFF"/>
<path d="M1475 999V996H1357L1357 999H1475ZM1480 1004V1138C1480 1140.76 1477.76 1143 1475 1143H1357C1354.24 1143 1352 1140.76 1352 1138V1004C1352 1001.24 1354.24 999 1357 999L1357 996C1352.58 996 1349 999.582 1349 1004V1138C1349 1142.42 1352.58 1146 1357 1146H1475C1479.42 1146 1483 1142.42 1483 1138V1004C1483 999.582 1479.42 996 1475 996V999C1477.76 999 1480 1001.24 1480 1004Z" fill="#2E2F33" fill-opacity="0.88"/>
<path d="M1434.97 1082.31C1430.44 1082.31 1427.12 1079.62 1427 1075.88H1430.97C1431.09 1077.72 1432.81 1079.03 1434.97 1079.03C1437.5 1079.03 1439.31 1077.19 1439.31 1074.69C1439.31 1072.09 1437.44 1070.25 1434.84 1070.25C1433.09 1070.22 1431.81 1070.84 1431.09 1072.19H1427.31L1428.69 1059.38H1442.06V1062.78H1432.03L1431.34 1068.78H1431.56C1432.44 1067.78 1434.09 1067.06 1435.94 1067.06C1440.16 1067.06 1443.25 1070.22 1443.25 1074.56C1443.25 1079.09 1439.84 1082.31 1434.97 1082.31Z" fill="black"/>
<path d="M1409.94 1082L1419.75 1062.94V1062.78H1408.38V1059.38H1423.97V1062.84L1414.16 1082H1409.94Z" fill="black"/>
<path d="M1397.09 1082.31C1392.25 1082.31 1388.81 1079.69 1388.72 1075.88H1392.81C1392.94 1077.69 1394.75 1078.88 1397.09 1078.88C1399.59 1078.88 1401.38 1077.5 1401.38 1075.5C1401.38 1073.47 1399.62 1072 1396.69 1072H1394.66V1068.88H1396.69C1399.09 1068.88 1400.78 1067.53 1400.75 1065.56C1400.78 1063.66 1399.34 1062.38 1397.12 1062.38C1395 1062.38 1393.16 1063.56 1393.09 1065.47H1389.19C1389.28 1061.66 1392.72 1059.06 1397.16 1059.06C1401.75 1059.06 1404.72 1061.88 1404.69 1065.34C1404.72 1067.88 1403.03 1069.72 1400.56 1070.22V1070.41C1403.75 1070.84 1405.56 1072.88 1405.53 1075.72C1405.56 1079.53 1402 1082.31 1397.09 1082.31Z" fill="black"/>
</g>
<g id="cheongsong_hall_361">
<path d="M1273 1292C1273 1296.42 1276.58 1300 1281 1300H1341C1345.42 1300 1349 1296.42 1349 1292V1193C1349 1188.58 1345.42 1185 1341 1185H1281C1276.58 1185 1273 1188.58 1273 1193V1292Z" fill="#F7FBFF"/>
<path d="M1341 1188V1185H1281L1281 1188H1341ZM1346 1193V1292C1346 1294.76 1343.76 1297 1341 1297H1281C1278.24 1297 1276 1294.76 1276 1292V1193C1276 1190.24 1278.24 1188 1281 1188L1281 1185C1276.58 1185 1273 1188.58 1273 1193V1292C1273 1296.42 1276.58 1300 1281 1300H1341C1345.42 1300 1349 1296.42 1349 1292V1193C1349 1188.58 1345.42 1185 1341 1185V1188C1343.76 1188 1346 1190.24 1346 1193Z" fill="#2E2F33" fill-opacity="0.88"/>
<path d="M1334.53 1230.38V1253H1330.44V1234.34H1330.31L1325.03 1237.72V1234L1330.62 1230.38H1334.53Z" fill="black"/>
<path d="M1313.56 1253.31C1309.16 1253.28 1304.72 1250.66 1304.75 1242.31C1304.75 1234.56 1308.28 1230.06 1313.81 1230.06C1318.19 1230.06 1321.19 1232.81 1321.69 1236.47H1317.66C1317.25 1234.75 1315.88 1233.59 1313.81 1233.59C1310.53 1233.59 1308.69 1236.5 1308.69 1241.25H1308.91C1310.06 1239.31 1312.25 1238.16 1314.72 1238.16C1318.78 1238.16 1321.91 1241.22 1321.91 1245.5C1321.91 1250 1318.56 1253.34 1313.56 1253.31ZM1313.56 1250.03C1316.09 1250.03 1317.97 1248.06 1317.97 1245.59C1317.97 1243.19 1316.13 1241.25 1313.63 1241.25C1311.09 1241.25 1309.16 1243.25 1309.13 1245.62C1309.16 1248 1311 1250.03 1313.56 1250.03Z" fill="black"/>
<path d="M1293.09 1253.31C1288.25 1253.31 1284.81 1250.69 1284.72 1246.88H1288.81C1288.94 1248.69 1290.75 1249.88 1293.09 1249.88C1295.59 1249.88 1297.38 1248.5 1297.38 1246.5C1297.38 1244.47 1295.62 1243 1292.69 1243H1290.66V1239.88H1292.69C1295.09 1239.88 1296.78 1238.53 1296.75 1236.56C1296.78 1234.66 1295.34 1233.38 1293.12 1233.38C1291 1233.38 1289.16 1234.56 1289.09 1236.47H1285.19C1285.28 1232.66 1288.72 1230.06 1293.16 1230.06C1297.75 1230.06 1300.72 1232.88 1300.69 1236.34C1300.72 1238.88 1299.03 1240.72 1296.56 1241.22V1241.41C1299.75 1241.84 1301.56 1243.88 1301.53 1246.72C1301.56 1250.53 1298 1253.31 1293.09 1253.31Z" fill="black"/>
</g>
<g id="cheongsong_hall_362">
<path d="M1346 1292C1346 1296.42 1349.58 1300 1354 1300H1414C1418.42 1300 1422 1296.42 1422 1292V1193C1422 1188.58 1418.42 1185 1414 1185H1354C1349.58 1185 1346 1188.58 1346 1193V1292Z" fill="#F7FBFF"/>
<path d="M1414 1188V1185H1354L1354 1188H1414ZM1419 1193V1292C1419 1294.76 1416.76 1297 1414 1297H1354C1351.24 1297 1349 1294.76 1349 1292V1193C1349 1190.24 1351.24 1188 1354 1188L1354 1185C1349.58 1185 1346 1188.58 1346 1193V1292C1346 1296.42 1349.58 1300 1354 1300H1414C1418.42 1300 1422 1296.42 1422 1292V1193C1422 1188.58 1418.42 1185 1414 1185V1188C1416.76 1188 1419 1190.24 1419 1193Z" fill="#2E2F33" fill-opacity="0.88"/>
<path d="M1396.34 1253V1250.06L1404.34 1242.34C1406.62 1240.06 1407.81 1238.72 1407.81 1236.81C1407.81 1234.72 1406.16 1233.38 1403.94 1233.38C1401.59 1233.38 1400.09 1234.84 1400.12 1237.12H1396.25C1396.22 1232.84 1399.44 1230.06 1403.97 1230.06C1408.59 1230.06 1411.72 1232.81 1411.72 1236.62C1411.72 1239.19 1410.47 1241.25 1406.03 1245.44L1402 1249.44V1249.59H1412.06V1253H1396.34Z" fill="black"/>
<path d="M1384.56 1253.31C1380.16 1253.28 1375.72 1250.66 1375.75 1242.31C1375.75 1234.56 1379.28 1230.06 1384.81 1230.06C1389.19 1230.06 1392.19 1232.81 1392.69 1236.47H1388.66C1388.25 1234.75 1386.88 1233.59 1384.81 1233.59C1381.53 1233.59 1379.69 1236.5 1379.69 1241.25H1379.91C1381.06 1239.31 1383.25 1238.16 1385.72 1238.16C1389.78 1238.16 1392.91 1241.22 1392.91 1245.5C1392.91 1250 1389.56 1253.34 1384.56 1253.31ZM1384.56 1250.03C1387.09 1250.03 1388.97 1248.06 1388.97 1245.59C1388.97 1243.19 1387.13 1241.25 1384.63 1241.25C1382.09 1241.25 1380.16 1243.25 1380.13 1245.62C1380.16 1248 1382 1250.03 1384.56 1250.03Z" fill="black"/>
<path d="M1364.09 1253.31C1359.25 1253.31 1355.81 1250.69 1355.72 1246.88H1359.81C1359.94 1248.69 1361.75 1249.88 1364.09 1249.88C1366.59 1249.88 1368.38 1248.5 1368.38 1246.5C1368.38 1244.47 1366.62 1243 1363.69 1243H1361.66V1239.88H1363.69C1366.09 1239.88 1367.78 1238.53 1367.75 1236.56C1367.78 1234.66 1366.34 1233.38 1364.12 1233.38C1362 1233.38 1360.16 1234.56 1360.09 1236.47H1356.19C1356.28 1232.66 1359.72 1230.06 1364.16 1230.06C1368.75 1230.06 1371.72 1232.88 1371.69 1236.34C1371.72 1238.88 1370.03 1240.72 1367.56 1241.22V1241.41C1370.75 1241.84 1372.56 1243.88 1372.53 1246.72C1372.56 1250.53 1369 1253.31 1364.09 1253.31Z" fill="black"/>
</g>
<g id="cheongsong_hall_374">
<path d="M1481 1138C1481 1142.42 1484.58 1146 1489 1146H1553C1557.42 1146 1561 1142.42 1561 1138V1004C1561 999.582 1557.42 996 1553 996H1489C1484.58 996 1481 999.582 1481 1004V1138Z" fill="#F7FBFF"/>
<path d="M1553 999V996H1489L1489 999H1553ZM1558 1004V1138C1558 1140.76 1555.76 1143 1553 1143H1489C1486.24 1143 1484 1140.76 1484 1138V1004C1484 1001.24 1486.24 999 1489 999L1489 996C1484.58 996 1481 999.582 1481 1004V1138C1481 1142.42 1484.58 1146 1489 1146H1553C1557.42 1146 1561 1142.42 1561 1138V1004C1561 999.582 1557.42 996 1553 996V999C1555.76 999 1558 1001.24 1558 1004Z" fill="#2E2F33" fill-opacity="0.88"/>
<path d="M1530.03 1077.78V1074.53L1539.81 1059.38H1544.88V1074.44H1547.84V1077.78H1544.88V1082H1541V1077.78H1530.03ZM1534.19 1074.44H1541.06V1064H1540.81L1534.19 1074.28V1074.44Z" fill="black"/>
<path d="M1514.94 1082L1524.75 1062.94V1062.78H1513.38V1059.38H1528.97V1062.84L1519.16 1082H1514.94Z" fill="black"/>
<path d="M1502.09 1082.31C1497.25 1082.31 1493.81 1079.69 1493.72 1075.88H1497.81C1497.94 1077.69 1499.75 1078.88 1502.09 1078.88C1504.59 1078.88 1506.38 1077.5 1506.38 1075.5C1506.38 1073.47 1504.62 1072 1501.69 1072H1499.66V1068.88H1501.69C1504.09 1068.88 1505.78 1067.53 1505.75 1065.56C1505.78 1063.66 1504.34 1062.38 1502.12 1062.38C1500 1062.38 1498.16 1063.56 1498.09 1065.47H1494.19C1494.28 1061.66 1497.72 1059.06 1502.16 1059.06C1506.75 1059.06 1509.72 1061.88 1509.69 1065.34C1509.72 1067.88 1508.03 1069.72 1505.56 1070.22V1070.41C1508.75 1070.84 1510.56 1072.88 1510.53 1075.72C1510.56 1079.53 1507 1082.31 1502.09 1082.31Z" fill="black"/>
</g>
<g id="cheongsong_hall_373">
<path d="M1557 1138C1557 1142.42 1560.58 1146 1565 1146H1626C1630.42 1146 1634 1142.42 1634 1138V1004C1634 999.582 1630.42 996 1626 996H1565C1560.58 996 1557 999.582 1557 1004V1138Z" fill="#F7FBFF"/>
<path d="M1626 999V996H1565L1565 999H1626ZM1631 1004V1138C1631 1140.76 1628.76 1143 1626 1143H1565C1562.24 1143 1560 1140.76 1560 1138V1004C1560 1001.24 1562.24 999 1565 999L1565 996L1564.59 996.011C1560.36 996.225 1557 999.72 1557 1004V1138C1557 1142.42 1560.58 1146 1565 1146H1626C1630.42 1146 1634 1142.42 1634 1138V1004C1634 999.582 1630.42 996 1626 996V999C1628.76 999 1631 1001.24 1631 1004Z" fill="#2E2F33" fill-opacity="0.88"/>
<path d="M1613.94 1082.31C1609.09 1082.31 1605.66 1079.69 1605.56 1075.88H1609.66C1609.78 1077.69 1611.59 1078.88 1613.94 1078.88C1616.44 1078.88 1618.22 1077.5 1618.22 1075.5C1618.22 1073.47 1616.47 1072 1613.53 1072H1611.5V1068.88H1613.53C1615.94 1068.88 1617.62 1067.53 1617.59 1065.56C1617.62 1063.66 1616.19 1062.38 1613.97 1062.38C1611.84 1062.38 1610 1063.56 1609.94 1065.47H1606.03C1606.12 1061.66 1609.56 1059.06 1614 1059.06C1618.59 1059.06 1621.56 1061.88 1621.53 1065.34C1621.56 1067.88 1619.88 1069.72 1617.41 1070.22V1070.41C1620.59 1070.84 1622.41 1072.88 1622.38 1075.72C1622.41 1079.53 1618.84 1082.31 1613.94 1082.31Z" fill="black"/>
<path d="M1588.94 1082L1598.75 1062.94V1062.78H1587.38V1059.38H1602.97V1062.84L1593.16 1082H1588.94Z" fill="black"/>
<path d="M1576.09 1082.31C1571.25 1082.31 1567.81 1079.69 1567.72 1075.88H1571.81C1571.94 1077.69 1573.75 1078.88 1576.09 1078.88C1578.59 1078.88 1580.38 1077.5 1580.38 1075.5C1580.38 1073.47 1578.62 1072 1575.69 1072H1573.66V1068.88H1575.69C1578.09 1068.88 1579.78 1067.53 1579.75 1065.56C1579.78 1063.66 1578.34 1062.38 1576.12 1062.38C1574 1062.38 1572.16 1063.56 1572.09 1065.47H1568.19C1568.28 1061.66 1571.72 1059.06 1576.16 1059.06C1580.75 1059.06 1583.72 1061.88 1583.69 1065.34C1583.72 1067.88 1582.03 1069.72 1579.56 1070.22V1070.41C1582.75 1070.84 1584.56 1072.88 1584.53 1075.72C1584.56 1079.53 1581 1082.31 1576.09 1082.31Z" fill="black"/>
</g>
<g id="cheongsong_hall_372">
<path d="M1631 1138C1631 1142.42 1634.58 1146 1639 1146H1703C1707.42 1146 1711 1142.42 1711 1138V1004C1711 999.582 1707.42 996 1703 996H1639C1634.58 996 1631 999.582 1631 1004V1138Z" fill="#F7FBFF"/>
<path d="M1703 999V996H1639L1639 999H1703ZM1708 1004V1138C1708 1140.76 1705.76 1143 1703 1143H1639C1636.24 1143 1634 1140.76 1634 1138V1004C1634 1001.24 1636.24 999 1639 999L1639 996C1634.58 996 1631 999.582 1631 1004V1138C1631 1142.42 1634.58 1146 1639 1146H1703C1707.42 1146 1711 1142.42 1711 1138V1004C1711 999.582 1707.42 996 1703 996V999C1705.76 999 1708 1001.24 1708 1004Z" fill="#2E2F33" fill-opacity="0.88"/>
<path d="M1682.25 1082V1079.06L1690.25 1071.34C1692.53 1069.06 1693.72 1067.72 1693.72 1065.81C1693.72 1063.72 1692.06 1062.38 1689.84 1062.38C1687.5 1062.38 1686 1063.84 1686.03 1066.12H1682.16C1682.12 1061.84 1685.34 1059.06 1689.87 1059.06C1694.5 1059.06 1697.62 1061.81 1697.62 1065.62C1697.62 1068.19 1696.37 1070.25 1691.94 1074.44L1687.91 1078.44V1078.59H1697.97V1082H1682.25Z" fill="black"/>
<path d="M1664.94 1082L1674.75 1062.94V1062.78H1663.38V1059.38H1678.97V1062.84L1669.16 1082H1664.94Z" fill="black"/>
<path d="M1652.09 1082.31C1647.25 1082.31 1643.81 1079.69 1643.72 1075.88H1647.81C1647.94 1077.69 1649.75 1078.88 1652.09 1078.88C1654.59 1078.88 1656.38 1077.5 1656.38 1075.5C1656.38 1073.47 1654.62 1072 1651.69 1072H1649.66V1068.88H1651.69C1654.09 1068.88 1655.78 1067.53 1655.75 1065.56C1655.78 1063.66 1654.34 1062.38 1652.12 1062.38C1650 1062.38 1648.16 1063.56 1648.09 1065.47H1644.19C1644.28 1061.66 1647.72 1059.06 1652.16 1059.06C1656.75 1059.06 1659.72 1061.88 1659.69 1065.34C1659.72 1067.88 1658.03 1069.72 1655.56 1070.22V1070.41C1658.75 1070.84 1660.56 1072.88 1660.53 1075.72C1660.56 1079.53 1657 1082.31 1652.09 1082.31Z" fill="black"/>
</g>
<g id="cheongsong_hall_369">
<path d="M1709 1138C1709 1142.42 1712.58 1146 1717 1146H1947C1951.42 1146 1955 1142.42 1955 1138V1004C1955 999.582 1951.42 996 1947 996H1717C1712.58 996 1709 999.582 1709 1004V1138Z" fill="#F7FBFF"/>
<path d="M1947 999V996H1717L1717 999H1947ZM1952 1004V1138C1952 1140.76 1949.76 1143 1947 1143H1717C1714.24 1143 1712 1140.76 1712 1138V1004C1712 1001.24 1714.24 999 1717 999L1717 996C1712.58 996 1709 999.582 1709 1004V1138C1709 1142.28 1712.36 1145.77 1716.59 1145.99L1717 1146H1947C1951.42 1146 1955 1142.42 1955 1138V1004C1955 999.582 1951.42 996 1947 996V999C1949.76 999 1952 1001.24 1952 1004Z" fill="#2E2F33" fill-opacity="0.88"/>
<path d="M1851.38 1059.06C1855.81 1059.09 1860.19 1061.72 1860.22 1070C1860.22 1077.81 1856.69 1082.31 1851.12 1082.31C1846.75 1082.31 1843.75 1079.59 1843.25 1075.84H1847.28C1847.69 1077.62 1849.06 1078.78 1851.12 1078.78C1854.41 1078.78 1856.25 1075.87 1856.28 1071.03H1856.03C1854.88 1073 1852.72 1074.16 1850.22 1074.16C1846.19 1074.16 1843.06 1071.09 1843.03 1066.81C1843.03 1062.37 1846.34 1059.03 1851.38 1059.06ZM1851.41 1062.34C1848.88 1062.34 1846.97 1064.31 1847 1066.72C1847 1069.16 1848.81 1071.06 1851.34 1071.06C1853.84 1071.06 1855.81 1069.03 1855.78 1066.69C1855.78 1064.37 1853.94 1062.34 1851.41 1062.34Z" fill="black"/>
<path d="M1831.56 1082.31C1827.16 1082.28 1822.72 1079.66 1822.75 1071.31C1822.75 1063.56 1826.28 1059.06 1831.81 1059.06C1836.19 1059.06 1839.19 1061.81 1839.69 1065.47H1835.66C1835.25 1063.75 1833.88 1062.59 1831.81 1062.59C1828.53 1062.59 1826.69 1065.5 1826.69 1070.25H1826.91C1828.06 1068.31 1830.25 1067.16 1832.72 1067.16C1836.78 1067.16 1839.91 1070.22 1839.91 1074.5C1839.91 1079 1836.56 1082.34 1831.56 1082.31ZM1831.56 1079.03C1834.09 1079.03 1835.97 1077.06 1835.97 1074.59C1835.97 1072.19 1834.13 1070.25 1831.63 1070.25C1829.09 1070.25 1827.16 1072.25 1827.13 1074.62C1827.16 1077 1829 1079.03 1831.56 1079.03Z" fill="black"/>
<path d="M1811.09 1082.31C1806.25 1082.31 1802.81 1079.69 1802.72 1075.88H1806.81C1806.94 1077.69 1808.75 1078.88 1811.09 1078.88C1813.59 1078.88 1815.38 1077.5 1815.38 1075.5C1815.38 1073.47 1813.62 1072 1810.69 1072H1808.66V1068.88H1810.69C1813.09 1068.88 1814.78 1067.53 1814.75 1065.56C1814.78 1063.66 1813.34 1062.38 1811.12 1062.38C1809 1062.38 1807.16 1063.56 1807.09 1065.47H1803.19C1803.28 1061.66 1806.72 1059.06 1811.16 1059.06C1815.75 1059.06 1818.72 1061.88 1818.69 1065.34C1818.72 1067.88 1817.03 1069.72 1814.56 1070.22V1070.41C1817.75 1070.84 1819.56 1072.88 1819.53 1075.72C1819.56 1079.53 1816 1082.31 1811.09 1082.31Z" fill="black"/>
</g>
<g id="cheongsong_hall_364">
<path d="M1577 1292C1577 1296.42 1580.58 1300 1585 1300H1947C1951.42 1300 1955 1296.42 1955 1292V1193C1955 1188.58 1951.42 1185 1947 1185H1585C1580.58 1185 1577 1188.58 1577 1193V1292Z" fill="#F7FBFF"/>
<path d="M1947 1188V1185H1585L1585 1188H1947ZM1952 1193V1292C1952 1294.76 1949.76 1297 1947 1297H1585C1582.24 1297 1580 1294.76 1580 1292V1193C1580 1190.24 1582.24 1188 1585 1188L1585 1185L1584.59 1185.01C1580.36 1185.23 1577 1188.72 1577 1193V1292C1577 1296.28 1580.36 1299.77 1584.59 1299.99L1585 1300H1947C1951.42 1300 1955 1296.42 1955 1292V1193C1955 1188.58 1951.42 1185 1947 1185V1188C1949.76 1188 1952 1190.24 1952 1193Z" fill="#2E2F33" fill-opacity="0.88"/>
<path d="M1776.94 1248.78V1245.53L1786.72 1230.38H1791.78V1245.44H1794.75V1248.78H1791.78V1253H1787.91V1248.78H1776.94ZM1781.09 1245.44H1787.97V1235H1787.72L1781.09 1245.28V1245.44Z" fill="black"/>
<path d="M1765.56 1253.31C1761.16 1253.28 1756.72 1250.66 1756.75 1242.31C1756.75 1234.56 1760.28 1230.06 1765.81 1230.06C1770.19 1230.06 1773.19 1232.81 1773.69 1236.47H1769.66C1769.25 1234.75 1767.88 1233.59 1765.81 1233.59C1762.53 1233.59 1760.69 1236.5 1760.69 1241.25H1760.91C1762.06 1239.31 1764.25 1238.16 1766.72 1238.16C1770.78 1238.16 1773.91 1241.22 1773.91 1245.5C1773.91 1250 1770.56 1253.34 1765.56 1253.31ZM1765.56 1250.03C1768.09 1250.03 1769.97 1248.06 1769.97 1245.59C1769.97 1243.19 1768.13 1241.25 1765.63 1241.25C1763.09 1241.25 1761.16 1243.25 1761.13 1245.62C1761.16 1248 1763 1250.03 1765.56 1250.03Z" fill="black"/>
<path d="M1745.09 1253.31C1740.25 1253.31 1736.81 1250.69 1736.72 1246.88H1740.81C1740.94 1248.69 1742.75 1249.88 1745.09 1249.88C1747.59 1249.88 1749.38 1248.5 1749.38 1246.5C1749.38 1244.47 1747.62 1243 1744.69 1243H1742.66V1239.88H1744.69C1747.09 1239.88 1748.78 1238.53 1748.75 1236.56C1748.78 1234.66 1747.34 1233.38 1745.12 1233.38C1743 1233.38 1741.16 1234.56 1741.09 1236.47H1737.19C1737.28 1232.66 1740.72 1230.06 1745.16 1230.06C1749.75 1230.06 1752.72 1232.88 1752.69 1236.34C1752.72 1238.88 1751.03 1240.72 1748.56 1241.22V1241.41C1751.75 1241.84 1753.56 1243.88 1753.53 1246.72C1753.56 1250.53 1750 1253.31 1745.09 1253.31Z" fill="black"/>
</g>
<g id="cheongsong_hall_363">
<path d="M1419 1292C1419 1296.42 1422.58 1300 1427 1300H1487C1491.42 1300 1495 1296.42 1495 1292V1193C1495 1188.58 1491.42 1185 1487 1185H1427C1422.58 1185 1419 1188.58 1419 1193V1292Z" fill="#F7FBFF"/>
<path d="M1487 1188V1185H1427L1427 1188H1487ZM1492 1193V1292C1492 1294.76 1489.76 1297 1487 1297H1427C1424.24 1297 1422 1294.76 1422 1292V1193C1422 1190.24 1424.24 1188 1427 1188L1427 1185C1422.58 1185 1419 1188.58 1419 1193V1292C1419 1296.42 1422.58 1300 1427 1300H1487L1487.41 1299.99C1491.64 1299.77 1495 1296.28 1495 1292V1193L1494.99 1192.59C1494.78 1188.5 1491.5 1185.22 1487.41 1185.01L1487 1185V1188C1489.76 1188 1492 1190.24 1492 1193Z" fill="#2E2F33" fill-opacity="0.88"/>
<path d="M1476.56 1254.31C1471.72 1254.31 1468.28 1251.69 1468.19 1247.88H1472.28C1472.41 1249.69 1474.22 1250.88 1476.56 1250.88C1479.06 1250.88 1480.84 1249.5 1480.84 1247.5C1480.84 1245.47 1479.09 1244 1476.16 1244H1474.12V1240.88H1476.16C1478.56 1240.88 1480.25 1239.53 1480.22 1237.56C1480.25 1235.66 1478.81 1234.38 1476.59 1234.38C1474.47 1234.38 1472.62 1235.56 1472.56 1237.47H1468.66C1468.75 1233.66 1472.19 1231.06 1476.62 1231.06C1481.22 1231.06 1484.19 1233.88 1484.16 1237.34C1484.19 1239.88 1482.5 1241.72 1480.03 1242.22V1242.41C1483.22 1242.84 1485.03 1244.88 1485 1247.72C1485.03 1251.53 1481.47 1254.31 1476.56 1254.31Z" fill="black"/>
<path d="M1456.56 1254.31C1452.16 1254.28 1447.72 1251.66 1447.75 1243.31C1447.75 1235.56 1451.28 1231.06 1456.81 1231.06C1461.19 1231.06 1464.19 1233.81 1464.69 1237.47H1460.66C1460.25 1235.75 1458.88 1234.59 1456.81 1234.59C1453.53 1234.59 1451.69 1237.5 1451.69 1242.25H1451.91C1453.06 1240.31 1455.25 1239.16 1457.72 1239.16C1461.78 1239.16 1464.91 1242.22 1464.91 1246.5C1464.91 1251 1461.56 1254.34 1456.56 1254.31ZM1456.56 1251.03C1459.09 1251.03 1460.97 1249.06 1460.97 1246.59C1460.97 1244.19 1459.13 1242.25 1456.63 1242.25C1454.09 1242.25 1452.16 1244.25 1452.13 1246.62C1452.16 1249 1454 1251.03 1456.56 1251.03Z" fill="black"/>
<path d="M1436.09 1254.31C1431.25 1254.31 1427.81 1251.69 1427.72 1247.88H1431.81C1431.94 1249.69 1433.75 1250.88 1436.09 1250.88C1438.59 1250.88 1440.38 1249.5 1440.38 1247.5C1440.38 1245.47 1438.62 1244 1435.69 1244H1433.66V1240.88H1435.69C1438.09 1240.88 1439.78 1239.53 1439.75 1237.56C1439.78 1235.66 1438.34 1234.38 1436.12 1234.38C1434 1234.38 1432.16 1235.56 1432.09 1237.47H1428.19C1428.28 1233.66 1431.72 1231.06 1436.16 1231.06C1440.75 1231.06 1443.72 1233.88 1443.69 1237.34C1443.72 1239.88 1442.03 1241.72 1439.56 1242.22V1242.41C1442.75 1242.84 1444.56 1244.88 1444.53 1247.72C1444.56 1251.53 1441 1254.31 1436.09 1254.31Z" fill="black"/>
</g>
</g>
</svg>
