<svg width="1961" height="1424" viewBox="0 0 1961 1424" fill="none" xmlns="http://www.w3.org/2000/svg">
<g id="cheongsong_hall_floor_5">
<g id="Vector">
<path d="M513.5 611V502H575.5V345.5H675H939V402.5H1026L1154.5 530V611.5H1205.5V882H1082V993H1022V1147H927H661.5V1090.5H576.5L449.5 962V882H398.5V611H513.5Z" fill="#474747"/>
<path d="M513.5 502H25V346.5H3V217H418V177.5H627.5V163H611V3H934.5V179H850.5V315H675V345.5H575.5V502H513.5Z" fill="#474747"/>
<path d="M1082 993H1957.5V1302.5H1136V1337.5H996V1421H869.5V1362H769V1211H927V1147H1022V993H1082Z" fill="#999999"/>
<path d="M1079 990H1019V1144H664.5V1087.5H577.753L452.5 960.769V879H401.5V614H516.5V505H578.5V348.5H936V405.5H1024.76L1151.5 531.251V614.5H1202.5V879H1079V990ZM28 343.5H6V220H421V180.5H630.5V160H614V6H931.5V176H847.5V312H672V342.5H572.5V499H28V343.5ZM872.5 1359H772V1214H930V1150H1025V996H1954.5V1299.5H1133V1334.5H993V1418H872.5V1359ZM1085 885H1208.5V608.5H1157.5V528.75L1027.24 399.5H942V342.5H678V318H853.5V182H937.5V0H608V166H624.5V174.5H415V214H0V349.5H22V505H510.5V608H395.5V885H446.5V963.232L575.247 1093.5H658.5V1150H924V1208H766V1365H866.5V1424H999V1340.5H1139V1305.5H1960.5V990H1085V885Z" fill="black"/>
</g>
<g id="void">
<path d="M401 871C401 875.418 404.582 879 409 879H621.663C623.798 879 625.845 878.146 627.348 876.628L721.685 781.338C723.168 779.84 724 777.818 724 775.71V717.267C724 715.173 723.179 713.162 721.713 711.667L627.352 615.4C625.848 613.865 623.789 613 621.639 613H409C404.582 613 401 616.582 401 621V871Z" fill="#474747"/>
<path d="M401 621V871C401 875.418 404.582 879 409 879H621.663L622.062 878.99C624.052 878.891 625.939 878.051 627.348 876.628L721.685 781.338C723.168 779.84 724 777.818 724 775.71V717.267L723.99 716.875C723.895 714.923 723.087 713.069 721.713 711.667L627.352 615.4L627.064 615.12C625.689 613.851 623.911 613.104 622.041 613.01L621.639 613L621.64 616C622.983 616 624.27 616.541 625.21 617.5L719.57 713.767C720.486 714.701 721 715.958 721 717.267V775.71C721 777.027 720.48 778.291 719.554 779.228L625.216 874.518C624.277 875.466 622.998 876 621.663 876H409C406.239 876 404 873.761 404 871V621C404 618.239 406.239 616 409 616L409 613L408.588 613.011C404.498 613.218 401.218 616.498 401.011 620.588L401 621ZM621.64 616L621.639 613H409L409 616H621.64Z" fill="#2E2F33" fill-opacity="0.88"/>
</g>
<g id="void_2">
<path d="M922 1144C926.418 1144 930 1140.42 930 1136V923.337C930 921.202 929.146 919.155 927.628 917.652L832.338 823.315C830.84 821.832 828.818 821 826.71 821H768.267C766.173 821 764.162 821.821 762.667 823.287L666.4 917.648C664.865 919.152 664 921.211 664 923.361V1136C664 1140.42 667.582 1144 672 1144H922Z" fill="#474747"/>
<path d="M672 1144H922C926.418 1144 930 1140.42 930 1136V923.337L929.99 922.938C929.891 920.948 929.051 919.061 927.628 917.652L832.338 823.315C830.84 821.832 828.818 821 826.71 821H768.267L767.875 821.01C765.923 821.105 764.069 821.913 762.667 823.287L666.4 917.648L666.12 917.936C664.851 919.311 664.104 921.089 664.01 922.959L664 923.361L667 923.36C667 922.017 667.541 920.73 668.5 919.79L764.767 825.43C765.701 824.514 766.958 824 768.267 824H826.71C828.027 824 829.291 824.52 830.228 825.446L925.518 919.784C926.466 920.723 927 922.002 927 923.337V1136C927 1138.76 924.761 1141 922 1141H672C669.239 1141 667 1138.76 667 1136H664L664.011 1136.41C664.218 1140.5 667.498 1143.78 671.588 1143.99L672 1144ZM667 923.36L664 923.361V1136H667V923.36Z" fill="#2E2F33" fill-opacity="0.88"/>
</g>
<g id="void_3">
<path d="M1203 622C1203 617.582 1199.42 614 1195 614H982.337C980.202 614 978.155 614.854 976.652 616.372L882.315 711.662C880.832 713.16 880 715.182 880 717.29V775.733C880 777.827 880.821 779.838 882.287 781.333L976.648 877.6C978.152 879.135 980.211 880 982.361 880H1195C1199.42 880 1203 876.418 1203 872V622Z" fill="#474747"/>
<path d="M1203 872V622C1203 617.582 1199.42 614 1195 614H982.337L981.938 614.01C979.948 614.109 978.061 614.949 976.652 616.372L882.315 711.662C880.832 713.16 880 715.182 880 717.29V775.733L880.01 776.125C880.105 778.077 880.913 779.931 882.287 781.333L976.648 877.6L976.936 877.88C978.311 879.149 980.089 879.896 981.959 879.99L982.361 880L982.36 877C981.017 877 979.73 876.459 978.79 875.5L884.43 779.233C883.514 778.299 883 777.042 883 775.733V717.29C883 715.973 883.52 714.709 884.446 713.772L978.784 618.482C979.723 617.534 981.002 617 982.337 617H1195C1197.76 617 1200 619.239 1200 622V872C1200 874.761 1197.76 877 1195 877V880L1195.41 879.989C1199.5 879.782 1202.78 876.502 1202.99 872.412L1203 872ZM982.36 877L982.361 880H1195V877H982.36Z" fill="#2E2F33" fill-opacity="0.88"/>
</g>
<g id="void_4">
<path d="M678 348C673.582 348 670 351.582 670 356V568.663C670 570.798 670.854 572.845 672.372 574.348L767.662 668.685C769.16 670.168 771.182 671 773.29 671H831.733C833.827 671 835.838 670.179 837.333 668.713L933.6 574.352C935.135 572.848 936 570.789 936 568.639V356C936 351.582 932.418 348 928 348H678Z" fill="#474747"/>
<path d="M928 348H678C673.582 348 670 351.582 670 356V568.663L670.01 569.062C670.109 571.052 670.949 572.939 672.372 574.348L767.662 668.685C769.16 670.168 771.182 671 773.29 671H831.733L832.125 670.99C834.077 670.895 835.931 670.087 837.333 668.713L933.6 574.352L933.88 574.064C935.149 572.689 935.896 570.911 935.99 569.041L936 568.639L933 568.64C933 569.983 932.459 571.27 931.5 572.21L835.233 666.57C834.299 667.486 833.042 668 831.733 668H773.29C771.973 668 770.709 667.48 769.772 666.554L674.482 572.216C673.534 571.277 673 569.998 673 568.663V356C673 353.239 675.239 351 678 351H928C930.761 351 933 353.239 933 356L936 356L935.989 355.588C935.782 351.498 932.502 348.218 928.412 348.011L928 348ZM933 568.64L936 568.639V356L933 356V568.64Z" fill="#2E2F33" fill-opacity="0.88"/>
</g>
<g id="void_5">
<path d="M839.976 662.901C836.852 666.025 836.852 671.09 839.976 674.214L876.108 710.346C879.232 713.47 884.297 713.47 887.421 710.346L979.056 618.711C980.556 617.211 982.591 616.368 984.713 616.368H1145.5C1149.92 616.368 1153.5 612.786 1153.5 608.368L1153.5 531.839C1153.5 529.701 1152.65 527.652 1151.13 526.149L1027.84 404.308C1026.34 402.828 1024.32 401.998 1022.22 401.998L941.951 401.998C937.533 401.998 933.951 405.58 933.951 409.998L933.954 565.609C933.954 567.731 933.111 569.766 931.611 571.266L839.976 662.901Z" fill="#474747"/>
<path d="M976.935 616.59L885.3 708.225C883.348 710.178 880.182 710.177 878.229 708.225L842.098 672.093C840.145 670.141 840.145 666.975 842.098 665.022L933.732 573.388C935.795 571.325 936.953 568.526 936.953 565.609L936.951 409.998C936.951 407.237 939.19 404.998 941.951 404.998L1022.22 404.998C1023.53 404.998 1024.8 405.517 1025.73 406.442L1149.02 528.284L1151.13 526.149L1027.84 404.308C1026.44 402.921 1024.57 402.104 1022.61 402.008L1022.22 401.998L941.951 401.998C937.671 401.998 934.176 405.359 933.961 409.586L933.951 409.998L933.954 565.609C933.954 567.598 933.213 569.512 931.884 570.979L931.611 571.266L839.976 662.901C836.949 665.927 836.855 670.775 839.692 673.916L839.976 674.214L876.108 710.346L876.406 710.629C879.546 713.467 884.395 713.373 887.421 710.346L979.056 618.711L979.344 618.438C980.811 617.109 982.724 616.368 984.713 616.368H1145.5C1149.92 616.368 1153.5 612.786 1153.5 608.368L1153.5 531.839L1153.49 531.44C1153.39 529.448 1152.55 527.558 1151.13 526.149L1149.02 528.284C1149.97 529.223 1150.5 530.503 1150.5 531.839V608.368C1150.5 611.13 1148.27 613.368 1145.5 613.368H984.713C981.795 613.368 978.998 614.527 976.935 616.59Z" fill="#2E2F33" fill-opacity="0.88"/>
</g>
<g id="void_6">
<path d="M718.277 783.28C721.421 780.103 726.559 780.12 729.683 783.317L761.425 815.797C764.506 818.949 764.457 823.999 761.315 827.091L669.286 917.648C667.757 919.152 666.897 921.206 666.897 923.351L666.897 1082.07C666.897 1086.49 663.315 1090.07 658.897 1090.07L582.368 1090.07C580.23 1090.07 578.181 1089.21 576.678 1087.69L454.836 964.408C453.356 962.911 452.526 960.89 452.526 958.785L452.523 885.499C452.523 881.081 456.105 877.499 460.523 877.499L621.661 877.499C623.797 877.499 625.844 876.645 627.347 875.127L718.277 783.28Z" fill="#474747"/>
<path d="M761.425 815.797C764.506 818.949 764.457 823.999 761.315 827.091L669.286 917.648L669.007 917.936C667.653 919.409 666.897 921.34 666.897 923.351L666.897 1082.07C666.897 1086.49 663.315 1090.07 658.897 1090.07L582.368 1090.07C580.23 1090.07 578.181 1089.21 576.678 1087.69L578.812 1085.58C579.751 1086.54 581.032 1087.07 582.368 1087.07H658.897C661.658 1087.07 663.897 1084.83 663.897 1082.07L663.897 923.351C663.897 920.403 665.08 917.578 667.181 915.51L759.211 824.953C761.174 823.02 761.205 819.864 759.28 817.894L727.538 785.414C725.585 783.416 722.374 783.405 720.408 785.391L629.478 877.238C627.412 879.325 624.598 880.498 621.661 880.498L460.523 880.499C457.762 880.499 455.523 882.738 455.523 885.499L455.527 958.785C455.527 960.101 456.046 961.363 456.97 962.299L578.812 1085.58L576.678 1087.69L454.836 964.408C453.449 963.004 452.633 961.141 452.536 959.179L452.526 958.785L452.523 885.499C452.523 881.219 455.885 877.723 460.112 877.509L460.523 877.499L621.661 877.499C623.664 877.499 625.588 876.748 627.059 875.404L627.347 875.127L718.277 783.28C721.421 780.103 726.559 780.12 729.683 783.317L761.425 815.797Z" fill="#2E2F33" fill-opacity="0.88"/>
</g>
<g id="cheongsong_hall_5f_toilet_right_girl">
<path d="M771 1352C771 1356.42 774.582 1360 779 1360H921C925.418 1360 929 1356.42 929 1352V1294C929 1289.58 925.418 1286 921 1286H779C774.582 1286 771 1289.58 771 1294V1352Z" fill="#FED9C4"/>
<path d="M921 1289V1286H779L779 1289H921ZM926 1294V1352C926 1354.76 923.761 1357 921 1357H779C776.239 1357 774 1354.76 774 1352V1294C774 1291.24 776.239 1289 779 1289L779 1286L778.588 1286.01C774.498 1286.22 771.218 1289.5 771.011 1293.59L771 1294V1352C771 1356.28 774.361 1359.77 778.588 1359.99L779 1360H921C925.418 1360 929 1356.42 929 1352V1294C929 1289.58 925.418 1286 921 1286V1289C923.761 1289 926 1291.24 926 1294Z" fill="#2E2F33" fill-opacity="0.88"/>
<path d="M862.75 1298.25H837.25C830.623 1298.25 825.25 1303.62 825.25 1310.25V1335.75C825.25 1342.38 830.623 1347.75 837.25 1347.75H862.75C869.377 1347.75 874.75 1342.38 874.75 1335.75V1310.25C874.75 1303.62 869.377 1298.25 862.75 1298.25Z" fill="#E76D6D"/>
<path d="M847.274 1320.98L841.809 1333.52C840.953 1335.49 842.392 1337.69 844.534 1337.69H855.465C857.606 1337.69 859.046 1335.49 858.19 1333.52L852.724 1320.98C851.686 1318.59 848.31 1318.59 847.271 1320.98H847.274Z" fill="white"/>
<path d="M850 1316.38C852.227 1316.38 854.032 1314.58 854.032 1312.35C854.032 1310.12 852.227 1308.32 850 1308.32C847.773 1308.32 845.968 1310.12 845.968 1312.35C845.968 1314.58 847.773 1316.38 850 1316.38Z" fill="white"/>
</g>
<g id="cheongsong_hall_5f_toilet_right_boy">
<path d="M771 1281C771 1285.42 774.582 1289 779 1289H921C925.418 1289 929 1285.42 929 1281V1222C929 1217.58 925.418 1214 921 1214H779C774.582 1214 771 1217.58 771 1222V1281Z" fill="#FED9C4"/>
<path d="M921 1217V1214H779L779 1217H921ZM926 1222V1281C926 1283.76 923.761 1286 921 1286H779C776.239 1286 774 1283.76 774 1281V1222C774 1219.24 776.239 1217 779 1217L779 1214L778.588 1214.01C774.498 1214.22 771.218 1217.5 771.011 1221.59L771 1222V1281C771 1285.28 774.361 1288.77 778.588 1288.99L779 1289H921C925.418 1289 929 1285.42 929 1281V1222L928.989 1221.59C928.775 1217.36 925.28 1214 921 1214V1217C923.761 1217 926 1219.24 926 1222Z" fill="#2E2F33" fill-opacity="0.88"/>
<path d="M862.75 1226.25H837.25C830.623 1226.25 825.25 1231.62 825.25 1238.25V1263.75C825.25 1270.38 830.623 1275.75 837.25 1275.75H862.75C869.377 1275.75 874.75 1270.38 874.75 1263.75V1238.25C874.75 1231.62 869.377 1226.25 862.75 1226.25Z" fill="#3076D1"/>
<path d="M852.725 1263.89L858.191 1251.34C859.047 1249.38 857.608 1247.18 855.466 1247.18H844.535C842.394 1247.18 840.953 1249.38 841.81 1251.34L847.276 1263.89C848.314 1266.27 851.69 1266.27 852.729 1263.89H852.725Z" fill="white"/>
<path d="M850 1244.39C852.227 1244.39 854.032 1242.58 854.032 1240.36C854.032 1238.13 852.227 1236.32 850 1236.32C847.773 1236.32 845.968 1238.13 845.968 1240.36C845.968 1242.58 847.773 1244.39 850 1244.39Z" fill="white"/>
</g>
<g id="cheongsong_hall_5f_stairs_right_main">
<path d="M1024 1138C1024 1142.42 1027.58 1146 1032 1146H1120C1124.42 1146 1128 1142.42 1128 1138V1004C1128 999.582 1124.42 996 1120 996H1032C1027.58 996 1024 999.582 1024 1004V1138Z" fill="#D9FFE6"/>
<path d="M1120 999V996H1032L1032 999H1120ZM1125 1004V1138C1125 1140.76 1122.76 1143 1120 1143H1032C1029.24 1143 1027 1140.76 1027 1138V1004C1027 1001.24 1029.24 999 1032 999L1032 996L1031.59 996.011C1027.5 996.218 1024.22 999.498 1024.01 1003.59L1024 1004V1138C1024 1142.42 1027.58 1146 1032 1146H1120C1124.42 1146 1128 1142.42 1128 1138V1004L1127.99 1003.59C1127.78 999.498 1124.5 996.218 1120.41 996.011L1120 996V999C1122.76 999 1125 1001.24 1125 1004Z" fill="#2E2F33" fill-opacity="0.88"/>
<path d="M1099.94 1044.63C1098.89 1044.25 1097.73 1044.79 1097.34 1045.84L1093.58 1056.06H1072.28L1075.81 1047.29C1076.22 1046.25 1075.72 1045.07 1074.68 1044.65C1073.64 1044.24 1072.46 1044.74 1072.05 1045.78L1052.43 1094.58C1052.02 1095.62 1052.52 1096.8 1053.56 1097.22C1053.8 1097.32 1054.06 1097.36 1054.31 1097.36C1055.11 1097.36 1055.87 1096.88 1056.19 1096.09L1060.22 1086.07C1060.31 1086.08 1060.38 1086.12 1060.47 1086.12H1082.52L1079.39 1094.64C1079 1095.69 1079.54 1096.85 1080.59 1097.24C1080.82 1097.32 1081.06 1097.36 1081.29 1097.36C1082.11 1097.36 1082.89 1096.86 1083.19 1096.04L1101.14 1047.23C1101.53 1046.18 1100.99 1045.02 1099.94 1044.63ZM1071.07 1060.1H1092.09L1088.85 1068.91H1067.11L1070.69 1060.03C1070.82 1060.05 1070.94 1060.1 1071.07 1060.1ZM1061.83 1082.07L1065.51 1072.9C1065.61 1072.92 1065.69 1072.96 1065.79 1072.96H1087.36L1084.01 1082.07H1061.83Z" fill="#6E4944"/>
</g>
<g id="cheongsong_hall_5f_stairs_right">
<path d="M1492 1292C1492 1296.42 1495.58 1300 1500 1300H1571C1575.42 1300 1579 1296.42 1579 1292V1193C1579 1188.58 1575.42 1185 1571 1185H1500C1495.58 1185 1492 1188.58 1492 1193V1292Z" fill="#D9FFE6"/>
<path d="M1571 1188V1185H1500L1500 1188H1571ZM1576 1193V1292C1576 1294.76 1573.76 1297 1571 1297H1500C1497.24 1297 1495 1294.76 1495 1292V1193C1495 1190.24 1497.24 1188 1500 1188L1500 1185C1495.58 1185 1492 1188.58 1492 1193V1292C1492 1296.28 1495.36 1299.77 1499.59 1299.99L1500 1300H1571L1571.41 1299.99C1575.64 1299.77 1579 1296.28 1579 1292V1193L1578.99 1192.59C1578.77 1188.36 1575.28 1185 1571 1185V1188C1573.76 1188 1576 1190.24 1576 1193Z" fill="#2E2F33" fill-opacity="0.88"/>
<path d="M1551.96 1224.42C1551.26 1224.17 1550.49 1224.52 1550.23 1225.22L1547.72 1232.04H1533.52L1535.87 1226.19C1536.15 1225.5 1535.81 1224.71 1535.12 1224.44C1534.43 1224.16 1533.64 1224.5 1533.36 1225.19L1520.29 1257.72C1520.01 1258.41 1520.35 1259.2 1521.04 1259.48C1521.2 1259.54 1521.37 1259.58 1521.54 1259.58C1522.08 1259.58 1522.58 1259.26 1522.79 1258.73L1525.48 1252.05C1525.54 1252.06 1525.59 1252.08 1525.65 1252.08H1540.35L1538.26 1257.76C1538 1258.46 1538.36 1259.24 1539.06 1259.49C1539.21 1259.55 1539.37 1259.58 1539.52 1259.58C1540.07 1259.58 1540.59 1259.24 1540.79 1258.69L1552.76 1226.15C1553.02 1225.46 1552.66 1224.68 1551.96 1224.42ZM1532.72 1234.74H1546.73L1544.57 1240.61H1530.08L1532.46 1234.68C1532.54 1234.7 1532.62 1234.74 1532.72 1234.74ZM1526.55 1249.38L1529.01 1243.27C1529.07 1243.28 1529.13 1243.31 1529.2 1243.31H1543.57L1541.34 1249.38H1526.55Z" fill="#6E4944"/>
</g>
<g id="cheongsong_hall_577">
<path d="M1125 1138C1125 1142.42 1128.58 1146 1133 1146H1341C1345.42 1146 1349 1142.42 1349 1138V1004C1349 999.582 1345.42 996 1341 996H1133C1128.58 996 1125 999.582 1125 1004V1138Z" fill="#F7FBFF"/>
<path d="M1341 999V996H1133L1133 999H1341ZM1346 1004V1138C1346 1140.76 1343.76 1143 1341 1143H1133C1130.24 1143 1128 1140.76 1128 1138V1004C1128 1001.24 1130.24 999 1133 999L1133 996L1132.59 996.011C1128.5 996.218 1125.22 999.498 1125.01 1003.59L1125 1004V1138C1125 1142.42 1128.58 1146 1133 1146H1341C1345.42 1146 1349 1142.42 1349 1138V1004L1348.99 1003.59C1348.78 999.498 1345.5 996.218 1341.41 996.011L1341 996V999C1343.76 999 1346 1001.24 1346 1004Z" fill="#2E2F33" fill-opacity="0.88"/>
<path d="M1249.25 1082L1259.06 1062.94V1062.78H1247.69V1059.38H1263.28V1062.84L1253.47 1082H1249.25Z" fill="black"/>
<path d="M1230.47 1082L1240.28 1062.94V1062.78H1228.91V1059.38H1244.5V1062.84L1234.69 1082H1230.47Z" fill="black"/>
<path d="M1217.91 1082.31C1213.38 1082.31 1210.06 1079.62 1209.94 1075.88H1213.91C1214.03 1077.72 1215.75 1079.03 1217.91 1079.03C1220.44 1079.03 1222.25 1077.19 1222.25 1074.69C1222.25 1072.09 1220.38 1070.25 1217.78 1070.25C1216.03 1070.22 1214.75 1070.84 1214.03 1072.19H1210.25L1211.62 1059.38H1225V1062.78H1214.97L1214.28 1068.78H1214.5C1215.38 1067.78 1217.03 1067.06 1218.88 1067.06C1223.09 1067.06 1226.19 1070.22 1226.19 1074.56C1226.19 1079.09 1222.78 1082.31 1217.91 1082.31Z" fill="black"/>
</g>
<g id="cheongsong_hall_559">
<path d="M1130 1292C1130 1296.42 1133.58 1300 1138 1300H1341C1345.42 1300 1349 1296.42 1349 1292V1193C1349 1188.58 1345.42 1185 1341 1185H1138C1133.58 1185 1130 1188.58 1130 1193V1292Z" fill="#F7FBFF"/>
<path d="M1341 1188V1185H1138L1138 1188H1341ZM1346 1193V1292C1346 1294.76 1343.76 1297 1341 1297H1138C1135.24 1297 1133 1294.76 1133 1292V1193C1133 1190.24 1135.24 1188 1138 1188L1138 1185L1137.59 1185.01C1133.36 1185.23 1130 1188.72 1130 1193V1292C1130 1296.28 1133.36 1299.77 1137.59 1299.99L1138 1300H1341C1345.42 1300 1349 1296.42 1349 1292V1193L1348.99 1192.59C1348.77 1188.36 1345.28 1185 1341 1185V1188C1343.76 1188 1346 1190.24 1346 1193Z" fill="#2E2F33" fill-opacity="0.88"/>
<path d="M1258.41 1230.06C1262.84 1230.09 1267.22 1232.72 1267.25 1241C1267.25 1248.81 1263.72 1253.31 1258.16 1253.31C1253.78 1253.31 1250.78 1250.59 1250.28 1246.84H1254.31C1254.72 1248.62 1256.09 1249.78 1258.16 1249.78C1261.44 1249.78 1263.28 1246.87 1263.31 1242.03H1263.06C1261.91 1244 1259.75 1245.16 1257.25 1245.16C1253.22 1245.16 1250.09 1242.09 1250.06 1237.81C1250.06 1233.37 1253.38 1230.03 1258.41 1230.06ZM1258.44 1233.34C1255.91 1233.34 1254 1235.31 1254.03 1237.72C1254.03 1240.16 1255.84 1242.06 1258.38 1242.06C1260.88 1242.06 1262.84 1240.03 1262.81 1237.69C1262.81 1235.37 1260.97 1233.34 1258.44 1233.34Z" fill="black"/>
<path d="M1238.66 1253.31C1234.12 1253.31 1230.81 1250.62 1230.69 1246.88H1234.66C1234.78 1248.72 1236.5 1250.03 1238.66 1250.03C1241.19 1250.03 1243 1248.19 1243 1245.69C1243 1243.09 1241.12 1241.25 1238.53 1241.25C1236.78 1241.22 1235.5 1241.84 1234.78 1243.19H1231L1232.38 1230.38H1245.75V1233.78H1235.72L1235.03 1239.78H1235.25C1236.12 1238.78 1237.78 1238.06 1239.62 1238.06C1243.84 1238.06 1246.94 1241.22 1246.94 1245.56C1246.94 1250.09 1243.53 1253.31 1238.66 1253.31Z" fill="black"/>
<path d="M1218.91 1253.31C1214.38 1253.31 1211.06 1250.62 1210.94 1246.88H1214.91C1215.03 1248.72 1216.75 1250.03 1218.91 1250.03C1221.44 1250.03 1223.25 1248.19 1223.25 1245.69C1223.25 1243.09 1221.38 1241.25 1218.78 1241.25C1217.03 1241.22 1215.75 1241.84 1215.03 1243.19H1211.25L1212.62 1230.38H1226V1233.78H1215.97L1215.28 1239.78H1215.5C1216.38 1238.78 1218.03 1238.06 1219.88 1238.06C1224.09 1238.06 1227.19 1241.22 1227.19 1245.56C1227.19 1250.09 1223.78 1253.31 1218.91 1253.31Z" fill="black"/>
</g>
<g id="cheongsong_hall_562">
<path d="M1346 1292C1346 1296.42 1349.58 1300 1354 1300H1487C1491.42 1300 1495 1296.42 1495 1292V1193C1495 1188.58 1491.42 1185 1487 1185H1354C1349.58 1185 1346 1188.58 1346 1193V1292Z" fill="#F7FBFF"/>
<path d="M1487 1188V1185H1354L1354 1188H1487ZM1492 1193V1292C1492 1294.76 1489.76 1297 1487 1297H1354C1351.24 1297 1349 1294.76 1349 1292V1193C1349 1190.24 1351.24 1188 1354 1188L1354 1185L1353.59 1185.01C1349.36 1185.23 1346 1188.72 1346 1193V1292C1346 1296.42 1349.58 1300 1354 1300H1487C1491.42 1300 1495 1296.42 1495 1292V1193L1494.99 1192.59C1494.78 1188.5 1491.5 1185.22 1487.41 1185.01L1487 1185V1188C1489.76 1188 1492 1190.24 1492 1193Z" fill="#2E2F33" fill-opacity="0.88"/>
<path d="M1432.87 1253V1250.06L1440.87 1242.34C1443.16 1240.06 1444.34 1238.72 1444.34 1236.81C1444.34 1234.72 1442.69 1233.38 1440.47 1233.38C1438.12 1233.38 1436.62 1234.84 1436.66 1237.12H1432.78C1432.75 1232.84 1435.97 1230.06 1440.5 1230.06C1445.12 1230.06 1448.25 1232.81 1448.25 1236.62C1448.25 1239.19 1447 1241.25 1442.56 1245.44L1438.53 1249.44V1249.59H1448.59V1253H1432.87Z" fill="black"/>
<path d="M1421.09 1253.31C1416.69 1253.28 1412.25 1250.66 1412.28 1242.31C1412.28 1234.56 1415.81 1230.06 1421.34 1230.06C1425.72 1230.06 1428.72 1232.81 1429.22 1236.47H1425.19C1424.78 1234.75 1423.41 1233.59 1421.34 1233.59C1418.06 1233.59 1416.22 1236.5 1416.22 1241.25H1416.44C1417.59 1239.31 1419.78 1238.16 1422.25 1238.16C1426.31 1238.16 1429.44 1241.22 1429.44 1245.5C1429.44 1250 1426.09 1253.34 1421.09 1253.31ZM1421.09 1250.03C1423.63 1250.03 1425.5 1248.06 1425.5 1245.59C1425.5 1243.19 1423.66 1241.25 1421.16 1241.25C1418.63 1241.25 1416.69 1243.25 1416.66 1245.62C1416.69 1248 1418.53 1250.03 1421.09 1250.03Z" fill="black"/>
<path d="M1400.91 1253.31C1396.38 1253.31 1393.06 1250.62 1392.94 1246.88H1396.91C1397.03 1248.72 1398.75 1250.03 1400.91 1250.03C1403.44 1250.03 1405.25 1248.19 1405.25 1245.69C1405.25 1243.09 1403.38 1241.25 1400.78 1241.25C1399.03 1241.22 1397.75 1241.84 1397.03 1243.19H1393.25L1394.62 1230.38H1408V1233.78H1397.97L1397.28 1239.78H1397.5C1398.38 1238.78 1400.03 1238.06 1401.88 1238.06C1406.09 1238.06 1409.19 1241.22 1409.19 1245.56C1409.19 1250.09 1405.78 1253.31 1400.91 1253.31Z" fill="black"/>
</g>
<g id="cheongsong_hall_572">
<path d="M1573 1138C1573 1142.42 1576.58 1146 1581 1146H1731C1735.42 1146 1739 1142.42 1739 1138V1004C1739 999.582 1735.42 996 1731 996H1581C1576.58 996 1573 999.582 1573 1004V1138Z" fill="#F7FBFF"/>
<path d="M1731 999V996H1581L1581 999H1731ZM1736 1004V1138C1736 1140.76 1733.76 1143 1731 1143H1581C1578.24 1143 1576 1140.76 1576 1138V1004C1576 1001.24 1578.24 999 1581 999L1581 996C1576.72 996 1573.23 999.361 1573.01 1003.59L1573 1004V1138C1573 1142.28 1576.36 1145.77 1580.59 1145.99L1581 1146H1731L1731.41 1145.99C1735.64 1145.77 1739 1142.28 1739 1138V1004L1738.99 1003.59C1738.77 999.361 1735.28 996 1731 996V999C1733.76 999 1736 1001.24 1736 1004Z" fill="#2E2F33" fill-opacity="0.88"/>
<path d="M1666.78 1082V1079.06L1674.78 1071.34C1677.06 1069.06 1678.25 1067.72 1678.25 1065.81C1678.25 1063.72 1676.59 1062.38 1674.37 1062.38C1672.03 1062.38 1670.53 1063.84 1670.56 1066.12H1666.69C1666.66 1061.84 1669.87 1059.06 1674.41 1059.06C1679.03 1059.06 1682.16 1061.81 1682.16 1065.62C1682.16 1068.19 1680.91 1070.25 1676.47 1074.44L1672.44 1078.44V1078.59H1682.5V1082H1666.78Z" fill="black"/>
<path d="M1649.47 1082L1659.28 1062.94V1062.78H1647.91V1059.38H1663.5V1062.84L1653.69 1082H1649.47Z" fill="black"/>
<path d="M1636.91 1082.31C1632.38 1082.31 1629.06 1079.62 1628.94 1075.88H1632.91C1633.03 1077.72 1634.75 1079.03 1636.91 1079.03C1639.44 1079.03 1641.25 1077.19 1641.25 1074.69C1641.25 1072.09 1639.38 1070.25 1636.78 1070.25C1635.03 1070.22 1633.75 1070.84 1633.03 1072.19H1629.25L1630.62 1059.38H1644V1062.78H1633.97L1633.28 1068.78H1633.5C1634.38 1067.78 1636.03 1067.06 1637.88 1067.06C1642.09 1067.06 1645.19 1070.22 1645.19 1074.56C1645.19 1079.09 1641.78 1082.31 1636.91 1082.31Z" fill="black"/>
</g>
<g id="cheongsong_hall_564">
<path d="M1577 1292C1577 1296.42 1580.58 1300 1585 1300H1732C1736.42 1300 1740 1296.42 1740 1292V1193C1740 1188.58 1736.42 1185 1732 1185H1585C1580.58 1185 1577 1188.58 1577 1193V1292Z" fill="#F7FBFF"/>
<path d="M1732 1188V1185H1585L1585 1188H1732ZM1737 1193V1292C1737 1294.76 1734.76 1297 1732 1297H1585C1582.24 1297 1580 1294.76 1580 1292V1193C1580 1190.24 1582.24 1188 1585 1188L1585 1185C1580.58 1185 1577 1188.58 1577 1193V1292C1577 1296.28 1580.36 1299.77 1584.59 1299.99L1585 1300H1732L1732.41 1299.99C1736.64 1299.77 1740 1296.28 1740 1292V1193L1739.99 1192.59C1739.77 1188.36 1736.28 1185 1732 1185V1188C1734.76 1188 1737 1190.24 1737 1193Z" fill="#2E2F33" fill-opacity="0.88"/>
<path d="M1669.47 1248.78V1245.53L1679.25 1230.38H1684.31V1245.44H1687.28V1248.78H1684.31V1253H1680.44V1248.78H1669.47ZM1673.62 1245.44H1680.5V1235H1680.25L1673.62 1245.28V1245.44Z" fill="black"/>
<path d="M1658.09 1253.31C1653.69 1253.28 1649.25 1250.66 1649.28 1242.31C1649.28 1234.56 1652.81 1230.06 1658.34 1230.06C1662.72 1230.06 1665.72 1232.81 1666.22 1236.47H1662.19C1661.78 1234.75 1660.41 1233.59 1658.34 1233.59C1655.06 1233.59 1653.22 1236.5 1653.22 1241.25H1653.44C1654.59 1239.31 1656.78 1238.16 1659.25 1238.16C1663.31 1238.16 1666.44 1241.22 1666.44 1245.5C1666.44 1250 1663.09 1253.34 1658.09 1253.31ZM1658.09 1250.03C1660.63 1250.03 1662.5 1248.06 1662.5 1245.59C1662.5 1243.19 1660.66 1241.25 1658.16 1241.25C1655.63 1241.25 1653.69 1243.25 1653.66 1245.62C1653.69 1248 1655.53 1250.03 1658.09 1250.03Z" fill="black"/>
<path d="M1637.91 1253.31C1633.38 1253.31 1630.06 1250.62 1629.94 1246.88H1633.91C1634.03 1248.72 1635.75 1250.03 1637.91 1250.03C1640.44 1250.03 1642.25 1248.19 1642.25 1245.69C1642.25 1243.09 1640.38 1241.25 1637.78 1241.25C1636.03 1241.22 1634.75 1241.84 1634.03 1243.19H1630.25L1631.62 1230.38H1645V1233.78H1634.97L1634.28 1239.78H1634.5C1635.38 1238.78 1637.03 1238.06 1638.88 1238.06C1643.09 1238.06 1646.19 1241.22 1646.19 1245.56C1646.19 1250.09 1642.78 1253.31 1637.91 1253.31Z" fill="black"/>
</g>
<g id="cheongsong_hall_569">
<path d="M1737 1138C1737 1142.42 1740.58 1146 1745 1146H1947C1951.42 1146 1955 1142.42 1955 1138V1004C1955 999.582 1951.42 996 1947 996H1745C1740.58 996 1737 999.582 1737 1004V1138Z" fill="#F7FBFF"/>
<path d="M1947 999V996H1745L1745 999H1947ZM1952 1004V1138C1952 1140.76 1949.76 1143 1947 1143H1745C1742.24 1143 1740 1140.76 1740 1138V1004C1740 1001.24 1742.24 999 1745 999L1745 996C1740.72 996 1737.23 999.361 1737.01 1003.59L1737 1004V1138C1737 1142.28 1740.36 1145.77 1744.59 1145.99L1745 1146H1947L1947.41 1145.99C1951.64 1145.77 1955 1142.28 1955 1138V1004L1954.99 1003.59C1954.77 999.361 1951.28 996 1947 996V999C1949.76 999 1952 1001.24 1952 1004Z" fill="#2E2F33" fill-opacity="0.88"/>
<path d="M1864.91 1059.06C1869.34 1059.09 1873.72 1061.72 1873.75 1070C1873.75 1077.81 1870.22 1082.31 1864.66 1082.31C1860.28 1082.31 1857.28 1079.59 1856.78 1075.84H1860.81C1861.22 1077.62 1862.59 1078.78 1864.66 1078.78C1867.94 1078.78 1869.78 1075.87 1869.81 1071.03H1869.56C1868.41 1073 1866.25 1074.16 1863.75 1074.16C1859.72 1074.16 1856.59 1071.09 1856.56 1066.81C1856.56 1062.37 1859.88 1059.03 1864.91 1059.06ZM1864.94 1062.34C1862.41 1062.34 1860.5 1064.31 1860.53 1066.72C1860.53 1069.16 1862.34 1071.06 1864.88 1071.06C1867.38 1071.06 1869.34 1069.03 1869.31 1066.69C1869.31 1064.37 1867.47 1062.34 1864.94 1062.34Z" fill="black"/>
<path d="M1845.09 1082.31C1840.69 1082.28 1836.25 1079.66 1836.28 1071.31C1836.28 1063.56 1839.81 1059.06 1845.34 1059.06C1849.72 1059.06 1852.72 1061.81 1853.22 1065.47H1849.19C1848.78 1063.75 1847.41 1062.59 1845.34 1062.59C1842.06 1062.59 1840.22 1065.5 1840.22 1070.25H1840.44C1841.59 1068.31 1843.78 1067.16 1846.25 1067.16C1850.31 1067.16 1853.44 1070.22 1853.44 1074.5C1853.44 1079 1850.09 1082.34 1845.09 1082.31ZM1845.09 1079.03C1847.63 1079.03 1849.5 1077.06 1849.5 1074.59C1849.5 1072.19 1847.66 1070.25 1845.16 1070.25C1842.63 1070.25 1840.69 1072.25 1840.66 1074.62C1840.69 1077 1842.53 1079.03 1845.09 1079.03Z" fill="black"/>
<path d="M1824.91 1082.31C1820.38 1082.31 1817.06 1079.62 1816.94 1075.88H1820.91C1821.03 1077.72 1822.75 1079.03 1824.91 1079.03C1827.44 1079.03 1829.25 1077.19 1829.25 1074.69C1829.25 1072.09 1827.38 1070.25 1824.78 1070.25C1823.03 1070.22 1821.75 1070.84 1821.03 1072.19H1817.25L1818.62 1059.38H1832V1062.78H1821.97L1821.28 1068.78H1821.5C1822.38 1067.78 1824.03 1067.06 1825.88 1067.06C1830.09 1067.06 1833.19 1070.22 1833.19 1074.56C1833.19 1079.09 1829.78 1082.31 1824.91 1082.31Z" fill="black"/>
</g>
<g id="cheongsong_hall_574">
<path d="M1346 1138C1346 1142.42 1349.58 1146 1354 1146H1568C1572.42 1146 1576 1142.42 1576 1138V1004C1576 999.582 1572.42 996 1568 996H1354C1349.58 996 1346 999.582 1346 1004V1138Z" fill="#F7FBFF"/>
<path d="M1568 999V996H1354L1354 999H1568ZM1573 1004V1138C1573 1140.76 1570.76 1143 1568 1143H1354C1351.24 1143 1349 1140.76 1349 1138V1004C1349 1001.24 1351.24 999 1354 999L1354 996L1353.59 996.011C1349.5 996.218 1346.22 999.498 1346.01 1003.59L1346 1004V1138C1346 1142.28 1349.36 1145.77 1353.59 1145.99L1354 1146H1568C1572.42 1146 1576 1142.42 1576 1138V1004L1575.99 1003.59C1575.77 999.361 1572.28 996 1568 996V999C1570.76 999 1573 1001.24 1573 1004Z" fill="#2E2F33" fill-opacity="0.88"/>
<path d="M1470.56 1077.78V1074.53L1480.34 1059.38H1485.41V1074.44H1488.38V1077.78H1485.41V1082H1481.53V1077.78H1470.56ZM1474.72 1074.44H1481.59V1064H1481.34L1474.72 1074.28V1074.44Z" fill="black"/>
<path d="M1455.47 1082L1465.28 1062.94V1062.78H1453.91V1059.38H1469.5V1062.84L1459.69 1082H1455.47Z" fill="black"/>
<path d="M1442.91 1082.31C1438.38 1082.31 1435.06 1079.62 1434.94 1075.88H1438.91C1439.03 1077.72 1440.75 1079.03 1442.91 1079.03C1445.44 1079.03 1447.25 1077.19 1447.25 1074.69C1447.25 1072.09 1445.38 1070.25 1442.78 1070.25C1441.03 1070.22 1439.75 1070.84 1439.03 1072.19H1435.25L1436.62 1059.38H1450V1062.78H1439.97L1439.28 1068.78H1439.5C1440.38 1067.78 1442.03 1067.06 1443.88 1067.06C1448.09 1067.06 1451.19 1070.22 1451.19 1074.56C1451.19 1079.09 1447.78 1082.31 1442.91 1082.31Z" fill="black"/>
</g>
<g id="cheongsong_hall_557">
<path d="M992 1327C992 1331.42 995.582 1335 1000 1335H1125C1129.42 1335 1133 1331.42 1133 1327V1193C1133 1188.58 1129.42 1185 1125 1185H1000C995.582 1185 992 1188.58 992 1193V1327Z" fill="#F7FBFF"/>
<path d="M1125 1188V1185H1000L1000 1188H1125ZM1130 1193V1327C1130 1329.76 1127.76 1332 1125 1332H1000C997.239 1332 995 1329.76 995 1327V1193C995 1190.24 997.239 1188 1000 1188L1000 1185C995.72 1185 992.225 1188.36 992.011 1192.59L992 1193V1327C992 1331.28 995.361 1334.77 999.588 1334.99L1000 1335H1125L1125.41 1334.99C1129.64 1334.77 1133 1331.28 1133 1327V1193L1132.99 1192.59C1132.77 1188.36 1129.28 1185 1125 1185V1188C1127.76 1188 1130 1190.24 1130 1193Z" fill="#2E2F33" fill-opacity="0.88"/>
<path d="M1075.22 1271L1085.03 1251.94V1251.78H1073.66V1248.38H1089.25V1251.84L1079.44 1271H1075.22Z" fill="black"/>
<path d="M1062.66 1271.31C1058.12 1271.31 1054.81 1268.62 1054.69 1264.88H1058.66C1058.78 1266.72 1060.5 1268.03 1062.66 1268.03C1065.19 1268.03 1067 1266.19 1067 1263.69C1067 1261.09 1065.12 1259.25 1062.53 1259.25C1060.78 1259.22 1059.5 1259.84 1058.78 1261.19H1055L1056.38 1248.38H1069.75V1251.78H1059.72L1059.03 1257.78H1059.25C1060.12 1256.78 1061.78 1256.06 1063.62 1256.06C1067.84 1256.06 1070.94 1259.22 1070.94 1263.56C1070.94 1268.09 1067.53 1271.31 1062.66 1271.31Z" fill="black"/>
<path d="M1042.91 1271.31C1038.38 1271.31 1035.06 1268.62 1034.94 1264.88H1038.91C1039.03 1266.72 1040.75 1268.03 1042.91 1268.03C1045.44 1268.03 1047.25 1266.19 1047.25 1263.69C1047.25 1261.09 1045.38 1259.25 1042.78 1259.25C1041.03 1259.22 1039.75 1259.84 1039.03 1261.19H1035.25L1036.62 1248.38H1050V1251.78H1039.97L1039.28 1257.78H1039.5C1040.38 1256.78 1042.03 1256.06 1043.88 1256.06C1048.09 1256.06 1051.19 1259.22 1051.19 1263.56C1051.19 1268.09 1047.78 1271.31 1042.91 1271.31Z" fill="black"/>
</g>
<g id="cheongsong_hall_5f_elevator_right">
<path d="M871 1411C871 1415.42 874.582 1419 879 1419H921C925.418 1419 929 1415.42 929 1411V1365C929 1360.58 925.418 1357 921 1357H879C874.582 1357 871 1360.58 871 1365V1411Z" fill="#C4C4C4"/>
<path d="M921 1360V1357H879L879 1360H921ZM926 1365V1411C926 1413.76 923.761 1416 921 1416H879C876.239 1416 874 1413.76 874 1411V1365C874 1362.24 876.239 1360 879 1360L879 1357C874.582 1357 871 1360.58 871 1365V1411C871 1415.28 874.361 1418.77 878.588 1418.99L879 1419H921L921.412 1418.99C925.639 1418.77 929 1415.28 929 1411V1365C929 1360.58 925.418 1357 921 1357V1360C923.761 1360 926 1362.24 926 1365Z" fill="#2E2F33" fill-opacity="0.88"/>
<path d="M910.625 1367.38H889.375C883.852 1367.38 879.375 1371.85 879.375 1377.38V1398.62C879.375 1404.15 883.852 1408.62 889.375 1408.62H910.625C916.147 1408.62 920.625 1404.15 920.625 1398.62V1377.38C920.625 1371.85 916.147 1367.38 910.625 1367.38ZM901.02 1375.43H902.174C902.289 1375.43 902.381 1375.34 902.381 1375.23V1372.67C902.381 1372.58 902.46 1372.5 902.557 1372.5H904.449C904.546 1372.5 904.625 1372.58 904.625 1372.67V1375.23C904.625 1375.34 904.717 1375.43 904.832 1375.43H905.986C906.153 1375.43 906.235 1375.63 906.118 1375.75L903.759 1378.11C903.618 1378.25 903.389 1378.25 903.249 1378.11L900.89 1375.75C900.772 1375.63 900.855 1375.43 901.02 1375.43ZM893.327 1374.96L895.686 1372.6C895.827 1372.46 896.056 1372.46 896.196 1372.6L898.555 1374.96C898.673 1375.08 898.589 1375.28 898.424 1375.28H897.27C897.155 1375.28 897.062 1375.37 897.062 1375.49V1378.04C897.062 1378.14 896.984 1378.22 896.886 1378.22H894.995C894.898 1378.22 894.819 1378.14 894.819 1378.04V1375.49C894.819 1375.37 894.726 1375.28 894.611 1375.28H893.458C893.291 1375.28 893.21 1375.08 893.327 1374.96ZM915.29 1397.34C915.29 1400.35 912.838 1402.81 909.823 1402.81H890.176C887.161 1402.81 884.709 1400.35 884.709 1397.34V1385.54C884.709 1382.52 887.161 1380.07 890.176 1380.07H909.823C912.838 1380.07 915.29 1382.52 915.29 1385.54V1397.34Z" fill="#4592FB"/>
<path d="M909.823 1381.04H890.176C887.695 1381.04 885.676 1383.06 885.676 1385.54V1397.34C885.676 1399.82 887.695 1401.84 890.176 1401.84H909.823C912.304 1401.84 914.323 1399.82 914.323 1397.34V1385.54C914.323 1383.06 912.304 1381.04 909.823 1381.04ZM907.61 1383.93C908.245 1383.93 908.76 1384.44 908.76 1385.08C908.76 1385.71 908.245 1386.23 907.61 1386.23C906.975 1386.23 906.46 1385.71 906.46 1385.08C906.46 1384.44 906.975 1383.93 907.61 1383.93ZM899.866 1383.93C900.501 1383.93 901.016 1384.44 901.016 1385.08C901.016 1385.71 900.501 1386.23 899.866 1386.23C899.231 1386.23 898.716 1385.71 898.716 1385.08C898.716 1384.44 899.231 1383.93 899.866 1383.93ZM892.122 1383.93C892.757 1383.93 893.272 1384.44 893.272 1385.08C893.272 1385.71 892.757 1386.23 892.122 1386.23C891.487 1386.23 890.972 1385.71 890.972 1385.08C890.972 1384.44 891.487 1383.93 892.122 1383.93ZM895.455 1392.08C895.455 1392.44 895.163 1392.73 894.802 1392.73C894.442 1392.73 894.15 1392.44 894.15 1392.08V1388.66H893.809V1398.08C893.809 1398.48 893.49 1398.8 893.096 1398.8C892.703 1398.8 892.384 1398.48 892.384 1398.08V1392.67H891.859V1398.08C891.859 1398.48 891.54 1398.8 891.146 1398.8C890.753 1398.8 890.434 1398.48 890.434 1398.08V1388.66H889.995V1392.08C889.995 1392.44 889.703 1392.73 889.343 1392.73C888.983 1392.73 888.69 1392.44 888.69 1392.08V1388.05C888.69 1387.33 889.274 1386.75 889.995 1386.75H894.147C894.867 1386.75 895.452 1387.33 895.452 1388.05V1392.08H895.455ZM903.199 1392.08C903.199 1392.44 902.906 1392.73 902.546 1392.73C902.186 1392.73 901.894 1392.44 901.894 1392.08V1388.66H901.553V1398.08C901.553 1398.48 901.234 1398.8 900.84 1398.8C900.446 1398.8 900.127 1398.48 900.127 1398.08V1392.67H899.604V1398.08C899.604 1398.48 899.285 1398.8 898.891 1398.8C898.498 1398.8 898.179 1398.48 898.179 1398.08V1388.66H897.74V1392.08C897.74 1392.44 897.448 1392.73 897.087 1392.73C896.727 1392.73 896.435 1392.44 896.435 1392.08V1388.05C896.435 1387.33 897.019 1386.75 897.74 1386.75H901.892C902.614 1386.75 903.198 1387.33 903.198 1388.05L903.199 1392.08ZM910.942 1392.08C910.942 1392.44 910.65 1392.73 910.29 1392.73C909.93 1392.73 909.637 1392.44 909.637 1392.08V1388.66H909.296V1398.08C909.296 1398.48 908.978 1398.8 908.584 1398.8C908.19 1398.8 907.871 1398.48 907.871 1398.08V1392.67H907.346V1398.08C907.346 1398.48 907.028 1398.8 906.634 1398.8C906.24 1398.8 905.921 1398.48 905.921 1398.08V1388.66H905.482V1392.08C905.482 1392.44 905.19 1392.73 904.83 1392.73C904.47 1392.73 904.177 1392.44 904.177 1392.08V1388.05C904.177 1387.33 904.761 1386.75 905.482 1386.75H909.635C910.356 1386.75 910.94 1387.33 910.94 1388.05V1392.08H910.942Z" fill="#4592FB"/>
<path d="M899.866 1386.23C900.501 1386.23 901.016 1385.71 901.016 1385.08C901.016 1384.44 900.501 1383.93 899.866 1383.93C899.231 1383.93 898.716 1384.44 898.716 1385.08C898.716 1385.71 899.231 1386.23 899.866 1386.23Z" fill="white"/>
<path d="M892.122 1386.23C892.757 1386.23 893.272 1385.71 893.272 1385.08C893.272 1384.44 892.757 1383.93 892.122 1383.93C891.487 1383.93 890.972 1384.44 890.972 1385.08C890.972 1385.71 891.487 1386.23 892.122 1386.23Z" fill="white"/>
<path d="M907.61 1386.23C908.245 1386.23 908.76 1385.71 908.76 1385.08C908.76 1384.44 908.245 1383.93 907.61 1383.93C906.975 1383.93 906.46 1384.44 906.46 1385.08C906.46 1385.71 906.975 1386.23 907.61 1386.23Z" fill="white"/>
<path d="M909.825 1380.08H890.175C887.163 1380.08 884.712 1382.53 884.712 1385.54V1397.34C884.712 1400.35 887.163 1402.81 890.175 1402.81H909.825C912.838 1402.81 915.287 1400.35 915.287 1397.34V1385.54C915.287 1382.53 912.838 1380.08 909.825 1380.08ZM914.325 1397.34C914.325 1399.82 912.3 1401.84 909.825 1401.84H890.175C887.7 1401.84 885.675 1399.82 885.675 1397.34V1385.54C885.675 1383.06 887.7 1381.04 890.175 1381.04H909.825C912.3 1381.04 914.325 1383.06 914.325 1385.54V1397.34Z" fill="white"/>
<path d="M910.938 1388.05V1392.08C910.938 1392.44 910.65 1392.74 910.287 1392.74C909.925 1392.74 909.637 1392.44 909.637 1392.08V1388.66L909.3 1388.66V1398.09C909.3 1398.47 908.975 1398.8 908.588 1398.8C908.188 1398.8 907.875 1398.47 907.875 1398.09V1392.66H907.35V1398.09C907.35 1398.47 907.025 1398.8 906.637 1398.8C906.237 1398.8 905.925 1398.47 905.925 1398.09V1388.66H905.487V1392.08C905.487 1392.44 905.188 1392.74 904.838 1392.74C904.475 1392.74 904.175 1392.44 904.175 1392.08V1388.05C904.175 1387.33 904.763 1386.75 905.487 1386.75H909.637C910.362 1386.75 910.938 1387.33 910.938 1388.05Z" fill="white"/>
<path d="M895.45 1388.05V1392.08C895.45 1392.44 895.162 1392.74 894.8 1392.74C894.438 1392.74 894.15 1392.44 894.15 1392.08V1388.66L893.812 1388.66V1398.09C893.812 1398.47 893.487 1398.8 893.1 1398.8C892.7 1398.8 892.388 1398.47 892.388 1398.09V1392.66H891.862V1398.09C891.862 1398.47 891.538 1398.8 891.15 1398.8C890.75 1398.8 890.438 1398.47 890.438 1398.09V1388.66H890V1392.08C890 1392.44 889.7 1392.74 889.35 1392.74C888.988 1392.74 888.688 1392.44 888.688 1392.08V1388.05C888.688 1387.33 889.275 1386.75 890 1386.75H894.15C894.875 1386.75 895.45 1387.33 895.45 1388.05Z" fill="white"/>
<path d="M903.2 1388.05V1392.08C903.2 1392.44 902.912 1392.74 902.55 1392.74C902.188 1392.74 901.9 1392.44 901.9 1392.08V1388.66H901.55V1398.09C901.55 1398.47 901.237 1398.8 900.837 1398.8C900.45 1398.8 900.125 1398.47 900.125 1398.09V1392.66H899.6V1398.09C899.6 1398.47 899.287 1398.8 898.887 1398.8C898.5 1398.8 898.175 1398.47 898.175 1398.09V1388.66H897.737V1392.08C897.737 1392.44 897.45 1392.74 897.087 1392.74C896.725 1392.74 896.437 1392.44 896.437 1392.08V1388.05C896.437 1387.33 897.025 1386.75 897.737 1386.75H901.9C902.612 1386.75 903.2 1387.33 903.2 1388.05Z" fill="white"/>
<path d="M893.459 1375.28H894.612C894.727 1375.28 894.82 1375.37 894.82 1375.49V1378.04C894.82 1378.14 894.899 1378.22 894.996 1378.22H896.888C896.985 1378.22 897.064 1378.14 897.064 1378.04V1375.49C897.064 1375.37 897.156 1375.28 897.271 1375.28H898.425C898.591 1375.28 898.674 1375.08 898.556 1374.96L896.198 1372.61C896.056 1372.46 895.827 1372.46 895.688 1372.61L893.329 1374.96C893.211 1375.08 893.294 1375.28 893.459 1375.28Z" fill="white"/>
<path d="M903.246 1378.11C903.388 1378.25 903.616 1378.25 903.756 1378.11L906.115 1375.75C906.232 1375.63 906.149 1375.43 905.984 1375.43H904.83C904.715 1375.43 904.622 1375.34 904.622 1375.23V1372.67C904.622 1372.58 904.544 1372.5 904.446 1372.5H902.555C902.458 1372.5 902.379 1372.58 902.379 1372.67V1375.23C902.379 1375.34 902.286 1375.43 902.171 1375.43H901.017C900.851 1375.43 900.769 1375.63 900.886 1375.75L903.246 1378.11Z" fill="white"/>
</g>
<g id="cheongsong_hall_566">
<path d="M1737 1292C1737 1296.42 1740.58 1300 1745 1300H1947C1951.42 1300 1955 1296.42 1955 1292V1193C1955 1188.58 1951.42 1185 1947 1185H1745C1740.58 1185 1737 1188.58 1737 1193V1292Z" fill="#F7FBFF"/>
<path d="M1947 1188V1185H1745L1745 1188H1947ZM1952 1193V1292C1952 1294.76 1949.76 1297 1947 1297H1745C1742.24 1297 1740 1294.76 1740 1292V1193C1740 1190.24 1742.24 1188 1745 1188L1745 1185C1740.58 1185 1737 1188.58 1737 1193V1292C1737 1296.28 1740.36 1299.77 1744.59 1299.99L1745 1300H1947L1947.41 1299.99C1951.64 1299.77 1955 1296.28 1955 1292V1193L1954.99 1192.59C1954.77 1188.36 1951.28 1185 1947 1185V1188C1949.76 1188 1952 1190.24 1952 1193Z" fill="#2E2F33" fill-opacity="0.88"/>
<path d="M1865.34 1254.31C1860.94 1254.28 1856.5 1251.66 1856.53 1243.31C1856.53 1235.56 1860.06 1231.06 1865.59 1231.06C1869.97 1231.06 1872.97 1233.81 1873.47 1237.47H1869.44C1869.03 1235.75 1867.66 1234.59 1865.59 1234.59C1862.31 1234.59 1860.47 1237.5 1860.47 1242.25H1860.69C1861.84 1240.31 1864.03 1239.16 1866.5 1239.16C1870.56 1239.16 1873.69 1242.22 1873.69 1246.5C1873.69 1251 1870.34 1254.34 1865.34 1254.31ZM1865.34 1251.03C1867.88 1251.03 1869.75 1249.06 1869.75 1246.59C1869.75 1244.19 1867.91 1242.25 1865.41 1242.25C1862.88 1242.25 1860.94 1244.25 1860.91 1246.62C1860.94 1249 1862.78 1251.03 1865.34 1251.03Z" fill="black"/>
<path d="M1845.09 1254.31C1840.69 1254.28 1836.25 1251.66 1836.28 1243.31C1836.28 1235.56 1839.81 1231.06 1845.34 1231.06C1849.72 1231.06 1852.72 1233.81 1853.22 1237.47H1849.19C1848.78 1235.75 1847.41 1234.59 1845.34 1234.59C1842.06 1234.59 1840.22 1237.5 1840.22 1242.25H1840.44C1841.59 1240.31 1843.78 1239.16 1846.25 1239.16C1850.31 1239.16 1853.44 1242.22 1853.44 1246.5C1853.44 1251 1850.09 1254.34 1845.09 1254.31ZM1845.09 1251.03C1847.63 1251.03 1849.5 1249.06 1849.5 1246.59C1849.5 1244.19 1847.66 1242.25 1845.16 1242.25C1842.63 1242.25 1840.69 1244.25 1840.66 1246.62C1840.69 1249 1842.53 1251.03 1845.09 1251.03Z" fill="black"/>
<path d="M1824.91 1254.31C1820.38 1254.31 1817.06 1251.62 1816.94 1247.88H1820.91C1821.03 1249.72 1822.75 1251.03 1824.91 1251.03C1827.44 1251.03 1829.25 1249.19 1829.25 1246.69C1829.25 1244.09 1827.38 1242.25 1824.78 1242.25C1823.03 1242.22 1821.75 1242.84 1821.03 1244.19H1817.25L1818.62 1231.38H1832V1234.78H1821.97L1821.28 1240.78H1821.5C1822.38 1239.78 1824.03 1239.06 1825.88 1239.06C1830.09 1239.06 1833.19 1242.22 1833.19 1246.56C1833.19 1251.09 1829.78 1254.31 1824.91 1254.31Z" fill="black"/>
</g>
</g>
</svg>
