<svg width="1961" height="1424" viewBox="0 0 1961 1424" fill="none" xmlns="http://www.w3.org/2000/svg">
<g id="cheongsong_hall_floor_4">
<g id="Vector">
<path d="M513.5 611V502H575.5V345.5H675H939V402.5H1026L1154.5 530V611.5H1205.5V882H1082V993H1022V1147H927H661.5V1090.5H576.5L449.5 962V882H398.5V611H513.5Z" fill="#474747"/>
<path d="M1082 993H1957.5V1302.5H1136V1337.5H996V1421H869.5V1362H769V1211H927V1147H1022V993H1082Z" fill="#999999"/>
<path d="M513.5 502H25V346.5H3V217H418V177.5H627.5V163H611V3H934.5V179H850.5V315H675V345.5H575.5V502H513.5Z" fill="#999999"/>
<path d="M1079 990H1019V1144H664.5V1087.5H577.753L452.5 960.769V879H401.5V614H516.5V505H578.5V348.5H936V405.5H1024.76L1151.5 531.251V614.5H1202.5V879H1079V990ZM28 343.5H6V220H421V180.5H630.5V160H614V6H931.5V176H847.5V312H672V342.5H572.5V499H28V343.5ZM872.5 1359H772V1214H930V1150H1025V996H1954.5V1299.5H1133V1334.5H993V1418H872.5V1359ZM1085 885H1208.5V608.5H1157.5V528.75L1027.24 399.5H942V342.5H678V318H853.5V182H937.5V0H608V166H624.5V174.5H415V214H0V349.5H22V505H510.5V608H395.5V885H446.5V963.232L575.247 1093.5H658.5V1150H924V1208H766V1365H866.5V1424H999V1340.5H1139V1305.5H1960.5V990H1085V885Z" fill="black"/>
</g>
<g id="void">
<path d="M401 871C401 875.418 404.582 879 409 879H621.663C623.798 879 625.845 878.146 627.348 876.628L721.685 781.338C723.168 779.84 724 777.818 724 775.71V717.267C724 715.173 723.179 713.162 721.713 711.667L627.352 615.4C625.848 613.865 623.789 613 621.639 613H409C404.582 613 401 616.582 401 621V871Z" fill="#474747"/>
<path d="M401 621V871C401 875.418 404.582 879 409 879H621.663L622.062 878.99C624.052 878.891 625.939 878.051 627.348 876.628L721.685 781.338C723.168 779.84 724 777.818 724 775.71V717.267L723.99 716.875C723.895 714.923 723.087 713.069 721.713 711.667L627.352 615.4L627.064 615.12C625.689 613.851 623.911 613.104 622.041 613.01L621.639 613L621.64 616C622.983 616 624.27 616.541 625.21 617.5L719.57 713.767C720.486 714.701 721 715.958 721 717.267V775.71C721 777.027 720.48 778.291 719.554 779.228L625.216 874.518C624.277 875.466 622.998 876 621.663 876H409C406.239 876 404 873.761 404 871V621C404 618.239 406.239 616 409 616L409 613L408.588 613.011C404.361 613.225 401 616.72 401 621ZM621.64 616L621.639 613H409L409 616H621.64Z" fill="#2E2F33" fill-opacity="0.88"/>
</g>
<g id="void_2">
<path d="M922 1144C926.418 1144 930 1140.42 930 1136V923.337C930 921.202 929.146 919.155 927.628 917.652L832.338 823.315C830.84 821.832 828.818 821 826.71 821H768.267C766.173 821 764.162 821.821 762.667 823.287L666.4 917.648C664.865 919.152 664 921.211 664 923.361V1136C664 1140.42 667.582 1144 672 1144H922Z" fill="#474747"/>
<path d="M672 1144H922C926.418 1144 930 1140.42 930 1136V923.337L929.99 922.938C929.891 920.948 929.051 919.061 927.628 917.652L832.338 823.315C830.84 821.832 828.818 821 826.71 821H768.267L767.875 821.01C765.923 821.105 764.069 821.913 762.667 823.287L666.4 917.648L666.12 917.936C664.851 919.311 664.104 921.089 664.01 922.959L664 923.361L667 923.36C667 922.017 667.541 920.73 668.5 919.79L764.767 825.43C765.701 824.514 766.958 824 768.267 824H826.71C828.027 824 829.291 824.52 830.228 825.446L925.518 919.784C926.466 920.723 927 922.002 927 923.337V1136C927 1138.76 924.761 1141 922 1141H672C669.239 1141 667 1138.76 667 1136H664L664.011 1136.41C664.225 1140.64 667.72 1144 672 1144ZM667 923.36L664 923.361V1136H667V923.36Z" fill="#2E2F33" fill-opacity="0.88"/>
</g>
<g id="void_3">
<path d="M1203 622C1203 617.582 1199.42 614 1195 614H982.337C980.202 614 978.155 614.854 976.652 616.372L882.315 711.662C880.832 713.16 880 715.182 880 717.29V775.733C880 777.827 880.821 779.838 882.287 781.333L976.648 877.6C978.152 879.135 980.211 880 982.361 880H1195C1199.42 880 1203 876.418 1203 872V622Z" fill="#474747"/>
<path d="M1203 872V622C1203 617.582 1199.42 614 1195 614H982.337L981.938 614.01C979.948 614.109 978.061 614.949 976.652 616.372L882.315 711.662C880.832 713.16 880 715.182 880 717.29V775.733L880.01 776.125C880.105 778.077 880.913 779.931 882.287 781.333L976.648 877.6L976.936 877.88C978.311 879.149 980.089 879.896 981.959 879.99L982.361 880L982.36 877C981.017 877 979.73 876.459 978.79 875.5L884.43 779.233C883.514 778.299 883 777.042 883 775.733V717.29C883 715.973 883.52 714.709 884.446 713.772L978.784 618.482C979.723 617.534 981.002 617 982.337 617H1195C1197.76 617 1200 619.239 1200 622V872C1200 874.761 1197.76 877 1195 877V880L1195.41 879.989C1199.64 879.775 1203 876.28 1203 872ZM982.36 877L982.361 880H1195V877H982.36Z" fill="#2E2F33" fill-opacity="0.88"/>
</g>
<g id="void_4">
<path d="M678 348C673.582 348 670 351.582 670 356V568.663C670 570.798 670.854 572.845 672.372 574.348L767.662 668.685C769.16 670.168 771.182 671 773.29 671H831.733C833.827 671 835.838 670.179 837.333 668.713L933.6 574.352C935.135 572.848 936 570.789 936 568.639V356C936 351.582 932.418 348 928 348H678Z" fill="#474747"/>
<path d="M928 348H678C673.582 348 670 351.582 670 356V568.663L670.01 569.062C670.109 571.052 670.949 572.939 672.372 574.348L767.662 668.685C769.16 670.168 771.182 671 773.29 671H831.733L832.125 670.99C834.077 670.895 835.931 670.087 837.333 668.713L933.6 574.352L933.88 574.064C935.149 572.689 935.896 570.911 935.99 569.041L936 568.639L933 568.64C933 569.983 932.459 571.27 931.5 572.21L835.233 666.57C834.299 667.486 833.042 668 831.733 668H773.29C771.973 668 770.709 667.48 769.772 666.554L674.482 572.216C673.534 571.277 673 569.998 673 568.663V356C673 353.239 675.239 351 678 351H928C930.761 351 933 353.239 933 356L936 356L935.989 355.588C935.775 351.361 932.28 348 928 348ZM933 568.64L936 568.639V356L933 356V568.64Z" fill="#2E2F33" fill-opacity="0.88"/>
</g>
<g id="void_5">
<path d="M839.976 662.901C836.852 666.025 836.852 671.09 839.976 674.214L876.108 710.346C879.232 713.47 884.297 713.47 887.421 710.346L979.056 618.711C980.556 617.211 982.591 616.368 984.713 616.368H1145.5C1149.92 616.368 1153.5 612.786 1153.5 608.368L1153.5 531.839C1153.5 529.701 1152.65 527.652 1151.13 526.149L1027.84 404.308C1026.34 402.828 1024.32 401.998 1022.22 401.998L941.951 401.998C937.533 401.998 933.951 405.58 933.951 409.998L933.954 565.609C933.954 567.731 933.111 569.766 931.611 571.266L839.976 662.901Z" fill="#474747"/>
<path d="M976.935 616.59L885.3 708.225C883.348 710.178 880.182 710.177 878.229 708.225L842.098 672.093C840.145 670.141 840.145 666.975 842.098 665.022L933.732 573.388C935.795 571.325 936.953 568.526 936.953 565.609L936.951 409.998C936.951 407.237 939.19 404.999 941.951 404.998L1022.22 404.998C1023.53 404.998 1024.8 405.517 1025.73 406.442L1149.02 528.284L1151.13 526.149L1027.84 404.308C1026.44 402.921 1024.57 402.104 1022.61 402.008L1022.22 401.998L941.951 401.998C937.671 401.998 934.176 405.359 933.961 409.586L933.951 409.998L933.954 565.609C933.954 567.598 933.213 569.512 931.884 570.979L931.611 571.266L839.976 662.901C836.949 665.927 836.855 670.775 839.692 673.916L839.976 674.214L876.108 710.346L876.406 710.629C879.546 713.467 884.395 713.373 887.421 710.346L979.056 618.711L979.344 618.438C980.811 617.109 982.724 616.368 984.713 616.368H1145.5C1149.92 616.368 1153.5 612.786 1153.5 608.368L1153.5 531.839L1153.49 531.44C1153.39 529.448 1152.55 527.558 1151.13 526.149L1149.02 528.284C1149.97 529.223 1150.5 530.503 1150.5 531.839V608.368C1150.5 611.13 1148.27 613.368 1145.5 613.368H984.713C981.795 613.368 978.998 614.527 976.935 616.59Z" fill="#2E2F33" fill-opacity="0.88"/>
</g>
<g id="void_6">
<path d="M718.277 783.28C721.421 780.103 726.559 780.12 729.683 783.317L761.425 815.797C764.506 818.949 764.457 823.999 761.315 827.091L669.286 917.648C667.757 919.152 666.897 921.206 666.897 923.351L666.897 1082.07C666.897 1086.49 663.315 1090.07 658.897 1090.07L582.368 1090.07C580.23 1090.07 578.181 1089.21 576.678 1087.69L454.836 964.408C453.356 962.91 452.526 960.89 452.526 958.785L452.523 885.499C452.523 881.081 456.105 877.499 460.523 877.499L621.661 877.499C623.797 877.499 625.844 876.645 627.347 875.127L718.277 783.28Z" fill="#474747"/>
<path d="M761.425 815.797C764.506 818.949 764.457 823.999 761.315 827.091L669.286 917.648L669.007 917.936C667.653 919.409 666.897 921.34 666.897 923.351L666.897 1082.07C666.897 1086.49 663.315 1090.07 658.897 1090.07L582.368 1090.07C580.23 1090.07 578.181 1089.21 576.678 1087.69L578.812 1085.58C579.751 1086.54 581.032 1087.07 582.368 1087.07H658.897C661.658 1087.07 663.897 1084.83 663.897 1082.07L663.897 923.351C663.897 920.403 665.08 917.578 667.181 915.51L759.211 824.953C761.174 823.02 761.205 819.864 759.28 817.894L727.538 785.414C725.585 783.416 722.374 783.405 720.408 785.391L629.478 877.238C627.412 879.325 624.598 880.498 621.661 880.498L460.523 880.499C457.762 880.499 455.523 882.738 455.523 885.499L455.527 958.785C455.527 960.101 456.046 961.363 456.97 962.299L578.812 1085.58L576.678 1087.69L454.836 964.408C453.449 963.004 452.633 961.141 452.536 959.179L452.526 958.785L452.523 885.499C452.523 881.219 455.885 877.723 460.112 877.509L460.523 877.499L621.661 877.499C623.664 877.499 625.588 876.748 627.059 875.404L627.347 875.127L718.277 783.28C721.421 780.103 726.559 780.12 729.683 783.317L761.425 815.797Z" fill="#2E2F33" fill-opacity="0.88"/>
</g>
<g id="cheongsong_hall_4f_stairs_left">
<path d="M27 491C27 495.418 30.5817 499 35 499H92C96.4183 499 100 495.418 100 491V355C100 350.582 96.4183 347 92 347H35C30.5817 347 27 350.582 27 355V491Z" fill="#D9FFE6"/>
<path d="M92 350V347H35V350H92ZM97 355V491C97 493.761 94.7614 496 92 496H35C32.2386 496 30 493.761 30 491V355C30 352.239 32.2386 350 35 350V347C30.5817 347 27 350.582 27 355V491C27 495.418 30.5817 499 35 499H92C96.4183 499 100 495.418 100 491V355C100 350.582 96.4183 347 92 347V350C94.7614 350 97 352.239 97 355Z" fill="#2E2F33" fill-opacity="0.88"/>
<path d="M79.96 405.423C79.261 405.165 78.485 405.525 78.227 406.224L75.72 413.037H61.521L63.87 407.193C64.148 406.501 63.813 405.714 63.121 405.436C62.429 405.158 61.643 405.495 61.365 406.185L48.288 438.721C48.01 439.413 48.345 440.2 49.037 440.478C49.202 440.544 49.372 440.576 49.54 440.576C50.075 440.576 50.582 440.256 50.793 439.729L53.479 433.047C53.537 433.055 53.588 433.081 53.648 433.081H68.346L66.257 438.76C66 439.459 66.358 440.236 67.058 440.492C67.212 440.549 67.37 440.576 67.524 440.576C68.073 440.576 68.59 440.237 68.791 439.691L80.761 407.155C81.018 406.456 80.66 405.679 79.96 405.423ZM60.716 415.736H74.726L72.566 421.607H58.076L60.457 415.684C60.544 415.701 60.624 415.736 60.716 415.736ZM54.55 430.381L57.007 424.269C57.071 424.278 57.129 424.307 57.196 424.307H71.574L69.339 430.381H54.55Z" fill="#6E4944"/>
</g>
<g id="cheongsong_hall_4f_stairs_right">
<path d="M1492 1292C1492 1296.42 1495.58 1300 1500 1300H1571C1575.42 1300 1579 1296.42 1579 1292V1193C1579 1188.58 1575.42 1185 1571 1185H1500C1495.58 1185 1492 1188.58 1492 1193V1292Z" fill="#D9FFE6"/>
<path d="M1571 1188V1185H1500L1500 1188H1571ZM1576 1193V1292C1576 1294.76 1573.76 1297 1571 1297H1500C1497.24 1297 1495 1294.76 1495 1292V1193C1495 1190.24 1497.24 1188 1500 1188L1500 1185C1495.58 1185 1492 1188.58 1492 1193V1292C1492 1296.42 1495.58 1300 1500 1300H1571C1575.42 1300 1579 1296.42 1579 1292V1193C1579 1188.58 1575.42 1185 1571 1185V1188C1573.76 1188 1576 1190.24 1576 1193Z" fill="#2E2F33" fill-opacity="0.88"/>
<path d="M1551.96 1224.42C1551.26 1224.17 1550.49 1224.52 1550.23 1225.22L1547.72 1232.04H1533.52L1535.87 1226.19C1536.15 1225.5 1535.81 1224.71 1535.12 1224.44C1534.43 1224.16 1533.64 1224.5 1533.36 1225.19L1520.29 1257.72C1520.01 1258.41 1520.35 1259.2 1521.04 1259.48C1521.2 1259.54 1521.37 1259.58 1521.54 1259.58C1522.08 1259.58 1522.58 1259.26 1522.79 1258.73L1525.48 1252.05C1525.54 1252.06 1525.59 1252.08 1525.65 1252.08H1540.35L1538.26 1257.76C1538 1258.46 1538.36 1259.24 1539.06 1259.49C1539.21 1259.55 1539.37 1259.58 1539.52 1259.58C1540.07 1259.58 1540.59 1259.24 1540.79 1258.69L1552.76 1226.15C1553.02 1225.46 1552.66 1224.68 1551.96 1224.42ZM1532.72 1234.74H1546.73L1544.57 1240.61H1530.08L1532.46 1234.68C1532.54 1234.7 1532.62 1234.74 1532.72 1234.74ZM1526.55 1249.38L1529.01 1243.27C1529.07 1243.28 1529.13 1243.31 1529.2 1243.31H1543.57L1541.34 1249.38H1526.55Z" fill="#6E4944"/>
</g>
<g id="cheongsong_hall_408">
<path d="M98 491C98 495.418 101.582 499 106 499H283C287.418 499 291 495.418 291 491V355C291 350.582 287.418 347 283 347H106C101.582 347 98 350.582 98 355V491Z" fill="#F7FBFF"/>
<path d="M283 350V347H106L106 350H283ZM288 355V491C288 493.761 285.761 496 283 496H106C103.239 496 101 493.761 101 491V355C101 352.239 103.239 350 106 350L106 347C101.582 347 98 350.582 98 355V491C98 495.418 101.582 499 106 499H283C287.418 499 291 495.418 291 491V355C291 350.582 287.418 347 283 347V350C285.761 350 288 352.239 288 355Z" fill="#2E2F33" fill-opacity="0.88"/>
<path d="M214.188 434.312C209.156 434.312 205.594 431.625 205.594 427.938C205.594 425.062 207.719 422.719 210.438 422.281V422.156C208.062 421.656 206.438 419.594 206.438 417.125C206.438 413.625 209.719 411.062 214.188 411.062C218.625 411.062 221.906 413.625 221.906 417.125C221.906 419.594 220.25 421.656 217.906 422.156V422.281C220.625 422.719 222.781 425.062 222.781 427.938C222.781 431.625 219.188 434.312 214.188 434.312ZM214.188 431.094C216.844 431.094 218.594 429.656 218.594 427.562C218.594 425.438 216.719 423.875 214.188 423.875C211.625 423.875 209.75 425.438 209.781 427.562C209.75 429.656 211.5 431.094 214.188 431.094ZM214.188 420.844C216.375 420.844 217.938 419.469 217.938 417.5C217.938 415.594 216.406 414.25 214.188 414.25C211.938 414.25 210.406 415.562 210.406 417.5C210.406 419.469 211.969 420.844 214.188 420.844Z" fill="black"/>
<path d="M193.875 434.312C188.438 434.312 185.188 430.094 185.188 422.688C185.188 415.312 188.438 411.062 193.875 411.062C199.281 411.062 202.562 415.312 202.562 422.688C202.562 430.094 199.312 434.312 193.875 434.312ZM193.875 430.906C196.719 430.906 198.469 428.125 198.469 422.688C198.469 417.281 196.688 414.438 193.875 414.438C191.062 414.438 189.281 417.281 189.281 422.688C189.281 428.125 191.031 430.906 193.875 430.906Z" fill="black"/>
<path d="M164.469 429.781V426.531L174.25 411.375H179.312V426.438H182.281V429.781H179.312V434H175.438V429.781H164.469ZM168.625 426.438H175.5V416H175.25L168.625 426.281V426.438Z" fill="black"/>
</g>
<g id="cheongsong_hall_411">
<path d="M6 301C6 305.418 9.58172 309 14 309H208C212.418 309 216 305.418 216 301V228C216 223.582 212.418 220 208 220H14C9.58172 220 6 223.582 6 228V301Z" fill="#F7FBFF"/>
<path d="M208 223V220H14L14 223H208ZM213 228V301C213 303.761 210.761 306 208 306H14C11.2386 306 9 303.761 9 301V228C9 225.239 11.2386 223 14 223L14 220L13.5879 220.011C9.36114 220.225 6 223.72 6 228V301C6 305.418 9.58172 309 14 309H208C212.418 309 216 305.418 216 301V228C216 223.582 212.418 220 208 220V223C210.761 223 213 225.239 213 228Z" fill="#2E2F33" fill-opacity="0.88"/>
<path d="M132.094 252.375V275H128V256.344H127.875L122.594 259.719V256L128.188 252.375H132.094Z" fill="black"/>
<path d="M117.406 252.375V275H113.312V256.344H113.188L107.906 259.719V256L113.5 252.375H117.406Z" fill="black"/>
<path d="M87.4688 270.781V267.531L97.25 252.375H102.312V267.438H105.281V270.781H102.312V275H98.4375V270.781H87.4688ZM91.625 267.438H98.5V257H98.25L91.625 267.281V267.438Z" fill="black"/>
</g>
<g id="cheongsong_hall_414">
<path d="M214 301C214 305.418 217.582 309 222 309H415C419.418 309 423 305.418 423 301V228C423 223.582 419.418 220 415 220H222C217.582 220 214 223.582 214 228V301Z" fill="#F7FBFF"/>
<path d="M415 223V220H222L222 223H415ZM420 228V301C420 303.761 417.761 306 415 306H222C219.239 306 217 303.761 217 301V228C217 225.239 219.239 223 222 223L222 220L221.588 220.011C217.361 220.225 214 223.72 214 228V301C214 305.28 217.361 308.775 221.588 308.989L222 309H415C419.418 309 423 305.418 423 301V228C423 223.582 419.418 220 415 220V223C417.761 223 420 225.239 420 228Z" fill="#2E2F33" fill-opacity="0.88"/>
<path d="M327.5 270.781V267.531L337.281 252.375H342.344V267.438H345.312V270.781H342.344V275H338.469V270.781H327.5ZM331.656 267.438H338.531V257H338.281L331.656 267.281V267.438Z" fill="black"/>
<path d="M322.406 252.375V275H318.312V256.344H318.188L312.906 259.719V256L318.5 252.375H322.406Z" fill="black"/>
<path d="M292.469 270.781V267.531L302.25 252.375H307.312V267.438H310.281V270.781H307.312V275H303.438V270.781H292.469ZM296.625 267.438H303.5V257H303.25L296.625 267.281V267.438Z" fill="black"/>
</g>
<g id="cheongsong_hall_405">
<path d="M288 491C288 495.418 291.582 499 296 499H464C468.418 499 472 495.418 472 491V355C472 350.582 468.418 347 464 347H296C291.582 347 288 350.582 288 355V491Z" fill="#F7FBFF"/>
<path d="M464 350V347H296L296 350H464ZM469 355V491C469 493.761 466.761 496 464 496H296C293.239 496 291 493.761 291 491V355C291 352.239 293.239 350 296 350L296 347L295.588 347.011C291.361 347.225 288 350.72 288 355V491C288 495.418 291.582 499 296 499H464C468.418 499 472 495.418 472 491V355C472 350.582 468.418 347 464 347V350C466.761 350 469 352.239 469 355Z" fill="#2E2F33" fill-opacity="0.88"/>
<path d="M400 434.312C395.469 434.312 392.156 431.625 392.031 427.875H396C396.125 429.719 397.844 431.031 400 431.031C402.531 431.031 404.344 429.188 404.344 426.688C404.344 424.094 402.469 422.25 399.875 422.25C398.125 422.219 396.844 422.844 396.125 424.188H392.344L393.719 411.375H407.094V414.781H397.062L396.375 420.781H396.594C397.469 419.781 399.125 419.062 400.969 419.062C405.188 419.062 408.281 422.219 408.281 426.562C408.281 431.094 404.875 434.312 400 434.312Z" fill="black"/>
<path d="M379.875 434.312C374.438 434.312 371.188 430.094 371.188 422.688C371.188 415.312 374.438 411.062 379.875 411.062C385.281 411.062 388.562 415.312 388.562 422.688C388.562 430.094 385.312 434.312 379.875 434.312ZM379.875 430.906C382.719 430.906 384.469 428.125 384.469 422.688C384.469 417.281 382.688 414.438 379.875 414.438C377.062 414.438 375.281 417.281 375.281 422.688C375.281 428.125 377.031 430.906 379.875 430.906Z" fill="black"/>
<path d="M350.469 429.781V426.531L360.25 411.375H365.312V426.438H368.281V429.781H365.312V434H361.438V429.781H350.469ZM354.625 426.438H361.5V416H361.25L354.625 426.281V426.438Z" fill="black"/>
</g>
<g id="cheongsong_hall_457">
<path d="M992 1327C992 1331.42 995.582 1335 1000 1335H1125C1129.42 1335 1133 1331.42 1133 1327V1193C1133 1188.58 1129.42 1185 1125 1185H1000C995.582 1185 992 1188.58 992 1193V1327Z" fill="#F7FBFF"/>
<path d="M1125 1188V1185H1000L1000 1188H1125ZM1130 1193V1327C1130 1329.76 1127.76 1332 1125 1332H1000C997.239 1332 995 1329.76 995 1327V1193C995 1190.24 997.239 1188 1000 1188L1000 1185C995.582 1185 992 1188.58 992 1193V1327C992 1331.28 995.361 1334.77 999.588 1334.99L1000 1335H1125C1129.42 1335 1133 1331.42 1133 1327V1193C1133 1188.58 1129.42 1185 1125 1185V1188C1127.76 1188 1130 1190.24 1130 1193Z" fill="#2E2F33" fill-opacity="0.88"/>
<path d="M1076.12 1271L1085.94 1251.94V1251.78H1074.56V1248.38H1090.16V1251.84L1080.34 1271H1076.12Z" fill="black"/>
<path d="M1063.56 1271.31C1059.03 1271.31 1055.72 1268.62 1055.59 1264.88H1059.56C1059.69 1266.72 1061.41 1268.03 1063.56 1268.03C1066.09 1268.03 1067.91 1266.19 1067.91 1263.69C1067.91 1261.09 1066.03 1259.25 1063.44 1259.25C1061.69 1259.22 1060.41 1259.84 1059.69 1261.19H1055.91L1057.28 1248.38H1070.66V1251.78H1060.62L1059.94 1257.78H1060.16C1061.03 1256.78 1062.69 1256.06 1064.53 1256.06C1068.75 1256.06 1071.84 1259.22 1071.84 1263.56C1071.84 1268.09 1068.44 1271.31 1063.56 1271.31Z" fill="black"/>
<path d="M1034.47 1266.78V1263.53L1044.25 1248.38H1049.31V1263.44H1052.28V1266.78H1049.31V1271H1045.44V1266.78H1034.47ZM1038.62 1263.44H1045.5V1253H1045.25L1038.62 1263.28V1263.44Z" fill="black"/>
</g>
<g id="cheongsong_hall_459">
<path d="M1130 1292C1130 1296.42 1133.58 1300 1138 1300H1199C1203.42 1300 1207 1296.42 1207 1292V1193C1207 1188.58 1203.42 1185 1199 1185H1138C1133.58 1185 1130 1188.58 1130 1193V1292Z" fill="#F7FBFF"/>
<path d="M1199 1188V1185H1138L1138 1188H1199ZM1204 1193V1292C1204 1294.76 1201.76 1297 1199 1297H1138C1135.24 1297 1133 1294.76 1133 1292V1193C1133 1190.24 1135.24 1188 1138 1188L1138 1185L1137.59 1185.01C1133.36 1185.23 1130 1188.72 1130 1193V1292C1130 1296.42 1133.58 1300 1138 1300H1199C1203.42 1300 1207 1296.42 1207 1292V1193C1207 1188.58 1203.42 1185 1199 1185V1188C1201.76 1188 1204 1190.24 1204 1193Z" fill="#2E2F33" fill-opacity="0.88"/>
<path d="M1188.31 1230.06C1192.75 1230.09 1197.12 1232.72 1197.16 1241C1197.16 1248.81 1193.62 1253.31 1188.06 1253.31C1183.69 1253.31 1180.69 1250.59 1180.19 1246.84H1184.22C1184.62 1248.62 1186 1249.78 1188.06 1249.78C1191.34 1249.78 1193.19 1246.87 1193.22 1242.03H1192.97C1191.81 1244 1189.66 1245.16 1187.16 1245.16C1183.12 1245.16 1180 1242.09 1179.97 1237.81C1179.97 1233.37 1183.28 1230.03 1188.31 1230.06ZM1188.34 1233.34C1185.81 1233.34 1183.91 1235.31 1183.94 1237.72C1183.94 1240.16 1185.75 1242.06 1188.28 1242.06C1190.78 1242.06 1192.75 1240.03 1192.72 1237.69C1192.72 1235.37 1190.88 1233.34 1188.34 1233.34Z" fill="black"/>
<path d="M1168.56 1253.31C1164.03 1253.31 1160.72 1250.62 1160.59 1246.88H1164.56C1164.69 1248.72 1166.41 1250.03 1168.56 1250.03C1171.09 1250.03 1172.91 1248.19 1172.91 1245.69C1172.91 1243.09 1171.03 1241.25 1168.44 1241.25C1166.69 1241.22 1165.41 1241.84 1164.69 1243.19H1160.91L1162.28 1230.38H1175.66V1233.78H1165.62L1164.94 1239.78H1165.16C1166.03 1238.78 1167.69 1238.06 1169.53 1238.06C1173.75 1238.06 1176.84 1241.22 1176.84 1245.56C1176.84 1250.09 1173.44 1253.31 1168.56 1253.31Z" fill="black"/>
<path d="M1139.47 1248.78V1245.53L1149.25 1230.38H1154.31V1245.44H1157.28V1248.78H1154.31V1253H1150.44V1248.78H1139.47ZM1143.62 1245.44H1150.5V1235H1150.25L1143.62 1245.28V1245.44Z" fill="black"/>
</g>
<g id="cheongsong_hall_477">
<path d="M1125 1138C1125 1142.42 1128.58 1146 1133 1146H1341C1345.42 1146 1349 1142.42 1349 1138V1004C1349 999.582 1345.42 996 1341 996H1133C1128.58 996 1125 999.582 1125 1004V1138Z" fill="#F7FBFF"/>
<path d="M1341 999V996H1133L1133 999H1341ZM1346 1004V1138C1346 1140.76 1343.76 1143 1341 1143H1133C1130.24 1143 1128 1140.76 1128 1138V1004C1128 1001.24 1130.24 999 1133 999L1133 996L1132.59 996.011C1128.36 996.225 1125 999.72 1125 1004V1138C1125 1142.42 1128.58 1146 1133 1146H1341C1345.42 1146 1349 1142.42 1349 1138V1004C1349 999.582 1345.42 996 1341 996V999C1343.76 999 1346 1001.24 1346 1004Z" fill="#2E2F33" fill-opacity="0.88"/>
<path d="M1250.16 1082L1259.97 1062.94V1062.78H1248.59V1059.38H1264.19V1062.84L1254.38 1082H1250.16Z" fill="black"/>
<path d="M1231.38 1082L1241.19 1062.94V1062.78H1229.81V1059.38H1245.41V1062.84L1235.59 1082H1231.38Z" fill="black"/>
<path d="M1209.47 1077.78V1074.53L1219.25 1059.38H1224.31V1074.44H1227.28V1077.78H1224.31V1082H1220.44V1077.78H1209.47ZM1213.62 1074.44H1220.5V1064H1220.25L1213.62 1074.28V1074.44Z" fill="black"/>
</g>
<g id="cheongsong_hall_460">
<path d="M1205 1292C1205 1296.42 1208.58 1300 1213 1300H1267C1271.42 1300 1275 1296.42 1275 1292V1193C1275 1188.58 1271.42 1185 1267 1185H1213C1208.58 1185 1205 1188.58 1205 1193V1292Z" fill="#F7FBFF"/>
<path d="M1267 1188V1185H1213L1213 1188H1267ZM1272 1193V1292C1272 1294.76 1269.76 1297 1267 1297H1213C1210.24 1297 1208 1294.76 1208 1292V1193C1208 1190.24 1210.24 1188 1213 1188L1213 1185L1212.59 1185.01C1208.36 1185.23 1205 1188.72 1205 1193V1292C1205 1296.42 1208.58 1300 1213 1300H1267C1271.42 1300 1275 1296.42 1275 1292V1193C1275 1188.58 1271.42 1185 1267 1185V1188C1269.76 1188 1272 1190.24 1272 1193Z" fill="#2E2F33" fill-opacity="0.88"/>
<path d="M1260.12 1253.31C1254.69 1253.31 1251.44 1249.09 1251.44 1241.69C1251.44 1234.31 1254.69 1230.06 1260.12 1230.06C1265.53 1230.06 1268.81 1234.31 1268.81 1241.69C1268.81 1249.09 1265.56 1253.31 1260.12 1253.31ZM1260.12 1249.91C1262.97 1249.91 1264.72 1247.12 1264.72 1241.69C1264.72 1236.28 1262.94 1233.44 1260.12 1233.44C1257.31 1233.44 1255.53 1236.28 1255.53 1241.69C1255.53 1247.12 1257.28 1249.91 1260.12 1249.91Z" fill="black"/>
<path d="M1240 1253.31C1235.59 1253.28 1231.16 1250.66 1231.19 1242.31C1231.19 1234.56 1234.72 1230.06 1240.25 1230.06C1244.63 1230.06 1247.63 1232.81 1248.13 1236.47H1244.09C1243.69 1234.75 1242.31 1233.59 1240.25 1233.59C1236.97 1233.59 1235.13 1236.5 1235.13 1241.25H1235.34C1236.5 1239.31 1238.69 1238.16 1241.16 1238.16C1245.22 1238.16 1248.34 1241.22 1248.34 1245.5C1248.34 1250 1245 1253.34 1240 1253.31ZM1240 1250.03C1242.53 1250.03 1244.41 1248.06 1244.41 1245.59C1244.41 1243.19 1242.56 1241.25 1240.06 1241.25C1237.53 1241.25 1235.59 1243.25 1235.56 1245.62C1235.59 1248 1237.44 1250.03 1240 1250.03Z" fill="black"/>
<path d="M1210.47 1248.78V1245.53L1220.25 1230.38H1225.31V1245.44H1228.28V1248.78H1225.31V1253H1221.44V1248.78H1210.47ZM1214.62 1245.44H1221.5V1235H1221.25L1214.62 1245.28V1245.44Z" fill="black"/>
</g>
<g id="cheongsong_hall_461">
<path d="M1273 1292C1273 1296.42 1276.58 1300 1281 1300H1341C1345.42 1300 1349 1296.42 1349 1292V1193C1349 1188.58 1345.42 1185 1341 1185H1281C1276.58 1185 1273 1188.58 1273 1193V1292Z" fill="#F7FBFF"/>
<path d="M1341 1188V1185H1281L1281 1188H1341ZM1346 1193V1292C1346 1294.76 1343.76 1297 1341 1297H1281C1278.24 1297 1276 1294.76 1276 1292V1193C1276 1190.24 1278.24 1188 1281 1188L1281 1185C1276.58 1185 1273 1188.58 1273 1193V1292C1273 1296.42 1276.58 1300 1281 1300H1341C1345.42 1300 1349 1296.42 1349 1292V1193C1349 1188.58 1345.42 1185 1341 1185V1188C1343.76 1188 1346 1190.24 1346 1193Z" fill="#2E2F33" fill-opacity="0.88"/>
<path d="M1334.97 1230.38V1253H1330.88V1234.34H1330.75L1325.47 1237.72V1234L1331.06 1230.38H1334.97Z" fill="black"/>
<path d="M1314 1253.31C1309.59 1253.28 1305.16 1250.66 1305.19 1242.31C1305.19 1234.56 1308.72 1230.06 1314.25 1230.06C1318.63 1230.06 1321.63 1232.81 1322.13 1236.47H1318.09C1317.69 1234.75 1316.31 1233.59 1314.25 1233.59C1310.97 1233.59 1309.13 1236.5 1309.13 1241.25H1309.34C1310.5 1239.31 1312.69 1238.16 1315.16 1238.16C1319.22 1238.16 1322.34 1241.22 1322.34 1245.5C1322.34 1250 1319 1253.34 1314 1253.31ZM1314 1250.03C1316.53 1250.03 1318.41 1248.06 1318.41 1245.59C1318.41 1243.19 1316.56 1241.25 1314.06 1241.25C1311.53 1241.25 1309.59 1243.25 1309.56 1245.62C1309.59 1248 1311.44 1250.03 1314 1250.03Z" fill="black"/>
<path d="M1284.47 1248.78V1245.53L1294.25 1230.38H1299.31V1245.44H1302.28V1248.78H1299.31V1253H1295.44V1248.78H1284.47ZM1288.62 1245.44H1295.5V1235H1295.25L1288.62 1245.28V1245.44Z" fill="black"/>
</g>
<g id="cheongsong_hall_462">
<path d="M1346 1292C1346 1296.42 1349.58 1300 1354 1300H1414C1418.42 1300 1422 1296.42 1422 1292V1193C1422 1188.58 1418.42 1185 1414 1185H1354C1349.58 1185 1346 1188.58 1346 1193V1292Z" fill="#F7FBFF"/>
<path d="M1414 1188V1185H1354L1354 1188H1414ZM1419 1193V1292C1419 1294.76 1416.76 1297 1414 1297H1354C1351.24 1297 1349 1294.76 1349 1292V1193C1349 1190.24 1351.24 1188 1354 1188L1354 1185C1349.58 1185 1346 1188.58 1346 1193V1292C1346 1296.42 1349.58 1300 1354 1300H1414C1418.42 1300 1422 1296.42 1422 1292V1193C1422 1188.58 1418.42 1185 1414 1185V1188C1416.76 1188 1419 1190.24 1419 1193Z" fill="#2E2F33" fill-opacity="0.88"/>
<path d="M1396.78 1253V1250.06L1404.78 1242.34C1407.06 1240.06 1408.25 1238.72 1408.25 1236.81C1408.25 1234.72 1406.59 1233.38 1404.37 1233.38C1402.03 1233.38 1400.53 1234.84 1400.56 1237.12H1396.69C1396.66 1232.84 1399.87 1230.06 1404.41 1230.06C1409.03 1230.06 1412.16 1232.81 1412.16 1236.62C1412.16 1239.19 1410.91 1241.25 1406.47 1245.44L1402.44 1249.44V1249.59H1412.5V1253H1396.78Z" fill="black"/>
<path d="M1385 1253.31C1380.59 1253.28 1376.16 1250.66 1376.19 1242.31C1376.19 1234.56 1379.72 1230.06 1385.25 1230.06C1389.63 1230.06 1392.63 1232.81 1393.13 1236.47H1389.09C1388.69 1234.75 1387.31 1233.59 1385.25 1233.59C1381.97 1233.59 1380.13 1236.5 1380.13 1241.25H1380.34C1381.5 1239.31 1383.69 1238.16 1386.16 1238.16C1390.22 1238.16 1393.34 1241.22 1393.34 1245.5C1393.34 1250 1390 1253.34 1385 1253.31ZM1385 1250.03C1387.53 1250.03 1389.41 1248.06 1389.41 1245.59C1389.41 1243.19 1387.56 1241.25 1385.06 1241.25C1382.53 1241.25 1380.59 1243.25 1380.56 1245.62C1380.59 1248 1382.44 1250.03 1385 1250.03Z" fill="black"/>
<path d="M1355.47 1248.78V1245.53L1365.25 1230.38H1370.31V1245.44H1373.28V1248.78H1370.31V1253H1366.44V1248.78H1355.47ZM1359.62 1245.44H1366.5V1235H1366.25L1359.62 1245.28V1245.44Z" fill="black"/>
</g>
<g id="cheongsong_hall_463">
<path d="M1419 1292C1419 1296.42 1422.58 1300 1427 1300H1487C1491.42 1300 1495 1296.42 1495 1292V1193C1495 1188.58 1491.42 1185 1487 1185H1427C1422.58 1185 1419 1188.58 1419 1193V1292Z" fill="#F7FBFF"/>
<path d="M1487 1188V1185H1427L1427 1188H1487ZM1492 1193V1292C1492 1294.76 1489.76 1297 1487 1297H1427C1424.24 1297 1422 1294.76 1422 1292V1193C1422 1190.24 1424.24 1188 1427 1188L1427 1185C1422.58 1185 1419 1188.58 1419 1193V1292C1419 1296.42 1422.58 1300 1427 1300H1487C1491.42 1300 1495 1296.42 1495 1292V1193C1495 1188.58 1491.42 1185 1487 1185V1188C1489.76 1188 1492 1190.24 1492 1193Z" fill="#2E2F33" fill-opacity="0.88"/>
<path d="M1477 1253.31C1472.16 1253.31 1468.72 1250.69 1468.62 1246.88H1472.72C1472.84 1248.69 1474.66 1249.88 1477 1249.88C1479.5 1249.88 1481.28 1248.5 1481.28 1246.5C1481.28 1244.47 1479.53 1243 1476.59 1243H1474.56V1239.88H1476.59C1479 1239.88 1480.69 1238.53 1480.66 1236.56C1480.69 1234.66 1479.25 1233.38 1477.03 1233.38C1474.91 1233.38 1473.06 1234.56 1473 1236.47H1469.09C1469.19 1232.66 1472.62 1230.06 1477.06 1230.06C1481.66 1230.06 1484.62 1232.88 1484.59 1236.34C1484.62 1238.88 1482.94 1240.72 1480.47 1241.22V1241.41C1483.66 1241.84 1485.47 1243.88 1485.44 1246.72C1485.47 1250.53 1481.91 1253.31 1477 1253.31Z" fill="black"/>
<path d="M1457 1253.31C1452.59 1253.28 1448.16 1250.66 1448.19 1242.31C1448.19 1234.56 1451.72 1230.06 1457.25 1230.06C1461.63 1230.06 1464.63 1232.81 1465.13 1236.47H1461.09C1460.69 1234.75 1459.31 1233.59 1457.25 1233.59C1453.97 1233.59 1452.13 1236.5 1452.13 1241.25H1452.34C1453.5 1239.31 1455.69 1238.16 1458.16 1238.16C1462.22 1238.16 1465.34 1241.22 1465.34 1245.5C1465.34 1250 1462 1253.34 1457 1253.31ZM1457 1250.03C1459.53 1250.03 1461.41 1248.06 1461.41 1245.59C1461.41 1243.19 1459.56 1241.25 1457.06 1241.25C1454.53 1241.25 1452.59 1243.25 1452.56 1245.62C1452.59 1248 1454.44 1250.03 1457 1250.03Z" fill="black"/>
<path d="M1427.47 1248.78V1245.53L1437.25 1230.38H1442.31V1245.44H1445.28V1248.78H1442.31V1253H1438.44V1248.78H1427.47ZM1431.62 1245.44H1438.5V1235H1438.25L1431.62 1245.28V1245.44Z" fill="black"/>
</g>
<g id="cheongsong_hall_474">
<path d="M1346 1138C1346 1142.42 1349.58 1146 1354 1146H1552C1556.42 1146 1560 1142.42 1560 1138V1004C1560 999.582 1556.42 996 1552 996H1354C1349.58 996 1346 999.582 1346 1004V1138Z" fill="#F7FBFF"/>
<path d="M1552 999V996H1354L1354 999H1552ZM1557 1004V1138C1557 1140.76 1554.76 1143 1552 1143H1354C1351.24 1143 1349 1140.76 1349 1138V1004C1349 1001.24 1351.24 999 1354 999L1354 996C1349.58 996 1346 999.582 1346 1004V1138C1346 1142.28 1349.36 1145.77 1353.59 1145.99L1354 1146H1552C1556.42 1146 1560 1142.42 1560 1138V1004C1560 999.582 1556.42 996 1552 996V999C1554.76 999 1557 1001.24 1557 1004Z" fill="#2E2F33" fill-opacity="0.88"/>
<path d="M1462.47 1077.78V1074.53L1472.25 1059.38H1477.31V1074.44H1480.28V1077.78H1477.31V1082H1473.44V1077.78H1462.47ZM1466.62 1074.44H1473.5V1064H1473.25L1466.62 1074.28V1074.44Z" fill="black"/>
<path d="M1447.38 1082L1457.19 1062.94V1062.78H1445.81V1059.38H1461.41V1062.84L1451.59 1082H1447.38Z" fill="black"/>
<path d="M1425.47 1077.78V1074.53L1435.25 1059.38H1440.31V1074.44H1443.28V1077.78H1440.31V1082H1436.44V1077.78H1425.47ZM1429.62 1074.44H1436.5V1064H1436.25L1429.62 1074.28V1074.44Z" fill="black"/>
</g>
<g id="cheongsong_hall_472">
<path d="M1557 1138C1557 1142.42 1560.58 1146 1565 1146H1691C1695.42 1146 1699 1142.42 1699 1138V1004C1699 999.582 1695.42 996 1691 996H1565C1560.58 996 1557 999.582 1557 1004V1138Z" fill="#F7FBFF"/>
<path d="M1691 999V996H1565L1565 999H1691ZM1696 1004V1138C1696 1140.76 1693.76 1143 1691 1143H1565C1562.24 1143 1560 1140.76 1560 1138V1004C1560 1001.24 1562.24 999 1565 999L1565 996L1564.59 996.011C1560.36 996.225 1557 999.72 1557 1004V1138C1557 1142.42 1560.58 1146 1565 1146H1691C1695.42 1146 1699 1142.42 1699 1138V1004C1699 999.582 1695.42 996 1691 996V999C1693.76 999 1696 1001.24 1696 1004Z" fill="#2E2F33" fill-opacity="0.88"/>
<path d="M1639.69 1082V1079.06L1647.69 1071.34C1649.97 1069.06 1651.16 1067.72 1651.16 1065.81C1651.16 1063.72 1649.5 1062.38 1647.28 1062.38C1644.94 1062.38 1643.44 1063.84 1643.47 1066.12H1639.59C1639.56 1061.84 1642.78 1059.06 1647.31 1059.06C1651.94 1059.06 1655.06 1061.81 1655.06 1065.62C1655.06 1068.19 1653.81 1070.25 1649.37 1074.44L1645.34 1078.44V1078.59H1655.41V1082H1639.69Z" fill="black"/>
<path d="M1622.38 1082L1632.19 1062.94V1062.78H1620.81V1059.38H1636.41V1062.84L1626.59 1082H1622.38Z" fill="black"/>
<path d="M1600.47 1077.78V1074.53L1610.25 1059.38H1615.31V1074.44H1618.28V1077.78H1615.31V1082H1611.44V1077.78H1600.47ZM1604.62 1074.44H1611.5V1064H1611.25L1604.62 1074.28V1074.44Z" fill="black"/>
</g>
<g id="cheongsong_hall_464">
<path d="M1577 1292C1577 1296.42 1580.58 1300 1585 1300H1692C1696.42 1300 1700 1296.42 1700 1292V1193C1700 1188.58 1696.42 1185 1692 1185H1585C1580.58 1185 1577 1188.58 1577 1193V1292Z" fill="#F7FBFF"/>
<path d="M1692 1188V1185H1585L1585 1188H1692ZM1697 1193V1292C1697 1294.76 1694.76 1297 1692 1297H1585C1582.24 1297 1580 1294.76 1580 1292V1193C1580 1190.24 1582.24 1188 1585 1188L1585 1185L1584.59 1185.01C1580.36 1185.23 1577 1188.72 1577 1193V1292C1577 1296.28 1580.36 1299.77 1584.59 1299.99L1585 1300H1692C1696.42 1300 1700 1296.42 1700 1292V1193C1700 1188.58 1696.42 1185 1692 1185V1188C1694.76 1188 1697 1190.24 1697 1193Z" fill="#2E2F33" fill-opacity="0.88"/>
<path d="M1649.38 1248.78V1245.53L1659.16 1230.38H1664.22V1245.44H1667.19V1248.78H1664.22V1253H1660.34V1248.78H1649.38ZM1653.53 1245.44H1660.41V1235H1660.16L1653.53 1245.28V1245.44Z" fill="black"/>
<path d="M1638 1253.31C1633.59 1253.28 1629.16 1250.66 1629.19 1242.31C1629.19 1234.56 1632.72 1230.06 1638.25 1230.06C1642.63 1230.06 1645.63 1232.81 1646.13 1236.47H1642.09C1641.69 1234.75 1640.31 1233.59 1638.25 1233.59C1634.97 1233.59 1633.13 1236.5 1633.13 1241.25H1633.34C1634.5 1239.31 1636.69 1238.16 1639.16 1238.16C1643.22 1238.16 1646.34 1241.22 1646.34 1245.5C1646.34 1250 1643 1253.34 1638 1253.31ZM1638 1250.03C1640.53 1250.03 1642.41 1248.06 1642.41 1245.59C1642.41 1243.19 1640.56 1241.25 1638.06 1241.25C1635.53 1241.25 1633.59 1243.25 1633.56 1245.62C1633.59 1248 1635.44 1250.03 1638 1250.03Z" fill="black"/>
<path d="M1608.47 1248.78V1245.53L1618.25 1230.38H1623.31V1245.44H1626.28V1248.78H1623.31V1253H1619.44V1248.78H1608.47ZM1612.62 1245.44H1619.5V1235H1619.25L1612.62 1245.28V1245.44Z" fill="black"/>
</g>
<g id="cheongsong_hall_466">
<path d="M1697 1292C1697 1296.42 1700.58 1300 1705 1300H1947C1951.42 1300 1955 1296.42 1955 1292V1004C1955 999.582 1951.42 996 1947 996H1705C1700.58 996 1697 999.582 1697 1004V1292Z" fill="#F7FBFF"/>
<path d="M1947 999V996H1705L1705 999H1947ZM1952 1004V1292C1952 1294.76 1949.76 1297 1947 1297H1705C1702.24 1297 1700 1294.76 1700 1292V1004C1700 1001.24 1702.24 999 1705 999L1705 996C1700.58 996 1697 999.582 1697 1004V1292C1697 1296.42 1700.58 1300 1705 1300H1947C1951.42 1300 1955 1296.42 1955 1292V1004C1955 999.582 1951.42 996 1947 996V999C1949.76 999 1952 1001.24 1952 1004Z" fill="#2E2F33" fill-opacity="0.88"/>
<path d="M1846.25 1159.31C1841.84 1159.28 1837.41 1156.66 1837.44 1148.31C1837.44 1140.56 1840.97 1136.06 1846.5 1136.06C1850.88 1136.06 1853.88 1138.81 1854.38 1142.47H1850.34C1849.94 1140.75 1848.56 1139.59 1846.5 1139.59C1843.22 1139.59 1841.38 1142.5 1841.38 1147.25H1841.59C1842.75 1145.31 1844.94 1144.16 1847.41 1144.16C1851.47 1144.16 1854.59 1147.22 1854.59 1151.5C1854.59 1156 1851.25 1159.34 1846.25 1159.31ZM1846.25 1156.03C1848.78 1156.03 1850.66 1154.06 1850.66 1151.59C1850.66 1149.19 1848.81 1147.25 1846.31 1147.25C1843.78 1147.25 1841.84 1149.25 1841.81 1151.62C1841.84 1154 1843.69 1156.03 1846.25 1156.03Z" fill="black"/>
<path d="M1826 1159.31C1821.59 1159.28 1817.16 1156.66 1817.19 1148.31C1817.19 1140.56 1820.72 1136.06 1826.25 1136.06C1830.63 1136.06 1833.63 1138.81 1834.13 1142.47H1830.09C1829.69 1140.75 1828.31 1139.59 1826.25 1139.59C1822.97 1139.59 1821.13 1142.5 1821.13 1147.25H1821.34C1822.5 1145.31 1824.69 1144.16 1827.16 1144.16C1831.22 1144.16 1834.34 1147.22 1834.34 1151.5C1834.34 1156 1831 1159.34 1826 1159.31ZM1826 1156.03C1828.53 1156.03 1830.41 1154.06 1830.41 1151.59C1830.41 1149.19 1828.56 1147.25 1826.06 1147.25C1823.53 1147.25 1821.59 1149.25 1821.56 1151.62C1821.59 1154 1823.44 1156.03 1826 1156.03Z" fill="black"/>
<path d="M1796.47 1154.78V1151.53L1806.25 1136.38H1811.31V1151.44H1814.28V1154.78H1811.31V1159H1807.44V1154.78H1796.47ZM1800.62 1151.44H1807.5V1141H1807.25L1800.62 1151.28V1151.44Z" fill="black"/>
</g>
<g id="cheongsong_hall_417">
<path d="M421 301C421 305.418 424.582 309 429 309H548C552.418 309 556 305.418 556 301V188C556 183.582 552.418 180 548 180H429C424.582 180 421 183.582 421 188V301Z" fill="#F7FBFF"/>
<path d="M548 183V180H429L429 183H548ZM553 188V301C553 303.761 550.761 306 548 306H429C426.239 306 424 303.761 424 301V188C424 185.239 426.239 183 429 183L429 180L428.588 180.011C424.361 180.225 421 183.72 421 188V301C421 305.418 424.582 309 429 309H548C552.418 309 556 305.418 556 301V188C556 183.582 552.418 180 548 180V183C550.761 183 553 185.239 553 188Z" fill="#2E2F33" fill-opacity="0.88"/>
<path d="M498.75 255L508.562 235.938V235.781H497.188V232.375H512.781V235.844L502.969 255H498.75Z" fill="black"/>
<path d="M492.406 232.375V255H488.312V236.344H488.188L482.906 239.719V236L488.5 232.375H492.406Z" fill="black"/>
<path d="M462.469 250.781V247.531L472.25 232.375H477.312V247.438H480.281V250.781H477.312V255H473.438V250.781H462.469ZM466.625 247.438H473.5V237H473.25L466.625 247.281V247.438Z" fill="black"/>
</g>
<g id="cheongsong_hall_419">
<path d="M553 301C553 305.418 556.582 309 561 309H617C621.418 309 625 305.418 625 301V188C625 183.582 621.418 180 617 180H561C556.582 180 553 183.582 553 188V301Z" fill="#F7FBFF"/>
<path d="M617 183V180H561L561 183H617ZM622 188V301C622 303.761 619.761 306 617 306H561C558.239 306 556 303.761 556 301V188C556 185.239 558.239 183 561 183L561 180L560.588 180.011C556.361 180.225 553 183.72 553 188V301C553 305.418 556.582 309 561 309H617C621.418 309 625 305.418 625 301V188C625 183.582 621.418 180 617 180V183C619.761 183 622 185.239 622 188Z" fill="#2E2F33" fill-opacity="0.88"/>
<path d="M605.938 232.063C610.375 232.094 614.75 234.719 614.781 243C614.781 250.812 611.25 255.312 605.688 255.312C601.312 255.312 598.312 252.594 597.812 248.844H601.844C602.25 250.625 603.625 251.781 605.688 251.781C608.969 251.781 610.812 248.875 610.844 244.031H610.594C609.438 246 607.281 247.156 604.781 247.156C600.75 247.156 597.625 244.094 597.594 239.813C597.594 235.375 600.906 232.031 605.938 232.063ZM605.969 235.344C603.438 235.344 601.531 237.313 601.562 239.719C601.562 242.156 603.375 244.062 605.906 244.062C608.406 244.062 610.375 242.031 610.344 239.688C610.344 237.375 608.5 235.344 605.969 235.344Z" fill="black"/>
<path d="M592.406 232.375V255H588.312V236.344H588.188L582.906 239.719V236L588.5 232.375H592.406Z" fill="black"/>
<path d="M562.469 250.781V247.531L572.25 232.375H577.312V247.438H580.281V250.781H577.312V255H573.438V250.781H562.469ZM566.625 247.438H573.5V237H573.25L566.625 247.281V247.438Z" fill="black"/>
</g>
<g id="cheongsong_hall_420">
<path d="M613 120C613 124.418 616.582 128 621 128H766C770.418 128 774 124.418 774 120V14C774 9.58172 770.418 6 766 6H621C616.582 6 613 9.58172 613 14V120Z" fill="#F7FBFF"/>
<path d="M766 9V6H621L621 9H766ZM771 14V120C771 122.761 768.761 125 766 125H621C618.239 125 616 122.761 616 120V14C616 11.2386 618.239 9 621 9L621 6L620.588 6.01074C616.361 6.22523 613 9.71994 613 14V120C613 124.418 616.582 128 621 128H766C770.418 128 774 124.418 774 120V14C774 9.58172 770.418 6 766 6V9C768.761 9 771 11.2386 771 14Z" fill="#2E2F33" fill-opacity="0.88"/>
<path d="M713.156 78.3125C707.719 78.3125 704.469 74.0938 704.469 66.6875C704.469 59.3125 707.719 55.0625 713.156 55.0625C718.562 55.0625 721.844 59.3125 721.844 66.6875C721.844 74.0938 718.594 78.3125 713.156 78.3125ZM713.156 74.9062C716 74.9062 717.75 72.125 717.75 66.6875C717.75 61.2812 715.969 58.4375 713.156 58.4375C710.344 58.4375 708.562 61.2812 708.562 66.6875C708.562 72.125 710.312 74.9062 713.156 74.9062Z" fill="black"/>
<path d="M685.531 78V75.0625L693.531 67.3438C695.812 65.0625 697 63.7188 697 61.8125C697 59.7188 695.344 58.375 693.125 58.375C690.781 58.375 689.281 59.8438 689.312 62.125H685.437C685.406 57.8438 688.625 55.0625 693.156 55.0625C697.781 55.0625 700.906 57.8125 700.906 61.625C700.906 64.1875 699.656 66.25 695.219 70.4375L691.187 74.4375V74.5938H701.25V78H685.531Z" fill="black"/>
<path d="M664.469 73.7812V70.5312L674.25 55.375H679.312V70.4375H682.281V73.7812H679.312V78H675.438V73.7812H664.469ZM668.625 70.4375H675.5V60H675.25L668.625 70.2812V70.4375Z" fill="black"/>
</g>
<g id="cheongsong_hall_422">
<path d="M771 120C771 124.418 774.582 128 779 128H924C928.418 128 932 124.418 932 120V14C932 9.58172 928.418 6 924 6H779C774.582 6 771 9.58172 771 14V120Z" fill="#F7FBFF"/>
<path d="M924 9V6H779L779 9H924ZM929 14V120C929 122.761 926.761 125 924 125H779C776.239 125 774 122.761 774 120V14C774 11.2386 776.239 9 779 9L779 6L778.588 6.01074C774.361 6.22523 771 9.71994 771 14V120C771 124.418 774.582 128 779 128H924C928.418 128 932 124.418 932 120V14C932 9.58172 928.418 6 924 6V9C926.761 9 929 11.2386 929 14Z" fill="#2E2F33" fill-opacity="0.88"/>
<path d="M862.812 78V75.0625L870.812 67.3438C873.094 65.0625 874.281 63.7188 874.281 61.8125C874.281 59.7188 872.625 58.375 870.406 58.375C868.062 58.375 866.562 59.8438 866.594 62.125H862.719C862.687 57.8438 865.906 55.0625 870.437 55.0625C875.062 55.0625 878.187 57.8125 878.187 61.625C878.187 64.1875 876.937 66.25 872.5 70.4375L868.469 74.4375V74.5938H878.531V78H862.812Z" fill="black"/>
<path d="M843.531 78V75.0625L851.531 67.3438C853.812 65.0625 855 63.7188 855 61.8125C855 59.7188 853.344 58.375 851.125 58.375C848.781 58.375 847.281 59.8438 847.312 62.125H843.437C843.406 57.8438 846.625 55.0625 851.156 55.0625C855.781 55.0625 858.906 57.8125 858.906 61.625C858.906 64.1875 857.656 66.25 853.219 70.4375L849.187 74.4375V74.5938H859.25V78H843.531Z" fill="black"/>
<path d="M822.469 73.7812V70.5312L832.25 55.375H837.312V70.4375H840.281V73.7812H837.312V78H833.438V73.7812H822.469ZM826.625 70.4375H833.5V60H833.25L826.625 70.2812V70.4375Z" fill="black"/>
</g>
<g id="cheongsong_hall_4f_elevator_right">
<path d="M871.5 1411C871.5 1415.42 875.082 1419 879.5 1419H921.5C925.918 1419 929.5 1415.42 929.5 1411V1365C929.5 1360.58 925.918 1357 921.5 1357H879.5C875.082 1357 871.5 1360.58 871.5 1365V1411Z" fill="#C4C4C4"/>
<path d="M921.5 1360V1357H879.5L879.5 1360H921.5ZM926.5 1365V1411C926.5 1413.76 924.261 1416 921.5 1416H879.5C876.739 1416 874.5 1413.76 874.5 1411V1365C874.5 1362.24 876.739 1360 879.5 1360L879.5 1357C875.082 1357 871.5 1360.58 871.5 1365V1411C871.5 1415.42 875.082 1419 879.5 1419H921.5C925.918 1419 929.5 1415.42 929.5 1411V1365C929.5 1360.58 925.918 1357 921.5 1357V1360C924.261 1360 926.5 1362.24 926.5 1365Z" fill="#2E2F33" fill-opacity="0.88"/>
<path d="M910.625 1367.38H889.375C883.852 1367.38 879.375 1371.85 879.375 1377.38V1398.62C879.375 1404.15 883.852 1408.62 889.375 1408.62H910.625C916.147 1408.62 920.625 1404.15 920.625 1398.62V1377.38C920.625 1371.85 916.147 1367.38 910.625 1367.38ZM901.02 1375.43H902.174C902.289 1375.43 902.381 1375.34 902.381 1375.23V1372.67C902.381 1372.58 902.46 1372.5 902.557 1372.5H904.449C904.546 1372.5 904.625 1372.58 904.625 1372.67V1375.23C904.625 1375.34 904.717 1375.43 904.832 1375.43H905.986C906.153 1375.43 906.235 1375.63 906.118 1375.75L903.759 1378.11C903.618 1378.25 903.389 1378.25 903.249 1378.11L900.89 1375.75C900.772 1375.63 900.855 1375.43 901.02 1375.43ZM893.327 1374.96L895.686 1372.6C895.827 1372.46 896.056 1372.46 896.196 1372.6L898.555 1374.96C898.673 1375.08 898.589 1375.28 898.424 1375.28H897.27C897.155 1375.28 897.062 1375.37 897.062 1375.49V1378.04C897.062 1378.14 896.984 1378.22 896.886 1378.22H894.995C894.898 1378.22 894.819 1378.14 894.819 1378.04V1375.49C894.819 1375.37 894.726 1375.28 894.611 1375.28H893.458C893.291 1375.28 893.21 1375.08 893.327 1374.96ZM915.29 1397.34C915.29 1400.35 912.838 1402.81 909.823 1402.81H890.176C887.161 1402.81 884.709 1400.35 884.709 1397.34V1385.54C884.709 1382.52 887.161 1380.07 890.176 1380.07H909.823C912.838 1380.07 915.29 1382.52 915.29 1385.54V1397.34Z" fill="#4592FB"/>
<path d="M909.823 1381.04H890.176C887.695 1381.04 885.676 1383.06 885.676 1385.54V1397.34C885.676 1399.82 887.695 1401.84 890.176 1401.84H909.823C912.304 1401.84 914.323 1399.82 914.323 1397.34V1385.54C914.323 1383.06 912.304 1381.04 909.823 1381.04ZM907.61 1383.93C908.245 1383.93 908.76 1384.44 908.76 1385.08C908.76 1385.71 908.245 1386.23 907.61 1386.23C906.975 1386.23 906.46 1385.71 906.46 1385.08C906.46 1384.44 906.975 1383.93 907.61 1383.93ZM899.866 1383.93C900.501 1383.93 901.016 1384.44 901.016 1385.08C901.016 1385.71 900.501 1386.23 899.866 1386.23C899.231 1386.23 898.716 1385.71 898.716 1385.08C898.716 1384.44 899.231 1383.93 899.866 1383.93ZM892.122 1383.93C892.757 1383.93 893.272 1384.44 893.272 1385.08C893.272 1385.71 892.757 1386.23 892.122 1386.23C891.487 1386.23 890.972 1385.71 890.972 1385.08C890.972 1384.44 891.487 1383.93 892.122 1383.93ZM895.455 1392.08C895.455 1392.44 895.163 1392.73 894.802 1392.73C894.442 1392.73 894.15 1392.44 894.15 1392.08V1388.66H893.809V1398.08C893.809 1398.48 893.49 1398.8 893.096 1398.8C892.703 1398.8 892.384 1398.48 892.384 1398.08V1392.67H891.859V1398.08C891.859 1398.48 891.54 1398.8 891.146 1398.8C890.753 1398.8 890.434 1398.48 890.434 1398.08V1388.66H889.995V1392.08C889.995 1392.44 889.703 1392.73 889.343 1392.73C888.983 1392.73 888.69 1392.44 888.69 1392.08V1388.05C888.69 1387.33 889.274 1386.75 889.995 1386.75H894.147C894.867 1386.75 895.452 1387.33 895.452 1388.05V1392.08H895.455ZM903.199 1392.08C903.199 1392.44 902.906 1392.73 902.546 1392.73C902.186 1392.73 901.894 1392.44 901.894 1392.08V1388.66H901.553V1398.08C901.553 1398.48 901.234 1398.8 900.84 1398.8C900.446 1398.8 900.127 1398.48 900.127 1398.08V1392.67H899.604V1398.08C899.604 1398.48 899.285 1398.8 898.891 1398.8C898.498 1398.8 898.179 1398.48 898.179 1398.08V1388.66H897.74V1392.08C897.74 1392.44 897.448 1392.73 897.087 1392.73C896.727 1392.73 896.435 1392.44 896.435 1392.08V1388.05C896.435 1387.33 897.019 1386.75 897.74 1386.75H901.892C902.614 1386.75 903.198 1387.33 903.198 1388.05L903.199 1392.08ZM910.942 1392.08C910.942 1392.44 910.65 1392.73 910.29 1392.73C909.93 1392.73 909.637 1392.44 909.637 1392.08V1388.66H909.296V1398.08C909.296 1398.48 908.978 1398.8 908.584 1398.8C908.19 1398.8 907.871 1398.48 907.871 1398.08V1392.67H907.346V1398.08C907.346 1398.48 907.028 1398.8 906.634 1398.8C906.24 1398.8 905.921 1398.48 905.921 1398.08V1388.66H905.482V1392.08C905.482 1392.44 905.19 1392.73 904.83 1392.73C904.47 1392.73 904.177 1392.44 904.177 1392.08V1388.05C904.177 1387.33 904.761 1386.75 905.482 1386.75H909.635C910.356 1386.75 910.94 1387.33 910.94 1388.05V1392.08H910.942Z" fill="#4592FB"/>
<path d="M899.866 1386.23C900.501 1386.23 901.016 1385.71 901.016 1385.08C901.016 1384.44 900.501 1383.93 899.866 1383.93C899.231 1383.93 898.716 1384.44 898.716 1385.08C898.716 1385.71 899.231 1386.23 899.866 1386.23Z" fill="white"/>
<path d="M892.122 1386.23C892.757 1386.23 893.272 1385.71 893.272 1385.08C893.272 1384.44 892.757 1383.93 892.122 1383.93C891.487 1383.93 890.972 1384.44 890.972 1385.08C890.972 1385.71 891.487 1386.23 892.122 1386.23Z" fill="white"/>
<path d="M907.61 1386.23C908.245 1386.23 908.76 1385.71 908.76 1385.08C908.76 1384.44 908.245 1383.93 907.61 1383.93C906.975 1383.93 906.46 1384.44 906.46 1385.08C906.46 1385.71 906.975 1386.23 907.61 1386.23Z" fill="white"/>
<path d="M909.825 1380.08H890.175C887.163 1380.08 884.712 1382.53 884.712 1385.54V1397.34C884.712 1400.35 887.163 1402.81 890.175 1402.81H909.825C912.838 1402.81 915.287 1400.35 915.287 1397.34V1385.54C915.287 1382.53 912.838 1380.08 909.825 1380.08ZM914.325 1397.34C914.325 1399.82 912.3 1401.84 909.825 1401.84H890.175C887.7 1401.84 885.675 1399.82 885.675 1397.34V1385.54C885.675 1383.06 887.7 1381.04 890.175 1381.04H909.825C912.3 1381.04 914.325 1383.06 914.325 1385.54V1397.34Z" fill="white"/>
<path d="M910.938 1388.05V1392.08C910.938 1392.44 910.65 1392.74 910.287 1392.74C909.925 1392.74 909.637 1392.44 909.637 1392.08V1388.66L909.3 1388.66V1398.09C909.3 1398.47 908.975 1398.8 908.588 1398.8C908.188 1398.8 907.875 1398.47 907.875 1398.09V1392.66H907.35V1398.09C907.35 1398.47 907.025 1398.8 906.637 1398.8C906.237 1398.8 905.925 1398.47 905.925 1398.09V1388.66H905.487V1392.08C905.487 1392.44 905.188 1392.74 904.838 1392.74C904.475 1392.74 904.175 1392.44 904.175 1392.08V1388.05C904.175 1387.33 904.763 1386.75 905.487 1386.75H909.637C910.362 1386.75 910.938 1387.33 910.938 1388.05Z" fill="white"/>
<path d="M895.45 1388.05V1392.08C895.45 1392.44 895.162 1392.74 894.8 1392.74C894.438 1392.74 894.15 1392.44 894.15 1392.08V1388.66L893.812 1388.66V1398.09C893.812 1398.47 893.487 1398.8 893.1 1398.8C892.7 1398.8 892.388 1398.47 892.388 1398.09V1392.66H891.862V1398.09C891.862 1398.47 891.538 1398.8 891.15 1398.8C890.75 1398.8 890.438 1398.47 890.438 1398.09V1388.66H890V1392.08C890 1392.44 889.7 1392.74 889.35 1392.74C888.988 1392.74 888.688 1392.44 888.688 1392.08V1388.05C888.688 1387.33 889.275 1386.75 890 1386.75H894.15C894.875 1386.75 895.45 1387.33 895.45 1388.05Z" fill="white"/>
<path d="M903.2 1388.05V1392.08C903.2 1392.44 902.912 1392.74 902.55 1392.74C902.188 1392.74 901.9 1392.44 901.9 1392.08V1388.66H901.55V1398.09C901.55 1398.47 901.237 1398.8 900.837 1398.8C900.45 1398.8 900.125 1398.47 900.125 1398.09V1392.66H899.6V1398.09C899.6 1398.47 899.287 1398.8 898.887 1398.8C898.5 1398.8 898.175 1398.47 898.175 1398.09V1388.66H897.737V1392.08C897.737 1392.44 897.45 1392.74 897.087 1392.74C896.725 1392.74 896.437 1392.44 896.437 1392.08V1388.05C896.437 1387.33 897.025 1386.75 897.737 1386.75H901.9C902.612 1386.75 903.2 1387.33 903.2 1388.05Z" fill="white"/>
<path d="M893.459 1375.28H894.612C894.727 1375.28 894.82 1375.37 894.82 1375.49V1378.04C894.82 1378.14 894.899 1378.22 894.996 1378.22H896.888C896.985 1378.22 897.064 1378.14 897.064 1378.04V1375.49C897.064 1375.37 897.156 1375.28 897.271 1375.28H898.425C898.591 1375.28 898.674 1375.08 898.556 1374.96L896.198 1372.61C896.056 1372.46 895.827 1372.46 895.688 1372.61L893.329 1374.96C893.211 1375.08 893.294 1375.28 893.459 1375.28Z" fill="white"/>
<path d="M903.246 1378.11C903.388 1378.25 903.616 1378.25 903.756 1378.11L906.115 1375.75C906.232 1375.63 906.149 1375.43 905.984 1375.43H904.83C904.715 1375.43 904.622 1375.34 904.622 1375.23V1372.67C904.622 1372.58 904.544 1372.5 904.446 1372.5H902.555C902.458 1372.5 902.379 1372.58 902.379 1372.67V1375.23C902.379 1375.34 902.286 1375.43 902.171 1375.43H901.017C900.851 1375.43 900.769 1375.63 900.886 1375.75L903.246 1378.11Z" fill="white"/>
</g>
<g id="cheongsong_hall_4f_toilet_right_girl">
<path d="M771 1352C771 1356.42 774.582 1360 779 1360H921C925.418 1360 929 1356.42 929 1352V1294C929 1289.58 925.418 1286 921 1286H779C774.582 1286 771 1289.58 771 1294V1352Z" fill="#FED9C4"/>
<path d="M921 1289V1286H779L779 1289H921ZM926 1294V1352C926 1354.76 923.761 1357 921 1357H779C776.239 1357 774 1354.76 774 1352V1294C774 1291.24 776.239 1289 779 1289L779 1286L778.588 1286.01C774.361 1286.23 771 1289.72 771 1294V1352C771 1356.28 774.361 1359.77 778.588 1359.99L779 1360H921C925.418 1360 929 1356.42 929 1352V1294C929 1289.58 925.418 1286 921 1286V1289C923.761 1289 926 1291.24 926 1294Z" fill="#2E2F33" fill-opacity="0.88"/>
<path d="M862.75 1298.25H837.25C830.623 1298.25 825.25 1303.62 825.25 1310.25V1335.75C825.25 1342.38 830.623 1347.75 837.25 1347.75H862.75C869.377 1347.75 874.75 1342.38 874.75 1335.75V1310.25C874.75 1303.62 869.377 1298.25 862.75 1298.25Z" fill="#E76D6D"/>
<path d="M847.274 1320.98L841.809 1333.52C840.953 1335.49 842.392 1337.69 844.534 1337.69H855.465C857.606 1337.69 859.046 1335.49 858.19 1333.52L852.724 1320.98C851.686 1318.59 848.31 1318.59 847.271 1320.98H847.274Z" fill="white"/>
<path d="M850 1316.38C852.227 1316.38 854.032 1314.58 854.032 1312.35C854.032 1310.12 852.227 1308.32 850 1308.32C847.773 1308.32 845.968 1310.12 845.968 1312.35C845.968 1314.58 847.773 1316.38 850 1316.38Z" fill="white"/>
</g>
<g id="cheongsong_hall_4f_toilet_left_girl">
<path d="M672 239C672 243.418 675.582 247 680 247H839C843.418 247 847 243.418 847 239V185C847 180.582 843.418 177 839 177H680C675.582 177 672 180.582 672 185V239Z" fill="#FED9C4"/>
<path d="M839 180V177H680L680 180H839ZM844 185V239C844 241.761 841.761 244 839 244H680C677.239 244 675 241.761 675 239V185C675 182.239 677.239 180 680 180L680 177L679.588 177.011C675.361 177.225 672 180.72 672 185V239C672 243.418 675.582 247 680 247H839C843.418 247 847 243.418 847 239V185C847 180.582 843.418 177 839 177V180C841.761 180 844 182.239 844 185Z" fill="#2E2F33" fill-opacity="0.88"/>
<path d="M772.75 187.25H747.25C740.623 187.25 735.25 192.623 735.25 199.25V224.75C735.25 231.377 740.623 236.75 747.25 236.75H772.75C779.377 236.75 784.75 231.377 784.75 224.75V199.25C784.75 192.623 779.377 187.25 772.75 187.25Z" fill="#E76D6D"/>
<path d="M757.274 209.976L751.809 222.524C750.953 224.488 752.392 226.685 754.534 226.685H765.465C767.606 226.685 769.046 224.488 768.19 222.524L762.724 209.976C761.686 207.594 758.31 207.594 757.271 209.976H757.274Z" fill="white"/>
<path d="M760 205.381C762.227 205.381 764.032 203.575 764.032 201.348C764.032 199.122 762.227 197.317 760 197.317C757.773 197.317 755.968 199.122 755.968 201.348C755.968 203.575 757.773 205.381 760 205.381Z" fill="white"/>
</g>
<g id="cheongsong_hall_4f_toilet_right_boy">
<path d="M771 1281C771 1285.42 774.582 1289 779 1289H921C925.418 1289 929 1285.42 929 1281V1222C929 1217.58 925.418 1214 921 1214H779C774.582 1214 771 1217.58 771 1222V1281Z" fill="#FED9C4"/>
<path d="M921 1217V1214H779L779 1217H921ZM926 1222V1281C926 1283.76 923.761 1286 921 1286H779C776.239 1286 774 1283.76 774 1281V1222C774 1219.24 776.239 1217 779 1217L779 1214L778.588 1214.01C774.361 1214.23 771 1217.72 771 1222V1281C771 1285.28 774.361 1288.77 778.588 1288.99L779 1289H921C925.418 1289 929 1285.42 929 1281V1222C929 1217.58 925.418 1214 921 1214V1217C923.761 1217 926 1219.24 926 1222Z" fill="#2E2F33" fill-opacity="0.88"/>
<path d="M862.75 1226.25H837.25C830.623 1226.25 825.25 1231.62 825.25 1238.25V1263.75C825.25 1270.38 830.623 1275.75 837.25 1275.75H862.75C869.377 1275.75 874.75 1270.38 874.75 1263.75V1238.25C874.75 1231.62 869.377 1226.25 862.75 1226.25Z" fill="#3076D1"/>
<path d="M852.725 1263.89L858.191 1251.34C859.047 1249.38 857.608 1247.18 855.466 1247.18H844.535C842.394 1247.18 840.953 1249.38 841.81 1251.34L847.276 1263.89C848.314 1266.27 851.69 1266.27 852.729 1263.89H852.725Z" fill="white"/>
<path d="M850 1244.39C852.227 1244.39 854.032 1242.58 854.032 1240.36C854.032 1238.13 852.227 1236.32 850 1236.32C847.773 1236.32 845.968 1238.13 845.968 1240.36C845.968 1242.58 847.773 1244.39 850 1244.39Z" fill="white"/>
</g>
<g id="cheongsong_hall_4f_toilet_left_boy">
<path d="M672 306C672 310.418 675.582 314 680 314H839C843.418 314 847 310.418 847 306V252C847 247.582 843.418 244 839 244H680C675.582 244 672 247.582 672 252V306Z" fill="#FED9C4"/>
<path d="M839 247V244H680L680 247H839ZM844 252V306C844 308.761 841.761 311 839 311H680C677.239 311 675 308.761 675 306V252C675 249.239 677.239 247 680 247L680 244L679.588 244.011C675.361 244.225 672 247.72 672 252V306C672 310.418 675.582 314 680 314H839C843.418 314 847 310.418 847 306V252C847 247.582 843.418 244 839 244V247C841.761 247 844 249.239 844 252Z" fill="#2E2F33" fill-opacity="0.88"/>
<path d="M772.75 254.25H747.25C740.623 254.25 735.25 259.623 735.25 266.25V291.75C735.25 298.377 740.623 303.75 747.25 303.75H772.75C779.377 303.75 784.75 298.377 784.75 291.75V266.25C784.75 259.623 779.377 254.25 772.75 254.25Z" fill="#3076D1"/>
<path d="M762.725 291.889L768.191 279.342C769.047 277.378 767.608 275.181 765.466 275.181H754.535C752.394 275.181 750.953 277.378 751.81 279.342L757.276 291.889C758.314 294.271 761.69 294.271 762.729 291.889H762.725Z" fill="white"/>
<path d="M760 272.388C762.227 272.388 764.032 270.583 764.032 268.356C764.032 266.129 762.227 264.324 760 264.324C757.773 264.324 755.968 266.129 755.968 268.356C755.968 270.583 757.773 272.388 760 272.388Z" fill="white"/>
</g>
<g id="cheongsong_hall_4f_stairs_left_main">
<path d="M469 491C469 495.418 472.582 499 477 499H565C569.418 499 573 495.418 573 491V357C573 352.582 569.418 349 565 349H477C472.582 349 469 352.582 469 357V491Z" fill="#D9FFE6"/>
<path d="M565 352V349H477L477 352H565ZM570 357V491C570 493.761 567.761 496 565 496H477C474.239 496 472 493.761 472 491V357C472 354.239 474.239 352 477 352L477 349L476.588 349.011C472.361 349.225 469 352.72 469 357V491C469 495.418 472.582 499 477 499H565C569.418 499 573 495.418 573 491V357C573 352.582 569.418 349 565 349V352C567.761 352 570 354.239 570 357Z" fill="#2E2F33" fill-opacity="0.88"/>
<path d="M544.94 397.634C543.892 397.247 542.728 397.787 542.341 398.836L538.58 409.056H517.281L520.805 400.29C521.222 399.252 520.719 398.071 519.681 397.654C518.644 397.237 517.465 397.743 517.048 398.778L497.432 447.581C497.015 448.619 497.517 449.8 498.556 450.217C498.803 450.316 499.058 450.364 499.31 450.364C500.112 450.364 500.873 449.884 501.189 449.093L505.218 439.071C505.306 439.083 505.382 439.121 505.472 439.121H527.519L524.386 447.64C524 448.688 524.537 449.854 525.587 450.238C525.818 450.324 526.055 450.364 526.286 450.364C527.11 450.364 527.885 449.855 528.187 449.036L546.142 400.233C546.527 399.184 545.99 398.018 544.94 397.634ZM516.074 413.104H537.089L533.849 421.91H512.114L515.686 413.026C515.816 413.051 515.936 413.104 516.074 413.104ZM506.825 435.072L510.51 425.903C510.606 425.917 510.694 425.961 510.794 425.961H532.361L529.009 435.072H506.825Z" fill="#6E4944"/>
</g>
<g id="cheongsong_hall_4f_stairs_right_main">
<path d="M1024 1138C1024 1142.42 1027.58 1146 1032 1146H1120C1124.42 1146 1128 1142.42 1128 1138V1004C1128 999.582 1124.42 996 1120 996H1032C1027.58 996 1024 999.582 1024 1004V1138Z" fill="#D9FFE6"/>
<path d="M1120 999V996H1032L1032 999H1120ZM1125 1004V1138C1125 1140.76 1122.76 1143 1120 1143H1032C1029.24 1143 1027 1140.76 1027 1138V1004C1027 1001.24 1029.24 999 1032 999L1032 996L1031.59 996.011C1027.36 996.225 1024 999.72 1024 1004V1138C1024 1142.42 1027.58 1146 1032 1146H1120C1124.42 1146 1128 1142.42 1128 1138V1004C1128 999.582 1124.42 996 1120 996V999C1122.76 999 1125 1001.24 1125 1004Z" fill="#2E2F33" fill-opacity="0.88"/>
<path d="M1099.94 1044.63C1098.89 1044.25 1097.73 1044.79 1097.34 1045.84L1093.58 1056.06H1072.28L1075.81 1047.29C1076.22 1046.25 1075.72 1045.07 1074.68 1044.65C1073.64 1044.24 1072.46 1044.74 1072.05 1045.78L1052.43 1094.58C1052.02 1095.62 1052.52 1096.8 1053.56 1097.22C1053.8 1097.32 1054.06 1097.36 1054.31 1097.36C1055.11 1097.36 1055.87 1096.88 1056.19 1096.09L1060.22 1086.07C1060.31 1086.08 1060.38 1086.12 1060.47 1086.12H1082.52L1079.39 1094.64C1079 1095.69 1079.54 1096.85 1080.59 1097.24C1080.82 1097.32 1081.06 1097.36 1081.29 1097.36C1082.11 1097.36 1082.89 1096.86 1083.19 1096.04L1101.14 1047.23C1101.53 1046.18 1100.99 1045.02 1099.94 1044.63ZM1071.07 1060.1H1092.09L1088.85 1068.91H1067.11L1070.69 1060.03C1070.82 1060.05 1070.94 1060.1 1071.07 1060.1ZM1061.83 1082.07L1065.51 1072.9C1065.61 1072.92 1065.69 1072.96 1065.79 1072.96H1087.36L1084.01 1082.07H1061.83Z" fill="#6E4944"/>
</g>
</g>
</svg>
