<svg width="1289" height="342" viewBox="0 0 1289 342" fill="none" xmlns="http://www.w3.org/2000/svg">
<path d="M1118.58 339.499V129.551H1153.95V339.499H1118.58Z" fill="#151414"/>
<path d="M1030.56 341.48C1013.78 341.48 999.062 338.179 986.424 331.576C973.974 324.786 964.259 315.543 957.28 303.848C950.489 292.152 947.094 278.854 947.094 263.952C947.094 248.861 950.395 235.563 956.997 224.056C963.788 212.361 973.031 203.212 984.726 196.61C996.61 190.008 1010.1 186.707 1025.19 186.707C1039.9 186.707 1053.01 189.914 1064.52 196.327C1076.02 202.741 1085.08 211.795 1091.68 223.49C1098.28 235.185 1101.58 248.956 1101.58 264.801C1101.58 266.31 1101.49 268.007 1101.3 269.894C1101.3 271.78 1101.21 273.572 1101.02 275.27H975.106V251.785H1082.34L1068.48 259.142C1068.67 250.465 1066.88 242.825 1063.1 236.223C1059.33 229.621 1054.14 224.433 1047.54 220.661C1041.13 216.888 1033.68 215.002 1025.19 215.002C1016.51 215.002 1008.87 216.888 1002.27 220.661C995.855 224.433 990.762 229.715 986.99 236.506C983.406 243.108 981.613 250.936 981.613 259.991V265.649C981.613 274.704 983.688 282.721 987.838 289.7C991.988 296.68 997.836 302.056 1005.38 305.828C1012.93 309.601 1021.6 311.487 1031.41 311.487C1039.9 311.487 1047.54 310.167 1054.33 307.526C1061.12 304.885 1067.16 300.735 1072.44 295.076L1091.4 316.863C1084.61 324.786 1076.02 330.916 1065.65 335.255C1055.46 339.405 1043.77 341.48 1030.56 341.48Z" fill="#151414"/>
<path d="M857.264 339.499L792.469 188.404H829.252L884.993 321.673H866.884L924.606 188.404H958.559L893.764 339.499H857.264Z" fill="#151414"/>
<path d="M731.831 341.48C715.043 341.48 700.33 338.179 687.691 331.576C675.241 324.786 665.527 315.543 658.547 303.848C651.757 292.152 648.361 278.854 648.361 263.952C648.361 248.861 651.662 235.563 658.265 224.056C665.055 212.361 674.298 203.212 685.993 196.61C697.877 190.008 711.365 186.707 726.455 186.707C741.168 186.707 754.278 189.914 765.785 196.327C777.292 202.741 786.346 211.795 792.948 223.49C799.55 235.185 802.851 248.956 802.851 264.801C802.851 266.31 802.757 268.007 802.568 269.894C802.568 271.78 802.474 273.572 802.285 275.27H676.373V251.785H783.611L769.746 259.142C769.935 250.465 768.143 242.825 764.37 236.223C760.598 229.621 755.41 224.433 748.808 220.661C742.394 216.888 734.944 215.002 726.455 215.002C717.778 215.002 710.138 216.888 703.536 220.661C697.123 224.433 692.03 229.715 688.257 236.506C684.673 243.108 682.881 250.936 682.881 259.991V265.649C682.881 274.704 684.956 282.721 689.106 289.7C693.256 296.68 699.103 302.056 706.649 305.828C714.194 309.601 722.871 311.487 732.68 311.487C741.168 311.487 748.808 310.167 755.599 307.526C762.39 304.885 768.426 300.735 773.707 295.076L792.665 316.863C785.874 324.786 777.291 330.916 766.917 335.255C756.731 339.405 745.035 341.48 731.831 341.48Z" fill="#151414"/>
<path d="M561.736 339.499V188.405H595.407V229.998L591.446 217.831C595.973 207.645 603.047 199.911 612.667 194.629C622.476 189.348 634.643 186.707 649.167 186.707V220.378C647.658 220 646.244 219.812 644.923 219.812C643.603 219.623 642.282 219.529 640.962 219.529C627.569 219.529 616.911 223.49 608.989 231.413C601.066 239.147 597.105 250.748 597.105 266.215V339.499H561.736Z" fill="#151414"/>
<path d="M450.066 341.479C437.239 341.479 425.921 339.122 416.113 334.406C406.304 329.501 398.664 322.145 393.194 312.336C387.723 302.338 384.988 289.794 384.988 274.704V188.404H420.357V269.894C420.357 283.475 423.375 293.661 429.411 300.452C435.636 307.054 444.407 310.355 455.725 310.355C464.025 310.355 471.193 308.657 477.229 305.262C483.454 301.867 488.264 296.774 491.66 289.983C495.244 283.192 497.036 274.798 497.036 264.8V188.404H532.404V339.499H498.734V298.754L504.675 311.204C499.582 321.013 492.131 328.558 482.323 333.84C472.514 338.933 461.762 341.479 450.066 341.479Z" fill="#151414"/>
<path d="M340.048 341.479C323.448 341.479 310.621 337.235 301.567 328.747C292.513 320.07 287.985 307.337 287.985 290.549V155.016H323.354V289.7C323.354 296.868 325.146 302.433 328.73 306.394C332.503 310.355 337.69 312.336 344.292 312.336C352.215 312.336 358.817 310.261 364.099 306.111L374.002 331.293C369.852 334.689 364.759 337.235 358.722 338.933C352.686 340.631 346.461 341.479 340.048 341.479ZM263.086 217.831V189.536H363.816V217.831H263.086Z" fill="#151414"/>
<path d="M171.506 341.479C158.679 341.479 147.361 339.122 137.552 334.406C127.743 329.501 120.104 322.145 114.633 312.336C109.163 302.338 106.428 289.794 106.428 274.704V188.404H141.796V269.894C141.796 283.475 144.814 293.661 150.851 300.452C157.075 307.054 165.847 310.355 177.165 310.355C185.465 310.355 192.633 308.657 198.669 305.262C204.894 301.867 209.704 296.774 213.099 289.983C216.683 283.192 218.475 274.798 218.475 264.8V188.404H253.844V339.499H220.173V298.754L226.115 311.204C221.022 321.013 213.571 328.558 203.762 333.84C193.953 338.933 183.201 341.479 171.506 341.479Z" fill="#151414"/>
<path d="M24.8995 339.499V179.916C24.8995 164.071 29.5209 151.433 38.7639 142.001C48.1955 132.381 61.5884 127.571 78.9426 127.571C85.1674 127.571 91.0151 128.231 96.4854 129.551C102.144 130.872 106.86 132.947 110.633 135.776L101.013 162.373C98.3717 160.298 95.3536 158.789 91.9582 157.846C88.5628 156.714 85.0731 156.148 81.4891 156.148C74.1325 156.148 68.5678 158.223 64.7952 162.373C61.0225 166.335 59.1362 172.371 59.1362 180.482V197.459L60.268 213.304V339.499H24.8995ZM0 217.831V189.536H100.73V217.831H0Z" fill="#151414"/>
<path d="M1272.47 95.4154C1290.68 109.718 1293.84 136.07 1279.54 154.274C1265.23 172.478 1238.88 175.64 1220.68 161.337C1204.59 148.694 1200.25 126.637 1209.34 109.115L1164.06 73.5415C1149.19 86.5183 1126.73 87.524 1110.64 74.8807C1092.44 60.5776 1089.28 34.2259 1103.58 16.022C1117.88 -2.1819 1144.23 -5.34411 1162.44 8.95897C1178.53 21.6023 1182.86 43.6589 1173.78 61.1816L1219.05 96.7546C1233.93 83.7778 1256.38 82.7721 1272.47 95.4154Z" fill="#0088FF"/>
</svg>
