<svg width="1670" height="474" viewBox="0 0 1670 474" fill="none" xmlns="http://www.w3.org/2000/svg">
<path d="M1669.46 395.98H1453.62V271.34H1502.26V297.56H1623.86V271.34H1669.46V395.98ZM1454.38 87.8H1502.26C1529.62 87.8 1553.18 110.22 1553.18 138.72V190.4C1553.18 218.14 1529.62 241.32 1502.26 241.32H1453.62C1426.64 241.32 1402.32 218.14 1402.32 190.4V138.72C1402.32 110.22 1427.4 87.8 1454.38 87.8ZM1622.34 72.98H1669.46V250.82H1622.34V188.12H1571.42V143.66H1622.34V72.98ZM1508.34 180.14V148.98C1508.34 136.44 1499.22 127.32 1486.68 127.32H1470.34C1458.18 127.32 1446.78 136.44 1446.78 148.98V180.14C1446.78 192.68 1458.18 202.18 1470.34 202.18H1486.68C1499.22 202.18 1508.34 192.68 1508.34 180.14ZM1502.26 362.54H1623.86V332.9H1502.26V362.54Z" fill="#373D4A"/>
<path d="M1370.03 238.28V286.16H1251.09V392.18H1202.07V286.16H1083.13V238.28H1370.03ZM1251.47 72.98V87.04C1251.47 95.78 1254.51 105.66 1262.11 112.12C1278.07 127.32 1310.37 148.98 1349.89 162.28V202.94C1334.69 199.52 1319.49 194.96 1304.67 189.26C1278.83 179 1248.81 163.42 1226.39 139.1C1203.59 163.42 1172.81 180.9 1145.83 192.68C1130.25 199.52 1114.29 205.22 1098.33 209.78V167.22C1137.47 154.3 1171.67 127.32 1188.77 112.5C1196.37 105.28 1200.17 95.4 1200.17 87.8V72.98H1251.47Z" fill="#373D4A"/>
<path d="M946.108 150.88H832.488V277.8H955.228V325.68H783.468V106.42H946.108V150.88ZM1041.49 72.98V391.8H989.808V72.98H1041.49Z" fill="#373D4A"/>
<path d="M574.94 322.26H533.14C502.74 322.26 475 306.68 475 257.66V165.32C475 125.42 486.78 94.26 541.88 94.26H567.34C608.76 94.26 631.56 118.2 631.56 165.7V253.48C631.56 296.42 605.34 322.26 574.94 322.26ZM685.52 76.78H734.16V392.56H685.52V228.02H644.48V175.2H685.52V76.78ZM546.06 283.12H562.4C580.64 283.12 585.96 264.5 585.96 249.68V172.92C585.96 156.2 584.82 134.54 562.4 134.54H546.82C524.02 134.54 520.98 152.4 520.98 169.12V247.78C520.98 259.94 515.66 283.12 546.06 283.12Z" fill="#373D4A"/>
<path d="M300.111 114.187C303.336 126.551 305.054 139.525 305.054 152.9C305.054 184.037 295.751 212.997 279.779 237.15L155.711 472.211C154.452 474.596 151.04 474.596 149.78 472.211L27.7951 241.098C18.6794 228.207 11.5069 213.84 6.70843 198.425L100.557 171.48C106.728 195.091 128.179 212.512 153.695 212.512C184.03 212.512 208.621 187.891 208.621 157.518C208.621 151.823 207.756 146.33 206.151 141.164L300.111 114.187Z" fill="#0057DF"/>
<path d="M152.617 0C219.816 0 276.871 43.4862 297.244 103.886L202.155 131.186C192.85 114.058 174.718 102.432 153.875 102.432C123.54 102.432 98.9494 127.054 98.9494 157.427C98.9494 158.555 98.984 159.676 99.0509 160.788L4.08222 188.055C1.41425 176.74 0 164.94 0 152.809C0 68.4149 68.3289 0 152.617 0Z" fill="#4FEEE4"/>
<path d="M297.126 103.542C297.165 103.657 297.205 103.771 297.244 103.886L202.155 131.186C192.85 114.058 174.718 102.432 153.875 102.432C123.54 102.432 98.9494 127.054 98.9494 157.427C98.9494 158.555 98.984 159.676 99.0509 160.788L4.08222 188.055C1.41425 176.74 0 164.94 0 152.809C0 116.547 12.6143 83.2351 33.6896 57.0328L297.126 103.542Z" fill="#0057DF"/>
<path d="M300.111 114.187C303.336 126.551 305.054 139.525 305.054 152.9C305.054 184.037 295.751 212.997 279.779 237.15L155.711 472.211C155.059 473.448 153.827 474.041 152.617 473.995V212.501C152.976 212.508 153.335 212.512 153.695 212.512C184.03 212.512 208.621 187.891 208.621 157.518C208.621 151.823 207.756 146.33 206.151 141.164L300.111 114.187Z" fill="#00C3FF"/>
<path d="M340.453 125.942C340.453 132.433 335.197 137.696 328.713 137.696C322.23 137.696 316.973 132.433 316.973 125.942C316.973 119.45 322.23 114.187 328.713 114.187C335.197 114.187 340.453 119.45 340.453 125.942Z" fill="#FFCA01"/>
<path d="M324.52 137.821C324.52 135.503 326.398 133.623 328.713 133.623C331.029 133.623 332.906 135.503 332.906 137.821V221.782C332.906 224.101 331.029 225.98 328.713 225.98C326.398 225.98 324.52 224.101 324.52 221.782V137.821Z" fill="#FFCA01"/>
<path d="M325.673 218.745C326.71 215.246 330.716 215.246 331.754 218.745L347.8 272.875C348.574 275.486 347.009 278.252 344.759 278.252H312.667C310.417 278.252 308.853 275.486 309.627 272.875L325.673 218.745Z" fill="#FFCA01"/>
</svg>
