<svg width="2048" height="559" viewBox="0 0 2048 559" fill="none" xmlns="http://www.w3.org/2000/svg">
<g id="baekun_hall_floor_4">
<g id="Vector">
<path d="M92.5029 555.002L4.00293 228.502L795.003 16.5025L877.003 3H1191.5L1273 23.0025L2043.5 232.502L1958 550.502L1195 343.502V359.499H881.003L879.003 339L92.5029 555.002Z" fill="#999999"/>
<path d="M1191.87 0L1192.22 0.0869141L1273.72 20.0889L1273.75 20.0977L1273.79 20.1074L2047.18 230.393L1960.12 554.185L1198 347.424V362.499H878.281L876.363 342.835L90.3945 558.692L0.320312 226.384L794.369 13.5664L794.516 13.542L876.758 0H1191.87ZM795.635 19.4385L7.68457 230.621L94.6104 551.312L881.643 335.164L883.725 356.499H1192V339.58L1955.89 546.819L2039.83 234.612L1272.25 25.9053L1191.14 6H877.247L795.635 19.4385Z" fill="black"/>
</g>
<g id="Vector_2">
<path d="M1808.87 179.118C1810.02 174.851 1807.49 170.464 1803.22 169.32L1738.84 152.071C1734.58 150.928 1730.19 153.461 1729.05 157.728L1693.07 291.986C1691.93 296.254 1694.46 300.64 1698.73 301.784L1763.1 319.033C1767.37 320.176 1771.76 317.644 1772.9 313.376L1808.87 179.118Z" fill="#F7FBFF"/>
<path d="M1699.51 298.886L1698.73 301.784L1763.1 319.033L1763.88 316.135L1699.51 298.886ZM1695.97 292.762L1731.94 158.505C1732.66 155.838 1735.4 154.255 1738.07 154.969L1802.44 172.218C1805.11 172.933 1806.69 175.675 1805.98 178.342L1770 312.599C1769.29 315.266 1766.55 316.849 1763.88 316.135L1763.1 319.033L1763.5 319.13C1767.64 320.016 1771.79 317.51 1772.9 313.376L1808.87 179.118C1809.98 174.984 1807.64 170.739 1803.61 169.437L1803.22 169.32L1738.84 152.071C1734.58 150.928 1730.19 153.461 1729.05 157.728L1693.07 291.986C1691.93 296.254 1694.46 300.64 1698.73 301.784L1699.51 298.886C1696.84 298.171 1695.26 295.429 1695.97 292.762Z" fill="#2E2F33" fill-opacity="0.88"/>
</g>
<g id="baekun_hall_4f_elevator">
<path d="M1289.1 148.763C1290.24 144.496 1287.71 140.109 1283.44 138.965L1240.79 127.536C1236.52 126.393 1232.14 128.925 1230.99 133.193L1222.96 163.163C1221.82 167.43 1224.35 171.817 1228.62 172.961L1271.27 184.39C1275.54 185.533 1279.93 183.001 1281.07 178.733L1289.1 148.763Z" fill="#C4C4C4"/>
<path d="M1229.4 170.062L1228.62 172.961L1271.27 184.39L1272.05 181.492L1229.4 170.062ZM1225.86 163.939L1233.89 133.97C1234.6 131.302 1237.35 129.72 1240.01 130.434L1282.67 141.863C1285.34 142.578 1286.92 145.32 1286.2 147.987L1278.17 177.956C1277.46 180.623 1274.72 182.206 1272.05 181.492L1271.27 184.39L1271.67 184.487C1275.81 185.373 1279.96 182.867 1281.07 178.733L1289.1 148.763C1290.21 144.629 1287.87 140.384 1283.84 139.082L1283.44 138.965L1240.79 127.536L1240.39 127.44C1236.25 126.553 1232.1 129.059 1230.99 133.193L1222.96 163.163L1222.87 163.563C1222.01 167.568 1224.33 171.585 1228.22 172.844L1228.62 172.961L1229.4 170.062C1226.73 169.348 1225.14 166.606 1225.86 163.939Z" fill="#2E2F33" fill-opacity="0.88"/>
<path d="M1264.93 138.674H1247.08C1242.44 138.674 1238.68 142.435 1238.68 147.074V164.924C1238.68 169.563 1242.44 173.324 1247.08 173.324H1264.93C1269.56 173.324 1273.33 169.563 1273.33 164.924V147.074C1273.33 142.435 1269.56 138.674 1264.93 138.674ZM1256.86 145.443H1257.83C1257.92 145.443 1258 145.366 1258 145.269V143.126C1258 143.044 1258.07 142.978 1258.15 142.978H1259.74C1259.82 142.978 1259.89 143.044 1259.89 143.126V145.269C1259.89 145.366 1259.96 145.443 1260.06 145.443H1261.03C1261.17 145.443 1261.24 145.611 1261.14 145.71L1259.16 147.691C1259.04 147.81 1258.85 147.81 1258.73 147.691L1256.75 145.71C1256.65 145.611 1256.72 145.443 1256.86 145.443ZM1250.4 145.048L1252.38 143.067C1252.5 142.948 1252.69 142.948 1252.8 143.067L1254.79 145.048C1254.88 145.147 1254.81 145.315 1254.68 145.315H1253.71C1253.61 145.315 1253.53 145.393 1253.53 145.489V147.632C1253.53 147.714 1253.47 147.781 1253.38 147.781H1251.8C1251.71 147.781 1251.65 147.714 1251.65 147.632V145.489C1251.65 145.393 1251.57 145.315 1251.47 145.315H1250.5C1250.36 145.315 1250.3 145.147 1250.4 145.048ZM1268.84 163.844C1268.84 166.377 1266.78 168.437 1264.25 168.437H1247.75C1245.22 168.437 1243.16 166.377 1243.16 163.844V153.932C1243.16 151.4 1245.22 149.34 1247.75 149.34H1264.25C1266.78 149.34 1268.84 151.4 1268.84 153.932V163.844Z" fill="#4592FB"/>
<path d="M1264.25 150.152H1247.75C1245.66 150.152 1243.97 151.848 1243.97 153.932V163.844C1243.97 165.929 1245.66 167.626 1247.75 167.626H1264.25C1266.34 167.626 1268.03 165.93 1268.03 163.844V153.932C1268.03 151.848 1266.34 150.152 1264.25 150.152ZM1262.39 152.576C1262.93 152.576 1263.36 153.008 1263.36 153.542C1263.36 154.075 1262.93 154.508 1262.39 154.508C1261.86 154.508 1261.43 154.075 1261.43 153.542C1261.43 153.008 1261.86 152.576 1262.39 152.576ZM1255.89 152.576C1256.42 152.576 1256.85 153.008 1256.85 153.542C1256.85 154.075 1256.42 154.508 1255.89 154.508C1255.35 154.508 1254.92 154.075 1254.92 153.542C1254.92 153.008 1255.35 152.576 1255.89 152.576ZM1249.38 152.576C1249.92 152.576 1250.35 153.008 1250.35 153.542C1250.35 154.075 1249.92 154.508 1249.38 154.508C1248.85 154.508 1248.42 154.075 1248.42 153.542C1248.42 153.008 1248.85 152.576 1249.38 152.576ZM1252.18 159.427C1252.18 159.73 1251.94 159.975 1251.63 159.975C1251.33 159.975 1251.09 159.73 1251.09 159.427V156.555H1250.8V164.469C1250.8 164.8 1250.53 165.068 1250.2 165.068C1249.87 165.068 1249.6 164.8 1249.6 164.469V159.917H1249.16V164.469C1249.16 164.8 1248.89 165.068 1248.56 165.068C1248.23 165.068 1247.96 164.8 1247.96 164.469V156.555H1247.6V159.427C1247.6 159.73 1247.35 159.975 1247.05 159.975C1246.75 159.975 1246.5 159.73 1246.5 159.427V156.042C1246.5 155.436 1246.99 154.946 1247.6 154.946H1251.08C1251.69 154.946 1252.18 155.436 1252.18 156.042V159.427H1252.18ZM1258.69 159.427C1258.69 159.73 1258.44 159.975 1258.14 159.975C1257.84 159.975 1257.59 159.73 1257.59 159.427V156.555H1257.3V164.469C1257.3 164.8 1257.04 165.068 1256.71 165.068C1256.37 165.068 1256.11 164.8 1256.11 164.469V159.917H1255.67V164.469C1255.67 164.8 1255.4 165.068 1255.07 165.068C1254.74 165.068 1254.47 164.8 1254.47 164.469V156.555H1254.1V159.427C1254.1 159.73 1253.86 159.975 1253.55 159.975C1253.25 159.975 1253.01 159.73 1253.01 159.427V156.042C1253.01 155.436 1253.5 154.946 1254.1 154.946H1257.59C1258.2 154.946 1258.69 155.436 1258.69 156.042L1258.69 159.427ZM1265.19 159.427C1265.19 159.73 1264.95 159.975 1264.64 159.975C1264.34 159.975 1264.1 159.73 1264.1 159.427V156.555H1263.81V164.469C1263.81 164.8 1263.54 165.068 1263.21 165.068C1262.88 165.068 1262.61 164.8 1262.61 164.469V159.917H1262.17V164.469C1262.17 164.8 1261.9 165.068 1261.57 165.068C1261.24 165.068 1260.97 164.8 1260.97 164.469V156.555H1260.61V159.427C1260.61 159.73 1260.36 159.975 1260.06 159.975C1259.75 159.975 1259.51 159.73 1259.51 159.427V156.042C1259.51 155.436 1260 154.946 1260.61 154.946H1264.09C1264.7 154.946 1265.19 155.436 1265.19 156.042V159.427H1265.19Z" fill="#4592FB"/>
<path d="M1255.89 154.508C1256.42 154.508 1256.85 154.075 1256.85 153.542C1256.85 153.008 1256.42 152.576 1255.89 152.576C1255.35 152.576 1254.92 153.008 1254.92 153.542C1254.92 154.075 1255.35 154.508 1255.89 154.508Z" fill="white"/>
<path d="M1249.38 154.508C1249.92 154.508 1250.35 154.075 1250.35 153.542C1250.35 153.008 1249.92 152.576 1249.38 152.576C1248.85 152.576 1248.42 153.008 1248.42 153.542C1248.42 154.075 1248.85 154.508 1249.38 154.508Z" fill="white"/>
<path d="M1262.39 154.508C1262.93 154.508 1263.36 154.075 1263.36 153.542C1263.36 153.008 1262.93 152.576 1262.39 152.576C1261.86 152.576 1261.43 153.008 1261.43 153.542C1261.43 154.075 1261.86 154.508 1262.39 154.508Z" fill="white"/>
<path d="M1264.25 149.342H1247.75C1245.22 149.342 1243.16 151.4 1243.16 153.93V163.842C1243.16 166.373 1245.22 168.441 1247.75 168.441H1264.25C1266.78 168.441 1268.84 166.373 1268.84 163.842V153.93C1268.84 151.4 1266.78 149.342 1264.25 149.342ZM1268.03 163.842C1268.03 165.932 1266.33 167.622 1264.25 167.622H1247.75C1245.67 167.622 1243.97 165.932 1243.97 163.842V153.93C1243.97 151.851 1245.67 150.15 1247.75 150.15H1264.25C1266.33 150.15 1268.03 151.851 1268.03 153.93V163.842Z" fill="white"/>
<path d="M1265.19 156.041V159.422C1265.19 159.726 1264.95 159.978 1264.64 159.978C1264.34 159.978 1264.1 159.726 1264.1 159.422V156.555H1263.81V164.472C1263.81 164.798 1263.54 165.071 1263.21 165.071C1262.88 165.071 1262.61 164.798 1262.61 164.472V159.915H1262.17V164.472C1262.17 164.798 1261.9 165.071 1261.58 165.071C1261.24 165.071 1260.98 164.798 1260.98 164.472V156.555H1260.61V159.422C1260.61 159.726 1260.36 159.978 1260.06 159.978C1259.76 159.978 1259.51 159.726 1259.51 159.422V156.041C1259.51 155.432 1260 154.949 1260.61 154.949H1264.1C1264.7 154.949 1265.19 155.432 1265.19 156.041Z" fill="white"/>
<path d="M1252.18 156.041V159.422C1252.18 159.726 1251.94 159.978 1251.63 159.978C1251.33 159.978 1251.09 159.726 1251.09 159.422L1251.09 156.555H1250.8V164.472C1250.8 164.798 1250.53 165.071 1250.2 165.071C1249.87 165.071 1249.61 164.798 1249.61 164.472V159.915H1249.16V164.472C1249.16 164.798 1248.89 165.071 1248.57 165.071C1248.23 165.071 1247.97 164.798 1247.97 164.472V156.555H1247.6V159.422C1247.6 159.726 1247.35 159.978 1247.05 159.978C1246.75 159.978 1246.5 159.726 1246.5 159.422V156.041C1246.5 155.432 1246.99 154.949 1247.6 154.949H1251.09C1251.69 154.949 1252.18 155.432 1252.18 156.041Z" fill="white"/>
<path d="M1258.69 156.041V159.422C1258.69 159.726 1258.45 159.978 1258.14 159.978C1257.84 159.978 1257.6 159.726 1257.6 159.422V156.555H1257.3V164.472C1257.3 164.798 1257.04 165.071 1256.7 165.071C1256.38 165.071 1256.1 164.798 1256.1 164.472V159.915H1255.66V164.472C1255.66 164.798 1255.4 165.071 1255.07 165.071C1254.74 165.071 1254.47 164.798 1254.47 164.472V156.555H1254.1V159.422C1254.1 159.726 1253.86 159.978 1253.55 159.978C1253.25 159.978 1253.01 159.726 1253.01 159.422V156.041C1253.01 155.432 1253.5 154.949 1254.1 154.949H1257.6C1258.19 154.949 1258.69 155.432 1258.69 156.041Z" fill="white"/>
<path d="M1250.51 145.315H1251.47C1251.57 145.315 1251.65 145.393 1251.65 145.49V147.633C1251.65 147.715 1251.71 147.781 1251.8 147.781H1253.39C1253.47 147.781 1253.53 147.715 1253.53 147.633V145.49C1253.53 145.393 1253.61 145.315 1253.71 145.315H1254.68C1254.82 145.315 1254.89 145.146 1254.79 145.049L1252.81 143.067C1252.69 142.949 1252.5 142.949 1252.38 143.067L1250.4 145.049C1250.3 145.147 1250.37 145.315 1250.51 145.315Z" fill="white"/>
<path d="M1258.73 147.691C1258.85 147.81 1259.04 147.81 1259.16 147.691L1261.14 145.71C1261.24 145.611 1261.16 145.443 1261.03 145.443H1260.06C1259.96 145.443 1259.88 145.366 1259.88 145.269V143.126C1259.88 143.044 1259.82 142.978 1259.73 142.978H1258.15C1258.06 142.978 1258 143.044 1258 143.126V145.269C1258 145.366 1257.92 145.443 1257.82 145.443H1256.85C1256.72 145.443 1256.65 145.611 1256.74 145.71L1258.73 147.691Z" fill="white"/>
</g>
<g id="baekun_hall_411">
<path d="M90.2746 215.854C89.131 211.587 91.6637 207.2 95.9314 206.056L166.026 187.275C170.294 186.131 174.681 188.664 175.824 192.931L212.541 329.96C213.684 334.227 211.152 338.614 206.884 339.758L136.789 358.539C132.521 359.683 128.135 357.15 126.991 352.883L90.2746 215.854Z" fill="#F7FBFF"/>
<path d="M206.107 336.86L206.884 339.758L136.789 358.539L136.013 355.642L206.107 336.86ZM209.643 330.736L172.926 193.708C172.212 191.041 169.47 189.458 166.803 190.172L96.7079 208.954C94.0406 209.669 92.4576 212.411 93.1724 215.078L129.889 352.106C130.604 354.773 133.345 356.356 136.013 355.642L136.789 358.539L136.388 358.636C132.383 359.494 128.367 357.175 127.108 353.277L126.991 352.883L90.2746 215.854C89.1668 211.72 91.5089 207.475 95.5361 206.173L95.9314 206.056L166.026 187.275L166.427 187.178C170.565 186.292 174.716 188.797 175.824 192.931L212.541 329.96L212.637 330.36C213.495 334.364 211.177 338.381 207.279 339.641L206.884 339.758L206.107 336.86C208.775 336.145 210.357 333.403 209.643 330.736Z" fill="#2E2F33" fill-opacity="0.88"/>
<path d="M173.095 261.375V284H169.001V265.344H168.876L163.595 268.719V265L169.188 261.375H173.095Z" fill="black"/>
<path d="M158.407 261.375V284H154.313V265.344H154.188L148.907 268.719V265L154.501 261.375H158.407Z" fill="black"/>
<path d="M128.47 279.781V276.531L138.251 261.375H143.313V276.438H146.282V279.781H143.313V284H139.438V279.781H128.47ZM132.626 276.438H139.501V266H139.251L132.626 276.281V276.438Z" fill="black"/>
</g>
<g id="baekun_hall_413">
<path d="M174.275 195.149C173.131 190.881 175.664 186.495 179.931 185.351L396.676 127.275C400.944 126.131 405.33 128.664 406.474 132.931L442.854 268.705C443.998 272.973 441.465 277.36 437.197 278.503L220.453 336.58C216.185 337.723 211.799 335.19 210.655 330.923L174.275 195.149Z" fill="#F7FBFF"/>
<path d="M436.421 275.605L437.197 278.503L220.453 336.58L219.677 333.682L436.421 275.605ZM439.957 269.482L403.576 133.708C402.862 131.041 400.12 129.458 397.453 130.172L180.708 188.249C178.041 188.964 176.458 191.705 177.172 194.373L213.553 330.146C214.268 332.814 217.009 334.397 219.677 333.682L220.453 336.58L220.052 336.676C216.047 337.534 212.031 335.215 210.772 331.317L210.655 330.923L174.275 195.149C173.167 191.015 175.509 186.769 179.536 185.468L179.931 185.351L396.676 127.275L397.076 127.178C401.215 126.291 405.366 128.797 406.474 132.931L442.854 268.705L442.951 269.105C443.809 273.11 441.49 277.127 437.592 278.386L437.197 278.503L436.421 275.605C439.088 274.891 440.671 272.149 439.957 269.482Z" fill="#2E2F33" fill-opacity="0.88"/>
<path d="M325.126 243.312C320.282 243.312 316.845 240.687 316.751 236.875H320.845C320.97 238.687 322.782 239.875 325.126 239.875C327.626 239.875 329.407 238.5 329.407 236.5C329.407 234.469 327.657 233 324.72 233H322.688V229.875H324.72C327.126 229.875 328.813 228.531 328.782 226.562C328.813 224.656 327.376 223.375 325.157 223.375C323.032 223.375 321.188 224.562 321.126 226.469H317.22C317.313 222.656 320.751 220.062 325.188 220.062C329.782 220.062 332.751 222.875 332.72 226.344C332.751 228.875 331.063 230.719 328.595 231.219V231.406C331.782 231.844 333.595 233.875 333.563 236.719C333.595 240.531 330.032 243.312 325.126 243.312Z" fill="black"/>
<path d="M311.407 220.375V243H307.313V224.344H307.188L301.907 227.719V224L307.501 220.375H311.407Z" fill="black"/>
<path d="M281.47 238.781V235.531L291.251 220.375H296.313V235.437H299.282V238.781H296.313V243H292.438V238.781H281.47ZM285.626 235.437H292.501V225H292.251L285.626 235.281V235.437Z" fill="black"/>
</g>
<g id="baekun_hall_415">
<path d="M403.275 133.47C402.131 129.202 404.664 124.815 408.931 123.672L548.5 86.2746C552.767 85.131 557.154 87.6637 558.297 91.9314L594.661 227.641C595.804 231.909 593.272 236.296 589.004 237.439L449.436 274.836C445.168 275.98 440.781 273.447 439.638 269.179L403.275 133.47Z" fill="#F7FBFF"/>
<path d="M588.227 234.541L589.004 237.439L449.436 274.836L448.659 271.939L588.227 234.541ZM591.763 228.418L555.399 92.708C554.685 90.0406 551.943 88.4577 549.276 89.1724L409.708 126.57C407.041 127.284 405.458 130.026 406.172 132.693L442.536 268.403C443.25 271.07 445.992 272.653 448.659 271.939L449.436 274.836L449.035 274.933C445.03 275.791 441.013 273.471 439.755 269.574L439.638 269.179L403.275 133.47C402.131 129.202 404.664 124.815 408.931 123.672L548.5 86.2746C552.767 85.131 557.154 87.6637 558.297 91.9314L594.661 227.641L594.757 228.041C595.616 232.046 593.297 236.063 589.399 237.322L589.004 237.439L588.227 234.541C590.895 233.827 592.477 231.085 591.763 228.418Z" fill="#2E2F33" fill-opacity="0.88"/>
<path d="M515.938 191.313C511.407 191.313 508.095 188.625 507.97 184.875H511.938C512.063 186.719 513.782 188.031 515.938 188.031C518.47 188.031 520.282 186.188 520.282 183.688C520.282 181.094 518.407 179.25 515.813 179.25C514.063 179.219 512.782 179.844 512.063 181.188H508.282L509.657 168.375H523.032V171.781H513.001L512.313 177.781H512.532C513.407 176.781 515.063 176.063 516.907 176.063C521.126 176.063 524.22 179.219 524.22 183.563C524.22 188.094 520.813 191.313 515.938 191.313Z" fill="black"/>
<path d="M502.407 168.375V191H498.313V172.344H498.188L492.907 175.719V172L498.501 168.375H502.407Z" fill="black"/>
<path d="M472.47 186.781V183.531L482.251 168.375H487.313V183.438H490.282V186.781H487.313V191H483.438V186.781H472.47ZM476.626 183.438H483.501V173H483.251L476.626 183.281V183.438Z" fill="black"/>
</g>
<g id="baekun_hall_417">
<path d="M555.275 90.7796C554.131 86.5119 556.664 82.1252 560.931 80.9816L634.479 61.2746C638.747 60.131 643.134 62.6637 644.277 66.9314L680.64 202.641C681.784 206.909 679.251 211.296 674.984 212.439L601.436 232.146C597.168 233.29 592.781 230.757 591.638 226.489L555.275 90.7796Z" fill="#F7FBFF"/>
<path d="M674.207 209.541L674.984 212.439L601.436 232.146L600.659 229.248L674.207 209.541ZM677.743 203.418L641.38 67.7078C640.665 65.0406 637.923 63.4578 635.256 64.1723L561.708 83.8794C559.041 84.5941 557.458 87.3358 558.172 90.0031L594.536 225.713C595.25 228.38 597.992 229.963 600.659 229.248L601.436 232.146L601.035 232.242C597.03 233.101 593.013 230.781 591.755 226.884L591.638 226.489L555.275 90.7796C554.167 86.6454 556.509 82.3998 560.536 81.0987L560.931 80.9816L634.479 61.2746L634.879 61.1785C639.018 60.2913 643.169 62.797 644.277 66.9314L680.64 202.641L680.737 203.041C681.596 207.046 679.276 211.063 675.378 212.322L674.984 212.439L674.207 209.541C676.875 208.826 678.458 206.085 677.743 203.418Z" fill="#2E2F33" fill-opacity="0.88"/>
<path d="M628.751 157.999L638.563 138.937V138.781H627.188V135.374H642.782V138.843L632.97 157.999H628.751Z" fill="black"/>
<path d="M622.407 135.374V157.999H618.313V139.343H618.188L612.907 142.718V138.999L618.501 135.374H622.407Z" fill="black"/>
<path d="M592.47 153.781V150.531L602.251 135.374H607.313V150.437H610.282V153.781H607.313V157.999H603.438V153.781H592.47ZM596.626 150.437H603.501V139.999H603.251L596.626 150.281V150.437Z" fill="black"/>
</g>
<g id="baekun_hall_418">
<path d="M641.275 68.5656C640.131 64.2978 642.664 59.9111 646.931 58.7676L715.948 40.2746C720.216 39.131 724.603 41.6637 725.746 45.9314L762.11 181.641C763.253 185.909 760.721 190.296 756.453 191.439L687.436 209.932C683.168 211.076 678.781 208.543 677.638 204.275L641.275 68.5656Z" fill="#F7FBFF"/>
<path d="M755.676 188.541L756.453 191.439L687.436 209.932L686.659 207.034L755.676 188.541ZM759.211 182.418L722.848 46.708C722.133 44.0407 719.392 42.4578 716.724 43.1725L647.708 61.6654C645.041 62.3801 643.458 65.1218 644.172 67.7891L680.536 203.499C681.25 206.166 683.992 207.749 686.659 207.034L687.436 209.932L687.035 210.028C683.03 210.887 679.014 208.567 677.755 204.67L677.638 204.275L641.275 68.5656C640.131 64.2978 642.664 59.9111 646.931 58.7676L715.948 40.2746C720.216 39.131 724.603 41.6637 725.746 45.9314L762.11 181.641L762.206 182.041C763.065 186.046 760.745 190.063 756.848 191.322L756.453 191.439L755.676 188.541C758.343 187.827 759.926 185.085 759.211 182.418Z" fill="#2E2F33" fill-opacity="0.88"/>
<path d="M718.126 136.313C713.095 136.313 709.532 133.625 709.532 129.938C709.532 127.063 711.657 124.719 714.376 124.282V124.157C712.001 123.657 710.376 121.594 710.376 119.125C710.376 115.625 713.657 113.063 718.126 113.063C722.563 113.063 725.845 115.625 725.845 119.125C725.845 121.594 724.188 123.657 721.845 124.157V124.282C724.563 124.719 726.72 127.063 726.72 129.938C726.72 133.625 723.126 136.313 718.126 136.313ZM718.126 133.094C720.782 133.094 722.532 131.657 722.532 129.563C722.532 127.438 720.657 125.875 718.126 125.875C715.563 125.875 713.688 127.438 713.72 129.563C713.688 131.657 715.438 133.094 718.126 133.094ZM718.126 122.844C720.313 122.844 721.876 121.469 721.876 119.5C721.876 117.594 720.345 116.25 718.126 116.25C715.876 116.25 714.345 117.563 714.345 119.5C714.345 121.469 715.907 122.844 718.126 122.844Z" fill="black"/>
<path d="M704.407 113.375V136H700.313V117.344H700.188L694.907 120.719V117L700.501 113.375H704.407Z" fill="black"/>
<path d="M674.47 131.782V128.532L684.251 113.375H689.313V128.438H692.282V131.782H689.313V136H685.438V131.782H674.47ZM678.626 128.438H685.501V118H685.251L678.626 128.282V128.438Z" fill="black"/>
</g>
<g id="baekun_hall_401">
<path d="M772.275 241.322C771.131 237.054 773.664 232.667 777.931 231.524L842.306 214.275C846.573 213.131 850.96 215.664 852.103 219.931L881.203 328.531C882.346 332.799 879.814 337.186 875.546 338.329L811.172 355.578C806.904 356.722 802.517 354.189 801.374 349.921L772.275 241.322Z" fill="#F7FBFF"/>
<path d="M874.769 335.431L875.546 338.329L811.172 355.578L810.395 352.68L874.769 335.431ZM878.304 329.308L849.205 220.708C848.491 218.041 845.749 216.458 843.082 217.172L778.708 234.421C776.041 235.136 774.458 237.878 775.172 240.545L804.272 349.145C804.986 351.812 807.728 353.395 810.395 352.68L811.172 355.578L810.771 355.674C806.633 356.561 802.482 354.056 801.374 349.921L772.275 241.322C771.167 237.187 773.509 232.942 777.536 231.641L777.931 231.524L842.306 214.275C846.573 213.131 850.96 215.664 852.103 219.931L881.203 328.531C882.346 332.799 879.814 337.186 875.546 338.329L874.769 335.431C877.436 334.717 879.019 331.975 878.304 329.308Z" fill="#2E2F33" fill-opacity="0.88"/>
<path d="M851.157 273.375V296H847.063V277.344H846.938L841.657 280.719V277L847.251 273.375H851.157Z" fill="black"/>
<path d="M829.876 296.313C824.438 296.313 821.188 292.094 821.188 284.688C821.188 277.313 824.438 273.063 829.876 273.063C835.282 273.063 838.563 277.313 838.563 284.688C838.563 292.094 835.313 296.313 829.876 296.313ZM829.876 292.907C832.72 292.907 834.47 290.125 834.47 284.688C834.47 279.282 832.688 276.438 829.876 276.438C827.063 276.438 825.282 279.282 825.282 284.688C825.282 290.125 827.032 292.907 829.876 292.907Z" fill="black"/>
<path d="M800.47 291.782V288.532L810.251 273.375H815.313V288.438H818.282V291.782H815.313V296H811.438V291.782H800.47ZM804.626 288.438H811.501V278H811.251L804.626 288.282V288.438Z" fill="black"/>
</g>
<g id="baekun_hall_443">
<path d="M965.503 226.5C965.503 222.082 961.921 218.5 957.503 218.5H860.489C855.21 218.5 851.379 223.522 852.773 228.613L881.219 332.462C881.407 333.151 881.503 333.862 881.503 334.576V348.5C881.503 352.918 885.085 356.5 889.503 356.5H957.503C961.921 356.5 965.503 352.918 965.503 348.5V226.5Z" fill="#F7FBFF"/>
<path d="M965.503 348.5V226.5C965.503 222.082 961.921 218.5 957.503 218.5H860.489C855.21 218.5 851.379 223.522 852.773 228.613L881.219 332.462C881.407 333.151 881.503 333.862 881.503 334.576V348.5C881.503 352.918 885.085 356.5 889.503 356.5V353.5C886.742 353.5 884.503 351.261 884.503 348.5V334.576C884.503 333.594 884.372 332.617 884.112 331.67L855.667 227.821C854.795 224.639 857.19 221.5 860.489 221.5H957.503C960.264 221.5 962.503 223.739 962.503 226.5V348.5C962.503 351.261 960.264 353.5 957.503 353.5V356.5L957.915 356.489C962.142 356.275 965.503 352.78 965.503 348.5ZM889.503 353.5V356.5H957.503V353.5H889.503Z" fill="#2E2F33" fill-opacity="0.88"/>
<path d="M929.558 269.234C925.925 269.234 923.347 267.266 923.276 264.406H926.347C926.44 265.766 927.8 266.656 929.558 266.656C931.433 266.656 932.769 265.625 932.769 264.125C932.769 262.602 931.456 261.5 929.253 261.5H927.729V259.156H929.253C931.058 259.156 932.323 258.148 932.3 256.672C932.323 255.242 931.245 254.281 929.581 254.281C927.987 254.281 926.604 255.172 926.558 256.602H923.628C923.698 253.742 926.276 251.797 929.604 251.797C933.05 251.797 935.276 253.906 935.253 256.508C935.276 258.406 934.011 259.789 932.159 260.164V260.305C934.55 260.633 935.909 262.156 935.886 264.289C935.909 267.148 933.237 269.234 929.558 269.234Z" fill="black"/>
<path d="M907.597 265.836V263.398L914.933 252.031H918.729V263.328H920.956V265.836H918.729V269H915.823V265.836H907.597ZM910.714 263.328H915.87V255.5H915.683L910.714 263.211V263.328Z" fill="black"/>
<path d="M892.104 265.836V263.398L899.44 252.031H903.237V263.328H905.464V265.836H903.237V269H900.331V265.836H892.104ZM895.222 263.328H900.378V255.5H900.19L895.222 263.211V263.328Z" fill="black"/>
<path d="M949.089 291.031V308H946.019V294.008H945.925L941.964 296.539V293.75L946.159 291.031H949.089Z" fill="black"/>
<path d="M939.292 298.297V300.758H931.651V298.297H939.292Z" fill="black"/>
<path d="M922.558 308.234C918.925 308.234 916.347 306.266 916.276 303.406H919.347C919.44 304.766 920.8 305.656 922.558 305.656C924.433 305.656 925.769 304.625 925.769 303.125C925.769 301.602 924.456 300.5 922.253 300.5H920.729V298.156H922.253C924.058 298.156 925.323 297.148 925.3 295.672C925.323 294.242 924.245 293.281 922.581 293.281C920.987 293.281 919.604 294.172 919.558 295.602H916.628C916.698 292.742 919.276 290.797 922.604 290.797C926.05 290.797 928.276 292.906 928.253 295.508C928.276 297.406 927.011 298.789 925.159 299.164V299.305C927.55 299.633 928.909 301.156 928.886 303.289C928.909 306.148 926.237 308.234 922.558 308.234Z" fill="black"/>
<path d="M900.597 304.836V302.398L907.933 291.031H911.729V302.328H913.956V304.836H911.729V308H908.823V304.836H900.597ZM903.714 302.328H908.87V294.5H908.683L903.714 302.211V302.328Z" fill="black"/>
<path d="M885.104 304.836V302.398L892.44 291.031H896.237V302.328H898.464V304.836H896.237V308H893.331V304.836H885.104ZM888.222 302.328H893.378V294.5H893.19L888.222 302.211V302.328Z" fill="black"/>
</g>
<g id="baekun_hall_440">
<path d="M963 226C963 221.582 966.582 218 971 218H1103C1107.42 218 1111 221.582 1111 226V348C1111 352.418 1107.42 356 1103 356H971C966.582 356 963 352.418 963 348V226Z" fill="#F7FBFF"/>
<path d="M1103 353V356H971L971 353H1103ZM1108 348V226C1108 223.239 1105.76 221 1103 221H971C968.239 221 966 223.239 966 226V348C966 350.761 968.239 353 971 353L971 356C966.582 356 963 352.418 963 348V226C963 221.72 966.361 218.225 970.588 218.011L971 218H1103C1107.42 218 1111 221.582 1111 226V348C1111 352.418 1107.42 356 1103 356V353C1105.76 353 1108 350.761 1108 348Z" fill="#2E2F33" fill-opacity="0.88"/>
<path d="M1057.53 298.312C1052.09 298.312 1048.84 294.094 1048.84 286.688C1048.84 279.312 1052.09 275.062 1057.53 275.062C1062.94 275.062 1066.22 279.312 1066.22 286.688C1066.22 294.094 1062.97 298.312 1057.53 298.312ZM1057.53 294.906C1060.38 294.906 1062.12 292.125 1062.12 286.688C1062.12 281.281 1060.34 278.438 1057.53 278.438C1054.72 278.438 1052.94 281.281 1052.94 286.688C1052.94 292.125 1054.69 294.906 1057.53 294.906Z" fill="black"/>
<path d="M1028.12 293.781V290.531L1037.91 275.375H1042.97V290.438H1045.94V293.781H1042.97V298H1039.09V293.781H1028.12ZM1032.28 290.438H1039.16V280H1038.91L1032.28 290.281V290.438Z" fill="black"/>
<path d="M1007.47 293.781V290.531L1017.25 275.375H1022.31V290.438H1025.28V293.781H1022.31V298H1018.44V293.781H1007.47ZM1011.62 290.438H1018.5V280H1018.25L1011.62 290.281V290.438Z" fill="black"/>
</g>
<g id="baekun_hall_441">
<path d="M1108 226C1108 221.582 1111.58 218 1116 218H1213.01C1218.29 218 1222.12 223.022 1220.73 228.113L1192.28 331.962C1192.1 332.651 1192 333.362 1192 334.076V348C1192 352.418 1188.42 356 1184 356H1116C1111.58 356 1108 352.418 1108 348V226Z" fill="#F7FBFF"/>
<path d="M1108 348V226C1108 221.582 1111.58 218 1116 218H1213.01C1218.29 218 1222.12 223.022 1220.73 228.113L1192.28 331.962C1192.1 332.651 1192 333.362 1192 334.076V348C1192 352.418 1188.42 356 1184 356V353C1186.76 353 1189 350.761 1189 348V334.076C1189 333.094 1189.13 332.117 1189.39 331.17L1217.84 227.321C1218.71 224.139 1216.31 221 1213.01 221H1116C1113.24 221 1111 223.239 1111 226V348C1111 350.761 1113.24 353 1116 353L1116 356L1115.59 355.989C1111.36 355.775 1108 352.28 1108 348ZM1184 353V356H1116L1116 353H1184Z" fill="#2E2F33" fill-opacity="0.88"/>
<path d="M1179.06 275.375V298H1174.97V279.344H1174.84L1169.56 282.719V279L1175.16 275.375H1179.06Z" fill="black"/>
<path d="M1149.12 293.781V290.531L1158.91 275.375H1163.97V290.438H1166.94V293.781H1163.97V298H1160.09V293.781H1149.12ZM1153.28 290.438H1160.16V280H1159.91L1153.28 290.281V290.438Z" fill="black"/>
<path d="M1128.47 293.781V290.531L1138.25 275.375H1143.31V290.438H1146.28V293.781H1143.31V298H1139.44V293.781H1128.47ZM1132.62 290.438H1139.5V280H1139.25L1132.62 290.281V290.438Z" fill="black"/>
</g>
<g id="baekun_hall_439">
<path d="M1299.35 244.361C1300.49 240.093 1297.96 235.706 1293.69 234.563L1229.17 217.275C1224.9 216.131 1220.52 218.664 1219.37 222.931L1190.27 331.531C1189.13 335.799 1191.66 340.186 1195.93 341.329L1260.45 358.617C1264.72 359.761 1269.11 357.228 1270.25 352.96L1299.35 244.361Z" fill="#F7FBFF"/>
<path d="M1196.71 338.431L1195.93 341.329L1260.45 358.617L1261.23 355.719L1196.71 338.431ZM1193.17 332.308L1222.27 223.708C1222.99 221.041 1225.73 219.458 1228.4 220.172L1292.92 237.46C1295.58 238.175 1297.17 240.917 1296.45 243.584L1267.35 352.184C1266.64 354.851 1263.9 356.434 1261.23 355.719L1260.45 358.617C1264.72 359.761 1269.11 357.228 1270.25 352.96L1299.35 244.361C1300.49 240.093 1297.96 235.706 1293.69 234.563L1229.17 217.275C1224.9 216.131 1220.52 218.664 1219.37 222.931L1190.27 331.531C1189.13 335.799 1191.66 340.186 1195.93 341.329L1196.71 338.431C1194.04 337.717 1192.46 334.975 1193.17 332.308Z" fill="#2E2F33" fill-opacity="0.88"/>
<path d="M1263.78 276.063C1268.22 276.094 1272.59 278.719 1272.62 287C1272.62 294.813 1269.09 299.313 1263.53 299.313C1259.16 299.313 1256.16 296.594 1255.66 292.844H1259.69C1260.09 294.625 1261.47 295.782 1263.53 295.782C1266.81 295.782 1268.66 292.875 1268.69 288.032H1268.44C1267.28 290 1265.12 291.157 1262.62 291.157C1258.59 291.157 1255.47 288.094 1255.44 283.813C1255.44 279.375 1258.75 276.032 1263.78 276.063ZM1263.81 279.344C1261.28 279.344 1259.37 281.313 1259.41 283.719C1259.41 286.157 1261.22 288.063 1263.75 288.063C1266.25 288.063 1268.22 286.032 1268.19 283.688C1268.19 281.375 1266.34 279.344 1263.81 279.344Z" fill="black"/>
<path d="M1243.75 299.313C1238.91 299.313 1235.47 296.688 1235.37 292.875H1239.47C1239.59 294.688 1241.41 295.875 1243.75 295.875C1246.25 295.875 1248.03 294.5 1248.03 292.5C1248.03 290.469 1246.28 289 1243.34 289H1241.31V285.875H1243.34C1245.75 285.875 1247.44 284.532 1247.41 282.563C1247.44 280.657 1246 279.375 1243.78 279.375C1241.66 279.375 1239.81 280.563 1239.75 282.469H1235.84C1235.94 278.657 1239.37 276.063 1243.81 276.063C1248.41 276.063 1251.37 278.875 1251.34 282.344C1251.37 284.875 1249.69 286.719 1247.22 287.219V287.407C1250.41 287.844 1252.22 289.875 1252.19 292.719C1252.22 296.532 1248.66 299.313 1243.75 299.313Z" fill="black"/>
<path d="M1214.47 294.782V291.532L1224.25 276.375H1229.31V291.438H1232.28V294.782H1229.31V299H1225.44V294.782H1214.47ZM1218.62 291.438H1225.5V281H1225.25L1218.62 291.282V291.438Z" fill="black"/>
</g>
<g id="baekun_hall_438">
<path d="M1376.2 265.322C1377.35 261.054 1374.81 256.667 1370.55 255.524L1306.17 238.275C1301.9 237.131 1297.52 239.664 1296.37 243.931L1267.27 352.531C1266.13 356.799 1268.66 361.186 1272.93 362.329L1337.31 379.578C1341.57 380.722 1345.96 378.189 1347.1 373.921L1376.2 265.322Z" fill="#F7FBFF"/>
<path d="M1273.71 359.431L1272.93 362.329L1337.31 379.578L1338.08 376.68L1273.71 359.431ZM1270.17 353.308L1299.27 244.708C1299.99 242.041 1302.73 240.458 1305.4 241.172L1369.77 258.421C1372.44 259.136 1374.02 261.878 1373.3 264.545L1344.21 373.145C1343.49 375.812 1340.75 377.395 1338.08 376.68L1337.31 379.578L1337.71 379.674C1341.84 380.561 1346 378.056 1347.1 373.921L1376.2 265.322C1377.31 261.187 1374.97 256.942 1370.94 255.641L1370.55 255.524L1306.17 238.275C1301.9 237.131 1297.52 239.664 1296.37 243.931L1267.27 352.531C1266.13 356.799 1268.66 361.186 1272.93 362.329L1273.71 359.431C1271.04 358.717 1269.46 355.975 1270.17 353.308Z" fill="#2E2F33" fill-opacity="0.88"/>
<path d="M1341.97 320.313C1336.94 320.313 1333.37 317.625 1333.37 313.938C1333.37 311.063 1335.5 308.719 1338.22 308.282V308.157C1335.84 307.657 1334.22 305.594 1334.22 303.125C1334.22 299.625 1337.5 297.063 1341.97 297.063C1346.41 297.063 1349.69 299.625 1349.69 303.125C1349.69 305.594 1348.03 307.657 1345.69 308.157V308.282C1348.41 308.719 1350.56 311.063 1350.56 313.938C1350.56 317.625 1346.97 320.313 1341.97 320.313ZM1341.97 317.094C1344.62 317.094 1346.37 315.657 1346.37 313.563C1346.37 311.438 1344.5 309.875 1341.97 309.875C1339.41 309.875 1337.53 311.438 1337.56 313.563C1337.53 315.657 1339.28 317.094 1341.97 317.094ZM1341.97 306.844C1344.16 306.844 1345.72 305.469 1345.72 303.5C1345.72 301.594 1344.19 300.25 1341.97 300.25C1339.72 300.25 1338.19 301.563 1338.19 303.5C1338.19 305.469 1339.75 306.844 1341.97 306.844Z" fill="black"/>
<path d="M1321.75 320.313C1316.91 320.313 1313.47 317.688 1313.37 313.875H1317.47C1317.59 315.688 1319.41 316.875 1321.75 316.875C1324.25 316.875 1326.03 315.5 1326.03 313.5C1326.03 311.469 1324.28 310 1321.34 310H1319.31V306.875H1321.34C1323.75 306.875 1325.44 305.532 1325.41 303.563C1325.44 301.657 1324 300.375 1321.78 300.375C1319.66 300.375 1317.81 301.563 1317.75 303.469H1313.84C1313.94 299.657 1317.37 297.063 1321.81 297.063C1326.41 297.063 1329.37 299.875 1329.34 303.344C1329.37 305.875 1327.69 307.719 1325.22 308.219V308.407C1328.41 308.844 1330.22 310.875 1330.19 313.719C1330.22 317.532 1326.66 320.313 1321.75 320.313Z" fill="black"/>
<path d="M1292.47 315.782V312.532L1302.25 297.375H1307.31V312.438H1310.28V315.782H1307.31V320H1303.44V315.782H1292.47ZM1296.62 312.438H1303.5V302H1303.25L1296.62 312.282V312.438Z" fill="black"/>
</g>
<g id="baekun_hall_437">
<path d="M1453.2 286.322C1454.35 282.054 1451.81 277.667 1447.55 276.524L1383.17 259.275C1378.9 258.131 1374.52 260.664 1373.37 264.931L1344.27 373.531C1343.13 377.799 1345.66 382.186 1349.93 383.329L1414.31 400.578C1418.57 401.722 1422.96 399.189 1424.1 394.921L1453.2 286.322Z" fill="#F7FBFF"/>
<path d="M1350.71 380.431L1349.93 383.329L1414.31 400.578L1415.08 397.68L1350.71 380.431ZM1347.17 374.308L1376.27 265.708C1376.99 263.041 1379.73 261.458 1382.4 262.172L1446.77 279.421C1449.44 280.136 1451.02 282.878 1450.3 285.545L1421.21 394.145C1420.49 396.812 1417.75 398.395 1415.08 397.68L1414.31 400.578L1414.71 400.674C1418.84 401.561 1423 399.056 1424.1 394.921L1453.2 286.322C1454.31 282.187 1451.97 277.942 1447.94 276.641L1447.55 276.524L1383.17 259.275C1378.9 258.131 1374.52 260.664 1373.37 264.931L1344.27 373.531C1343.13 377.799 1345.66 382.186 1349.93 383.329L1350.71 380.431C1348.04 379.717 1346.46 376.975 1347.17 374.308Z" fill="#2E2F33" fill-opacity="0.88"/>
<path d="M1412.59 341L1422.41 321.938V321.782H1411.03V318.375H1426.62V321.844L1416.81 341H1412.59Z" fill="black"/>
<path d="M1399.75 341.313C1394.91 341.313 1391.47 338.688 1391.37 334.875H1395.47C1395.59 336.688 1397.41 337.875 1399.75 337.875C1402.25 337.875 1404.03 336.5 1404.03 334.5C1404.03 332.469 1402.28 331 1399.34 331H1397.31V327.875H1399.34C1401.75 327.875 1403.44 326.532 1403.41 324.563C1403.44 322.657 1402 321.375 1399.78 321.375C1397.66 321.375 1395.81 322.563 1395.75 324.469H1391.84C1391.94 320.657 1395.37 318.063 1399.81 318.063C1404.41 318.063 1407.37 320.875 1407.34 324.344C1407.37 326.875 1405.69 328.719 1403.22 329.219V329.407C1406.41 329.844 1408.22 331.875 1408.19 334.719C1408.22 338.532 1404.66 341.313 1399.75 341.313Z" fill="black"/>
<path d="M1370.47 336.782V333.532L1380.25 318.375H1385.31V333.438H1388.28V336.782H1385.31V341H1381.44V336.782H1370.47ZM1374.62 333.438H1381.5V323H1381.25L1374.62 333.282V333.438Z" fill="black"/>
</g>
<g id="baekun_hall_436">
<path d="M1530.2 307.322C1531.35 303.054 1528.81 298.667 1524.55 297.524L1460.17 280.275C1455.9 279.131 1451.52 281.664 1450.37 285.931L1421.27 394.531C1420.13 398.799 1422.66 403.186 1426.93 404.329L1491.31 421.578C1495.57 422.722 1499.96 420.189 1501.1 415.921L1530.2 307.322Z" fill="#F7FBFF"/>
<path d="M1427.71 401.431L1426.93 404.329L1491.31 421.578L1492.08 418.68L1427.71 401.431ZM1424.17 395.308L1453.27 286.708C1453.99 284.041 1456.73 282.458 1459.4 283.172L1523.77 300.421C1526.44 301.136 1528.02 303.878 1527.3 306.545L1498.21 415.145C1497.49 417.812 1494.75 419.395 1492.08 418.68L1491.31 421.578L1491.71 421.674C1495.84 422.561 1500 420.056 1501.1 415.921L1530.2 307.322C1531.31 303.187 1528.97 298.942 1524.94 297.641L1524.55 297.524L1460.17 280.275C1455.9 279.131 1451.52 281.664 1450.37 285.931L1421.27 394.531C1420.13 398.799 1422.66 403.186 1426.93 404.329L1427.71 401.431C1425.04 400.717 1423.46 397.975 1424.17 395.308Z" fill="#2E2F33" fill-opacity="0.88"/>
<path d="M1496.22 362.313C1491.81 362.282 1487.37 359.657 1487.41 351.313C1487.41 343.563 1490.94 339.063 1496.47 339.063C1500.84 339.063 1503.84 341.813 1504.34 345.469H1500.31C1499.91 343.75 1498.53 342.594 1496.47 342.594C1493.19 342.594 1491.34 345.5 1491.34 350.25H1491.56C1492.72 348.313 1494.91 347.157 1497.37 347.157C1501.44 347.157 1504.56 350.219 1504.56 354.5C1504.56 359 1501.22 362.344 1496.22 362.313ZM1496.22 359.032C1498.75 359.032 1500.62 357.063 1500.62 354.594C1500.62 352.188 1498.78 350.25 1496.28 350.25C1493.75 350.25 1491.81 352.25 1491.78 354.625C1491.81 357 1493.66 359.032 1496.22 359.032Z" fill="black"/>
<path d="M1475.75 362.313C1470.91 362.313 1467.47 359.688 1467.37 355.875H1471.47C1471.59 357.688 1473.41 358.875 1475.75 358.875C1478.25 358.875 1480.03 357.5 1480.03 355.5C1480.03 353.469 1478.28 352 1475.34 352H1473.31V348.875H1475.34C1477.75 348.875 1479.44 347.532 1479.41 345.563C1479.44 343.657 1478 342.375 1475.78 342.375C1473.66 342.375 1471.81 343.563 1471.75 345.469H1467.84C1467.94 341.657 1471.37 339.063 1475.81 339.063C1480.41 339.063 1483.37 341.875 1483.34 345.344C1483.37 347.875 1481.69 349.719 1479.22 350.219V350.407C1482.41 350.844 1484.22 352.875 1484.19 355.719C1484.22 359.532 1480.66 362.313 1475.75 362.313Z" fill="black"/>
<path d="M1446.47 357.782V354.532L1456.25 339.375H1461.31V354.438H1464.28V357.782H1461.31V362H1457.44V357.782H1446.47ZM1450.62 354.438H1457.5V344H1457.25L1450.62 354.282V354.438Z" fill="black"/>
</g>
<g id="baekun_hall_435">
<path d="M1608.2 328.322C1609.35 324.054 1606.81 319.667 1602.55 318.524L1538.17 301.275C1533.9 300.131 1529.52 302.664 1528.37 306.931L1499.27 415.531C1498.13 419.799 1500.66 424.186 1504.93 425.329L1569.31 442.578C1573.57 443.722 1577.96 441.189 1579.1 436.921L1608.2 328.322Z" fill="#F7FBFF"/>
<path d="M1505.71 422.431L1504.93 425.329L1569.31 442.578L1570.08 439.68L1505.71 422.431ZM1502.17 416.308L1531.27 307.708C1531.99 305.041 1534.73 303.458 1537.4 304.172L1601.77 321.421C1604.44 322.136 1606.02 324.878 1605.3 327.545L1576.21 436.145C1575.49 438.812 1572.75 440.395 1570.08 439.68L1569.31 442.578L1569.71 442.674C1573.84 443.561 1578 441.056 1579.1 436.921L1608.2 328.322C1609.31 324.187 1606.97 319.942 1602.94 318.641L1602.55 318.524L1538.17 301.275C1533.9 300.131 1529.52 302.664 1528.37 306.931L1499.27 415.531C1498.13 419.799 1500.66 424.186 1504.93 425.329L1505.71 422.431C1503.04 421.717 1501.46 418.975 1502.17 416.308Z" fill="#2E2F33" fill-opacity="0.88"/>
<path d="M1573.78 383.313C1569.25 383.313 1565.94 380.625 1565.81 376.875H1569.78C1569.91 378.719 1571.62 380.032 1573.78 380.032C1576.31 380.032 1578.12 378.188 1578.12 375.688C1578.12 373.094 1576.25 371.25 1573.66 371.25C1571.91 371.219 1570.62 371.844 1569.91 373.188H1566.12L1567.5 360.375H1580.87V363.782H1570.84L1570.16 369.782H1570.37C1571.25 368.782 1572.91 368.063 1574.75 368.063C1578.97 368.063 1582.06 371.219 1582.06 375.563C1582.06 380.094 1578.66 383.313 1573.78 383.313Z" fill="black"/>
<path d="M1553.75 383.313C1548.91 383.313 1545.47 380.688 1545.37 376.875H1549.47C1549.59 378.688 1551.41 379.875 1553.75 379.875C1556.25 379.875 1558.03 378.5 1558.03 376.5C1558.03 374.469 1556.28 373 1553.34 373H1551.31V369.875H1553.34C1555.75 369.875 1557.44 368.532 1557.41 366.563C1557.44 364.657 1556 363.375 1553.78 363.375C1551.66 363.375 1549.81 364.563 1549.75 366.469H1545.84C1545.94 362.657 1549.37 360.063 1553.81 360.063C1558.41 360.063 1561.37 362.875 1561.34 366.344C1561.37 368.875 1559.69 370.719 1557.22 371.219V371.407C1560.41 371.844 1562.22 373.875 1562.19 376.719C1562.22 380.532 1558.66 383.313 1553.75 383.313Z" fill="black"/>
<path d="M1524.47 378.782V375.532L1534.25 360.375H1539.31V375.438H1542.28V378.782H1539.31V383H1535.44V378.782H1524.47ZM1528.62 375.438H1535.5V365H1535.25L1528.62 375.282V375.438Z" fill="black"/>
</g>
<g id="baekun_hall_434">
<path d="M1675.25 345.921C1676.39 341.654 1673.86 337.267 1669.59 336.123L1614.17 321.275C1609.9 320.131 1605.52 322.664 1604.37 326.931L1575.27 435.531C1574.13 439.799 1576.66 444.186 1580.93 445.329L1636.35 460.178C1640.62 461.322 1645 458.789 1646.15 454.521L1675.25 345.921Z" fill="#F7FBFF"/>
<path d="M1581.71 442.431L1580.93 445.329L1636.35 460.178L1637.12 457.28L1581.71 442.431ZM1578.17 436.307L1607.27 327.708C1607.99 325.041 1610.73 323.458 1613.4 324.172L1668.81 339.021C1671.48 339.736 1673.06 342.478 1672.35 345.145L1643.25 453.745C1642.53 456.412 1639.79 457.995 1637.12 457.28L1636.35 460.178L1636.75 460.274C1640.89 461.161 1645.04 458.655 1646.15 454.521L1675.25 345.921C1676.39 341.654 1673.86 337.267 1669.59 336.123L1614.17 321.275L1613.77 321.178C1609.63 320.291 1605.48 322.797 1604.37 326.931L1575.27 435.531L1575.18 435.932C1574.32 439.937 1576.64 443.953 1580.54 445.212L1580.93 445.329L1581.71 442.431C1579.04 441.716 1577.46 438.975 1578.17 436.307Z" fill="#2E2F33" fill-opacity="0.88"/>
<path d="M1636.34 397.782V394.532L1646.12 379.376H1651.19V394.438H1654.16V397.782H1651.19V402.001H1647.31V397.782H1636.34ZM1640.5 394.438H1647.37V384.001H1647.12L1640.5 394.282V394.438Z" fill="black"/>
<path d="M1624.75 402.313C1619.91 402.313 1616.47 399.688 1616.37 395.876H1620.47C1620.59 397.688 1622.41 398.876 1624.75 398.876C1627.25 398.876 1629.03 397.501 1629.03 395.501C1629.03 393.469 1627.28 392.001 1624.34 392.001H1622.31V388.876H1624.34C1626.75 388.876 1628.44 387.532 1628.41 385.563C1628.44 383.657 1627 382.376 1624.78 382.376C1622.66 382.376 1620.81 383.563 1620.75 385.469H1616.84C1616.94 381.657 1620.37 379.063 1624.81 379.063C1629.41 379.063 1632.37 381.876 1632.34 385.344C1632.37 387.876 1630.69 389.719 1628.22 390.219V390.407C1631.41 390.844 1633.22 392.876 1633.19 395.719C1633.22 399.532 1629.66 402.313 1624.75 402.313Z" fill="black"/>
<path d="M1595.47 397.782V394.532L1605.25 379.376H1610.31V394.438H1613.28V397.782H1610.31V402.001H1606.44V397.782H1595.47ZM1599.62 394.438H1606.5V384.001H1606.25L1599.62 394.282V394.438Z" fill="black"/>
</g>
<g id="baekun_hall_433">
<path d="M1754 366.536C1755.15 362.268 1752.61 357.881 1748.35 356.738L1683.17 339.275C1678.9 338.131 1674.52 340.664 1673.37 344.931L1644.27 453.531C1643.13 457.799 1645.66 462.186 1649.93 463.329L1715.11 480.793C1719.37 481.936 1723.76 479.403 1724.9 475.136L1754 366.536Z" fill="#F7FBFF"/>
<path d="M1650.71 460.431L1649.93 463.329L1715.11 480.793L1715.88 477.895L1650.71 460.431ZM1647.17 454.307L1676.27 345.708C1676.99 343.041 1679.73 341.458 1682.39 342.172L1747.57 359.636C1750.24 360.35 1751.82 363.092 1751.11 365.759L1722.01 474.359C1721.29 477.026 1718.55 478.609 1715.88 477.895L1715.11 480.793C1719.37 481.936 1723.76 479.403 1724.9 475.136L1754 366.536C1755.15 362.268 1752.61 357.881 1748.35 356.738L1683.17 339.275L1682.77 339.178C1678.63 338.291 1674.48 340.797 1673.37 344.931L1644.27 453.531L1644.18 453.932C1643.32 457.937 1645.64 461.953 1649.54 463.212L1649.93 463.329L1650.71 460.431C1648.04 459.716 1646.46 456.975 1647.17 454.307Z" fill="#2E2F33" fill-opacity="0.88"/>
<path d="M1718.97 421.312C1714.12 421.312 1710.69 418.687 1710.59 414.875H1714.69C1714.81 416.687 1716.62 417.875 1718.97 417.875C1721.47 417.875 1723.25 416.5 1723.25 414.5C1723.25 412.469 1721.5 411 1718.56 411H1716.53V407.875H1718.56C1720.97 407.875 1722.66 406.531 1722.62 404.562C1722.66 402.656 1721.22 401.375 1719 401.375C1716.87 401.375 1715.03 402.562 1714.97 404.469H1711.06C1711.16 400.656 1714.59 398.062 1719.03 398.062C1723.62 398.062 1726.59 400.875 1726.56 404.344C1726.59 406.875 1724.91 408.719 1722.44 409.219V409.406C1725.62 409.844 1727.44 411.875 1727.41 414.719C1727.44 418.531 1723.87 421.312 1718.97 421.312Z" fill="black"/>
<path d="M1698.75 421.312C1693.91 421.312 1690.47 418.687 1690.37 414.875H1694.47C1694.59 416.687 1696.41 417.875 1698.75 417.875C1701.25 417.875 1703.03 416.5 1703.03 414.5C1703.03 412.469 1701.28 411 1698.34 411H1696.31V407.875H1698.34C1700.75 407.875 1702.44 406.531 1702.41 404.562C1702.44 402.656 1701 401.375 1698.78 401.375C1696.66 401.375 1694.81 402.562 1694.75 404.469H1690.84C1690.94 400.656 1694.37 398.062 1698.81 398.062C1703.41 398.062 1706.37 400.875 1706.34 404.344C1706.37 406.875 1704.69 408.719 1702.22 409.219V409.406C1705.41 409.844 1707.22 411.875 1707.19 414.719C1707.22 418.531 1703.66 421.312 1698.75 421.312Z" fill="black"/>
<path d="M1669.47 416.781V413.531L1679.25 398.375H1684.31V413.437H1687.28V416.781H1684.31V421H1680.44V416.781H1669.47ZM1673.62 413.437H1680.5V403H1680.25L1673.62 413.281V413.437Z" fill="black"/>
</g>
<g id="baekun_hall_432">
<path d="M1832 387.536C1833.15 383.268 1830.61 378.881 1826.35 377.738L1761.17 360.275C1756.9 359.131 1752.52 361.664 1751.37 365.931L1722.27 474.531C1721.13 478.799 1723.66 483.186 1727.93 484.329L1793.11 501.793C1797.37 502.936 1801.76 500.403 1802.9 496.136L1832 387.536Z" fill="#F7FBFF"/>
<path d="M1728.71 481.431L1727.93 484.329L1793.11 501.793L1793.88 498.895L1728.71 481.431ZM1725.17 475.307L1754.27 366.708C1754.99 364.041 1757.73 362.458 1760.39 363.172L1825.57 380.636C1828.24 381.35 1829.82 384.092 1829.11 386.759L1800.01 495.359C1799.29 498.026 1796.55 499.609 1793.88 498.895L1793.11 501.793C1797.37 502.936 1801.76 500.403 1802.9 496.136L1832 387.536C1833.15 383.268 1830.61 378.881 1826.35 377.738L1761.17 360.275L1760.77 360.178C1756.63 359.291 1752.48 361.797 1751.37 365.931L1722.27 474.531L1722.18 474.932C1721.32 478.937 1723.64 482.953 1727.54 484.212L1727.93 484.329L1728.71 481.431C1726.04 480.716 1724.46 477.975 1725.17 475.307Z" fill="#2E2F33" fill-opacity="0.88"/>
<path d="M1789.75 442V439.062L1797.75 431.344C1800.03 429.062 1801.22 427.719 1801.22 425.812C1801.22 423.719 1799.56 422.375 1797.34 422.375C1795 422.375 1793.5 423.844 1793.53 426.125H1789.66C1789.62 421.844 1792.84 419.062 1797.37 419.062C1802 419.062 1805.12 421.812 1805.12 425.625C1805.12 428.187 1803.87 430.25 1799.44 434.437L1795.41 438.437V438.594H1805.47V442H1789.75Z" fill="black"/>
<path d="M1777.75 442.312C1772.91 442.312 1769.47 439.687 1769.37 435.875H1773.47C1773.59 437.687 1775.41 438.875 1777.75 438.875C1780.25 438.875 1782.03 437.5 1782.03 435.5C1782.03 433.469 1780.28 432 1777.34 432H1775.31V428.875H1777.34C1779.75 428.875 1781.44 427.531 1781.41 425.562C1781.44 423.656 1780 422.375 1777.78 422.375C1775.66 422.375 1773.81 423.562 1773.75 425.469H1769.84C1769.94 421.656 1773.37 419.062 1777.81 419.062C1782.41 419.062 1785.37 421.875 1785.34 425.344C1785.37 427.875 1783.69 429.719 1781.22 430.219V430.406C1784.41 430.844 1786.22 432.875 1786.19 435.719C1786.22 439.531 1782.66 442.312 1777.75 442.312Z" fill="black"/>
<path d="M1748.47 437.781V434.531L1758.25 419.375H1763.31V434.437H1766.28V437.781H1763.31V442H1759.44V437.781H1748.47ZM1752.62 434.437H1759.5V424H1759.25L1752.62 434.281V434.437Z" fill="black"/>
</g>
<g id="baekun_hall_431">
<path d="M1910 409.536C1911.15 405.268 1908.61 400.881 1904.35 399.738L1839.17 382.275C1834.9 381.131 1830.52 383.664 1829.37 387.931L1800.27 496.531C1799.13 500.799 1801.66 505.186 1805.93 506.329L1871.11 523.793C1875.37 524.936 1879.76 522.403 1880.9 518.136L1910 409.536Z" fill="#F7FBFF"/>
<path d="M1806.71 503.431L1805.93 506.329L1871.11 523.793L1871.88 520.895L1806.71 503.431ZM1803.17 497.307L1832.27 388.708C1832.99 386.041 1835.73 384.458 1838.39 385.172L1903.57 402.636C1906.24 403.35 1907.82 406.092 1907.11 408.759L1878.01 517.359C1877.29 520.026 1874.55 521.609 1871.88 520.895L1871.11 523.793C1875.37 524.936 1879.76 522.403 1880.9 518.136L1910 409.536C1911.15 405.268 1908.61 400.881 1904.35 399.738L1839.17 382.275L1838.77 382.178C1834.63 381.291 1830.48 383.797 1829.37 387.931L1800.27 496.531L1800.18 496.932C1799.32 500.937 1801.64 504.953 1805.54 506.212L1805.93 506.329L1806.71 503.431C1804.04 502.716 1802.46 499.975 1803.17 497.307Z" fill="#2E2F33" fill-opacity="0.88"/>
<path d="M1878.94 441.375V464H1874.84V445.344H1874.72L1869.44 448.719V445L1875.03 441.375H1878.94Z" fill="black"/>
<path d="M1857.75 464.312C1852.91 464.312 1849.47 461.687 1849.37 457.875H1853.47C1853.59 459.687 1855.41 460.875 1857.75 460.875C1860.25 460.875 1862.03 459.5 1862.03 457.5C1862.03 455.469 1860.28 454 1857.34 454H1855.31V450.875H1857.34C1859.75 450.875 1861.44 449.531 1861.41 447.562C1861.44 445.656 1860 444.375 1857.78 444.375C1855.66 444.375 1853.81 445.562 1853.75 447.469H1849.84C1849.94 443.656 1853.37 441.062 1857.81 441.062C1862.41 441.062 1865.37 443.875 1865.34 447.344C1865.37 449.875 1863.69 451.719 1861.22 452.219V452.406C1864.41 452.844 1866.22 454.875 1866.19 457.719C1866.22 461.531 1862.66 464.312 1857.75 464.312Z" fill="black"/>
<path d="M1828.47 459.781V456.531L1838.25 441.375H1843.31V456.437H1846.28V459.781H1843.31V464H1839.44V459.781H1828.47ZM1832.62 456.437H1839.5V446H1839.25L1832.62 456.281V456.437Z" fill="black"/>
</g>
<g id="baekun_hall_430">
<path d="M1988 431.536C1989.15 427.268 1986.61 422.881 1982.35 421.738L1917.17 404.275C1912.9 403.131 1908.52 405.664 1907.37 409.931L1878.27 518.531C1877.13 522.799 1879.66 527.186 1883.93 528.329L1949.11 545.793C1953.37 546.936 1957.76 544.403 1958.9 540.136L1988 431.536Z" fill="#F7FBFF"/>
<path d="M1884.71 525.431L1883.93 528.329L1949.11 545.793L1949.88 542.895L1884.71 525.431ZM1881.17 519.307L1910.27 410.708C1910.99 408.041 1913.73 406.458 1916.39 407.172L1981.57 424.636C1984.24 425.35 1985.82 428.092 1985.11 430.759L1956.01 539.359C1955.29 542.026 1952.55 543.609 1949.88 542.895L1949.11 545.793C1953.37 546.936 1957.76 544.403 1958.9 540.136L1988 431.536C1989.15 427.268 1986.61 422.881 1982.35 421.738L1917.17 404.275L1916.77 404.178C1912.63 403.291 1908.48 405.797 1907.37 409.931L1878.27 518.531L1878.18 518.932C1877.32 522.937 1879.64 526.953 1883.54 528.212L1883.93 528.329L1884.71 525.431C1882.04 524.716 1880.46 521.975 1881.17 519.307Z" fill="#2E2F33" fill-opacity="0.88"/>
<path d="M1953.09 486.312C1947.66 486.312 1944.41 482.094 1944.41 474.687C1944.41 467.312 1947.66 463.062 1953.09 463.062C1958.5 463.062 1961.78 467.312 1961.78 474.687C1961.78 482.094 1958.53 486.312 1953.09 486.312ZM1953.09 482.906C1955.94 482.906 1957.69 480.125 1957.69 474.687C1957.69 469.281 1955.91 466.437 1953.09 466.437C1950.28 466.437 1948.5 469.281 1948.5 474.687C1948.5 480.125 1950.25 482.906 1953.09 482.906Z" fill="black"/>
<path d="M1932.75 486.312C1927.91 486.312 1924.47 483.687 1924.37 479.875H1928.47C1928.59 481.687 1930.41 482.875 1932.75 482.875C1935.25 482.875 1937.03 481.5 1937.03 479.5C1937.03 477.469 1935.28 476 1932.34 476H1930.31V472.875H1932.34C1934.75 472.875 1936.44 471.531 1936.41 469.562C1936.44 467.656 1935 466.375 1932.78 466.375C1930.66 466.375 1928.81 467.562 1928.75 469.469H1924.84C1924.94 465.656 1928.37 463.062 1932.81 463.062C1937.41 463.062 1940.37 465.875 1940.34 469.344C1940.37 471.875 1938.69 473.719 1936.22 474.219V474.406C1939.41 474.844 1941.22 476.875 1941.19 479.719C1941.22 483.531 1937.66 486.312 1932.75 486.312Z" fill="black"/>
<path d="M1903.47 481.781V478.531L1913.25 463.375H1918.31V478.437H1921.28V481.781H1918.31V486H1914.44V481.781H1903.47ZM1907.62 478.437H1914.5V468H1914.25L1907.62 478.281V478.437Z" fill="black"/>
</g>
<g id="baekun_hall_429">
<path d="M1963.08 221.322C1964.22 217.054 1961.69 212.667 1957.42 211.524L1893.05 194.275C1888.78 193.131 1884.39 195.664 1883.25 199.931L1847.27 334.189C1846.13 338.457 1848.66 342.843 1852.93 343.987L1917.31 361.236C1921.57 362.379 1925.96 359.847 1927.1 355.579L1963.08 221.322Z" fill="#F7FBFF"/>
<path d="M1853.71 341.089L1852.93 343.987L1917.31 361.236L1918.08 358.338L1853.71 341.089ZM1850.17 334.965L1886.15 200.708C1886.86 198.041 1889.6 196.458 1892.27 197.172L1956.64 214.421C1959.31 215.136 1960.89 217.878 1960.18 220.545L1924.21 354.802C1923.49 357.469 1920.75 359.052 1918.08 358.338L1917.31 361.236L1917.71 361.333C1921.84 362.219 1926 359.713 1927.1 355.579L1963.08 221.322C1964.19 217.187 1961.84 212.942 1957.82 211.641L1957.42 211.524L1893.05 194.275C1888.78 193.131 1884.39 195.664 1883.25 199.931L1847.27 334.189C1846.13 338.457 1848.66 342.843 1852.93 343.987L1853.71 341.089C1851.04 340.374 1849.46 337.632 1850.17 334.965Z" fill="#2E2F33" fill-opacity="0.88"/>
<path d="M1924.84 266.063C1929.28 266.094 1933.66 268.719 1933.69 277C1933.69 284.813 1930.16 289.313 1924.59 289.313C1920.22 289.313 1917.22 286.594 1916.72 282.844H1920.75C1921.16 284.625 1922.53 285.782 1924.59 285.782C1927.87 285.782 1929.72 282.875 1929.75 278.032H1929.5C1928.34 280 1926.19 281.157 1923.69 281.157C1919.66 281.157 1916.53 278.094 1916.5 273.813C1916.5 269.375 1919.81 266.032 1924.84 266.063ZM1924.87 269.344C1922.34 269.344 1920.44 271.313 1920.47 273.719C1920.47 276.157 1922.28 278.063 1924.81 278.063C1927.31 278.063 1929.28 276.032 1929.25 273.688C1929.25 271.375 1927.41 269.344 1924.87 269.344Z" fill="black"/>
<path d="M1897.53 289V286.063L1905.53 278.344C1907.81 276.063 1909 274.719 1909 272.813C1909 270.719 1907.34 269.375 1905.12 269.375C1902.78 269.375 1901.28 270.844 1901.31 273.125H1897.44C1897.41 268.844 1900.62 266.063 1905.16 266.063C1909.78 266.063 1912.91 268.813 1912.91 272.625C1912.91 275.188 1911.66 277.25 1907.22 281.438L1903.19 285.438V285.594H1913.25V289H1897.53Z" fill="black"/>
<path d="M1876.47 284.782V281.532L1886.25 266.375H1891.31V281.438H1894.28V284.782H1891.31V289H1887.44V284.782H1876.47ZM1880.62 281.438H1887.5V271H1887.25L1880.62 281.282V281.438Z" fill="black"/>
</g>
<g id="baekun_hall_428">
<path d="M1886.08 200.322C1887.22 196.054 1884.69 191.667 1880.42 190.524L1816.05 173.275C1811.78 172.131 1807.39 174.664 1806.25 178.931L1770.27 313.189C1769.13 317.457 1771.66 321.843 1775.93 322.987L1840.31 340.236C1844.57 341.379 1848.96 338.847 1850.1 334.579L1886.08 200.322Z" fill="#F7FBFF"/>
<path d="M1776.71 320.089L1775.93 322.987L1840.31 340.236L1841.08 337.338L1776.71 320.089ZM1773.17 313.965L1809.15 179.708C1809.86 177.041 1812.6 175.458 1815.27 176.172L1879.64 193.421C1882.31 194.136 1883.89 196.878 1883.18 199.545L1847.21 333.802C1846.49 336.469 1843.75 338.052 1841.08 337.338L1840.31 340.236L1840.71 340.333C1844.84 341.219 1849 338.713 1850.1 334.579L1886.08 200.322C1887.19 196.187 1884.84 191.942 1880.82 190.641L1880.42 190.524L1816.05 173.275C1811.78 172.131 1807.39 174.664 1806.25 178.931L1770.27 313.189C1769.13 317.457 1771.66 321.843 1775.93 322.987L1776.71 320.089C1774.04 319.374 1772.46 316.632 1773.17 313.965Z" fill="#2E2F33" fill-opacity="0.88"/>
<path d="M1847.03 268.313C1842 268.313 1838.44 265.625 1838.44 261.938C1838.44 259.063 1840.56 256.719 1843.28 256.282V256.157C1840.91 255.657 1839.28 253.594 1839.28 251.125C1839.28 247.625 1842.56 245.063 1847.03 245.063C1851.47 245.063 1854.75 247.625 1854.75 251.125C1854.75 253.594 1853.09 255.657 1850.75 256.157V256.282C1853.47 256.719 1855.62 259.063 1855.62 261.938C1855.62 265.625 1852.03 268.313 1847.03 268.313ZM1847.03 265.094C1849.69 265.094 1851.44 263.657 1851.44 261.563C1851.44 259.438 1849.56 257.875 1847.03 257.875C1844.47 257.875 1842.59 259.438 1842.62 261.563C1842.59 263.657 1844.34 265.094 1847.03 265.094ZM1847.03 254.844C1849.22 254.844 1850.78 253.469 1850.78 251.5C1850.78 249.594 1849.25 248.25 1847.03 248.25C1844.78 248.25 1843.25 249.563 1843.25 251.5C1843.25 253.469 1844.81 254.844 1847.03 254.844Z" fill="black"/>
<path d="M1819.53 268V265.063L1827.53 257.344C1829.81 255.063 1831 253.719 1831 251.813C1831 249.719 1829.34 248.375 1827.12 248.375C1824.78 248.375 1823.28 249.844 1823.31 252.125H1819.44C1819.41 247.844 1822.62 245.063 1827.16 245.063C1831.78 245.063 1834.91 247.813 1834.91 251.625C1834.91 254.188 1833.66 256.25 1829.22 260.438L1825.19 264.438V264.594H1835.25V268H1819.53Z" fill="black"/>
<path d="M1798.47 263.782V260.532L1808.25 245.375H1813.31V260.438H1816.28V263.782H1813.31V268H1809.44V263.782H1798.47ZM1802.62 260.438H1809.5V250H1809.25L1802.62 260.282V260.438Z" fill="black"/>
</g>
<g id="baekun_hall_425">
<path d="M1731.51 157.63C1732.65 153.362 1730.12 148.975 1725.85 147.832L1511.05 90.2746C1506.78 89.131 1502.39 91.6637 1501.25 95.9314L1465.27 230.189C1464.13 234.457 1466.66 238.843 1470.93 239.987L1685.74 297.544C1690.01 298.688 1694.39 296.155 1695.54 291.887L1731.51 157.63Z" fill="#F7FBFF"/>
<path d="M1471.71 237.089L1470.93 239.987L1685.74 297.544L1686.51 294.646L1471.71 237.089ZM1468.17 230.965L1504.15 96.7078C1504.86 94.0406 1507.6 92.4577 1510.27 93.1723L1725.08 150.73C1727.74 151.444 1729.33 154.186 1728.61 156.853L1692.64 291.111C1691.92 293.778 1689.18 295.361 1686.51 294.646L1685.74 297.544L1686.14 297.641C1690.28 298.528 1694.43 296.022 1695.54 291.887L1731.51 157.63C1732.62 153.496 1730.28 149.25 1726.25 147.949L1725.85 147.832L1511.05 90.2746L1510.65 90.1785C1506.51 89.2912 1502.36 91.797 1501.25 95.9314L1465.27 230.189L1465.18 230.589C1464.32 234.594 1466.64 238.612 1470.54 239.871L1470.93 239.987L1471.71 237.089C1469.04 236.374 1467.46 233.632 1468.17 230.965Z" fill="#2E2F33" fill-opacity="0.88"/>
<path d="M1618.84 205.313C1614.31 205.313 1611 202.625 1610.87 198.875H1614.84C1614.97 200.719 1616.69 202.031 1618.84 202.031C1621.37 202.031 1623.19 200.188 1623.19 197.688C1623.19 195.094 1621.31 193.25 1618.72 193.25C1616.97 193.219 1615.69 193.844 1614.97 195.188H1611.19L1612.56 182.375H1625.94V185.781H1615.91L1615.22 191.781H1615.44C1616.31 190.781 1617.97 190.063 1619.81 190.063C1624.03 190.063 1627.12 193.219 1627.12 197.563C1627.12 202.094 1623.72 205.313 1618.84 205.313Z" fill="black"/>
<path d="M1591.53 205V202.063L1599.53 194.344C1601.81 192.063 1603 190.719 1603 188.813C1603 186.719 1601.34 185.375 1599.12 185.375C1596.78 185.375 1595.28 186.844 1595.31 189.125H1591.44C1591.41 184.844 1594.62 182.063 1599.16 182.063C1603.78 182.063 1606.91 184.813 1606.91 188.625C1606.91 191.188 1605.66 193.25 1601.22 197.438L1597.19 201.438V201.594H1607.25V205H1591.53Z" fill="black"/>
<path d="M1570.47 200.781V197.531L1580.25 182.375H1585.31V197.438H1588.28V200.781H1585.31V205H1581.44V200.781H1570.47ZM1574.62 197.438H1581.5V187H1581.25L1574.62 197.281V197.438Z" fill="black"/>
</g>
<g id="baekun_hall_424">
<path d="M1503.74 97.4993C1504.88 93.2316 1502.35 88.8449 1498.08 87.7014L1433.05 70.2746C1428.78 69.131 1424.39 71.6637 1423.25 75.9314L1387.27 210.189C1386.13 214.457 1388.66 218.843 1392.93 219.987L1457.97 237.414C1462.24 238.557 1466.62 236.025 1467.77 231.757L1503.74 97.4993Z" fill="#F7FBFF"/>
<path d="M1393.71 217.089L1392.93 219.987L1457.97 237.414L1458.75 234.516L1393.71 217.089ZM1390.17 210.965L1426.15 76.7079C1426.86 74.0406 1429.6 72.4577 1432.27 73.1723L1497.31 90.5992C1499.98 91.3139 1501.56 94.0556 1500.84 96.7229L1464.87 230.98C1464.15 233.647 1461.41 235.23 1458.75 234.516L1457.97 237.414L1458.37 237.511C1462.51 238.397 1466.66 235.891 1467.77 231.757L1503.74 97.4993C1504.88 93.2316 1502.35 88.8449 1498.08 87.7014L1433.05 70.2746L1432.65 70.1783C1428.51 69.2915 1424.36 71.7972 1423.25 75.9314L1387.27 210.189L1387.18 210.589C1386.32 214.594 1388.64 218.611 1392.54 219.87L1392.93 219.987L1393.71 217.089C1391.04 216.374 1389.46 213.632 1390.17 210.965Z" fill="#2E2F33" fill-opacity="0.88"/>
<path d="M1455.91 160.782V157.532L1465.69 142.375H1470.75V157.438H1473.72V160.782H1470.75V165H1466.87V160.782H1455.91ZM1460.06 157.438H1466.94V147H1466.69L1460.06 157.282V157.438Z" fill="black"/>
<path d="M1437.53 165V162.063L1445.53 154.344C1447.81 152.063 1449 150.719 1449 148.813C1449 146.719 1447.34 145.375 1445.12 145.375C1442.78 145.375 1441.28 146.844 1441.31 149.125H1437.44C1437.41 144.844 1440.62 142.063 1445.16 142.063C1449.78 142.063 1452.91 144.813 1452.91 148.625C1452.91 151.188 1451.66 153.25 1447.22 157.438L1443.19 161.438V161.594H1453.25V165H1437.53Z" fill="black"/>
<path d="M1416.47 160.782V157.532L1426.25 142.375H1431.31V157.438H1434.28V160.782H1431.31V165H1427.44V160.782H1416.47ZM1420.62 157.438H1427.5V147H1427.25L1420.62 157.282V157.438Z" fill="black"/>
</g>
<g id="baekun_hall_423">
<path d="M1426.97 75.7571C1428.11 71.4894 1425.58 67.1027 1421.31 65.9591L1359.05 49.2746C1354.78 48.131 1350.39 50.6637 1349.25 54.9314L1313.27 189.189C1312.13 193.457 1314.66 197.843 1318.93 198.987L1381.2 215.671C1385.47 216.815 1389.85 214.282 1391 210.015L1426.97 75.7571Z" fill="#F7FBFF"/>
<path d="M1319.71 196.089L1318.93 198.987L1381.2 215.671L1381.98 212.773L1319.71 196.089ZM1316.17 189.965L1352.15 55.708C1352.86 53.0406 1355.6 51.4577 1358.27 52.1724L1420.54 68.8569C1423.21 69.5716 1424.79 72.3133 1424.07 74.9806L1388.1 209.238C1387.38 211.905 1384.64 213.488 1381.98 212.773L1381.2 215.671C1385.47 216.815 1389.85 214.282 1391 210.015L1426.97 75.7571C1428.11 71.4894 1425.58 67.1027 1421.31 65.9591L1359.05 49.2746C1354.78 48.131 1350.39 50.6637 1349.25 54.9314L1313.27 189.189C1312.13 193.457 1314.66 197.843 1318.93 198.987L1319.71 196.089C1317.04 195.374 1315.46 192.632 1316.17 189.965Z" fill="#2E2F33" fill-opacity="0.88"/>
<path d="M1390.03 143.313C1385.19 143.313 1381.75 140.688 1381.66 136.875H1385.75C1385.88 138.688 1387.69 139.875 1390.03 139.875C1392.53 139.875 1394.31 138.5 1394.31 136.5C1394.31 134.469 1392.56 133 1389.63 133H1387.59V129.875H1389.63C1392.03 129.875 1393.72 128.532 1393.69 126.563C1393.72 124.657 1392.28 123.375 1390.06 123.375C1387.94 123.375 1386.09 124.563 1386.03 126.469H1382.13C1382.22 122.657 1385.66 120.063 1390.09 120.063C1394.69 120.063 1397.66 122.875 1397.63 126.344C1397.66 128.875 1395.97 130.719 1393.5 131.219V131.407C1396.69 131.844 1398.5 133.875 1398.47 136.719C1398.5 140.532 1394.94 143.313 1390.03 143.313Z" fill="black"/>
<path d="M1362.53 143V140.063L1370.53 132.344C1372.81 130.063 1374 128.719 1374 126.813C1374 124.719 1372.34 123.375 1370.13 123.375C1367.78 123.375 1366.28 124.844 1366.31 127.125H1362.44C1362.41 122.844 1365.63 120.063 1370.16 120.063C1374.78 120.063 1377.91 122.813 1377.91 126.625C1377.91 129.188 1376.66 131.25 1372.22 135.438L1368.19 139.438V139.594H1378.25V143H1362.53Z" fill="black"/>
<path d="M1341.47 138.782V135.532L1351.25 120.375H1356.31V135.438H1359.28V138.782H1356.31V143H1352.44V138.782H1341.47ZM1345.63 135.438H1352.5V125H1352.25L1345.63 135.282V135.438Z" fill="black"/>
</g>
<g id="baekun_hall_402">
<path d="M695.275 262.322C694.131 258.054 696.664 253.667 700.931 252.524L765.306 235.275C769.573 234.131 773.96 236.664 775.103 240.931L804.203 349.531C805.346 353.799 802.814 358.186 798.546 359.329L734.172 376.578C729.904 377.722 725.517 375.189 724.374 370.921L695.275 262.322Z" fill="#F7FBFF"/>
<path d="M797.769 356.431L798.546 359.329L734.172 376.578L733.395 373.68L797.769 356.431ZM801.304 350.308L772.205 241.708C771.491 239.041 768.749 237.458 766.082 238.172L701.708 255.421C699.041 256.136 697.458 258.878 698.172 261.545L727.272 370.145C727.986 372.812 730.728 374.395 733.395 373.68L734.172 376.578L733.771 376.674C729.633 377.561 725.482 375.056 724.374 370.921L695.275 262.322C694.167 258.187 696.509 253.942 700.536 252.641L700.931 252.524L765.306 235.275C769.573 234.131 773.96 236.664 775.103 240.931L804.203 349.531C805.346 353.799 802.814 358.186 798.546 359.329L797.769 356.431C800.436 355.717 802.019 352.975 801.304 350.308Z" fill="#2E2F33" fill-opacity="0.88"/>
<path d="M762.97 317V314.063L770.97 306.344C773.251 304.063 774.438 302.719 774.438 300.813C774.438 298.719 772.782 297.375 770.563 297.375C768.22 297.375 766.72 298.844 766.751 301.125H762.876C762.845 296.844 766.063 294.063 770.595 294.063C775.22 294.063 778.345 296.813 778.345 300.625C778.345 303.188 777.095 305.25 772.657 309.438L768.626 313.438V313.594H778.688V317H762.97Z" fill="black"/>
<path d="M750.876 317.313C745.438 317.313 742.188 313.094 742.188 305.688C742.188 298.313 745.438 294.063 750.876 294.063C756.282 294.063 759.563 298.313 759.563 305.688C759.563 313.094 756.313 317.313 750.876 317.313ZM750.876 313.907C753.72 313.907 755.47 311.125 755.47 305.688C755.47 300.282 753.688 297.438 750.876 297.438C748.063 297.438 746.282 300.282 746.282 305.688C746.282 311.125 748.032 313.907 750.876 313.907Z" fill="black"/>
<path d="M721.47 312.782V309.532L731.251 294.375H736.313V309.438H739.282V312.782H736.313V317H732.438V312.782H721.47ZM725.626 309.438H732.501V299H732.251L725.626 309.282V309.438Z" fill="black"/>
</g>
<g id="baekun_hall_403">
<path d="M620.275 282.887C619.131 278.619 621.664 274.232 625.931 273.089L688.682 256.275C692.95 255.131 697.337 257.664 698.48 261.931L727.579 370.531C728.723 374.799 726.19 379.186 721.923 380.329L659.172 397.143C654.904 398.287 650.517 395.754 649.374 391.486L620.275 282.887Z" fill="#F7FBFF"/>
<path d="M721.146 377.431L721.923 380.329L659.172 397.143L658.395 394.245L721.146 377.431ZM724.682 371.307L695.583 262.708C694.868 260.041 692.126 258.458 689.459 259.172L626.708 275.986C624.041 276.701 622.458 279.443 623.172 282.11L652.272 390.71C652.986 393.377 655.728 394.96 658.395 394.245L659.172 397.143C654.904 398.287 650.517 395.754 649.374 391.486L620.275 282.887C619.131 278.619 621.664 274.232 625.931 273.089L688.682 256.275L689.083 256.178C693.221 255.291 697.372 257.797 698.48 261.931L727.579 370.531L727.676 370.932C728.534 374.937 726.215 378.953 722.317 380.212L721.923 380.329L721.146 377.431C723.814 376.716 725.397 373.975 724.682 371.307Z" fill="#2E2F33" fill-opacity="0.88"/>
<path d="M694.188 337.313C689.345 337.313 685.907 334.688 685.813 330.876H689.907C690.032 332.688 691.845 333.876 694.188 333.876C696.688 333.876 698.47 332.501 698.47 330.501C698.47 328.47 696.72 327.001 693.782 327.001H691.751V323.876H693.782C696.188 323.876 697.876 322.532 697.845 320.563C697.876 318.657 696.438 317.376 694.22 317.376C692.095 317.376 690.251 318.563 690.188 320.47H686.282C686.376 316.657 689.813 314.063 694.251 314.063C698.845 314.063 701.813 316.876 701.782 320.345C701.813 322.876 700.126 324.72 697.657 325.22V325.407C700.845 325.845 702.657 327.876 702.626 330.72C702.657 334.532 699.095 337.313 694.188 337.313Z" fill="black"/>
<path d="M673.876 337.313C668.438 337.313 665.188 333.095 665.188 325.688C665.188 318.313 668.438 314.063 673.876 314.063C679.282 314.063 682.563 318.313 682.563 325.688C682.563 333.095 679.313 337.313 673.876 337.313ZM673.876 333.907C676.72 333.907 678.47 331.126 678.47 325.688C678.47 320.282 676.688 317.438 673.876 317.438C671.063 317.438 669.282 320.282 669.282 325.688C669.282 331.126 671.032 333.907 673.876 333.907Z" fill="black"/>
<path d="M644.47 332.782V329.532L654.251 314.376H659.313V329.438H662.282V332.782H659.313V337.001H655.438V332.782H644.47ZM648.626 329.438H655.501V319.001H655.251L648.626 329.282V329.438Z" fill="black"/>
</g>
<g id="baekun_hall_404">
<path d="M539.275 305.567C538.131 301.299 540.664 296.912 544.931 295.769L613.953 277.275C618.221 276.131 622.608 278.664 623.751 282.931L652.85 391.531C653.994 395.799 651.461 400.186 647.194 401.329L578.172 419.824C573.904 420.967 569.517 418.434 568.374 414.167L539.275 305.567Z" fill="#F7FBFF"/>
<path d="M646.417 398.431L647.194 401.329L578.172 419.824L577.395 416.926L646.417 398.431ZM649.953 392.307L620.854 283.708C620.139 281.041 617.397 279.458 614.73 280.172L545.708 298.667C543.041 299.381 541.458 302.123 542.172 304.79L571.272 413.39C571.986 416.057 574.728 417.64 577.395 416.926L578.172 419.824C573.904 420.967 569.517 418.434 568.374 414.167L539.275 305.567C538.131 301.299 540.664 296.912 544.931 295.769L613.953 277.275L614.354 277.178C618.492 276.291 622.643 278.797 623.751 282.931L652.85 391.531L652.947 391.932C653.805 395.937 651.486 399.953 647.588 401.212L647.194 401.329L646.417 398.431C649.085 397.716 650.668 394.975 649.953 392.307Z" fill="#2E2F33" fill-opacity="0.88"/>
<path d="M607.563 355.781V352.531L617.345 337.375H622.407V352.437H625.376V355.781H622.407V360H618.532V355.781H607.563ZM611.72 352.437H618.595V342H618.345L611.72 352.281V352.437Z" fill="black"/>
<path d="M595.876 360.312C590.438 360.312 587.188 356.093 587.188 348.687C587.188 341.312 590.438 337.062 595.876 337.062C601.282 337.062 604.563 341.312 604.563 348.687C604.563 356.093 601.313 360.312 595.876 360.312ZM595.876 356.906C598.72 356.906 600.47 354.125 600.47 348.687C600.47 343.281 598.688 340.437 595.876 340.437C593.063 340.437 591.282 343.281 591.282 348.687C591.282 354.125 593.032 356.906 595.876 356.906Z" fill="black"/>
<path d="M566.47 355.781V352.531L576.251 337.375H581.313V352.437H584.282V355.781H581.313V360H577.438V355.781H566.47ZM570.626 352.437H577.501V342H577.251L570.626 352.281V352.437Z" fill="black"/>
</g>
<g id="baekun_hall_405">
<path d="M457.275 328.567C456.131 324.299 458.664 319.912 462.931 318.769L531.953 300.275C536.221 299.131 540.608 301.664 541.751 305.931L570.85 414.531C571.994 418.799 569.461 423.186 565.194 424.329L496.172 442.824C491.904 443.967 487.517 441.434 486.374 437.167L457.275 328.567Z" fill="#F7FBFF"/>
<path d="M564.417 421.431L565.194 424.329L496.172 442.824L495.395 439.926L564.417 421.431ZM567.953 415.307L538.854 306.708C538.139 304.041 535.397 302.458 532.73 303.172L463.708 321.667C461.041 322.381 459.458 325.123 460.172 327.79L489.272 436.39C489.986 439.057 492.728 440.64 495.395 439.926L496.172 442.824C491.904 443.967 487.517 441.434 486.374 437.167L457.275 328.567C456.131 324.299 458.664 319.912 462.931 318.769L531.953 300.275L532.354 300.178C536.492 299.291 540.643 301.797 541.751 305.931L570.85 414.531L570.947 414.932C571.805 418.937 569.486 422.953 565.588 424.212L565.194 424.329L564.417 421.431C567.085 420.716 568.668 417.975 567.953 415.307Z" fill="#2E2F33" fill-opacity="0.88"/>
<path d="M534.001 383.312C529.47 383.312 526.157 380.625 526.032 376.875H530.001C530.126 378.718 531.845 380.031 534.001 380.031C536.532 380.031 538.345 378.187 538.345 375.687C538.345 373.093 536.47 371.25 533.876 371.25C532.126 371.218 530.845 371.843 530.126 373.187H526.345L527.72 360.375H541.095V363.781H531.063L530.376 369.781H530.595C531.47 368.781 533.126 368.062 534.97 368.062C539.188 368.062 542.282 371.218 542.282 375.562C542.282 380.093 538.876 383.312 534.001 383.312Z" fill="black"/>
<path d="M513.876 383.312C508.438 383.312 505.188 379.093 505.188 371.687C505.188 364.312 508.438 360.062 513.876 360.062C519.282 360.062 522.563 364.312 522.563 371.687C522.563 379.093 519.313 383.312 513.876 383.312ZM513.876 379.906C516.72 379.906 518.47 377.125 518.47 371.687C518.47 366.281 516.688 363.437 513.876 363.437C511.063 363.437 509.282 366.281 509.282 371.687C509.282 377.125 511.032 379.906 513.876 379.906Z" fill="black"/>
<path d="M484.47 378.781V375.531L494.251 360.375H499.313V375.437H502.282V378.781H499.313V383H495.438V378.781H484.47ZM488.626 375.437H495.501V365H495.251L488.626 375.281V375.437Z" fill="black"/>
</g>
<g id="baekun_hall_406">
<path d="M375.275 350.567C374.131 346.299 376.664 341.912 380.931 340.769L449.953 322.275C454.221 321.131 458.608 323.664 459.751 327.931L488.85 436.531C489.994 440.799 487.461 445.186 483.194 446.329L414.172 464.824C409.904 465.967 405.517 463.434 404.374 459.167L375.275 350.567Z" fill="#F7FBFF"/>
<path d="M482.417 443.431L483.194 446.329L414.172 464.824L413.395 461.926L482.417 443.431ZM485.953 437.307L456.854 328.708C456.139 326.041 453.397 324.458 450.73 325.172L381.708 343.667C379.041 344.381 377.458 347.123 378.172 349.79L407.272 458.39C407.986 461.057 410.728 462.64 413.395 461.926L414.172 464.824C409.904 465.967 405.517 463.434 404.374 459.167L375.275 350.567C374.131 346.299 376.664 341.912 380.931 340.769L449.953 322.275L450.354 322.178C454.492 321.291 458.643 323.797 459.751 327.931L488.85 436.531L488.947 436.932C489.805 440.937 487.486 444.953 483.588 446.212L483.194 446.329L482.417 443.431C485.085 442.716 486.668 439.975 485.953 437.307Z" fill="#2E2F33" fill-opacity="0.88"/>
<path d="M452.438 404.312C448.032 404.281 443.595 401.656 443.626 393.312C443.626 385.562 447.157 381.062 452.688 381.062C457.063 381.062 460.063 383.812 460.563 387.468H456.532C456.126 385.75 454.751 384.593 452.688 384.593C449.407 384.593 447.563 387.5 447.563 392.25H447.782C448.938 390.312 451.126 389.156 453.595 389.156C457.657 389.156 460.782 392.218 460.782 396.5C460.782 401 457.438 404.343 452.438 404.312ZM452.438 401.031C454.97 401.031 456.845 399.062 456.845 396.593C456.845 394.187 455.001 392.25 452.501 392.25C449.97 392.25 448.032 394.25 448.001 396.625C448.032 399 449.876 401.031 452.438 401.031Z" fill="black"/>
<path d="M431.876 404.312C426.438 404.312 423.188 400.093 423.188 392.687C423.188 385.312 426.438 381.062 431.876 381.062C437.282 381.062 440.563 385.312 440.563 392.687C440.563 400.093 437.313 404.312 431.876 404.312ZM431.876 400.906C434.72 400.906 436.47 398.125 436.47 392.687C436.47 387.281 434.688 384.437 431.876 384.437C429.063 384.437 427.282 387.281 427.282 392.687C427.282 398.125 429.032 400.906 431.876 400.906Z" fill="black"/>
<path d="M402.47 399.781V396.531L412.251 381.375H417.313V396.437H420.282V399.781H417.313V404H413.438V399.781H402.47ZM406.626 396.437H413.501V386H413.251L406.626 396.281V396.437Z" fill="black"/>
</g>
<g id="baekun_hall_407">
<path d="M297.275 371.536C296.131 367.268 298.664 362.881 302.931 361.738L368.106 344.275C372.373 343.131 376.76 345.664 377.903 349.931L407.003 458.531C408.146 462.799 405.614 467.186 401.346 468.329L336.172 485.793C331.904 486.936 327.517 484.403 326.374 480.136L297.275 371.536Z" fill="#F7FBFF"/>
<path d="M400.57 465.431L401.346 468.329L336.172 485.793L335.395 482.895L400.57 465.431ZM404.105 459.307L375.006 350.708C374.291 348.041 371.55 346.458 368.882 347.172L303.708 364.636C301.041 365.35 299.458 368.092 300.172 370.759L329.272 479.359C329.986 482.026 332.728 483.609 335.395 482.895L336.172 485.793C331.904 486.936 327.517 484.403 326.374 480.136L297.275 371.536C296.131 367.268 298.664 362.881 302.931 361.738L368.106 344.275L368.506 344.178C372.644 343.291 376.796 345.797 377.903 349.931L407.003 458.531L407.099 458.932C407.958 462.937 405.638 466.953 401.741 468.212L401.346 468.329L400.57 465.431C403.237 464.716 404.82 461.975 404.105 459.307Z" fill="#2E2F33" fill-opacity="0.88"/>
<path d="M365.188 426L375.001 406.937V406.781H363.626V403.375H379.22V406.844L369.407 426H365.188Z" fill="black"/>
<path d="M352.876 426.312C347.438 426.312 344.188 422.094 344.188 414.687C344.188 407.312 347.438 403.062 352.876 403.062C358.282 403.062 361.563 407.312 361.563 414.687C361.563 422.094 358.313 426.312 352.876 426.312ZM352.876 422.906C355.72 422.906 357.47 420.125 357.47 414.687C357.47 409.281 355.688 406.437 352.876 406.437C350.063 406.437 348.282 409.281 348.282 414.687C348.282 420.125 350.032 422.906 352.876 422.906Z" fill="black"/>
<path d="M323.47 421.781V418.531L333.251 403.375H338.313V418.437H341.282V421.781H338.313V426H334.438V421.781H323.47ZM327.626 418.437H334.501V408H334.251L327.626 418.281V418.437Z" fill="black"/>
</g>
<g id="baekun_hall_408">
<path d="M219.275 391.536C218.131 387.268 220.664 382.881 224.931 381.738L290.106 364.275C294.373 363.131 298.76 365.664 299.903 369.931L329.003 478.531C330.146 482.799 327.614 487.186 323.346 488.329L258.172 505.793C253.904 506.936 249.517 504.403 248.374 500.136L219.275 391.536Z" fill="#F7FBFF"/>
<path d="M322.57 485.431L323.346 488.329L258.172 505.793L257.395 502.895L322.57 485.431ZM326.105 479.307L297.006 370.708C296.291 368.041 293.55 366.458 290.882 367.172L225.708 384.636C223.041 385.35 221.458 388.092 222.172 390.759L251.272 499.359C251.986 502.026 254.728 503.609 257.395 502.895L258.172 505.793C253.904 506.936 249.517 504.403 248.374 500.136L219.275 391.536C218.131 387.268 220.664 382.881 224.931 381.738L290.106 364.275L290.506 364.178C294.644 363.291 298.796 365.797 299.903 369.931L329.003 478.531L329.099 478.932C329.958 482.937 327.638 486.953 323.741 488.212L323.346 488.329L322.57 485.431C325.237 484.716 326.82 481.975 326.105 479.307Z" fill="#2E2F33" fill-opacity="0.88"/>
<path d="M294.188 446.312C289.157 446.312 285.595 443.625 285.595 439.937C285.595 437.062 287.72 434.719 290.438 434.281V434.156C288.063 433.656 286.438 431.594 286.438 429.125C286.438 425.625 289.72 423.062 294.188 423.062C298.626 423.062 301.907 425.625 301.907 429.125C301.907 431.594 300.251 433.656 297.907 434.156V434.281C300.626 434.719 302.782 437.062 302.782 439.937C302.782 443.625 299.188 446.312 294.188 446.312ZM294.188 443.094C296.845 443.094 298.595 441.656 298.595 439.562C298.595 437.437 296.72 435.875 294.188 435.875C291.626 435.875 289.751 437.437 289.782 439.562C289.751 441.656 291.501 443.094 294.188 443.094ZM294.188 432.844C296.376 432.844 297.938 431.469 297.938 429.5C297.938 427.594 296.407 426.25 294.188 426.25C291.938 426.25 290.407 427.562 290.407 429.5C290.407 431.469 291.97 432.844 294.188 432.844Z" fill="black"/>
<path d="M273.876 446.312C268.438 446.312 265.188 442.094 265.188 434.687C265.188 427.312 268.438 423.062 273.876 423.062C279.282 423.062 282.563 427.312 282.563 434.687C282.563 442.094 279.313 446.312 273.876 446.312ZM273.876 442.906C276.72 442.906 278.47 440.125 278.47 434.687C278.47 429.281 276.688 426.437 273.876 426.437C271.063 426.437 269.282 429.281 269.282 434.687C269.282 440.125 271.032 442.906 273.876 442.906Z" fill="black"/>
<path d="M244.47 441.781V438.531L254.251 423.375H259.313V438.437H262.282V441.781H259.313V446H255.438V441.781H244.47ZM248.626 438.437H255.501V428H255.251L248.626 438.281V438.437Z" fill="black"/>
</g>
<g id="baekun_hall_409">
<path d="M140.275 413.536C139.131 409.268 141.664 404.881 145.931 403.738L211.106 386.275C215.373 385.131 219.76 387.664 220.903 391.931L250.003 500.531C251.146 504.799 248.614 509.186 244.346 510.329L179.172 527.793C174.904 528.936 170.517 526.403 169.374 522.136L140.275 413.536Z" fill="#F7FBFF"/>
<path d="M243.57 507.431L244.346 510.329L179.172 527.793L178.395 524.895L243.57 507.431ZM247.105 501.307L218.006 392.708C217.291 390.041 214.55 388.458 211.882 389.172L146.708 406.636C144.041 407.35 142.458 410.092 143.172 412.759L172.272 521.359C172.986 524.026 175.728 525.609 178.395 524.895L179.172 527.793C174.904 528.936 170.517 526.403 169.374 522.136L140.275 413.536C139.131 409.268 141.664 404.881 145.931 403.738L211.106 386.275L211.506 386.178C215.644 385.291 219.796 387.797 220.903 391.931L250.003 500.531L250.099 500.932C250.958 504.937 248.638 508.953 244.741 510.212L244.346 510.329L243.57 507.431C246.237 506.716 247.82 503.975 247.105 501.307Z" fill="#2E2F33" fill-opacity="0.88"/>
<path d="M215.001 445.062C219.438 445.094 223.813 447.719 223.845 456C223.845 463.812 220.313 468.312 214.751 468.312C210.376 468.312 207.376 465.594 206.876 461.844H210.907C211.313 463.625 212.688 464.781 214.751 464.781C218.032 464.781 219.876 461.875 219.907 457.031H219.657C218.501 459 216.345 460.156 213.845 460.156C209.813 460.156 206.688 457.094 206.657 452.812C206.657 448.375 209.97 445.031 215.001 445.062ZM215.032 448.344C212.501 448.344 210.595 450.312 210.626 452.719C210.626 455.156 212.438 457.062 214.97 457.062C217.47 457.062 219.438 455.031 219.407 452.687C219.407 450.375 217.563 448.344 215.032 448.344Z" fill="black"/>
<path d="M194.876 468.312C189.438 468.312 186.188 464.094 186.188 456.687C186.188 449.312 189.438 445.062 194.876 445.062C200.282 445.062 203.563 449.312 203.563 456.687C203.563 464.094 200.313 468.312 194.876 468.312ZM194.876 464.906C197.72 464.906 199.47 462.125 199.47 456.687C199.47 451.281 197.688 448.437 194.876 448.437C192.063 448.437 190.282 451.281 190.282 456.687C190.282 462.125 192.032 464.906 194.876 464.906Z" fill="black"/>
<path d="M165.47 463.781V460.531L175.251 445.375H180.313V460.437H183.282V463.781H180.313V468H176.438V463.781H165.47ZM169.626 460.437H176.501V450H176.251L169.626 460.281V460.437Z" fill="black"/>
</g>
<g id="baekun_hall_410">
<path d="M63.2746 435.536C62.131 431.268 64.6637 426.881 68.9314 425.738L134.106 408.275C138.373 407.131 142.76 409.664 143.903 413.931L173.003 522.531C174.146 526.799 171.614 531.186 167.346 532.329L102.172 549.793C97.904 550.936 93.5173 548.403 92.3738 544.136L63.2746 435.536Z" fill="#F7FBFF"/>
<path d="M166.57 529.431L167.346 532.329L102.172 549.793L101.395 546.895L166.57 529.431ZM170.105 523.307L141.006 414.708C140.291 412.041 137.55 410.458 134.882 411.172L69.7079 428.636C67.0406 429.35 65.4576 432.092 66.1724 434.759L95.2716 543.359C95.9863 546.026 98.7279 547.609 101.395 546.895L102.172 549.793C97.904 550.936 93.5173 548.403 92.3738 544.136L63.2746 435.536C62.131 431.268 64.6637 426.881 68.9314 425.738L134.106 408.275L134.506 408.178C138.644 407.291 142.796 409.797 143.903 413.931L173.003 522.531L173.099 522.932C173.958 526.937 171.638 530.953 167.741 532.212L167.346 532.329L166.57 529.431C169.237 528.716 170.82 525.975 170.105 523.307Z" fill="#2E2F33" fill-opacity="0.88"/>
<path d="M135.251 490.312C129.813 490.312 126.563 486.094 126.563 478.687C126.563 471.312 129.813 467.062 135.251 467.062C140.657 467.062 143.938 471.312 143.938 478.687C143.938 486.094 140.688 490.312 135.251 490.312ZM135.251 486.906C138.095 486.906 139.845 484.125 139.845 478.687C139.845 473.281 138.063 470.437 135.251 470.437C132.438 470.437 130.657 473.281 130.657 478.687C130.657 484.125 132.407 486.906 135.251 486.906Z" fill="black"/>
<path d="M121.407 467.375V490H117.313V471.344H117.188L111.907 474.719V471L117.501 467.375H121.407Z" fill="black"/>
<path d="M91.4697 485.781V482.531L101.251 467.375H106.313V482.437H109.282V485.781H106.313V490H102.438V485.781H91.4697ZM95.6259 482.437H102.501V472H102.251L95.6259 482.281V482.437Z" fill="black"/>
</g>
<g id="baekun_hall_4f_stairs_right">
<path d="M2037.74 242.9C2038.88 238.632 2036.35 234.246 2032.08 233.102L1969.28 216.275C1965.01 215.131 1960.62 217.664 1959.48 221.931L1929.27 334.659C1928.13 338.926 1930.66 343.313 1934.93 344.457L1997.73 361.284C2002 362.428 2006.39 359.895 2007.53 355.627L2037.74 242.9Z" fill="#D9FFE6"/>
<path d="M1935.71 341.559L1934.93 344.457L1997.73 361.284L1998.51 358.387L1935.71 341.559ZM1932.17 335.435L1962.38 222.708C1963.09 220.041 1965.83 218.458 1968.5 219.172L2031.3 236C2033.97 236.715 2035.55 239.456 2034.84 242.124L2004.63 354.851C2003.92 357.518 2001.18 359.101 1998.51 358.387L1997.73 361.284L1998.13 361.381C2002.14 362.239 2006.15 359.919 2007.41 356.022L2007.53 355.627L2037.74 242.9C2038.88 238.632 2036.35 234.246 2032.08 233.102L1969.28 216.275C1965.01 215.131 1960.62 217.664 1959.48 221.931L1929.27 334.659L1929.18 335.059C1928.32 339.064 1930.64 343.081 1934.54 344.34L1934.93 344.457L1935.71 341.559C1933.04 340.844 1931.46 338.103 1932.17 335.435Z" fill="#2E2F33" fill-opacity="0.88"/>
<path d="M2007.94 262.635C2006.89 262.248 2005.73 262.788 2005.34 263.837L2001.58 274.056H1980.28L1983.8 265.29C1984.22 264.252 1983.72 263.072 1982.68 262.655C1981.64 262.238 1980.46 262.743 1980.05 263.778L1960.43 312.582C1960.01 313.62 1960.52 314.801 1961.56 315.218C1961.8 315.317 1962.06 315.365 1962.31 315.365C1963.11 315.365 1963.87 314.885 1964.19 314.094L1968.22 304.071C1968.31 304.083 1968.38 304.122 1968.47 304.122H1990.52L1987.39 312.641C1987 313.689 1987.54 314.855 1988.59 315.239C1988.82 315.324 1989.05 315.365 1989.29 315.365C1990.11 315.365 1990.88 314.856 1991.19 314.037L2009.14 265.233C2009.53 264.185 2008.99 263.019 2007.94 262.635ZM1979.07 278.105H2000.09L1996.85 286.911H1975.11L1978.69 278.027C1978.82 278.052 1978.94 278.105 1979.07 278.105ZM1969.82 300.072L1973.51 290.904C1973.61 290.918 1973.69 290.961 1973.79 290.961H1995.36L1992.01 300.072H1969.82Z" fill="#6E4944"/>
</g>
<g id="baekun_hall_4f_stairs_main">
<path d="M921.525 54.5481C920.22 51.1361 921.389 47.3181 924.56 45.5042C938.045 37.7902 977.216 19 1038.81 19C1100.29 19 1141.95 37.7225 1156.54 45.4623C1159.95 47.2729 1161.23 51.3433 1159.75 54.9123L1146.24 87.4402C1144.6 91.3901 1140.14 93.3511 1136.12 91.8919L1086.54 73.8944C1081.32 72.0009 1075.81 75.8647 1075.81 81.4144V130C1075.81 134.418 1072.23 138 1067.81 138H1009.81C1005.39 138 1001.81 134.418 1001.81 130V81.5648C1001.81 75.9734 996.218 72.1068 990.986 74.0789L944.257 91.6922C940.137 93.2451 935.536 91.1768 933.963 87.0644L921.525 54.5481Z" fill="#D9FFE6"/>
<path d="M1067.81 135L1067.81 138H1009.81L1009.81 135H1067.81ZM1072.81 130V81.4141C1072.81 73.7834 1080.39 68.4709 1087.56 71.0742L1137.15 89.0723C1139.66 89.9841 1142.44 88.7583 1143.47 86.29L1156.98 53.7617C1157.92 51.4985 1157.07 49.1366 1155.13 48.1123C1140.85 40.5353 1099.67 22 1038.81 22C977.845 22 939.185 40.595 926.05 48.1084C924.284 49.1184 923.499 51.3107 924.327 53.4766L936.766 85.9922C937.749 88.5625 940.624 89.8554 943.199 88.8848L989.928 71.2715C997.122 68.5599 1004.81 73.8765 1004.81 81.5645V130C1004.81 132.761 1007.05 135 1009.81 135L1009.81 138C1005.39 138 1001.81 134.418 1001.81 130V81.5648C1001.81 75.9734 996.218 72.1068 990.986 74.0789L944.257 91.6922L943.869 91.8271C939.982 93.0721 935.769 91.1781 934.12 87.4443L933.963 87.0644L921.525 54.5481C920.261 51.2428 921.318 47.5559 924.269 45.6797L924.56 45.5042C938.045 37.7902 977.216 19 1038.81 19C1100.29 19 1141.95 37.7225 1156.54 45.4623C1159.95 47.2729 1161.23 51.3433 1159.75 54.9123L1146.24 87.4402L1146.08 87.8047C1144.38 91.3897 1140.29 93.1875 1136.5 92.0186L1136.12 91.8919L1086.54 73.8944C1081.32 72.0009 1075.81 75.8647 1075.81 81.4144V130C1075.81 134.418 1072.23 138 1067.81 138L1067.81 135C1070.57 135 1072.81 132.761 1072.81 130Z" fill="#2E2F33" fill-opacity="0.88"/>
<path d="M1064.94 46.6345C1063.89 46.2475 1062.73 46.7875 1062.34 47.836L1058.58 58.0555H1037.28L1040.81 49.2895C1041.22 48.2515 1040.72 47.071 1039.68 46.654C1038.64 46.237 1037.47 46.7425 1037.05 47.7775L1017.43 96.5815C1017.02 97.6195 1017.52 98.8 1018.56 99.217C1018.8 99.316 1019.06 99.364 1019.31 99.364C1020.11 99.364 1020.87 98.884 1021.19 98.0935L1025.22 88.0705C1025.31 88.0825 1025.38 88.1215 1025.47 88.1215H1047.52L1044.39 96.64C1044 97.6885 1044.54 98.854 1045.59 99.238C1045.82 99.3235 1046.06 99.364 1046.29 99.364C1047.11 99.364 1047.89 98.8555 1048.19 98.0365L1066.14 49.2325C1066.53 48.184 1065.99 47.0185 1064.94 46.6345ZM1036.07 62.104H1057.09L1053.85 70.9105H1032.11L1035.69 62.026C1035.82 62.0515 1035.94 62.104 1036.07 62.104ZM1026.83 84.0715L1030.51 74.9035C1030.61 74.917 1030.69 74.9605 1030.79 74.9605H1052.36L1049.01 84.0715H1026.83Z" fill="#6E4944"/>
</g>
<g id="baekun_hall_4f_stairs_left">
<path d="M9.27458 238.423C8.13104 234.155 10.6637 229.768 14.9314 228.625L83.4148 210.275C87.6825 209.131 92.0692 211.664 93.2128 215.931L123.418 328.659C124.561 332.926 122.029 337.313 117.761 338.457L49.2777 356.807C45.01 357.95 40.6233 355.418 39.4797 351.15L9.27458 238.423Z" fill="#D9FFE6"/>
<path d="M116.985 335.559L117.761 338.457L49.2777 356.807L48.5013 353.909L116.985 335.559ZM120.52 329.435L90.3152 216.708C89.6005 214.041 86.8587 212.458 84.1915 213.172L15.7079 231.522C13.0406 232.237 11.4577 234.979 12.1724 237.646L42.3776 350.374C43.0924 353.041 45.8341 354.624 48.5013 353.909L49.2777 356.807L48.8769 356.903C44.8721 357.761 40.8555 355.442 39.5966 351.544L39.4797 351.15L9.27458 238.423C8.13104 234.155 10.6637 229.768 14.9314 228.625L83.4148 210.275L83.8149 210.178C87.9534 209.291 92.1049 211.797 93.2128 215.931L123.418 328.659L123.514 329.059C124.373 333.064 122.054 337.081 118.156 338.34L117.761 338.457L116.985 335.559C119.652 334.844 121.235 332.103 120.52 329.435Z" fill="#2E2F33" fill-opacity="0.88"/>
<path d="M89.9409 256.634C88.8924 256.247 87.7284 256.787 87.3414 257.836L83.5809 268.055H62.2824L65.8059 259.289C66.2229 258.251 65.7204 257.071 64.6824 256.654C63.6444 256.237 62.4654 256.742 62.0484 257.777L42.4329 306.581C42.0159 307.619 42.5184 308.8 43.5564 309.217C43.8039 309.316 44.0589 309.364 44.3109 309.364C45.1134 309.364 45.8739 308.884 46.1904 308.093L50.2194 298.07C50.3064 298.082 50.3829 298.121 50.4729 298.121H72.5199L69.3864 306.64C69.0009 307.688 69.5379 308.854 70.5879 309.238C70.8189 309.323 71.0559 309.364 71.2869 309.364C72.1104 309.364 72.8859 308.855 73.1874 308.036L91.1424 259.232C91.5279 258.184 90.9909 257.018 89.9409 256.634ZM61.0749 272.104H82.0899L78.8499 280.91H57.1149L60.6864 272.026C60.8169 272.051 60.9369 272.104 61.0749 272.104ZM51.8259 294.071L55.5114 284.903C55.6074 284.917 55.6944 284.96 55.7949 284.96H77.3619L74.0094 294.071H51.8259Z" fill="#6E4944"/>
</g>
<g id="baekun_hall_4f_toilet_boy">
<path d="M722.275 45.4344C721.131 41.1667 723.664 36.7799 727.931 35.6364L796.459 17.2746C800.726 16.131 805.113 18.6637 806.257 22.9314L842.895 159.666C844.038 163.934 841.506 168.321 837.238 169.464L768.711 187.826C764.443 188.97 760.056 186.437 758.913 182.169L722.275 45.4344Z" fill="#FED9C4"/>
<path d="M836.461 166.567L837.238 169.464L768.711 187.826L767.934 184.929L836.461 166.567ZM839.997 160.443L803.359 23.708C802.644 21.0407 799.902 19.4577 797.235 20.1724L728.708 38.5342C726.041 39.2489 724.458 41.9906 725.172 44.6579L761.81 181.393C762.525 184.06 765.267 185.643 767.934 184.929L768.711 187.826L768.31 187.923C764.305 188.781 760.288 186.461 759.029 182.564L758.913 182.169L722.275 45.4344C721.167 41.3002 723.509 37.0546 727.536 35.7534L727.931 35.6364L796.459 17.2746C800.726 16.131 805.113 18.6637 806.257 22.9314L842.895 159.666L842.991 160.066C843.85 164.071 841.53 168.088 837.633 169.348L837.238 169.464L836.461 166.567C839.128 165.852 840.711 163.11 839.997 160.443Z" fill="#2E2F33" fill-opacity="0.88"/>
<path d="M795.751 78.2499H770.251C763.623 78.2499 758.251 83.6225 758.251 90.2499V115.75C758.251 122.377 763.623 127.75 770.251 127.75H795.751C802.378 127.75 807.751 122.377 807.751 115.75V90.2499C807.751 83.6225 802.378 78.2499 795.751 78.2499Z" fill="#3076D1"/>
<path d="M785.726 115.889L791.192 103.342C792.047 101.378 790.609 99.1809 788.467 99.1809H777.536C775.394 99.1809 773.954 101.378 774.811 103.342L780.277 115.889C781.315 118.271 784.691 118.271 785.729 115.889H785.726Z" fill="white"/>
<path d="M783.001 96.3879C785.228 96.3879 787.033 94.5827 787.033 92.3559C787.033 90.1291 785.228 88.3239 783.001 88.3239C780.774 88.3239 778.969 90.1291 778.969 92.3559C778.969 94.5827 780.774 96.3879 783.001 96.3879Z" fill="white"/>
</g>
<g id="baekun_hall_4f_toilet_girl">
<path d="M1352.18 54.2752C1353.33 49.9903 1350.77 45.5893 1346.48 44.4656L1271.96 24.954C1267.79 23.8638 1263.51 26.2633 1262.27 30.3843L1235.37 119.617C1234.07 123.934 1236.59 128.473 1240.95 129.649L1280.67 140.386C1284.98 141.55 1287.5 146.007 1286.28 150.296L1278.21 178.709C1276.99 182.997 1279.51 187.453 1283.82 188.617L1306.25 194.691C1310.52 195.847 1314.92 193.315 1316.07 189.039L1352.18 54.2752Z" fill="#FED9C4"/>
<path d="M1316.07 189.039L1352.18 54.2752C1353.33 49.9903 1350.77 45.5893 1346.48 44.4656L1271.96 24.954C1267.79 23.8638 1263.51 26.2633 1262.27 30.3843L1235.37 119.617C1234.07 123.934 1236.59 128.473 1240.95 129.649L1280.67 140.386C1284.98 141.55 1287.5 146.007 1286.28 150.296L1278.21 178.709C1276.99 182.997 1279.51 187.453 1283.82 188.617L1306.25 194.691L1307.03 191.795L1284.6 185.721C1281.91 184.993 1280.34 182.209 1281.1 179.529L1289.17 151.115C1290.84 145.218 1287.38 139.09 1281.46 137.49L1241.73 126.753C1239.01 126.018 1237.43 123.181 1238.25 120.483L1265.14 31.2502C1265.92 28.6747 1268.6 27.1753 1271.2 27.8566L1345.72 47.3678C1348.4 48.0702 1350 50.8208 1349.28 53.4989L1313.17 188.262C1312.45 190.935 1309.7 192.518 1307.03 191.795L1306.25 194.691C1310.52 195.847 1314.92 193.315 1316.07 189.039Z" fill="#2E2F33" fill-opacity="0.88"/>
<path d="M1306.75 65.2497H1281.25C1274.62 65.2497 1269.25 70.6223 1269.25 77.2497V102.75C1269.25 109.377 1274.62 114.75 1281.25 114.75H1306.75C1313.38 114.75 1318.75 109.377 1318.75 102.75V77.2497C1318.75 70.6223 1313.38 65.2497 1306.75 65.2497Z" fill="#E76D6D"/>
<path d="M1291.27 87.9762L1285.81 100.524C1284.95 102.487 1286.39 104.685 1288.53 104.685H1299.46C1301.6 104.685 1303.04 102.487 1302.19 100.524L1296.72 87.9762C1295.68 85.5942 1292.31 85.5942 1291.27 87.9762H1291.27Z" fill="white"/>
<path d="M1294 83.3802C1296.22 83.3802 1298.03 81.575 1298.03 79.3482C1298.03 77.1214 1296.22 75.3162 1294 75.3162C1291.77 75.3162 1289.97 77.1214 1289.97 79.3482C1289.97 81.575 1291.77 83.3802 1294 83.3802Z" fill="white"/>
</g>
</g>
</svg>
