<svg width="2469" height="1527" viewBox="0 0 2469 1527" fill="none" xmlns="http://www.w3.org/2000/svg">
<g id="jeongui_hall_floor_3">
<g id="Vector">
<path d="M4.00195 1047.01L170.502 645.51L612.502 837.504L423.502 416.004L594.502 343.504L626.502 329.004L575.502 209.004L800.002 126.01L786.502 75.5102C786.502 75.5102 1032 4.0147 1229 3.01019C1426 2.00568 1668.5 75.5102 1668.5 75.5102L1651 126.01L1884 209.004L1833 329.004L2040.5 416.004L1861 837.504L2303.5 645.51L2465 1047.01L1633 1402L1617.5 1371.5L1521.5 1411.51L1533.5 1440.51C1533.5 1440.51 1389 1490.51 1234.5 1492.51C1080 1494.51 935.502 1440.51 935.502 1440.51L945.002 1411.51L859.002 1375.51L845.002 1406.01L4.00195 1047.01Z" fill="#999999"/>
<path d="M1228.99 0.00975134C1327.81 -0.494138 1437.93 17.6833 1523.25 35.9502C1565.94 45.0878 1602.46 54.2562 1628.31 61.1416C1641.23 64.5844 1651.49 67.4572 1658.52 69.4697C1662.04 70.476 1664.75 71.2673 1666.58 71.8076C1667.49 72.0778 1668.19 72.2847 1668.66 72.4248C1668.89 72.4948 1669.07 72.5481 1669.19 72.584C1669.25 72.6019 1669.29 72.6158 1669.33 72.625C1669.34 72.6295 1669.35 72.6334 1669.36 72.6357C1669.36 72.6369 1669.37 72.6371 1669.37 72.6377C1669.37 72.6388 1669.36 72.6788 1668.5 75.5102L1669.37 72.6396L1672.36 73.5439L1654.81 124.182L1888.01 207.246L1836.94 327.402L2044.44 414.403L1866.71 831.757L2305.13 641.531L2468.88 1048.62L1631.6 1405.86L1616.09 1375.34L1525.42 1413.13L1537.49 1442.3L1534.48 1443.34L1533.5 1440.51C1534.45 1443.26 1534.48 1443.34 1534.48 1443.35C1534.48 1443.35 1534.48 1443.35 1534.47 1443.35C1534.47 1443.35 1534.46 1443.35 1534.45 1443.36C1534.43 1443.36 1534.41 1443.37 1534.37 1443.38C1534.3 1443.41 1534.19 1443.45 1534.05 1443.49C1533.77 1443.59 1533.35 1443.73 1532.79 1443.92C1531.69 1444.29 1530.05 1444.83 1527.91 1445.52C1523.64 1446.9 1517.37 1448.86 1509.36 1451.23C1493.35 1455.96 1470.4 1462.29 1442.61 1468.68C1387.05 1481.46 1312.08 1494.51 1234.54 1495.51C1156.96 1496.51 1081.94 1483.46 1026.37 1470.18C998.569 1463.53 975.609 1456.83 959.592 1451.78C951.583 1449.25 945.309 1447.14 941.031 1445.66C938.893 1444.92 937.253 1444.34 936.146 1443.94C935.592 1443.74 935.171 1443.58 934.888 1443.48C934.746 1443.43 934.638 1443.39 934.565 1443.36C934.529 1443.35 934.501 1443.34 934.482 1443.33C934.473 1443.33 934.465 1443.33 934.46 1443.32C934.458 1443.32 934.455 1443.32 934.454 1443.32C934.453 1443.32 934.468 1443.28 935.502 1440.51L934.452 1443.32L931.755 1442.31L941.289 1413.21L860.519 1379.4L846.51 1409.92L0.09375 1048.6L168.899 641.543L606.597 831.667L419.512 414.438L593.288 340.76L622.595 327.48L571.51 207.281L796.397 124.144L782.846 73.4502L785.663 72.6299L786.502 75.5102C785.663 72.6302 785.665 72.6295 785.667 72.6289C785.669 72.6283 785.672 72.627 785.676 72.626C785.684 72.6237 785.695 72.6205 785.71 72.6162C785.741 72.6073 785.786 72.5936 785.847 72.5762C785.967 72.5413 786.146 72.4899 786.383 72.4219C786.857 72.2856 787.562 72.0842 788.488 71.8213C790.341 71.2954 793.082 70.5244 796.638 69.5439C803.75 67.5829 814.127 64.7818 827.191 61.418C853.32 54.6906 890.209 45.7111 933.263 36.7002C1019.33 18.6862 1130.19 0.513571 1228.99 0.00975134ZM1229.02 6.00975C1130.82 6.51048 1020.42 24.5884 934.491 42.5732C891.545 51.5617 854.746 60.5191 828.688 67.2285C815.659 70.583 805.316 73.3753 798.233 75.3281C794.715 76.2983 792 77.0603 790.161 77.582L803.606 127.876L579.493 210.726L630.409 330.527L595.74 346.236L595.707 346.252L595.673 346.266L427.491 417.57L618.406 843.34L172.104 649.477L7.91016 1045.42L843.493 1402.1L857.485 1371.62L948.715 1409.81L939.258 1438.68C940.245 1439.03 941.493 1439.47 942.994 1439.99C947.223 1441.46 953.445 1443.55 961.396 1446.05C977.301 1451.07 1000.12 1457.74 1027.76 1464.34C1083.06 1477.56 1157.55 1490.51 1234.46 1489.51C1311.43 1488.51 1385.95 1475.56 1441.27 1462.84C1468.92 1456.48 1491.75 1450.18 1507.66 1445.48C1515.61 1443.12 1521.84 1441.17 1526.07 1439.81C1527.42 1439.37 1528.56 1439 1529.5 1438.69L1517.59 1409.89L1618.92 1367.67L1634.41 1398.14L2461.12 1045.4L2301.87 649.488L1855.29 843.251L2036.56 417.604L1829.06 330.604L1880 210.761L1647.19 127.838L1664.64 77.4912C1662.83 76.9578 1660.22 76.1963 1656.87 75.2383C1649.87 73.235 1639.65 70.372 1626.76 66.9394C1600.99 60.0741 1564.57 50.9303 1522 41.8174C1436.83 23.5832 1327.2 5.50917 1229.02 6.00975Z" fill="black"/>
</g>
<g id="Vector_2">
<path d="M2327.76 835.87C2329.49 839.937 2334.18 841.835 2338.25 840.108L2366.21 828.238C2370.28 826.512 2372.18 821.815 2370.45 817.748L2303.01 658.865C2301.28 654.798 2296.59 652.9 2292.52 654.627L2264.56 666.497C2260.49 668.223 2258.59 672.92 2260.32 676.987L2327.76 835.87Z" fill="#F7FBFF"/>
<path d="M2293.69 657.388L2292.52 654.627L2264.56 666.497L2265.73 669.259L2293.69 657.388ZM2300.25 660.037L2367.69 818.92C2368.77 821.462 2367.58 824.397 2365.04 825.477L2337.08 837.347C2334.54 838.426 2331.6 837.24 2330.52 834.698L2263.08 675.815C2262 673.273 2263.19 670.338 2265.73 669.259L2264.56 666.497C2260.49 668.223 2258.59 672.92 2260.32 676.987L2327.76 835.87C2329.43 839.81 2333.89 841.714 2337.87 840.26L2338.25 840.108L2366.21 828.238L2366.59 828.068C2370.4 826.219 2372.12 821.688 2370.45 817.748L2303.01 658.865L2302.84 658.49C2301.05 654.805 2296.75 653.067 2292.9 654.475L2292.52 654.627L2293.69 657.388C2296.23 656.309 2299.17 657.495 2300.25 660.037Z" fill="#2E2F33" fill-opacity="0.88"/>
</g>
<g id="void">
<path d="M684.514 284.87C682.846 280.791 684.771 276.154 688.872 274.541C735.036 256.385 990.182 160.72 1235.5 162.993C1480.35 165.262 1719.08 256.902 1762.87 274.564C1766.88 276.183 1768.74 280.698 1767.17 284.728L1537.25 873.556C1536.76 874.826 1535.94 875.949 1534.89 876.816L1353.35 1026.66C1351.92 1027.85 1350.12 1028.49 1348.26 1028.49H1104.14C1102.2 1028.49 1100.33 1027.79 1098.87 1026.52L927.556 876.737C926.62 875.919 925.888 874.894 925.417 873.743L684.514 284.87Z" fill="#646464"/>
<path d="M688.872 274.541C735.036 256.385 990.182 160.72 1235.5 162.993C1480.35 165.262 1719.08 256.902 1762.87 274.564C1766.88 276.183 1768.74 280.698 1767.17 284.728L1537.25 873.556L1537.16 873.793C1536.65 874.966 1535.88 876.003 1534.89 876.816L1353.35 1026.66L1353.08 1026.88C1351.78 1027.85 1350.22 1028.42 1348.61 1028.49L1348.26 1028.49L1348.26 1025.49C1349.42 1025.49 1350.54 1025.09 1351.44 1024.35L1532.98 874.503C1533.64 873.961 1534.15 873.259 1534.46 872.465L1764.38 283.637C1765.37 281.088 1764.18 278.33 1761.74 277.347C1718.03 259.712 1479.73 168.257 1235.47 165.993C990.774 163.726 736.089 259.195 689.97 277.333C687.46 278.321 686.242 281.17 687.29 283.733L928.194 872.608C928.488 873.327 928.946 873.967 929.53 874.479L1100.85 1024.26C1101.76 1025.05 1102.93 1025.49 1104.14 1025.49L1104.14 1028.49L1103.77 1028.48C1102.09 1028.41 1100.47 1027.8 1099.15 1026.75L1098.87 1026.52L927.556 876.737C926.62 875.919 925.888 874.894 925.417 873.743L684.514 284.87C682.898 280.919 684.655 276.442 688.494 274.7L688.872 274.541ZM1348.26 1025.49L1348.26 1028.49H1104.14L1104.14 1025.49H1348.26Z" fill="#2E2F33" fill-opacity="0.88"/>
</g>
<g id="jeongui_hall_311">
<path d="M385.524 940.386C383.798 944.453 379.101 946.35 375.034 944.624L100.876 828.251C96.8092 826.525 94.9117 821.828 96.638 817.761L164.08 658.878C165.806 654.811 170.503 652.913 174.57 654.639L448.728 771.013C452.795 772.739 454.692 777.435 452.966 781.502L385.524 940.386Z" fill="#F7FBFF"/>
<path d="M173.398 657.401L174.57 654.639L448.728 771.013L447.556 773.774L173.398 657.401ZM166.842 660.05L99.3995 818.933C98.3206 821.475 99.5065 824.411 102.048 825.49L376.206 941.863C378.748 942.942 381.683 941.756 382.762 939.214L450.204 780.33C451.283 777.788 450.097 774.853 447.556 773.774L448.728 771.013C452.795 772.739 454.692 777.435 452.966 781.502L385.524 940.386C383.798 944.453 379.101 946.35 375.034 944.624L100.876 828.251C96.8092 826.525 94.9117 821.828 96.638 817.761L164.08 658.878C165.806 654.811 170.503 652.913 174.57 654.639L173.398 657.401C170.856 656.322 167.921 657.508 166.842 660.05Z" fill="#2E2F33" fill-opacity="0.88"/>
<path d="M295.968 788.375V811H291.875V792.344H291.75L286.468 795.719V792L292.062 788.375H295.968Z" fill="black"/>
<path d="M281.281 788.375V811H277.187V792.344H277.062L271.781 795.719V792L277.375 788.375H281.281Z" fill="black"/>
<path d="M260.093 811.312C255.25 811.312 251.812 808.688 251.718 804.875H255.812C255.937 806.688 257.75 807.875 260.093 807.875C262.593 807.875 264.375 806.5 264.375 804.5C264.375 802.469 262.625 801 259.687 801H257.656V797.875H259.687C262.093 797.875 263.781 796.531 263.75 794.562C263.781 792.656 262.343 791.375 260.125 791.375C258 791.375 256.156 792.562 256.093 794.469H252.187C252.281 790.656 255.718 788.062 260.156 788.062C264.75 788.062 267.718 790.875 267.687 794.344C267.718 796.875 266.031 798.719 263.562 799.219V799.406C266.75 799.844 268.562 801.875 268.531 804.719C268.562 808.531 265 811.312 260.093 811.312Z" fill="black"/>
</g>
<g id="jeongui_hall_310">
<path d="M181.203 1113.86C179.477 1117.93 174.781 1119.82 170.714 1118.1L10.8762 1050.25C6.80916 1048.52 4.91167 1043.83 6.63803 1039.76L74.0801 880.877C75.8064 876.81 80.5029 874.912 84.57 876.639L244.407 944.485C248.474 946.212 250.372 950.908 248.645 954.975L181.203 1113.86Z" fill="#F7FBFF"/>
<path d="M83.3979 879.4L84.57 876.639L244.407 944.485L243.235 947.247L83.3979 879.4ZM76.8418 882.049L9.39979 1040.93C8.32082 1043.47 9.50677 1046.41 12.0487 1047.49L171.886 1115.34C174.428 1116.41 177.363 1115.23 178.442 1112.69L245.884 953.803C246.963 951.261 245.777 948.326 243.235 947.247L244.407 944.485L244.783 944.656C248.59 946.505 250.318 951.035 248.645 954.975L181.203 1113.86C179.477 1117.93 174.781 1119.82 170.714 1118.1L10.8762 1050.25C6.80916 1048.52 4.91167 1043.83 6.63803 1039.76L74.0801 880.877C75.8064 876.81 80.5029 874.912 84.57 876.639L83.3979 879.4C80.856 878.321 77.9207 879.507 76.8418 882.049Z" fill="#2E2F33" fill-opacity="0.88"/>
<path d="M145.124 1009.31C139.687 1009.31 136.437 1005.09 136.437 997.688C136.437 990.313 139.687 986.063 145.124 986.063C150.531 986.063 153.812 990.313 153.812 997.688C153.812 1005.09 150.562 1009.31 145.124 1009.31ZM145.124 1005.91C147.968 1005.91 149.718 1003.13 149.718 997.688C149.718 992.281 147.937 989.438 145.124 989.438C142.312 989.438 140.531 992.281 140.531 997.688C140.531 1003.13 142.281 1005.91 145.124 1005.91Z" fill="black"/>
<path d="M131.281 986.375V1009H127.187V990.344H127.062L121.781 993.719V990L127.374 986.375H131.281Z" fill="black"/>
<path d="M110.093 1009.31C105.249 1009.31 101.812 1006.69 101.718 1002.88H105.812C105.937 1004.69 107.749 1005.88 110.093 1005.88C112.593 1005.88 114.374 1004.5 114.374 1002.5C114.374 1000.47 112.624 999 109.687 999H107.656V995.875H109.687C112.093 995.875 113.781 994.531 113.749 992.563C113.781 990.656 112.343 989.375 110.124 989.375C107.999 989.375 106.156 990.563 106.093 992.469H102.187C102.281 988.656 105.718 986.063 110.156 986.063C114.749 986.063 117.718 988.875 117.687 992.344C117.718 994.875 116.031 996.719 113.562 997.219V997.406C116.749 997.844 118.562 999.875 118.531 1002.72C118.562 1006.53 114.999 1009.31 110.093 1009.31Z" fill="black"/>
</g>
<g id="jeongui_hall_305">
<path d="M504.871 1253.24C503.145 1257.3 498.448 1259.2 494.381 1257.48L182.876 1125.25C178.809 1123.52 176.912 1118.83 178.638 1114.76L246.08 955.876C247.806 951.809 252.503 949.912 256.57 951.638L568.075 1083.86C572.142 1085.59 574.039 1090.29 572.313 1094.35L504.871 1253.24Z" fill="#F7FBFF"/>
<path d="M255.398 954.4L256.57 951.638L568.075 1083.86L566.903 1086.63L255.398 954.4ZM248.842 957.048L181.4 1115.93C180.321 1118.47 181.507 1121.41 184.048 1122.49L495.553 1254.71C498.095 1255.79 501.03 1254.61 502.109 1252.07L569.551 1093.18C570.63 1090.64 569.444 1087.7 566.903 1086.63L568.075 1083.86C572.142 1085.59 574.039 1090.29 572.313 1094.35L504.871 1253.24C503.145 1257.3 498.448 1259.2 494.381 1257.48L182.876 1125.25C178.809 1123.52 176.912 1118.83 178.638 1114.76L246.08 955.876C247.806 951.809 252.503 949.912 256.57 951.638L255.398 954.4C252.856 953.321 249.921 954.507 248.842 957.048Z" fill="#2E2F33" fill-opacity="0.88"/>
<path d="M395.563 1116.31C391.032 1116.31 387.72 1113.62 387.595 1109.87H391.563C391.688 1111.72 393.407 1113.03 395.563 1113.03C398.095 1113.03 399.907 1111.19 399.907 1108.69C399.907 1106.09 398.032 1104.25 395.438 1104.25C393.688 1104.22 392.407 1104.84 391.688 1106.19H387.907L389.282 1093.37H402.657V1096.78H392.626L391.938 1102.78H392.157C393.032 1101.78 394.688 1101.06 396.532 1101.06C400.751 1101.06 403.845 1104.22 403.845 1108.56C403.845 1113.09 400.438 1116.31 395.563 1116.31Z" fill="black"/>
<path d="M375.438 1116.31C370.001 1116.31 366.751 1112.09 366.751 1104.69C366.751 1097.31 370.001 1093.06 375.438 1093.06C380.845 1093.06 384.126 1097.31 384.126 1104.69C384.126 1112.09 380.876 1116.31 375.438 1116.31ZM375.438 1112.91C378.282 1112.91 380.032 1110.12 380.032 1104.69C380.032 1099.28 378.251 1096.44 375.438 1096.44C372.626 1096.44 370.845 1099.28 370.845 1104.69C370.845 1110.12 372.595 1112.91 375.438 1112.91Z" fill="black"/>
<path d="M355.095 1116.31C350.251 1116.31 346.813 1113.69 346.72 1109.87H350.813C350.938 1111.69 352.751 1112.87 355.095 1112.87C357.595 1112.87 359.376 1111.5 359.376 1109.5C359.376 1107.47 357.626 1106 354.688 1106H352.657V1102.87H354.688C357.095 1102.87 358.782 1101.53 358.751 1099.56C358.782 1097.66 357.345 1096.37 355.126 1096.37C353.001 1096.37 351.157 1097.56 351.095 1099.47H347.188C347.282 1095.66 350.72 1093.06 355.157 1093.06C359.751 1093.06 362.72 1095.87 362.688 1099.34C362.72 1101.87 361.032 1103.72 358.563 1104.22V1104.41C361.751 1104.84 363.563 1106.87 363.532 1109.72C363.563 1113.53 360.001 1116.31 355.095 1116.31Z" fill="black"/>
</g>
<g id="jeongui_hall_315">
<path d="M465.496 973.933C463.77 978 459.073 979.897 455.006 978.171L386.876 949.252C382.809 947.525 380.912 942.829 382.638 938.762L450.08 779.878C451.806 775.811 456.503 773.914 460.57 775.64L528.7 804.559C532.767 806.286 534.665 810.982 532.938 815.049L465.496 973.933Z" fill="#F7FBFF"/>
<path d="M459.398 778.402L460.57 775.64L528.7 804.559L527.528 807.321L459.398 778.402ZM452.842 781.05L385.4 939.934C384.321 942.476 385.507 945.411 388.048 946.49L456.178 975.41C458.72 976.489 461.656 975.303 462.735 972.761L530.177 813.877C531.256 811.335 530.07 808.4 527.528 807.321L528.7 804.559L529.076 804.729C532.883 806.578 534.611 811.11 532.938 815.049L465.496 973.933C463.824 977.873 459.364 979.776 455.39 978.322L455.006 978.171L386.876 949.252C382.809 947.525 380.912 942.829 382.638 938.762L450.08 779.878C451.806 775.811 456.503 773.914 460.57 775.64L459.398 778.402C456.856 777.323 453.921 778.508 452.842 781.05Z" fill="#2E2F33" fill-opacity="0.88"/>
<path d="M475.812 888.312C471.28 888.312 467.968 885.625 467.843 881.875H471.812C471.937 883.719 473.655 885.031 475.812 885.031C478.343 885.031 480.155 883.188 480.155 880.688C480.155 878.094 478.28 876.25 475.687 876.25C473.937 876.219 472.655 876.844 471.937 878.188H468.155L469.53 865.375H482.905V868.781H472.874L472.187 874.781H472.405C473.28 873.781 474.937 873.062 476.78 873.062C480.999 873.062 484.093 876.219 484.093 880.562C484.093 885.094 480.687 888.312 475.812 888.312Z" fill="black"/>
<path d="M462.28 865.375V888H458.187V869.344H458.062L452.78 872.719V869L458.374 865.375H462.28Z" fill="black"/>
<path d="M441.093 888.312C436.249 888.312 432.812 885.688 432.718 881.875H436.812C436.937 883.688 438.749 884.875 441.093 884.875C443.593 884.875 445.374 883.5 445.374 881.5C445.374 879.469 443.624 878 440.687 878H438.655V874.875H440.687C443.093 874.875 444.78 873.531 444.749 871.562C444.78 869.656 443.343 868.375 441.124 868.375C438.999 868.375 437.155 869.562 437.093 871.469H433.187C433.28 867.656 436.718 865.062 441.155 865.062C445.749 865.062 448.718 867.875 448.687 871.344C448.718 873.875 447.03 875.719 444.562 876.219V876.406C447.749 876.844 449.562 878.875 449.53 881.719C449.562 885.531 445.999 888.312 441.093 888.312Z" fill="black"/>
</g>
<g id="jeongui_hall_316">
<path d="M786.213 1110.69C784.487 1114.75 779.79 1116.65 775.723 1114.92L467.876 984.252C463.809 982.525 461.912 977.829 463.638 973.762L531.08 814.878C532.806 810.811 537.503 808.914 541.57 810.64L849.417 941.313C853.484 943.04 855.381 947.736 853.655 951.803L786.213 1110.69Z" fill="#F7FBFF"/>
<path d="M540.398 813.402L541.57 810.64L849.417 941.313L848.245 944.075L540.398 813.402ZM533.842 816.05L466.4 974.934C465.321 977.476 466.507 980.411 469.048 981.49L776.895 1112.16C779.437 1113.24 782.372 1112.06 783.451 1109.51L850.893 950.631C851.972 948.089 850.786 945.154 848.245 944.075L849.417 941.313C853.484 943.04 855.381 947.736 853.655 951.803L786.213 1110.69C784.487 1114.75 779.79 1116.65 775.723 1114.92L467.876 984.252L467.501 984.081C463.694 982.232 461.966 977.702 463.638 973.762L531.08 814.878L531.251 814.503C533.04 810.819 537.341 809.081 541.187 810.488L541.57 810.64L540.398 813.402C537.856 812.323 534.921 813.509 533.842 816.05Z" fill="#2E2F33" fill-opacity="0.88"/>
<path d="M676.249 974.312C671.843 974.281 667.405 971.656 667.437 963.312C667.437 955.562 670.968 951.062 676.499 951.062C680.874 951.062 683.874 953.812 684.374 957.469H680.343C679.937 955.75 678.562 954.594 676.499 954.594C673.218 954.594 671.374 957.5 671.374 962.25H671.593C672.749 960.312 674.937 959.156 677.405 959.156C681.468 959.156 684.593 962.219 684.593 966.5C684.593 971 681.249 974.344 676.249 974.312ZM676.249 971.031C678.78 971.031 680.655 969.062 680.655 966.594C680.655 964.187 678.812 962.25 676.312 962.25C673.78 962.25 671.843 964.25 671.812 966.625C671.843 969 673.687 971.031 676.249 971.031Z" fill="black"/>
<path d="M662.28 951.375V974H658.187V955.344H658.062L652.78 958.719V955L658.374 951.375H662.28Z" fill="black"/>
<path d="M641.093 974.312C636.249 974.312 632.812 971.687 632.718 967.875H636.812C636.937 969.687 638.749 970.875 641.093 970.875C643.593 970.875 645.374 969.5 645.374 967.5C645.374 965.469 643.624 964 640.687 964H638.655V960.875H640.687C643.093 960.875 644.78 959.531 644.749 957.562C644.78 955.656 643.343 954.375 641.124 954.375C638.999 954.375 637.155 955.562 637.093 957.469H633.187C633.28 953.656 636.718 951.062 641.155 951.062C645.749 951.062 648.718 953.875 648.687 957.344C648.718 959.875 647.03 961.719 644.562 962.219V962.406C647.749 962.844 649.562 964.875 649.53 967.719C649.562 971.531 645.999 974.312 641.093 974.312Z" fill="black"/>
</g>
<g id="jeongui_hall_304">
<path d="M588.145 1289.05C586.418 1293.12 581.722 1295.02 577.655 1293.29L506.876 1263.25C502.809 1261.52 500.912 1256.83 502.638 1252.76L570.08 1093.88C571.806 1089.81 576.503 1087.91 580.57 1089.64L651.348 1119.68C655.416 1121.41 657.313 1126.1 655.587 1130.17L588.145 1289.05Z" fill="#F7FBFF"/>
<path d="M579.398 1092.4L580.57 1089.64L651.348 1119.68L650.176 1122.44L579.398 1092.4ZM572.842 1095.05L505.4 1253.93C504.321 1256.47 505.507 1259.41 508.049 1260.49L578.827 1290.53C581.369 1291.61 584.304 1290.42 585.383 1287.88L652.825 1129C653.904 1126.46 652.718 1123.52 650.176 1122.44L651.348 1119.68C655.416 1121.41 657.313 1126.1 655.587 1130.17L588.145 1289.05C586.418 1293.12 581.722 1295.02 577.655 1293.29L506.876 1263.25C502.809 1261.52 500.912 1256.83 502.638 1252.76L570.08 1093.88C571.806 1089.81 576.503 1087.91 580.57 1089.64L579.398 1092.4C576.856 1091.32 573.921 1092.51 572.842 1095.05Z" fill="#2E2F33" fill-opacity="0.88"/>
<path d="M590.124 1197.78V1194.53L599.905 1179.38H604.968V1194.44H607.937V1197.78H604.968V1202H601.093V1197.78H590.124ZM594.28 1194.44H601.155V1184H600.905L594.28 1194.28V1194.44Z" fill="black"/>
<path d="M578.437 1202.31C572.999 1202.31 569.749 1198.09 569.749 1190.69C569.749 1183.31 572.999 1179.06 578.437 1179.06C583.843 1179.06 587.124 1183.31 587.124 1190.69C587.124 1198.09 583.874 1202.31 578.437 1202.31ZM578.437 1198.91C581.28 1198.91 583.03 1196.13 583.03 1190.69C583.03 1185.28 581.249 1182.44 578.437 1182.44C575.624 1182.44 573.843 1185.28 573.843 1190.69C573.843 1196.13 575.593 1198.91 578.437 1198.91Z" fill="black"/>
<path d="M558.093 1202.31C553.249 1202.31 549.812 1199.69 549.718 1195.88H553.812C553.937 1197.69 555.749 1198.88 558.093 1198.88C560.593 1198.88 562.374 1197.5 562.374 1195.5C562.374 1193.47 560.624 1192 557.687 1192H555.655V1188.88H557.687C560.093 1188.88 561.78 1187.53 561.749 1185.56C561.78 1183.66 560.343 1182.38 558.124 1182.38C555.999 1182.38 554.155 1183.56 554.093 1185.47H550.187C550.28 1181.66 553.718 1179.06 558.155 1179.06C562.749 1179.06 565.718 1181.88 565.687 1185.34C565.718 1187.88 564.03 1189.72 561.562 1190.22V1190.41C564.749 1190.84 566.562 1192.88 566.53 1195.72C566.562 1199.53 562.999 1202.31 558.093 1202.31Z" fill="black"/>
</g>
<g id="jeongui_hall_303">
<path d="M671.145 1324.05C669.418 1328.12 664.722 1330.02 660.655 1328.29L589.876 1298.25C585.809 1296.52 583.912 1291.83 585.638 1287.76L653.08 1128.88C654.806 1124.81 659.503 1122.91 663.57 1124.64L734.348 1154.68C738.416 1156.41 740.313 1161.1 738.587 1165.17L671.145 1324.05Z" fill="#F7FBFF"/>
<path d="M662.398 1127.4L663.57 1124.64L734.348 1154.68L733.176 1157.44L662.398 1127.4ZM655.842 1130.05L588.4 1288.93C587.321 1291.47 588.507 1294.41 591.049 1295.49L661.827 1325.53C664.369 1326.61 667.304 1325.42 668.383 1322.88L735.825 1164C736.904 1161.46 735.718 1158.52 733.176 1157.44L734.348 1154.68C738.416 1156.41 740.313 1161.1 738.587 1165.17L671.145 1324.05C669.418 1328.12 664.722 1330.02 660.655 1328.29L589.876 1298.25C585.809 1296.52 583.912 1291.83 585.638 1287.76L653.08 1128.88C654.806 1124.81 659.503 1122.91 663.57 1124.64L662.398 1127.4C659.856 1126.32 656.921 1127.51 655.842 1130.05Z" fill="#2E2F33" fill-opacity="0.88"/>
<path d="M682.749 1237.31C677.906 1237.31 674.468 1234.69 674.374 1230.88H678.468C678.593 1232.69 680.406 1233.88 682.749 1233.88C685.249 1233.88 687.031 1232.5 687.031 1230.5C687.031 1228.47 685.281 1227 682.343 1227H680.312V1223.88H682.343C684.749 1223.88 686.437 1222.53 686.406 1220.56C686.437 1218.66 684.999 1217.38 682.781 1217.38C680.656 1217.38 678.812 1218.56 678.749 1220.47H674.843C674.937 1216.66 678.374 1214.06 682.812 1214.06C687.406 1214.06 690.374 1216.88 690.343 1220.34C690.374 1222.88 688.687 1224.72 686.218 1225.22V1225.41C689.406 1225.84 691.218 1227.88 691.187 1230.72C691.218 1234.53 687.656 1237.31 682.749 1237.31Z" fill="black"/>
<path d="M662.437 1237.31C656.999 1237.31 653.749 1233.09 653.749 1225.69C653.749 1218.31 656.999 1214.06 662.437 1214.06C667.843 1214.06 671.124 1218.31 671.124 1225.69C671.124 1233.09 667.874 1237.31 662.437 1237.31ZM662.437 1233.91C665.281 1233.91 667.031 1231.13 667.031 1225.69C667.031 1220.28 665.249 1217.44 662.437 1217.44C659.624 1217.44 657.843 1220.28 657.843 1225.69C657.843 1231.13 659.593 1233.91 662.437 1233.91Z" fill="black"/>
<path d="M642.093 1237.31C637.249 1237.31 633.812 1234.69 633.718 1230.88H637.812C637.937 1232.69 639.749 1233.88 642.093 1233.88C644.593 1233.88 646.374 1232.5 646.374 1230.5C646.374 1228.47 644.624 1227 641.687 1227H639.656V1223.88H641.687C644.093 1223.88 645.781 1222.53 645.749 1220.56C645.781 1218.66 644.343 1217.38 642.124 1217.38C639.999 1217.38 638.156 1218.56 638.093 1220.47H634.187C634.281 1216.66 637.718 1214.06 642.156 1214.06C646.749 1214.06 649.718 1216.88 649.687 1220.34C649.718 1222.88 648.031 1224.72 645.562 1225.22V1225.41C648.749 1225.84 650.562 1227.88 650.531 1230.72C650.562 1234.53 646.999 1237.31 642.093 1237.31Z" fill="black"/>
</g>
<g id="jeongui_hall_301">
<path d="M838.287 1393.35C836.561 1397.41 831.865 1399.31 827.798 1397.59L673.876 1332.25C669.809 1330.52 667.912 1325.83 669.638 1321.76L737.08 1162.88C738.806 1158.81 743.503 1156.91 747.57 1158.64L901.491 1223.97C905.558 1225.7 907.456 1230.4 905.73 1234.46L838.287 1393.35Z" fill="#F7FBFF"/>
<path d="M746.398 1161.4L747.57 1158.64L901.491 1223.97L900.319 1226.74L746.398 1161.4ZM739.842 1164.05L672.4 1322.93C671.321 1325.47 672.507 1328.41 675.048 1329.49L828.97 1394.82C831.512 1395.9 834.447 1394.72 835.526 1392.17L902.968 1233.29C904.047 1230.75 902.861 1227.81 900.319 1226.74L901.491 1223.97C905.558 1225.7 907.456 1230.4 905.73 1234.46L838.287 1393.35C836.561 1397.41 831.865 1399.31 827.798 1397.59L673.876 1332.25C669.809 1330.52 667.912 1325.83 669.638 1321.76L737.08 1162.88C738.806 1158.81 743.503 1156.91 747.57 1158.64L746.398 1161.4C743.856 1160.32 740.921 1161.51 739.842 1164.05Z" fill="#2E2F33" fill-opacity="0.88"/>
<path d="M811.718 1266.38V1289H807.625V1270.34H807.5L802.218 1273.72V1270L807.812 1266.38H811.718Z" fill="black"/>
<path d="M790.437 1289.31C785 1289.31 781.75 1285.09 781.75 1277.69C781.75 1270.31 785 1266.06 790.437 1266.06C795.843 1266.06 799.125 1270.31 799.125 1277.69C799.125 1285.09 795.875 1289.31 790.437 1289.31ZM790.437 1285.91C793.281 1285.91 795.031 1283.13 795.031 1277.69C795.031 1272.28 793.25 1269.44 790.437 1269.44C787.625 1269.44 785.843 1272.28 785.843 1277.69C785.843 1283.13 787.593 1285.91 790.437 1285.91Z" fill="black"/>
<path d="M770.093 1289.31C765.25 1289.31 761.812 1286.69 761.718 1282.88H765.812C765.937 1284.69 767.75 1285.88 770.093 1285.88C772.593 1285.88 774.375 1284.5 774.375 1282.5C774.375 1280.47 772.625 1279 769.687 1279H767.656V1275.88H769.687C772.093 1275.88 773.781 1274.53 773.75 1272.56C773.781 1270.66 772.343 1269.38 770.125 1269.38C768 1269.38 766.156 1270.56 766.093 1272.47H762.187C762.281 1268.66 765.718 1266.06 770.156 1266.06C774.75 1266.06 777.718 1268.88 777.687 1272.34C777.718 1274.88 776.031 1276.72 773.562 1277.22V1277.41C776.75 1277.84 778.562 1279.88 778.531 1282.72C778.562 1286.53 775 1289.31 770.093 1289.31Z" fill="black"/>
</g>
<g id="jeongui_hall_349">
<path d="M610.129 840.093C610.934 841.989 612.44 843.502 614.332 844.316L850.375 945.845C856.907 948.654 863.584 942.183 860.98 935.566L725.017 590.072C723.369 585.884 718.593 583.879 714.449 585.636L541.879 658.824C537.81 660.55 535.911 665.247 537.638 669.315L610.129 840.093Z" fill="#F7FBFF"/>
<path d="M537.638 669.315L610.129 840.093C610.934 841.989 612.44 843.502 614.332 844.316L850.375 945.845C856.907 948.654 863.584 942.183 860.98 935.566L725.017 590.072C723.369 585.884 718.593 583.879 714.449 585.636L541.879 658.824L543.05 661.586L715.621 588.398C718.211 587.301 721.195 588.553 722.225 591.17L858.189 936.665C859.816 940.8 855.643 944.845 851.561 943.089L615.517 841.56C614.335 841.051 613.394 840.106 612.89 838.921L540.4 668.143C539.32 665.6 540.507 662.664 543.05 661.586L541.879 658.824L541.504 658.995C537.818 660.783 536.079 665.084 537.487 668.931L537.638 669.315Z" fill="#2E2F33" fill-opacity="0.88"/>
<path d="M719.781 753.063C724.219 753.094 728.594 755.719 728.625 764C728.625 771.813 725.094 776.313 719.531 776.313C715.156 776.313 712.156 773.594 711.656 769.844H715.688C716.094 771.625 717.469 772.781 719.531 772.781C722.813 772.781 724.656 769.875 724.688 765.031H724.438C723.281 767 721.125 768.156 718.625 768.156C714.594 768.156 711.469 765.094 711.438 760.813C711.438 756.375 714.75 753.031 719.781 753.063ZM719.813 756.344C717.281 756.344 715.375 758.313 715.406 760.719C715.406 763.156 717.219 765.063 719.75 765.063C722.25 765.063 724.219 763.031 724.188 760.688C724.188 758.375 722.344 756.344 719.813 756.344Z" fill="black"/>
<path d="M690.688 771.781V768.531L700.469 753.375H705.531V768.438H708.5V771.781H705.531V776H701.656V771.781H690.688ZM694.844 768.438H701.719V758H701.469L694.844 768.281V768.438Z" fill="black"/>
<path d="M679.094 776.313C674.25 776.313 670.813 773.688 670.719 769.875H674.813C674.938 771.688 676.75 772.875 679.094 772.875C681.594 772.875 683.375 771.5 683.375 769.5C683.375 767.469 681.625 766 678.688 766H676.656V762.875H678.688C681.094 762.875 682.781 761.531 682.75 759.563C682.781 757.656 681.344 756.375 679.125 756.375C677 756.375 675.156 757.563 675.094 759.469H671.188C671.281 755.656 674.719 753.063 679.156 753.063C683.75 753.063 686.719 755.875 686.688 759.344C686.719 761.875 685.031 763.719 682.563 764.219V764.406C685.75 764.844 687.563 766.875 687.531 769.719C687.563 773.531 684 776.313 679.094 776.313Z" fill="black"/>
</g>
<g id="jeongui_hall_350">
<path d="M536.51 546.75C538.237 550.817 542.933 552.714 547 550.988L682.629 493.417C686.696 491.691 688.594 486.994 686.867 482.927L626.995 341.877C625.268 337.81 620.572 335.912 616.505 337.638L480.876 395.209C476.809 396.936 474.912 401.632 476.638 405.699L536.51 546.75Z" fill="#F7FBFF"/>
<path d="M617.677 340.4L616.505 337.638L480.876 395.209L482.048 397.971L617.677 340.4ZM624.233 343.049L684.106 484.099C685.185 486.641 683.999 489.577 681.457 490.656L545.828 548.227C543.286 549.305 540.351 548.12 539.272 545.578L479.4 404.527C478.321 401.985 479.507 399.05 482.048 397.971L480.876 395.209L480.501 395.379C476.694 397.228 474.966 401.759 476.638 405.699L536.51 546.75C538.237 550.817 542.933 552.714 547 550.988L682.629 493.417L683.003 493.247C686.811 491.398 688.54 486.867 686.867 482.927L626.995 341.877L626.824 341.502C625.035 337.817 620.734 336.079 616.887 337.487L616.505 337.638L617.677 340.4C620.219 339.321 623.154 340.507 624.233 343.049Z" fill="#2E2F33" fill-opacity="0.88"/>
<path d="M601.188 455.312C595.75 455.312 592.5 451.094 592.5 443.688C592.5 436.312 595.75 432.062 601.188 432.062C606.594 432.062 609.875 436.312 609.875 443.688C609.875 451.094 606.625 455.312 601.188 455.312ZM601.188 451.906C604.031 451.906 605.781 449.125 605.781 443.688C605.781 438.281 604 435.438 601.188 435.438C598.375 435.438 596.594 438.281 596.594 443.688C596.594 449.125 598.344 451.906 601.188 451.906Z" fill="black"/>
<path d="M581.125 455.312C576.594 455.312 573.281 452.625 573.156 448.875H577.125C577.25 450.719 578.969 452.031 581.125 452.031C583.656 452.031 585.469 450.188 585.469 447.688C585.469 445.094 583.594 443.25 581 443.25C579.25 443.219 577.969 443.844 577.25 445.188H573.469L574.844 432.375H588.219V435.781H578.188L577.5 441.781H577.719C578.594 440.781 580.25 440.062 582.094 440.062C586.312 440.062 589.406 443.219 589.406 447.562C589.406 452.094 586 455.312 581.125 455.312Z" fill="black"/>
<path d="M561.094 455.312C556.25 455.312 552.812 452.688 552.719 448.875H556.812C556.938 450.688 558.75 451.875 561.094 451.875C563.594 451.875 565.375 450.5 565.375 448.5C565.375 446.469 563.625 445 560.688 445H558.656V441.875H560.688C563.094 441.875 564.781 440.531 564.75 438.562C564.781 436.656 563.344 435.375 561.125 435.375C559 435.375 557.156 436.562 557.094 438.469H553.188C553.281 434.656 556.719 432.062 561.156 432.062C565.75 432.062 568.719 434.875 568.688 438.344C568.719 440.875 567.031 442.719 564.562 443.219V443.406C567.75 443.844 569.562 445.875 569.531 448.719C569.562 452.531 566 455.312 561.094 455.312Z" fill="black"/>
</g>
<g id="jeongui_hall_351">
<path d="M1920.99 546.749C1919.27 550.816 1914.57 552.714 1910.5 550.988L1774.88 493.417C1770.81 491.69 1768.91 486.994 1770.64 482.927L1830.51 341.876C1832.24 337.809 1836.93 335.912 1841 337.638L1976.63 395.209C1980.7 396.935 1982.59 401.632 1980.87 405.699L1920.99 546.749Z" fill="#F7FBFF"/>
<path d="M1839.83 340.399L1841 337.638L1976.63 395.209L1975.46 397.97L1839.83 340.399ZM1833.27 343.048L1773.4 484.099C1772.32 486.641 1773.51 489.576 1776.05 490.655L1911.68 548.226C1914.22 549.305 1917.15 548.119 1918.23 545.577L1978.11 404.527C1979.18 401.985 1978 399.049 1975.46 397.97L1976.63 395.209L1977 395.379C1980.81 397.228 1982.54 401.759 1980.87 405.699L1920.99 546.749C1919.27 550.816 1914.57 552.714 1910.5 550.988L1774.88 493.417L1774.5 493.246C1770.69 491.397 1768.97 486.867 1770.64 482.927L1830.51 341.876L1830.68 341.501C1832.47 337.817 1836.77 336.079 1840.62 337.486L1841 337.638L1839.83 340.399C1837.29 339.321 1834.35 340.507 1833.27 343.048Z" fill="#2E2F33" fill-opacity="0.88"/>
<path d="M1899.03 432.375V455H1894.94V436.344H1894.81L1889.53 439.719V436L1895.12 432.375H1899.03Z" fill="black"/>
<path d="M1878.12 455.313C1873.59 455.313 1870.28 452.625 1870.16 448.875H1874.12C1874.25 450.719 1875.97 452.031 1878.12 452.031C1880.66 452.031 1882.47 450.188 1882.47 447.688C1882.47 445.094 1880.59 443.25 1878 443.25C1876.25 443.219 1874.97 443.844 1874.25 445.188H1870.47L1871.84 432.375H1885.22V435.781H1875.19L1874.5 441.781H1874.72C1875.59 440.781 1877.25 440.063 1879.09 440.063C1883.31 440.063 1886.41 443.219 1886.41 447.563C1886.41 452.094 1883 455.313 1878.12 455.313Z" fill="black"/>
<path d="M1858.09 455.313C1853.25 455.313 1849.81 452.688 1849.72 448.875H1853.81C1853.94 450.688 1855.75 451.875 1858.09 451.875C1860.59 451.875 1862.37 450.5 1862.37 448.5C1862.37 446.469 1860.62 445 1857.69 445H1855.66V441.875H1857.69C1860.09 441.875 1861.78 440.531 1861.75 438.563C1861.78 436.656 1860.34 435.375 1858.12 435.375C1856 435.375 1854.16 436.563 1854.09 438.469H1850.19C1850.28 434.656 1853.72 432.063 1858.16 432.063C1862.75 432.063 1865.72 434.875 1865.69 438.344C1865.72 440.875 1864.03 442.719 1861.56 443.219V443.406C1864.75 443.844 1866.56 445.875 1866.53 448.719C1866.56 452.531 1863 455.313 1858.09 455.313Z" fill="black"/>
</g>
<g id="jeongui_hall_323">
<path d="M1097.74 1030.91C1098.98 1027.93 1101.89 1026 1105.11 1026H1346.15C1349.39 1026 1352.3 1027.95 1353.54 1030.93L1431.08 1217.8C1433.04 1222.53 1430.12 1227.82 1425.07 1228.61C1397.42 1232.94 1314.72 1244.5 1219.65 1244.5C1125.41 1244.5 1050.81 1232.49 1025.34 1227.82C1020.4 1226.91 1017.69 1221.71 1019.63 1217.08L1097.74 1030.91Z" fill="#F7FBFF"/>
<path d="M1346.46 1026.01C1349.57 1026.12 1352.34 1028.04 1353.54 1030.93L1431.08 1217.8C1433.04 1222.53 1430.12 1227.82 1425.07 1228.61L1422.32 1229.04C1392.24 1233.65 1311.75 1244.5 1219.65 1244.5L1219.65 1241.5C1314.51 1241.5 1397.03 1229.97 1424.61 1225.65C1427.71 1225.16 1429.54 1221.91 1428.31 1218.95L1350.77 1032.08C1350 1030.22 1348.17 1029 1346.15 1029H1105.11C1103.1 1029 1101.28 1030.21 1100.5 1032.07L1022.4 1218.24C1021.17 1221.16 1022.89 1224.32 1025.88 1224.87C1051.24 1229.52 1125.65 1241.5 1219.65 1241.5L1219.65 1244.5L1215.24 1244.49C1123.1 1244.13 1050.41 1232.42 1025.34 1227.82C1020.56 1226.94 1017.86 1222.03 1019.46 1217.52L1019.63 1217.08L1097.74 1030.91C1098.98 1027.93 1101.89 1026 1105.11 1026H1346.15L1346.46 1026.01Z" fill="#2E2F33" fill-opacity="0.88"/>
<path d="M1245.59 1146.31C1240.75 1146.31 1237.31 1143.69 1237.22 1139.88H1241.31C1241.44 1141.69 1243.25 1142.88 1245.59 1142.88C1248.09 1142.88 1249.88 1141.5 1249.88 1139.5C1249.88 1137.47 1248.13 1136 1245.19 1136H1243.16V1132.88H1245.19C1247.59 1132.88 1249.28 1131.53 1249.25 1129.56C1249.28 1127.66 1247.84 1126.38 1245.63 1126.38C1243.5 1126.38 1241.66 1127.56 1241.59 1129.47H1237.69C1237.78 1125.66 1241.22 1123.06 1245.66 1123.06C1250.25 1123.06 1253.22 1125.88 1253.19 1129.34C1253.22 1131.88 1251.53 1133.72 1249.06 1134.22V1134.41C1252.25 1134.84 1254.06 1136.88 1254.03 1139.72C1254.06 1143.53 1250.5 1146.31 1245.59 1146.31Z" fill="black"/>
<path d="M1218.09 1146V1143.06L1226.09 1135.34C1228.38 1133.06 1229.56 1131.72 1229.56 1129.81C1229.56 1127.72 1227.91 1126.38 1225.69 1126.38C1223.34 1126.38 1221.84 1127.84 1221.88 1130.12H1218C1217.97 1125.84 1221.19 1123.06 1225.72 1123.06C1230.34 1123.06 1233.47 1125.81 1233.47 1129.62C1233.47 1132.19 1232.22 1134.25 1227.78 1138.44L1223.75 1142.44V1142.59H1233.81V1146H1218.09Z" fill="black"/>
<path d="M1206.09 1146.31C1201.25 1146.31 1197.81 1143.69 1197.72 1139.88H1201.81C1201.94 1141.69 1203.75 1142.88 1206.09 1142.88C1208.59 1142.88 1210.38 1141.5 1210.38 1139.5C1210.38 1137.47 1208.63 1136 1205.69 1136H1203.66V1132.88H1205.69C1208.09 1132.88 1209.78 1131.53 1209.75 1129.56C1209.78 1127.66 1208.34 1126.38 1206.13 1126.38C1204 1126.38 1202.16 1127.56 1202.09 1129.47H1198.19C1198.28 1125.66 1201.72 1123.06 1206.16 1123.06C1210.75 1123.06 1213.72 1125.88 1213.69 1129.34C1213.72 1131.88 1212.03 1133.72 1209.56 1134.22V1134.41C1212.75 1134.84 1214.56 1136.88 1214.53 1139.72C1214.56 1143.53 1211 1146.31 1206.09 1146.31Z" fill="black"/>
</g>
<g id="jeongui_hall_347">
<path d="M997.6 1282.65C999.417 1278 1005.15 1275.84 1009.82 1277.62C1024.28 1283.13 1058.86 1293.12 1129.09 1298.71C1210.38 1305.18 1272.04 1304.78 1292.64 1304.39C1296.85 1304.31 1300.43 1307.45 1300.87 1311.64L1318.27 1478.33C1318.72 1482.69 1315.61 1486.56 1311.23 1486.85C1291.37 1488.15 1232.83 1490.28 1123.59 1481.21C1012.28 1471.97 958.783 1451.1 942.065 1443.26C938.537 1441.61 937.128 1437.55 938.545 1433.92L997.6 1282.65Z" fill="#F7FBFF"/>
<path d="M997.6 1282.65C999.417 1278 1005.15 1275.84 1009.82 1277.62C1024.28 1283.13 1058.86 1293.12 1129.09 1298.71C1210.38 1305.18 1272.04 1304.78 1292.64 1304.39L1293.04 1304.39C1297.07 1304.51 1300.44 1307.58 1300.87 1311.64L1318.27 1478.33C1318.72 1482.69 1315.61 1486.56 1311.23 1486.85L1309.25 1486.97C1288.01 1488.25 1231.28 1489.94 1128.67 1481.62L1123.59 1481.21C1015.76 1472.25 962.184 1452.39 943.741 1444.03L942.065 1443.26C938.537 1441.61 937.128 1437.55 938.545 1433.92L997.6 1282.65ZM1008.75 1280.43C1005.42 1279.16 1001.54 1280.81 1000.39 1283.74L941.34 1435.01C940.442 1437.31 941.374 1439.62 943.339 1440.54C959.68 1448.2 1012.82 1469 1123.84 1478.22C1232.95 1487.28 1291.34 1485.15 1311.03 1483.85C1313.63 1483.68 1315.57 1481.39 1315.28 1478.64L1297.88 1311.95C1297.61 1309.33 1295.36 1307.34 1292.7 1307.39C1272.02 1307.78 1210.26 1308.18 1128.85 1301.7C1058.43 1296.09 1023.55 1286.07 1008.75 1280.43Z" fill="#2E2F33" fill-opacity="0.88"/>
<path d="M1141.59 1394L1151.41 1374.94V1374.78H1140.03V1371.38H1155.62V1374.84L1145.81 1394H1141.59Z" fill="black"/>
<path d="M1119.69 1389.78V1386.53L1129.47 1371.38H1134.53V1386.44H1137.5V1389.78H1134.53V1394H1130.66V1389.78H1119.69ZM1123.84 1386.44H1130.72V1376H1130.47L1123.84 1386.28V1386.44Z" fill="black"/>
<path d="M1108.09 1394.31C1103.25 1394.31 1099.81 1391.69 1099.72 1387.88H1103.81C1103.94 1389.69 1105.75 1390.88 1108.09 1390.88C1110.59 1390.88 1112.37 1389.5 1112.37 1387.5C1112.37 1385.47 1110.62 1384 1107.69 1384H1105.66V1380.88H1107.69C1110.09 1380.88 1111.78 1379.53 1111.75 1377.56C1111.78 1375.66 1110.34 1374.38 1108.12 1374.38C1106 1374.38 1104.16 1375.56 1104.09 1377.47H1100.19C1100.28 1373.66 1103.72 1371.06 1108.16 1371.06C1112.75 1371.06 1115.72 1373.88 1115.69 1377.34C1115.72 1379.88 1114.03 1381.72 1111.56 1382.22V1382.41C1114.75 1382.84 1116.56 1384.88 1116.53 1387.72C1116.56 1391.53 1113 1394.31 1108.09 1394.31Z" fill="black"/>
</g>
<g id="jeongui_hall_346">
<path d="M1522.01 1418.81C1520.63 1414.83 1522.57 1410.47 1526.44 1408.82L1613.12 1372.03C1617.19 1370.3 1619.09 1365.61 1617.36 1361.54L1563.62 1234.94C1561.76 1230.56 1556.56 1228.73 1552.36 1230.94C1532.89 1241.22 1480.19 1267.88 1431.63 1282.21C1383.07 1296.54 1325.97 1301.05 1304.69 1302.29C1300.04 1302.56 1296.55 1306.65 1297.05 1311.27L1315.25 1480.61C1315.73 1485.06 1319.74 1488.25 1324.17 1487.64C1341.43 1485.27 1383.77 1479.08 1424.63 1470.21C1465.31 1461.38 1505.71 1449.61 1522.28 1444.61C1526.6 1443.31 1528.9 1438.69 1527.43 1434.43L1522.01 1418.81Z" fill="#F7FBFF"/>
<path d="M1614.6 1362.71C1615.68 1365.25 1614.49 1368.19 1611.95 1369.27L1525.27 1406.06C1519.94 1408.32 1517.28 1414.32 1519.17 1419.79L1524.59 1435.41C1525.52 1438.09 1524.07 1440.94 1521.41 1441.74C1504.87 1446.73 1464.56 1458.48 1423.99 1467.28C1383.25 1476.12 1341 1482.3 1323.76 1484.67C1321.03 1485.04 1318.53 1483.09 1318.23 1480.29L1300.03 1310.95C1299.72 1308.05 1301.92 1305.46 1304.86 1305.28C1326.19 1304.04 1383.58 1299.52 1432.48 1285.09C1481.34 1270.67 1534.26 1243.89 1553.76 1233.6C1556.41 1232.2 1559.69 1233.36 1560.86 1236.11L1614.6 1362.71ZM1563.62 1234.94L1563.44 1234.53C1561.5 1230.58 1556.75 1228.9 1552.75 1230.75L1552.36 1230.94C1532.89 1241.22 1480.19 1267.88 1431.63 1282.21L1429.34 1282.88C1381.3 1296.68 1325.64 1301.06 1304.69 1302.29C1300.19 1302.55 1296.77 1306.4 1297.01 1310.84L1297.05 1311.27L1315.25 1480.61C1315.71 1484.92 1319.49 1488.05 1323.76 1487.69L1324.17 1487.64C1340.89 1485.34 1381.15 1479.46 1420.79 1471.03L1424.63 1470.21C1465.31 1461.38 1505.71 1449.61 1522.28 1444.61C1526.6 1443.31 1528.9 1438.69 1527.43 1434.43L1522.01 1418.81C1520.67 1414.96 1522.45 1410.74 1526.08 1408.98L1526.44 1408.82L1613.12 1372.03C1617.19 1370.3 1619.09 1365.61 1617.36 1361.54L1563.62 1234.94Z" fill="#2E2F33" fill-opacity="0.88"/>
<path d="M1478.22 1370.31C1473.81 1370.28 1469.37 1367.66 1469.41 1359.31C1469.41 1351.56 1472.94 1347.06 1478.47 1347.06C1482.84 1347.06 1485.84 1349.81 1486.34 1353.47H1482.31C1481.91 1351.75 1480.53 1350.59 1478.47 1350.59C1475.19 1350.59 1473.34 1353.5 1473.34 1358.25H1473.56C1474.72 1356.31 1476.91 1355.16 1479.37 1355.16C1483.44 1355.16 1486.56 1358.22 1486.56 1362.5C1486.56 1367 1483.22 1370.34 1478.22 1370.31ZM1478.22 1367.03C1480.75 1367.03 1482.62 1365.06 1482.62 1362.59C1482.62 1360.19 1480.78 1358.25 1478.28 1358.25C1475.75 1358.25 1473.81 1360.25 1473.78 1362.63C1473.81 1365 1475.66 1367.03 1478.22 1367.03Z" fill="black"/>
<path d="M1448.69 1365.78V1362.53L1458.47 1347.38H1463.53V1362.44H1466.5V1365.78H1463.53V1370H1459.66V1365.78H1448.69ZM1452.84 1362.44H1459.72V1352H1459.47L1452.84 1362.28V1362.44Z" fill="black"/>
<path d="M1437.09 1370.31C1432.25 1370.31 1428.81 1367.69 1428.72 1363.88H1432.81C1432.94 1365.69 1434.75 1366.88 1437.09 1366.88C1439.59 1366.88 1441.37 1365.5 1441.37 1363.5C1441.37 1361.47 1439.62 1360 1436.69 1360H1434.66V1356.88H1436.69C1439.09 1356.88 1440.78 1355.53 1440.75 1353.56C1440.78 1351.66 1439.34 1350.38 1437.12 1350.38C1435 1350.38 1433.16 1351.56 1433.09 1353.47H1429.19C1429.28 1349.66 1432.72 1347.06 1437.16 1347.06C1441.75 1347.06 1444.72 1349.88 1444.69 1353.34C1444.72 1355.88 1443.03 1357.72 1440.56 1358.22V1358.41C1443.75 1358.84 1445.56 1360.88 1445.53 1363.72C1445.56 1367.53 1442 1370.31 1437.09 1370.31Z" fill="black"/>
</g>
<g id="jeongui_hall_343">
<path d="M1629.08 1393.21C1630.81 1397.28 1635.5 1399.17 1639.57 1397.45L1793.17 1332.25C1797.24 1330.52 1799.14 1325.83 1797.41 1321.76L1729.97 1162.87C1728.24 1158.81 1723.55 1156.91 1719.48 1158.64L1565.88 1223.84C1561.81 1225.56 1559.91 1230.26 1561.64 1234.33L1629.08 1393.21Z" fill="#F7FBFF"/>
<path d="M1720.65 1161.4L1719.48 1158.64L1565.88 1223.84L1567.05 1226.6L1720.65 1161.4ZM1727.21 1164.05L1794.65 1322.93C1795.73 1325.47 1794.54 1328.41 1792 1329.49L1638.4 1394.69C1635.86 1395.77 1632.92 1394.58 1631.84 1392.04L1564.4 1233.15C1563.32 1230.61 1564.51 1227.68 1567.05 1226.6L1565.88 1223.84L1565.5 1224.01C1561.69 1225.86 1559.97 1230.39 1561.64 1234.33L1629.08 1393.21C1630.81 1397.28 1635.5 1399.17 1639.57 1397.45L1793.17 1332.25C1797.24 1330.52 1799.14 1325.83 1797.41 1321.76L1729.97 1162.87C1728.24 1158.81 1723.55 1156.91 1719.48 1158.64L1720.65 1161.4C1723.19 1160.32 1726.13 1161.51 1727.21 1164.05Z" fill="#2E2F33" fill-opacity="0.88"/>
<path d="M1698.97 1289.31C1694.13 1289.31 1690.69 1286.69 1690.59 1282.88H1694.69C1694.81 1284.69 1696.63 1285.88 1698.97 1285.88C1701.47 1285.88 1703.25 1284.5 1703.25 1282.5C1703.25 1280.47 1701.5 1279 1698.56 1279H1696.53V1275.88H1698.56C1700.97 1275.88 1702.66 1274.53 1702.63 1272.56C1702.66 1270.66 1701.22 1269.38 1699 1269.38C1696.88 1269.38 1695.03 1270.56 1694.97 1272.47H1691.06C1691.16 1268.66 1694.59 1266.06 1699.03 1266.06C1703.63 1266.06 1706.59 1268.88 1706.56 1272.34C1706.59 1274.88 1704.91 1276.72 1702.44 1277.22V1277.41C1705.63 1277.84 1707.44 1279.88 1707.41 1282.72C1707.44 1286.53 1703.88 1289.31 1698.97 1289.31Z" fill="black"/>
<path d="M1669.69 1284.78V1281.53L1679.47 1266.38H1684.53V1281.44H1687.5V1284.78H1684.53V1289H1680.66V1284.78H1669.69ZM1673.84 1281.44H1680.72V1271H1680.47L1673.84 1281.28V1281.44Z" fill="black"/>
<path d="M1658.09 1289.31C1653.25 1289.31 1649.81 1286.69 1649.72 1282.88H1653.81C1653.94 1284.69 1655.75 1285.88 1658.09 1285.88C1660.59 1285.88 1662.38 1284.5 1662.38 1282.5C1662.38 1280.47 1660.63 1279 1657.69 1279H1655.66V1275.88H1657.69C1660.09 1275.88 1661.78 1274.53 1661.75 1272.56C1661.78 1270.66 1660.34 1269.38 1658.13 1269.38C1656 1269.38 1654.16 1270.56 1654.09 1272.47H1650.19C1650.28 1268.66 1653.72 1266.06 1658.16 1266.06C1662.75 1266.06 1665.72 1268.88 1665.69 1272.34C1665.72 1274.88 1664.03 1276.72 1661.56 1277.22V1277.41C1664.75 1277.84 1666.56 1279.88 1666.53 1282.72C1666.56 1286.53 1663 1289.31 1658.09 1289.31Z" fill="black"/>
</g>
<g id="jeongui_hall_342">
<path d="M1796.08 1324.05C1797.81 1328.12 1802.5 1330.02 1806.57 1328.29L1877.35 1298.25C1881.42 1296.52 1883.31 1291.83 1881.59 1287.76L1814.14 1128.88C1812.42 1124.81 1807.72 1122.91 1803.65 1124.64L1732.88 1154.68C1728.81 1156.41 1726.91 1161.1 1728.64 1165.17L1796.08 1324.05Z" fill="#F7FBFF"/>
<path d="M1804.83 1127.4L1803.65 1124.64L1732.88 1154.68L1734.05 1157.44L1804.83 1127.4ZM1811.38 1130.05L1878.82 1288.93C1879.9 1291.47 1878.72 1294.41 1876.18 1295.49L1805.4 1325.53C1802.86 1326.61 1799.92 1325.42 1798.84 1322.88L1731.4 1164C1730.32 1161.46 1731.51 1158.52 1734.05 1157.44L1732.88 1154.68C1728.81 1156.41 1726.91 1161.1 1728.64 1165.17L1796.08 1324.05C1797.81 1328.12 1802.5 1330.02 1806.57 1328.29L1877.35 1298.25C1881.42 1296.52 1883.31 1291.83 1881.59 1287.76L1814.14 1128.88C1812.42 1124.81 1807.72 1122.91 1803.65 1124.64L1804.83 1127.4C1807.37 1126.32 1810.3 1127.51 1811.38 1130.05Z" fill="#2E2F33" fill-opacity="0.88"/>
<path d="M1816.75 1237V1234.06L1824.75 1226.34C1827.03 1224.06 1828.22 1222.72 1828.22 1220.81C1828.22 1218.72 1826.56 1217.38 1824.34 1217.38C1822 1217.38 1820.5 1218.84 1820.53 1221.13H1816.66C1816.63 1216.84 1819.84 1214.06 1824.38 1214.06C1829 1214.06 1832.13 1216.81 1832.13 1220.63C1832.13 1223.19 1830.88 1225.25 1826.44 1229.44L1822.41 1233.44V1233.59H1832.47V1237H1816.75Z" fill="black"/>
<path d="M1795.69 1232.78V1229.53L1805.47 1214.38H1810.53V1229.44H1813.5V1232.78H1810.53V1237H1806.66V1232.78H1795.69ZM1799.84 1229.44H1806.72V1219H1806.47L1799.84 1229.28V1229.44Z" fill="black"/>
<path d="M1784.09 1237.31C1779.25 1237.31 1775.81 1234.69 1775.72 1230.88H1779.81C1779.94 1232.69 1781.75 1233.88 1784.09 1233.88C1786.59 1233.88 1788.38 1232.5 1788.38 1230.5C1788.38 1228.47 1786.63 1227 1783.69 1227H1781.66V1223.88H1783.69C1786.09 1223.88 1787.78 1222.53 1787.75 1220.56C1787.78 1218.66 1786.34 1217.38 1784.13 1217.38C1782 1217.38 1780.16 1218.56 1780.09 1220.47H1776.19C1776.28 1216.66 1779.72 1214.06 1784.16 1214.06C1788.75 1214.06 1791.72 1216.88 1791.69 1220.34C1791.72 1222.88 1790.03 1224.72 1787.56 1225.22V1225.41C1790.75 1225.84 1792.56 1227.88 1792.53 1230.72C1792.56 1234.53 1789 1237.31 1784.09 1237.31Z" fill="black"/>
</g>
<g id="jeongui_hall_340">
<path d="M1879.08 1289.05C1880.81 1293.12 1885.5 1295.02 1889.57 1293.29L1960.35 1263.25C1964.42 1261.52 1966.31 1256.83 1964.59 1252.76L1897.14 1093.88C1895.42 1089.81 1890.72 1087.91 1886.65 1089.64L1815.88 1119.68C1811.81 1121.41 1809.91 1126.1 1811.64 1130.17L1879.08 1289.05Z" fill="#F7FBFF"/>
<path d="M1887.83 1092.4L1886.65 1089.64L1815.88 1119.68L1817.05 1122.44L1887.83 1092.4ZM1894.38 1095.05L1961.82 1253.93C1962.9 1256.47 1961.72 1259.41 1959.18 1260.49L1888.4 1290.53C1885.86 1291.61 1882.92 1290.42 1881.84 1287.88L1814.4 1129C1813.32 1126.46 1814.51 1123.52 1817.05 1122.44L1815.88 1119.68C1811.81 1121.41 1809.91 1126.1 1811.64 1130.17L1879.08 1289.05C1880.81 1293.12 1885.5 1295.02 1889.57 1293.29L1960.35 1263.25C1964.42 1261.52 1966.31 1256.83 1964.59 1252.76L1897.14 1093.88C1895.42 1089.81 1890.72 1087.91 1886.65 1089.64L1887.83 1092.4C1890.37 1091.32 1893.3 1092.51 1894.38 1095.05Z" fill="#2E2F33" fill-opacity="0.88"/>
<path d="M1908.09 1202.31C1902.66 1202.31 1899.41 1198.09 1899.41 1190.69C1899.41 1183.31 1902.66 1179.06 1908.09 1179.06C1913.5 1179.06 1916.78 1183.31 1916.78 1190.69C1916.78 1198.09 1913.53 1202.31 1908.09 1202.31ZM1908.09 1198.91C1910.94 1198.91 1912.69 1196.13 1912.69 1190.69C1912.69 1185.28 1910.91 1182.44 1908.09 1182.44C1905.28 1182.44 1903.5 1185.28 1903.5 1190.69C1903.5 1196.13 1905.25 1198.91 1908.09 1198.91Z" fill="black"/>
<path d="M1878.69 1197.78V1194.53L1888.47 1179.38H1893.53V1194.44H1896.5V1197.78H1893.53V1202H1889.66V1197.78H1878.69ZM1882.84 1194.44H1889.72V1184H1889.47L1882.84 1194.28V1194.44Z" fill="black"/>
<path d="M1867.09 1202.31C1862.25 1202.31 1858.81 1199.69 1858.72 1195.88H1862.81C1862.94 1197.69 1864.75 1198.88 1867.09 1198.88C1869.59 1198.88 1871.38 1197.5 1871.38 1195.5C1871.38 1193.47 1869.63 1192 1866.69 1192H1864.66V1188.88H1866.69C1869.09 1188.88 1870.78 1187.53 1870.75 1185.56C1870.78 1183.66 1869.34 1182.38 1867.13 1182.38C1865 1182.38 1863.16 1183.56 1863.09 1185.47H1859.19C1859.28 1181.66 1862.72 1179.06 1867.16 1179.06C1871.75 1179.06 1874.72 1181.88 1874.69 1185.34C1874.72 1187.88 1873.03 1189.72 1870.56 1190.22V1190.41C1873.75 1190.84 1875.56 1192.88 1875.53 1195.72C1875.56 1199.53 1872 1202.31 1867.09 1202.31Z" fill="black"/>
</g>
<g id="jeongui_hall_339">
<path d="M1962.08 1253.54C1963.81 1257.61 1968.5 1259.5 1972.57 1257.78L2122.23 1194.25C2126.3 1192.52 2128.2 1187.83 2126.47 1183.76L2059.03 1024.88C2057.3 1020.81 2052.61 1018.91 2048.54 1020.64L1898.88 1084.16C1894.81 1085.89 1892.91 1090.59 1894.64 1094.65L1962.08 1253.54Z" fill="#F7FBFF"/>
<path d="M2049.71 1023.4L2048.54 1020.64L1898.88 1084.16L1900.05 1086.93L2049.71 1023.4ZM2056.27 1026.05L2123.71 1184.93C2124.79 1187.47 2123.6 1190.41 2121.06 1191.49L1971.4 1255.02C1968.86 1256.09 1965.92 1254.91 1964.84 1252.37L1897.4 1093.48C1896.32 1090.94 1897.51 1088.01 1900.05 1086.93L1898.88 1084.16C1894.81 1085.89 1892.91 1090.59 1894.64 1094.65L1962.08 1253.54C1963.75 1257.48 1968.21 1259.38 1972.19 1257.93L1972.57 1257.78L2122.23 1194.25L2122.61 1194.08C2126.41 1192.23 2128.14 1187.7 2126.47 1183.76L2059.03 1024.88L2058.86 1024.5C2057.07 1020.82 2052.77 1019.08 2048.92 1020.49L2048.54 1020.64L2049.71 1023.4C2052.25 1022.32 2055.19 1023.51 2056.27 1026.05Z" fill="#2E2F33" fill-opacity="0.88"/>
<path d="M2030.34 1127.06C2034.78 1127.09 2039.16 1129.72 2039.19 1138C2039.19 1145.81 2035.66 1150.31 2030.09 1150.31C2025.72 1150.31 2022.72 1147.59 2022.22 1143.84H2026.25C2026.66 1145.62 2028.03 1146.78 2030.09 1146.78C2033.38 1146.78 2035.22 1143.87 2035.25 1139.03H2035C2033.84 1141 2031.69 1142.16 2029.19 1142.16C2025.16 1142.16 2022.03 1139.09 2022 1134.81C2022 1130.37 2025.31 1127.03 2030.34 1127.06ZM2030.38 1130.34C2027.84 1130.34 2025.94 1132.31 2025.97 1134.72C2025.97 1137.16 2027.78 1139.06 2030.31 1139.06C2032.81 1139.06 2034.78 1137.03 2034.75 1134.69C2034.75 1132.37 2032.91 1130.34 2030.38 1130.34Z" fill="black"/>
<path d="M2010.31 1150.31C2005.47 1150.31 2002.03 1147.69 2001.94 1143.88H2006.03C2006.16 1145.69 2007.97 1146.88 2010.31 1146.88C2012.81 1146.88 2014.59 1145.5 2014.59 1143.5C2014.59 1141.47 2012.84 1140 2009.91 1140H2007.88V1136.88H2009.91C2012.31 1136.88 2014 1135.53 2013.97 1133.56C2014 1131.66 2012.56 1130.38 2010.34 1130.38C2008.22 1130.38 2006.38 1131.56 2006.31 1133.47H2002.41C2002.5 1129.66 2005.94 1127.06 2010.38 1127.06C2014.97 1127.06 2017.94 1129.88 2017.91 1133.34C2017.94 1135.88 2016.25 1137.72 2013.78 1138.22V1138.41C2016.97 1138.84 2018.78 1140.88 2018.75 1143.72C2018.78 1147.53 2015.22 1150.31 2010.31 1150.31Z" fill="black"/>
<path d="M1990.09 1150.31C1985.25 1150.31 1981.81 1147.69 1981.72 1143.88H1985.81C1985.94 1145.69 1987.75 1146.88 1990.09 1146.88C1992.59 1146.88 1994.38 1145.5 1994.38 1143.5C1994.38 1141.47 1992.63 1140 1989.69 1140H1987.66V1136.88H1989.69C1992.09 1136.88 1993.78 1135.53 1993.75 1133.56C1993.78 1131.66 1992.34 1130.38 1990.13 1130.38C1988 1130.38 1986.16 1131.56 1986.09 1133.47H1982.19C1982.28 1129.66 1985.72 1127.06 1990.16 1127.06C1994.75 1127.06 1997.72 1129.88 1997.69 1133.34C1997.72 1135.88 1996.03 1137.72 1993.56 1138.22V1138.41C1996.75 1138.84 1998.56 1140.88 1998.53 1143.72C1998.56 1147.53 1995 1150.31 1990.09 1150.31Z" fill="black"/>
</g>
<g id="jeongui_hall_338">
<path d="M2125.08 1183.99C2126.81 1188.05 2131.5 1189.95 2135.57 1188.23L2203.83 1159.25C2207.9 1157.52 2209.8 1152.83 2208.07 1148.76L2140.63 989.878C2138.9 985.811 2134.2 983.913 2130.14 985.639L2061.88 1014.61C2057.81 1016.34 2055.91 1021.04 2057.64 1025.1L2125.08 1183.99Z" fill="#F7FBFF"/>
<path d="M2131.31 988.401L2130.14 985.639L2061.88 1014.61L2063.05 1017.38L2131.31 988.401ZM2137.87 991.05L2205.31 1149.93C2206.39 1152.48 2205.2 1155.41 2202.66 1156.49L2134.4 1185.46C2131.86 1186.54 2128.92 1185.36 2127.84 1182.82L2060.4 1023.93C2059.32 1021.39 2060.51 1018.45 2063.05 1017.38L2061.88 1014.61L2061.5 1014.78C2057.69 1016.63 2055.97 1021.16 2057.64 1025.1L2125.08 1183.99C2126.81 1188.05 2131.5 1189.95 2135.57 1188.23L2203.83 1159.25C2207.9 1157.52 2209.8 1152.83 2208.07 1148.76L2140.63 989.878C2138.9 985.811 2134.2 983.913 2130.14 985.639L2131.31 988.401C2133.85 987.322 2136.79 988.508 2137.87 991.05Z" fill="#2E2F33" fill-opacity="0.88"/>
<path d="M2152.53 1098.31C2147.5 1098.31 2143.94 1095.63 2143.94 1091.94C2143.94 1089.06 2146.06 1086.72 2148.78 1086.28V1086.16C2146.41 1085.66 2144.78 1083.59 2144.78 1081.13C2144.78 1077.63 2148.06 1075.06 2152.53 1075.06C2156.97 1075.06 2160.25 1077.63 2160.25 1081.13C2160.25 1083.59 2158.59 1085.66 2156.25 1086.16V1086.28C2158.97 1086.72 2161.12 1089.06 2161.12 1091.94C2161.12 1095.63 2157.53 1098.31 2152.53 1098.31ZM2152.53 1095.09C2155.19 1095.09 2156.94 1093.66 2156.94 1091.56C2156.94 1089.44 2155.06 1087.88 2152.53 1087.88C2149.97 1087.88 2148.09 1089.44 2148.12 1091.56C2148.09 1093.66 2149.84 1095.09 2152.53 1095.09ZM2152.53 1084.84C2154.72 1084.84 2156.28 1083.47 2156.28 1081.5C2156.28 1079.59 2154.75 1078.25 2152.53 1078.25C2150.28 1078.25 2148.75 1079.56 2148.75 1081.5C2148.75 1083.47 2150.31 1084.84 2152.53 1084.84Z" fill="black"/>
<path d="M2132.31 1098.31C2127.47 1098.31 2124.03 1095.69 2123.94 1091.88H2128.03C2128.16 1093.69 2129.97 1094.88 2132.31 1094.88C2134.81 1094.88 2136.59 1093.5 2136.59 1091.5C2136.59 1089.47 2134.84 1088 2131.91 1088H2129.87V1084.88H2131.91C2134.31 1084.88 2136 1083.53 2135.97 1081.56C2136 1079.66 2134.56 1078.38 2132.34 1078.38C2130.22 1078.38 2128.37 1079.56 2128.31 1081.47H2124.41C2124.5 1077.66 2127.94 1075.06 2132.37 1075.06C2136.97 1075.06 2139.94 1077.88 2139.91 1081.34C2139.94 1083.88 2138.25 1085.72 2135.78 1086.22V1086.41C2138.97 1086.84 2140.78 1088.88 2140.75 1091.72C2140.78 1095.53 2137.22 1098.31 2132.31 1098.31Z" fill="black"/>
<path d="M2112.09 1098.31C2107.25 1098.31 2103.81 1095.69 2103.72 1091.88H2107.81C2107.94 1093.69 2109.75 1094.88 2112.09 1094.88C2114.59 1094.88 2116.37 1093.5 2116.37 1091.5C2116.37 1089.47 2114.62 1088 2111.69 1088H2109.66V1084.88H2111.69C2114.09 1084.88 2115.78 1083.53 2115.75 1081.56C2115.78 1079.66 2114.34 1078.38 2112.12 1078.38C2110 1078.38 2108.16 1079.56 2108.09 1081.47H2104.19C2104.28 1077.66 2107.72 1075.06 2112.16 1075.06C2116.75 1075.06 2119.72 1077.88 2119.69 1081.34C2119.72 1083.88 2118.03 1085.72 2115.56 1086.22V1086.41C2118.75 1086.84 2120.56 1088.88 2120.53 1091.72C2120.56 1095.53 2117 1098.31 2112.09 1098.31Z" fill="black"/>
</g>
<g id="jeongui_hall_337">
<path d="M2205.08 1149.99C2206.81 1154.05 2211.5 1155.95 2215.57 1154.23L2283.83 1125.25C2287.9 1123.52 2289.8 1118.83 2288.07 1114.76L2220.63 955.878C2218.9 951.811 2214.2 949.913 2210.14 951.639L2141.88 980.614C2137.81 982.341 2135.91 987.037 2137.64 991.104L2205.08 1149.99Z" fill="#F7FBFF"/>
<path d="M2211.31 954.401L2210.14 951.639L2141.88 980.614L2143.05 983.376L2211.31 954.401ZM2217.87 957.05L2285.31 1115.93C2286.39 1118.48 2285.2 1121.41 2282.66 1122.49L2214.4 1151.46C2211.86 1152.54 2208.92 1151.36 2207.84 1148.82L2140.4 989.932C2139.32 987.39 2140.51 984.455 2143.05 983.376L2141.88 980.614L2141.5 980.784C2137.69 982.633 2135.97 987.164 2137.64 991.104L2205.08 1149.99C2206.81 1154.05 2211.5 1155.95 2215.57 1154.23L2283.83 1125.25C2287.9 1123.52 2289.8 1118.83 2288.07 1114.76L2220.63 955.878C2218.9 951.811 2214.2 949.913 2210.14 951.639L2211.31 954.401C2213.85 953.322 2216.79 954.508 2217.87 957.05Z" fill="#2E2F33" fill-opacity="0.88"/>
<path d="M2227.16 1064L2236.97 1044.94V1044.78H2225.59V1041.38H2241.19V1044.84L2231.37 1064H2227.16Z" fill="black"/>
<path d="M2214.31 1064.31C2209.47 1064.31 2206.03 1061.69 2205.94 1057.88H2210.03C2210.16 1059.69 2211.97 1060.88 2214.31 1060.88C2216.81 1060.88 2218.59 1059.5 2218.59 1057.5C2218.59 1055.47 2216.84 1054 2213.91 1054H2211.87V1050.88H2213.91C2216.31 1050.88 2218 1049.53 2217.97 1047.56C2218 1045.66 2216.56 1044.38 2214.34 1044.38C2212.22 1044.38 2210.37 1045.56 2210.31 1047.47H2206.41C2206.5 1043.66 2209.94 1041.06 2214.37 1041.06C2218.97 1041.06 2221.94 1043.88 2221.91 1047.34C2221.94 1049.88 2220.25 1051.72 2217.78 1052.22V1052.41C2220.97 1052.84 2222.78 1054.88 2222.75 1057.72C2222.78 1061.53 2219.22 1064.31 2214.31 1064.31Z" fill="black"/>
<path d="M2194.09 1064.31C2189.25 1064.31 2185.81 1061.69 2185.72 1057.88H2189.81C2189.94 1059.69 2191.75 1060.88 2194.09 1060.88C2196.59 1060.88 2198.37 1059.5 2198.37 1057.5C2198.37 1055.47 2196.62 1054 2193.69 1054H2191.66V1050.88H2193.69C2196.09 1050.88 2197.78 1049.53 2197.75 1047.56C2197.78 1045.66 2196.34 1044.38 2194.12 1044.38C2192 1044.38 2190.16 1045.56 2190.09 1047.47H2186.19C2186.28 1043.66 2189.72 1041.06 2194.16 1041.06C2198.75 1041.06 2201.72 1043.88 2201.69 1047.34C2201.72 1049.88 2200.03 1051.72 2197.56 1052.22V1052.41C2200.75 1052.84 2202.56 1054.88 2202.53 1057.72C2202.56 1061.53 2199 1064.31 2194.09 1064.31Z" fill="black"/>
</g>
<g id="jeongui_hall_335">
<path d="M2285.08 1113.89C2286.81 1117.95 2291.5 1119.85 2295.57 1118.12L2455.47 1050.25C2459.54 1048.52 2461.43 1043.83 2459.71 1039.76L2392.26 880.878C2390.54 876.81 2385.84 874.913 2381.77 876.639L2221.88 944.512C2217.81 946.239 2215.91 950.935 2217.64 955.002L2285.08 1113.89Z" fill="#F7FBFF"/>
<path d="M2382.95 879.401L2381.77 876.639L2221.88 944.512L2223.05 947.274L2382.95 879.401ZM2389.5 882.05L2456.95 1040.93C2458.02 1043.47 2456.84 1046.41 2454.3 1047.49L2294.4 1115.36C2291.86 1116.44 2288.92 1115.26 2287.84 1112.71L2220.4 953.83C2219.32 951.288 2220.51 948.353 2223.05 947.274L2221.88 944.512C2217.81 946.239 2215.91 950.935 2217.64 955.002L2285.08 1113.89C2286.81 1117.95 2291.5 1119.85 2295.57 1118.12L2455.47 1050.25L2455.84 1050.08C2459.65 1048.23 2461.38 1043.7 2459.71 1039.76L2392.26 880.878L2392.09 880.502C2390.31 876.818 2386 875.08 2382.16 876.488L2381.77 876.639L2382.95 879.401C2385.49 878.322 2388.42 879.508 2389.5 882.05Z" fill="#2E2F33" fill-opacity="0.88"/>
<path d="M2359.34 1009.31C2354.81 1009.31 2351.5 1006.62 2351.38 1002.87H2355.34C2355.47 1004.72 2357.19 1006.03 2359.34 1006.03C2361.88 1006.03 2363.69 1004.19 2363.69 1001.69C2363.69 999.094 2361.81 997.25 2359.22 997.25C2357.47 997.219 2356.19 997.844 2355.47 999.187H2351.69L2353.06 986.375H2366.44V989.781H2356.41L2355.72 995.781H2355.94C2356.81 994.781 2358.47 994.062 2360.31 994.062C2364.53 994.062 2367.63 997.219 2367.63 1001.56C2367.63 1006.09 2364.22 1009.31 2359.34 1009.31Z" fill="black"/>
<path d="M2339.31 1009.31C2334.47 1009.31 2331.03 1006.69 2330.94 1002.87H2335.03C2335.16 1004.69 2336.97 1005.87 2339.31 1005.87C2341.81 1005.87 2343.59 1004.5 2343.59 1002.5C2343.59 1000.47 2341.84 999 2338.91 999H2336.88V995.875H2338.91C2341.31 995.875 2343 994.531 2342.97 992.562C2343 990.656 2341.56 989.375 2339.34 989.375C2337.22 989.375 2335.38 990.562 2335.31 992.469H2331.41C2331.5 988.656 2334.94 986.062 2339.38 986.062C2343.97 986.062 2346.94 988.875 2346.91 992.344C2346.94 994.875 2345.25 996.719 2342.78 997.219V997.406C2345.97 997.844 2347.78 999.875 2347.75 1002.72C2347.78 1006.53 2344.22 1009.31 2339.31 1009.31Z" fill="black"/>
<path d="M2319.09 1009.31C2314.25 1009.31 2310.81 1006.69 2310.72 1002.87H2314.81C2314.94 1004.69 2316.75 1005.87 2319.09 1005.87C2321.59 1005.87 2323.38 1004.5 2323.38 1002.5C2323.38 1000.47 2321.63 999 2318.69 999H2316.66V995.875H2318.69C2321.09 995.875 2322.78 994.531 2322.75 992.562C2322.78 990.656 2321.34 989.375 2319.13 989.375C2317 989.375 2315.16 990.562 2315.09 992.469H2311.19C2311.28 988.656 2314.72 986.062 2319.16 986.062C2323.75 986.062 2326.72 988.875 2326.69 992.344C2326.72 994.875 2325.03 996.719 2322.56 997.219V997.406C2325.75 997.844 2327.56 999.875 2327.53 1002.72C2327.56 1006.53 2324 1009.31 2319.09 1009.31Z" fill="black"/>
</g>
<g id="jeongui_hall_330">
<path d="M1950.08 996.187C1951.81 1000.25 1956.5 1002.15 1960.57 1000.43L2326.14 845.251C2330.2 843.525 2332.1 838.828 2330.38 834.761L2262.93 675.878C2261.21 671.81 2256.51 669.913 2252.44 671.639L1886.88 826.814C1882.81 828.54 1880.91 833.236 1882.64 837.303L1950.08 996.187Z" fill="#F7FBFF"/>
<path d="M2253.62 674.401L2252.44 671.639L1886.88 826.814L1888.05 829.575L2253.62 674.401ZM2260.17 677.05L2327.61 835.933C2328.69 838.475 2327.51 841.41 2324.97 842.489L1959.4 997.664C1956.86 998.743 1953.92 997.557 1952.84 995.015L1885.4 836.132C1884.32 833.59 1885.51 830.654 1888.05 829.575L1886.88 826.814L1886.5 826.984C1882.69 828.833 1880.97 833.364 1882.64 837.303L1950.08 996.187C1951.81 1000.25 1956.5 1002.15 1960.57 1000.43L2326.14 845.251L2326.51 845.08C2330.32 843.231 2332.05 838.701 2330.38 834.761L2262.93 675.878L2262.76 675.502C2260.97 671.818 2256.67 670.08 2252.83 671.488L2252.44 671.639L2253.62 674.401C2256.16 673.322 2259.09 674.508 2260.17 677.05Z" fill="#2E2F33" fill-opacity="0.88"/>
<path d="M2126.66 847.313C2121.22 847.313 2117.97 843.094 2117.97 835.688C2117.97 828.313 2121.22 824.063 2126.66 824.063C2132.06 824.063 2135.34 828.313 2135.34 835.688C2135.34 843.094 2132.09 847.313 2126.66 847.313ZM2126.66 843.906C2129.5 843.906 2131.25 841.125 2131.25 835.688C2131.25 830.281 2129.47 827.438 2126.66 827.438C2123.84 827.438 2122.06 830.281 2122.06 835.688C2122.06 841.125 2123.81 843.906 2126.66 843.906Z" fill="black"/>
<path d="M2106.31 847.313C2101.47 847.313 2098.03 844.688 2097.94 840.875H2102.03C2102.16 842.688 2103.97 843.875 2106.31 843.875C2108.81 843.875 2110.59 842.5 2110.59 840.5C2110.59 838.469 2108.84 837 2105.91 837H2103.88V833.875H2105.91C2108.31 833.875 2110 832.531 2109.97 830.563C2110 828.656 2108.56 827.375 2106.34 827.375C2104.22 827.375 2102.38 828.563 2102.31 830.469H2098.41C2098.5 826.656 2101.94 824.063 2106.38 824.063C2110.97 824.063 2113.94 826.875 2113.91 830.344C2113.94 832.875 2112.25 834.719 2109.78 835.219V835.406C2112.97 835.844 2114.78 837.875 2114.75 840.719C2114.78 844.531 2111.22 847.313 2106.31 847.313Z" fill="black"/>
<path d="M2086.09 847.313C2081.25 847.313 2077.81 844.688 2077.72 840.875H2081.81C2081.94 842.688 2083.75 843.875 2086.09 843.875C2088.59 843.875 2090.38 842.5 2090.38 840.5C2090.38 838.469 2088.63 837 2085.69 837H2083.66V833.875H2085.69C2088.09 833.875 2089.78 832.531 2089.75 830.563C2089.78 828.656 2088.34 827.375 2086.13 827.375C2084 827.375 2082.16 828.563 2082.09 830.469H2078.19C2078.28 826.656 2081.72 824.063 2086.16 824.063C2090.75 824.063 2093.72 826.875 2093.69 830.344C2093.72 832.875 2092.03 834.719 2089.56 835.219V835.406C2092.75 835.844 2094.56 837.875 2094.53 840.719C2094.56 844.531 2091 847.313 2086.09 847.313Z" fill="black"/>
</g>
<g id="jeongui_hall_329">
<path d="M1868.08 1032.68C1869.81 1036.75 1874.5 1038.64 1878.57 1036.92L1948.46 1007.25C1952.53 1005.52 1954.43 1000.83 1952.7 996.759L1885.26 837.876C1883.53 833.809 1878.84 831.911 1874.77 833.637L1804.88 863.306C1800.81 865.032 1798.91 869.729 1800.64 873.796L1868.08 1032.68Z" fill="#F7FBFF"/>
<path d="M1875.94 836.399L1874.77 833.637L1804.88 863.306L1806.05 866.067L1875.94 836.399ZM1882.5 839.048L1949.94 997.931C1951.02 1000.47 1949.83 1003.41 1947.29 1004.49L1877.4 1034.16C1874.86 1035.23 1871.92 1034.05 1870.84 1031.51L1803.4 872.624C1802.32 870.082 1803.51 867.146 1806.05 866.067L1804.88 863.306C1800.81 865.032 1798.91 869.729 1800.64 873.796L1868.08 1032.68C1869.75 1036.62 1874.21 1038.52 1878.19 1037.07L1878.57 1036.92L1948.46 1007.25L1948.84 1007.08C1952.65 1005.23 1954.37 1000.7 1952.7 996.759L1885.26 837.876L1885.09 837.5C1883.3 833.816 1879 832.078 1875.15 833.486L1874.77 833.637L1875.94 836.399C1878.48 835.32 1881.42 836.506 1882.5 839.048Z" fill="#2E2F33" fill-opacity="0.88"/>
<path d="M1895.41 923.063C1899.84 923.094 1904.22 925.719 1904.25 934C1904.25 941.813 1900.72 946.313 1895.16 946.313C1890.78 946.313 1887.78 943.594 1887.28 939.844H1891.31C1891.72 941.625 1893.09 942.781 1895.16 942.781C1898.44 942.781 1900.28 939.875 1900.31 935.031H1900.06C1898.91 937 1896.75 938.156 1894.25 938.156C1890.22 938.156 1887.09 935.094 1887.06 930.813C1887.06 926.375 1890.38 923.031 1895.41 923.063ZM1895.44 926.344C1892.91 926.344 1891 928.313 1891.03 930.719C1891.03 933.156 1892.84 935.063 1895.38 935.063C1897.88 935.063 1899.84 933.031 1899.81 930.688C1899.81 928.375 1897.97 926.344 1895.44 926.344Z" fill="black"/>
<path d="M1868.09 946V943.063L1876.09 935.344C1878.38 933.063 1879.56 931.719 1879.56 929.813C1879.56 927.719 1877.91 926.375 1875.69 926.375C1873.34 926.375 1871.84 927.844 1871.88 930.125H1868C1867.97 925.844 1871.19 923.063 1875.72 923.063C1880.34 923.063 1883.47 925.813 1883.47 929.625C1883.47 932.188 1882.22 934.25 1877.78 938.438L1873.75 942.438V942.594H1883.81V946H1868.09Z" fill="black"/>
<path d="M1856.09 946.313C1851.25 946.313 1847.81 943.688 1847.72 939.875H1851.81C1851.94 941.688 1853.75 942.875 1856.09 942.875C1858.59 942.875 1860.38 941.5 1860.38 939.5C1860.38 937.469 1858.63 936 1855.69 936H1853.66V932.875H1855.69C1858.09 932.875 1859.78 931.531 1859.75 929.563C1859.78 927.656 1858.34 926.375 1856.13 926.375C1854 926.375 1852.16 927.563 1852.09 929.469H1848.19C1848.28 925.656 1851.72 923.063 1856.16 923.063C1860.75 923.063 1863.72 925.875 1863.69 929.344C1863.72 931.875 1862.03 933.719 1859.56 934.219V934.406C1862.75 934.844 1864.56 936.875 1864.53 939.719C1864.56 943.531 1861 946.313 1856.09 946.313Z" fill="black"/>
</g>
<g id="jeongui_hall_328">
<path d="M1786.08 1067.68C1787.81 1071.75 1792.5 1073.64 1796.57 1071.92L1866.46 1042.25C1870.53 1040.52 1872.43 1035.83 1870.7 1031.76L1803.26 872.876C1801.53 868.809 1796.84 866.911 1792.77 868.637L1722.88 898.306C1718.81 900.032 1716.91 904.729 1718.64 908.796L1786.08 1067.68Z" fill="#F7FBFF"/>
<path d="M1793.94 871.399L1792.77 868.637L1722.88 898.306L1724.05 901.067L1793.94 871.399ZM1800.5 874.048L1867.94 1032.93C1869.02 1035.47 1867.83 1038.41 1865.29 1039.49L1795.4 1069.16C1792.86 1070.23 1789.92 1069.05 1788.84 1066.51L1721.4 907.624C1720.32 905.082 1721.51 902.146 1724.05 901.067L1722.88 898.306C1718.81 900.032 1716.91 904.729 1718.64 908.796L1786.08 1067.68C1787.75 1071.62 1792.21 1073.52 1796.19 1072.07L1796.57 1071.92L1866.46 1042.25L1866.84 1042.08C1870.65 1040.23 1872.37 1035.7 1870.7 1031.76L1803.26 872.876L1803.09 872.5C1801.3 868.816 1797 867.078 1793.15 868.486L1792.77 868.637L1793.94 871.399C1796.48 870.32 1799.42 871.506 1800.5 874.048Z" fill="#2E2F33" fill-opacity="0.88"/>
<path d="M1813.59 981.313C1808.56 981.313 1805 978.625 1805 974.938C1805 972.063 1807.13 969.719 1809.84 969.281V969.156C1807.47 968.656 1805.84 966.594 1805.84 964.125C1805.84 960.625 1809.13 958.063 1813.59 958.063C1818.03 958.063 1821.31 960.625 1821.31 964.125C1821.31 966.594 1819.66 968.656 1817.31 969.156V969.281C1820.03 969.719 1822.19 972.063 1822.19 974.938C1822.19 978.625 1818.59 981.313 1813.59 981.313ZM1813.59 978.094C1816.25 978.094 1818 976.656 1818 974.563C1818 972.438 1816.13 970.875 1813.59 970.875C1811.03 970.875 1809.16 972.438 1809.19 974.563C1809.16 976.656 1810.91 978.094 1813.59 978.094ZM1813.59 967.844C1815.78 967.844 1817.34 966.469 1817.34 964.5C1817.34 962.594 1815.81 961.25 1813.59 961.25C1811.34 961.25 1809.81 962.563 1809.81 964.5C1809.81 966.469 1811.38 967.844 1813.59 967.844Z" fill="black"/>
<path d="M1786.09 981V978.063L1794.09 970.344C1796.38 968.063 1797.56 966.719 1797.56 964.813C1797.56 962.719 1795.91 961.375 1793.69 961.375C1791.34 961.375 1789.84 962.844 1789.88 965.125H1786C1785.97 960.844 1789.19 958.063 1793.72 958.063C1798.34 958.063 1801.47 960.813 1801.47 964.625C1801.47 967.188 1800.22 969.25 1795.78 973.438L1791.75 977.438V977.594H1801.81V981H1786.09Z" fill="black"/>
<path d="M1774.09 981.313C1769.25 981.313 1765.81 978.688 1765.72 974.875H1769.81C1769.94 976.688 1771.75 977.875 1774.09 977.875C1776.59 977.875 1778.38 976.5 1778.38 974.5C1778.38 972.469 1776.63 971 1773.69 971H1771.66V967.875H1773.69C1776.09 967.875 1777.78 966.531 1777.75 964.563C1777.78 962.656 1776.34 961.375 1774.13 961.375C1772 961.375 1770.16 962.563 1770.09 964.469H1766.19C1766.28 960.656 1769.72 958.063 1774.16 958.063C1778.75 958.063 1781.72 960.875 1781.69 964.344C1781.72 966.875 1780.03 968.719 1777.56 969.219V969.406C1780.75 969.844 1782.56 971.875 1782.53 974.719C1782.56 978.531 1779 981.313 1774.09 981.313Z" fill="black"/>
</g>
<g id="jeongui_hall_327">
<path d="M1683.08 1109.93C1684.81 1114 1689.5 1115.89 1693.57 1114.17L1782.9 1076.25C1786.96 1074.52 1788.86 1069.83 1787.13 1065.76L1719.69 906.878C1717.97 902.81 1713.27 900.913 1709.2 902.639L1619.88 940.556C1615.81 942.282 1613.91 946.979 1615.64 951.046L1683.08 1109.93Z" fill="#F7FBFF"/>
<path d="M1710.37 905.401L1709.2 902.639L1619.88 940.556L1621.05 943.317L1710.37 905.401ZM1716.93 908.05L1784.37 1066.93C1785.45 1069.47 1784.27 1072.41 1781.72 1073.49L1692.4 1111.41C1689.86 1112.48 1686.92 1111.3 1685.84 1108.76L1618.4 949.874C1617.32 947.332 1618.51 944.396 1621.05 943.317L1619.88 940.556C1615.81 942.282 1613.91 946.979 1615.64 951.046L1683.08 1109.93C1684.81 1114 1689.5 1115.89 1693.57 1114.17L1782.9 1076.25L1783.27 1076.08C1787.08 1074.23 1788.81 1069.7 1787.13 1065.76L1719.69 906.878L1719.52 906.502C1717.73 902.818 1713.43 901.08 1709.58 902.488L1709.2 902.639L1710.37 905.401C1712.92 904.322 1715.85 905.508 1716.93 908.05Z" fill="#2E2F33" fill-opacity="0.88"/>
<path d="M1715.22 1019L1725.03 999.938V999.781H1713.66V996.375H1729.25V999.844L1719.44 1019H1715.22Z" fill="black"/>
<path d="M1695.09 1019V1016.06L1703.09 1008.34C1705.38 1006.06 1706.56 1004.72 1706.56 1002.81C1706.56 1000.72 1704.91 999.375 1702.69 999.375C1700.34 999.375 1698.84 1000.84 1698.88 1003.13H1695C1694.97 998.844 1698.19 996.063 1702.72 996.063C1707.34 996.063 1710.47 998.813 1710.47 1002.63C1710.47 1005.19 1709.22 1007.25 1704.78 1011.44L1700.75 1015.44V1015.59H1710.81V1019H1695.09Z" fill="black"/>
<path d="M1683.09 1019.31C1678.25 1019.31 1674.81 1016.69 1674.72 1012.88H1678.81C1678.94 1014.69 1680.75 1015.88 1683.09 1015.88C1685.59 1015.88 1687.38 1014.5 1687.38 1012.5C1687.38 1010.47 1685.63 1009 1682.69 1009H1680.66V1005.88H1682.69C1685.09 1005.88 1686.78 1004.53 1686.75 1002.56C1686.78 1000.66 1685.34 999.375 1683.13 999.375C1681 999.375 1679.16 1000.56 1679.09 1002.47H1675.19C1675.28 998.656 1678.72 996.063 1683.16 996.063C1687.75 996.063 1690.72 998.875 1690.69 1002.34C1690.72 1004.88 1689.03 1006.72 1686.56 1007.22V1007.41C1689.75 1007.84 1691.56 1009.88 1691.53 1012.72C1691.56 1016.53 1688 1019.31 1683.09 1019.31Z" fill="black"/>
</g>
<g id="jeongui_hall_3f_toilet_boy">
<path d="M1371.64 1084.38C1369.91 1080.31 1371.81 1075.62 1375.88 1073.89L1475.41 1031.64C1479.48 1029.91 1484.17 1031.81 1485.9 1035.88L1540.66 1164.88C1542.38 1168.94 1540.49 1173.64 1536.42 1175.37L1436.88 1217.62C1432.82 1219.34 1428.12 1217.45 1426.39 1213.38L1371.64 1084.38Z" fill="#FED9C4"/>
<path d="M1535.25 1172.61L1536.42 1175.37L1436.88 1217.62L1435.71 1214.86L1535.25 1172.61ZM1537.9 1166.05L1483.14 1037.05C1482.06 1034.51 1479.13 1033.32 1476.58 1034.4L1377.05 1076.65C1374.51 1077.73 1373.32 1080.67 1374.4 1083.21L1429.16 1212.21C1430.24 1214.75 1433.17 1215.93 1435.71 1214.86L1436.88 1217.62L1436.5 1217.77C1432.65 1219.18 1428.35 1217.44 1426.57 1213.75L1426.39 1213.38L1371.64 1084.38C1369.91 1080.31 1371.81 1075.62 1375.88 1073.89L1475.41 1031.64C1479.48 1029.91 1484.17 1031.81 1485.9 1035.88L1540.66 1164.88L1540.81 1165.26C1542.22 1169.11 1540.48 1173.41 1536.79 1175.2L1536.42 1175.37L1535.25 1172.61C1537.79 1171.53 1538.98 1168.59 1537.9 1166.05Z" fill="#2E2F33" fill-opacity="0.88"/>
<path d="M1469.75 1100.25H1444.25C1437.62 1100.25 1432.25 1105.62 1432.25 1112.25V1137.75C1432.25 1144.38 1437.62 1149.75 1444.25 1149.75H1469.75C1476.38 1149.75 1481.75 1144.38 1481.75 1137.75V1112.25C1481.75 1105.62 1476.38 1100.25 1469.75 1100.25Z" fill="#3076D1"/>
<path d="M1459.73 1137.89L1465.19 1125.34C1466.05 1123.38 1464.61 1121.18 1462.47 1121.18H1451.54C1449.39 1121.18 1447.95 1123.38 1448.81 1125.34L1454.28 1137.89C1455.31 1140.27 1458.69 1140.27 1459.73 1137.89H1459.73Z" fill="white"/>
<path d="M1457 1118.39C1459.23 1118.39 1461.03 1116.58 1461.03 1114.36C1461.03 1112.13 1459.23 1110.32 1457 1110.32C1454.77 1110.32 1452.97 1112.13 1452.97 1114.36C1452.97 1116.58 1454.77 1118.39 1457 1118.39Z" fill="white"/>
</g>
<g id="jeongui_hall_3f_toilet_auditorium_boy">
<path d="M1565.16 199.91C1564.33 204.249 1560.13 207.089 1555.79 206.253L1463.49 188.482C1459.15 187.647 1456.31 183.452 1457.15 179.114L1482.68 46.491C1483.51 42.1524 1487.71 39.3124 1492.05 40.1477L1584.35 57.9191C1588.69 58.7544 1591.53 62.9487 1590.7 67.2873L1565.16 199.91Z" fill="#FED9C4"/>
<path d="M1491.48 43.0936L1492.05 40.1477L1584.35 57.9191L1583.79 60.865L1491.48 43.0936ZM1485.63 47.0581L1460.09 179.681C1459.57 182.393 1461.34 185.014 1464.06 185.536L1556.36 203.307C1559.07 203.829 1561.69 202.055 1562.22 199.343L1587.75 66.7201C1588.27 64.0086 1586.5 61.3871 1583.79 60.865L1584.35 57.9191L1584.76 58.0076C1588.73 58.9848 1591.33 62.8256 1590.76 66.8816L1590.7 67.2873L1565.16 199.91C1564.35 204.113 1560.39 206.909 1556.2 206.321L1555.79 206.253L1463.49 188.482C1459.15 187.647 1456.31 183.452 1457.15 179.114L1482.68 46.491L1482.77 46.0893C1483.74 42.1116 1487.59 39.5108 1491.64 40.0803L1492.05 40.1477L1491.48 43.0936C1488.77 42.5715 1486.15 44.3466 1485.63 47.0581Z" fill="#2E2F33" fill-opacity="0.88"/>
<path d="M1536.75 98.2502H1511.25C1504.62 98.2502 1499.25 103.623 1499.25 110.25V135.75C1499.25 142.378 1504.62 147.75 1511.25 147.75H1536.75C1543.38 147.75 1548.75 142.378 1548.75 135.75V110.25C1548.75 103.623 1543.38 98.2502 1536.75 98.2502Z" fill="#3076D1"/>
<path d="M1526.72 135.89L1532.19 123.342C1533.05 121.379 1531.61 119.181 1529.47 119.181H1518.53C1516.39 119.181 1514.95 121.379 1515.81 123.342L1521.28 135.89C1522.31 138.272 1525.69 138.272 1526.73 135.89H1526.72Z" fill="white"/>
<path d="M1524 116.388C1526.23 116.388 1528.03 114.583 1528.03 112.356C1528.03 110.129 1526.23 108.324 1524 108.324C1521.77 108.324 1519.97 110.129 1519.97 112.356C1519.97 114.583 1521.77 116.388 1524 116.388Z" fill="white"/>
</g>
<g id="jeongui_hall_3f_toilet_girl">
<path d="M1081.66 1078.86C1083.38 1074.79 1081.48 1070.1 1077.42 1068.37L990.885 1031.64C986.818 1029.91 982.121 1031.81 980.395 1035.88L925.638 1164.88C923.912 1168.94 925.809 1173.64 929.876 1175.37L1016.41 1212.1C1020.48 1213.82 1025.17 1211.93 1026.9 1207.86L1081.66 1078.86Z" fill="#FED9C4"/>
<path d="M931.048 1172.61L929.876 1175.37L1016.41 1212.1L1017.58 1209.34L931.048 1172.61ZM928.399 1166.05L983.156 1037.05C984.235 1034.51 987.17 1033.32 989.712 1034.4L1076.25 1071.13C1078.79 1072.21 1079.97 1075.15 1078.89 1077.69L1024.14 1206.69C1023.06 1209.23 1020.12 1210.42 1017.58 1209.34L1016.41 1212.1L1016.79 1212.25C1020.64 1213.66 1024.94 1211.92 1026.73 1208.23L1026.9 1207.86L1081.66 1078.86C1083.33 1074.92 1081.6 1070.39 1077.79 1068.54L1077.42 1068.37L990.885 1031.64L990.502 1031.49C986.527 1030.03 982.067 1031.94 980.395 1035.88L925.638 1164.88L925.487 1165.26C924.079 1169.11 925.817 1173.41 929.502 1175.2L929.876 1175.37L931.048 1172.61C928.506 1171.53 927.32 1168.59 928.399 1166.05Z" fill="#2E2F33" fill-opacity="0.88"/>
<path d="M1016.75 1097.25H991.25C984.623 1097.25 979.25 1102.62 979.25 1109.25V1134.75C979.25 1141.38 984.623 1146.75 991.25 1146.75H1016.75C1023.38 1146.75 1028.75 1141.38 1028.75 1134.75V1109.25C1028.75 1102.62 1023.38 1097.25 1016.75 1097.25Z" fill="#E76D6D"/>
<path d="M1001.27 1119.98L995.809 1132.52C994.954 1134.49 996.392 1136.69 998.534 1136.69H1009.46C1011.61 1136.69 1013.05 1134.49 1012.19 1132.52L1006.72 1119.98C1005.69 1117.59 1002.31 1117.59 1001.27 1119.98H1001.27Z" fill="white"/>
<path d="M1004 1115.38C1006.23 1115.38 1008.03 1113.58 1008.03 1111.35C1008.03 1109.12 1006.23 1107.32 1004 1107.32C1001.77 1107.32 999.968 1109.12 999.968 1111.35C999.968 1113.58 1001.77 1115.38 1004 1115.38Z" fill="white"/>
</g>
<g id="jeongui_hall_3f_toilet_auditorium_girl">
<path d="M886.68 199.91C887.515 204.249 891.709 207.089 896.048 206.253L988.353 188.482C992.691 187.647 995.531 183.452 994.696 179.114L969.162 46.491C968.327 42.1524 964.132 39.3124 959.794 40.1477L867.489 57.9191C863.15 58.7544 860.31 62.9487 861.146 67.2873L886.68 199.91Z" fill="#FED9C4"/>
<path d="M960.361 43.0936L959.794 40.1477L867.489 57.9191L868.056 60.865L960.361 43.0936ZM966.216 47.0581L991.75 179.681C992.272 182.393 990.497 185.014 987.785 185.536L895.481 203.307C892.769 203.829 890.148 202.055 889.625 199.343L864.092 66.7201C863.57 64.0086 865.345 61.3871 868.056 60.865L867.489 57.9191L867.086 58.0076C863.109 58.9848 860.509 62.8256 861.079 66.8816L861.146 67.2873L886.68 199.91C887.489 204.113 891.45 206.909 895.641 206.321L896.048 206.253L988.353 188.482C992.691 187.647 995.531 183.452 994.696 179.114L969.162 46.491L969.074 46.0893C968.097 42.1116 964.257 39.5108 960.201 40.0803L959.794 40.1477L960.361 43.0936C963.073 42.5715 965.694 44.3466 966.216 47.0581Z" fill="#2E2F33" fill-opacity="0.88"/>
<path d="M940.751 98.2502H915.251C908.623 98.2502 903.251 103.623 903.251 110.25V135.75C903.251 142.378 908.623 147.75 915.251 147.75H940.751C947.378 147.75 952.751 142.378 952.751 135.75V110.25C952.751 103.623 947.378 98.2502 940.751 98.2502Z" fill="#E76D6D"/>
<path d="M925.275 120.977L919.809 133.524C918.954 135.488 920.393 137.685 922.535 137.685H933.465C935.607 137.685 937.047 135.488 936.191 133.524L930.725 120.977C929.687 118.595 926.31 118.595 925.272 120.977H925.275Z" fill="white"/>
<path d="M928.001 116.381C930.227 116.381 932.033 114.575 932.033 112.349C932.033 110.122 930.227 108.317 928.001 108.317C925.774 108.317 923.969 110.122 923.969 112.349C923.969 114.575 925.774 116.381 928.001 116.381Z" fill="white"/>
</g>
<g id="jeongui_hall_3f_stairs_auditorium_left">
<path d="M653.253 184.786C649.104 186.304 646.971 190.899 648.489 195.048L676.197 270.769C677.715 274.919 682.309 277.051 686.458 275.533L802.054 233.235C806.204 231.717 808.336 227.123 806.818 222.973L779.111 147.252C777.593 143.103 772.998 140.97 768.849 142.488L653.253 184.786Z" fill="#D9FFE6"/>
<path d="M804.001 224.004L806.818 222.973L779.111 147.252L776.294 148.283L804.001 224.004ZM801.024 230.418L685.427 272.715C682.834 273.664 679.963 272.331 679.014 269.738L651.307 194.017C650.358 191.424 651.691 188.552 654.284 187.603L769.88 145.306C772.473 144.357 775.345 145.69 776.294 148.283L779.111 147.252L778.959 146.869C777.359 143.099 773.152 141.146 769.239 142.357L768.849 142.488L653.253 184.786C649.104 186.304 646.971 190.899 648.489 195.048L676.197 270.769C677.715 274.919 682.309 277.051 686.458 275.533L802.054 233.235L802.437 233.084C806.208 231.484 808.161 227.276 806.95 223.364L806.818 222.973L804.001 224.004C804.95 226.597 803.617 229.468 801.024 230.418Z" fill="#2E2F33" fill-opacity="0.88"/>
<path d="M751.94 182.635C750.892 182.248 749.728 182.788 749.341 183.836L745.58 194.056H724.282L727.805 185.29C728.222 184.252 727.72 183.071 726.682 182.654C725.644 182.237 724.465 182.743 724.048 183.778L704.432 232.582C704.015 233.62 704.518 234.8 705.556 235.217C705.803 235.316 706.058 235.364 706.31 235.364C707.113 235.364 707.873 234.884 708.19 234.094L712.219 224.071C712.306 224.083 712.382 224.122 712.472 224.122H734.519L731.386 232.64C731 233.689 731.537 234.854 732.587 235.238C732.818 235.324 733.055 235.364 733.286 235.364C734.11 235.364 734.885 234.856 735.187 234.037L753.142 185.233C753.527 184.184 752.99 183.019 751.94 182.635ZM723.074 198.104H744.089L740.849 206.911H719.114L722.686 198.026C722.816 198.052 722.936 198.104 723.074 198.104ZM713.825 220.072L717.511 210.904C717.607 210.917 717.694 210.961 717.794 210.961H739.361L736.009 220.072H713.825Z" fill="#6E4944"/>
</g>
<g id="jeongui_hall_3f_stairs_auditorium_right">
<path d="M1799.05 184.786C1803.2 186.304 1805.34 190.899 1803.82 195.048L1776.11 270.769C1774.59 274.919 1770 277.051 1765.85 275.533L1650.25 233.235C1646.1 231.717 1643.97 227.123 1645.49 222.973L1673.2 147.252C1674.71 143.103 1679.31 140.97 1683.46 142.488L1799.05 184.786Z" fill="#D9FFE6"/>
<path d="M1648.31 224.004L1645.49 222.973L1673.2 147.252L1676.01 148.283L1648.31 224.004ZM1651.28 230.418L1766.88 272.715C1769.47 273.664 1772.34 272.331 1773.29 269.738L1801 194.017C1801.95 191.424 1800.62 188.552 1798.02 187.603L1682.43 145.306C1679.83 144.357 1676.96 145.69 1676.01 148.283L1673.2 147.252L1673.35 146.869C1674.95 143.099 1679.16 141.146 1683.07 142.357L1683.46 142.488L1799.05 184.786C1803.2 186.304 1805.34 190.899 1803.82 195.048L1776.11 270.769C1774.59 274.919 1770 277.051 1765.85 275.533L1650.25 233.235L1649.87 233.084C1646.1 231.484 1644.15 227.276 1645.36 223.364L1645.49 222.973L1648.31 224.004C1647.36 226.597 1648.69 229.468 1651.28 230.418Z" fill="#2E2F33" fill-opacity="0.88"/>
<path d="M1748.94 182.635C1747.89 182.248 1746.73 182.788 1746.34 183.836L1742.58 194.056H1721.28L1724.81 185.29C1725.22 184.252 1724.72 183.071 1723.68 182.654C1722.64 182.237 1721.47 182.743 1721.05 183.778L1701.43 232.582C1701.02 233.62 1701.52 234.8 1702.56 235.217C1702.8 235.316 1703.06 235.364 1703.31 235.364C1704.11 235.364 1704.87 234.884 1705.19 234.094L1709.22 224.071C1709.31 224.083 1709.38 224.122 1709.47 224.122H1731.52L1728.39 232.64C1728 233.689 1728.54 234.854 1729.59 235.238C1729.82 235.324 1730.06 235.364 1730.29 235.364C1731.11 235.364 1731.89 234.856 1732.19 234.037L1750.14 185.233C1750.53 184.184 1749.99 183.019 1748.94 182.635ZM1720.07 198.104H1741.09L1737.85 206.911H1716.11L1719.69 198.026C1719.82 198.052 1719.94 198.104 1720.07 198.104ZM1710.83 220.072L1714.51 210.904C1714.61 210.917 1714.69 210.961 1714.79 210.961H1736.36L1733.01 220.072H1710.83Z" fill="#6E4944"/>
</g>
<g id="jeongui_hall_3f_stairs_right">
<path d="M1473.64 1011.65C1471.91 1007.59 1473.81 1002.89 1477.88 1001.16L1545.07 972.64C1549.14 970.914 1553.84 972.811 1555.56 976.878L1606.37 1096.57C1608.1 1100.64 1606.2 1105.33 1602.13 1107.06L1534.93 1135.58C1530.87 1137.31 1526.17 1135.41 1524.44 1131.34L1473.64 1011.65Z" fill="#D9FFE6"/>
<path d="M1600.96 1104.3L1602.13 1107.06L1534.93 1135.58L1533.76 1132.82L1600.96 1104.3ZM1603.61 1097.74L1552.8 978.05C1551.72 975.508 1548.79 974.323 1546.25 975.401L1479.05 1003.92C1476.51 1005 1475.32 1007.94 1476.4 1010.48L1527.21 1130.17C1528.28 1132.71 1531.22 1133.9 1533.76 1132.82L1534.93 1135.58L1534.55 1135.73C1530.58 1137.19 1526.12 1135.28 1524.44 1131.34L1473.64 1011.65C1471.91 1007.59 1473.81 1002.89 1477.88 1001.16L1545.07 972.64C1549.14 970.914 1553.84 972.811 1555.56 976.878L1606.37 1096.57C1608.1 1100.64 1606.2 1105.33 1602.13 1107.06L1600.96 1104.3C1603.5 1103.22 1604.69 1100.28 1603.61 1097.74Z" fill="#2E2F33" fill-opacity="0.88"/>
<path d="M1563.94 1027.63C1562.89 1027.25 1561.73 1027.79 1561.34 1028.84L1557.58 1039.06H1536.28L1539.81 1030.29C1540.22 1029.25 1539.72 1028.07 1538.68 1027.65C1537.64 1027.24 1536.46 1027.74 1536.05 1028.78L1516.43 1077.58C1516.02 1078.62 1516.52 1079.8 1517.56 1080.22C1517.8 1080.32 1518.06 1080.36 1518.31 1080.36C1519.11 1080.36 1519.87 1079.88 1520.19 1079.09L1524.22 1069.07C1524.31 1069.08 1524.38 1069.12 1524.47 1069.12H1546.52L1543.39 1077.64C1543 1078.69 1543.54 1079.85 1544.59 1080.24C1544.82 1080.32 1545.06 1080.36 1545.29 1080.36C1546.11 1080.36 1546.89 1079.86 1547.19 1079.04L1565.14 1030.23C1565.53 1029.18 1564.99 1028.02 1563.94 1027.63ZM1535.07 1043.1H1556.09L1552.85 1051.91H1531.11L1534.69 1043.03C1534.82 1043.05 1534.94 1043.1 1535.07 1043.1ZM1525.83 1065.07L1529.51 1055.9C1529.61 1055.92 1529.69 1055.96 1529.79 1055.96H1551.36L1548.01 1065.07H1525.83Z" fill="#6E4944"/>
</g>
<g id="jeongui_hall_3f_stairs_left">
<path d="M993.369 1011.65C995.095 1007.59 993.198 1002.89 989.131 1001.16L921.934 972.64C917.867 970.914 913.17 972.811 911.444 976.878L860.638 1096.57C858.912 1100.64 860.809 1105.33 864.876 1107.06L932.073 1135.58C936.14 1137.31 940.837 1135.41 942.563 1131.34L993.369 1011.65Z" fill="#D9FFE6"/>
<path d="M866.049 1104.3L864.876 1107.06L932.073 1135.58L933.245 1132.82L866.049 1104.3ZM863.4 1097.74L914.205 978.05C915.284 975.508 918.22 974.323 920.762 975.401L987.958 1003.92C990.5 1005 991.686 1007.94 990.607 1010.48L939.802 1130.17C938.723 1132.71 935.787 1133.9 933.245 1132.82L932.073 1135.58L932.456 1135.73C936.431 1137.19 940.891 1135.28 942.563 1131.34L993.369 1011.65C995.095 1007.59 993.198 1002.89 989.131 1001.16L921.934 972.64C917.867 970.914 913.17 972.811 911.444 976.878L860.638 1096.57C858.912 1100.64 860.809 1105.33 864.876 1107.06L866.049 1104.3C863.507 1103.22 862.321 1100.28 863.4 1097.74Z" fill="#2E2F33" fill-opacity="0.88"/>
<path d="M950.941 1027.63C949.892 1027.25 948.728 1027.79 948.341 1028.84L944.581 1039.06H923.282L926.806 1030.29C927.223 1029.25 926.72 1028.07 925.682 1027.65C924.644 1027.24 923.465 1027.74 923.048 1028.78L903.433 1077.58C903.016 1078.62 903.518 1079.8 904.556 1080.22C904.804 1080.32 905.059 1080.36 905.311 1080.36C906.113 1080.36 906.874 1079.88 907.19 1079.09L911.219 1069.07C911.306 1069.08 911.383 1069.12 911.473 1069.12H933.52L930.386 1077.64C930.001 1078.69 930.538 1079.85 931.588 1080.24C931.819 1080.32 932.056 1080.36 932.287 1080.36C933.11 1080.36 933.886 1079.86 934.187 1079.04L952.142 1030.23C952.528 1029.18 951.991 1028.02 950.941 1027.63ZM922.075 1043.1H943.09L939.85 1051.91H918.115L921.686 1043.03C921.817 1043.05 921.937 1043.1 922.075 1043.1ZM912.826 1065.07L916.511 1055.9C916.607 1055.92 916.694 1055.96 916.795 1055.96H938.362L935.009 1065.07H912.826Z" fill="#6E4944"/>
</g>
<g id="jeongui_hall_3f_elevator">
<path d="M938.435 1316.46C936.709 1320.53 932.012 1322.43 927.945 1320.7L882.876 1301.57C878.809 1299.85 876.912 1295.15 878.638 1291.08L903.345 1232.88C905.071 1228.81 909.768 1226.91 913.835 1228.64L958.904 1247.77C962.971 1249.5 964.868 1254.19 963.142 1258.26L938.435 1316.46Z" fill="#C4C4C4"/>
<path d="M912.663 1231.4L913.835 1228.64L958.904 1247.77L957.732 1250.53L912.663 1231.4ZM906.107 1234.05L881.4 1292.25C880.321 1294.8 881.507 1297.73 884.049 1298.81L929.117 1317.94C931.659 1319.02 934.595 1317.83 935.674 1315.29L960.381 1257.09C961.459 1254.54 960.274 1251.61 957.732 1250.53L958.904 1247.77L959.279 1247.94C962.963 1249.73 964.701 1254.03 963.293 1257.88L963.142 1258.26L938.435 1316.46C936.709 1320.53 932.012 1322.43 927.945 1320.7L882.876 1301.57C878.809 1299.85 876.912 1295.15 878.638 1291.08L903.345 1232.88L903.515 1232.5C905.304 1228.82 909.605 1227.08 913.452 1228.49L913.835 1228.64L912.663 1231.4C910.121 1230.32 907.186 1231.51 906.107 1234.05Z" fill="#2E2F33" fill-opacity="0.88"/>
<path d="M931.626 1254.38H910.376C904.853 1254.38 900.376 1258.85 900.376 1264.38V1285.63C900.376 1291.15 904.853 1295.63 910.376 1295.63H931.626C937.148 1295.63 941.626 1291.15 941.626 1285.63V1264.38C941.626 1258.85 937.148 1254.38 931.626 1254.38ZM922.021 1262.43H923.174C923.289 1262.43 923.382 1262.34 923.382 1262.23V1259.68C923.382 1259.58 923.461 1259.5 923.558 1259.5H925.449C925.547 1259.5 925.626 1259.58 925.626 1259.68V1262.23C925.626 1262.34 925.718 1262.43 925.833 1262.43H926.987C927.153 1262.43 927.236 1262.63 927.118 1262.75L924.759 1265.11C924.618 1265.25 924.389 1265.25 924.249 1265.11L921.891 1262.75C921.773 1262.63 921.856 1262.43 922.021 1262.43ZM914.328 1261.96L916.687 1259.61C916.828 1259.46 917.057 1259.46 917.197 1259.61L919.556 1261.96C919.673 1262.08 919.589 1262.28 919.424 1262.28H918.271C918.156 1262.28 918.063 1262.37 918.063 1262.49V1265.04C918.063 1265.14 917.984 1265.22 917.887 1265.22H915.996C915.898 1265.22 915.819 1265.14 915.819 1265.04V1262.49C915.819 1262.37 915.727 1262.28 915.612 1262.28H914.458C914.292 1262.28 914.211 1262.08 914.328 1261.96ZM936.291 1284.34C936.291 1287.36 933.838 1289.81 930.823 1289.81H911.177C908.162 1289.81 905.709 1287.36 905.709 1284.34V1272.54C905.709 1269.53 908.162 1267.07 911.177 1267.07H930.823C933.838 1267.07 936.291 1269.53 936.291 1272.54V1284.34Z" fill="#4592FB"/>
<path d="M930.823 1268.04H911.177C908.696 1268.04 906.677 1270.06 906.677 1272.54V1284.34C906.677 1286.82 908.696 1288.84 911.177 1288.84H930.823C933.304 1288.84 935.323 1286.82 935.323 1284.34V1272.54C935.323 1270.06 933.304 1268.04 930.823 1268.04ZM928.611 1270.93C929.246 1270.93 929.761 1271.44 929.761 1272.08C929.761 1272.71 929.246 1273.23 928.611 1273.23C927.976 1273.23 927.461 1272.71 927.461 1272.08C927.461 1271.44 927.976 1270.93 928.611 1270.93ZM920.867 1270.93C921.502 1270.93 922.017 1271.44 922.017 1272.08C922.017 1272.71 921.502 1273.23 920.867 1273.23C920.232 1273.23 919.717 1272.71 919.717 1272.08C919.717 1271.44 920.232 1270.93 920.867 1270.93ZM913.123 1270.93C913.758 1270.93 914.273 1271.44 914.273 1272.08C914.273 1272.71 913.758 1273.23 913.123 1273.23C912.488 1273.23 911.973 1272.71 911.973 1272.08C911.973 1271.44 912.488 1270.93 913.123 1270.93ZM916.456 1279.08C916.456 1279.44 916.163 1279.73 915.803 1279.73C915.443 1279.73 915.151 1279.44 915.151 1279.08V1275.66H914.809V1285.08C914.809 1285.48 914.491 1285.8 914.097 1285.8C913.703 1285.8 913.384 1285.48 913.384 1285.08V1279.67H912.859V1285.08C912.859 1285.48 912.541 1285.8 912.147 1285.8C911.753 1285.8 911.434 1285.48 911.434 1285.08V1275.66H910.996V1279.08C910.996 1279.44 910.703 1279.73 910.343 1279.73C909.983 1279.73 909.691 1279.44 909.691 1279.08V1275.05C909.691 1274.33 910.274 1273.75 910.996 1273.75H915.148C915.868 1273.75 916.453 1274.33 916.453 1275.05V1279.08H916.456ZM924.199 1279.08C924.199 1279.44 923.907 1279.73 923.547 1279.73C923.187 1279.73 922.894 1279.44 922.894 1279.08V1275.66H922.553V1285.08C922.553 1285.48 922.234 1285.8 921.841 1285.8C921.447 1285.8 921.128 1285.48 921.128 1285.08V1279.67H920.604V1285.08C920.604 1285.48 920.286 1285.8 919.892 1285.8C919.498 1285.8 919.179 1285.48 919.179 1285.08V1275.66H918.741V1279.08C918.741 1279.44 918.448 1279.73 918.088 1279.73C917.728 1279.73 917.436 1279.44 917.436 1279.08V1275.05C917.436 1274.33 918.019 1273.75 918.741 1273.75H922.893C923.614 1273.75 924.198 1274.33 924.198 1275.05L924.199 1279.08ZM931.943 1279.08C931.943 1279.44 931.651 1279.73 931.291 1279.73C930.931 1279.73 930.638 1279.44 930.638 1279.08V1275.66H930.297V1285.08C930.297 1285.48 929.978 1285.8 929.584 1285.8C929.191 1285.8 928.872 1285.48 928.872 1285.08V1279.67H928.347V1285.08C928.347 1285.48 928.028 1285.8 927.634 1285.8C927.241 1285.8 926.922 1285.48 926.922 1285.08V1275.66H926.483V1279.08C926.483 1279.44 926.191 1279.73 925.831 1279.73C925.471 1279.73 925.178 1279.44 925.178 1279.08V1275.05C925.178 1274.33 925.762 1273.75 926.483 1273.75H930.636C931.357 1273.75 931.941 1274.33 931.941 1275.05V1279.08H931.943Z" fill="#4592FB"/>
<path d="M920.867 1273.23C921.502 1273.23 922.017 1272.71 922.017 1272.08C922.017 1271.44 921.502 1270.93 920.867 1270.93C920.232 1270.93 919.717 1271.44 919.717 1272.08C919.717 1272.71 920.232 1273.23 920.867 1273.23Z" fill="white"/>
<path d="M913.123 1273.23C913.758 1273.23 914.273 1272.71 914.273 1272.08C914.273 1271.44 913.758 1270.93 913.123 1270.93C912.488 1270.93 911.973 1271.44 911.973 1272.08C911.973 1272.71 912.488 1273.23 913.123 1273.23Z" fill="white"/>
<path d="M928.611 1273.23C929.246 1273.23 929.761 1272.71 929.761 1272.08C929.761 1271.44 929.246 1270.93 928.611 1270.93C927.976 1270.93 927.461 1271.44 927.461 1272.08C927.461 1272.71 927.976 1273.23 928.611 1273.23Z" fill="white"/>
<path d="M930.826 1267.08H911.176C908.163 1267.08 905.713 1269.53 905.713 1272.54V1284.34C905.713 1287.35 908.163 1289.81 911.176 1289.81H930.826C933.838 1289.81 936.288 1287.35 936.288 1284.34V1272.54C936.288 1269.53 933.838 1267.08 930.826 1267.08ZM935.326 1284.34C935.326 1286.83 933.301 1288.84 930.826 1288.84H911.176C908.701 1288.84 906.676 1286.83 906.676 1284.34V1272.54C906.676 1270.06 908.701 1268.04 911.176 1268.04H930.826C933.301 1268.04 935.326 1270.06 935.326 1272.54V1284.34Z" fill="white"/>
<path d="M931.938 1275.05V1279.08C931.938 1279.44 931.651 1279.74 931.288 1279.74C930.926 1279.74 930.638 1279.44 930.638 1279.08L930.638 1275.66H930.301V1285.09C930.301 1285.48 929.976 1285.8 929.588 1285.8C929.188 1285.8 928.876 1285.48 928.876 1285.09V1279.66H928.351V1285.09C928.351 1285.48 928.026 1285.8 927.638 1285.8C927.238 1285.8 926.926 1285.48 926.926 1285.09V1275.66H926.488V1279.08C926.488 1279.44 926.188 1279.74 925.838 1279.74C925.476 1279.74 925.176 1279.44 925.176 1279.08V1275.05C925.176 1274.33 925.763 1273.75 926.488 1273.75H930.638C931.363 1273.75 931.938 1274.33 931.938 1275.05Z" fill="white"/>
<path d="M916.451 1275.05V1279.08C916.451 1279.44 916.163 1279.74 915.801 1279.74C915.438 1279.74 915.151 1279.44 915.151 1279.08L915.151 1275.66H914.813V1285.09C914.813 1285.48 914.488 1285.8 914.101 1285.8C913.701 1285.8 913.388 1285.48 913.388 1285.09V1279.66H912.863V1285.09C912.863 1285.48 912.538 1285.8 912.151 1285.8C911.751 1285.8 911.438 1285.48 911.438 1285.09V1275.66H911.001V1279.08C911.001 1279.44 910.701 1279.74 910.351 1279.74C909.988 1279.74 909.688 1279.44 909.688 1279.08V1275.05C909.688 1274.33 910.276 1273.75 911.001 1273.75H915.151C915.876 1273.75 916.451 1274.33 916.451 1275.05Z" fill="white"/>
<path d="M924.201 1275.05V1279.08C924.201 1279.44 923.913 1279.74 923.551 1279.74C923.188 1279.74 922.901 1279.44 922.901 1279.08V1275.66H922.551V1285.09C922.551 1285.48 922.238 1285.8 921.838 1285.8C921.451 1285.8 921.126 1285.48 921.126 1285.09V1279.66H920.601V1285.09C920.601 1285.48 920.288 1285.8 919.888 1285.8C919.501 1285.8 919.176 1285.48 919.176 1285.09V1275.66H918.738V1279.08C918.738 1279.44 918.451 1279.74 918.088 1279.74C917.726 1279.74 917.438 1279.44 917.438 1279.08V1275.05C917.438 1274.33 918.026 1273.75 918.738 1273.75H922.901C923.613 1273.75 924.201 1274.33 924.201 1275.05Z" fill="white"/>
<path d="M914.459 1262.28H915.613C915.728 1262.28 915.821 1262.37 915.821 1262.49V1265.04C915.821 1265.14 915.899 1265.22 915.997 1265.22H917.888C917.986 1265.22 918.064 1265.14 918.064 1265.04V1262.49C918.064 1262.37 918.157 1262.28 918.272 1262.28H919.426C919.592 1262.28 919.674 1262.08 919.557 1261.96L917.198 1259.61C917.057 1259.46 916.828 1259.46 916.688 1259.61L914.329 1261.96C914.212 1262.08 914.294 1262.28 914.459 1262.28Z" fill="white"/>
<path d="M924.247 1265.11C924.388 1265.25 924.617 1265.25 924.757 1265.11L927.116 1262.75C927.233 1262.63 927.149 1262.43 926.984 1262.43H925.831C925.716 1262.43 925.623 1262.34 925.623 1262.23V1259.68C925.623 1259.58 925.544 1259.5 925.447 1259.5H923.556C923.458 1259.5 923.379 1259.58 923.379 1259.68V1262.23C923.379 1262.34 923.287 1262.43 923.172 1262.43H922.018C921.852 1262.43 921.769 1262.63 921.887 1262.75L924.247 1265.11Z" fill="white"/>
</g>
<g id="jeongui_hall_352">
<path d="M1889.87 764.261C1888.99 766.326 1887.29 767.929 1885.18 768.679L1659.91 848.672C1653.47 850.96 1647.31 844.63 1649.77 838.25L1759.55 554.129C1761.16 549.944 1765.91 547.907 1770.06 549.615L1942.02 620.422C1946.14 622.116 1948.08 626.842 1946.34 630.94L1889.87 764.261Z" fill="#F7FBFF"/>
<path d="M1659.91 848.672C1653.47 850.96 1647.31 844.63 1649.77 838.25L1759.55 554.129C1761.16 549.944 1765.91 547.907 1770.06 549.615L1942.02 620.422L1940.88 623.196L1768.91 552.389C1766.32 551.321 1763.36 552.595 1762.35 555.211L1652.57 839.331C1651.03 843.318 1654.88 847.275 1658.91 845.845L1884.17 765.852C1885.5 765.383 1886.56 764.381 1887.1 763.091L1943.58 629.769C1944.66 627.208 1943.45 624.255 1940.88 623.196L1942.02 620.422C1946.01 622.063 1947.95 626.55 1946.49 630.554L1946.34 630.94L1889.87 764.261C1889.05 766.197 1887.5 767.727 1885.57 768.529L1885.18 768.679L1659.91 848.672Z" fill="#2E2F33" fill-opacity="0.88"/>
<path d="M1820.84 703V700.062L1828.84 692.344C1831.12 690.062 1832.31 688.719 1832.31 686.812C1832.31 684.719 1830.65 683.375 1828.43 683.375C1826.09 683.375 1824.59 684.844 1824.62 687.125H1820.75C1820.72 682.844 1823.93 680.062 1828.47 680.062C1833.09 680.062 1836.22 682.812 1836.22 686.625C1836.22 689.188 1834.97 691.25 1830.53 695.438L1826.5 699.438V699.594H1836.56V703H1820.84Z" fill="black"/>
<path d="M1809.12 703.312C1804.59 703.312 1801.28 700.625 1801.15 696.875H1805.12C1805.25 698.719 1806.97 700.031 1809.12 700.031C1811.65 700.031 1813.47 698.188 1813.47 695.688C1813.47 693.094 1811.59 691.25 1809 691.25C1807.25 691.219 1805.97 691.844 1805.25 693.188H1801.47L1802.84 680.375H1816.22V683.781H1806.18L1805.5 689.781H1805.72C1806.59 688.781 1808.25 688.062 1810.09 688.062C1814.31 688.062 1817.4 691.219 1817.4 695.562C1817.4 700.094 1814 703.312 1809.12 703.312Z" fill="black"/>
<path d="M1789.09 703.312C1784.25 703.312 1780.81 700.688 1780.72 696.875H1784.81C1784.93 698.688 1786.75 699.875 1789.09 699.875C1791.59 699.875 1793.37 698.5 1793.37 696.5C1793.37 694.469 1791.62 693 1788.68 693H1786.65V689.875H1788.68C1791.09 689.875 1792.78 688.531 1792.75 686.562C1792.78 684.656 1791.34 683.375 1789.12 683.375C1787 683.375 1785.15 684.562 1785.09 686.469H1781.18C1781.28 682.656 1784.72 680.062 1789.15 680.062C1793.75 680.062 1796.72 682.875 1796.68 686.344C1796.72 688.875 1795.03 690.719 1792.56 691.219V691.406C1795.75 691.844 1797.56 693.875 1797.53 696.719C1797.56 700.531 1794 703.312 1789.09 703.312Z" fill="black"/>
</g>
<g id="jeongui_hall_353">
<path d="M1860.12 838.177C1859.32 840.096 1857.81 841.628 1855.9 842.45L1620.94 943.514C1614.26 946.385 1607.52 939.587 1610.46 932.938L1645.62 853.16C1646.51 851.139 1648.2 849.576 1650.28 848.842L1874.06 769.969C1880.6 767.666 1886.77 774.194 1884.11 780.59L1860.12 838.177Z" fill="#F7FBFF"/>
<path d="M1620.94 943.514C1614.26 946.385 1607.52 939.587 1610.46 932.938L1645.62 853.16L1645.8 852.786C1646.73 850.947 1648.33 849.53 1650.28 848.842L1874.06 769.969L1874.37 769.867C1880.79 767.87 1886.73 774.294 1884.11 780.59L1860.12 838.177C1859.37 839.976 1858 841.436 1856.25 842.288L1855.9 842.45L1620.94 943.514ZM1613.2 934.148C1611.37 938.304 1615.58 942.552 1619.75 940.758L1854.71 839.695C1855.91 839.181 1856.85 838.223 1857.35 837.024L1881.34 779.437C1883 775.439 1879.14 771.358 1875.06 772.798L1651.28 851.671C1649.98 852.13 1648.92 853.107 1648.37 854.37L1613.2 934.148Z" fill="#2E2F33" fill-opacity="0.88"/>
<path d="M1766.06 869.313C1761.21 869.313 1757.78 866.688 1757.68 862.875H1761.78C1761.9 864.688 1763.71 865.875 1766.06 865.875C1768.56 865.875 1770.34 864.5 1770.34 862.5C1770.34 860.469 1768.59 859 1765.65 859H1763.62V855.875H1765.65C1768.06 855.875 1769.75 854.531 1769.71 852.563C1769.75 850.656 1768.31 849.375 1766.09 849.375C1763.96 849.375 1762.12 850.563 1762.06 852.469H1758.15C1758.25 848.656 1761.68 846.063 1766.12 846.063C1770.71 846.063 1773.68 848.875 1773.65 852.344C1773.68 854.875 1772 856.719 1769.53 857.219V857.406C1772.71 857.844 1774.53 859.875 1774.5 862.719C1774.53 866.531 1770.96 869.313 1766.06 869.313Z" fill="black"/>
<path d="M1746.12 869.313C1741.59 869.313 1738.28 866.625 1738.15 862.875H1742.12C1742.25 864.719 1743.96 866.031 1746.12 866.031C1748.65 866.031 1750.46 864.188 1750.46 861.688C1750.46 859.094 1748.59 857.25 1746 857.25C1744.25 857.219 1742.96 857.844 1742.25 859.188H1738.46L1739.84 846.375H1753.21V849.781H1743.18L1742.5 855.781H1742.71C1743.59 854.781 1745.25 854.063 1747.09 854.063C1751.31 854.063 1754.4 857.219 1754.4 861.563C1754.4 866.094 1751 869.313 1746.12 869.313Z" fill="black"/>
<path d="M1726.09 869.313C1721.25 869.313 1717.81 866.688 1717.71 862.875H1721.81C1721.93 864.688 1723.75 865.875 1726.09 865.875C1728.59 865.875 1730.37 864.5 1730.37 862.5C1730.37 860.469 1728.62 859 1725.68 859H1723.65V855.875H1725.68C1728.09 855.875 1729.78 854.531 1729.75 852.563C1729.78 850.656 1728.34 849.375 1726.12 849.375C1724 849.375 1722.15 850.563 1722.09 852.469H1718.18C1718.28 848.656 1721.71 846.063 1726.15 846.063C1730.75 846.063 1733.71 848.875 1733.68 852.344C1733.71 854.875 1732.03 856.719 1729.56 857.219V857.406C1732.75 857.844 1734.56 859.875 1734.53 862.719C1734.56 866.531 1731 869.313 1726.09 869.313Z" fill="black"/>
</g>
</g>
</svg>
