<svg width="2522" height="824" viewBox="0 0 2522 824" fill="none" xmlns="http://www.w3.org/2000/svg">
<g id="jeongui_hall_floor_5">
<g id="Vector">
<path d="M3.99707 340L143.497 4.5L916.497 336.5L936.997 288.5L1036 330L1025.5 355.5L1117 393.5L1139 342.5H1394.5L1417.5 393.5L1508.5 355.5L1497 328.5L1582.5 292.5L1605 344.5L2377 14.5L2517.5 346L1744 660L1714 597L1633 631L1653.5 677.5L1543.5 716L1564.5 768C1564.5 768 1420 818 1265.5 820C1111 822 966.497 768 966.497 768L1003 666.5L901.997 622.5L897.497 635.5L813.497 605L792.997 658.5L84.7471 374.5L3.99707 340Z" fill="#999999"/>
<path d="M914.918 332.557L935.408 284.581L1039.91 328.386L1029.41 353.876L1115.41 389.594L1137.02 339.5H1396.44L1419.03 389.607L1504.55 353.896L1493.06 326.904L1584.07 288.582L1606.56 340.567L2378.58 10.5586L2521.45 347.634L1742.5 663.844L1712.52 600.874L1636.97 632.584L1657.55 679.26L1547.46 717.793L1568.46 769.803L1565.48 770.835L1564.5 768C1565.47 770.803 1565.48 770.835 1565.48 770.836C1565.47 770.836 1565.47 770.837 1565.47 770.838C1565.46 770.84 1565.46 770.842 1565.45 770.846C1565.43 770.852 1565.4 770.862 1565.37 770.874C1565.29 770.899 1565.19 770.935 1565.04 770.983C1564.76 771.08 1564.34 771.222 1563.79 771.407C1562.68 771.777 1561.04 772.319 1558.91 773.008C1554.63 774.386 1548.36 776.354 1540.36 778.721C1524.35 783.454 1501.39 789.783 1473.61 796.174C1418.05 808.951 1343.07 821.996 1265.54 823C1187.95 824.004 1112.94 810.951 1057.36 797.668C1029.56 791.024 1006.6 784.317 990.587 779.268C982.578 776.743 976.304 774.632 972.026 773.151C969.888 772.411 968.248 771.828 967.141 771.429C966.587 771.229 966.166 771.075 965.883 770.971C965.741 770.919 965.633 770.879 965.561 770.853C965.524 770.839 965.496 770.828 965.478 770.821C965.468 770.818 965.46 770.815 965.455 770.813C965.453 770.813 965.45 770.812 965.449 770.812C965.448 770.81 965.46 770.775 966.497 768L965.447 770.811L962.672 769.773L999.223 668.128L903.771 626.545L899.336 639.359L815.243 608.826L794.708 662.418L83.6309 377.284L83.5684 377.259L0.0859375 341.592L141.893 0.545898L914.918 332.557ZM7.90723 338.408L85.9131 371.735L791.285 654.581L811.75 601.174L895.658 631.64L900.223 618.455L1006.77 664.872L970.333 766.196C971.307 766.543 972.529 766.976 973.989 767.481C978.218 768.946 984.44 771.038 992.392 773.545C1008.3 778.558 1031.12 785.226 1058.76 791.832C1114.06 805.049 1188.54 817.996 1265.46 817C1342.42 816.004 1416.94 803.049 1472.26 790.326C1499.91 783.967 1522.74 777.671 1538.65 772.967C1546.61 770.615 1552.83 768.661 1557.07 767.297C1558.43 766.858 1559.58 766.478 1560.52 766.168L1539.54 714.207L1649.44 675.739L1629.02 629.416L1715.47 593.126L1745.49 656.156L2513.55 344.366L2375.41 18.4404L1603.43 348.433L1580.92 296.417L1500.94 330.096L1512.44 357.104L1415.96 397.393L1392.56 345.5H1140.97L1118.58 397.405L1021.58 357.123L1032.09 331.613L938.585 292.418L918.075 340.442L145.102 8.4541L7.90723 338.408Z" fill="black"/>
</g>
<g id="jeongui_hall_501">
<path d="M171.969 399.78C170.243 403.847 165.546 405.745 161.479 404.018L13.8762 341.365C9.80917 339.638 7.91167 334.942 9.63802 330.875L142.922 16.8777C144.648 12.8106 149.345 10.9131 153.412 12.6395L301.015 75.2933C305.082 77.0197 306.979 81.7162 305.253 85.7832L171.969 399.78Z" fill="#F7FBFF"/>
<path d="M152.239 15.4006L153.412 12.6395L301.015 75.2933L299.843 78.0546L152.239 15.4006ZM145.683 18.0495L12.3992 332.047C11.3203 334.589 12.5064 337.524 15.0481 338.603L162.652 401.257C165.193 402.336 168.129 401.15 169.208 398.608L302.492 84.6108C303.571 82.0689 302.385 79.1335 299.843 78.0546L301.015 75.2933L301.39 75.464C305.074 77.2533 306.812 81.5539 305.404 85.4003L305.253 85.7832L171.969 399.78C170.243 403.847 165.546 405.745 161.479 404.018L13.8762 341.365L13.5016 341.194C9.69431 339.345 7.96559 334.815 9.63802 330.875L142.922 16.8777L143.092 16.503C144.881 12.8184 149.182 11.0807 153.029 12.4883L153.412 12.6395L152.239 15.4006C149.698 14.3219 146.762 15.5079 145.683 18.0495Z" fill="#2E2F33" fill-opacity="0.88"/>
<path d="M181.25 196.375V219H177.156V200.344H177.031L171.75 203.719V200L177.343 196.375H181.25Z" fill="black"/>
<path d="M159.968 219.312C154.531 219.312 151.281 215.094 151.281 207.687C151.281 200.312 154.531 196.062 159.968 196.062C165.375 196.062 168.656 200.312 168.656 207.687C168.656 215.094 165.406 219.312 159.968 219.312ZM159.968 215.906C162.812 215.906 164.562 213.125 164.562 207.687C164.562 202.281 162.781 199.437 159.968 199.437C157.156 199.437 155.375 202.281 155.375 207.687C155.375 213.125 157.125 215.906 159.968 215.906Z" fill="black"/>
<path d="M139.906 219.312C135.375 219.312 132.062 216.625 131.937 212.875H135.906C136.031 214.719 137.75 216.031 139.906 216.031C142.437 216.031 144.25 214.187 144.25 211.687C144.25 209.094 142.375 207.25 139.781 207.25C138.031 207.219 136.75 207.844 136.031 209.187H132.25L133.625 196.375H147V199.781H136.968L136.281 205.781H136.5C137.375 204.781 139.031 204.062 140.875 204.062C145.093 204.062 148.187 207.219 148.187 211.562C148.187 216.094 144.781 219.312 139.906 219.312Z" fill="black"/>
</g>
<g id="jeongui_hall_503">
<path d="M376.611 410.753C374.885 414.82 370.189 416.717 366.122 414.991L200.876 344.849C196.809 343.122 194.912 338.426 196.638 334.359L302.962 83.8748C304.689 79.8078 309.385 77.9103 313.452 79.6366L478.697 149.779C482.764 151.505 484.662 156.202 482.936 160.269L376.611 410.753Z" fill="#F7FBFF"/>
<path d="M312.28 82.3979L313.452 79.6366L478.697 149.779L477.525 152.54L312.28 82.3979ZM305.724 85.0468L199.4 335.531C198.321 338.073 199.507 341.008 202.049 342.087L367.294 412.23C369.836 413.309 372.771 412.123 373.85 409.581L480.174 159.096C481.253 156.555 480.067 153.619 477.525 152.54L478.697 149.779L479.073 149.95C482.757 151.739 484.494 156.04 483.087 159.886L482.936 160.269L376.611 410.753C374.885 414.82 370.189 416.717 366.122 414.991L200.876 344.849C196.809 343.122 194.912 338.426 196.638 334.359L302.962 83.8748L303.132 83.5C304.921 79.8155 309.223 78.0778 313.069 79.4853L313.452 79.6366L312.28 82.3979C309.739 81.319 306.803 82.5052 305.724 85.0468Z" fill="#2E2F33" fill-opacity="0.88"/>
<path d="M360.282 259.312C355.438 259.312 352 256.687 351.907 252.875H356C356.125 254.687 357.938 255.875 360.282 255.875C362.782 255.875 364.563 254.5 364.563 252.5C364.563 250.469 362.813 249 359.875 249H357.844V245.875H359.875C362.282 245.875 363.969 244.531 363.938 242.562C363.969 240.656 362.532 239.375 360.313 239.375C358.188 239.375 356.344 240.562 356.282 242.469H352.375C352.469 238.656 355.907 236.062 360.344 236.062C364.938 236.062 367.907 238.875 367.875 242.344C367.907 244.875 366.219 246.719 363.75 247.219V247.406C366.938 247.844 368.75 249.875 368.719 252.719C368.75 256.531 365.188 259.312 360.282 259.312Z" fill="black"/>
<path d="M339.969 259.312C334.532 259.312 331.282 255.094 331.282 247.687C331.282 240.312 334.532 236.062 339.969 236.062C345.375 236.062 348.657 240.312 348.657 247.687C348.657 255.094 345.407 259.312 339.969 259.312ZM339.969 255.906C342.813 255.906 344.563 253.125 344.563 247.687C344.563 242.281 342.782 239.437 339.969 239.437C337.157 239.437 335.375 242.281 335.375 247.687C335.375 253.125 337.125 255.906 339.969 255.906Z" fill="black"/>
<path d="M319.907 259.312C315.375 259.312 312.063 256.625 311.938 252.875H315.907C316.032 254.719 317.75 256.031 319.907 256.031C322.438 256.031 324.25 254.187 324.25 251.687C324.25 249.094 322.375 247.25 319.782 247.25C318.032 247.219 316.75 247.844 316.032 249.187H312.25L313.625 236.375H327V239.781H316.969L316.282 245.781H316.5C317.375 244.781 319.032 244.062 320.875 244.062C325.094 244.062 328.188 247.219 328.188 251.562C328.188 256.094 324.782 259.312 319.907 259.312Z" fill="black"/>
</g>
<g id="jeongui_hall_505">
<path d="M553.611 483.754C551.885 487.821 547.189 489.719 543.122 487.993L377.876 417.85C373.809 416.124 371.912 411.427 373.638 407.36L479.962 156.876C481.689 152.809 486.385 150.912 490.452 152.638L655.697 222.781C659.764 224.507 661.662 229.203 659.936 233.27L553.611 483.754Z" fill="#F7FBFF"/>
<path d="M489.28 155.399L490.452 152.638L655.697 222.781L654.525 225.542L489.28 155.399ZM482.724 158.048L376.4 408.533C375.321 411.074 376.507 414.01 379.049 415.089L544.294 485.231C546.836 486.31 549.771 485.124 550.85 482.582L657.174 232.098C658.253 229.556 657.067 226.621 654.525 225.542L655.697 222.781L656.073 222.951C659.757 224.74 661.494 229.041 660.087 232.887L659.936 233.27L553.611 483.754C551.885 487.821 547.189 489.719 543.122 487.993L377.876 417.85C373.809 416.124 371.912 411.427 373.638 407.36L479.962 156.876L480.132 156.501C481.921 152.817 486.223 151.079 490.069 152.487L490.452 152.638L489.28 155.399C486.739 154.32 483.803 155.507 482.724 158.048Z" fill="#2E2F33" fill-opacity="0.88"/>
<path d="M537.094 331.312C532.562 331.312 529.25 328.625 529.125 324.875H533.094C533.219 326.719 534.938 328.031 537.094 328.031C539.625 328.031 541.438 326.188 541.438 323.688C541.438 321.094 539.562 319.25 536.969 319.25C535.219 319.219 533.938 319.844 533.219 321.188H529.438L530.812 308.375H544.188V311.781H534.156L533.469 317.781H533.688C534.562 316.781 536.219 316.062 538.062 316.062C542.281 316.062 545.375 319.219 545.375 323.562C545.375 328.094 541.969 331.312 537.094 331.312Z" fill="black"/>
<path d="M516.969 331.312C511.531 331.312 508.281 327.094 508.281 319.688C508.281 312.312 511.531 308.062 516.969 308.062C522.375 308.062 525.656 312.312 525.656 319.688C525.656 327.094 522.406 331.312 516.969 331.312ZM516.969 327.906C519.812 327.906 521.562 325.125 521.562 319.688C521.562 314.281 519.781 311.438 516.969 311.438C514.156 311.438 512.375 314.281 512.375 319.688C512.375 325.125 514.125 327.906 516.969 327.906Z" fill="black"/>
<path d="M496.906 331.312C492.375 331.312 489.062 328.625 488.938 324.875H492.906C493.031 326.719 494.75 328.031 496.906 328.031C499.438 328.031 501.25 326.188 501.25 323.688C501.25 321.094 499.375 319.25 496.781 319.25C495.031 319.219 493.75 319.844 493.031 321.188H489.25L490.625 308.375H504V311.781H493.969L493.281 317.781H493.5C494.375 316.781 496.031 316.062 497.875 316.062C502.094 316.062 505.188 319.219 505.188 323.562C505.188 328.094 501.781 331.312 496.906 331.312Z" fill="black"/>
</g>
<g id="jeongui_hall_507">
<path d="M716.97 563.854C715.287 564.283 713.509 564.153 711.906 563.483L554.915 497.826C550.824 496.115 548.905 491.402 550.638 487.32L656.946 236.875C658.672 232.808 663.368 230.91 667.435 232.637L913.089 336.91C917.165 338.64 919.06 343.352 917.318 347.422L839.433 529.387C838.454 531.674 836.467 533.376 834.056 533.991L716.97 563.854Z" fill="#F7FBFF"/>
<path d="M666.263 235.398L667.435 232.637L913.089 336.91L911.917 339.671L666.263 235.398ZM659.707 238.047L553.4 488.491C552.317 491.043 553.516 493.988 556.073 495.058L713.064 560.715C714.065 561.134 715.176 561.215 716.229 560.947L833.314 531.084C834.821 530.699 836.064 529.636 836.675 528.206L914.56 346.242C915.649 343.698 914.464 340.753 911.917 339.671L913.089 336.91L913.465 337.081C917.157 338.875 918.892 343.189 917.471 347.039L917.318 347.422L839.433 529.387C838.515 531.531 836.711 533.162 834.502 533.863L834.056 533.991L716.97 563.854C715.287 564.283 713.509 564.153 711.906 563.483L554.915 497.826L554.538 497.657C550.707 495.821 548.959 491.274 550.638 487.32L656.946 236.875L657.116 236.5C658.905 232.816 663.206 231.078 667.052 232.485L667.435 232.637L666.263 235.398C663.722 234.319 660.786 235.505 659.707 238.047Z" fill="#2E2F33" fill-opacity="0.88"/>
<path d="M747.281 410L757.094 390.937V390.781H745.719V387.375H761.313V390.844L751.5 410H747.281Z" fill="black"/>
<path d="M734.969 410.312C729.531 410.312 726.281 406.094 726.281 398.687C726.281 391.312 729.531 387.062 734.969 387.062C740.375 387.062 743.656 391.312 743.656 398.687C743.656 406.094 740.406 410.312 734.969 410.312ZM734.969 406.906C737.813 406.906 739.563 404.125 739.563 398.687C739.563 393.281 737.781 390.437 734.969 390.437C732.156 390.437 730.375 393.281 730.375 398.687C730.375 404.125 732.125 406.906 734.969 406.906Z" fill="black"/>
<path d="M714.906 410.312C710.375 410.312 707.063 407.625 706.938 403.875H710.906C711.031 405.719 712.75 407.031 714.906 407.031C717.438 407.031 719.25 405.187 719.25 402.687C719.25 400.094 717.375 398.25 714.781 398.25C713.031 398.219 711.75 398.844 711.031 400.187H707.25L708.625 387.375H722V390.781H711.969L711.281 396.781H711.5C712.375 395.781 714.031 395.062 715.875 395.062C720.094 395.062 723.188 398.219 723.188 402.562C723.188 407.094 719.781 410.312 714.906 410.312Z" fill="black"/>
</g>
<g id="jeongui_hall_522">
<path d="M1139.08 349.862C1140.34 346.913 1143.23 345 1146.44 345H1260.1C1264.52 345 1268.1 348.582 1268.1 353V560.859C1268.1 565.135 1264.75 568.641 1260.48 568.749C1243.73 569.169 1201.95 569.538 1161.65 564.5C1122.29 559.579 1082.63 549.214 1065.69 544.468C1061.11 543.184 1058.78 538.182 1060.65 533.806L1139.08 349.862Z" fill="#F7FBFF"/>
<path d="M1265.1 353C1265.1 350.239 1262.86 348 1260.1 348H1146.44C1144.43 348 1142.62 349.196 1141.84 351.039L1063.41 534.983C1062.23 537.735 1063.7 540.797 1066.5 541.579C1083.39 546.312 1122.88 556.63 1162.02 561.523C1202.1 566.533 1243.7 566.17 1260.4 565.75C1263.01 565.685 1265.1 563.546 1265.1 560.859V353ZM1268.1 560.859L1268.09 561.258C1267.89 565.351 1264.62 568.645 1260.48 568.749L1257.05 568.825C1238.82 569.188 1200.73 569.222 1163.54 564.732L1161.65 564.5C1124.75 559.887 1087.59 550.488 1069.13 545.421L1065.69 544.468C1061.25 543.225 1058.93 538.492 1060.48 534.219L1060.65 533.806L1139.08 349.862C1140.3 347.006 1143.05 345.121 1146.14 345.006L1146.44 345H1260.1L1260.51 345.011C1264.74 345.225 1268.1 348.72 1268.1 353V560.859Z" fill="#2E2F33" fill-opacity="0.88"/>
<path d="M1196.91 470V467.062L1204.91 459.344C1207.19 457.062 1208.37 455.719 1208.37 453.812C1208.37 451.719 1206.72 450.375 1204.5 450.375C1202.16 450.375 1200.66 451.844 1200.69 454.125H1196.81C1196.78 449.844 1200 447.062 1204.53 447.062C1209.16 447.062 1212.28 449.812 1212.28 453.625C1212.28 456.188 1211.03 458.25 1206.59 462.438L1202.56 466.438V466.594H1212.62V470H1196.91Z" fill="black"/>
<path d="M1177.62 470V467.062L1185.62 459.344C1187.91 457.062 1189.09 455.719 1189.09 453.812C1189.09 451.719 1187.44 450.375 1185.22 450.375C1182.87 450.375 1181.37 451.844 1181.41 454.125H1177.53C1177.5 449.844 1180.72 447.062 1185.25 447.062C1189.87 447.062 1193 449.812 1193 453.625C1193 456.188 1191.75 458.25 1187.31 462.438L1183.28 466.438V466.594H1193.34V470H1177.62Z" fill="black"/>
<path d="M1165.91 470.312C1161.37 470.312 1158.06 467.625 1157.94 463.875H1161.91C1162.03 465.719 1163.75 467.031 1165.91 467.031C1168.44 467.031 1170.25 465.188 1170.25 462.688C1170.25 460.094 1168.37 458.25 1165.78 458.25C1164.03 458.219 1162.75 458.844 1162.03 460.188H1158.25L1159.62 447.375H1173V450.781H1162.97L1162.28 456.781H1162.5C1163.37 455.781 1165.03 455.062 1166.87 455.062C1171.09 455.062 1174.19 458.219 1174.19 462.562C1174.19 467.094 1170.78 470.312 1165.91 470.312Z" fill="black"/>
</g>
<g id="jeongui_hall_523">
<path d="M1394.02 348.862C1392.76 345.913 1389.87 344 1386.66 344H1273C1268.58 344 1265 347.582 1265 352V559.859C1265 564.135 1268.34 567.641 1272.62 567.749C1289.37 568.169 1331.14 568.538 1371.45 563.5C1410.81 558.579 1450.46 548.214 1467.41 543.468C1471.99 542.184 1474.32 537.182 1472.45 532.806L1394.02 348.862Z" fill="#F7FBFF"/>
<path d="M1268 352C1268 349.239 1270.24 347 1273 347H1386.66C1388.66 347 1390.47 348.196 1391.26 350.039L1469.69 533.983C1470.87 536.735 1469.39 539.797 1466.6 540.579C1449.7 545.312 1410.22 555.63 1371.07 560.523C1330.99 565.533 1289.4 565.17 1272.69 564.75C1270.08 564.685 1268 562.546 1268 559.859V352ZM1265 559.859L1265.01 560.258C1265.21 564.351 1268.48 567.645 1272.62 567.749L1276.05 567.825C1294.28 568.188 1332.36 568.222 1369.55 563.732L1371.45 563.5C1408.35 558.887 1445.51 549.488 1463.97 544.421L1467.41 543.468C1471.85 542.225 1474.17 537.492 1472.61 533.219L1472.45 532.806L1394.02 348.862C1392.8 346.006 1390.04 344.121 1386.96 344.006L1386.66 344H1273L1272.59 344.011C1268.36 344.225 1265 347.72 1265 352V559.859Z" fill="#2E2F33" fill-opacity="0.88"/>
<path d="M1360.12 470.312C1355.28 470.312 1351.84 467.688 1351.75 463.875H1355.84C1355.97 465.688 1357.78 466.875 1360.12 466.875C1362.62 466.875 1364.41 465.5 1364.41 463.5C1364.41 461.469 1362.66 460 1359.72 460H1357.69V456.875H1359.72C1362.12 456.875 1363.81 455.531 1363.78 453.562C1363.81 451.656 1362.38 450.375 1360.16 450.375C1358.03 450.375 1356.19 451.562 1356.12 453.469H1352.22C1352.31 449.656 1355.75 447.062 1360.19 447.062C1364.78 447.062 1367.75 449.875 1367.72 453.344C1367.75 455.875 1366.06 457.719 1363.59 458.219V458.406C1366.78 458.844 1368.59 460.875 1368.56 463.719C1368.59 467.531 1365.03 470.312 1360.12 470.312Z" fill="black"/>
<path d="M1332.62 470V467.062L1340.62 459.344C1342.91 457.062 1344.09 455.719 1344.09 453.812C1344.09 451.719 1342.44 450.375 1340.22 450.375C1337.87 450.375 1336.37 451.844 1336.41 454.125H1332.53C1332.5 449.844 1335.72 447.062 1340.25 447.062C1344.87 447.062 1348 449.812 1348 453.625C1348 456.188 1346.75 458.25 1342.31 462.438L1338.28 466.438V466.594H1348.34V470H1332.62Z" fill="black"/>
<path d="M1320.91 470.312C1316.38 470.312 1313.06 467.625 1312.94 463.875H1316.91C1317.03 465.719 1318.75 467.031 1320.91 467.031C1323.44 467.031 1325.25 465.188 1325.25 462.688C1325.25 460.094 1323.38 458.25 1320.78 458.25C1319.03 458.219 1317.75 458.844 1317.03 460.188H1313.25L1314.62 447.375H1328V450.781H1317.97L1317.28 456.781H1317.5C1318.38 455.781 1320.03 455.062 1321.88 455.062C1326.09 455.062 1329.19 458.219 1329.19 462.562C1329.19 467.094 1325.78 470.312 1320.91 470.312Z" fill="black"/>
</g>
<g id="jeongui_hall_511">
<path d="M1145.36 631.811C1145.98 627.754 1149.53 624.82 1153.63 625.006C1171.29 625.81 1218.69 627.795 1264.26 628.193C1310.34 628.595 1358.85 628.352 1376.25 628.24C1380.14 628.215 1383.46 630.986 1384.15 634.812L1413.55 795.99C1414.33 800.261 1411.59 804.345 1407.32 805.107C1387.8 808.586 1332.75 817.168 1264.63 817.168C1196.86 817.168 1144.95 809.304 1126.37 806.051C1122.18 805.317 1119.45 801.372 1120.09 797.168L1145.36 631.811Z" fill="#F7FBFF"/>
<path d="M1153.63 625.006C1171.29 625.81 1218.69 627.795 1264.26 628.193C1310.34 628.595 1358.85 628.352 1376.25 628.24C1380.14 628.215 1383.46 630.986 1384.15 634.812L1413.55 795.99C1414.33 800.261 1411.59 804.345 1407.32 805.107L1405.39 805.448C1384.35 809.114 1330.63 817.168 1264.63 817.168L1264.63 814.168C1332.52 814.168 1387.38 805.613 1406.79 802.153C1409.37 801.693 1411.09 799.224 1410.6 796.528L1381.2 635.35C1380.76 632.945 1378.69 631.224 1376.27 631.24C1358.86 631.352 1310.34 631.595 1264.24 631.193C1218.61 630.795 1171.16 628.808 1153.5 628.003C1150.94 627.887 1148.71 629.714 1148.32 632.264L1123.06 797.621C1122.65 800.273 1124.36 802.653 1126.89 803.095C1145.35 806.328 1197.08 814.168 1264.63 814.168L1264.63 817.168L1261.47 817.162C1195.25 816.923 1144.66 809.253 1126.37 806.051C1122.18 805.317 1119.45 801.372 1120.09 797.168L1145.36 631.811C1145.98 627.754 1149.53 624.82 1153.63 625.006Z" fill="#2E2F33" fill-opacity="0.88"/>
<path d="M1287.5 709.375V732H1283.41V713.343H1283.28L1278 716.718V713L1283.59 709.375H1287.5Z" fill="black"/>
<path d="M1272.81 709.375V732H1268.72V713.343H1268.59L1263.31 716.718V713L1268.91 709.375H1272.81Z" fill="black"/>
<path d="M1251.91 732.312C1247.38 732.312 1244.06 729.625 1243.94 725.875H1247.91C1248.03 727.718 1249.75 729.031 1251.91 729.031C1254.44 729.031 1256.25 727.187 1256.25 724.687C1256.25 722.093 1254.38 720.25 1251.78 720.25C1250.03 720.218 1248.75 720.843 1248.03 722.187H1244.25L1245.63 709.375H1259V712.781H1248.97L1248.28 718.781H1248.5C1249.38 717.781 1251.03 717.062 1252.88 717.062C1257.09 717.062 1260.19 720.218 1260.19 724.562C1260.19 729.093 1256.78 732.312 1251.91 732.312Z" fill="black"/>
</g>
<g id="jeongui_hall_510">
<path d="M1031.31 600.215C1032.82 596.205 1037.18 594.08 1041.26 595.382C1058.35 600.831 1102.57 614.607 1141.26 623.852C1145.34 624.827 1148.01 628.755 1147.37 632.902L1122.23 797.046C1121.55 801.448 1117.44 804.448 1113.05 803.669C1099.17 801.204 1069.65 795.665 1045 789.043C1020.43 782.441 990.75 773.688 976.675 769.491C972.24 768.169 969.888 763.372 971.518 759.041L1031.31 600.215Z" fill="#F7FBFF"/>
<path d="M1031.31 600.215C1032.82 596.205 1037.18 594.08 1041.26 595.382C1058.35 600.831 1102.57 614.607 1141.26 623.852C1145.34 624.827 1148.01 628.755 1147.37 632.902L1122.23 797.046L1122.15 797.454C1121.3 801.632 1117.3 804.423 1113.05 803.669C1099.61 801.281 1071.48 796.008 1047.33 789.66L1045 789.043C1023.5 783.267 998.09 775.843 982.644 771.265L976.675 769.491C972.24 768.169 969.888 763.372 971.518 759.041L1031.31 600.215ZM1040.35 598.24C1037.8 597.426 1035.06 598.752 1034.11 601.272L974.325 760.098C973.302 762.817 974.782 765.796 977.532 766.616C991.605 770.812 1021.25 779.555 1045.78 786.145C1070.3 792.732 1099.71 798.253 1113.58 800.716C1116.27 801.195 1118.84 799.357 1119.26 796.592L1144.41 632.447C1144.81 629.859 1143.14 627.386 1140.56 626.77C1101.76 617.498 1057.45 603.693 1040.35 598.24Z" fill="#2E2F33" fill-opacity="0.88"/>
<path d="M1076.66 710.312C1071.22 710.312 1067.97 706.094 1067.97 698.687C1067.97 691.312 1071.22 687.062 1076.66 687.062C1082.06 687.062 1085.34 691.312 1085.34 698.687C1085.34 706.094 1082.09 710.312 1076.66 710.312ZM1076.66 706.906C1079.5 706.906 1081.25 704.125 1081.25 698.687C1081.25 693.281 1079.47 690.437 1076.66 690.437C1073.84 690.437 1072.06 693.281 1072.06 698.687C1072.06 704.125 1073.81 706.906 1076.66 706.906Z" fill="black"/>
<path d="M1062.81 687.375V710H1058.72V691.344H1058.59L1053.31 694.719V691L1058.91 687.375H1062.81Z" fill="black"/>
<path d="M1041.91 710.312C1037.38 710.312 1034.06 707.625 1033.94 703.875H1037.91C1038.03 705.719 1039.75 707.031 1041.91 707.031C1044.44 707.031 1046.25 705.187 1046.25 702.687C1046.25 700.094 1044.38 698.25 1041.78 698.25C1040.03 698.219 1038.75 698.844 1038.03 700.187H1034.25L1035.63 687.375H1049V690.781H1038.97L1038.28 696.781H1038.5C1039.38 695.781 1041.03 695.062 1042.88 695.062C1047.09 695.062 1050.19 698.219 1050.19 702.562C1050.19 707.094 1046.78 710.312 1041.91 710.312Z" fill="black"/>
</g>
<g id="jeongui_hall_513">
<path d="M1493.75 601.017C1492.11 597.003 1487.59 595.01 1483.52 596.488C1467.19 602.411 1426.14 616.806 1388.21 626.057C1384.06 627.068 1381.38 631.103 1382.12 635.302L1410.4 795.833C1411.17 800.22 1415.36 803.131 1419.73 802.279C1433.58 799.581 1463.01 793.693 1487.3 787.804C1511.3 781.986 1539.54 773.257 1553.15 768.93C1557.57 767.525 1559.81 762.656 1558.06 758.363L1493.75 601.017Z" fill="#F7FBFF"/>
<path d="M1493.75 601.017C1492.11 597.003 1487.59 595.01 1483.52 596.488C1467.19 602.411 1426.14 616.806 1388.21 626.057C1384.06 627.068 1381.38 631.103 1382.12 635.302L1410.4 795.833L1410.48 796.24C1411.43 800.399 1415.49 803.105 1419.73 802.279C1432.71 799.75 1459.39 794.417 1482.69 788.908L1487.3 787.804C1508.3 782.713 1532.55 775.394 1547.4 770.745L1553.15 768.93C1557.43 767.569 1559.67 762.957 1558.21 758.766L1558.06 758.363L1493.75 601.017ZM1484.54 599.308C1487.11 598.377 1489.94 599.634 1490.97 602.151L1555.28 759.498C1556.38 762.192 1554.97 765.204 1552.24 766.071C1538.64 770.395 1510.49 779.096 1486.59 784.888C1462.38 790.76 1433 796.638 1419.16 799.335C1416.45 799.862 1413.84 798.066 1413.35 795.312L1385.08 634.782C1384.62 632.165 1386.28 629.613 1388.92 628.971C1427.02 619.68 1468.19 605.239 1484.54 599.308Z" fill="#2E2F33" fill-opacity="0.88"/>
<path d="M1487.53 710.312C1482.69 710.312 1479.25 707.687 1479.16 703.875H1483.25C1483.38 705.687 1485.19 706.875 1487.53 706.875C1490.03 706.875 1491.81 705.5 1491.81 703.5C1491.81 701.469 1490.06 700 1487.13 700H1485.09V696.875H1487.13C1489.53 696.875 1491.22 695.531 1491.19 693.562C1491.22 691.656 1489.78 690.375 1487.56 690.375C1485.44 690.375 1483.59 691.562 1483.53 693.469H1479.63C1479.72 689.656 1483.16 687.062 1487.59 687.062C1492.19 687.062 1495.16 689.875 1495.13 693.344C1495.16 695.875 1493.47 697.719 1491 698.219V698.406C1494.19 698.844 1496 700.875 1495.97 703.719C1496 707.531 1492.44 710.312 1487.53 710.312Z" fill="black"/>
<path d="M1473.81 687.375V710H1469.72V691.344H1469.59L1464.31 694.719V691L1469.91 687.375H1473.81Z" fill="black"/>
<path d="M1452.91 710.312C1448.38 710.312 1445.06 707.625 1444.94 703.875H1448.91C1449.03 705.719 1450.75 707.031 1452.91 707.031C1455.44 707.031 1457.25 705.187 1457.25 702.687C1457.25 700.094 1455.38 698.25 1452.78 698.25C1451.03 698.219 1449.75 698.844 1449.03 700.187H1445.25L1446.63 687.375H1460V690.781H1449.97L1449.28 696.781H1449.5C1450.38 695.781 1452.03 695.062 1453.88 695.062C1458.09 695.062 1461.19 698.219 1461.19 702.562C1461.19 707.094 1457.78 710.312 1452.91 710.312Z" fill="black"/>
</g>
<g id="jeongui_hall_514">
<path d="M1806 572.854C1807.68 573.283 1809.46 573.153 1811.06 572.483L1968.05 506.826C1972.14 505.115 1974.06 500.402 1972.33 496.32L1866.02 245.875C1864.29 241.808 1859.6 239.91 1855.53 241.637L1609.88 345.91C1605.8 347.64 1603.91 352.352 1605.65 356.422L1683.53 538.387C1684.51 540.674 1686.5 542.376 1688.91 542.991L1806 572.854Z" fill="#F7FBFF"/>
<path d="M1856.7 244.398L1855.53 241.637L1609.88 345.91L1611.05 348.671L1856.7 244.398ZM1863.26 247.047L1969.57 497.491C1970.65 500.043 1969.45 502.988 1966.89 504.058L1809.9 569.715C1808.9 570.134 1807.79 570.215 1806.74 569.947L1689.65 540.084C1688.14 539.699 1686.9 538.636 1686.29 537.206L1608.41 355.242C1607.32 352.698 1608.5 349.753 1611.05 348.671L1609.88 345.91L1609.5 346.081C1605.81 347.875 1604.07 352.189 1605.49 356.039L1605.65 356.422L1683.53 538.387C1684.45 540.531 1686.25 542.162 1688.46 542.863L1688.91 542.991L1806 572.854C1807.68 573.283 1809.46 573.153 1811.06 572.483L1968.05 506.826L1968.43 506.657C1972.26 504.821 1974.01 500.274 1972.33 496.32L1866.02 245.875L1865.85 245.5C1864.06 241.816 1859.76 240.078 1855.91 241.485L1855.53 241.637L1856.7 244.398C1859.24 243.319 1862.18 244.505 1863.26 247.047Z" fill="#2E2F33" fill-opacity="0.88"/>
<path d="M1795.91 413.781V410.531L1805.69 395.375H1810.75V410.437H1813.72V413.781H1810.75V418H1806.87V413.781H1795.91ZM1800.06 410.437H1806.94V400H1806.69L1800.06 410.281V410.437Z" fill="black"/>
<path d="M1790.81 395.375V418H1786.72V399.344H1786.59L1781.31 402.719V399L1786.91 395.375H1790.81Z" fill="black"/>
<path d="M1769.91 418.312C1765.37 418.312 1762.06 415.625 1761.94 411.875H1765.91C1766.03 413.719 1767.75 415.031 1769.91 415.031C1772.44 415.031 1774.25 413.187 1774.25 410.687C1774.25 408.094 1772.37 406.25 1769.78 406.25C1768.03 406.219 1766.75 406.844 1766.03 408.187H1762.25L1763.62 395.375H1777V398.781H1766.97L1766.28 404.781H1766.5C1767.37 403.781 1769.03 403.062 1770.87 403.062C1775.09 403.062 1778.19 406.219 1778.19 410.562C1778.19 415.094 1774.78 418.312 1769.91 418.312Z" fill="black"/>
</g>
<g id="jeongui_hall_517">
<path d="M1967.96 495.753C1969.69 499.82 1974.38 501.717 1978.45 499.991L2143.7 429.849C2147.76 428.122 2149.66 423.426 2147.94 419.359L2041.61 168.875C2039.89 164.808 2035.19 162.91 2031.12 164.637L1865.88 234.779C1861.81 236.505 1859.91 241.202 1861.64 245.269L1967.96 495.753Z" fill="#F7FBFF"/>
<path d="M2032.29 167.398L2031.12 164.637L1865.88 234.779L1867.05 237.54L2032.29 167.398ZM2038.85 170.047L2145.17 420.531C2146.25 423.073 2145.07 426.008 2142.52 427.087L1977.28 497.23C1974.74 498.309 1971.8 497.123 1970.72 494.581L1864.4 244.096C1863.32 241.555 1864.51 238.619 1867.05 237.54L1865.88 234.779L1865.5 234.95C1861.82 236.739 1860.08 241.04 1861.49 244.886L1861.64 245.269L1967.96 495.753C1969.69 499.82 1974.38 501.717 1978.45 499.991L2143.7 429.849C2147.76 428.122 2149.66 423.426 2147.94 419.359L2041.61 168.875L2041.44 168.5C2039.65 164.815 2035.35 163.078 2031.5 164.485L2031.12 164.637L2032.29 167.398C2034.84 166.319 2037.77 167.505 2038.85 170.047Z" fill="#2E2F33" fill-opacity="0.88"/>
<path d="M2016.16 343L2025.97 323.937V323.781H2014.59V320.375H2030.19V323.844L2020.38 343H2016.16Z" fill="black"/>
<path d="M2009.81 320.375V343H2005.72V324.344H2005.59L2000.31 327.719V324L2005.91 320.375H2009.81Z" fill="black"/>
<path d="M1988.91 343.312C1984.38 343.312 1981.06 340.625 1980.94 336.875H1984.91C1985.03 338.719 1986.75 340.031 1988.91 340.031C1991.44 340.031 1993.25 338.187 1993.25 335.687C1993.25 333.094 1991.38 331.25 1988.78 331.25C1987.03 331.219 1985.75 331.844 1985.03 333.187H1981.25L1982.63 320.375H1996V323.781H1985.97L1985.28 329.781H1985.5C1986.38 328.781 1988.03 328.062 1989.88 328.062C1994.09 328.062 1997.19 331.219 1997.19 335.562C1997.19 340.094 1993.78 343.312 1988.91 343.312Z" fill="black"/>
</g>
<g id="jeongui_hall_519">
<path d="M2144.96 419.753C2146.69 423.82 2151.38 425.717 2155.45 423.991L2320.7 353.849C2324.76 352.122 2326.66 347.426 2324.94 343.359L2218.61 92.8748C2216.89 88.8078 2212.19 86.9103 2208.12 88.6366L2042.88 158.779C2038.81 160.505 2036.91 165.202 2038.64 169.269L2144.96 419.753Z" fill="#F7FBFF"/>
<path d="M2209.29 91.3979L2208.12 88.6366L2042.88 158.779L2044.05 161.54L2209.29 91.3979ZM2215.85 94.0468L2322.17 344.531C2323.25 347.073 2322.07 350.008 2319.52 351.087L2154.28 421.23C2151.74 422.309 2148.8 421.123 2147.72 418.581L2041.4 168.096C2040.32 165.555 2041.51 162.619 2044.05 161.54L2042.88 158.779L2042.5 158.95C2038.82 160.739 2037.08 165.04 2038.49 168.886L2038.64 169.269L2144.96 419.753C2146.69 423.82 2151.38 425.717 2155.45 423.991L2320.7 353.849C2324.76 352.122 2326.66 347.426 2324.94 343.359L2218.61 92.8748L2218.44 92.5C2216.65 88.8155 2212.35 87.0778 2208.5 88.4853L2208.12 88.6366L2209.29 91.3979C2211.84 90.319 2214.77 91.5052 2215.85 94.0468Z" fill="#2E2F33" fill-opacity="0.88"/>
<path d="M2198.34 244.062C2202.78 244.094 2207.16 246.719 2207.19 255C2207.19 262.812 2203.66 267.312 2198.09 267.312C2193.72 267.312 2190.72 264.594 2190.22 260.844H2194.25C2194.66 262.625 2196.03 263.781 2198.09 263.781C2201.38 263.781 2203.22 260.875 2203.25 256.031H2203C2201.84 258 2199.69 259.156 2197.19 259.156C2193.16 259.156 2190.03 256.094 2190 251.812C2190 247.375 2193.31 244.031 2198.34 244.062ZM2198.38 247.344C2195.84 247.344 2193.94 249.312 2193.97 251.719C2193.97 254.156 2195.78 256.062 2198.31 256.062C2200.81 256.062 2202.78 254.031 2202.75 251.687C2202.75 249.375 2200.91 247.344 2198.38 247.344Z" fill="black"/>
<path d="M2184.81 244.375V267H2180.72V248.344H2180.59L2175.31 251.719V248L2180.91 244.375H2184.81Z" fill="black"/>
<path d="M2163.91 267.312C2159.38 267.312 2156.06 264.625 2155.94 260.875H2159.91C2160.03 262.719 2161.75 264.031 2163.91 264.031C2166.44 264.031 2168.25 262.187 2168.25 259.687C2168.25 257.094 2166.38 255.25 2163.78 255.25C2162.03 255.219 2160.75 255.844 2160.03 257.187H2156.25L2157.63 244.375H2171V247.781H2160.97L2160.28 253.781H2160.5C2161.38 252.781 2163.03 252.062 2164.88 252.062C2169.09 252.062 2172.19 255.219 2172.19 259.562C2172.19 264.094 2168.78 267.312 2163.91 267.312Z" fill="black"/>
</g>
<g id="jeongui_hall_520">
<path d="M2348.15 403.601C2349.87 407.668 2354.57 409.565 2358.64 407.839L2506.24 345.185C2510.31 343.459 2512.21 338.762 2510.48 334.695L2378.97 24.8773C2377.24 20.8103 2372.55 18.9128 2368.48 20.6391L2220.88 83.293C2216.81 85.0193 2214.91 89.7158 2216.64 93.7829L2348.15 403.601Z" fill="#F7FBFF"/>
<path d="M2369.65 23.4009L2368.48 20.6391L2220.88 83.293L2222.05 86.0549L2369.65 23.4009ZM2376.21 26.0498L2507.72 335.867C2508.8 338.409 2507.61 341.344 2505.07 342.423L2357.47 405.077C2354.92 406.156 2351.99 404.97 2350.91 402.428L2219.4 92.6111C2218.32 90.0692 2219.51 87.1339 2222.05 86.0549L2220.88 83.293C2216.81 85.0193 2214.91 89.7158 2216.64 93.7829L2348.15 403.601C2349.87 407.668 2354.57 409.565 2358.64 407.839L2506.24 345.185L2506.62 345.014C2510.42 343.166 2512.15 338.635 2510.48 334.695L2378.97 24.8773L2378.8 24.5025C2377.01 20.818 2372.71 19.0802 2368.86 20.4878L2368.48 20.6391L2369.65 23.4009C2372.19 22.3222 2375.13 23.508 2376.21 26.0498Z" fill="#2E2F33" fill-opacity="0.88"/>
<path d="M2383.25 226.312C2377.81 226.312 2374.56 222.094 2374.56 214.687C2374.56 207.312 2377.81 203.062 2383.25 203.062C2388.66 203.062 2391.94 207.312 2391.94 214.687C2391.94 222.094 2388.69 226.312 2383.25 226.312ZM2383.25 222.906C2386.09 222.906 2387.84 220.125 2387.84 214.687C2387.84 209.281 2386.06 206.437 2383.25 206.437C2380.44 206.437 2378.66 209.281 2378.66 214.687C2378.66 220.125 2380.41 222.906 2383.25 222.906Z" fill="black"/>
<path d="M2355.63 226V223.062L2363.63 215.344C2365.91 213.062 2367.09 211.719 2367.09 209.812C2367.09 207.719 2365.44 206.375 2363.22 206.375C2360.88 206.375 2359.38 207.844 2359.41 210.125H2355.53C2355.5 205.844 2358.72 203.062 2363.25 203.062C2367.88 203.062 2371 205.812 2371 209.625C2371 212.187 2369.75 214.25 2365.31 218.437L2361.28 222.437V222.594H2371.34V226H2355.63Z" fill="black"/>
<path d="M2343.91 226.312C2339.38 226.312 2336.06 223.625 2335.94 219.875H2339.91C2340.03 221.719 2341.75 223.031 2343.91 223.031C2346.44 223.031 2348.25 221.187 2348.25 218.687C2348.25 216.094 2346.38 214.25 2343.78 214.25C2342.03 214.219 2340.75 214.844 2340.03 216.187H2336.25L2337.63 203.375H2351V206.781H2340.97L2340.28 212.781H2340.5C2341.38 211.781 2343.03 211.062 2344.88 211.062C2349.09 211.062 2352.19 214.219 2352.19 218.562C2352.19 223.094 2348.78 226.312 2343.91 226.312Z" fill="black"/>
</g>
<g id="jeongui_hall_5f_stairs_left">
<path d="M1029.9 338.97C1031.63 334.903 1029.73 330.206 1025.66 328.48L945.934 294.638C941.867 292.911 937.17 294.809 935.444 298.876L884.638 418.567C882.912 422.634 884.809 427.33 888.876 429.057L968.603 462.899C972.67 464.625 977.367 462.728 979.093 458.661L1029.9 338.97Z" fill="#D9FFE6"/>
<path d="M890.049 426.295L888.876 429.057L968.603 462.899L969.776 460.137L890.049 426.295ZM887.4 419.739L938.206 300.048C939.285 297.506 942.22 296.32 944.762 297.399L1024.49 331.241C1027.03 332.32 1028.22 335.256 1027.14 337.797L976.332 457.488C975.253 460.03 972.318 461.216 969.776 460.137L968.603 462.899L968.987 463.051C972.961 464.505 977.421 462.601 979.093 458.661L1029.9 338.97C1031.63 334.903 1029.73 330.206 1025.66 328.48L945.934 294.638C941.867 292.911 937.17 294.809 935.444 298.876L884.638 418.567C882.912 422.634 884.809 427.33 888.876 429.057L890.049 426.295C887.507 425.216 886.321 422.281 887.4 419.739Z" fill="#2E2F33" fill-opacity="0.88"/>
<path d="M980.94 351.635C979.891 351.248 978.727 351.788 978.34 352.836L974.58 363.056H953.281L956.805 354.29C957.222 353.252 956.719 352.071 955.681 351.654C954.643 351.237 953.464 351.743 953.047 352.778L933.432 401.582C933.015 402.62 933.517 403.8 934.555 404.217C934.803 404.316 935.058 404.364 935.31 404.364C936.112 404.364 936.873 403.884 937.189 403.094L941.218 393.071C941.305 393.083 941.382 393.122 941.472 393.122H963.519L960.385 401.64C960 402.689 960.537 403.854 961.587 404.238C961.818 404.324 962.055 404.364 962.286 404.364C963.109 404.364 963.885 403.856 964.186 403.037L982.141 354.233C982.527 353.184 981.99 352.019 980.94 351.635ZM952.074 367.104H973.089L969.849 375.911H948.114L951.685 367.026C951.816 367.052 951.936 367.104 952.074 367.104ZM942.825 389.072L946.51 379.904C946.606 379.917 946.693 379.961 946.794 379.961H968.361L965.008 389.072H942.825Z" fill="#6E4944"/>
</g>
<g id="jeongui_hall_5f_stairs_right">
<path d="M1502.64 337.653C1500.91 333.586 1502.81 328.89 1506.88 327.163L1574.07 298.64C1578.14 296.914 1582.84 298.811 1584.56 302.878L1635.37 422.569C1637.1 426.636 1635.2 431.333 1631.13 433.059L1563.93 461.583C1559.87 463.309 1555.17 461.411 1553.44 457.344L1502.64 337.653Z" fill="#D9FFE6"/>
<path d="M1629.96 430.297L1631.13 433.059L1563.93 461.583L1562.76 458.821L1629.96 430.297ZM1632.61 423.741L1581.8 304.05C1580.72 301.508 1577.79 300.323 1575.25 301.401L1508.05 329.925C1505.51 331.004 1504.32 333.939 1505.4 336.481L1556.21 456.172C1557.28 458.714 1560.22 459.9 1562.76 458.821L1563.93 461.583L1563.55 461.734C1559.58 463.188 1555.12 461.284 1553.44 457.344L1502.64 337.653C1500.91 333.586 1502.81 328.89 1506.88 327.163L1574.07 298.64C1578.14 296.914 1582.84 298.811 1584.56 302.878L1635.37 422.569C1637.1 426.636 1635.2 431.333 1631.13 433.059L1629.96 430.297C1632.5 429.218 1633.69 426.283 1632.61 423.741Z" fill="#2E2F33" fill-opacity="0.88"/>
<path d="M1592.94 353.635C1591.89 353.248 1590.73 353.788 1590.34 354.836L1586.58 365.056H1565.28L1568.81 356.29C1569.22 355.252 1568.72 354.071 1567.68 353.654C1566.64 353.237 1565.46 353.743 1565.05 354.778L1545.43 403.582C1545.02 404.62 1545.52 405.8 1546.56 406.217C1546.8 406.316 1547.06 406.364 1547.31 406.364C1548.11 406.364 1548.87 405.884 1549.19 405.094L1553.22 395.071C1553.31 395.083 1553.38 395.122 1553.47 395.122H1575.52L1572.39 403.64C1572 404.689 1572.54 405.854 1573.59 406.238C1573.82 406.324 1574.06 406.364 1574.29 406.364C1575.11 406.364 1575.89 405.856 1576.19 405.037L1594.14 356.233C1594.53 355.184 1593.99 354.019 1592.94 353.635ZM1564.07 369.104H1585.09L1581.85 377.911H1560.11L1563.69 369.026C1563.82 369.052 1563.94 369.104 1564.07 369.104ZM1554.83 391.072L1558.51 381.904C1558.61 381.917 1558.69 381.961 1558.79 381.961H1580.36L1577.01 391.072H1554.83Z" fill="#6E4944"/>
</g>
<g id="jeongui_hall_5f_toilet_girl">
<path d="M1117.66 405.86C1119.38 401.793 1117.48 397.097 1113.42 395.37L1026.88 358.639C1022.82 356.913 1018.12 358.811 1016.39 362.878L961.638 491.877C959.912 495.944 961.809 500.64 965.876 502.367L1052.41 539.097C1056.48 540.824 1061.17 538.926 1062.9 534.859L1117.66 405.86Z" fill="#FED9C4"/>
<path d="M967.048 499.605L965.876 502.367L1052.41 539.097L1053.58 536.336L967.048 499.605ZM964.399 493.049L1019.16 364.05C1020.23 361.508 1023.17 360.322 1025.71 361.401L1112.25 398.132C1114.79 399.211 1115.97 402.146 1114.89 404.688L1060.14 533.687C1059.06 536.229 1056.12 537.415 1053.58 536.336L1052.41 539.097L1052.79 539.249C1056.64 540.656 1060.94 538.918 1062.73 535.234L1062.9 534.859L1117.66 405.86C1119.33 401.92 1117.6 397.39 1113.79 395.541L1113.42 395.37L1026.88 358.639L1026.5 358.489C1022.53 357.034 1018.07 358.938 1016.39 362.878L961.638 491.877L961.487 492.259C960.079 496.106 961.817 500.407 965.502 502.196L965.876 502.367L967.048 499.605C964.506 498.526 963.32 495.591 964.399 493.049Z" fill="#2E2F33" fill-opacity="0.88"/>
<path d="M1052.75 424.25H1027.25C1020.62 424.25 1015.25 429.623 1015.25 436.25V461.75C1015.25 468.377 1020.62 473.75 1027.25 473.75H1052.75C1059.38 473.75 1064.75 468.377 1064.75 461.75V436.25C1064.75 429.623 1059.38 424.25 1052.75 424.25Z" fill="#E76D6D"/>
<path d="M1037.27 446.977L1031.81 459.524C1030.95 461.488 1032.39 463.685 1034.53 463.685H1045.46C1047.61 463.685 1049.05 461.488 1048.19 459.524L1042.72 446.977C1041.69 444.595 1038.31 444.595 1037.27 446.977H1037.27Z" fill="white"/>
<path d="M1040 442.381C1042.23 442.381 1044.03 440.575 1044.03 438.349C1044.03 436.122 1042.23 434.317 1040 434.317C1037.77 434.317 1035.97 436.122 1035.97 438.349C1035.97 440.575 1037.77 442.381 1040 442.381Z" fill="white"/>
</g>
<g id="jeongui_hall_5f_toilet_boy">
<path d="M1414.64 404.86C1412.91 400.793 1414.81 396.097 1418.88 394.37L1505.41 357.639C1509.48 355.913 1514.17 357.811 1515.9 361.878L1570.66 490.877C1572.38 494.944 1570.48 499.64 1566.42 501.367L1479.88 538.097C1475.82 539.824 1471.12 537.926 1469.39 533.859L1414.64 404.86Z" fill="#FED9C4"/>
<path d="M1565.25 498.605L1566.42 501.367L1479.88 538.097L1478.71 535.336L1565.25 498.605ZM1567.89 492.049L1513.14 363.05C1512.06 360.508 1509.12 359.322 1506.58 360.401L1420.05 397.132C1417.51 398.211 1416.32 401.146 1417.4 403.688L1472.16 532.687C1473.24 535.229 1476.17 536.415 1478.71 535.336L1479.88 538.097L1479.5 538.249C1475.65 539.656 1471.35 537.918 1469.57 534.234L1469.39 533.859L1414.64 404.86C1412.97 400.92 1414.69 396.39 1418.5 394.541L1418.88 394.37L1505.41 357.639L1505.79 357.489C1509.77 356.034 1514.23 357.938 1515.9 361.878L1570.66 490.877L1570.81 491.259C1572.21 495.106 1570.48 499.407 1566.79 501.196L1566.42 501.367L1565.25 498.605C1567.79 497.526 1568.97 494.591 1567.89 492.049Z" fill="#2E2F33" fill-opacity="0.88"/>
<path d="M1505.75 423.25H1480.25C1473.62 423.25 1468.25 428.623 1468.25 435.25V460.75C1468.25 467.377 1473.62 472.75 1480.25 472.75H1505.75C1512.38 472.75 1517.75 467.377 1517.75 460.75V435.25C1517.75 428.623 1512.38 423.25 1505.75 423.25Z" fill="#3076D1"/>
<path d="M1495.73 460.89L1501.19 448.342C1502.05 446.379 1500.61 444.181 1498.47 444.181H1487.54C1485.39 444.181 1483.95 446.379 1484.81 448.342L1490.28 460.89C1491.31 463.272 1494.69 463.272 1495.73 460.89H1495.73Z" fill="white"/>
<path d="M1493 441.388C1495.23 441.388 1497.03 439.583 1497.03 437.356C1497.03 435.129 1495.23 433.324 1493 433.324C1490.77 433.324 1488.97 435.129 1488.97 437.356C1488.97 439.583 1490.77 441.388 1493 441.388Z" fill="white"/>
</g>
<g id="jeongui_hall_5f_elevator">
<path d="M974.216 643.449C972.49 647.516 967.794 649.413 963.727 647.687L918.657 628.556C914.59 626.83 912.693 622.133 914.419 618.066L939.126 559.861C940.852 555.794 945.549 553.896 949.616 555.622L994.685 574.753C998.752 576.479 1000.65 581.176 998.923 585.243L974.216 643.449Z" fill="#C4C4C4"/>
<path d="M948.444 558.384L949.616 555.622L994.685 574.753L993.513 577.515L948.444 558.384ZM941.888 561.033L917.181 619.239C916.102 621.781 917.288 624.716 919.83 625.795L964.899 644.925C967.441 646.004 970.376 644.818 971.455 642.276L996.162 584.071C997.241 581.529 996.055 578.593 993.513 577.515L994.685 574.753L995.06 574.924C998.745 576.713 1000.48 581.014 999.074 584.86L998.923 585.243L974.216 643.449C972.49 647.516 967.794 649.413 963.727 647.687L918.657 628.556C914.59 626.83 912.693 622.133 914.419 618.066L939.126 559.861L939.296 559.486C941.085 555.801 945.386 554.064 949.233 555.471L949.616 555.622L948.444 558.384C945.902 557.305 942.967 558.491 941.888 561.033Z" fill="#2E2F33" fill-opacity="0.88"/>
<path d="M967.622 581.375H946.372C940.849 581.375 936.372 585.853 936.372 591.375V612.625C936.372 618.148 940.849 622.625 946.372 622.625H967.622C973.144 622.625 977.622 618.148 977.622 612.625V591.375C977.622 585.853 973.144 581.375 967.622 581.375ZM958.017 589.434H959.171C959.286 589.434 959.378 589.341 959.378 589.226V586.675C959.378 586.578 959.457 586.499 959.554 586.499H961.446C961.543 586.499 961.622 586.578 961.622 586.675V589.226C961.622 589.341 961.714 589.434 961.829 589.434H962.983C963.149 589.434 963.232 589.634 963.114 589.751L960.756 592.11C960.614 592.251 960.386 592.251 960.246 592.11L957.887 589.751C957.769 589.634 957.852 589.434 958.017 589.434ZM950.324 588.964L952.683 586.605C952.824 586.464 953.053 586.464 953.193 586.605L955.552 588.964C955.669 589.081 955.586 589.281 955.421 589.281H954.267C954.152 589.281 954.059 589.374 954.059 589.489V592.04C954.059 592.138 953.981 592.216 953.883 592.216H951.992C951.894 592.216 951.816 592.138 951.816 592.04V589.489C951.816 589.374 951.723 589.281 951.608 589.281H950.454C950.288 589.281 950.207 589.081 950.324 588.964ZM972.287 611.34C972.287 614.355 969.834 616.808 966.819 616.808H947.173C944.158 616.808 941.706 614.355 941.706 611.34V599.54C941.706 596.525 944.158 594.073 947.173 594.073H966.819C969.834 594.073 972.287 596.525 972.287 599.54V611.34Z" fill="#4592FB"/>
<path d="M966.819 595.04H947.173C944.692 595.04 942.673 597.059 942.673 599.54V611.34C942.673 613.821 944.692 615.841 947.173 615.841H966.819C969.301 615.841 971.319 613.823 971.319 611.34V599.54C971.319 597.059 969.301 595.04 966.819 595.04ZM964.607 597.925C965.242 597.925 965.757 598.44 965.757 599.075C965.757 599.71 965.242 600.225 964.607 600.225C963.972 600.225 963.457 599.71 963.457 599.075C963.457 598.44 963.972 597.925 964.607 597.925ZM956.863 597.925C957.498 597.925 958.013 598.44 958.013 599.075C958.013 599.71 957.498 600.225 956.863 600.225C956.228 600.225 955.713 599.71 955.713 599.075C955.713 598.44 956.228 597.925 956.863 597.925ZM949.119 597.925C949.754 597.925 950.269 598.44 950.269 599.075C950.269 599.71 949.754 600.225 949.119 600.225C948.484 600.225 947.969 599.71 947.969 599.075C947.969 598.44 948.484 597.925 949.119 597.925ZM952.452 606.081C952.452 606.441 952.159 606.734 951.799 606.734C951.439 606.734 951.147 606.441 951.147 606.081V602.663H950.806V612.084C950.806 612.478 950.487 612.796 950.093 612.796C949.699 612.796 949.381 612.478 949.381 612.084V606.665H948.856V612.084C948.856 612.478 948.537 612.796 948.143 612.796C947.749 612.796 947.431 612.478 947.431 612.084V602.663H946.992V606.081C946.992 606.441 946.699 606.734 946.339 606.734C945.979 606.734 945.687 606.441 945.687 606.081V602.051C945.687 601.33 946.271 600.746 946.992 600.746H951.144C951.864 600.746 952.449 601.33 952.449 602.051V606.081H952.452ZM960.196 606.081C960.196 606.441 959.903 606.734 959.543 606.734C959.183 606.734 958.891 606.441 958.891 606.081V602.663H958.549V612.084C958.549 612.478 958.231 612.796 957.837 612.796C957.443 612.796 957.124 612.478 957.124 612.084V606.665H956.601V612.084C956.601 612.478 956.282 612.796 955.888 612.796C955.494 612.796 955.176 612.478 955.176 612.084V602.663H954.737V606.081C954.737 606.441 954.444 606.734 954.084 606.734C953.724 606.734 953.432 606.441 953.432 606.081V602.051C953.432 601.33 954.016 600.746 954.737 600.746H958.889C959.611 600.746 960.194 601.33 960.194 602.051L960.196 606.081ZM967.939 606.081C967.939 606.441 967.647 606.734 967.287 606.734C966.927 606.734 966.634 606.441 966.634 606.081V602.663H966.293V612.084C966.293 612.478 965.974 612.796 965.581 612.796C965.187 612.796 964.868 612.478 964.868 612.084V606.665H964.343V612.084C964.343 612.478 964.024 612.796 963.631 612.796C963.237 612.796 962.918 612.478 962.918 612.084V602.663H962.479V606.081C962.479 606.441 962.187 606.734 961.827 606.734C961.467 606.734 961.174 606.441 961.174 606.081V602.051C961.174 601.33 961.758 600.746 962.479 600.746H966.632C967.353 600.746 967.937 601.33 967.937 602.051V606.081H967.939Z" fill="#4592FB"/>
<path d="M956.863 600.225C957.498 600.225 958.013 599.71 958.013 599.075C958.013 598.44 957.498 597.925 956.863 597.925C956.228 597.925 955.713 598.44 955.713 599.075C955.713 599.71 956.228 600.225 956.863 600.225Z" fill="white"/>
<path d="M949.119 600.225C949.754 600.225 950.269 599.71 950.269 599.075C950.269 598.44 949.754 597.925 949.119 597.925C948.484 597.925 947.969 598.44 947.969 599.075C947.969 599.71 948.484 600.225 949.119 600.225Z" fill="white"/>
<path d="M964.607 600.225C965.242 600.225 965.757 599.71 965.757 599.075C965.757 598.44 965.242 597.925 964.607 597.925C963.972 597.925 963.457 598.44 963.457 599.075C963.457 599.71 963.972 600.225 964.607 600.225Z" fill="white"/>
<path d="M966.822 594.075H947.172C944.159 594.075 941.709 596.525 941.709 599.538V611.338C941.709 614.35 944.159 616.813 947.172 616.813H966.822C969.834 616.813 972.284 614.35 972.284 611.338V599.538C972.284 596.525 969.834 594.075 966.822 594.075ZM971.322 611.338C971.322 613.825 969.297 615.838 966.822 615.838H947.172C944.697 615.838 942.672 613.825 942.672 611.338V599.538C942.672 597.063 944.697 595.038 947.172 595.038H966.822C969.297 595.038 971.322 597.063 971.322 599.538V611.338Z" fill="white"/>
<path d="M967.934 602.05V606.075C967.934 606.438 967.647 606.738 967.284 606.738C966.922 606.738 966.634 606.438 966.634 606.075L966.634 602.663H966.297V612.088C966.297 612.475 965.972 612.8 965.584 612.8C965.184 612.8 964.872 612.475 964.872 612.088V606.663H964.347V612.088C964.347 612.475 964.022 612.8 963.634 612.8C963.234 612.8 962.922 612.475 962.922 612.088V602.663H962.484V606.075C962.484 606.438 962.184 606.738 961.834 606.738C961.472 606.738 961.172 606.438 961.172 606.075V602.05C961.172 601.325 961.759 600.75 962.484 600.75H966.634C967.359 600.75 967.934 601.325 967.934 602.05Z" fill="white"/>
<path d="M952.447 602.05V606.075C952.447 606.438 952.159 606.738 951.797 606.738C951.434 606.738 951.147 606.438 951.147 606.075L951.147 602.663H950.809V612.088C950.809 612.475 950.484 612.8 950.097 612.8C949.697 612.8 949.384 612.475 949.384 612.088V606.663H948.859V612.088C948.859 612.475 948.534 612.8 948.147 612.8C947.747 612.8 947.434 612.475 947.434 612.088V602.663H946.997V606.075C946.997 606.438 946.697 606.738 946.347 606.738C945.984 606.738 945.684 606.438 945.684 606.075V602.05C945.684 601.325 946.272 600.75 946.997 600.75H951.147C951.872 600.75 952.447 601.325 952.447 602.05Z" fill="white"/>
<path d="M960.197 602.05V606.075C960.197 606.438 959.909 606.738 959.547 606.738C959.184 606.738 958.897 606.438 958.897 606.075V602.663H958.547V612.088C958.547 612.475 958.234 612.8 957.834 612.8C957.447 612.8 957.122 612.475 957.122 612.088V606.663H956.597V612.088C956.597 612.475 956.284 612.8 955.884 612.8C955.497 612.8 955.172 612.475 955.172 612.088V602.663H954.734V606.075C954.734 606.438 954.447 606.738 954.084 606.738C953.722 606.738 953.434 606.438 953.434 606.075V602.05C953.434 601.325 954.022 600.75 954.734 600.75H958.897C959.609 600.75 960.197 601.325 960.197 602.05Z" fill="white"/>
<path d="M950.456 589.282H951.609C951.724 589.282 951.817 589.374 951.817 589.489V592.04C951.817 592.138 951.896 592.217 951.993 592.217H953.884C953.982 592.217 954.061 592.138 954.061 592.04V589.489C954.061 589.374 954.153 589.282 954.268 589.282H955.422C955.588 589.282 955.671 589.08 955.553 588.964L953.194 586.605C953.053 586.464 952.824 586.464 952.684 586.605L950.326 588.964C950.208 589.082 950.291 589.282 950.456 589.282Z" fill="white"/>
<path d="M960.243 592.11C960.384 592.251 960.613 592.251 960.753 592.11L963.112 589.751C963.229 589.634 963.146 589.434 962.981 589.434H961.827C961.712 589.434 961.619 589.341 961.619 589.226V586.675C961.619 586.578 961.541 586.499 961.443 586.499H959.552C959.454 586.499 959.376 586.578 959.376 586.675V589.226C959.376 589.341 959.283 589.434 959.168 589.434H958.014C957.848 589.434 957.766 589.634 957.883 589.751L960.243 592.11Z" fill="white"/>
</g>
</g>
</svg>
