<svg width="2526" height="775" viewBox="0 0 2526 775" fill="none" xmlns="http://www.w3.org/2000/svg">
<g id="jeongui_hall_floor_2">
<g id="Vector">
<path d="M4.00293 405.5L170.503 4L1005 361L994.503 386.5L1086 424.5L1108 373.5H1363.5L1386.5 424.5L1477.5 386.5L1467.5 361L2300 4.5L2465 405.5L1628.5 761L1616 730.5L1519 771L1505.5 745.5L1460 764.5L1411.5 649.5C1411.5 649.5 1343 575 1227.5 576C1112 577 1043.5 649.5 1043.5 649.5L994.003 768.5L944.003 748L938.003 762.5L855.003 730.5L841.003 762.5L4.00293 405.5Z" fill="#999999"/>
<path d="M1008.9 359.406L998.416 384.876L1084.42 420.594L1106.03 370.5H1365.44L1388.04 420.607L1473.64 384.862L1463.65 359.388L2301.62 0.543945L2468.91 407.101L1626.88 764.949L1614.37 734.432L1517.63 774.823L1504.13 749.323L1458.4 768.42L1408.95 651.166C1408.84 651.054 1408.71 650.915 1408.55 650.754C1408.04 650.229 1407.27 649.45 1406.25 648.454C1404.19 646.462 1401.11 643.601 1397.06 640.164C1388.94 633.288 1376.91 624.112 1361.3 614.963C1330.08 596.665 1284.61 578.506 1227.53 579C1170.42 579.495 1124.92 597.664 1093.69 615.722C1078.08 624.75 1066.04 633.743 1057.92 640.467C1053.87 643.828 1050.79 646.62 1048.73 648.562C1047.71 649.534 1046.93 650.292 1046.42 650.804C1046.28 650.95 1046.15 651.077 1046.05 651.182L995.627 772.408L945.632 751.909L939.655 766.353L856.601 734.33L842.56 766.426L0.09375 407.095L168.894 0.0488281L1008.9 359.406ZM7.91211 403.905L839.446 758.574L853.404 726.669L936.35 758.647L942.374 744.09L992.379 764.592L1040.94 647.84L1041.32 647.439L1043.5 649.5C1041.44 647.555 1041.33 647.445 1041.33 647.438C1041.33 647.437 1041.33 647.434 1041.33 647.433C1041.33 647.429 1041.34 647.424 1041.34 647.419C1041.35 647.408 1041.37 647.393 1041.39 647.373C1041.42 647.333 1041.48 647.276 1041.55 647.203C1041.69 647.056 1041.9 646.843 1042.18 646.567C1042.73 646.016 1043.54 645.216 1044.61 644.203C1046.75 642.177 1049.93 639.297 1054.1 635.846C1062.43 628.944 1074.74 619.75 1090.69 610.528C1122.58 592.086 1169.09 573.506 1227.48 573C1285.9 572.494 1332.43 591.085 1364.33 609.787C1380.29 619.138 1392.6 628.525 1400.93 635.586C1405.1 639.117 1408.28 642.069 1410.42 644.147C1411.49 645.186 1412.31 646.007 1412.86 646.573C1413.13 646.856 1413.34 647.076 1413.48 647.227C1413.55 647.302 1413.61 647.36 1413.65 647.4C1413.67 647.421 1413.68 647.437 1413.69 647.448C1413.7 647.454 1413.7 647.459 1413.71 647.463C1413.71 647.464 1413.71 647.466 1413.71 647.467C1413.71 647.469 1413.68 647.494 1411.5 649.5L1413.71 647.47L1414.06 647.854L1461.61 760.579L1506.87 741.677L1520.37 767.176L1617.63 726.568L1630.13 757.05L2461.1 403.898L2298.39 8.45508L1471.36 362.612L1481.37 388.138L1384.97 428.393L1361.57 376.5H1109.98L1087.58 428.405L990.59 388.123L1001.1 362.593L172.112 7.9502L7.91211 403.905Z" fill="black"/>
</g>
<g id="jeongui_hall_210">
<path d="M100.182 435.343C98.4555 439.41 93.759 441.307 89.692 439.581L15.8762 408.248C11.8092 406.522 9.91167 401.825 11.638 397.758L79.0801 238.875C80.8064 234.808 85.5029 232.91 89.5699 234.637L163.386 265.969C167.453 267.696 169.35 272.392 167.624 276.459L100.182 435.343Z" fill="#F7FBFF"/>
<path d="M88.3978 237.398L89.5699 234.637L163.386 265.969L162.214 268.731L88.3978 237.398ZM81.8416 240.047L14.3995 398.93C13.3206 401.472 14.5065 404.408 17.0484 405.487L90.8642 436.82C93.4061 437.899 96.3414 436.713 97.4203 434.171L164.862 275.287C165.941 272.745 164.755 269.81 162.214 268.731L163.386 265.969C167.453 267.696 169.35 272.392 167.624 276.459L100.182 435.343C98.4555 439.41 93.759 441.307 89.692 439.581L15.8762 408.248C11.8092 406.522 9.91167 401.825 11.638 397.758L79.0801 238.875C80.8064 234.808 85.5029 232.91 89.5699 234.637L88.3978 237.398C85.8559 236.319 82.9205 237.505 81.8416 240.047Z" fill="#2E2F33" fill-opacity="0.88"/>
<path d="M107.187 349.312C101.749 349.312 98.4994 345.094 98.4994 337.687C98.4994 330.312 101.749 326.062 107.187 326.062C112.593 326.062 115.874 330.312 115.874 337.687C115.874 345.094 112.624 349.312 107.187 349.312ZM107.187 345.906C110.031 345.906 111.781 343.125 111.781 337.687C111.781 332.281 109.999 329.437 107.187 329.437C104.374 329.437 102.593 332.281 102.593 337.687C102.593 343.125 104.343 345.906 107.187 345.906Z" fill="black"/>
<path d="M93.3431 326.375V349H89.2494V330.344H89.1244L83.8431 333.719V330L89.4369 326.375H93.3431Z" fill="black"/>
<path d="M64.8744 349V346.062L72.8744 338.344C75.1556 336.062 76.3431 334.719 76.3431 332.812C76.3431 330.719 74.6869 329.375 72.4681 329.375C70.1244 329.375 68.6244 330.844 68.6556 333.125H64.7806C64.7494 328.844 67.9681 326.062 72.4994 326.062C77.1244 326.062 80.2494 328.812 80.2494 332.625C80.2494 335.187 78.9994 337.25 74.5619 341.437L70.5306 345.437V345.594H80.5931V349H64.8744Z" fill="black"/>
</g>
<g id="jeongui_hall_209">
<path d="M186.182 473.343C184.456 477.41 179.759 479.307 175.692 477.581L101.876 446.248C97.8092 444.522 95.9117 439.825 97.638 435.758L165.08 276.875C166.806 272.808 171.503 270.91 175.57 272.637L249.386 303.969C253.453 305.696 255.35 310.392 253.624 314.459L186.182 473.343Z" fill="#F7FBFF"/>
<path d="M174.398 275.398L175.57 272.637L249.386 303.969L248.214 306.731L174.398 275.398ZM167.842 278.047L100.4 436.93C99.3206 439.472 100.507 442.408 103.048 443.487L176.864 474.82C179.406 475.899 182.341 474.713 183.42 472.171L250.862 313.287C251.941 310.745 250.755 307.81 248.214 306.731L249.386 303.969C253.453 305.696 255.35 310.392 253.624 314.459L186.182 473.343C184.456 477.41 179.759 479.307 175.692 477.581L101.876 446.248C97.8092 444.522 95.9117 439.825 97.638 435.758L165.08 276.875C166.806 272.808 171.503 270.91 175.57 272.637L174.398 275.398C171.856 274.319 168.921 275.505 167.842 278.047Z" fill="#2E2F33" fill-opacity="0.88"/>
<path d="M195.624 363.062C200.062 363.094 204.437 365.719 204.468 374C204.468 381.812 200.937 386.312 195.374 386.312C190.999 386.312 187.999 383.594 187.499 379.844H191.531C191.937 381.625 193.312 382.781 195.374 382.781C198.656 382.781 200.499 379.875 200.531 375.031H200.281C199.124 377 196.968 378.156 194.468 378.156C190.437 378.156 187.312 375.094 187.281 370.812C187.281 366.375 190.593 363.031 195.624 363.062ZM195.656 366.344C193.124 366.344 191.218 368.312 191.249 370.719C191.249 373.156 193.062 375.062 195.593 375.062C198.093 375.062 200.062 373.031 200.031 370.687C200.031 368.375 198.187 366.344 195.656 366.344Z" fill="black"/>
<path d="M175.499 386.312C170.062 386.312 166.812 382.094 166.812 374.687C166.812 367.312 170.062 363.062 175.499 363.062C180.906 363.062 184.187 367.312 184.187 374.687C184.187 382.094 180.937 386.312 175.499 386.312ZM175.499 382.906C178.343 382.906 180.093 380.125 180.093 374.687C180.093 369.281 178.312 366.437 175.499 366.437C172.687 366.437 170.906 369.281 170.906 374.687C170.906 380.125 172.656 382.906 175.499 382.906Z" fill="black"/>
<path d="M147.874 386V383.062L155.874 375.344C158.156 373.062 159.343 371.719 159.343 369.812C159.343 367.719 157.687 366.375 155.468 366.375C153.124 366.375 151.624 367.844 151.656 370.125H147.781C147.749 365.844 150.968 363.062 155.499 363.062C160.124 363.062 163.249 365.812 163.249 369.625C163.249 372.187 161.999 374.25 157.562 378.437L153.531 382.437V382.594H163.593V386H147.874Z" fill="black"/>
</g>
<g id="jeongui_hall_208">
<path d="M266.627 507.986C264.9 512.053 260.204 513.951 256.137 512.224L187.876 483.25C183.809 481.523 181.912 476.827 183.638 472.76L251.08 313.876C252.806 309.809 257.503 307.912 261.57 309.638L329.83 338.613C333.897 340.339 335.795 345.036 334.069 349.103L266.627 507.986Z" fill="#F7FBFF"/>
<path d="M260.398 312.4L261.57 309.638L329.83 338.613L328.658 341.374L260.398 312.4ZM253.842 315.048L186.4 473.932C185.321 476.474 186.507 479.409 189.048 480.488L257.309 509.463C259.851 510.542 262.786 509.356 263.865 506.814L331.307 347.931C332.386 345.389 331.2 342.453 328.658 341.374L329.83 338.613L330.206 338.783C334.013 340.632 335.741 345.163 334.069 349.103L266.627 507.986C264.9 512.053 260.204 513.951 256.137 512.224L187.876 483.25C183.809 481.523 181.912 476.827 183.638 472.76L251.08 313.876C252.806 309.809 257.503 307.912 261.57 309.638L260.398 312.4C257.856 311.321 254.921 312.507 253.842 315.048Z" fill="#2E2F33" fill-opacity="0.88"/>
<path d="M278.813 422.311C273.782 422.311 270.219 419.624 270.219 415.936C270.219 413.061 272.344 410.717 275.063 410.28V410.155C272.688 409.655 271.063 407.592 271.063 405.124C271.063 401.624 274.344 399.061 278.813 399.061C283.251 399.061 286.532 401.624 286.532 405.124C286.532 407.592 284.876 409.655 282.532 410.155V410.28C285.251 410.717 287.407 413.061 287.407 415.936C287.407 419.624 283.813 422.311 278.813 422.311ZM278.813 419.092C281.469 419.092 283.219 417.655 283.219 415.561C283.219 413.436 281.344 411.874 278.813 411.874C276.251 411.874 274.376 413.436 274.407 415.561C274.376 417.655 276.126 419.092 278.813 419.092ZM278.813 408.842C281.001 408.842 282.563 407.467 282.563 405.499C282.563 403.592 281.032 402.249 278.813 402.249C276.563 402.249 275.032 403.561 275.032 405.499C275.032 407.467 276.594 408.842 278.813 408.842Z" fill="black"/>
<path d="M258.501 422.311C253.063 422.311 249.813 418.092 249.813 410.686C249.813 403.311 253.063 399.061 258.501 399.061C263.907 399.061 267.188 403.311 267.188 410.686C267.188 418.092 263.938 422.311 258.501 422.311ZM258.501 418.905C261.344 418.905 263.094 416.124 263.094 410.686C263.094 405.28 261.313 402.436 258.501 402.436C255.688 402.436 253.907 405.28 253.907 410.686C253.907 416.124 255.657 418.905 258.501 418.905Z" fill="black"/>
<path d="M230.876 421.999V419.061L238.876 411.342C241.157 409.061 242.344 407.717 242.344 405.811C242.344 403.717 240.688 402.374 238.469 402.374C236.126 402.374 234.626 403.842 234.657 406.124H230.782C230.751 401.842 233.969 399.061 238.501 399.061C243.126 399.061 246.251 401.811 246.251 405.624C246.251 408.186 245.001 410.249 240.563 414.436L236.532 418.436V418.592H246.594V421.999H230.876Z" fill="black"/>
</g>
<g id="jeongui_hall_207">
<path d="M347.627 541.988C345.9 546.055 341.204 547.952 337.137 546.226L268.876 517.251C264.809 515.525 262.912 510.828 264.638 506.761L332.08 347.878C333.806 343.811 338.503 341.913 342.57 343.639L410.83 372.614C414.897 374.341 416.795 379.037 415.069 383.104L347.627 541.988Z" fill="#F7FBFF"/>
<path d="M341.398 346.401L342.57 343.639L410.83 372.614L409.658 375.376L341.398 346.401ZM334.842 349.05L267.4 507.933C266.321 510.475 267.507 513.411 270.048 514.49L338.309 543.464C340.851 544.543 343.786 543.357 344.865 540.816L412.307 381.932C413.386 379.39 412.2 376.455 409.658 375.376L410.83 372.614L411.206 372.784C415.013 374.633 416.741 379.164 415.069 383.104L347.627 541.988C345.9 546.055 341.204 547.952 337.137 546.226L268.876 517.251C264.809 515.525 262.912 510.828 264.638 506.761L332.08 347.878C333.806 343.811 338.503 341.913 342.57 343.639L341.398 346.401C338.856 345.322 335.921 346.508 334.842 349.05Z" fill="#2E2F33" fill-opacity="0.88"/>
<path d="M352.813 456L362.626 436.938V436.781H351.251V433.375H366.844V436.844L357.032 456H352.813Z" fill="black"/>
<path d="M340.501 456.313C335.063 456.313 331.813 452.094 331.813 444.688C331.813 437.313 335.063 433.063 340.501 433.063C345.907 433.063 349.188 437.313 349.188 444.688C349.188 452.094 345.938 456.313 340.501 456.313ZM340.501 452.906C343.344 452.906 345.094 450.125 345.094 444.688C345.094 439.281 343.313 436.438 340.501 436.438C337.688 436.438 335.907 439.281 335.907 444.688C335.907 450.125 337.657 452.906 340.501 452.906Z" fill="black"/>
<path d="M312.876 456V453.063L320.876 445.344C323.157 443.063 324.344 441.719 324.344 439.813C324.344 437.719 322.688 436.375 320.469 436.375C318.126 436.375 316.626 437.844 316.657 440.125H312.782C312.751 435.844 315.969 433.063 320.501 433.063C325.126 433.063 328.251 435.813 328.251 439.625C328.251 442.188 327.001 444.25 322.563 448.438L318.532 452.438V452.594H328.594V456H312.876Z" fill="black"/>
</g>
<g id="jeongui_hall_204">
<path d="M593.666 647.042C591.94 651.109 587.243 653.007 583.176 651.281L349.876 552.251C345.809 550.524 343.912 545.828 345.638 541.761L413.08 382.877C414.806 378.81 419.503 376.913 423.57 378.639L656.87 477.669C660.937 479.395 662.835 484.092 661.108 488.159L593.666 647.042Z" fill="#F7FBFF"/>
<path d="M422.398 381.4L423.57 378.639L656.87 477.669L655.698 480.431L422.398 381.4ZM415.842 384.049L348.4 542.933C347.321 545.475 348.507 548.41 351.048 549.489L584.349 648.519C586.89 649.598 589.826 648.412 590.905 645.87L658.347 486.987C659.426 484.445 658.24 481.509 655.698 480.431L656.87 477.669L657.246 477.839C661.053 479.688 662.781 484.219 661.108 488.159L593.666 647.042C591.94 651.109 587.243 653.007 583.176 651.281L349.876 552.251L349.502 552.08C345.695 550.231 343.966 545.701 345.638 541.761L413.08 382.877L413.251 382.502C415.04 378.818 419.341 377.08 423.188 378.487L423.57 378.639L422.398 381.4C419.856 380.322 416.921 381.508 415.842 384.049Z" fill="#2E2F33" fill-opacity="0.88"/>
<path d="M514.187 521.781V518.531L523.968 503.375H529.031V518.438H531.999V521.781H529.031V526H525.156V521.781H514.187ZM518.343 518.438H525.218V508H524.968L518.343 518.281V518.438Z" fill="black"/>
<path d="M502.499 526.313C497.062 526.313 493.812 522.094 493.812 514.688C493.812 507.313 497.062 503.063 502.499 503.063C507.906 503.063 511.187 507.313 511.187 514.688C511.187 522.094 507.937 526.313 502.499 526.313ZM502.499 522.906C505.343 522.906 507.093 520.125 507.093 514.688C507.093 509.281 505.312 506.438 502.499 506.438C499.687 506.438 497.906 509.281 497.906 514.688C497.906 520.125 499.656 522.906 502.499 522.906Z" fill="black"/>
<path d="M474.874 526V523.063L482.874 515.344C485.156 513.063 486.343 511.719 486.343 509.813C486.343 507.719 484.687 506.375 482.468 506.375C480.124 506.375 478.624 507.844 478.656 510.125H474.781C474.749 505.844 477.968 503.063 482.499 503.063C487.124 503.063 490.249 505.813 490.249 509.625C490.249 512.188 488.999 514.25 484.562 518.438L480.531 522.438V522.594H490.593V526H474.874Z" fill="black"/>
</g>
<g id="jeongui_hall_201">
<path d="M843.418 750.636C841.691 754.703 836.995 756.6 832.928 754.874L595.876 654.252C591.809 652.525 589.912 647.829 591.638 643.762L659.08 484.878C660.806 480.811 665.503 478.914 669.57 480.64L906.621 581.262C910.689 582.989 912.586 587.685 910.86 591.752L843.418 750.636Z" fill="#F7FBFF"/>
<path d="M668.398 483.401L669.57 480.64L906.621 581.262L905.449 584.024L668.398 483.401ZM661.842 486.05L594.4 644.934C593.321 647.476 594.507 650.411 597.048 651.49L834.1 752.112C836.642 753.191 839.577 752.005 840.656 749.464L908.098 590.58C909.177 588.038 907.991 585.103 905.449 584.024L906.621 581.262L906.997 581.432C910.804 583.281 912.532 587.812 910.86 591.752L843.418 750.636C841.691 754.703 836.995 756.6 832.928 754.874L595.876 654.252L595.502 654.081C591.694 652.232 589.966 647.702 591.638 643.762L659.08 484.878L659.251 484.503C661.04 480.819 665.341 479.081 669.188 480.488L669.57 480.64L668.398 483.401C665.856 482.323 662.921 483.508 661.842 486.05Z" fill="#2E2F33" fill-opacity="0.88"/>
<path d="M774.782 606.375V629H770.688V610.344H770.563L765.282 613.719V610L770.876 606.375H774.782Z" fill="black"/>
<path d="M753.501 629.312C748.063 629.312 744.813 625.094 744.813 617.687C744.813 610.312 748.063 606.062 753.501 606.062C758.907 606.062 762.188 610.312 762.188 617.687C762.188 625.094 758.938 629.312 753.501 629.312ZM753.501 625.906C756.344 625.906 758.094 623.125 758.094 617.687C758.094 612.281 756.313 609.437 753.501 609.437C750.688 609.437 748.907 612.281 748.907 617.687C748.907 623.125 750.657 625.906 753.501 625.906Z" fill="black"/>
<path d="M725.876 629V626.062L733.876 618.344C736.157 616.062 737.344 614.719 737.344 612.812C737.344 610.719 735.688 609.375 733.469 609.375C731.126 609.375 729.626 610.844 729.657 613.125H725.782C725.751 608.844 728.969 606.062 733.501 606.062C738.126 606.062 741.251 608.812 741.251 612.625C741.251 615.187 740.001 617.25 735.563 621.437L731.532 625.437V625.594H741.594V629H725.876Z" fill="black"/>
</g>
<g id="jeongui_hall_2f_cafe">
<path d="M1107.69 380.862C1108.95 377.913 1111.85 376 1115.05 376H1356.46C1359.68 376 1362.58 377.927 1363.83 380.891L1437.54 555.68C1440.34 562.32 1433.53 569.267 1426.77 566.785C1392.1 554.07 1313.63 529 1233.77 529C1154.49 529 1078.5 553.155 1044.45 565.671C1037.66 568.168 1030.82 561.15 1033.66 554.492L1107.69 380.862Z" fill="#F7FBFF"/>
<path d="M1356.46 376C1359.68 376 1362.58 377.927 1363.83 380.891L1437.54 555.68C1440.34 562.32 1433.53 569.267 1426.77 566.785C1392.37 554.169 1314.85 529.391 1235.64 529.005L1233.77 529C1154.49 529 1078.5 553.155 1044.45 565.671L1044.13 565.781C1037.55 567.914 1031.07 561.263 1033.53 554.805L1033.66 554.492L1107.69 380.862C1108.91 378.006 1111.67 376.121 1114.75 376.006L1115.05 376H1356.46ZM1115.05 379C1113.05 379 1111.24 380.196 1110.45 382.039L1036.42 555.669C1034.65 559.819 1039 564.478 1043.42 562.855C1077.58 550.296 1153.96 526 1233.77 526C1314.16 526 1393.03 551.215 1427.8 563.969C1432.2 565.584 1436.52 560.971 1434.78 556.846L1361.07 382.057C1360.28 380.204 1358.47 379 1356.46 379H1115.05Z" fill="#2E2F33" fill-opacity="0.88"/>
<path d="M1261.12 457.531V485.781H1257.81V457.531H1261.12ZM1255.5 458.125V484.375H1252.19V471.062H1249.06V467.969H1252.19V458.125H1255.5ZM1249.78 460.875V463.688H1247.78V475.875C1248.67 475.797 1249.52 475.703 1250.31 475.594L1250.53 478.125C1246.09 479.031 1240.28 479.125 1236.69 479.125L1236.28 476.25L1238.84 476.219V463.688H1236.84V460.875H1249.78ZM1241.97 476.156L1244.59 476.062V463.688H1241.97V476.156Z" fill="black"/>
<path d="M1223.62 460.312C1223.62 468.844 1221.28 476.156 1210.88 481.344L1208.97 478.719C1213.86 476.297 1216.77 473.484 1218.41 470.125L1209.62 470.969L1209.19 467.969L1219.47 467.312C1219.83 466 1220.05 464.609 1220.16 463.125H1210.66V460.312H1223.62ZM1231.06 457.531V468.594H1235.25V471.438H1231.06V485.719H1227.59V457.531H1231.06Z" fill="black"/>
</g>
<g id="jeongui_hall_2f_cafe_space">
<path d="M1515.72 761.054C1517.45 765.121 1522.15 767.019 1526.21 765.292L1614.57 727.788C1618.64 726.061 1620.53 721.365 1618.81 717.298L1564.72 589.878C1562.99 585.811 1558.3 583.913 1554.23 585.639L1465.88 623.144C1461.81 624.87 1459.91 629.567 1461.64 633.634L1515.72 761.054Z" fill="#F7FBFF"/>
<path d="M1555.4 588.401L1554.23 585.639L1465.88 623.144L1467.05 625.906L1555.4 588.401ZM1561.96 591.05L1616.05 718.47C1617.13 721.012 1615.94 723.947 1613.4 725.026L1525.04 762.531C1522.5 763.61 1519.57 762.424 1518.49 759.882L1464.4 632.462C1463.32 629.92 1464.51 626.985 1467.05 625.906L1465.88 623.144L1465.5 623.314C1461.69 625.163 1459.97 629.694 1461.64 633.634L1515.72 761.054C1517.4 764.994 1521.86 766.897 1525.83 765.443L1526.21 765.292L1614.57 727.788C1618.64 726.061 1620.53 721.365 1618.81 717.298L1564.72 589.878C1562.99 585.811 1558.3 583.913 1554.23 585.639L1555.4 588.401C1557.95 587.322 1560.88 588.508 1561.96 591.05Z" fill="#2E2F33" fill-opacity="0.88"/>
<path d="M1577.64 664.898V670.992H1580.59V673.172H1577.64V680.18H1574.99V664.898H1577.64ZM1571.88 666.516C1571.88 672.141 1568.22 676.148 1561.94 677.977L1560.86 675.914C1565.7 674.52 1568.58 671.883 1569.04 668.648H1561.75V666.516H1571.88ZM1578.44 683.555V685.664H1564.02V678.609H1566.67V683.555H1578.44Z" fill="black"/>
<path d="M1549.73 678.141C1554.32 678.164 1557.23 679.617 1557.25 682.125C1557.23 684.586 1554.32 686.062 1549.73 686.062C1545.16 686.062 1542.23 684.586 1542.23 682.125C1542.23 679.617 1545.16 678.164 1549.73 678.141ZM1549.73 680.109C1546.68 680.109 1544.83 680.836 1544.85 682.125C1544.83 683.367 1546.68 684.047 1549.73 684.047C1552.8 684.047 1554.65 683.367 1554.67 682.125C1554.65 680.836 1552.8 680.109 1549.73 680.109ZM1557.11 665.906V667.664C1557.11 669.328 1557.11 671.109 1556.52 673.289L1553.95 673.055C1554.47 670.992 1554.51 669.504 1554.51 667.969H1542.44V665.906H1557.11ZM1559.45 674.508V676.617H1540.24V674.508H1547.69V670.664H1550.27V674.508H1559.45Z" fill="black"/>
<path d="M1537.84 664.898V686.086H1535.36V664.898H1537.84ZM1533.63 665.344V685.031H1531.14V675.047H1528.8V672.727H1531.14V665.344H1533.63ZM1529.34 667.406V669.516H1527.84V678.656C1528.5 678.598 1529.14 678.527 1529.74 678.445L1529.9 680.344C1526.57 681.023 1522.21 681.094 1519.52 681.094L1519.21 678.938L1521.13 678.914V669.516H1519.63V667.406H1529.34ZM1523.48 678.867L1525.45 678.797V669.516H1523.48V678.867Z" fill="black"/>
<path d="M1509.72 666.984C1509.72 673.383 1507.96 678.867 1500.16 682.758L1498.73 680.789C1502.4 678.973 1504.58 676.863 1505.81 674.344L1499.22 674.977L1498.89 672.727L1506.6 672.234C1506.87 671.25 1507.04 670.207 1507.12 669.094H1499.99V666.984H1509.72ZM1515.3 664.898V673.195H1518.44V675.328H1515.3V686.039H1512.7V664.898H1515.3Z" fill="black"/>
</g>
<g id="jeongui_hall_240">
<path d="M1630.08 751.171C1631.81 755.238 1636.5 757.136 1640.57 755.409L1980.19 611.25C1984.26 609.523 1986.15 604.827 1984.43 600.76L1916.98 441.876C1915.26 437.809 1910.56 435.912 1906.49 437.638L1566.88 581.798C1562.81 583.524 1560.91 588.22 1562.64 592.287L1630.08 751.171Z" fill="#F7FBFF"/>
<path d="M1907.67 440.4L1906.49 437.638L1566.88 581.798L1568.05 584.559L1907.67 440.4ZM1914.22 443.048L1981.67 601.932C1982.74 604.474 1981.56 607.409 1979.02 608.488L1639.4 752.648C1636.86 753.727 1633.92 752.541 1632.84 749.999L1565.4 591.115C1564.32 588.573 1565.51 585.638 1568.05 584.559L1566.88 581.798L1566.5 581.968C1562.69 583.817 1560.97 588.348 1562.64 592.287L1630.08 751.171C1631.81 755.238 1636.5 757.136 1640.57 755.409L1980.19 611.25C1984.26 609.523 1986.15 604.827 1984.43 600.76L1916.98 441.876C1915.26 437.809 1910.56 435.912 1906.49 437.638L1907.67 440.4C1910.21 439.321 1913.14 440.507 1914.22 443.048Z" fill="#2E2F33" fill-opacity="0.88"/>
<path d="M1793.66 608.312C1788.22 608.312 1784.97 604.094 1784.97 596.687C1784.97 589.312 1788.22 585.062 1793.66 585.062C1799.06 585.062 1802.34 589.312 1802.34 596.687C1802.34 604.094 1799.09 608.312 1793.66 608.312ZM1793.66 604.906C1796.5 604.906 1798.25 602.125 1798.25 596.687C1798.25 591.281 1796.47 588.437 1793.66 588.437C1790.84 588.437 1789.06 591.281 1789.06 596.687C1789.06 602.125 1790.81 604.906 1793.66 604.906Z" fill="black"/>
<path d="M1764.25 603.781V600.531L1774.03 585.375H1779.09V600.437H1782.06V603.781H1779.09V608H1775.22V603.781H1764.25ZM1768.41 600.437H1775.28V590H1775.03L1768.41 600.281V600.437Z" fill="black"/>
<path d="M1745.88 608V605.062L1753.88 597.344C1756.16 595.062 1757.34 593.719 1757.34 591.812C1757.34 589.719 1755.69 588.375 1753.47 588.375C1751.13 588.375 1749.63 589.844 1749.66 592.125H1745.78C1745.75 587.844 1748.97 585.062 1753.5 585.062C1758.13 585.062 1761.25 587.812 1761.25 591.625C1761.25 594.187 1760 596.25 1755.56 600.437L1751.53 604.437V604.594H1761.59V608H1745.88Z" fill="black"/>
</g>
<g id="jeongui_hall_238">
<path d="M1982.08 601.382C1983.81 605.449 1988.5 607.347 1992.57 605.62L2247.87 497.251C2251.94 495.525 2253.84 490.829 2252.11 486.762L2184.67 327.878C2182.94 323.811 2178.24 321.913 2174.18 323.64L1918.88 432.009C1914.81 433.735 1912.91 438.432 1914.64 442.499L1982.08 601.382Z" fill="#F7FBFF"/>
<path d="M2175.35 326.401L2174.18 323.64L1918.88 432.009L1920.05 434.771L2175.35 326.401ZM2181.91 329.05L2249.35 487.934C2250.43 490.475 2249.24 493.411 2246.7 494.49L1991.4 602.859C1988.86 603.938 1985.92 602.752 1984.84 600.21L1917.4 441.327C1916.32 438.785 1917.51 435.85 1920.05 434.771L1918.88 432.009L1918.5 432.179C1914.69 434.028 1912.97 438.559 1914.64 442.499L1982.08 601.382C1983.81 605.449 1988.5 607.347 1992.57 605.62L2247.87 497.251L2248.25 497.081C2252.05 495.232 2253.78 490.702 2252.11 486.762L2184.67 327.878L2184.5 327.503C2182.71 323.819 2178.41 322.081 2174.56 323.488L2174.18 323.64L2175.35 326.401C2177.89 325.323 2180.83 326.508 2181.91 329.05Z" fill="#2E2F33" fill-opacity="0.88"/>
<path d="M2102.59 475.313C2097.56 475.313 2094 472.625 2094 468.938C2094 466.063 2096.13 463.719 2098.84 463.281V463.156C2096.47 462.656 2094.84 460.594 2094.84 458.125C2094.84 454.625 2098.13 452.063 2102.59 452.063C2107.03 452.063 2110.31 454.625 2110.31 458.125C2110.31 460.594 2108.66 462.656 2106.31 463.156V463.281C2109.03 463.719 2111.19 466.063 2111.19 468.938C2111.19 472.625 2107.59 475.313 2102.59 475.313ZM2102.59 472.094C2105.25 472.094 2107 470.656 2107 468.563C2107 466.438 2105.13 464.875 2102.59 464.875C2100.03 464.875 2098.16 466.438 2098.19 468.563C2098.16 470.656 2099.91 472.094 2102.59 472.094ZM2102.59 461.844C2104.78 461.844 2106.34 460.469 2106.34 458.5C2106.34 456.594 2104.81 455.25 2102.59 455.25C2100.34 455.25 2098.81 456.563 2098.81 458.5C2098.81 460.469 2100.38 461.844 2102.59 461.844Z" fill="black"/>
<path d="M2082.38 475.313C2077.53 475.313 2074.09 472.688 2074 468.875H2078.09C2078.22 470.688 2080.03 471.875 2082.38 471.875C2084.88 471.875 2086.66 470.5 2086.66 468.5C2086.66 466.469 2084.91 465 2081.97 465H2079.94V461.875H2081.97C2084.38 461.875 2086.06 460.531 2086.03 458.563C2086.06 456.656 2084.63 455.375 2082.41 455.375C2080.28 455.375 2078.44 456.563 2078.38 458.469H2074.47C2074.56 454.656 2078 452.063 2082.44 452.063C2087.03 452.063 2090 454.875 2089.97 458.344C2090 460.875 2088.31 462.719 2085.84 463.219V463.406C2089.03 463.844 2090.84 465.875 2090.81 468.719C2090.84 472.531 2087.28 475.313 2082.38 475.313Z" fill="black"/>
<path d="M2054.88 475V472.063L2062.88 464.344C2065.16 462.063 2066.34 460.719 2066.34 458.813C2066.34 456.719 2064.69 455.375 2062.47 455.375C2060.13 455.375 2058.63 456.844 2058.66 459.125H2054.78C2054.75 454.844 2057.97 452.063 2062.5 452.063C2067.13 452.063 2070.25 454.813 2070.25 458.625C2070.25 461.188 2069 463.25 2064.56 467.438L2060.53 471.438V471.594H2070.59V475H2054.88Z" fill="black"/>
</g>
<g id="jeongui_hall_235">
<path d="M2249.08 485.703C2250.81 489.77 2255.5 491.667 2259.57 489.941L2454.38 407.25C2458.45 405.523 2460.34 400.827 2458.62 396.76L2391.17 237.876C2389.45 233.809 2384.75 231.912 2380.68 233.638L2185.88 316.329C2181.81 318.056 2179.91 322.752 2181.64 326.819L2249.08 485.703Z" fill="#F7FBFF"/>
<path d="M2381.86 236.4L2380.68 233.638L2185.88 316.329L2187.05 319.091L2381.86 236.4ZM2388.41 239.048L2455.85 397.932C2456.93 400.474 2455.75 403.409 2453.21 404.488L2258.4 487.179C2255.86 488.258 2252.92 487.072 2251.84 484.53L2184.4 325.647C2183.32 323.105 2184.51 320.17 2187.05 319.091L2185.88 316.329L2185.5 316.499C2181.69 318.348 2179.97 322.879 2181.64 326.819L2249.08 485.703C2250.81 489.77 2255.5 491.667 2259.57 489.941L2454.38 407.25C2458.45 405.523 2460.34 400.827 2458.62 396.76L2391.17 237.876C2389.45 233.809 2384.75 231.912 2380.68 233.638L2381.86 236.4C2384.4 235.321 2387.33 236.507 2388.41 239.048Z" fill="#2E2F33" fill-opacity="0.88"/>
<path d="M2339.41 373.313C2334.87 373.313 2331.56 370.625 2331.44 366.875H2335.41C2335.53 368.719 2337.25 370.031 2339.41 370.031C2341.94 370.031 2343.75 368.188 2343.75 365.688C2343.75 363.094 2341.87 361.25 2339.28 361.25C2337.53 361.219 2336.25 361.844 2335.53 363.188H2331.75L2333.12 350.375H2346.5V353.781H2336.47L2335.78 359.781H2336C2336.87 358.781 2338.53 358.063 2340.37 358.063C2344.59 358.063 2347.69 361.219 2347.69 365.563C2347.69 370.094 2344.28 373.313 2339.41 373.313Z" fill="black"/>
<path d="M2319.37 373.313C2314.53 373.313 2311.09 370.688 2311 366.875H2315.09C2315.22 368.688 2317.03 369.875 2319.37 369.875C2321.87 369.875 2323.66 368.5 2323.66 366.5C2323.66 364.469 2321.91 363 2318.97 363H2316.94V359.875H2318.97C2321.37 359.875 2323.06 358.531 2323.03 356.563C2323.06 354.656 2321.62 353.375 2319.41 353.375C2317.28 353.375 2315.44 354.563 2315.37 356.469H2311.47C2311.56 352.656 2315 350.063 2319.44 350.063C2324.03 350.063 2327 352.875 2326.97 356.344C2327 358.875 2325.31 360.719 2322.84 361.219V361.406C2326.03 361.844 2327.84 363.875 2327.81 366.719C2327.84 370.531 2324.28 373.313 2319.37 373.313Z" fill="black"/>
<path d="M2291.87 373V370.063L2299.87 362.344C2302.16 360.063 2303.34 358.719 2303.34 356.813C2303.34 354.719 2301.69 353.375 2299.47 353.375C2297.12 353.375 2295.62 354.844 2295.66 357.125H2291.78C2291.75 352.844 2294.97 350.063 2299.5 350.063C2304.12 350.063 2307.25 352.813 2307.25 356.625C2307.25 359.188 2306 361.25 2301.56 365.438L2297.53 369.438V369.594H2307.59V373H2291.87Z" fill="black"/>
</g>
<g id="jeongui_hall_232">
<path d="M2155.08 265.569C2156.81 269.636 2161.5 271.534 2165.57 269.808L2364.78 185.249C2368.85 183.522 2370.74 178.826 2369.02 174.759L2301.57 15.8753C2299.85 11.8082 2295.15 9.91069 2291.08 11.637L2091.88 96.196C2087.81 97.9223 2085.91 102.619 2087.64 106.686L2155.08 265.569Z" fill="#F7FBFF"/>
<path d="M2292.26 14.3986L2291.08 11.637L2091.88 96.196L2093.05 98.9575L2292.26 14.3986ZM2298.81 17.0474L2366.26 175.931C2367.33 178.473 2366.15 181.408 2363.61 182.487L2164.4 267.046C2161.86 268.125 2158.92 266.939 2157.84 264.397L2090.4 105.514C2089.32 102.972 2090.51 100.036 2093.05 98.9575L2091.88 96.196C2087.81 97.9223 2085.91 102.619 2087.64 106.686L2155.08 265.569C2156.81 269.636 2161.5 271.534 2165.57 269.808L2364.78 185.249C2368.85 183.522 2370.74 178.826 2369.02 174.759L2301.57 15.8753C2299.85 11.8082 2295.15 9.91069 2291.08 11.637L2292.26 14.3986C2294.8 13.3196 2297.73 14.5055 2298.81 17.0474Z" fill="#2E2F33" fill-opacity="0.88"/>
<path d="M2240.38 152V149.062L2248.38 141.344C2250.66 139.062 2251.84 137.719 2251.84 135.812C2251.84 133.719 2250.19 132.375 2247.97 132.375C2245.63 132.375 2244.13 133.844 2244.16 136.125H2240.28C2240.25 131.844 2243.47 129.062 2248 129.062C2252.63 129.062 2255.75 131.812 2255.75 135.625C2255.75 138.187 2254.5 140.25 2250.06 144.437L2246.03 148.437V148.594H2256.09V152H2240.38Z" fill="black"/>
<path d="M2228.38 152.312C2223.53 152.312 2220.09 149.687 2220 145.875H2224.09C2224.22 147.687 2226.03 148.875 2228.38 148.875C2230.88 148.875 2232.66 147.5 2232.66 145.5C2232.66 143.469 2230.91 142 2227.97 142H2225.94V138.875H2227.97C2230.38 138.875 2232.06 137.531 2232.03 135.562C2232.06 133.656 2230.63 132.375 2228.41 132.375C2226.28 132.375 2224.44 133.562 2224.38 135.469H2220.47C2220.56 131.656 2224 129.062 2228.44 129.062C2233.03 129.062 2236 131.875 2235.97 135.344C2236 137.875 2234.31 139.719 2231.84 140.219V140.406C2235.03 140.844 2236.84 142.875 2236.81 145.719C2236.84 149.531 2233.28 152.312 2228.38 152.312Z" fill="black"/>
<path d="M2200.88 152V149.062L2208.88 141.344C2211.16 139.062 2212.34 137.719 2212.34 135.812C2212.34 133.719 2210.69 132.375 2208.47 132.375C2206.13 132.375 2204.63 133.844 2204.66 136.125H2200.78C2200.75 131.844 2203.97 129.062 2208.5 129.062C2213.13 129.062 2216.25 131.812 2216.25 135.625C2216.25 138.187 2215 140.25 2210.56 144.437L2206.53 148.437V148.594H2216.59V152H2200.88Z" fill="black"/>
</g>
<g id="jeongui_hall_231">
<path d="M2065.08 305.206C2066.81 309.273 2071.5 311.171 2075.57 309.444L2153.77 276.249C2157.84 274.522 2159.74 269.826 2158.01 265.759L2090.57 106.875C2088.84 102.808 2084.15 100.911 2080.08 102.637L2001.88 135.833C1997.81 137.559 1995.91 142.256 1997.64 146.323L2065.08 305.206Z" fill="#F7FBFF"/>
<path d="M2081.25 105.399L2080.08 102.637L2001.88 135.833L2003.05 138.595L2081.25 105.399ZM2087.81 108.048L2155.25 266.931C2156.33 269.473 2155.14 272.408 2152.6 273.487L2074.4 306.683C2071.86 307.762 2068.92 306.576 2067.84 304.034L2000.4 145.151C1999.32 142.609 2000.51 139.674 2003.05 138.595L2001.88 135.833C1997.81 137.559 1995.91 142.256 1997.64 146.323L2065.08 305.206C2066.81 309.273 2071.5 311.171 2075.57 309.444L2153.77 276.249C2157.84 274.522 2159.74 269.826 2158.01 265.759L2090.57 106.875C2088.84 102.808 2084.15 100.911 2080.08 102.637L2081.25 105.399C2083.79 104.32 2086.73 105.506 2087.81 108.048Z" fill="#2E2F33" fill-opacity="0.88"/>
<path d="M2100.56 194.375V217H2096.47V198.344H2096.34L2091.06 201.719V198L2096.66 194.375H2100.56Z" fill="black"/>
<path d="M2079.38 217.313C2074.53 217.313 2071.09 214.688 2071 210.875H2075.09C2075.22 212.688 2077.03 213.875 2079.38 213.875C2081.88 213.875 2083.66 212.5 2083.66 210.5C2083.66 208.469 2081.91 207 2078.97 207H2076.94V203.875H2078.97C2081.38 203.875 2083.06 202.531 2083.03 200.563C2083.06 198.656 2081.63 197.375 2079.41 197.375C2077.28 197.375 2075.44 198.563 2075.38 200.469H2071.47C2071.56 196.656 2075 194.063 2079.44 194.063C2084.03 194.063 2087 196.875 2086.97 200.344C2087 202.875 2085.31 204.719 2082.84 205.219V205.406C2086.03 205.844 2087.84 207.875 2087.81 210.719C2087.84 214.531 2084.28 217.313 2079.38 217.313Z" fill="black"/>
<path d="M2051.88 217V214.063L2059.88 206.344C2062.16 204.063 2063.34 202.719 2063.34 200.813C2063.34 198.719 2061.69 197.375 2059.47 197.375C2057.13 197.375 2055.63 198.844 2055.66 201.125H2051.78C2051.75 196.844 2054.97 194.063 2059.5 194.063C2064.13 194.063 2067.25 196.813 2067.25 200.625C2067.25 203.188 2066 205.25 2061.56 209.438L2057.53 213.438V213.594H2067.59V217H2051.88Z" fill="black"/>
</g>
<g id="jeongui_hall_229">
<path d="M1889.08 381.398C1890.81 385.465 1895.5 387.362 1899.57 385.636L2063.03 316.25C2067.1 314.524 2069 309.827 2067.27 305.76L1999.83 146.877C1998.1 142.81 1993.41 140.912 1989.34 142.639L1825.88 212.024C1821.81 213.751 1819.91 218.447 1821.64 222.514L1889.08 381.398Z" fill="#F7FBFF"/>
<path d="M1990.51 145.4L1989.34 142.639L1825.88 212.024L1827.05 214.786L1990.51 145.4ZM1997.07 148.049L2064.51 306.932C2065.59 309.474 2064.4 312.41 2061.86 313.489L1898.4 382.874C1895.86 383.953 1892.92 382.767 1891.84 380.225L1824.4 221.342C1823.32 218.8 1824.51 215.865 1827.05 214.786L1825.88 212.024C1821.81 213.751 1819.91 218.447 1821.64 222.514L1889.08 381.398C1890.81 385.465 1895.5 387.362 1899.57 385.636L2063.03 316.25C2067.1 314.524 2069 309.827 2067.27 305.76L1999.83 146.877C1998.1 142.81 1993.41 140.912 1989.34 142.639L1990.51 145.4C1993.05 144.321 1995.99 145.507 1997.07 148.049Z" fill="#2E2F33" fill-opacity="0.88"/>
<path d="M1963.47 252.062C1967.91 252.094 1972.28 254.719 1972.31 263C1972.31 270.812 1968.78 275.312 1963.22 275.312C1958.84 275.312 1955.84 272.594 1955.34 268.844H1959.38C1959.78 270.625 1961.16 271.781 1963.22 271.781C1966.5 271.781 1968.34 268.875 1968.38 264.031H1968.13C1966.97 266 1964.81 267.156 1962.31 267.156C1958.28 267.156 1955.16 264.094 1955.13 259.812C1955.13 255.375 1958.44 252.031 1963.47 252.062ZM1963.5 255.344C1960.97 255.344 1959.06 257.312 1959.09 259.719C1959.09 262.156 1960.91 264.062 1963.44 264.062C1965.94 264.062 1967.91 262.031 1967.88 259.687C1967.88 257.375 1966.03 255.344 1963.5 255.344Z" fill="black"/>
<path d="M1936.16 275V272.062L1944.16 264.344C1946.44 262.062 1947.63 260.719 1947.63 258.812C1947.63 256.719 1945.97 255.375 1943.75 255.375C1941.41 255.375 1939.91 256.844 1939.94 259.125H1936.06C1936.03 254.844 1939.25 252.062 1943.78 252.062C1948.41 252.062 1951.53 254.812 1951.53 258.625C1951.53 261.187 1950.28 263.25 1945.84 267.437L1941.81 271.437V271.594H1951.88V275H1936.16Z" fill="black"/>
<path d="M1916.88 275V272.062L1924.88 264.344C1927.16 262.062 1928.34 260.719 1928.34 258.812C1928.34 256.719 1926.69 255.375 1924.47 255.375C1922.13 255.375 1920.63 256.844 1920.66 259.125H1916.78C1916.75 254.844 1919.97 252.062 1924.5 252.062C1929.13 252.062 1932.25 254.812 1932.25 258.625C1932.25 261.187 1931 263.25 1926.56 267.437L1922.53 271.437V271.594H1932.59V275H1916.88Z" fill="black"/>
</g>
<g id="jeongui_hall_227">
<path d="M1802.08 417.183C1803.81 421.25 1808.5 423.147 1812.57 421.421L1886 390.25C1890.07 388.524 1891.97 383.827 1890.24 379.76L1822.8 220.877C1821.07 216.81 1816.38 214.912 1812.31 216.639L1738.88 247.809C1734.81 249.536 1732.91 254.232 1734.64 258.299L1802.08 417.183Z" fill="#F7FBFF"/>
<path d="M1813.48 219.4L1812.31 216.639L1738.88 247.809L1740.05 250.571L1813.48 219.4ZM1820.04 222.049L1887.48 380.932C1888.56 383.474 1887.37 386.41 1884.83 387.489L1811.4 418.659C1808.86 419.738 1805.92 418.552 1804.84 416.011L1737.4 257.127C1736.32 254.585 1737.51 251.65 1740.05 250.571L1738.88 247.809C1734.81 249.536 1732.91 254.232 1734.64 258.299L1802.08 417.183C1803.75 421.123 1808.21 423.026 1812.19 421.572L1812.57 421.421L1886 390.25C1890.07 388.524 1891.97 383.827 1890.24 379.76L1822.8 220.877C1821.07 216.81 1816.38 214.912 1812.31 216.639L1813.48 219.4C1816.02 218.321 1818.96 219.507 1820.04 222.049Z" fill="#2E2F33" fill-opacity="0.88"/>
<path d="M1825.28 330L1835.09 310.937V310.781H1823.72V307.375H1839.31V310.844L1829.5 330H1825.28Z" fill="black"/>
<path d="M1805.16 330V327.062L1813.16 319.344C1815.44 317.062 1816.63 315.719 1816.63 313.812C1816.63 311.719 1814.97 310.375 1812.75 310.375C1810.41 310.375 1808.91 311.844 1808.94 314.125H1805.06C1805.03 309.844 1808.25 307.062 1812.78 307.062C1817.41 307.062 1820.53 309.812 1820.53 313.625C1820.53 316.187 1819.28 318.25 1814.84 322.437L1810.81 326.437V326.594H1820.88V330H1805.16Z" fill="black"/>
<path d="M1785.88 330V327.062L1793.88 319.344C1796.16 317.062 1797.34 315.719 1797.34 313.812C1797.34 311.719 1795.69 310.375 1793.47 310.375C1791.13 310.375 1789.63 311.844 1789.66 314.125H1785.78C1785.75 309.844 1788.97 307.062 1793.5 307.062C1798.13 307.062 1801.25 309.812 1801.25 313.625C1801.25 316.187 1800 318.25 1795.56 322.437L1791.53 326.437V326.594H1801.59V330H1785.88Z" fill="black"/>
</g>
<g id="jeongui_hall_226">
<path d="M1715.08 452.632C1716.81 456.699 1721.5 458.597 1725.57 456.87L1800.06 425.252C1804.13 423.525 1806.02 418.829 1804.3 414.762L1736.86 255.878C1735.13 251.811 1730.43 249.914 1726.37 251.64L1651.88 283.259C1647.81 284.985 1645.91 289.682 1647.64 293.749L1715.08 452.632Z" fill="#F7FBFF"/>
<path d="M1727.54 254.402L1726.37 251.64L1651.88 283.259L1653.05 286.02L1727.54 254.402ZM1734.09 257.05L1801.54 415.934C1802.61 418.476 1801.43 421.411 1798.89 422.49L1724.4 454.109C1721.86 455.188 1718.92 454.002 1717.84 451.46L1650.4 292.576C1649.32 290.035 1650.51 287.099 1653.05 286.02L1651.88 283.259L1651.5 283.429C1647.69 285.278 1645.97 289.809 1647.64 293.749L1715.08 452.632C1716.81 456.699 1721.5 458.597 1725.57 456.87L1800.06 425.252C1804.13 423.525 1806.02 418.829 1804.3 414.762L1736.86 255.878C1735.13 251.811 1730.43 249.914 1726.37 251.64L1727.54 254.402C1730.08 253.323 1733.01 254.508 1734.09 257.05Z" fill="#2E2F33" fill-opacity="0.88"/>
<path d="M1745.91 365.313C1741.5 365.281 1737.06 362.656 1737.09 354.313C1737.09 346.563 1740.63 342.063 1746.16 342.063C1750.53 342.063 1753.53 344.813 1754.03 348.469H1750C1749.59 346.75 1748.22 345.594 1746.16 345.594C1742.88 345.594 1741.03 348.5 1741.03 353.25H1741.25C1742.41 351.313 1744.59 350.156 1747.06 350.156C1751.13 350.156 1754.25 353.219 1754.25 357.5C1754.25 362 1750.91 365.344 1745.91 365.313ZM1745.91 362.031C1748.44 362.031 1750.31 360.063 1750.31 357.594C1750.31 355.188 1748.47 353.25 1745.97 353.25C1743.44 353.25 1741.5 355.25 1741.47 357.625C1741.5 360 1743.34 362.031 1745.91 362.031Z" fill="black"/>
<path d="M1718.16 365V362.063L1726.16 354.344C1728.44 352.063 1729.63 350.719 1729.63 348.813C1729.63 346.719 1727.97 345.375 1725.75 345.375C1723.41 345.375 1721.91 346.844 1721.94 349.125H1718.06C1718.03 344.844 1721.25 342.063 1725.78 342.063C1730.41 342.063 1733.53 344.813 1733.53 348.625C1733.53 351.188 1732.28 353.25 1727.84 357.438L1723.81 361.438V361.594H1733.88V365H1718.16Z" fill="black"/>
<path d="M1698.88 365V362.063L1706.88 354.344C1709.16 352.063 1710.34 350.719 1710.34 348.813C1710.34 346.719 1708.69 345.375 1706.47 345.375C1704.13 345.375 1702.63 346.844 1702.66 349.125H1698.78C1698.75 344.844 1701.97 342.063 1706.5 342.063C1711.13 342.063 1714.25 344.813 1714.25 348.625C1714.25 351.188 1713 353.25 1708.56 357.438L1704.53 361.438V361.594H1714.59V365H1698.88Z" fill="black"/>
</g>
<g id="jeongui_hall_225">
<path d="M1629.08 489.429C1630.81 493.496 1635.5 495.394 1639.57 493.667L1713.59 462.249C1717.65 460.523 1719.55 455.826 1717.82 451.759L1650.38 292.876C1648.66 288.809 1643.96 286.911 1639.89 288.638L1565.88 320.056C1561.81 321.782 1559.91 326.478 1561.64 330.546L1629.08 489.429Z" fill="#F7FBFF"/>
<path d="M1641.06 291.399L1639.89 288.638L1565.88 320.056L1567.05 322.817L1641.06 291.399ZM1647.62 294.048L1715.06 452.932C1716.14 455.473 1714.96 458.409 1712.41 459.488L1638.4 490.906C1635.86 491.985 1632.92 490.799 1631.84 488.257L1564.4 329.374C1563.32 326.832 1564.51 323.896 1567.05 322.817L1565.88 320.056C1561.81 321.782 1559.91 326.478 1561.64 330.546L1629.08 489.429C1630.81 493.496 1635.5 495.394 1639.57 493.667L1713.59 462.249C1717.65 460.523 1719.55 455.826 1717.82 451.759L1650.38 292.876C1648.66 288.809 1643.96 286.911 1639.89 288.638L1641.06 291.399C1643.61 290.32 1646.54 291.506 1647.62 294.048Z" fill="#2E2F33" fill-opacity="0.88"/>
<path d="M1658.47 402.313C1653.94 402.313 1650.63 399.625 1650.5 395.875H1654.47C1654.59 397.719 1656.31 399.031 1658.47 399.031C1661 399.031 1662.81 397.188 1662.81 394.688C1662.81 392.094 1660.94 390.25 1658.34 390.25C1656.59 390.219 1655.31 390.844 1654.59 392.188H1650.81L1652.19 379.375H1665.56V382.781H1655.53L1654.84 388.781H1655.06C1655.94 387.781 1657.59 387.063 1659.44 387.063C1663.66 387.063 1666.75 390.219 1666.75 394.563C1666.75 399.094 1663.34 402.313 1658.47 402.313Z" fill="black"/>
<path d="M1631.16 402V399.063L1639.16 391.344C1641.44 389.063 1642.63 387.719 1642.63 385.813C1642.63 383.719 1640.97 382.375 1638.75 382.375C1636.41 382.375 1634.91 383.844 1634.94 386.125H1631.06C1631.03 381.844 1634.25 379.063 1638.78 379.063C1643.41 379.063 1646.53 381.813 1646.53 385.625C1646.53 388.188 1645.28 390.25 1640.84 394.438L1636.81 398.438V398.594H1646.88V402H1631.16Z" fill="black"/>
<path d="M1611.88 402V399.063L1619.88 391.344C1622.16 389.063 1623.34 387.719 1623.34 385.813C1623.34 383.719 1621.69 382.375 1619.47 382.375C1617.13 382.375 1615.63 383.844 1615.66 386.125H1611.78C1611.75 381.844 1614.97 379.063 1619.5 379.063C1624.13 379.063 1627.25 381.813 1627.25 385.625C1627.25 388.188 1626 390.25 1621.56 394.438L1617.53 398.438V398.594H1627.59V402H1611.88Z" fill="black"/>
</g>
<g id="jeongui_hall_219">
<path d="M852.26 493.68C850.534 497.747 845.837 499.645 841.77 497.918L771.876 468.25C767.809 466.524 765.912 461.827 767.638 457.76L835.08 298.877C836.806 294.81 841.503 292.912 845.57 294.638L915.464 324.307C919.531 326.033 921.429 330.73 919.702 334.797L852.26 493.68Z" fill="#F7FBFF"/>
<path d="M844.397 297.4L845.57 294.638L915.464 324.307L914.292 327.068L844.397 297.4ZM837.841 300.049L770.399 458.932C769.32 461.474 770.506 464.409 773.048 465.488L842.943 495.157C845.484 496.236 848.42 495.05 849.499 492.508L916.941 333.625C918.02 331.083 916.834 328.147 914.292 327.068L915.464 324.307C919.531 326.033 921.429 330.73 919.702 334.797L852.26 493.68C850.588 497.62 846.129 499.523 842.154 498.069L841.77 497.918L771.876 468.25L771.502 468.079C767.694 466.23 765.966 461.7 767.638 457.76L835.08 298.877L835.251 298.501C837.04 294.817 841.341 293.079 845.187 294.487L845.57 294.638L844.397 297.4C841.855 296.321 838.92 297.507 837.841 300.049Z" fill="#2E2F33" fill-opacity="0.88"/>
<path d="M859.875 384.062C864.312 384.094 868.688 386.719 868.719 395C868.719 402.813 865.188 407.313 859.625 407.313C855.25 407.313 852.25 404.594 851.75 400.844H855.781C856.188 402.625 857.562 403.781 859.625 403.781C862.906 403.781 864.75 400.875 864.781 396.031H864.531C863.375 398 861.219 399.156 858.719 399.156C854.688 399.156 851.562 396.094 851.531 391.813C851.531 387.375 854.844 384.031 859.875 384.062ZM859.906 387.344C857.375 387.344 855.469 389.313 855.5 391.719C855.5 394.156 857.312 396.063 859.844 396.063C862.344 396.063 864.312 394.031 864.281 391.688C864.281 389.375 862.438 387.344 859.906 387.344Z" fill="black"/>
<path d="M846.344 384.375V407H842.25V388.344H842.125L836.844 391.719V388L842.438 384.375H846.344Z" fill="black"/>
<path d="M817.875 407V404.062L825.875 396.344C828.156 394.062 829.344 392.719 829.344 390.812C829.344 388.719 827.687 387.375 825.469 387.375C823.125 387.375 821.625 388.844 821.656 391.125H817.781C817.75 386.844 820.969 384.062 825.5 384.062C830.125 384.062 833.25 386.812 833.25 390.625C833.25 393.188 832 395.25 827.562 399.438L823.531 403.438V403.594H833.594V407H817.875Z" fill="black"/>
</g>
<g id="jeongui_hall_startupstudio">
<path d="M769.26 460.68C767.534 464.747 762.837 466.645 758.77 464.918L688.876 435.25C684.809 433.524 682.912 428.827 684.638 424.76L752.08 265.877C753.806 261.81 758.503 259.912 762.57 261.638L832.464 291.307C836.531 293.033 838.429 297.73 836.702 301.797L769.26 460.68Z" fill="#F7FBFF"/>
<path d="M761.397 264.4L762.57 261.638L832.464 291.307L831.292 294.068L761.397 264.4ZM754.841 267.049L687.399 425.932C686.32 428.474 687.506 431.409 690.048 432.488L759.943 462.157C762.484 463.236 765.42 462.05 766.499 459.508L833.941 300.625C835.02 298.083 833.834 295.147 831.292 294.068L832.464 291.307C836.531 293.033 838.429 297.73 836.702 301.797L769.26 460.68C767.588 464.62 763.129 466.523 759.154 465.069L758.77 464.918L688.876 435.25L688.502 435.079C684.694 433.23 682.966 428.7 684.638 424.76L752.08 265.877L752.251 265.501C754.04 261.817 758.341 260.079 762.187 261.487L762.57 261.638L761.397 264.4C758.855 263.321 755.92 264.507 754.841 267.049Z" fill="#2E2F33" fill-opacity="0.88"/>
<path d="M771.078 383.094C775.625 383.094 778.977 385.367 778.977 388.812C778.977 391.988 776.246 394.109 772.367 394.484V398.375H780.805V400.508H761.445V398.375H769.789V394.484C765.934 394.109 763.203 391.988 763.227 388.812C763.203 385.367 766.555 383.094 771.078 383.094ZM771.078 385.203C767.984 385.18 765.758 386.586 765.781 388.812C765.758 391.109 767.984 392.469 771.078 392.469C774.219 392.469 776.422 391.109 776.422 388.812C776.422 386.586 774.219 385.18 771.078 385.203Z" fill="black"/>
<path d="M758.328 381.898V403.109H755.703V381.898H758.328ZM752.234 383.82V385.953H744.641V395.797C748.543 395.785 750.992 395.668 753.805 395.164L754.062 397.32C751.039 397.883 748.297 398 743.82 398H742.016V383.82H752.234Z" fill="black"/>
<path d="M780.781 365.508V367.641H776.117V374.086H773.492V367.641H768.734V374.086H766.133V367.641H761.422V365.508H780.781ZM778.695 361.711V363.773H763.906V353.812H778.461V355.875H766.484V357.727H777.992V359.742H766.484V361.711H778.695Z" fill="black"/>
<path d="M751.648 355.805C751.648 359.086 754.859 362.367 759.289 363.141L758.117 365.32C754.566 364.57 751.66 362.426 750.289 359.578C748.883 362.402 745.977 364.559 742.438 365.32L741.289 363.141C745.672 362.344 748.859 359.062 748.883 355.805V354.234H751.648V355.805ZM760.062 369.234V371.391H740.703V369.234H760.062Z" fill="black"/>
<path d="M767.328 324.836C770.07 324.812 772.227 326.395 772.766 328.727H776.586V323.898H779.188V335.266H776.586V330.836H772.789C772.262 333.215 770.082 334.82 767.328 334.82C764.07 334.82 761.727 332.734 761.727 329.805C761.727 326.922 764.07 324.812 767.328 324.836ZM767.328 327.016C765.5 327.016 764.211 328.094 764.211 329.805C764.211 331.492 765.5 332.617 767.328 332.617C769.109 332.617 770.375 331.492 770.398 329.805C770.375 328.094 769.109 327.016 767.328 327.016ZM767.797 336.25V338.5H776.586V336.25H779.188V344.828H765.219V336.25H767.797ZM767.797 342.719H776.586V340.516H767.797V342.719Z" fill="black"/>
<path d="M748.32 328.422C748.32 330.742 750.031 332.969 753.359 333.883L752.164 335.945C749.738 335.277 748.016 333.836 747.055 332.031C746.129 334.082 744.371 335.699 741.875 336.461L740.609 334.422C743.938 333.461 745.719 331.023 745.719 328.422V328.328H741.289V326.266H745.719V323.805H748.344V326.266H752.75V328.328H748.32V328.422ZM757.414 323.898V329.078H760.367V331.211H757.414V336.742H754.812V323.898H757.414ZM750.523 337.188C754.93 337.188 757.602 338.617 757.625 341.125C757.602 343.609 754.93 345.039 750.523 345.039C746.07 345.039 743.352 343.609 743.352 341.125C743.352 338.617 746.07 337.188 750.523 337.188ZM750.523 339.203C747.594 339.203 745.953 339.836 745.953 341.125C745.953 342.391 747.594 343.047 750.523 343.047C753.43 343.047 755.047 342.391 755.047 341.125C755.047 339.836 753.43 339.203 750.523 339.203Z" fill="black"/>
</g>
<g id="jeongui_hall_215">
<path d="M687.199 426.691C685.473 430.758 680.777 432.655 676.71 430.929L441.876 331.248C437.809 329.522 435.912 324.825 437.638 320.758L505.08 161.875C506.806 157.808 511.503 155.91 515.57 157.637L750.403 257.317C754.47 259.044 756.368 263.74 754.642 267.807L687.199 426.691Z" fill="#F7FBFF"/>
<path d="M514.398 160.398L515.57 157.637L750.403 257.317L749.231 260.079L514.398 160.398ZM507.842 163.047L440.4 321.931C439.321 324.472 440.507 327.408 443.049 328.487L677.882 428.167C680.424 429.246 683.359 428.061 684.438 425.519L751.88 266.635C752.959 264.093 751.773 261.158 749.231 260.079L750.403 257.317C754.47 259.044 756.368 263.74 754.642 267.807L687.199 426.691C685.473 430.758 680.777 432.655 676.71 430.929L441.876 331.248C437.809 329.522 435.912 324.825 437.638 320.758L505.08 161.875C506.806 157.808 511.503 155.91 515.57 157.637L514.398 160.398C511.856 159.319 508.921 160.505 507.842 163.047Z" fill="#2E2F33" fill-opacity="0.88"/>
<path d="M612.874 305.313C608.343 305.313 605.031 302.625 604.906 298.875H608.874C608.999 300.719 610.718 302.031 612.874 302.031C615.406 302.031 617.218 300.188 617.218 297.688C617.218 295.094 615.343 293.25 612.749 293.25C610.999 293.219 609.718 293.844 608.999 295.188H605.218L606.593 282.375H619.968V285.781H609.937L609.249 291.781H609.468C610.343 290.781 611.999 290.063 613.843 290.063C618.062 290.063 621.156 293.219 621.156 297.563C621.156 302.094 617.749 305.313 612.874 305.313Z" fill="black"/>
<path d="M599.343 282.375V305H595.249V286.344H595.124L589.843 289.719V286L595.437 282.375H599.343Z" fill="black"/>
<path d="M570.874 305V302.063L578.874 294.344C581.156 292.063 582.343 290.719 582.343 288.813C582.343 286.719 580.687 285.375 578.468 285.375C576.124 285.375 574.624 286.844 574.656 289.125H570.781C570.749 284.844 573.968 282.063 578.499 282.063C583.124 282.063 586.249 284.813 586.249 288.625C586.249 291.188 584.999 293.25 580.562 297.438L576.531 301.438V301.594H586.593V305H570.874Z" fill="black"/>
</g>
<g id="jeongui_hall_213">
<path d="M440.518 320.597C438.792 324.664 434.095 326.562 430.028 324.835L277.876 260.251C273.809 258.524 271.912 253.828 273.638 249.761L341.08 90.8772C342.806 86.8101 347.503 84.9126 351.57 86.639L503.722 151.224C507.789 152.95 509.687 157.647 507.96 161.714L440.518 320.597Z" fill="#F7FBFF"/>
<path d="M350.398 89.4005L351.57 86.639L503.722 151.224L502.55 153.985L350.398 89.4005ZM343.842 92.0494L276.4 250.933C275.321 253.475 276.507 256.41 279.048 257.489L431.2 322.074C433.742 323.153 436.678 321.967 437.757 319.425L505.199 160.541C506.278 157.999 505.092 155.064 502.55 153.985L503.722 151.224L504.098 151.394C507.904 153.243 509.633 157.774 507.96 161.714L440.518 320.597C438.792 324.664 434.095 326.562 430.028 324.835L277.876 260.251L277.502 260.08C273.694 258.231 271.966 253.701 273.638 249.761L341.08 90.8772L341.251 90.502C343.04 86.8176 347.341 85.0796 351.188 86.4873L351.57 86.639L350.398 89.4005C347.856 88.3216 344.921 89.5075 343.842 92.0494Z" fill="#2E2F33" fill-opacity="0.88"/>
<path d="M407.062 217.313C402.218 217.313 398.781 214.688 398.687 210.875H402.781C402.906 212.688 404.718 213.875 407.062 213.875C409.562 213.875 411.343 212.5 411.343 210.5C411.343 208.469 409.593 207 406.656 207H404.625V203.875H406.656C409.062 203.875 410.75 202.531 410.718 200.563C410.75 198.656 409.312 197.375 407.093 197.375C404.968 197.375 403.125 198.563 403.062 200.469H399.156C399.25 196.656 402.687 194.063 407.125 194.063C411.718 194.063 414.687 196.875 414.656 200.344C414.687 202.875 413 204.719 410.531 205.219V205.406C413.718 205.844 415.531 207.875 415.5 210.719C415.531 214.531 411.968 217.313 407.062 217.313Z" fill="black"/>
<path d="M393.343 194.375V217H389.25V198.344H389.125L383.843 201.719V198L389.437 194.375H393.343Z" fill="black"/>
<path d="M364.875 217V214.063L372.875 206.344C375.156 204.063 376.343 202.719 376.343 200.813C376.343 198.719 374.687 197.375 372.468 197.375C370.125 197.375 368.625 198.844 368.656 201.125H364.781C364.75 196.844 367.968 194.063 372.5 194.063C377.125 194.063 380.25 196.813 380.25 200.625C380.25 203.188 379 205.25 374.562 209.438L370.531 213.438V213.594H380.593V217H364.875Z" fill="black"/>
</g>
<g id="jeongui_hall_212">
<path d="M276.182 250.343C274.456 254.41 269.759 256.307 265.692 254.581L191.876 223.248C187.809 221.522 185.912 216.825 187.638 212.758L255.08 53.8748C256.806 49.8077 261.503 47.9102 265.57 49.6366L339.386 80.9695C343.453 82.6959 345.35 87.3923 343.624 91.4594L276.182 250.343Z" fill="#F7FBFF"/>
<path d="M264.398 52.3981L265.57 49.6366L339.386 80.9695L338.214 83.731L264.398 52.3981ZM257.842 55.047L190.4 213.93C189.321 216.472 190.507 219.408 193.048 220.487L266.864 251.82C269.406 252.899 272.341 251.713 273.42 249.171L340.862 90.2872C341.941 87.7453 340.755 84.81 338.214 83.731L339.386 80.9695C343.453 82.6959 345.35 87.3923 343.624 91.4594L276.182 250.343C274.456 254.41 269.759 256.307 265.692 254.581L191.876 223.248C187.809 221.522 185.912 216.825 187.638 212.758L255.08 53.8748C256.806 49.8077 261.503 47.9102 265.57 49.6366L264.398 52.3981C261.856 51.3191 258.921 52.505 257.842 55.047Z" fill="#2E2F33" fill-opacity="0.88"/>
<path d="M274.843 163V160.062L282.843 152.344C285.124 150.062 286.312 148.719 286.312 146.812C286.312 144.719 284.656 143.375 282.437 143.375C280.093 143.375 278.593 144.844 278.624 147.125H274.749C274.718 142.844 277.937 140.062 282.468 140.062C287.093 140.062 290.218 142.812 290.218 146.625C290.218 149.187 288.968 151.25 284.531 155.437L280.499 159.437V159.594H290.562V163H274.843Z" fill="black"/>
<path d="M269.343 140.375V163H265.249V144.344H265.124L259.843 147.719V144L265.437 140.375H269.343Z" fill="black"/>
<path d="M240.874 163V160.062L248.874 152.344C251.156 150.062 252.343 148.719 252.343 146.812C252.343 144.719 250.687 143.375 248.468 143.375C246.124 143.375 244.624 144.844 244.656 147.125H240.781C240.749 142.844 243.968 140.062 248.499 140.062C253.124 140.062 256.249 142.812 256.249 146.625C256.249 149.187 254.999 151.25 250.562 155.437L246.531 159.437V159.594H256.593V163H240.874Z" fill="black"/>
</g>
<g id="jeongui_hall_211">
<path d="M190.182 213.344C188.456 217.411 183.759 219.309 179.692 217.583L105.876 186.25C101.809 184.523 99.9117 179.827 101.638 175.76L169.08 16.8762C170.806 12.8092 175.503 10.9117 179.57 12.638L253.386 43.971C257.453 45.6973 259.35 50.3938 257.624 54.4609L190.182 213.344Z" fill="#F7FBFF"/>
<path d="M178.398 15.3996L179.57 12.638L253.386 43.971L252.214 46.7325L178.398 15.3996ZM171.842 18.0484L104.4 176.932C103.321 179.474 104.507 182.409 107.048 183.488L180.864 214.821C183.406 215.9 186.341 214.714 187.42 212.172L254.862 53.2887C255.941 50.7468 254.755 47.8115 252.214 46.7325L253.386 43.971C257.453 45.6973 259.35 50.3938 257.624 54.4609L190.182 213.344C188.456 217.411 183.759 219.309 179.692 217.583L105.876 186.25C101.809 184.523 99.9117 179.827 101.638 175.76L169.08 16.8762C170.806 12.8092 175.503 10.9117 179.57 12.638L178.398 15.3996C175.856 14.3206 172.921 15.5065 171.842 18.0484Z" fill="#2E2F33" fill-opacity="0.88"/>
<path d="M200.031 103.375V126H195.938V107.344H195.812L190.531 110.719V107L196.125 103.375H200.031Z" fill="black"/>
<path d="M185.344 103.375V126H181.25V107.344H181.125L175.844 110.719V107L181.438 103.375H185.344Z" fill="black"/>
<path d="M156.875 126V123.062L164.875 115.344C167.156 113.062 168.344 111.719 168.344 109.812C168.344 107.719 166.688 106.375 164.469 106.375C162.125 106.375 160.625 107.844 160.656 110.125H156.781C156.75 105.844 159.969 103.062 164.5 103.062C169.125 103.062 172.25 105.812 172.25 109.625C172.25 112.188 171 114.25 166.562 118.438L162.531 122.438V122.594H172.594V126H156.875Z" fill="black"/>
</g>
<g id="jeongui_hall_2f_toilet_boy">
<path d="M1383.64 435.86C1381.91 431.793 1383.81 427.097 1387.88 425.37L1474.41 388.639C1478.48 386.913 1483.17 388.811 1484.9 392.878L1539.66 521.877C1541.38 525.944 1539.48 530.64 1535.42 532.367L1448.88 569.097C1444.82 570.824 1440.12 568.926 1438.39 564.859L1383.64 435.86Z" fill="#FED9C4"/>
<path d="M1534.25 529.605L1535.42 532.367L1448.88 569.097L1447.71 566.336L1534.25 529.605ZM1536.89 523.049L1482.14 394.05C1481.06 391.508 1478.12 390.322 1475.58 391.401L1389.05 428.132C1386.51 429.211 1385.32 432.146 1386.4 434.688L1441.16 563.687C1442.24 566.229 1445.17 567.415 1447.71 566.336L1448.88 569.097L1448.5 569.249C1444.65 570.656 1440.35 568.918 1438.57 565.234L1438.39 564.859L1383.64 435.86C1381.97 431.92 1383.69 427.39 1387.5 425.541L1387.88 425.37L1474.41 388.639L1474.79 388.489C1478.77 387.034 1483.23 388.938 1484.9 392.878L1539.66 521.877L1539.81 522.259C1541.21 526.106 1539.48 530.407 1535.79 532.196L1535.42 532.367L1534.25 529.605C1536.79 528.526 1537.97 525.591 1536.89 523.049Z" fill="#2E2F33" fill-opacity="0.88"/>
<path d="M1474.75 454.25H1449.25C1442.62 454.25 1437.25 459.623 1437.25 466.25V491.75C1437.25 498.377 1442.62 503.75 1449.25 503.75H1474.75C1481.38 503.75 1486.75 498.377 1486.75 491.75V466.25C1486.75 459.623 1481.38 454.25 1474.75 454.25Z" fill="#3076D1"/>
<path d="M1464.73 491.89L1470.19 479.342C1471.05 477.379 1469.61 475.181 1467.47 475.181H1456.54C1454.39 475.181 1452.95 477.379 1453.81 479.342L1459.28 491.89C1460.31 494.272 1463.69 494.272 1464.73 491.89H1464.73Z" fill="white"/>
<path d="M1462 472.388C1464.23 472.388 1466.03 470.583 1466.03 468.356C1466.03 466.129 1464.23 464.324 1462 464.324C1459.77 464.324 1457.97 466.129 1457.97 468.356C1457.97 470.583 1459.77 472.388 1462 472.388Z" fill="white"/>
</g>
<g id="jeongui_hall_2f_toilet_girl">
<path d="M1086.66 436.86C1088.38 432.793 1086.48 428.097 1082.42 426.37L995.885 389.639C991.818 387.913 987.121 389.811 985.395 393.878L930.638 522.877C928.912 526.944 930.809 531.64 934.876 533.367L1021.41 570.097C1025.48 571.824 1030.17 569.926 1031.9 565.859L1086.66 436.86Z" fill="#FED9C4"/>
<path d="M936.048 530.605L934.876 533.367L1021.41 570.097L1022.58 567.336L936.048 530.605ZM933.399 524.049L988.156 395.05C989.235 392.508 992.17 391.322 994.712 392.401L1081.25 429.132C1083.79 430.211 1084.97 433.146 1083.89 435.688L1029.14 564.687C1028.06 567.229 1025.12 568.415 1022.58 567.336L1021.41 570.097L1021.79 570.249C1025.64 571.656 1029.94 569.918 1031.73 566.234L1031.9 565.859L1086.66 436.86C1088.33 432.92 1086.6 428.39 1082.79 426.541L1082.42 426.37L995.885 389.639L995.502 389.489C991.527 388.034 987.067 389.938 985.395 393.878L930.638 522.877L930.487 523.259C929.079 527.106 930.817 531.407 934.502 533.196L934.876 533.367L936.048 530.605C933.506 529.526 932.32 526.591 933.399 524.049Z" fill="#2E2F33" fill-opacity="0.88"/>
<path d="M1021.75 455.25H996.25C989.623 455.25 984.25 460.623 984.25 467.25V492.75C984.25 499.377 989.623 504.75 996.25 504.75H1021.75C1028.38 504.75 1033.75 499.377 1033.75 492.75V467.25C1033.75 460.623 1028.38 455.25 1021.75 455.25Z" fill="#E76D6D"/>
<path d="M1006.27 477.977L1000.81 490.524C999.954 492.488 1001.39 494.685 1003.53 494.685H1014.46C1016.61 494.685 1018.05 492.488 1017.19 490.524L1011.72 477.977C1010.69 475.595 1007.31 475.595 1006.27 477.977H1006.27Z" fill="white"/>
<path d="M1009 473.381C1011.23 473.381 1013.03 471.575 1013.03 469.349C1013.03 467.122 1011.23 465.317 1009 465.317C1006.77 465.317 1004.97 467.122 1004.97 469.349C1004.97 471.575 1006.77 473.381 1009 473.381Z" fill="white"/>
</g>
<g id="jeongui_hall_2f_stairs_left">
<path d="M998.369 369.653C1000.1 365.586 998.198 360.89 994.131 359.163L926.934 330.64C922.867 328.914 918.17 330.811 916.444 334.878L865.638 454.569C863.912 458.636 865.809 463.333 869.876 465.059L937.073 493.583C941.14 495.309 945.837 493.411 947.563 489.344L998.369 369.653Z" fill="#D9FFE6"/>
<path d="M871.049 462.297L869.876 465.059L937.073 493.583L938.245 490.821L871.049 462.297ZM868.4 455.741L919.205 336.05C920.284 333.508 923.22 332.323 925.762 333.401L992.958 361.925C995.5 363.004 996.686 365.939 995.607 368.481L944.802 488.172C943.723 490.714 940.787 491.9 938.245 490.821L937.073 493.583L937.456 493.734C941.431 495.188 945.891 493.284 947.563 489.344L998.369 369.653C1000.1 365.586 998.198 360.89 994.131 359.163L926.934 330.64C922.867 328.914 918.17 330.811 916.444 334.878L865.638 454.569C863.912 458.636 865.809 463.333 869.876 465.059L871.049 462.297C868.507 461.218 867.321 458.283 868.4 455.741Z" fill="#2E2F33" fill-opacity="0.88"/>
<path d="M955.941 385.635C954.892 385.248 953.728 385.788 953.341 386.836L949.581 397.056H928.282L931.806 388.29C932.223 387.252 931.72 386.071 930.682 385.654C929.644 385.237 928.465 385.743 928.048 386.778L908.433 435.582C908.016 436.62 908.518 437.8 909.556 438.217C909.804 438.316 910.059 438.364 910.311 438.364C911.113 438.364 911.874 437.884 912.19 437.094L916.219 427.071C916.306 427.083 916.383 427.122 916.473 427.122H938.52L935.386 435.64C935.001 436.689 935.538 437.854 936.588 438.238C936.819 438.324 937.056 438.364 937.287 438.364C938.11 438.364 938.886 437.856 939.187 437.037L957.142 388.233C957.528 387.184 956.991 386.019 955.941 385.635ZM927.075 401.104H948.09L944.85 409.911H923.115L926.686 401.026C926.817 401.052 926.937 401.104 927.075 401.104ZM917.826 423.072L921.511 413.904C921.607 413.917 921.694 413.961 921.795 413.961H943.362L940.009 423.072H917.826Z" fill="#6E4944"/>
</g>
<g id="jeongui_hall_2f_stairs_right">
<path d="M1471.64 368.844C1469.91 364.777 1471.81 360.081 1475.88 358.355L1552.95 325.639C1557.02 323.912 1561.71 325.81 1563.44 329.877L1614.25 449.568C1615.97 453.635 1614.08 458.331 1610.01 460.058L1532.93 492.774C1528.87 494.5 1524.17 492.603 1522.44 488.536L1471.64 368.844Z" fill="#D9FFE6"/>
<path d="M1608.84 457.296L1610.01 460.058L1532.93 492.774L1531.76 490.012L1608.84 457.296ZM1611.48 450.74L1560.68 331.049C1559.6 328.507 1556.66 327.321 1554.12 328.4L1477.05 361.116C1474.51 362.195 1473.32 365.13 1474.4 367.672L1525.21 487.363C1526.28 489.905 1529.22 491.091 1531.76 490.012L1532.93 492.774L1532.55 492.926C1528.58 494.38 1524.12 492.475 1522.44 488.536L1471.64 368.844C1469.91 364.777 1471.81 360.081 1475.88 358.355L1552.95 325.639L1553.33 325.487C1557.31 324.033 1561.77 325.937 1563.44 329.877L1614.25 449.568L1614.4 449.951C1615.8 453.797 1614.07 458.098 1610.38 459.887L1610.01 460.058L1608.84 457.296C1611.38 456.217 1612.56 453.282 1611.48 450.74Z" fill="#2E2F33" fill-opacity="0.88"/>
<path d="M1566.94 382.634C1565.89 382.247 1564.73 382.787 1564.34 383.836L1560.58 394.055H1539.28L1542.81 385.289C1543.22 384.251 1542.72 383.071 1541.68 382.654C1540.64 382.237 1539.46 382.742 1539.05 383.777L1519.43 432.581C1519.02 433.619 1519.52 434.8 1520.56 435.217C1520.8 435.316 1521.06 435.364 1521.31 435.364C1522.11 435.364 1522.87 434.884 1523.19 434.093L1527.22 424.07C1527.31 424.082 1527.38 424.121 1527.47 424.121H1549.52L1546.39 432.64C1546 433.688 1546.54 434.854 1547.59 435.238C1547.82 435.323 1548.06 435.364 1548.29 435.364C1549.11 435.364 1549.89 434.855 1550.19 434.036L1568.14 385.232C1568.53 384.184 1567.99 383.018 1566.94 382.634ZM1538.07 398.104H1559.09L1555.85 406.91H1534.11L1537.69 398.026C1537.82 398.051 1537.94 398.104 1538.07 398.104ZM1528.83 420.071L1532.51 410.903C1532.61 410.917 1532.69 410.96 1532.79 410.96H1554.36L1551.01 420.071H1528.83Z" fill="#6E4944"/>
</g>
<g id="jeongui_hall_2f_stairs_main_left">
<path d="M1037.57 657.309C1039.29 653.242 1037.39 648.546 1033.33 646.82L999.918 632.638C995.851 630.912 991.154 632.809 989.428 636.876L946.638 737.682C944.912 741.749 946.809 746.446 950.876 748.172L984.286 762.354C988.353 764.08 993.049 762.183 994.776 758.116L1037.57 657.309Z" fill="#D9FFE6"/>
<path d="M952.048 745.411L950.876 748.172L984.286 762.354L985.458 759.592L952.048 745.411ZM949.4 738.855L992.189 638.048C993.268 635.507 996.204 634.321 998.745 635.4L1032.16 649.581C1034.7 650.66 1035.88 653.595 1034.8 656.137L992.014 756.943C990.935 759.485 988 760.671 985.458 759.592L984.286 762.354C988.353 764.08 993.049 762.183 994.776 758.116L1037.57 657.309C1039.29 653.242 1037.39 648.546 1033.33 646.82L999.918 632.638C995.851 630.912 991.154 632.809 989.428 636.876L946.638 737.682C944.912 741.749 946.809 746.446 950.876 748.172L952.048 745.411C949.507 744.332 948.321 741.396 949.4 738.855Z" fill="#2E2F33" fill-opacity="0.88"/>
<path d="M1008.96 680.423C1008.26 680.165 1007.48 680.525 1007.23 681.224L1004.72 688.037H990.521L992.87 682.193C993.148 681.501 992.813 680.714 992.121 680.436C991.429 680.158 990.643 680.495 990.365 681.185L977.288 713.721C977.01 714.413 977.345 715.2 978.037 715.478C978.202 715.544 978.372 715.576 978.54 715.576C979.075 715.576 979.582 715.256 979.793 714.729L982.479 708.047C982.537 708.055 982.588 708.081 982.648 708.081H997.346L995.257 713.76C995 714.459 995.358 715.236 996.058 715.492C996.212 715.549 996.37 715.576 996.524 715.576C997.073 715.576 997.59 715.237 997.791 714.691L1009.76 682.155C1010.02 681.456 1009.66 680.679 1008.96 680.423ZM989.716 690.736H1003.73L1001.57 696.607H987.076L989.457 690.684C989.544 690.701 989.624 690.736 989.716 690.736ZM983.55 705.381L986.007 699.269C986.071 699.278 986.129 699.307 986.196 699.307H1000.57L998.339 705.381H983.55Z" fill="#6E4944"/>
</g>
<g id="jeongui_hall_2f_stairs_main_right">
<path d="M1415.64 653.309C1413.91 649.242 1415.81 644.546 1419.88 642.82L1453.29 628.638C1457.35 626.912 1462.05 628.809 1463.78 632.876L1506.57 733.682C1508.29 737.749 1506.39 742.446 1502.33 744.172L1468.92 758.354C1464.85 760.08 1460.15 758.183 1458.43 754.116L1415.64 653.309Z" fill="#D9FFE6"/>
<path d="M1501.16 741.411L1502.33 744.172L1468.92 758.354L1467.75 755.592L1501.16 741.411ZM1503.8 734.855L1461.01 634.048C1459.94 631.507 1457 630.321 1454.46 631.4L1421.05 645.581C1418.51 646.66 1417.32 649.595 1418.4 652.137L1461.19 752.943C1462.27 755.485 1465.2 756.671 1467.75 755.592L1468.92 758.354C1464.85 760.08 1460.15 758.183 1458.43 754.116L1415.64 653.309C1413.91 649.242 1415.81 644.546 1419.88 642.82L1453.29 628.638C1457.35 626.912 1462.05 628.809 1463.78 632.876L1506.57 733.682C1508.29 737.749 1506.39 742.446 1502.33 744.172L1501.16 741.411C1503.7 740.332 1504.88 737.396 1503.8 734.855Z" fill="#2E2F33" fill-opacity="0.88"/>
<path d="M1476.96 675.423C1476.26 675.165 1475.49 675.525 1475.23 676.224L1472.72 683.037H1458.52L1460.87 677.193C1461.15 676.501 1460.81 675.714 1460.12 675.436C1459.43 675.158 1458.64 675.495 1458.37 676.185L1445.29 708.721C1445.01 709.413 1445.35 710.2 1446.04 710.478C1446.2 710.544 1446.37 710.576 1446.54 710.576C1447.08 710.576 1447.58 710.256 1447.79 709.729L1450.48 703.047C1450.54 703.055 1450.59 703.081 1450.65 703.081H1465.35L1463.26 708.76C1463 709.459 1463.36 710.236 1464.06 710.492C1464.21 710.549 1464.37 710.576 1464.52 710.576C1465.07 710.576 1465.59 710.237 1465.79 709.691L1477.76 677.155C1478.02 676.456 1477.66 675.679 1476.96 675.423ZM1457.72 685.736H1471.73L1469.57 691.607H1455.08L1457.46 685.684C1457.54 685.701 1457.62 685.736 1457.72 685.736ZM1451.55 700.381L1454.01 694.269C1454.07 694.278 1454.13 694.307 1454.2 694.307H1468.57L1466.34 700.381H1451.55Z" fill="#6E4944"/>
</g>
<g id="jeongui_hall_2f_elevator">
<path d="M943.435 674.464C941.709 678.531 937.012 680.429 932.945 678.702L887.876 659.572C883.809 657.845 881.912 653.149 883.638 649.082L908.345 590.876C910.071 586.809 914.768 584.912 918.835 586.638L963.904 605.769C967.971 607.495 969.868 612.192 968.142 616.259L943.435 674.464Z" fill="#C4C4C4"/>
<path d="M917.663 589.4L918.835 586.638L963.904 605.769L962.732 608.53L917.663 589.4ZM911.107 592.048L886.4 650.254C885.321 652.796 886.507 655.731 889.049 656.81L934.117 675.941C936.659 677.02 939.595 675.834 940.674 673.292L965.381 615.086C966.459 612.544 965.274 609.609 962.732 608.53L963.904 605.769L964.279 605.94C967.963 607.729 969.701 612.029 968.293 615.876L968.142 616.259L943.435 674.464C941.709 678.531 937.012 680.429 932.945 678.702L887.876 659.572C883.809 657.845 881.912 653.149 883.638 649.082L908.345 590.876L908.515 590.502C910.304 586.817 914.605 585.08 918.452 586.487L918.835 586.638L917.663 589.4C915.121 588.321 912.186 589.507 911.107 592.048Z" fill="#2E2F33" fill-opacity="0.88"/>
<path d="M936.626 612.375H915.376C909.853 612.375 905.376 616.853 905.376 622.375V643.625C905.376 649.148 909.853 653.625 915.376 653.625H936.626C942.148 653.625 946.626 649.148 946.626 643.625V622.375C946.626 616.853 942.148 612.375 936.626 612.375ZM927.021 620.434H928.174C928.289 620.434 928.382 620.341 928.382 620.226V617.675C928.382 617.578 928.461 617.499 928.558 617.499H930.449C930.547 617.499 930.626 617.578 930.626 617.675V620.226C930.626 620.341 930.718 620.434 930.833 620.434H931.987C932.153 620.434 932.236 620.634 932.118 620.751L929.759 623.11C929.618 623.251 929.389 623.251 929.249 623.11L926.891 620.751C926.773 620.634 926.856 620.434 927.021 620.434ZM919.328 619.964L921.687 617.605C921.828 617.464 922.057 617.464 922.197 617.605L924.556 619.964C924.673 620.081 924.589 620.281 924.424 620.281H923.271C923.156 620.281 923.063 620.374 923.063 620.489V623.04C923.063 623.138 922.984 623.216 922.887 623.216H920.996C920.898 623.216 920.819 623.138 920.819 623.04V620.489C920.819 620.374 920.727 620.281 920.612 620.281H919.458C919.292 620.281 919.211 620.081 919.328 619.964ZM941.291 642.34C941.291 645.355 938.838 647.808 935.823 647.808H916.177C913.162 647.808 910.709 645.355 910.709 642.34V630.54C910.709 627.525 913.162 625.073 916.177 625.073H935.823C938.838 625.073 941.291 627.525 941.291 630.54V642.34Z" fill="#4592FB"/>
<path d="M935.823 626.04H916.177C913.696 626.04 911.677 628.059 911.677 630.54V642.34C911.677 644.821 913.696 646.841 916.177 646.841H935.823C938.304 646.841 940.323 644.823 940.323 642.34V630.54C940.323 628.059 938.304 626.04 935.823 626.04ZM933.611 628.925C934.246 628.925 934.761 629.44 934.761 630.075C934.761 630.71 934.246 631.225 933.611 631.225C932.976 631.225 932.461 630.71 932.461 630.075C932.461 629.44 932.976 628.925 933.611 628.925ZM925.867 628.925C926.502 628.925 927.017 629.44 927.017 630.075C927.017 630.71 926.502 631.225 925.867 631.225C925.232 631.225 924.717 630.71 924.717 630.075C924.717 629.44 925.232 628.925 925.867 628.925ZM918.123 628.925C918.758 628.925 919.273 629.44 919.273 630.075C919.273 630.71 918.758 631.225 918.123 631.225C917.488 631.225 916.973 630.71 916.973 630.075C916.973 629.44 917.488 628.925 918.123 628.925ZM921.456 637.081C921.456 637.441 921.163 637.734 920.803 637.734C920.443 637.734 920.151 637.441 920.151 637.081V633.663H919.809V643.084C919.809 643.478 919.491 643.796 919.097 643.796C918.703 643.796 918.384 643.478 918.384 643.084V637.665H917.859V643.084C917.859 643.478 917.541 643.796 917.147 643.796C916.753 643.796 916.434 643.478 916.434 643.084V633.663H915.996V637.081C915.996 637.441 915.703 637.734 915.343 637.734C914.983 637.734 914.691 637.441 914.691 637.081V633.051C914.691 632.33 915.274 631.746 915.996 631.746H920.148C920.868 631.746 921.453 632.33 921.453 633.051V637.081H921.456ZM929.199 637.081C929.199 637.441 928.907 637.734 928.547 637.734C928.187 637.734 927.894 637.441 927.894 637.081V633.663H927.553V643.084C927.553 643.478 927.234 643.796 926.841 643.796C926.447 643.796 926.128 643.478 926.128 643.084V637.665H925.604V643.084C925.604 643.478 925.286 643.796 924.892 643.796C924.498 643.796 924.179 643.478 924.179 643.084V633.663H923.741V637.081C923.741 637.441 923.448 637.734 923.088 637.734C922.728 637.734 922.436 637.441 922.436 637.081V633.051C922.436 632.33 923.019 631.746 923.741 631.746H927.893C928.614 631.746 929.198 632.33 929.198 633.051L929.199 637.081ZM936.943 637.081C936.943 637.441 936.651 637.734 936.291 637.734C935.931 637.734 935.638 637.441 935.638 637.081V633.663H935.297V643.084C935.297 643.478 934.978 643.796 934.584 643.796C934.191 643.796 933.872 643.478 933.872 643.084V637.665H933.347V643.084C933.347 643.478 933.028 643.796 932.634 643.796C932.241 643.796 931.922 643.478 931.922 643.084V633.663H931.483V637.081C931.483 637.441 931.191 637.734 930.831 637.734C930.471 637.734 930.178 637.441 930.178 637.081V633.051C930.178 632.33 930.762 631.746 931.483 631.746H935.636C936.357 631.746 936.941 632.33 936.941 633.051V637.081H936.943Z" fill="#4592FB"/>
<path d="M925.867 631.225C926.502 631.225 927.017 630.71 927.017 630.075C927.017 629.44 926.502 628.925 925.867 628.925C925.232 628.925 924.717 629.44 924.717 630.075C924.717 630.71 925.232 631.225 925.867 631.225Z" fill="white"/>
<path d="M918.123 631.225C918.758 631.225 919.273 630.71 919.273 630.075C919.273 629.44 918.758 628.925 918.123 628.925C917.488 628.925 916.973 629.44 916.973 630.075C916.973 630.71 917.488 631.225 918.123 631.225Z" fill="white"/>
<path d="M933.611 631.225C934.246 631.225 934.761 630.71 934.761 630.075C934.761 629.44 934.246 628.925 933.611 628.925C932.976 628.925 932.461 629.44 932.461 630.075C932.461 630.71 932.976 631.225 933.611 631.225Z" fill="white"/>
<path d="M935.826 625.075H916.176C913.163 625.075 910.713 627.525 910.713 630.538V642.338C910.713 645.35 913.163 647.813 916.176 647.813H935.826C938.838 647.813 941.288 645.35 941.288 642.338V630.538C941.288 627.525 938.838 625.075 935.826 625.075ZM940.326 642.338C940.326 644.825 938.301 646.838 935.826 646.838H916.176C913.701 646.838 911.676 644.825 911.676 642.338V630.538C911.676 628.063 913.701 626.038 916.176 626.038H935.826C938.301 626.038 940.326 628.063 940.326 630.538V642.338Z" fill="white"/>
<path d="M936.938 633.05V637.075C936.938 637.438 936.651 637.738 936.288 637.738C935.926 637.738 935.638 637.438 935.638 637.075L935.638 633.663H935.301V643.088C935.301 643.475 934.976 643.8 934.588 643.8C934.188 643.8 933.876 643.475 933.876 643.088V637.663H933.351V643.088C933.351 643.475 933.026 643.8 932.638 643.8C932.238 643.8 931.926 643.475 931.926 643.088V633.663H931.488V637.075C931.488 637.438 931.188 637.738 930.838 637.738C930.476 637.738 930.176 637.438 930.176 637.075V633.05C930.176 632.325 930.763 631.75 931.488 631.75H935.638C936.363 631.75 936.938 632.325 936.938 633.05Z" fill="white"/>
<path d="M921.451 633.05V637.075C921.451 637.438 921.163 637.738 920.801 637.738C920.438 637.738 920.151 637.438 920.151 637.075L920.151 633.663H919.813V643.088C919.813 643.475 919.488 643.8 919.101 643.8C918.701 643.8 918.388 643.475 918.388 643.088V637.663H917.863V643.088C917.863 643.475 917.538 643.8 917.151 643.8C916.751 643.8 916.438 643.475 916.438 643.088V633.663H916.001V637.075C916.001 637.438 915.701 637.738 915.351 637.738C914.988 637.738 914.688 637.438 914.688 637.075V633.05C914.688 632.325 915.276 631.75 916.001 631.75H920.151C920.876 631.75 921.451 632.325 921.451 633.05Z" fill="white"/>
<path d="M929.201 633.05V637.075C929.201 637.438 928.913 637.738 928.551 637.738C928.188 637.738 927.901 637.438 927.901 637.075V633.663H927.551V643.088C927.551 643.475 927.238 643.8 926.838 643.8C926.451 643.8 926.126 643.475 926.126 643.088V637.663H925.601V643.088C925.601 643.475 925.288 643.8 924.888 643.8C924.501 643.8 924.176 643.475 924.176 643.088V633.663H923.738V637.075C923.738 637.438 923.451 637.738 923.088 637.738C922.726 637.738 922.438 637.438 922.438 637.075V633.05C922.438 632.325 923.026 631.75 923.738 631.75H927.901C928.613 631.75 929.201 632.325 929.201 633.05Z" fill="white"/>
<path d="M919.459 620.282H920.613C920.728 620.282 920.821 620.374 920.821 620.489V623.04C920.821 623.138 920.899 623.217 920.997 623.217H922.888C922.986 623.217 923.064 623.138 923.064 623.04V620.489C923.064 620.374 923.157 620.282 923.272 620.282H924.426C924.592 620.282 924.674 620.08 924.557 619.964L922.198 617.605C922.057 617.464 921.828 617.464 921.688 617.605L919.329 619.964C919.212 620.082 919.294 620.282 919.459 620.282Z" fill="white"/>
<path d="M929.247 623.11C929.388 623.251 929.617 623.251 929.757 623.11L932.116 620.751C932.233 620.634 932.149 620.434 931.984 620.434H930.831C930.716 620.434 930.623 620.341 930.623 620.226V617.675C930.623 617.578 930.544 617.499 930.447 617.499H928.556C928.458 617.499 928.379 617.578 928.379 617.675V620.226C928.379 620.341 928.287 620.434 928.172 620.434H927.018C926.852 620.434 926.769 620.634 926.887 620.751L929.247 623.11Z" fill="white"/>
</g>
</g>
</svg>
